<?xml version="1.0" encoding="UTF-8" standalone="no"?>
<!DOCTYPE svg PUBLIC "-//W3C//DTD SVG 1.1//EN"
 "http://www.w3.org/Graphics/SVG/1.1/DTD/svg11.dtd">
<!-- Generated by graphviz version 2.43.0 (0)
 -->
<!-- Title: game_system/cardmatch.cpp Pages: 1 -->
<!--zoomable 247 -->
<svg id="main" version="1.1" xmlns="http://www.w3.org/2000/svg" xmlns:xlink="http://www.w3.org/1999/xlink" xml:space="preserve" onload="init(evt)">
<style type="text/css"><![CDATA[
.edge:hover path { stroke: red; }
.edge:hover polygon { stroke: red; fill: red; }
]]></style>
<script type="text/javascript"><![CDATA[
var edges = document.getElementsByTagName('g');
if (edges && edges.length) {
  for (var i=0;i<edges.length;i++) {
    if (edges[i].id.substr(0,4)=='edge') {
      edges[i].setAttribute('class','edge');
    }
  }
}
]]></script>
        <defs>
                <circle id="rim" cx="0" cy="0" r="7"/>
                <circle id="rim2" cx="0" cy="0" r="3.5"/>
                <g id="zoomPlus">
                        <use xlink:href="#rim" fill="#404040">
                                <set attributeName="fill" to="#808080" begin="zoomplus.mouseover" end="zoomplus.mouseout"/>
                        </use>
                        <path d="M-4,0h8M0,-4v8" fill="none" stroke="white" stroke-width="1.5" pointer-events="none"/>
                </g>
                <g id="zoomMin">
                        <use xlink:href="#rim" fill="#404040">
                                <set attributeName="fill" to="#808080" begin="zoomminus.mouseover" end="zoomminus.mouseout"/>
                        </use>
                        <path d="M-4,0h8" fill="none" stroke="white" stroke-width="1.5" pointer-events="none"/>
                </g>
                <g id="dirArrow">
                        <path fill="none" stroke="white" stroke-width="1.5" d="M0,-3.0v7 M-2.5,-0.5L0,-3.0L2.5,-0.5"/>
                </g>
               <g id="resetDef">
                       <use xlink:href="#rim2" fill="#404040">
                               <set attributeName="fill" to="#808080" begin="reset.mouseover" end="reset.mouseout"/>
                       </use>
               </g>
        </defs>

<script type="text/javascript">
var viewWidth = 779;
var viewHeight = 247;
var sectionId = 'dynsection-0';
</script>
<script xlink:href="svgpan.js"/>
<svg id="graph" class="graph">
<g id="viewport">
<title>game_system/cardmatch.cpp</title>
<!-- Node1 -->
<g id="node1" class="node">
<title>Node1</title>
<g id="a_node1"><a xlink:title=" ">
<polygon fill="#999999" stroke="#666666" points="393,-239 232,-239 232,-220 393,-220 393,-239"/>
<text text-anchor="middle" x="312.5" y="-227" font-family="Helvetica,sans-Serif" font-size="10.00">game_system/cardmatch.cpp</text>
</a>
</g>
</g>
<!-- Node2 -->
<g id="node2" class="node">
<title>Node2</title>
<g id="a_node2"><a xlink:title=" ">
<polygon fill="#e0e0e0" stroke="#999999" points="77,-184 0,-184 0,-165 77,-165 77,-184"/>
<text text-anchor="middle" x="38.5" y="-172" font-family="Helvetica,sans-Serif" font-size="10.00">cardMatch.h</text>
</a>
</g>
</g>
<!-- Node1&#45;&gt;Node2 -->
<g id="edge1" class="edge">
<title>Node1&#45;&gt;Node2</title>
<path fill="none" stroke="#63b8ff" d="M268.48,-219.98C218.84,-210.38 138.37,-194.82 86.97,-184.88"/>
<polygon fill="#63b8ff" stroke="#63b8ff" points="87.58,-181.43 77.1,-182.97 86.25,-188.3 87.58,-181.43"/>
</g>
<!-- Node3 -->
<g id="node3" class="node">
<title>Node3</title>
<g id="a_node3"><a xlink:title=" ">
<polygon fill="#e0e0e0" stroke="#999999" points="214,-184 95,-184 95,-165 214,-165 214,-184"/>
<text text-anchor="middle" x="154.5" y="-172" font-family="Helvetica,sans-Serif" font-size="10.00">cards/CardInstance.h</text>
</a>
</g>
</g>
<!-- Node1&#45;&gt;Node3 -->
<g id="edge2" class="edge">
<title>Node1&#45;&gt;Node3</title>
<path fill="none" stroke="#63b8ff" d="M287.11,-219.98C260.7,-211.13 219.15,-197.19 189.61,-187.28"/>
<polygon fill="#63b8ff" stroke="#63b8ff" points="190.68,-183.94 180.08,-184.08 188.45,-190.58 190.68,-183.94"/>
</g>
<!-- Node4 -->
<g id="node4" class="node">
<title>Node4</title>
<g id="a_node4"><a xlink:href="cardDefinition_8h.html" target="_top" xlink:title=" ">
<polygon fill="white" stroke="#666666" points="304,-129 181,-129 181,-110 304,-110 304,-129"/>
<text text-anchor="middle" x="242.5" y="-117" font-family="Helvetica,sans-Serif" font-size="10.00">cards/cardDefinition.h</text>
</a>
</g>
</g>
<!-- Node1&#45;&gt;Node4 -->
<g id="edge3" class="edge">
<title>Node1&#45;&gt;Node4</title>
<path fill="none" stroke="#63b8ff" d="M298.88,-219.87C287.34,-211.89 271.17,-199.02 261.5,-184 252.74,-170.39 247.87,-152.58 245.26,-139.28"/>
<polygon fill="#63b8ff" stroke="#63b8ff" points="248.7,-138.63 243.56,-129.36 241.8,-139.81 248.7,-138.63"/>
</g>
<!-- Node9 -->
<g id="node9" class="node">
<title>Node9</title>
<g id="a_node9"><a xlink:href="effect_8h.html" target="_top" xlink:title=" ">
<polygon fill="white" stroke="#666666" points="354,-184 271,-184 271,-165 354,-165 354,-184"/>
<text text-anchor="middle" x="312.5" y="-172" font-family="Helvetica,sans-Serif" font-size="10.00">cards/effect.h</text>
</a>
</g>
</g>
<!-- Node1&#45;&gt;Node9 -->
<g id="edge8" class="edge">
<title>Node1&#45;&gt;Node9</title>
<path fill="none" stroke="#63b8ff" d="M312.5,-219.75C312.5,-212.8 312.5,-202.85 312.5,-194.13"/>
<polygon fill="#63b8ff" stroke="#63b8ff" points="316,-194.09 312.5,-184.09 309,-194.09 316,-194.09"/>
</g>
<!-- Node10 -->
<g id="node10" class="node">
<title>Node10</title>
<g id="a_node10"><a xlink:href="enemy_8h.html" target="_top" xlink:title=" ">
<polygon fill="white" stroke="#666666" points="515,-184 372,-184 372,-165 515,-165 515,-184"/>
<text text-anchor="middle" x="443.5" y="-172" font-family="Helvetica,sans-Serif" font-size="10.00">entities/enemies/enemy.h</text>
</a>
</g>
</g>
<!-- Node1&#45;&gt;Node10 -->
<g id="edge9" class="edge">
<title>Node1&#45;&gt;Node10</title>
<path fill="none" stroke="#63b8ff" d="M333.55,-219.98C354.91,-211.34 388.2,-197.87 412.56,-188.02"/>
<polygon fill="#63b8ff" stroke="#63b8ff" points="414.11,-191.17 422.07,-184.17 411.49,-184.68 414.11,-191.17"/>
</g>
<!-- Node11 -->
<g id="node11" class="node">
<title>Node11</title>
<g id="a_node11"><a xlink:href="player_8h.html" target="_top" xlink:title=" ">
<polygon fill="white" stroke="#666666" points="628,-184 533,-184 533,-165 628,-165 628,-184"/>
<text text-anchor="middle" x="580.5" y="-172" font-family="Helvetica,sans-Serif" font-size="10.00">entities/player.h</text>
</a>
</g>
</g>
<!-- Node1&#45;&gt;Node11 -->
<g id="edge10" class="edge">
<title>Node1&#45;&gt;Node11</title>
<path fill="none" stroke="#63b8ff" d="M355.56,-219.98C402.21,-210.76 476.7,-196.03 527.06,-186.07"/>
<polygon fill="#63b8ff" stroke="#63b8ff" points="527.97,-189.46 537.1,-184.08 526.61,-182.59 527.97,-189.46"/>
</g>
<!-- Node16 -->
<g id="node16" class="node">
<title>Node16</title>
<g id="a_node16"><a xlink:href="debug_8h.html" target="_top" xlink:title=" ">
<polygon fill="white" stroke="#666666" points="770.5,-129 696.5,-129 696.5,-110 770.5,-110 770.5,-129"/>
<text text-anchor="middle" x="733.5" y="-117" font-family="Helvetica,sans-Serif" font-size="10.00">util/debug.h</text>
</a>
</g>
</g>
<!-- Node1&#45;&gt;Node16 -->
<g id="edge24" class="edge">
<title>Node1&#45;&gt;Node16</title>
<path fill="none" stroke="#63b8ff" d="M393.13,-227.23C460.18,-223.89 557.13,-213.7 636.5,-184 666.77,-172.67 697.23,-150.57 715.73,-135.67"/>
<polygon fill="#63b8ff" stroke="#63b8ff" points="718.09,-138.27 723.57,-129.2 713.63,-132.87 718.09,-138.27"/>
</g>
<!-- Node5 -->
<g id="node5" class="node">
<title>Node5</title>
<g id="a_node5"><a xlink:title=" ">
<polygon fill="#e0e0e0" stroke="#999999" points="421.5,-74 363.5,-74 363.5,-55 421.5,-55 421.5,-74"/>
<text text-anchor="middle" x="392.5" y="-62" font-family="Helvetica,sans-Serif" font-size="10.00">memory</text>
</a>
</g>
</g>
<!-- Node4&#45;&gt;Node5 -->
<g id="edge4" class="edge">
<title>Node4&#45;&gt;Node5</title>
<path fill="none" stroke="#63b8ff" d="M266.6,-109.98C291.38,-101.23 330.2,-87.51 358.19,-77.62"/>
<polygon fill="#63b8ff" stroke="#63b8ff" points="359.7,-80.8 367.96,-74.17 357.37,-74.2 359.7,-80.8"/>
</g>
<!-- Node6 -->
<g id="node6" class="node">
<title>Node6</title>
<g id="a_node6"><a xlink:title=" ">
<polygon fill="#e0e0e0" stroke="#999999" points="541.5,-19 497.5,-19 497.5,0 541.5,0 541.5,-19"/>
<text text-anchor="middle" x="519.5" y="-7" font-family="Helvetica,sans-Serif" font-size="10.00">string</text>
</a>
</g>
</g>
<!-- Node4&#45;&gt;Node6 -->
<g id="edge5" class="edge">
<title>Node4&#45;&gt;Node6</title>
<path fill="none" stroke="#63b8ff" d="M228.73,-109.88C210.26,-97.28 181.52,-73.34 197.5,-55 234.87,-12.11 413.05,-9.18 487.11,-9.86"/>
<polygon fill="#63b8ff" stroke="#63b8ff" points="487.21,-13.37 497.25,-9.99 487.29,-6.37 487.21,-13.37"/>
</g>
<!-- Node7 -->
<g id="node7" class="node">
<title>Node7</title>
<g id="a_node7"><a xlink:title=" ">
<polygon fill="#e0e0e0" stroke="#999999" points="345,-74 272,-74 272,-55 345,-55 345,-74"/>
<text text-anchor="middle" x="308.5" y="-62" font-family="Helvetica,sans-Serif" font-size="10.00">string_view</text>
</a>
</g>
</g>
<!-- Node4&#45;&gt;Node7 -->
<g id="edge6" class="edge">
<title>Node4&#45;&gt;Node7</title>
<path fill="none" stroke="#63b8ff" d="M253.1,-109.98C262.96,-102.07 277.85,-90.11 289.72,-80.58"/>
<polygon fill="#63b8ff" stroke="#63b8ff" points="292.1,-83.16 297.7,-74.17 287.71,-77.7 292.1,-83.16"/>
</g>
<!-- Node8 -->
<g id="node8" class="node">
<title>Node8</title>
<g id="a_node8"><a xlink:title=" ">
<polygon fill="#e0e0e0" stroke="#999999" points="254,-74 207,-74 207,-55 254,-55 254,-74"/>
<text text-anchor="middle" x="230.5" y="-62" font-family="Helvetica,sans-Serif" font-size="10.00">vector</text>
</a>
</g>
</g>
<!-- Node4&#45;&gt;Node8 -->
<g id="edge7" class="edge">
<title>Node4&#45;&gt;Node8</title>
<path fill="none" stroke="#63b8ff" d="M240.52,-109.75C238.93,-102.72 236.64,-92.62 234.65,-83.84"/>
<polygon fill="#63b8ff" stroke="#63b8ff" points="238.07,-83.07 232.44,-74.09 231.24,-84.62 238.07,-83.07"/>
</g>
<!-- Node11&#45;&gt;Node6 -->
<g id="edge21" class="edge">
<title>Node11&#45;&gt;Node6</title>
<path fill="none" stroke="#63b8ff" d="M592.4,-164.82C618.47,-144.73 676.17,-93.82 648.5,-55 626.66,-24.37 582.29,-14.62 551.74,-11.63"/>
<polygon fill="#63b8ff" stroke="#63b8ff" points="551.81,-8.12 541.56,-10.83 551.26,-15.1 551.81,-8.12"/>
</g>
<!-- Node11&#45;&gt;Node7 -->
<g id="edge22" class="edge">
<title>Node11&#45;&gt;Node7</title>
<path fill="none" stroke="#63b8ff" d="M537.28,-164.97C491.38,-155.56 422.1,-140.26 397.5,-129 370.46,-116.63 343.18,-95.61 326.08,-81.17"/>
<polygon fill="#63b8ff" stroke="#63b8ff" points="327.98,-78.18 318.12,-74.3 323.4,-83.48 327.98,-78.18"/>
</g>
<!-- Node11&#45;&gt;Node8 -->
<g id="edge23" class="edge">
<title>Node11&#45;&gt;Node8</title>
<path fill="none" stroke="#63b8ff" d="M532.8,-165.18C478.53,-155.47 393.43,-139.42 362.5,-129 323.18,-115.76 280.36,-93.6 254.48,-79.27"/>
<polygon fill="#63b8ff" stroke="#63b8ff" points="255.86,-76.04 245.43,-74.2 252.44,-82.14 255.86,-76.04"/>
</g>
<!-- Node12 -->
<g id="node12" class="node">
<title>Node12</title>
<g id="a_node12"><a xlink:href="deckEntry_8h.html" target="_top" xlink:title=" ">
<polygon fill="white" stroke="#666666" points="640,-74 541,-74 541,-55 640,-55 640,-74"/>
<text text-anchor="middle" x="590.5" y="-62" font-family="Helvetica,sans-Serif" font-size="10.00">deck/deckEntry.h</text>
</a>
</g>
</g>
<!-- Node11&#45;&gt;Node12 -->
<g id="edge11" class="edge">
<title>Node11&#45;&gt;Node12</title>
<path fill="none" stroke="#63b8ff" d="M581.32,-164.66C582.94,-147.17 586.58,-107.8 588.76,-84.27"/>
<polygon fill="#63b8ff" stroke="#63b8ff" points="592.26,-84.44 589.7,-74.16 585.29,-83.79 592.26,-84.44"/>
</g>
<!-- Node13 -->
<g id="node13" class="node">
<title>Node13</title>
<g id="a_node13"><a xlink:href="deckPlayer_8h.html" target="_top" xlink:title=" ">
<polygon fill="white" stroke="#666666" points="512,-129 407,-129 407,-110 512,-110 512,-129"/>
<text text-anchor="middle" x="459.5" y="-117" font-family="Helvetica,sans-Serif" font-size="10.00">deck/deckPlayer.h</text>
</a>
</g>
</g>
<!-- Node11&#45;&gt;Node13 -->
<g id="edge13" class="edge">
<title>Node11&#45;&gt;Node13</title>
<path fill="none" stroke="#63b8ff" d="M561.06,-164.98C541.51,-156.42 511.12,-143.11 488.68,-133.28"/>
<polygon fill="#63b8ff" stroke="#63b8ff" points="489.86,-129.98 479.29,-129.17 487.05,-136.39 489.86,-129.98"/>
</g>
<!-- Node12&#45;&gt;Node6 -->
<g id="edge12" class="edge">
<title>Node12&#45;&gt;Node6</title>
<path fill="none" stroke="#63b8ff" d="M579.09,-54.98C568.39,-47 552.16,-34.88 539.34,-25.31"/>
<polygon fill="#63b8ff" stroke="#63b8ff" points="541.22,-22.35 531.11,-19.17 537.03,-27.96 541.22,-22.35"/>
</g>
<!-- Node13&#45;&gt;Node5 -->
<g id="edge16" class="edge">
<title>Node13&#45;&gt;Node5</title>
<path fill="none" stroke="#63b8ff" d="M448.74,-109.98C438.73,-102.07 423.61,-90.11 411.57,-80.58"/>
<polygon fill="#63b8ff" stroke="#63b8ff" points="413.47,-77.63 403.46,-74.17 409.13,-83.12 413.47,-77.63"/>
</g>
<!-- Node13&#45;&gt;Node6 -->
<g id="edge17" class="edge">
<title>Node13&#45;&gt;Node6</title>
<path fill="none" stroke="#63b8ff" d="M458.88,-109.69C458.38,-96.85 458.94,-72.62 468.5,-55 475.07,-42.9 486.31,-32.55 496.57,-24.89"/>
<polygon fill="#63b8ff" stroke="#63b8ff" points="498.65,-27.7 504.83,-19.1 494.63,-21.97 498.65,-27.7"/>
</g>
<!-- Node13&#45;&gt;Node7 -->
<g id="edge18" class="edge">
<title>Node13&#45;&gt;Node7</title>
<path fill="none" stroke="#63b8ff" d="M435.24,-109.98C410.18,-101.19 370.87,-87.39 342.67,-77.49"/>
<polygon fill="#63b8ff" stroke="#63b8ff" points="343.8,-74.18 333.2,-74.17 341.48,-80.78 343.8,-74.18"/>
</g>
<!-- Node13&#45;&gt;Node8 -->
<g id="edge20" class="edge">
<title>Node13&#45;&gt;Node8</title>
<path fill="none" stroke="#63b8ff" d="M419.78,-109.99C382.02,-101.79 323.4,-88.8 264.14,-74.34"/>
<polygon fill="#63b8ff" stroke="#63b8ff" points="264.79,-70.9 254.24,-71.91 263.12,-77.69 264.79,-70.9"/>
</g>
<!-- Node13&#45;&gt;Node12 -->
<g id="edge14" class="edge">
<title>Node13&#45;&gt;Node12</title>
<path fill="none" stroke="#63b8ff" d="M480.55,-109.98C501.91,-101.34 535.2,-87.87 559.56,-78.02"/>
<polygon fill="#63b8ff" stroke="#63b8ff" points="561.11,-81.17 569.07,-74.17 558.49,-74.68 561.11,-81.17"/>
</g>
<!-- Node14 -->
<g id="node14" class="node">
<title>Node14</title>
<g id="a_node14"><a xlink:title=" ">
<polygon fill="#e0e0e0" stroke="#999999" points="760.5,-74 700.5,-74 700.5,-55 760.5,-55 760.5,-74"/>
<text text-anchor="middle" x="730.5" y="-62" font-family="Helvetica,sans-Serif" font-size="10.00">iostream</text>
</a>
</g>
</g>
<!-- Node13&#45;&gt;Node14 -->
<g id="edge15" class="edge">
<title>Node13&#45;&gt;Node14</title>
<path fill="none" stroke="#63b8ff" d="M503.04,-109.98C554.83,-99.86 640.56,-83.09 690.67,-73.29"/>
<polygon fill="#63b8ff" stroke="#63b8ff" points="691.35,-76.72 700.49,-71.37 690.01,-69.85 691.35,-76.72"/>
</g>
<!-- Node15 -->
<g id="node15" class="node">
<title>Node15</title>
<g id="a_node15"><a xlink:title=" ">
<polygon fill="#e0e0e0" stroke="#999999" points="523,-74 478,-74 478,-55 523,-55 523,-74"/>
<text text-anchor="middle" x="500.5" y="-62" font-family="Helvetica,sans-Serif" font-size="10.00">utility</text>
</a>
</g>
</g>
<!-- Node13&#45;&gt;Node15 -->
<g id="edge19" class="edge">
<title>Node13&#45;&gt;Node15</title>
<path fill="none" stroke="#63b8ff" d="M466.27,-109.75C472.06,-102.26 480.56,-91.28 487.64,-82.13"/>
<polygon fill="#63b8ff" stroke="#63b8ff" points="490.51,-84.14 493.86,-74.09 484.97,-79.86 490.51,-84.14"/>
</g>
<!-- Node16&#45;&gt;Node14 -->
<g id="edge25" class="edge">
<title>Node16&#45;&gt;Node14</title>
<path fill="none" stroke="#63b8ff" d="M733,-109.75C732.61,-102.8 732.05,-92.85 731.55,-84.13"/>
<polygon fill="#63b8ff" stroke="#63b8ff" points="735.05,-83.88 730.99,-74.09 728.06,-84.27 735.05,-83.88"/>
</g>
</g>
</svg>
        <g id="navigator" transform="translate(0 0)" fill="#404254">
                <rect fill="#f2f5e9" fill-opacity="0.5" stroke="#606060" stroke-width=".5" x="0" y="0" width="60" height="60"/>
                <use id="zoomplus" xlink:href="#zoomPlus" x="17" y="9" onmousedown="handleZoom(evt,'in')"/>
                <use id="zoomminus" xlink:href="#zoomMin" x="42" y="9" onmousedown="handleZoom(evt,'out')"/>
                <use id="reset" xlink:href="#resetDef" x="30" y="36" onmousedown="handleReset()"/>
                <g id="arrowUp" xlink:href="#dirArrow" transform="translate(30 24)" onmousedown="handlePan(0,-1)">
                  <use xlink:href="#rim" fill="#404040">
                        <set attributeName="fill" to="#808080" begin="arrowUp.mouseover" end="arrowUp.mouseout"/>
                  </use>
                  <path fill="none" stroke="white" stroke-width="1.5" d="M0,-3.0v7 M-2.5,-0.5L0,-3.0L2.5,-0.5"/>
                </g>
                <g id="arrowRight" xlink:href="#dirArrow" transform="rotate(90) translate(36 -43)" onmousedown="handlePan(1,0)">
                  <use xlink:href="#rim" fill="#404040">
                        <set attributeName="fill" to="#808080" begin="arrowRight.mouseover" end="arrowRight.mouseout"/>
                  </use>
                  <path fill="none" stroke="white" stroke-width="1.5" d="M0,-3.0v7 M-2.5,-0.5L0,-3.0L2.5,-0.5"/>
                </g>
                <g id="arrowDown" xlink:href="#dirArrow" transform="rotate(180) translate(-30 -48)" onmousedown="handlePan(0,1)">
                  <use xlink:href="#rim" fill="#404040">
                        <set attributeName="fill" to="#808080" begin="arrowDown.mouseover" end="arrowDown.mouseout"/>
                  </use>
                  <path fill="none" stroke="white" stroke-width="1.5" d="M0,-3.0v7 M-2.5,-0.5L0,-3.0L2.5,-0.5"/>
                </g>
                <g id="arrowLeft" xlink:href="#dirArrow" transform="rotate(270) translate(-36 17)" onmousedown="handlePan(-1,0)">
                  <use xlink:href="#rim" fill="#404040">
                        <set attributeName="fill" to="#808080" begin="arrowLeft.mouseover" end="arrowLeft.mouseout"/>
                  </use>
                  <path fill="none" stroke="white" stroke-width="1.5" d="M0,-3.0v7 M-2.5,-0.5L0,-3.0L2.5,-0.5"/>
                </g>
        </g>
        <svg viewBox="0 0 15 15" width="100%" height="30px" preserveAspectRatio="xMaxYMin meet">
         <g id="arrow_out" transform="scale(0.3 0.3)">
          <a xlink:href="cardmatch_8cpp__incl_org.svg" target="_base">
           <rect id="button" ry="5" rx="5" y="6" x="6" height="38" width="38"
                fill="#f2f5e9" fill-opacity="0.5" stroke="#606060" stroke-width="1.0"/>
           <path id="arrow"
             d="M 11.500037,31.436501 C 11.940474,20.09759 22.043105,11.32322 32.158766,21.979434 L 37.068811,17.246167 C 37.068811,17.246167 37.088388,32 37.088388,32 L 22.160133,31.978069 C 22.160133,31.978069 26.997745,27.140456 26.997745,27.140456 C 18.528582,18.264221 13.291696,25.230495 11.500037,31.436501 z"
             style="fill:#404040;"/>
          </a>
         </g>
        </svg>
</svg>
