<?xml version="1.0" encoding="UTF-8" standalone="no"?>
<!DOCTYPE svg PUBLIC "-//W3C//DTD SVG 1.1//EN"
 "http://www.w3.org/Graphics/SVG/1.1/DTD/svg11.dtd">
<!-- Generated by graphviz version 2.43.0 (0)
 -->
<!-- Title: factories/cardFactory.cpp Pages: 1 -->
<!--zoomable 192 -->
<svg id="main" version="1.1" xmlns="http://www.w3.org/2000/svg" xmlns:xlink="http://www.w3.org/1999/xlink" xml:space="preserve" onload="init(evt)">
<style type="text/css"><![CDATA[
.edge:hover path { stroke: red; }
.edge:hover polygon { stroke: red; fill: red; }
]]></style>
<script type="text/javascript"><![CDATA[
var edges = document.getElementsByTagName('g');
if (edges && edges.length) {
  for (var i=0;i<edges.length;i++) {
    if (edges[i].id.substr(0,4)=='edge') {
      edges[i].setAttribute('class','edge');
    }
  }
}
]]></script>
        <defs>
                <circle id="rim" cx="0" cy="0" r="7"/>
                <circle id="rim2" cx="0" cy="0" r="3.5"/>
                <g id="zoomPlus">
                        <use xlink:href="#rim" fill="#404040">
                                <set attributeName="fill" to="#808080" begin="zoomplus.mouseover" end="zoomplus.mouseout"/>
                        </use>
                        <path d="M-4,0h8M0,-4v8" fill="none" stroke="white" stroke-width="1.5" pointer-events="none"/>
                </g>
                <g id="zoomMin">
                        <use xlink:href="#rim" fill="#404040">
                                <set attributeName="fill" to="#808080" begin="zoomminus.mouseover" end="zoomminus.mouseout"/>
                        </use>
                        <path d="M-4,0h8" fill="none" stroke="white" stroke-width="1.5" pointer-events="none"/>
                </g>
                <g id="dirArrow">
                        <path fill="none" stroke="white" stroke-width="1.5" d="M0,-3.0v7 M-2.5,-0.5L0,-3.0L2.5,-0.5"/>
                </g>
               <g id="resetDef">
                       <use xlink:href="#rim2" fill="#404040">
                               <set attributeName="fill" to="#808080" begin="reset.mouseover" end="reset.mouseout"/>
                       </use>
               </g>
        </defs>

<script type="text/javascript">
var viewWidth = 704;
var viewHeight = 192;
var sectionId = 'dynsection-0';
</script>
<script xlink:href="svgpan.js"/>
<svg id="graph" class="graph">
<g id="viewport">
<title>factories/cardFactory.cpp</title>
<!-- Node1 -->
<g id="node1" class="node">
<title>Node1</title>
<g id="a_node1"><a xlink:title=" ">
<polygon fill="#999999" stroke="#666666" points="406.94,-184 269.94,-184 269.94,-165 406.94,-165 406.94,-184"/>
<text text-anchor="middle" x="338.44" y="-172" font-family="Helvetica,sans-Serif" font-size="10.00">factories/cardFactory.cpp</text>
</a>
</g>
</g>
<!-- Node2 -->
<g id="node2" class="node">
<title>Node2</title>
<g id="a_node2"><a xlink:href="cardFactory_8h.html" target="_top" xlink:title=" ">
<polygon fill="white" stroke="#666666" points="378.44,-129 298.44,-129 298.44,-110 378.44,-110 378.44,-129"/>
<text text-anchor="middle" x="338.44" y="-117" font-family="Helvetica,sans-Serif" font-size="10.00">cardFactory.h</text>
</a>
</g>
</g>
<!-- Node1&#45;&gt;Node2 -->
<g id="edge1" class="edge">
<title>Node1&#45;&gt;Node2</title>
<path fill="none" stroke="#63b8ff" d="M338.44,-164.75C338.44,-157.8 338.44,-147.85 338.44,-139.13"/>
<polygon fill="#63b8ff" stroke="#63b8ff" points="341.95,-139.09 338.44,-129.09 334.95,-139.09 341.95,-139.09"/>
</g>
<!-- Node4 -->
<g id="node4" class="node">
<title>Node4</title>
<g id="a_node4"><a xlink:title=" ">
<polygon fill="#e0e0e0" stroke="#999999" points="60.44,-19 2.44,-19 2.44,0 60.44,0 60.44,-19"/>
<text text-anchor="middle" x="31.44" y="-7" font-family="Helvetica,sans-Serif" font-size="10.00">memory</text>
</a>
</g>
</g>
<!-- Node1&#45;&gt;Node4 -->
<g id="edge19" class="edge">
<title>Node1&#45;&gt;Node4</title>
<path fill="none" stroke="#63b8ff" d="M269.59,-174.25C183.98,-173.54 45.12,-166.44 12.44,-129 -12.23,-100.73 7.22,-53.59 20.92,-28.12"/>
<polygon fill="#63b8ff" stroke="#63b8ff" points="24.07,-29.64 25.95,-19.22 17.98,-26.2 24.07,-29.64"/>
</g>
<!-- Node8 -->
<g id="node8" class="node">
<title>Node8</title>
<g id="a_node8"><a xlink:href="cardDefinition_8h.html" target="_top" xlink:title=" ">
<polygon fill="white" stroke="#666666" points="144.94,-129 21.94,-129 21.94,-110 144.94,-110 144.94,-129"/>
<text text-anchor="middle" x="83.44" y="-117" font-family="Helvetica,sans-Serif" font-size="10.00">cards/cardDefinition.h</text>
</a>
</g>
</g>
<!-- Node1&#45;&gt;Node8 -->
<g id="edge7" class="edge">
<title>Node1&#45;&gt;Node8</title>
<path fill="none" stroke="#63b8ff" d="M297.47,-164.98C253.18,-155.78 182.5,-141.09 134.6,-131.13"/>
<polygon fill="#63b8ff" stroke="#63b8ff" points="135.24,-127.69 124.74,-129.08 133.81,-134.54 135.24,-127.69"/>
</g>
<!-- Node10 -->
<g id="node10" class="node">
<title>Node10</title>
<g id="a_node10"><a xlink:href="cardInstance_8h.html" target="_top" xlink:title=" ">
<polygon fill="white" stroke="#666666" points="279.94,-129 162.94,-129 162.94,-110 279.94,-110 279.94,-129"/>
<text text-anchor="middle" x="221.44" y="-117" font-family="Helvetica,sans-Serif" font-size="10.00">cards/cardInstance.h</text>
</a>
</g>
</g>
<!-- Node1&#45;&gt;Node10 -->
<g id="edge12" class="edge">
<title>Node1&#45;&gt;Node10</title>
<path fill="none" stroke="#63b8ff" d="M319.65,-164.98C300.83,-156.46 271.62,-143.23 249.95,-133.41"/>
<polygon fill="#63b8ff" stroke="#63b8ff" points="251.14,-130.11 240.59,-129.17 248.25,-136.48 251.14,-130.11"/>
</g>
<!-- Node11 -->
<g id="node11" class="node">
<title>Node11</title>
<g id="a_node11"><a xlink:href="effect_8h.html" target="_top" xlink:title=" ">
<polygon fill="white" stroke="#666666" points="556.94,-74 473.94,-74 473.94,-55 556.94,-55 556.94,-74"/>
<text text-anchor="middle" x="515.44" y="-62" font-family="Helvetica,sans-Serif" font-size="10.00">cards/effect.h</text>
</a>
</g>
</g>
<!-- Node1&#45;&gt;Node11 -->
<g id="edge14" class="edge">
<title>Node1&#45;&gt;Node11</title>
<path fill="none" stroke="#63b8ff" d="M349.02,-164.86C364.99,-152.02 396.5,-127.54 425.44,-110 445.07,-98.11 468.3,-86.68 486.25,-78.38"/>
<polygon fill="#63b8ff" stroke="#63b8ff" points="487.97,-81.45 495.62,-74.11 485.07,-75.08 487.97,-81.45"/>
</g>
<!-- Node12 -->
<g id="node12" class="node">
<title>Node12</title>
<g id="a_node12"><a xlink:href="debug_8h.html" target="_top" xlink:title=" ">
<polygon fill="white" stroke="#666666" points="696.44,-129 622.44,-129 622.44,-110 696.44,-110 696.44,-129"/>
<text text-anchor="middle" x="659.44" y="-117" font-family="Helvetica,sans-Serif" font-size="10.00">util/debug.h</text>
</a>
</g>
</g>
<!-- Node1&#45;&gt;Node12 -->
<g id="edge15" class="edge">
<title>Node1&#45;&gt;Node12</title>
<path fill="none" stroke="#63b8ff" d="M393.29,-164.99C446.67,-156.63 530.35,-143.3 612.31,-129.17"/>
<polygon fill="#63b8ff" stroke="#63b8ff" points="613.04,-132.59 622.3,-127.44 611.85,-125.69 613.04,-132.59"/>
</g>
<!-- Node14 -->
<g id="node14" class="node">
<title>Node14</title>
<g id="a_node14"><a xlink:href="gainArmorEffect_8h.html" target="_top" xlink:title=" ">
<polygon fill="white" stroke="#666666" points="604.44,-129 434.44,-129 434.44,-110 604.44,-110 604.44,-129"/>
<text text-anchor="middle" x="519.44" y="-117" font-family="Helvetica,sans-Serif" font-size="10.00">cards/effects/gainArmorEffect.h</text>
</a>
</g>
</g>
<!-- Node1&#45;&gt;Node14 -->
<g id="edge17" class="edge">
<title>Node1&#45;&gt;Node14</title>
<path fill="none" stroke="#63b8ff" d="M367.53,-164.98C398.05,-156.05 446.21,-141.94 480.11,-132.02"/>
<polygon fill="#63b8ff" stroke="#63b8ff" points="481.52,-135.25 490.14,-129.08 479.56,-128.53 481.52,-135.25"/>
</g>
<!-- Node3 -->
<g id="node3" class="node">
<title>Node3</title>
<g id="a_node3"><a xlink:href="ICardFactory_8h.html" target="_top" xlink:title=" ">
<polygon fill="white" stroke="#666666" points="339.94,-74 254.94,-74 254.94,-55 339.94,-55 339.94,-74"/>
<text text-anchor="middle" x="297.44" y="-62" font-family="Helvetica,sans-Serif" font-size="10.00">ICardFactory.h</text>
</a>
</g>
</g>
<!-- Node2&#45;&gt;Node3 -->
<g id="edge2" class="edge">
<title>Node2&#45;&gt;Node3</title>
<path fill="none" stroke="#63b8ff" d="M331.67,-109.75C325.88,-102.26 317.39,-91.28 310.31,-82.13"/>
<polygon fill="#63b8ff" stroke="#63b8ff" points="312.98,-79.86 304.09,-74.09 307.44,-84.14 312.98,-79.86"/>
</g>
<!-- Node6 -->
<g id="node6" class="node">
<title>Node6</title>
<g id="a_node6"><a xlink:title=" ">
<polygon fill="#e0e0e0" stroke="#999999" points="236.94,-74 163.94,-74 163.94,-55 236.94,-55 236.94,-74"/>
<text text-anchor="middle" x="200.44" y="-62" font-family="Helvetica,sans-Serif" font-size="10.00">string_view</text>
</a>
</g>
</g>
<!-- Node2&#45;&gt;Node6 -->
<g id="edge5" class="edge">
<title>Node2&#45;&gt;Node6</title>
<path fill="none" stroke="#63b8ff" d="M316.27,-109.98C293.67,-101.3 258.38,-87.75 232.69,-77.88"/>
<polygon fill="#63b8ff" stroke="#63b8ff" points="233.61,-74.49 223.02,-74.17 231.1,-81.02 233.61,-74.49"/>
</g>
<!-- Node7 -->
<g id="node7" class="node">
<title>Node7</title>
<g id="a_node7"><a xlink:title=" ">
<polygon fill="#e0e0e0" stroke="#999999" points="450.94,-74 357.94,-74 357.94,-55 450.94,-55 450.94,-74"/>
<text text-anchor="middle" x="404.44" y="-62" font-family="Helvetica,sans-Serif" font-size="10.00">unordered_map</text>
</a>
</g>
</g>
<!-- Node2&#45;&gt;Node7 -->
<g id="edge6" class="edge">
<title>Node2&#45;&gt;Node7</title>
<path fill="none" stroke="#63b8ff" d="M349.05,-109.98C358.9,-102.07 373.8,-90.11 385.66,-80.58"/>
<polygon fill="#63b8ff" stroke="#63b8ff" points="388.04,-83.16 393.65,-74.17 383.66,-77.7 388.04,-83.16"/>
</g>
<!-- Node3&#45;&gt;Node4 -->
<g id="edge3" class="edge">
<title>Node3&#45;&gt;Node4</title>
<path fill="none" stroke="#63b8ff" d="M254.71,-54.98C203.84,-44.85 119.62,-28.07 70.45,-18.27"/>
<polygon fill="#63b8ff" stroke="#63b8ff" points="71.01,-14.81 60.52,-16.29 69.64,-21.68 71.01,-14.81"/>
</g>
<!-- Node5 -->
<g id="node5" class="node">
<title>Node5</title>
<g id="a_node5"><a xlink:title=" ">
<polygon fill="#e0e0e0" stroke="#999999" points="238.44,-19 194.44,-19 194.44,0 238.44,0 238.44,-19"/>
<text text-anchor="middle" x="216.44" y="-7" font-family="Helvetica,sans-Serif" font-size="10.00">string</text>
</a>
</g>
</g>
<!-- Node3&#45;&gt;Node5 -->
<g id="edge4" class="edge">
<title>Node3&#45;&gt;Node5</title>
<path fill="none" stroke="#63b8ff" d="M284.43,-54.98C271.99,-46.84 252.99,-34.41 238.24,-24.76"/>
<polygon fill="#63b8ff" stroke="#63b8ff" points="239.98,-21.72 229.7,-19.17 236.15,-27.57 239.98,-21.72"/>
</g>
<!-- Node8&#45;&gt;Node4 -->
<g id="edge8" class="edge">
<title>Node8&#45;&gt;Node4</title>
<path fill="none" stroke="#63b8ff" d="M75.63,-109.9C68.23,-101.35 57.25,-87.59 50.44,-74 43.27,-59.68 38.28,-42.15 35.22,-29.14"/>
<polygon fill="#63b8ff" stroke="#63b8ff" points="38.57,-28.09 33.02,-19.07 31.73,-29.59 38.57,-28.09"/>
</g>
<!-- Node8&#45;&gt;Node5 -->
<g id="edge9" class="edge">
<title>Node8&#45;&gt;Node5</title>
<path fill="none" stroke="#63b8ff" d="M92.36,-109.96C105.56,-97.45 131.23,-73.63 154.44,-55 167.46,-44.56 182.67,-33.63 194.77,-25.21"/>
<polygon fill="#63b8ff" stroke="#63b8ff" points="197.07,-27.87 203.32,-19.31 193.1,-22.1 197.07,-27.87"/>
</g>
<!-- Node8&#45;&gt;Node6 -->
<g id="edge10" class="edge">
<title>Node8&#45;&gt;Node6</title>
<path fill="none" stroke="#63b8ff" d="M102.24,-109.98C121.06,-101.46 150.27,-88.23 171.94,-78.41"/>
<polygon fill="#63b8ff" stroke="#63b8ff" points="173.64,-81.48 181.3,-74.17 170.75,-75.11 173.64,-81.48"/>
</g>
<!-- Node9 -->
<g id="node9" class="node">
<title>Node9</title>
<g id="a_node9"><a xlink:title=" ">
<polygon fill="#e0e0e0" stroke="#999999" points="106.94,-74 59.94,-74 59.94,-55 106.94,-55 106.94,-74"/>
<text text-anchor="middle" x="83.44" y="-62" font-family="Helvetica,sans-Serif" font-size="10.00">vector</text>
</a>
</g>
</g>
<!-- Node8&#45;&gt;Node9 -->
<g id="edge11" class="edge">
<title>Node8&#45;&gt;Node9</title>
<path fill="none" stroke="#63b8ff" d="M83.44,-109.75C83.44,-102.8 83.44,-92.85 83.44,-84.13"/>
<polygon fill="#63b8ff" stroke="#63b8ff" points="86.95,-84.09 83.44,-74.09 79.95,-84.09 86.95,-84.09"/>
</g>
<!-- Node10&#45;&gt;Node6 -->
<g id="edge13" class="edge">
<title>Node10&#45;&gt;Node6</title>
<path fill="none" stroke="#63b8ff" d="M217.98,-109.75C215.16,-102.65 211.1,-92.4 207.6,-83.56"/>
<polygon fill="#63b8ff" stroke="#63b8ff" points="210.79,-82.1 203.85,-74.09 204.28,-84.68 210.79,-82.1"/>
</g>
<!-- Node13 -->
<g id="node13" class="node">
<title>Node13</title>
<g id="a_node13"><a xlink:title=" ">
<polygon fill="#e0e0e0" stroke="#999999" points="689.44,-74 629.44,-74 629.44,-55 689.44,-55 689.44,-74"/>
<text text-anchor="middle" x="659.44" y="-62" font-family="Helvetica,sans-Serif" font-size="10.00">iostream</text>
</a>
</g>
</g>
<!-- Node12&#45;&gt;Node13 -->
<g id="edge16" class="edge">
<title>Node12&#45;&gt;Node13</title>
<path fill="none" stroke="#63b8ff" d="M659.44,-109.75C659.44,-102.8 659.44,-92.85 659.44,-84.13"/>
<polygon fill="#63b8ff" stroke="#63b8ff" points="662.95,-84.09 659.44,-74.09 655.95,-84.09 662.95,-84.09"/>
</g>
<!-- Node14&#45;&gt;Node11 -->
<g id="edge18" class="edge">
<title>Node14&#45;&gt;Node11</title>
<path fill="none" stroke="#63b8ff" d="M518.78,-109.75C518.26,-102.8 517.51,-92.85 516.85,-84.13"/>
<polygon fill="#63b8ff" stroke="#63b8ff" points="520.34,-83.8 516.09,-74.09 513.36,-84.32 520.34,-83.8"/>
</g>
</g>
</svg>
        <g id="navigator" transform="translate(0 0)" fill="#404254">
                <rect fill="#f2f5e9" fill-opacity="0.5" stroke="#606060" stroke-width=".5" x="0" y="0" width="60" height="60"/>
                <use id="zoomplus" xlink:href="#zoomPlus" x="17" y="9" onmousedown="handleZoom(evt,'in')"/>
                <use id="zoomminus" xlink:href="#zoomMin" x="42" y="9" onmousedown="handleZoom(evt,'out')"/>
                <use id="reset" xlink:href="#resetDef" x="30" y="36" onmousedown="handleReset()"/>
                <g id="arrowUp" xlink:href="#dirArrow" transform="translate(30 24)" onmousedown="handlePan(0,-1)">
                  <use xlink:href="#rim" fill="#404040">
                        <set attributeName="fill" to="#808080" begin="arrowUp.mouseover" end="arrowUp.mouseout"/>
                  </use>
                  <path fill="none" stroke="white" stroke-width="1.5" d="M0,-3.0v7 M-2.5,-0.5L0,-3.0L2.5,-0.5"/>
                </g>
                <g id="arrowRight" xlink:href="#dirArrow" transform="rotate(90) translate(36 -43)" onmousedown="handlePan(1,0)">
                  <use xlink:href="#rim" fill="#404040">
                        <set attributeName="fill" to="#808080" begin="arrowRight.mouseover" end="arrowRight.mouseout"/>
                  </use>
                  <path fill="none" stroke="white" stroke-width="1.5" d="M0,-3.0v7 M-2.5,-0.5L0,-3.0L2.5,-0.5"/>
                </g>
                <g id="arrowDown" xlink:href="#dirArrow" transform="rotate(180) translate(-30 -48)" onmousedown="handlePan(0,1)">
                  <use xlink:href="#rim" fill="#404040">
                        <set attributeName="fill" to="#808080" begin="arrowDown.mouseover" end="arrowDown.mouseout"/>
                  </use>
                  <path fill="none" stroke="white" stroke-width="1.5" d="M0,-3.0v7 M-2.5,-0.5L0,-3.0L2.5,-0.5"/>
                </g>
                <g id="arrowLeft" xlink:href="#dirArrow" transform="rotate(270) translate(-36 17)" onmousedown="handlePan(-1,0)">
                  <use xlink:href="#rim" fill="#404040">
                        <set attributeName="fill" to="#808080" begin="arrowLeft.mouseover" end="arrowLeft.mouseout"/>
                  </use>
                  <path fill="none" stroke="white" stroke-width="1.5" d="M0,-3.0v7 M-2.5,-0.5L0,-3.0L2.5,-0.5"/>
                </g>
        </g>
        <svg viewBox="0 0 15 15" width="100%" height="30px" preserveAspectRatio="xMaxYMin meet">
         <g id="arrow_out" transform="scale(0.3 0.3)">
          <a xlink:href="cardFactory_8cpp__incl_org.svg" target="_base">
           <rect id="button" ry="5" rx="5" y="6" x="6" height="38" width="38"
                fill="#f2f5e9" fill-opacity="0.5" stroke="#606060" stroke-width="1.0"/>
           <path id="arrow"
             d="M 11.500037,31.436501 C 11.940474,20.09759 22.043105,11.32322 32.158766,21.979434 L 37.068811,17.246167 C 37.068811,17.246167 37.088388,32 37.088388,32 L 22.160133,31.978069 C 22.160133,31.978069 26.997745,27.140456 26.997745,27.140456 C 18.528582,18.264221 13.291696,25.230495 11.500037,31.436501 z"
             style="fill:#404040;"/>
          </a>
         </g>
        </svg>
</svg>
