<?xml version="1.0" encoding="UTF-8" standalone="no"?>
<!DOCTYPE svg PUBLIC "-//W3C//DTD SVG 1.1//EN"
 "http://www.w3.org/Graphics/SVG/1.1/DTD/svg11.dtd">
<!-- Generated by graphviz version 2.43.0 (0)
 -->
<!-- Title: factories/cardFactory.h Pages: 1 -->
<svg width="328pt" height="137pt"
 viewBox="0.00 0.00 328.00 137.00" xmlns="http://www.w3.org/2000/svg" xmlns:xlink="http://www.w3.org/1999/xlink">
<g id="graph0" class="graph" transform="scale(1 1) rotate(0) translate(4 133)">
<title>factories/cardFactory.h</title>
<!-- Node1 -->
<g id="node1" class="node">
<title>Node1</title>
<g id="a_node1"><a xlink:title=" ">
<polygon fill="#999999" stroke="#666666" points="211.5,-129 85.5,-129 85.5,-110 211.5,-110 211.5,-129"/>
<text text-anchor="middle" x="148.5" y="-117" font-family="Helvetica,sans-Serif" font-size="10.00">factories/cardFactory.h</text>
</a>
</g>
</g>
<!-- Node2 -->
<g id="node2" class="node">
<title>Node2</title>
<g id="a_node2"><a xlink:href="cardFactory_8cpp.html" target="_top" xlink:title=" ">
<polygon fill="white" stroke="#666666" points="137,-74 0,-74 0,-55 137,-55 137,-74"/>
<text text-anchor="middle" x="68.5" y="-62" font-family="Helvetica,sans-Serif" font-size="10.00">factories/cardFactory.cpp</text>
</a>
</g>
</g>
<!-- Node1&#45;&gt;Node2 -->
<g id="edge1" class="edge">
<title>Node1&#45;&gt;Node2</title>
<path fill="none" stroke="#63b8ff" d="M127.25,-104.42C112.74,-94.81 93.96,-82.37 81.59,-74.17"/>
<polygon fill="#63b8ff" stroke="#63b8ff" points="125.38,-107.38 135.65,-109.98 129.24,-101.54 125.38,-107.38"/>
</g>
<!-- Node3 -->
<g id="node3" class="node">
<title>Node3</title>
<g id="a_node3"><a xlink:href="cardmatch_8h.html" target="_top" xlink:title=" ">
<polygon fill="white" stroke="#666666" points="304,-74 155,-74 155,-55 304,-55 304,-74"/>
<text text-anchor="middle" x="229.5" y="-62" font-family="Helvetica,sans-Serif" font-size="10.00">game_system/cardmatch.h</text>
</a>
</g>
</g>
<!-- Node1&#45;&gt;Node3 -->
<g id="edge2" class="edge">
<title>Node1&#45;&gt;Node3</title>
<path fill="none" stroke="#63b8ff" d="M170.01,-104.42C184.71,-94.81 203.72,-82.37 216.25,-74.17"/>
<polygon fill="#63b8ff" stroke="#63b8ff" points="167.97,-101.58 161.51,-109.98 171.8,-107.44 167.97,-101.58"/>
</g>
<!-- Node4 -->
<g id="node4" class="node">
<title>Node4</title>
<g id="a_node4"><a xlink:href="gainArmorEffect_8cpp.html" target="_top" xlink:title=" ">
<polygon fill="white" stroke="#666666" points="320,-19 139,-19 139,0 320,0 320,-19"/>
<text text-anchor="middle" x="229.5" y="-7" font-family="Helvetica,sans-Serif" font-size="10.00">cards/effects/gainArmorEffect.cpp</text>
</a>
</g>
</g>
<!-- Node3&#45;&gt;Node4 -->
<g id="edge3" class="edge">
<title>Node3&#45;&gt;Node4</title>
<path fill="none" stroke="#63b8ff" d="M229.5,-44.66C229.5,-35.93 229.5,-25.99 229.5,-19.09"/>
<polygon fill="#63b8ff" stroke="#63b8ff" points="226,-44.75 229.5,-54.75 233,-44.75 226,-44.75"/>
</g>
</g>
</svg>
