<?xml version="1.0" encoding="UTF-8" standalone="no"?>
<!DOCTYPE svg PUBLIC "-//W3C//DTD SVG 1.1//EN"
 "http://www.w3.org/Graphics/SVG/1.1/DTD/svg11.dtd">
<!-- Generated by graphviz version 2.43.0 (0)
 -->
<!-- Title: factories/cardsLoader.cpp Pages: 1 -->
<!--zoomable 247 -->
<svg id="main" version="1.1" xmlns="http://www.w3.org/2000/svg" xmlns:xlink="http://www.w3.org/1999/xlink" xml:space="preserve" onload="init(evt)">
<style type="text/css"><![CDATA[
.edge:hover path { stroke: red; }
.edge:hover polygon { stroke: red; fill: red; }
]]></style>
<script type="text/javascript"><![CDATA[
var edges = document.getElementsByTagName('g');
if (edges && edges.length) {
  for (var i=0;i<edges.length;i++) {
    if (edges[i].id.substr(0,4)=='edge') {
      edges[i].setAttribute('class','edge');
    }
  }
}
]]></script>
        <defs>
                <circle id="rim" cx="0" cy="0" r="7"/>
                <circle id="rim2" cx="0" cy="0" r="3.5"/>
                <g id="zoomPlus">
                        <use xlink:href="#rim" fill="#404040">
                                <set attributeName="fill" to="#808080" begin="zoomplus.mouseover" end="zoomplus.mouseout"/>
                        </use>
                        <path d="M-4,0h8M0,-4v8" fill="none" stroke="white" stroke-width="1.5" pointer-events="none"/>
                </g>
                <g id="zoomMin">
                        <use xlink:href="#rim" fill="#404040">
                                <set attributeName="fill" to="#808080" begin="zoomminus.mouseover" end="zoomminus.mouseout"/>
                        </use>
                        <path d="M-4,0h8" fill="none" stroke="white" stroke-width="1.5" pointer-events="none"/>
                </g>
                <g id="dirArrow">
                        <path fill="none" stroke="white" stroke-width="1.5" d="M0,-3.0v7 M-2.5,-0.5L0,-3.0L2.5,-0.5"/>
                </g>
               <g id="resetDef">
                       <use xlink:href="#rim2" fill="#404040">
                               <set attributeName="fill" to="#808080" begin="reset.mouseover" end="reset.mouseout"/>
                       </use>
               </g>
        </defs>

<script type="text/javascript">
var viewWidth = 738;
var viewHeight = 247;
var sectionId = 'dynsection-0';
</script>
<script xlink:href="svgpan.js"/>
<svg id="graph" class="graph">
<g id="viewport">
<title>factories/cardsLoader.cpp</title>
<!-- Node1 -->
<g id="node1" class="node">
<title>Node1</title>
<g id="a_node1"><a xlink:title=" ">
<polygon fill="#999999" stroke="#666666" points="358.03,-239 217.03,-239 217.03,-220 358.03,-220 358.03,-239"/>
<text text-anchor="middle" x="287.53" y="-227" font-family="Helvetica,sans-Serif" font-size="10.00">factories/cardsLoader.cpp</text>
</a>
</g>
</g>
<!-- Node2 -->
<g id="node2" class="node">
<title>Node2</title>
<g id="a_node2"><a xlink:href="cardDefinition_8h.html" target="_top" xlink:title=" ">
<polygon fill="white" stroke="#666666" points="240.03,-129 117.03,-129 117.03,-110 240.03,-110 240.03,-129"/>
<text text-anchor="middle" x="178.53" y="-117" font-family="Helvetica,sans-Serif" font-size="10.00">cards/cardDefinition.h</text>
</a>
</g>
</g>
<!-- Node1&#45;&gt;Node2 -->
<g id="edge1" class="edge">
<title>Node1&#45;&gt;Node2</title>
<path fill="none" stroke="#63b8ff" d="M278.61,-219.66C260.23,-201.46 217.94,-159.55 194.64,-136.47"/>
<polygon fill="#63b8ff" stroke="#63b8ff" points="196.83,-133.71 187.27,-129.16 191.91,-138.68 196.83,-133.71"/>
</g>
<!-- Node3 -->
<g id="node3" class="node">
<title>Node3</title>
<g id="a_node3"><a xlink:href="cardParams_8h.html" target="_top" xlink:title=" ">
<polygon fill="white" stroke="#666666" points="220.03,-19 137.03,-19 137.03,0 220.03,0 220.03,-19"/>
<text text-anchor="middle" x="178.53" y="-7" font-family="Helvetica,sans-Serif" font-size="10.00">cardParams.h</text>
</a>
</g>
</g>
<!-- Node1&#45;&gt;Node3 -->
<g id="edge7" class="edge">
<title>Node1&#45;&gt;Node3</title>
<path fill="none" stroke="#63b8ff" d="M246.63,-219.94C181.99,-203.97 58.16,-162.86 5.53,-74 -22.6,-26.51 65.75,-14.19 126.36,-11.2"/>
<polygon fill="#63b8ff" stroke="#63b8ff" points="126.73,-14.69 136.58,-10.77 126.44,-7.7 126.73,-14.69"/>
</g>
<!-- Node4 -->
<g id="node4" class="node">
<title>Node4</title>
<g id="a_node4"><a xlink:title=" ">
<polygon fill="#e0e0e0" stroke="#999999" points="264.53,-74 206.53,-74 206.53,-55 264.53,-55 264.53,-74"/>
<text text-anchor="middle" x="235.53" y="-62" font-family="Helvetica,sans-Serif" font-size="10.00">memory</text>
</a>
</g>
</g>
<!-- Node1&#45;&gt;Node4 -->
<g id="edge19" class="edge">
<title>Node1&#45;&gt;Node4</title>
<path fill="none" stroke="#63b8ff" d="M284.73,-219.74C276.59,-194.2 252.73,-119.43 241.5,-84.23"/>
<polygon fill="#63b8ff" stroke="#63b8ff" points="244.71,-82.77 238.34,-74.31 238.04,-84.9 244.71,-82.77"/>
</g>
<!-- Node7 -->
<g id="node7" class="node">
<title>Node7</title>
<g id="a_node7"><a xlink:title=" ">
<polygon fill="#e0e0e0" stroke="#999999" points="330.03,-74 283.03,-74 283.03,-55 330.03,-55 330.03,-74"/>
<text text-anchor="middle" x="306.53" y="-62" font-family="Helvetica,sans-Serif" font-size="10.00">vector</text>
</a>
</g>
</g>
<!-- Node1&#45;&gt;Node7 -->
<g id="edge20" class="edge">
<title>Node1&#45;&gt;Node7</title>
<path fill="none" stroke="#63b8ff" d="M288.55,-219.74C291.51,-194.31 300.17,-120.08 304.29,-84.69"/>
<polygon fill="#63b8ff" stroke="#63b8ff" points="307.82,-84.64 305.5,-74.31 300.87,-83.83 307.82,-84.64"/>
</g>
<!-- Node8 -->
<g id="node8" class="node">
<title>Node8</title>
<g id="a_node8"><a xlink:href="cardsLoader_8h.html" target="_top" xlink:title=" ">
<polygon fill="white" stroke="#666666" points="426.53,-184 342.53,-184 342.53,-165 426.53,-165 426.53,-184"/>
<text text-anchor="middle" x="384.53" y="-172" font-family="Helvetica,sans-Serif" font-size="10.00">cardsLoader.h</text>
</a>
</g>
</g>
<!-- Node1&#45;&gt;Node8 -->
<g id="edge8" class="edge">
<title>Node1&#45;&gt;Node8</title>
<path fill="none" stroke="#63b8ff" d="M303.11,-219.98C318.3,-211.69 341.63,-198.94 359.43,-189.22"/>
<polygon fill="#63b8ff" stroke="#63b8ff" points="361.56,-192.04 368.66,-184.17 358.21,-185.89 361.56,-192.04"/>
</g>
<!-- Node14 -->
<g id="node14" class="node">
<title>Node14</title>
<g id="a_node14"><a xlink:title=" ">
<polygon fill="#e0e0e0" stroke="#999999" points="500.03,-184 445.03,-184 445.03,-165 500.03,-165 500.03,-184"/>
<text text-anchor="middle" x="472.53" y="-172" font-family="Helvetica,sans-Serif" font-size="10.00">fstream</text>
</a>
</g>
</g>
<!-- Node1&#45;&gt;Node14 -->
<g id="edge18" class="edge">
<title>Node1&#45;&gt;Node14</title>
<path fill="none" stroke="#63b8ff" d="M317.25,-219.98C349.32,-210.8 400.46,-196.15 435.21,-186.19"/>
<polygon fill="#63b8ff" stroke="#63b8ff" points="436.34,-189.51 444.99,-183.39 434.42,-182.78 436.34,-189.51"/>
</g>
<!-- Node2&#45;&gt;Node3 -->
<g id="edge2" class="edge">
<title>Node2&#45;&gt;Node3</title>
<path fill="none" stroke="#63b8ff" d="M178.53,-109.66C178.53,-92.17 178.53,-52.8 178.53,-29.27"/>
<polygon fill="#63b8ff" stroke="#63b8ff" points="182.03,-29.16 178.53,-19.16 175.03,-29.16 182.03,-29.16"/>
</g>
<!-- Node2&#45;&gt;Node4 -->
<g id="edge3" class="edge">
<title>Node2&#45;&gt;Node4</title>
<path fill="none" stroke="#63b8ff" d="M187.69,-109.98C196.03,-102.23 208.56,-90.58 218.71,-81.14"/>
<polygon fill="#63b8ff" stroke="#63b8ff" points="221.26,-83.54 226.2,-74.17 216.5,-78.42 221.26,-83.54"/>
</g>
<!-- Node5 -->
<g id="node5" class="node">
<title>Node5</title>
<g id="a_node5"><a xlink:title=" ">
<polygon fill="#e0e0e0" stroke="#999999" points="150.53,-74 106.53,-74 106.53,-55 150.53,-55 150.53,-74"/>
<text text-anchor="middle" x="128.53" y="-62" font-family="Helvetica,sans-Serif" font-size="10.00">string</text>
</a>
</g>
</g>
<!-- Node2&#45;&gt;Node5 -->
<g id="edge4" class="edge">
<title>Node2&#45;&gt;Node5</title>
<path fill="none" stroke="#63b8ff" d="M170.27,-109.75C163.06,-102.11 152.42,-90.82 143.68,-81.56"/>
<polygon fill="#63b8ff" stroke="#63b8ff" points="146.04,-78.96 136.63,-74.09 140.95,-83.76 146.04,-78.96"/>
</g>
<!-- Node6 -->
<g id="node6" class="node">
<title>Node6</title>
<g id="a_node6"><a xlink:title=" ">
<polygon fill="#e0e0e0" stroke="#999999" points="88.03,-74 15.03,-74 15.03,-55 88.03,-55 88.03,-74"/>
<text text-anchor="middle" x="51.53" y="-62" font-family="Helvetica,sans-Serif" font-size="10.00">string_view</text>
</a>
</g>
</g>
<!-- Node2&#45;&gt;Node6 -->
<g id="edge5" class="edge">
<title>Node2&#45;&gt;Node6</title>
<path fill="none" stroke="#63b8ff" d="M158.12,-109.98C137.51,-101.38 105.42,-87.99 81.84,-78.15"/>
<polygon fill="#63b8ff" stroke="#63b8ff" points="82.88,-74.79 72.3,-74.17 80.19,-81.25 82.88,-74.79"/>
</g>
<!-- Node2&#45;&gt;Node7 -->
<g id="edge6" class="edge">
<title>Node2&#45;&gt;Node7</title>
<path fill="none" stroke="#63b8ff" d="M199.09,-109.98C219.96,-101.34 252.5,-87.87 276.3,-78.02"/>
<polygon fill="#63b8ff" stroke="#63b8ff" points="277.69,-81.23 285.59,-74.17 275.01,-74.76 277.69,-81.23"/>
</g>
<!-- Node9 -->
<g id="node9" class="node">
<title>Node9</title>
<g id="a_node9"><a xlink:href="effectFactory_8h.html" target="_top" xlink:title=" ">
<polygon fill="white" stroke="#666666" points="436.03,-129 349.03,-129 349.03,-110 436.03,-110 436.03,-129"/>
<text text-anchor="middle" x="392.53" y="-117" font-family="Helvetica,sans-Serif" font-size="10.00">effectFactory.h</text>
</a>
</g>
</g>
<!-- Node8&#45;&gt;Node9 -->
<g id="edge9" class="edge">
<title>Node8&#45;&gt;Node9</title>
<path fill="none" stroke="#63b8ff" d="M385.85,-164.75C386.9,-157.8 388.4,-147.85 389.72,-139.13"/>
<polygon fill="#63b8ff" stroke="#63b8ff" points="393.2,-139.5 391.23,-129.09 386.28,-138.45 393.2,-139.5"/>
</g>
<!-- Node12 -->
<g id="node12" class="node">
<title>Node12</title>
<g id="a_node12"><a xlink:title=" ">
<polygon fill="#e0e0e0" stroke="#999999" points="729.53,-74 619.53,-74 619.53,-55 729.53,-55 729.53,-74"/>
<text text-anchor="middle" x="674.53" y="-62" font-family="Helvetica,sans-Serif" font-size="10.00">nlohmann/json.hpp</text>
</a>
</g>
</g>
<!-- Node8&#45;&gt;Node12 -->
<g id="edge17" class="edge">
<title>Node8&#45;&gt;Node12</title>
<path fill="none" stroke="#63b8ff" d="M407.77,-164.84C459.23,-145.68 582.89,-99.63 641.99,-77.62"/>
<polygon fill="#63b8ff" stroke="#63b8ff" points="643.43,-80.82 651.58,-74.05 640.99,-74.26 643.43,-80.82"/>
</g>
<!-- Node9&#45;&gt;Node4 -->
<g id="edge13" class="edge">
<title>Node9&#45;&gt;Node4</title>
<path fill="none" stroke="#63b8ff" d="M367.3,-109.98C341.17,-101.16 300.13,-87.31 270.8,-77.41"/>
<polygon fill="#63b8ff" stroke="#63b8ff" points="271.55,-73.96 260.95,-74.08 269.31,-80.6 271.55,-73.96"/>
</g>
<!-- Node9&#45;&gt;Node7 -->
<g id="edge16" class="edge">
<title>Node9&#45;&gt;Node7</title>
<path fill="none" stroke="#63b8ff" d="M378.71,-109.98C365.38,-101.77 344.95,-89.18 329.22,-79.49"/>
<polygon fill="#63b8ff" stroke="#63b8ff" points="330.95,-76.44 320.6,-74.17 327.27,-82.4 330.95,-76.44"/>
</g>
<!-- Node10 -->
<g id="node10" class="node">
<title>Node10</title>
<g id="a_node10"><a xlink:href="effect_8h.html" target="_top" xlink:title=" ">
<polygon fill="white" stroke="#666666" points="437.03,-74 348.03,-74 348.03,-55 437.03,-55 437.03,-74"/>
<text text-anchor="middle" x="392.53" y="-62" font-family="Helvetica,sans-Serif" font-size="10.00">effects/effect.h</text>
</a>
</g>
</g>
<!-- Node9&#45;&gt;Node10 -->
<g id="edge10" class="edge">
<title>Node9&#45;&gt;Node10</title>
<path fill="none" stroke="#63b8ff" d="M392.53,-109.75C392.53,-102.8 392.53,-92.85 392.53,-84.13"/>
<polygon fill="#63b8ff" stroke="#63b8ff" points="396.03,-84.09 392.53,-74.09 389.03,-84.09 396.03,-84.09"/>
</g>
<!-- Node11 -->
<g id="node11" class="node">
<title>Node11</title>
<g id="a_node11"><a xlink:title=" ">
<polygon fill="#e0e0e0" stroke="#999999" points="490.03,-74 455.03,-74 455.03,-55 490.03,-55 490.03,-74"/>
<text text-anchor="middle" x="472.53" y="-62" font-family="Helvetica,sans-Serif" font-size="10.00">any</text>
</a>
</g>
</g>
<!-- Node9&#45;&gt;Node11 -->
<g id="edge12" class="edge">
<title>Node9&#45;&gt;Node11</title>
<path fill="none" stroke="#63b8ff" d="M405.38,-109.98C417.67,-101.84 436.44,-89.41 451.01,-79.76"/>
<polygon fill="#63b8ff" stroke="#63b8ff" points="453.04,-82.61 459.44,-74.17 449.17,-76.78 453.04,-82.61"/>
</g>
<!-- Node9&#45;&gt;Node12 -->
<g id="edge14" class="edge">
<title>Node9&#45;&gt;Node12</title>
<path fill="none" stroke="#63b8ff" d="M436.28,-110.28C485.55,-101.02 565.71,-85.95 619.26,-75.89"/>
<polygon fill="#63b8ff" stroke="#63b8ff" points="620.09,-79.29 629.27,-74.01 618.8,-72.41 620.09,-79.29"/>
</g>
<!-- Node13 -->
<g id="node13" class="node">
<title>Node13</title>
<g id="a_node13"><a xlink:title=" ">
<polygon fill="#e0e0e0" stroke="#999999" points="601.03,-74 508.03,-74 508.03,-55 601.03,-55 601.03,-74"/>
<text text-anchor="middle" x="554.53" y="-62" font-family="Helvetica,sans-Serif" font-size="10.00">unordered_map</text>
</a>
</g>
</g>
<!-- Node9&#45;&gt;Node13 -->
<g id="edge15" class="edge">
<title>Node9&#45;&gt;Node13</title>
<path fill="none" stroke="#63b8ff" d="M418.56,-109.98C445.64,-101.13 488.24,-87.19 518.53,-77.28"/>
<polygon fill="#63b8ff" stroke="#63b8ff" points="519.88,-80.52 528.3,-74.08 517.7,-73.87 519.88,-80.52"/>
</g>
<!-- Node10&#45;&gt;Node3 -->
<g id="edge11" class="edge">
<title>Node10&#45;&gt;Node3</title>
<path fill="none" stroke="#63b8ff" d="M358.15,-54.98C321.44,-45.89 263.15,-31.46 222.98,-21.51"/>
<polygon fill="#63b8ff" stroke="#63b8ff" points="223.73,-18.09 213.18,-19.08 222.05,-24.88 223.73,-18.09"/>
</g>
</g>
</svg>
        <g id="navigator" transform="translate(0 0)" fill="#404254">
                <rect fill="#f2f5e9" fill-opacity="0.5" stroke="#606060" stroke-width=".5" x="0" y="0" width="60" height="60"/>
                <use id="zoomplus" xlink:href="#zoomPlus" x="17" y="9" onmousedown="handleZoom(evt,'in')"/>
                <use id="zoomminus" xlink:href="#zoomMin" x="42" y="9" onmousedown="handleZoom(evt,'out')"/>
                <use id="reset" xlink:href="#resetDef" x="30" y="36" onmousedown="handleReset()"/>
                <g id="arrowUp" xlink:href="#dirArrow" transform="translate(30 24)" onmousedown="handlePan(0,-1)">
                  <use xlink:href="#rim" fill="#404040">
                        <set attributeName="fill" to="#808080" begin="arrowUp.mouseover" end="arrowUp.mouseout"/>
                  </use>
                  <path fill="none" stroke="white" stroke-width="1.5" d="M0,-3.0v7 M-2.5,-0.5L0,-3.0L2.5,-0.5"/>
                </g>
                <g id="arrowRight" xlink:href="#dirArrow" transform="rotate(90) translate(36 -43)" onmousedown="handlePan(1,0)">
                  <use xlink:href="#rim" fill="#404040">
                        <set attributeName="fill" to="#808080" begin="arrowRight.mouseover" end="arrowRight.mouseout"/>
                  </use>
                  <path fill="none" stroke="white" stroke-width="1.5" d="M0,-3.0v7 M-2.5,-0.5L0,-3.0L2.5,-0.5"/>
                </g>
                <g id="arrowDown" xlink:href="#dirArrow" transform="rotate(180) translate(-30 -48)" onmousedown="handlePan(0,1)">
                  <use xlink:href="#rim" fill="#404040">
                        <set attributeName="fill" to="#808080" begin="arrowDown.mouseover" end="arrowDown.mouseout"/>
                  </use>
                  <path fill="none" stroke="white" stroke-width="1.5" d="M0,-3.0v7 M-2.5,-0.5L0,-3.0L2.5,-0.5"/>
                </g>
                <g id="arrowLeft" xlink:href="#dirArrow" transform="rotate(270) translate(-36 17)" onmousedown="handlePan(-1,0)">
                  <use xlink:href="#rim" fill="#404040">
                        <set attributeName="fill" to="#808080" begin="arrowLeft.mouseover" end="arrowLeft.mouseout"/>
                  </use>
                  <path fill="none" stroke="white" stroke-width="1.5" d="M0,-3.0v7 M-2.5,-0.5L0,-3.0L2.5,-0.5"/>
                </g>
        </g>
        <svg viewBox="0 0 15 15" width="100%" height="30px" preserveAspectRatio="xMaxYMin meet">
         <g id="arrow_out" transform="scale(0.3 0.3)">
          <a xlink:href="cardsLoader_8cpp__incl_org.svg" target="_base">
           <rect id="button" ry="5" rx="5" y="6" x="6" height="38" width="38"
                fill="#f2f5e9" fill-opacity="0.5" stroke="#606060" stroke-width="1.0"/>
           <path id="arrow"
             d="M 11.500037,31.436501 C 11.940474,20.09759 22.043105,11.32322 32.158766,21.979434 L 37.068811,17.246167 C 37.068811,17.246167 37.088388,32 37.088388,32 L 22.160133,31.978069 C 22.160133,31.978069 26.997745,27.140456 26.997745,27.140456 C 18.528582,18.264221 13.291696,25.230495 11.500037,31.436501 z"
             style="fill:#404040;"/>
          </a>
         </g>
        </svg>
</svg>
