<?xml version="1.0" encoding="UTF-8" standalone="no"?>
<!DOCTYPE svg PUBLIC "-//W3C//DTD SVG 1.1//EN"
 "http://www.w3.org/Graphics/SVG/1.1/DTD/svg11.dtd">
<!-- Generated by graphviz version 2.43.0 (0)
 -->
<!-- Title: cards/cardDefinition.cpp Pages: 1 -->
<svg width="437pt" height="137pt"
 viewBox="0.00 0.00 436.50 137.00" xmlns="http://www.w3.org/2000/svg" xmlns:xlink="http://www.w3.org/1999/xlink">
<g id="graph0" class="graph" transform="scale(1 1) rotate(0) translate(4 133)">
<title>cards/cardDefinition.cpp</title>
<!-- Node1 -->
<g id="node1" class="node">
<title>Node1</title>
<g id="a_node1"><a xlink:title=" ">
<polygon fill="#999999" stroke="#666666" points="388,-129 254,-129 254,-110 388,-110 388,-129"/>
<text text-anchor="middle" x="321" y="-117" font-family="Helvetica,sans-Serif" font-size="10.00">cards/cardDefinition.cpp</text>
</a>
</g>
</g>
<!-- Node2 -->
<g id="node2" class="node">
<title>Node2</title>
<g id="a_node2"><a xlink:href="cardDefinition_8h.html" target="_top" xlink:title=" ">
<polygon fill="white" stroke="#666666" points="222,-74 128,-74 128,-55 222,-55 222,-74"/>
<text text-anchor="middle" x="175" y="-62" font-family="Helvetica,sans-Serif" font-size="10.00">cardDefinition.h</text>
</a>
</g>
</g>
<!-- Node1&#45;&gt;Node2 -->
<g id="edge1" class="edge">
<title>Node1&#45;&gt;Node2</title>
<path fill="none" stroke="#63b8ff" d="M297.54,-109.98C273.42,-101.23 235.63,-87.51 208.4,-77.62"/>
<polygon fill="#63b8ff" stroke="#63b8ff" points="209.48,-74.29 198.88,-74.17 207.09,-80.87 209.48,-74.29"/>
</g>
<!-- Node7 -->
<g id="node7" class="node">
<title>Node7</title>
<g id="a_node7"><a xlink:href="effect_8h.html" target="_top" xlink:title=" ">
<polygon fill="white" stroke="#666666" points="365.5,-74 276.5,-74 276.5,-55 365.5,-55 365.5,-74"/>
<text text-anchor="middle" x="321" y="-62" font-family="Helvetica,sans-Serif" font-size="10.00">effects/effect.h</text>
</a>
</g>
</g>
<!-- Node1&#45;&gt;Node7 -->
<g id="edge6" class="edge">
<title>Node1&#45;&gt;Node7</title>
<path fill="none" stroke="#63b8ff" d="M321,-109.75C321,-102.8 321,-92.85 321,-84.13"/>
<polygon fill="#63b8ff" stroke="#63b8ff" points="324.5,-84.09 321,-74.09 317.5,-84.09 324.5,-84.09"/>
</g>
<!-- Node9 -->
<g id="node9" class="node">
<title>Node9</title>
<g id="a_node9"><a xlink:title=" ">
<polygon fill="#e0e0e0" stroke="#999999" points="428.5,-74 383.5,-74 383.5,-55 428.5,-55 428.5,-74"/>
<text text-anchor="middle" x="406" y="-62" font-family="Helvetica,sans-Serif" font-size="10.00">utility</text>
</a>
</g>
</g>
<!-- Node1&#45;&gt;Node9 -->
<g id="edge8" class="edge">
<title>Node1&#45;&gt;Node9</title>
<path fill="none" stroke="#63b8ff" d="M334.66,-109.98C347.84,-101.77 368.03,-89.18 383.57,-79.49"/>
<polygon fill="#63b8ff" stroke="#63b8ff" points="385.46,-82.43 392.09,-74.17 381.76,-76.49 385.46,-82.43"/>
</g>
<!-- Node3 -->
<g id="node3" class="node">
<title>Node3</title>
<g id="a_node3"><a xlink:title=" ">
<polygon fill="#e0e0e0" stroke="#999999" points="58,-19 0,-19 0,0 58,0 58,-19"/>
<text text-anchor="middle" x="29" y="-7" font-family="Helvetica,sans-Serif" font-size="10.00">memory</text>
</a>
</g>
</g>
<!-- Node2&#45;&gt;Node3 -->
<g id="edge2" class="edge">
<title>Node2&#45;&gt;Node3</title>
<path fill="none" stroke="#63b8ff" d="M151.54,-54.98C127.42,-46.23 89.63,-32.51 62.4,-22.62"/>
<polygon fill="#63b8ff" stroke="#63b8ff" points="63.48,-19.29 52.88,-19.17 61.09,-25.87 63.48,-19.29"/>
</g>
<!-- Node4 -->
<g id="node4" class="node">
<title>Node4</title>
<g id="a_node4"><a xlink:title=" ">
<polygon fill="#e0e0e0" stroke="#999999" points="120,-19 76,-19 76,0 120,0 120,-19"/>
<text text-anchor="middle" x="98" y="-7" font-family="Helvetica,sans-Serif" font-size="10.00">string</text>
</a>
</g>
</g>
<!-- Node2&#45;&gt;Node4 -->
<g id="edge3" class="edge">
<title>Node2&#45;&gt;Node4</title>
<path fill="none" stroke="#63b8ff" d="M162.63,-54.98C150.91,-46.92 133.08,-34.65 119.11,-25.03"/>
<polygon fill="#63b8ff" stroke="#63b8ff" points="120.82,-21.96 110.6,-19.17 116.85,-27.72 120.82,-21.96"/>
</g>
<!-- Node5 -->
<g id="node5" class="node">
<title>Node5</title>
<g id="a_node5"><a xlink:title=" ">
<polygon fill="#e0e0e0" stroke="#999999" points="211.5,-19 138.5,-19 138.5,0 211.5,0 211.5,-19"/>
<text text-anchor="middle" x="175" y="-7" font-family="Helvetica,sans-Serif" font-size="10.00">string_view</text>
</a>
</g>
</g>
<!-- Node2&#45;&gt;Node5 -->
<g id="edge4" class="edge">
<title>Node2&#45;&gt;Node5</title>
<path fill="none" stroke="#63b8ff" d="M175,-54.75C175,-47.8 175,-37.85 175,-29.13"/>
<polygon fill="#63b8ff" stroke="#63b8ff" points="178.5,-29.09 175,-19.09 171.5,-29.09 178.5,-29.09"/>
</g>
<!-- Node6 -->
<g id="node6" class="node">
<title>Node6</title>
<g id="a_node6"><a xlink:title=" ">
<polygon fill="#e0e0e0" stroke="#999999" points="276.5,-19 229.5,-19 229.5,0 276.5,0 276.5,-19"/>
<text text-anchor="middle" x="253" y="-7" font-family="Helvetica,sans-Serif" font-size="10.00">vector</text>
</a>
</g>
</g>
<!-- Node2&#45;&gt;Node6 -->
<g id="edge5" class="edge">
<title>Node2&#45;&gt;Node6</title>
<path fill="none" stroke="#63b8ff" d="M187.53,-54.98C199.4,-46.92 217.46,-34.65 231.61,-25.03"/>
<polygon fill="#63b8ff" stroke="#63b8ff" points="233.94,-27.69 240.24,-19.17 230,-21.9 233.94,-27.69"/>
</g>
<!-- Node8 -->
<g id="node8" class="node">
<title>Node8</title>
<g id="a_node8"><a xlink:href="effectParams_8h.html" target="_top" xlink:title=" ">
<polygon fill="white" stroke="#666666" points="419.5,-19 294.5,-19 294.5,0 419.5,0 419.5,-19"/>
<text text-anchor="middle" x="357" y="-7" font-family="Helvetica,sans-Serif" font-size="10.00">effects/effectParams.h</text>
</a>
</g>
</g>
<!-- Node7&#45;&gt;Node8 -->
<g id="edge7" class="edge">
<title>Node7&#45;&gt;Node8</title>
<path fill="none" stroke="#63b8ff" d="M326.94,-54.75C331.98,-47.34 339.34,-36.5 345.51,-27.41"/>
<polygon fill="#63b8ff" stroke="#63b8ff" points="348.44,-29.33 351.17,-19.09 342.65,-25.39 348.44,-29.33"/>
</g>
</g>
</svg>
