<?xml version="1.0" encoding="UTF-8" standalone="no"?>
<!DOCTYPE svg PUBLIC "-//W3C//DTD SVG 1.1//EN"
 "http://www.w3.org/Graphics/SVG/1.1/DTD/svg11.dtd">
<!-- Generated by graphviz version 2.43.0 (0)
 -->
<!-- Title: cards/cardInstance.cpp Pages: 1 -->
<svg width="415pt" height="192pt"
 viewBox="0.00 0.00 415.00 192.00" xmlns="http://www.w3.org/2000/svg" xmlns:xlink="http://www.w3.org/1999/xlink">
<g id="graph0" class="graph" transform="scale(1 1) rotate(0) translate(4 188)">
<title>cards/cardInstance.cpp</title>
<!-- Node1 -->
<g id="node1" class="node">
<title>Node1</title>
<g id="a_node1"><a xlink:title=" ">
<polygon fill="#999999" stroke="#666666" points="259.5,-184 131.5,-184 131.5,-165 259.5,-165 259.5,-184"/>
<text text-anchor="middle" x="195.5" y="-172" font-family="Helvetica,sans-Serif" font-size="10.00">cards/cardInstance.cpp</text>
</a>
</g>
</g>
<!-- Node2 -->
<g id="node2" class="node">
<title>Node2</title>
<g id="a_node2"><a xlink:href="cardInstance_8h.html" target="_top" xlink:title=" ">
<polygon fill="white" stroke="#666666" points="185.5,-129 97.5,-129 97.5,-110 185.5,-110 185.5,-129"/>
<text text-anchor="middle" x="141.5" y="-117" font-family="Helvetica,sans-Serif" font-size="10.00">cardInstance.h</text>
</a>
</g>
</g>
<!-- Node1&#45;&gt;Node2 -->
<g id="edge1" class="edge">
<title>Node1&#45;&gt;Node2</title>
<path fill="none" stroke="#63b8ff" d="M186.58,-164.75C178.72,-157.03 167.07,-145.6 157.58,-136.28"/>
<polygon fill="#63b8ff" stroke="#63b8ff" points="159.84,-133.6 150.25,-129.09 154.94,-138.59 159.84,-133.6"/>
</g>
<!-- Node6 -->
<g id="node6" class="node">
<title>Node6</title>
<g id="a_node6"><a xlink:href="cardDefinition_8h.html" target="_top" xlink:title=" ">
<polygon fill="white" stroke="#666666" points="297.5,-129 203.5,-129 203.5,-110 297.5,-110 297.5,-129"/>
<text text-anchor="middle" x="250.5" y="-117" font-family="Helvetica,sans-Serif" font-size="10.00">cardDefinition.h</text>
</a>
</g>
</g>
<!-- Node1&#45;&gt;Node6 -->
<g id="edge5" class="edge">
<title>Node1&#45;&gt;Node6</title>
<path fill="none" stroke="#63b8ff" d="M204.58,-164.75C212.59,-157.03 224.46,-145.6 234.12,-136.28"/>
<polygon fill="#63b8ff" stroke="#63b8ff" points="236.81,-138.55 241.59,-129.09 231.96,-133.51 236.81,-138.55"/>
</g>
<!-- Node3 -->
<g id="node3" class="node">
<title>Node3</title>
<g id="a_node3"><a xlink:href="cardParams_8h.html" target="_top" xlink:title=" ">
<polygon fill="white" stroke="#666666" points="203.5,-74 91.5,-74 91.5,-55 203.5,-55 203.5,-74"/>
<text text-anchor="middle" x="147.5" y="-62" font-family="Helvetica,sans-Serif" font-size="10.00">cards/cardParams.h</text>
</a>
</g>
</g>
<!-- Node2&#45;&gt;Node3 -->
<g id="edge2" class="edge">
<title>Node2&#45;&gt;Node3</title>
<path fill="none" stroke="#63b8ff" d="M142.49,-109.75C143.28,-102.8 144.4,-92.85 145.39,-84.13"/>
<polygon fill="#63b8ff" stroke="#63b8ff" points="148.88,-84.42 146.53,-74.09 141.92,-83.63 148.88,-84.42"/>
</g>
<!-- Node5 -->
<g id="node5" class="node">
<title>Node5</title>
<g id="a_node5"><a xlink:title=" ">
<polygon fill="#e0e0e0" stroke="#999999" points="73,-74 0,-74 0,-55 73,-55 73,-74"/>
<text text-anchor="middle" x="36.5" y="-62" font-family="Helvetica,sans-Serif" font-size="10.00">string_view</text>
</a>
</g>
</g>
<!-- Node2&#45;&gt;Node5 -->
<g id="edge4" class="edge">
<title>Node2&#45;&gt;Node5</title>
<path fill="none" stroke="#63b8ff" d="M124.63,-109.98C107.89,-101.54 82,-88.47 62.61,-78.68"/>
<polygon fill="#63b8ff" stroke="#63b8ff" points="64.18,-75.55 53.68,-74.17 61.03,-81.8 64.18,-75.55"/>
</g>
<!-- Node4 -->
<g id="node4" class="node">
<title>Node4</title>
<g id="a_node4"><a xlink:title=" ">
<polygon fill="#e0e0e0" stroke="#999999" points="175.5,-19 119.5,-19 119.5,0 175.5,0 175.5,-19"/>
<text text-anchor="middle" x="147.5" y="-7" font-family="Helvetica,sans-Serif" font-size="10.00">optional</text>
</a>
</g>
</g>
<!-- Node3&#45;&gt;Node4 -->
<g id="edge3" class="edge">
<title>Node3&#45;&gt;Node4</title>
<path fill="none" stroke="#63b8ff" d="M147.5,-54.75C147.5,-47.8 147.5,-37.85 147.5,-29.13"/>
<polygon fill="#63b8ff" stroke="#63b8ff" points="151,-29.09 147.5,-19.09 144,-29.09 151,-29.09"/>
</g>
<!-- Node6&#45;&gt;Node3 -->
<g id="edge6" class="edge">
<title>Node6&#45;&gt;Node3</title>
<path fill="none" stroke="#63b8ff" d="M233.95,-109.98C217.61,-101.57 192.37,-88.59 173.37,-78.81"/>
<polygon fill="#63b8ff" stroke="#63b8ff" points="174.84,-75.63 164.35,-74.17 171.64,-81.86 174.84,-75.63"/>
</g>
<!-- Node6&#45;&gt;Node5 -->
<g id="edge9" class="edge">
<title>Node6&#45;&gt;Node5</title>
<path fill="none" stroke="#63b8ff" d="M216.12,-109.98C179.41,-100.89 121.12,-86.46 80.95,-76.51"/>
<polygon fill="#63b8ff" stroke="#63b8ff" points="81.7,-73.09 71.15,-74.08 80.02,-79.88 81.7,-73.09"/>
</g>
<!-- Node7 -->
<g id="node7" class="node">
<title>Node7</title>
<g id="a_node7"><a xlink:title=" ">
<polygon fill="#e0e0e0" stroke="#999999" points="279.5,-74 221.5,-74 221.5,-55 279.5,-55 279.5,-74"/>
<text text-anchor="middle" x="250.5" y="-62" font-family="Helvetica,sans-Serif" font-size="10.00">memory</text>
</a>
</g>
</g>
<!-- Node6&#45;&gt;Node7 -->
<g id="edge7" class="edge">
<title>Node6&#45;&gt;Node7</title>
<path fill="none" stroke="#63b8ff" d="M250.5,-109.75C250.5,-102.8 250.5,-92.85 250.5,-84.13"/>
<polygon fill="#63b8ff" stroke="#63b8ff" points="254,-84.09 250.5,-74.09 247,-84.09 254,-84.09"/>
</g>
<!-- Node8 -->
<g id="node8" class="node">
<title>Node8</title>
<g id="a_node8"><a xlink:title=" ">
<polygon fill="#e0e0e0" stroke="#999999" points="341.5,-74 297.5,-74 297.5,-55 341.5,-55 341.5,-74"/>
<text text-anchor="middle" x="319.5" y="-62" font-family="Helvetica,sans-Serif" font-size="10.00">string</text>
</a>
</g>
</g>
<!-- Node6&#45;&gt;Node8 -->
<g id="edge8" class="edge">
<title>Node6&#45;&gt;Node8</title>
<path fill="none" stroke="#63b8ff" d="M261.59,-109.98C271.99,-102 287.76,-89.88 300.22,-80.31"/>
<polygon fill="#63b8ff" stroke="#63b8ff" points="302.41,-83.04 308.21,-74.17 298.15,-77.49 302.41,-83.04"/>
</g>
<!-- Node9 -->
<g id="node9" class="node">
<title>Node9</title>
<g id="a_node9"><a xlink:title=" ">
<polygon fill="#e0e0e0" stroke="#999999" points="407,-74 360,-74 360,-55 407,-55 407,-74"/>
<text text-anchor="middle" x="383.5" y="-62" font-family="Helvetica,sans-Serif" font-size="10.00">vector</text>
</a>
</g>
</g>
<!-- Node6&#45;&gt;Node9 -->
<g id="edge10" class="edge">
<title>Node6&#45;&gt;Node9</title>
<path fill="none" stroke="#63b8ff" d="M271.87,-109.98C293.65,-101.3 327.66,-87.75 352.42,-77.88"/>
<polygon fill="#63b8ff" stroke="#63b8ff" points="353.75,-81.12 361.74,-74.17 351.16,-74.62 353.75,-81.12"/>
</g>
</g>
</svg>
