<?xml version="1.0" encoding="UTF-8" standalone="no"?>
<!DOCTYPE svg PUBLIC "-//W3C//DTD SVG 1.1//EN"
 "http://www.w3.org/Graphics/SVG/1.1/DTD/svg11.dtd">
<!-- Generated by graphviz version 2.43.0 (0)
 -->
<!-- Title: game_system/cardmatch.h Pages: 1 -->
<svg width="426pt" height="192pt"
 viewBox="0.00 0.00 426.00 192.00" xmlns="http://www.w3.org/2000/svg" xmlns:xlink="http://www.w3.org/1999/xlink">
<g id="graph0" class="graph" transform="scale(1 1) rotate(0) translate(4 188)">
<title>game_system/cardmatch.h</title>
<!-- Node1 -->
<g id="node1" class="node">
<title>Node1</title>
<g id="a_node1"><a xlink:title=" ">
<polygon fill="#999999" stroke="#666666" points="237,-184 88,-184 88,-165 237,-165 237,-184"/>
<text text-anchor="middle" x="162.5" y="-172" font-family="Helvetica,sans-Serif" font-size="10.00">game_system/cardmatch.h</text>
</a>
</g>
</g>
<!-- Node2 -->
<g id="node2" class="node">
<title>Node2</title>
<g id="a_node2"><a xlink:href="deckCombat_8h.html" target="_top" xlink:title=" ">
<polygon fill="white" stroke="#666666" points="113,-74 0,-74 0,-55 113,-55 113,-74"/>
<text text-anchor="middle" x="56.5" y="-62" font-family="Helvetica,sans-Serif" font-size="10.00">deck/deckCombat.h</text>
</a>
</g>
</g>
<!-- Node1&#45;&gt;Node2 -->
<g id="edge1" class="edge">
<title>Node1&#45;&gt;Node2</title>
<path fill="none" stroke="#63b8ff" d="M153.83,-164.66C135.96,-146.46 94.82,-104.55 72.17,-81.47"/>
<polygon fill="#63b8ff" stroke="#63b8ff" points="74.5,-78.84 65,-74.16 69.5,-83.75 74.5,-78.84"/>
</g>
<!-- Node6 -->
<g id="node6" class="node">
<title>Node6</title>
<g id="a_node6"><a xlink:href="cardFactory_8h.html" target="_top" xlink:title=" ">
<polygon fill="white" stroke="#666666" points="284.5,-129 158.5,-129 158.5,-110 284.5,-110 284.5,-129"/>
<text text-anchor="middle" x="221.5" y="-117" font-family="Helvetica,sans-Serif" font-size="10.00">factories/cardFactory.h</text>
</a>
</g>
</g>
<!-- Node1&#45;&gt;Node6 -->
<g id="edge5" class="edge">
<title>Node1&#45;&gt;Node6</title>
<path fill="none" stroke="#63b8ff" d="M171.98,-164.98C180.7,-157.15 193.84,-145.34 204.4,-135.86"/>
<polygon fill="#63b8ff" stroke="#63b8ff" points="206.75,-138.46 211.85,-129.17 202.07,-133.25 206.75,-138.46"/>
</g>
<!-- Node3 -->
<g id="node3" class="node">
<title>Node3</title>
<g id="a_node3"><a xlink:title=" ">
<polygon fill="#e0e0e0" stroke="#999999" points="202.5,-19 144.5,-19 144.5,0 202.5,0 202.5,-19"/>
<text text-anchor="middle" x="173.5" y="-7" font-family="Helvetica,sans-Serif" font-size="10.00">memory</text>
</a>
</g>
</g>
<!-- Node2&#45;&gt;Node3 -->
<g id="edge2" class="edge">
<title>Node2&#45;&gt;Node3</title>
<path fill="none" stroke="#63b8ff" d="M75.3,-54.98C94.12,-46.46 123.32,-33.23 145,-23.41"/>
<polygon fill="#63b8ff" stroke="#63b8ff" points="146.7,-26.48 154.36,-19.17 143.81,-20.11 146.7,-26.48"/>
</g>
<!-- Node4 -->
<g id="node4" class="node">
<title>Node4</title>
<g id="a_node4"><a xlink:title=" ">
<polygon fill="#e0e0e0" stroke="#999999" points="126.5,-19 82.5,-19 82.5,0 126.5,0 126.5,-19"/>
<text text-anchor="middle" x="104.5" y="-7" font-family="Helvetica,sans-Serif" font-size="10.00">string</text>
</a>
</g>
</g>
<!-- Node2&#45;&gt;Node4 -->
<g id="edge3" class="edge">
<title>Node2&#45;&gt;Node4</title>
<path fill="none" stroke="#63b8ff" d="M64.43,-54.75C71.35,-47.11 81.57,-35.82 89.95,-26.56"/>
<polygon fill="#63b8ff" stroke="#63b8ff" points="92.6,-28.85 96.72,-19.09 87.41,-24.15 92.6,-28.85"/>
</g>
<!-- Node5 -->
<g id="node5" class="node">
<title>Node5</title>
<g id="a_node5"><a xlink:title=" ">
<polygon fill="#e0e0e0" stroke="#999999" points="64,-19 17,-19 17,0 64,0 64,-19"/>
<text text-anchor="middle" x="40.5" y="-7" font-family="Helvetica,sans-Serif" font-size="10.00">vector</text>
</a>
</g>
</g>
<!-- Node2&#45;&gt;Node5 -->
<g id="edge4" class="edge">
<title>Node2&#45;&gt;Node5</title>
<path fill="none" stroke="#63b8ff" d="M53.86,-54.75C51.74,-47.72 48.69,-37.62 46.04,-28.84"/>
<polygon fill="#63b8ff" stroke="#63b8ff" points="49.33,-27.65 43.09,-19.09 42.63,-29.67 49.33,-27.65"/>
</g>
<!-- Node7 -->
<g id="node7" class="node">
<title>Node7</title>
<g id="a_node7"><a xlink:href="ICardFactory_8h.html" target="_top" xlink:title=" ">
<polygon fill="white" stroke="#666666" points="216,-74 131,-74 131,-55 216,-55 216,-74"/>
<text text-anchor="middle" x="173.5" y="-62" font-family="Helvetica,sans-Serif" font-size="10.00">ICardFactory.h</text>
</a>
</g>
</g>
<!-- Node6&#45;&gt;Node7 -->
<g id="edge6" class="edge">
<title>Node6&#45;&gt;Node7</title>
<path fill="none" stroke="#63b8ff" d="M213.57,-109.75C206.65,-102.11 196.43,-90.82 188.05,-81.56"/>
<polygon fill="#63b8ff" stroke="#63b8ff" points="190.59,-79.15 181.28,-74.09 185.4,-83.85 190.59,-79.15"/>
</g>
<!-- Node8 -->
<g id="node8" class="node">
<title>Node8</title>
<g id="a_node8"><a xlink:title=" ">
<polygon fill="#e0e0e0" stroke="#999999" points="307,-74 234,-74 234,-55 307,-55 307,-74"/>
<text text-anchor="middle" x="270.5" y="-62" font-family="Helvetica,sans-Serif" font-size="10.00">string_view</text>
</a>
</g>
</g>
<!-- Node6&#45;&gt;Node8 -->
<g id="edge9" class="edge">
<title>Node6&#45;&gt;Node8</title>
<path fill="none" stroke="#63b8ff" d="M229.59,-109.75C236.66,-102.11 247.09,-90.82 255.65,-81.56"/>
<polygon fill="#63b8ff" stroke="#63b8ff" points="258.34,-83.81 262.56,-74.09 253.2,-79.06 258.34,-83.81"/>
</g>
<!-- Node9 -->
<g id="node9" class="node">
<title>Node9</title>
<g id="a_node9"><a xlink:title=" ">
<polygon fill="#e0e0e0" stroke="#999999" points="418,-74 325,-74 325,-55 418,-55 418,-74"/>
<text text-anchor="middle" x="371.5" y="-62" font-family="Helvetica,sans-Serif" font-size="10.00">unordered_map</text>
</a>
</g>
</g>
<!-- Node6&#45;&gt;Node9 -->
<g id="edge10" class="edge">
<title>Node6&#45;&gt;Node9</title>
<path fill="none" stroke="#63b8ff" d="M245.6,-109.98C270.38,-101.23 309.2,-87.51 337.19,-77.62"/>
<polygon fill="#63b8ff" stroke="#63b8ff" points="338.7,-80.8 346.96,-74.17 336.37,-74.2 338.7,-80.8"/>
</g>
<!-- Node7&#45;&gt;Node3 -->
<g id="edge7" class="edge">
<title>Node7&#45;&gt;Node3</title>
<path fill="none" stroke="#63b8ff" d="M173.5,-54.75C173.5,-47.8 173.5,-37.85 173.5,-29.13"/>
<polygon fill="#63b8ff" stroke="#63b8ff" points="177,-29.09 173.5,-19.09 170,-29.09 177,-29.09"/>
</g>
<!-- Node7&#45;&gt;Node4 -->
<g id="edge8" class="edge">
<title>Node7&#45;&gt;Node4</title>
<path fill="none" stroke="#63b8ff" d="M162.41,-54.98C152.01,-47 136.24,-34.88 123.78,-25.31"/>
<polygon fill="#63b8ff" stroke="#63b8ff" points="125.85,-22.49 115.79,-19.17 121.59,-28.04 125.85,-22.49"/>
</g>
</g>
</svg>
