<?xml version="1.0" encoding="UTF-8" standalone="no"?>
<!DOCTYPE svg PUBLIC "-//W3C//DTD SVG 1.1//EN"
 "http://www.w3.org/Graphics/SVG/1.1/DTD/svg11.dtd">
<!-- Generated by graphviz version 2.43.0 (0)
 -->
<!-- Title: game_system/cardmatch.cpp Pages: 1 -->
<!--zoomable 247 -->
<svg id="main" version="1.1" xmlns="http://www.w3.org/2000/svg" xmlns:xlink="http://www.w3.org/1999/xlink" xml:space="preserve" onload="init(evt)">
<style type="text/css"><![CDATA[
.edge:hover path { stroke: red; }
.edge:hover polygon { stroke: red; fill: red; }
]]></style>
<script type="text/javascript"><![CDATA[
var edges = document.getElementsByTagName('g');
if (edges && edges.length) {
  for (var i=0;i<edges.length;i++) {
    if (edges[i].id.substr(0,4)=='edge') {
      edges[i].setAttribute('class','edge');
    }
  }
}
]]></script>
        <defs>
                <circle id="rim" cx="0" cy="0" r="7"/>
                <circle id="rim2" cx="0" cy="0" r="3.5"/>
                <g id="zoomPlus">
                        <use xlink:href="#rim" fill="#404040">
                                <set attributeName="fill" to="#808080" begin="zoomplus.mouseover" end="zoomplus.mouseout"/>
                        </use>
                        <path d="M-4,0h8M0,-4v8" fill="none" stroke="white" stroke-width="1.5" pointer-events="none"/>
                </g>
                <g id="zoomMin">
                        <use xlink:href="#rim" fill="#404040">
                                <set attributeName="fill" to="#808080" begin="zoomminus.mouseover" end="zoomminus.mouseout"/>
                        </use>
                        <path d="M-4,0h8" fill="none" stroke="white" stroke-width="1.5" pointer-events="none"/>
                </g>
                <g id="dirArrow">
                        <path fill="none" stroke="white" stroke-width="1.5" d="M0,-3.0v7 M-2.5,-0.5L0,-3.0L2.5,-0.5"/>
                </g>
               <g id="resetDef">
                       <use xlink:href="#rim2" fill="#404040">
                               <set attributeName="fill" to="#808080" begin="reset.mouseover" end="reset.mouseout"/>
                       </use>
               </g>
        </defs>

<script type="text/javascript">
var viewWidth = 1156;
var viewHeight = 247;
var sectionId = 'dynsection-0';
</script>
<script xlink:href="svgpan.js"/>
<svg id="graph" class="graph">
<g id="viewport">
<title>game_system/cardmatch.cpp</title>
<!-- Node1 -->
<g id="node1" class="node">
<title>Node1</title>
<g id="a_node1"><a xlink:title=" ">
<polygon fill="#999999" stroke="#666666" points="507,-239 346,-239 346,-220 507,-220 507,-239"/>
<text text-anchor="middle" x="426.5" y="-227" font-family="Helvetica,sans-Serif" font-size="10.00">game_system/cardmatch.cpp</text>
</a>
</g>
</g>
<!-- Node2 -->
<g id="node2" class="node">
<title>Node2</title>
<g id="a_node2"><a xlink:title=" ">
<polygon fill="#e0e0e0" stroke="#999999" points="77,-184 0,-184 0,-165 77,-165 77,-184"/>
<text text-anchor="middle" x="38.5" y="-172" font-family="Helvetica,sans-Serif" font-size="10.00">cardMatch.h</text>
</a>
</g>
</g>
<!-- Node1&#45;&gt;Node2 -->
<g id="edge1" class="edge">
<title>Node1&#45;&gt;Node2</title>
<path fill="none" stroke="#63b8ff" d="M353.18,-219.99C286.32,-211.99 184.56,-199.2 87.22,-184.21"/>
<polygon fill="#63b8ff" stroke="#63b8ff" points="87.62,-180.73 77.2,-182.66 86.55,-187.65 87.62,-180.73"/>
</g>
<!-- Node3 -->
<g id="node3" class="node">
<title>Node3</title>
<g id="a_node3"><a xlink:title=" ">
<polygon fill="#e0e0e0" stroke="#999999" points="214,-184 95,-184 95,-165 214,-165 214,-184"/>
<text text-anchor="middle" x="154.5" y="-172" font-family="Helvetica,sans-Serif" font-size="10.00">cards/CardInstance.h</text>
</a>
</g>
</g>
<!-- Node1&#45;&gt;Node3 -->
<g id="edge2" class="edge">
<title>Node1&#45;&gt;Node3</title>
<path fill="none" stroke="#63b8ff" d="M382.8,-219.98C335.35,-210.74 259.53,-195.97 208.42,-186.01"/>
<polygon fill="#63b8ff" stroke="#63b8ff" points="209.03,-182.56 198.54,-184.08 207.69,-189.43 209.03,-182.56"/>
</g>
<!-- Node4 -->
<g id="node4" class="node">
<title>Node4</title>
<g id="a_node4"><a xlink:href="cardDefinition_8h.html" target="_top" xlink:title=" ">
<polygon fill="white" stroke="#666666" points="498,-129 375,-129 375,-110 498,-110 498,-129"/>
<text text-anchor="middle" x="436.5" y="-117" font-family="Helvetica,sans-Serif" font-size="10.00">cards/cardDefinition.h</text>
</a>
</g>
</g>
<!-- Node1&#45;&gt;Node4 -->
<g id="edge3" class="edge">
<title>Node1&#45;&gt;Node4</title>
<path fill="none" stroke="#63b8ff" d="M427.32,-219.66C428.94,-202.17 432.58,-162.8 434.76,-139.27"/>
<polygon fill="#63b8ff" stroke="#63b8ff" points="438.26,-139.44 435.7,-129.16 431.29,-138.79 438.26,-139.44"/>
</g>
<!-- Node9 -->
<g id="node9" class="node">
<title>Node9</title>
<g id="a_node9"><a xlink:href="combatContext_8h.html" target="_top" xlink:title=" ">
<polygon fill="white" stroke="#666666" points="1147.5,-184 1007.5,-184 1007.5,-165 1147.5,-165 1147.5,-184"/>
<text text-anchor="middle" x="1077.5" y="-172" font-family="Helvetica,sans-Serif" font-size="10.00">combat/combatContext.h</text>
</a>
</g>
</g>
<!-- Node1&#45;&gt;Node9 -->
<g id="edge8" class="edge">
<title>Node1&#45;&gt;Node9</title>
<path fill="none" stroke="#63b8ff" d="M507.31,-221.92C632.5,-211.73 871.92,-192.24 996.95,-182.06"/>
<polygon fill="#63b8ff" stroke="#63b8ff" points="997.54,-185.52 1007.22,-181.22 996.97,-178.54 997.54,-185.52"/>
</g>
<!-- Node11 -->
<g id="node11" class="node">
<title>Node11</title>
<g id="a_node11"><a xlink:href="effect_8h.html" target="_top" xlink:title=" ">
<polygon fill="white" stroke="#666666" points="287,-74 198,-74 198,-55 287,-55 287,-74"/>
<text text-anchor="middle" x="242.5" y="-62" font-family="Helvetica,sans-Serif" font-size="10.00">effects/effect.h</text>
</a>
</g>
</g>
<!-- Node1&#45;&gt;Node11 -->
<g id="edge10" class="edge">
<title>Node1&#45;&gt;Node11</title>
<path fill="none" stroke="#63b8ff" d="M401.26,-219.98C364.98,-206.45 298.39,-176.59 261.5,-129 251.48,-116.07 246.73,-97.91 244.48,-84.33"/>
<polygon fill="#63b8ff" stroke="#63b8ff" points="247.92,-83.65 243.13,-74.2 240.99,-84.58 247.92,-83.65"/>
</g>
<!-- Node13 -->
<g id="node13" class="node">
<title>Node13</title>
<g id="a_node13"><a xlink:href="enemy_8h.html" target="_top" xlink:title=" ">
<polygon fill="white" stroke="#666666" points="598,-184 455,-184 455,-165 598,-165 598,-184"/>
<text text-anchor="middle" x="526.5" y="-172" font-family="Helvetica,sans-Serif" font-size="10.00">entities/enemies/enemy.h</text>
</a>
</g>
</g>
<!-- Node1&#45;&gt;Node13 -->
<g id="edge12" class="edge">
<title>Node1&#45;&gt;Node13</title>
<path fill="none" stroke="#63b8ff" d="M442.57,-219.98C458.36,-211.61 482.72,-198.7 501.13,-188.95"/>
<polygon fill="#63b8ff" stroke="#63b8ff" points="502.94,-191.95 510.14,-184.17 499.67,-185.76 502.94,-191.95"/>
</g>
<!-- Node14 -->
<g id="node14" class="node">
<title>Node14</title>
<g id="a_node14"><a xlink:href="enemyMove_8h.html" target="_top" xlink:title=" ">
<polygon fill="white" stroke="#666666" points="356.5,-129 270.5,-129 270.5,-110 356.5,-110 356.5,-129"/>
<text text-anchor="middle" x="313.5" y="-117" font-family="Helvetica,sans-Serif" font-size="10.00">enemyMove.h</text>
</a>
</g>
</g>
<!-- Node1&#45;&gt;Node14 -->
<g id="edge23" class="edge">
<title>Node1&#45;&gt;Node14</title>
<path fill="none" stroke="#63b8ff" d="M417.25,-219.66C398.12,-201.38 353.97,-159.18 329.89,-136.17"/>
<polygon fill="#63b8ff" stroke="#63b8ff" points="332.21,-133.54 322.56,-129.16 327.37,-138.6 332.21,-133.54"/>
</g>
<!-- Node16 -->
<g id="node16" class="node">
<title>Node16</title>
<g id="a_node16"><a xlink:href="player_8h.html" target="_top" xlink:title=" ">
<polygon fill="white" stroke="#666666" points="760,-184 665,-184 665,-165 760,-165 760,-184"/>
<text text-anchor="middle" x="712.5" y="-172" font-family="Helvetica,sans-Serif" font-size="10.00">entities/player.h</text>
</a>
</g>
</g>
<!-- Node1&#45;&gt;Node16 -->
<g id="edge24" class="edge">
<title>Node1&#45;&gt;Node16</title>
<path fill="none" stroke="#63b8ff" d="M472.45,-219.98C522.44,-210.72 602.39,-195.9 656.14,-185.94"/>
<polygon fill="#63b8ff" stroke="#63b8ff" points="656.99,-189.35 666.19,-184.08 655.72,-182.46 656.99,-189.35"/>
</g>
<!-- Node21 -->
<g id="node21" class="node">
<title>Node21</title>
<g id="a_node21"><a xlink:href="debug_8h.html" target="_top" xlink:title=" ">
<polygon fill="white" stroke="#666666" points="1014.5,-129 940.5,-129 940.5,-110 1014.5,-110 1014.5,-129"/>
<text text-anchor="middle" x="977.5" y="-117" font-family="Helvetica,sans-Serif" font-size="10.00">util/debug.h</text>
</a>
</g>
</g>
<!-- Node1&#45;&gt;Node21 -->
<g id="edge39" class="edge">
<title>Node1&#45;&gt;Node21</title>
<path fill="none" stroke="#63b8ff" d="M507.2,-221.87C577.12,-215.22 680.72,-203.17 769.5,-184 832.44,-170.41 903.83,-146.74 944.48,-132.46"/>
<polygon fill="#63b8ff" stroke="#63b8ff" points="945.87,-135.68 954.13,-129.04 943.54,-129.08 945.87,-135.68"/>
</g>
<!-- Node5 -->
<g id="node5" class="node">
<title>Node5</title>
<g id="a_node5"><a xlink:title=" ">
<polygon fill="#e0e0e0" stroke="#999999" points="501.5,-74 443.5,-74 443.5,-55 501.5,-55 501.5,-74"/>
<text text-anchor="middle" x="472.5" y="-62" font-family="Helvetica,sans-Serif" font-size="10.00">memory</text>
</a>
</g>
</g>
<!-- Node4&#45;&gt;Node5 -->
<g id="edge4" class="edge">
<title>Node4&#45;&gt;Node5</title>
<path fill="none" stroke="#63b8ff" d="M442.44,-109.75C447.48,-102.34 454.84,-91.5 461.01,-82.41"/>
<polygon fill="#63b8ff" stroke="#63b8ff" points="463.94,-84.33 466.67,-74.09 458.15,-80.39 463.94,-84.33"/>
</g>
<!-- Node6 -->
<g id="node6" class="node">
<title>Node6</title>
<g id="a_node6"><a xlink:title=" ">
<polygon fill="#e0e0e0" stroke="#999999" points="699.5,-19 655.5,-19 655.5,0 699.5,0 699.5,-19"/>
<text text-anchor="middle" x="677.5" y="-7" font-family="Helvetica,sans-Serif" font-size="10.00">string</text>
</a>
</g>
</g>
<!-- Node4&#45;&gt;Node6 -->
<g id="edge5" class="edge">
<title>Node4&#45;&gt;Node6</title>
<path fill="none" stroke="#63b8ff" d="M433.03,-109.96C428.22,-96.57 421.51,-70.59 434.5,-55 460.99,-23.22 585.55,-14.07 645.33,-11.49"/>
<polygon fill="#63b8ff" stroke="#63b8ff" points="645.51,-14.98 655.36,-11.09 645.23,-7.99 645.51,-14.98"/>
</g>
<!-- Node7 -->
<g id="node7" class="node">
<title>Node7</title>
<g id="a_node7"><a xlink:title=" ">
<polygon fill="#e0e0e0" stroke="#999999" points="714,-74 641,-74 641,-55 714,-55 714,-74"/>
<text text-anchor="middle" x="677.5" y="-62" font-family="Helvetica,sans-Serif" font-size="10.00">string_view</text>
</a>
</g>
</g>
<!-- Node4&#45;&gt;Node7 -->
<g id="edge6" class="edge">
<title>Node4&#45;&gt;Node7</title>
<path fill="none" stroke="#63b8ff" d="M475.22,-109.98C517.65,-100.65 585.69,-85.69 630.99,-75.73"/>
<polygon fill="#63b8ff" stroke="#63b8ff" points="631.84,-79.13 640.85,-73.56 630.33,-72.29 631.84,-79.13"/>
</g>
<!-- Node8 -->
<g id="node8" class="node">
<title>Node8</title>
<g id="a_node8"><a xlink:title=" ">
<polygon fill="#e0e0e0" stroke="#999999" points="567,-74 520,-74 520,-55 567,-55 567,-74"/>
<text text-anchor="middle" x="543.5" y="-62" font-family="Helvetica,sans-Serif" font-size="10.00">vector</text>
</a>
</g>
</g>
<!-- Node4&#45;&gt;Node8 -->
<g id="edge7" class="edge">
<title>Node4&#45;&gt;Node8</title>
<path fill="none" stroke="#63b8ff" d="M453.69,-109.98C470.75,-101.54 497.13,-88.47 516.9,-78.68"/>
<polygon fill="#63b8ff" stroke="#63b8ff" points="518.59,-81.75 526,-74.17 515.48,-75.47 518.59,-81.75"/>
</g>
<!-- Node10 -->
<g id="node10" class="node">
<title>Node10</title>
<g id="a_node10"><a xlink:href="combatTarget_8h.html" target="_top" xlink:title=" ">
<polygon fill="white" stroke="#666666" points="1124.5,-129 1032.5,-129 1032.5,-110 1124.5,-110 1124.5,-129"/>
<text text-anchor="middle" x="1078.5" y="-117" font-family="Helvetica,sans-Serif" font-size="10.00">combatTarget.h</text>
</a>
</g>
</g>
<!-- Node9&#45;&gt;Node10 -->
<g id="edge9" class="edge">
<title>Node9&#45;&gt;Node10</title>
<path fill="none" stroke="#63b8ff" d="M1077.67,-164.75C1077.8,-157.8 1077.98,-147.85 1078.15,-139.13"/>
<polygon fill="#63b8ff" stroke="#63b8ff" points="1081.65,-139.15 1078.34,-129.09 1074.65,-139.02 1081.65,-139.15"/>
</g>
<!-- Node12 -->
<g id="node12" class="node">
<title>Node12</title>
<g id="a_node12"><a xlink:href="effectParams_8h.html" target="_top" xlink:title=" ">
<polygon fill="white" stroke="#666666" points="342,-19 217,-19 217,0 342,0 342,-19"/>
<text text-anchor="middle" x="279.5" y="-7" font-family="Helvetica,sans-Serif" font-size="10.00">effects/effectParams.h</text>
</a>
</g>
</g>
<!-- Node11&#45;&gt;Node12 -->
<g id="edge11" class="edge">
<title>Node11&#45;&gt;Node12</title>
<path fill="none" stroke="#63b8ff" d="M248.61,-54.75C253.78,-47.34 261.35,-36.5 267.69,-27.41"/>
<polygon fill="#63b8ff" stroke="#63b8ff" points="270.65,-29.29 273.5,-19.09 264.91,-25.29 270.65,-29.29"/>
</g>
<!-- Node13&#45;&gt;Node8 -->
<g id="edge22" class="edge">
<title>Node13&#45;&gt;Node8</title>
<path fill="none" stroke="#63b8ff" d="M527.89,-164.66C530.64,-147.17 536.84,-107.8 540.54,-84.27"/>
<polygon fill="#63b8ff" stroke="#63b8ff" points="544.04,-84.58 542.14,-74.16 537.12,-83.49 544.04,-84.58"/>
</g>
<!-- Node13&#45;&gt;Node14 -->
<g id="edge13" class="edge">
<title>Node13&#45;&gt;Node14</title>
<path fill="none" stroke="#63b8ff" d="M492.28,-164.98C455.74,-155.89 397.72,-141.46 357.74,-131.51"/>
<polygon fill="#63b8ff" stroke="#63b8ff" points="358.54,-128.1 347.99,-129.08 356.85,-134.89 358.54,-128.1"/>
</g>
<!-- Node15 -->
<g id="node15" class="node">
<title>Node15</title>
<g id="a_node15"><a xlink:href="entity_8h.html" target="_top" xlink:title=" ">
<polygon fill="white" stroke="#666666" points="684.5,-129 592.5,-129 592.5,-110 684.5,-110 684.5,-129"/>
<text text-anchor="middle" x="638.5" y="-117" font-family="Helvetica,sans-Serif" font-size="10.00">entities/entity.h</text>
</a>
</g>
</g>
<!-- Node13&#45;&gt;Node15 -->
<g id="edge19" class="edge">
<title>Node13&#45;&gt;Node15</title>
<path fill="none" stroke="#63b8ff" d="M544.49,-164.98C562.43,-156.5 590.22,-143.35 610.93,-133.54"/>
<polygon fill="#63b8ff" stroke="#63b8ff" points="612.64,-136.61 620.18,-129.17 609.64,-130.28 612.64,-136.61"/>
</g>
<!-- Node14&#45;&gt;Node5 -->
<g id="edge16" class="edge">
<title>Node14&#45;&gt;Node5</title>
<path fill="none" stroke="#63b8ff" d="M339.05,-109.98C365.62,-101.13 407.44,-87.19 437.17,-77.28"/>
<polygon fill="#63b8ff" stroke="#63b8ff" points="438.37,-80.56 446.75,-74.08 436.16,-73.92 438.37,-80.56"/>
</g>
<!-- Node14&#45;&gt;Node6 -->
<g id="edge17" class="edge">
<title>Node14&#45;&gt;Node6</title>
<path fill="none" stroke="#63b8ff" d="M324.91,-109.99C344.03,-96.16 384.24,-68.97 422.5,-55 499.39,-26.92 595.95,-16.27 645.27,-12.46"/>
<polygon fill="#63b8ff" stroke="#63b8ff" points="645.61,-15.95 655.33,-11.73 645.11,-8.97 645.61,-15.95"/>
</g>
<!-- Node14&#45;&gt;Node8 -->
<g id="edge18" class="edge">
<title>Node14&#45;&gt;Node8</title>
<path fill="none" stroke="#63b8ff" d="M352.83,-109.98C390.55,-101.73 449.36,-88.65 509.65,-74.15"/>
<polygon fill="#63b8ff" stroke="#63b8ff" points="510.83,-77.46 519.73,-71.71 509.19,-70.66 510.83,-77.46"/>
</g>
<!-- Node14&#45;&gt;Node11 -->
<g id="edge14" class="edge">
<title>Node14&#45;&gt;Node11</title>
<path fill="none" stroke="#63b8ff" d="M302.09,-109.98C291.39,-102 275.16,-89.88 262.34,-80.31"/>
<polygon fill="#63b8ff" stroke="#63b8ff" points="264.22,-77.35 254.11,-74.17 260.03,-82.96 264.22,-77.35"/>
</g>
<!-- Node14&#45;&gt;Node12 -->
<g id="edge15" class="edge">
<title>Node14&#45;&gt;Node12</title>
<path fill="none" stroke="#63b8ff" d="M311.24,-109.82C308,-97.53 301.74,-74.42 295.5,-55 292.71,-46.3 289.32,-36.76 286.38,-28.75"/>
<polygon fill="#63b8ff" stroke="#63b8ff" points="289.64,-27.46 282.87,-19.3 283.07,-29.9 289.64,-27.46"/>
</g>
<!-- Node15&#45;&gt;Node6 -->
<g id="edge20" class="edge">
<title>Node15&#45;&gt;Node6</title>
<path fill="none" stroke="#63b8ff" d="M635.2,-109.9C630.91,-97.31 624.82,-73.39 632.5,-55 637.36,-43.36 646.92,-33.2 655.98,-25.55"/>
<polygon fill="#63b8ff" stroke="#63b8ff" points="658.3,-28.17 664.01,-19.25 653.98,-22.67 658.3,-28.17"/>
</g>
<!-- Node15&#45;&gt;Node7 -->
<g id="edge21" class="edge">
<title>Node15&#45;&gt;Node7</title>
<path fill="none" stroke="#63b8ff" d="M644.94,-109.75C650.39,-102.34 658.36,-91.5 665.06,-82.41"/>
<polygon fill="#63b8ff" stroke="#63b8ff" points="668.07,-84.22 671.18,-74.09 662.43,-80.07 668.07,-84.22"/>
</g>
<!-- Node16&#45;&gt;Node6 -->
<g id="edge36" class="edge">
<title>Node16&#45;&gt;Node6</title>
<path fill="none" stroke="#63b8ff" d="M716.05,-164.74C723.68,-144.48 739.71,-93.24 723.5,-55 718.52,-43.25 708.75,-33.09 699.49,-25.45"/>
<polygon fill="#63b8ff" stroke="#63b8ff" points="701.35,-22.47 691.28,-19.18 697.1,-28.03 701.35,-22.47"/>
</g>
<!-- Node16&#45;&gt;Node7 -->
<g id="edge37" class="edge">
<title>Node16&#45;&gt;Node7</title>
<path fill="none" stroke="#63b8ff" d="M710.07,-164.83C706.59,-152.56 699.9,-129.46 693.5,-110 690.64,-101.32 687.25,-91.79 684.32,-83.77"/>
<polygon fill="#63b8ff" stroke="#63b8ff" points="687.58,-82.48 680.83,-74.32 681.01,-84.91 687.58,-82.48"/>
</g>
<!-- Node16&#45;&gt;Node8 -->
<g id="edge38" class="edge">
<title>Node16&#45;&gt;Node8</title>
<path fill="none" stroke="#63b8ff" d="M664.89,-165.15C638.76,-158.7 606.98,-147.62 583.5,-129 568.38,-117.01 557.37,-97.65 550.77,-83.45"/>
<polygon fill="#63b8ff" stroke="#63b8ff" points="553.95,-81.98 546.75,-74.21 547.53,-84.77 553.95,-81.98"/>
</g>
<!-- Node16&#45;&gt;Node15 -->
<g id="edge35" class="edge">
<title>Node16&#45;&gt;Node15</title>
<path fill="none" stroke="#63b8ff" d="M700.61,-164.98C689.35,-156.92 672.21,-144.65 658.79,-135.03"/>
<polygon fill="#63b8ff" stroke="#63b8ff" points="660.77,-132.15 650.61,-129.17 656.7,-137.84 660.77,-132.15"/>
</g>
<!-- Node17 -->
<g id="node17" class="node">
<title>Node17</title>
<g id="a_node17"><a xlink:href="deckEntry_8h.html" target="_top" xlink:title=" ">
<polygon fill="white" stroke="#666666" points="971,-74 872,-74 872,-55 971,-55 971,-74"/>
<text text-anchor="middle" x="921.5" y="-62" font-family="Helvetica,sans-Serif" font-size="10.00">deck/deckEntry.h</text>
</a>
</g>
</g>
<!-- Node16&#45;&gt;Node17 -->
<g id="edge25" class="edge">
<title>Node16&#45;&gt;Node17</title>
<path fill="none" stroke="#63b8ff" d="M760.38,-173.01C800.2,-170.19 856.2,-160.31 893.5,-129 907.03,-117.64 914.25,-98.46 917.94,-84.15"/>
<polygon fill="#63b8ff" stroke="#63b8ff" points="921.37,-84.88 920.13,-74.36 914.53,-83.36 921.37,-84.88"/>
</g>
<!-- Node18 -->
<g id="node18" class="node">
<title>Node18</title>
<g id="a_node18"><a xlink:href="deckPlayer_8h.html" target="_top" xlink:title=" ">
<polygon fill="white" stroke="#666666" points="884,-129 779,-129 779,-110 884,-110 884,-129"/>
<text text-anchor="middle" x="831.5" y="-117" font-family="Helvetica,sans-Serif" font-size="10.00">deck/deckPlayer.h</text>
</a>
</g>
</g>
<!-- Node16&#45;&gt;Node18 -->
<g id="edge27" class="edge">
<title>Node16&#45;&gt;Node18</title>
<path fill="none" stroke="#63b8ff" d="M731.62,-164.98C750.85,-156.42 780.73,-143.11 802.81,-133.28"/>
<polygon fill="#63b8ff" stroke="#63b8ff" points="804.32,-136.44 812.03,-129.17 801.47,-130.04 804.32,-136.44"/>
</g>
<!-- Node17&#45;&gt;Node6 -->
<g id="edge26" class="edge">
<title>Node17&#45;&gt;Node6</title>
<path fill="none" stroke="#63b8ff" d="M882.3,-54.98C834.41,-44.58 754.29,-27.18 709.78,-17.51"/>
<polygon fill="#63b8ff" stroke="#63b8ff" points="710.32,-14.05 699.8,-15.34 708.83,-20.89 710.32,-14.05"/>
</g>
<!-- Node18&#45;&gt;Node5 -->
<g id="edge30" class="edge">
<title>Node18&#45;&gt;Node5</title>
<path fill="none" stroke="#63b8ff" d="M778.93,-112.44C717.41,-105.07 612.29,-91.61 511.86,-73.93"/>
<polygon fill="#63b8ff" stroke="#63b8ff" points="512.3,-70.45 501.84,-72.15 511.07,-77.34 512.3,-70.45"/>
</g>
<!-- Node18&#45;&gt;Node6 -->
<g id="edge31" class="edge">
<title>Node18&#45;&gt;Node6</title>
<path fill="none" stroke="#63b8ff" d="M822.26,-109.67C808.55,-96.81 781.71,-72.54 756.5,-55 739.81,-43.39 719.84,-32.16 704.16,-23.89"/>
<polygon fill="#63b8ff" stroke="#63b8ff" points="705.51,-20.65 695.02,-19.15 702.28,-26.86 705.51,-20.65"/>
</g>
<!-- Node18&#45;&gt;Node7 -->
<g id="edge32" class="edge">
<title>Node18&#45;&gt;Node7</title>
<path fill="none" stroke="#63b8ff" d="M806.76,-109.98C781.13,-101.16 740.87,-87.31 712.09,-77.41"/>
<polygon fill="#63b8ff" stroke="#63b8ff" points="713.03,-74.03 702.44,-74.08 710.75,-80.65 713.03,-74.03"/>
</g>
<!-- Node18&#45;&gt;Node8 -->
<g id="edge34" class="edge">
<title>Node18&#45;&gt;Node8</title>
<path fill="none" stroke="#63b8ff" d="M785.23,-109.98C727.06,-99.28 628.62,-81.16 577.15,-71.69"/>
<polygon fill="#63b8ff" stroke="#63b8ff" points="577.67,-68.23 567.2,-69.86 576.41,-75.11 577.67,-68.23"/>
</g>
<!-- Node18&#45;&gt;Node17 -->
<g id="edge28" class="edge">
<title>Node18&#45;&gt;Node17</title>
<path fill="none" stroke="#63b8ff" d="M845.96,-109.98C859.92,-101.77 881.29,-89.18 897.75,-79.49"/>
<polygon fill="#63b8ff" stroke="#63b8ff" points="899.94,-82.26 906.78,-74.17 896.38,-76.23 899.94,-82.26"/>
</g>
<!-- Node19 -->
<g id="node19" class="node">
<title>Node19</title>
<g id="a_node19"><a xlink:title=" ">
<polygon fill="#e0e0e0" stroke="#999999" points="1049.5,-74 989.5,-74 989.5,-55 1049.5,-55 1049.5,-74"/>
<text text-anchor="middle" x="1019.5" y="-62" font-family="Helvetica,sans-Serif" font-size="10.00">iostream</text>
</a>
</g>
</g>
<!-- Node18&#45;&gt;Node19 -->
<g id="edge29" class="edge">
<title>Node18&#45;&gt;Node19</title>
<path fill="none" stroke="#63b8ff" d="M861.71,-109.98C893.64,-100.98 944.16,-86.74 979.41,-76.8"/>
<polygon fill="#63b8ff" stroke="#63b8ff" points="980.69,-80.08 989.37,-73.99 978.79,-73.34 980.69,-80.08"/>
</g>
<!-- Node20 -->
<g id="node20" class="node">
<title>Node20</title>
<g id="a_node20"><a xlink:title=" ">
<polygon fill="#e0e0e0" stroke="#999999" points="854,-74 809,-74 809,-55 854,-55 854,-74"/>
<text text-anchor="middle" x="831.5" y="-62" font-family="Helvetica,sans-Serif" font-size="10.00">utility</text>
</a>
</g>
</g>
<!-- Node18&#45;&gt;Node20 -->
<g id="edge33" class="edge">
<title>Node18&#45;&gt;Node20</title>
<path fill="none" stroke="#63b8ff" d="M831.5,-109.75C831.5,-102.8 831.5,-92.85 831.5,-84.13"/>
<polygon fill="#63b8ff" stroke="#63b8ff" points="835,-84.09 831.5,-74.09 828,-84.09 835,-84.09"/>
</g>
<!-- Node21&#45;&gt;Node19 -->
<g id="edge40" class="edge">
<title>Node21&#45;&gt;Node19</title>
<path fill="none" stroke="#63b8ff" d="M984.44,-109.75C990.37,-102.26 999.07,-91.28 1006.32,-82.13"/>
<polygon fill="#63b8ff" stroke="#63b8ff" points="1009.23,-84.1 1012.69,-74.09 1003.74,-79.75 1009.23,-84.1"/>
</g>
</g>
</svg>
        <g id="navigator" transform="translate(0 0)" fill="#404254">
                <rect fill="#f2f5e9" fill-opacity="0.5" stroke="#606060" stroke-width=".5" x="0" y="0" width="60" height="60"/>
                <use id="zoomplus" xlink:href="#zoomPlus" x="17" y="9" onmousedown="handleZoom(evt,'in')"/>
                <use id="zoomminus" xlink:href="#zoomMin" x="42" y="9" onmousedown="handleZoom(evt,'out')"/>
                <use id="reset" xlink:href="#resetDef" x="30" y="36" onmousedown="handleReset()"/>
                <g id="arrowUp" xlink:href="#dirArrow" transform="translate(30 24)" onmousedown="handlePan(0,-1)">
                  <use xlink:href="#rim" fill="#404040">
                        <set attributeName="fill" to="#808080" begin="arrowUp.mouseover" end="arrowUp.mouseout"/>
                  </use>
                  <path fill="none" stroke="white" stroke-width="1.5" d="M0,-3.0v7 M-2.5,-0.5L0,-3.0L2.5,-0.5"/>
                </g>
                <g id="arrowRight" xlink:href="#dirArrow" transform="rotate(90) translate(36 -43)" onmousedown="handlePan(1,0)">
                  <use xlink:href="#rim" fill="#404040">
                        <set attributeName="fill" to="#808080" begin="arrowRight.mouseover" end="arrowRight.mouseout"/>
                  </use>
                  <path fill="none" stroke="white" stroke-width="1.5" d="M0,-3.0v7 M-2.5,-0.5L0,-3.0L2.5,-0.5"/>
                </g>
                <g id="arrowDown" xlink:href="#dirArrow" transform="rotate(180) translate(-30 -48)" onmousedown="handlePan(0,1)">
                  <use xlink:href="#rim" fill="#404040">
                        <set attributeName="fill" to="#808080" begin="arrowDown.mouseover" end="arrowDown.mouseout"/>
                  </use>
                  <path fill="none" stroke="white" stroke-width="1.5" d="M0,-3.0v7 M-2.5,-0.5L0,-3.0L2.5,-0.5"/>
                </g>
                <g id="arrowLeft" xlink:href="#dirArrow" transform="rotate(270) translate(-36 17)" onmousedown="handlePan(-1,0)">
                  <use xlink:href="#rim" fill="#404040">
                        <set attributeName="fill" to="#808080" begin="arrowLeft.mouseover" end="arrowLeft.mouseout"/>
                  </use>
                  <path fill="none" stroke="white" stroke-width="1.5" d="M0,-3.0v7 M-2.5,-0.5L0,-3.0L2.5,-0.5"/>
                </g>
        </g>
        <svg viewBox="0 0 15 15" width="100%" height="30px" preserveAspectRatio="xMaxYMin meet">
         <g id="arrow_out" transform="scale(0.3 0.3)">
          <a xlink:href="cardmatch_8cpp__incl_org.svg" target="_base">
           <rect id="button" ry="5" rx="5" y="6" x="6" height="38" width="38"
                fill="#f2f5e9" fill-opacity="0.5" stroke="#606060" stroke-width="1.0"/>
           <path id="arrow"
             d="M 11.500037,31.436501 C 11.940474,20.09759 22.043105,11.32322 32.158766,21.979434 L 37.068811,17.246167 C 37.068811,17.246167 37.088388,32 37.088388,32 L 22.160133,31.978069 C 22.160133,31.978069 26.997745,27.140456 26.997745,27.140456 C 18.528582,18.264221 13.291696,25.230495 11.500037,31.436501 z"
             style="fill:#404040;"/>
          </a>
         </g>
        </svg>
</svg>
