<?xml version="1.0" encoding="UTF-8" standalone="no"?>
<!DOCTYPE svg PUBLIC "-//W3C//DTD SVG 1.1//EN"
 "http://www.w3.org/Graphics/SVG/1.1/DTD/svg11.dtd">
<!-- Generated by graphviz version 2.43.0 (0)
 -->
<!-- Title: game_system/cardmatch.h Pages: 1 -->
<!--zoomable 247 -->
<svg id="main" version="1.1" xmlns="http://www.w3.org/2000/svg" xmlns:xlink="http://www.w3.org/1999/xlink" xml:space="preserve" onload="init(evt)">
<style type="text/css"><![CDATA[
.edge:hover path { stroke: red; }
.edge:hover polygon { stroke: red; fill: red; }
]]></style>
<script type="text/javascript"><![CDATA[
var edges = document.getElementsByTagName('g');
if (edges && edges.length) {
  for (var i=0;i<edges.length;i++) {
    if (edges[i].id.substr(0,4)=='edge') {
      edges[i].setAttribute('class','edge');
    }
  }
}
]]></script>
        <defs>
                <circle id="rim" cx="0" cy="0" r="7"/>
                <circle id="rim2" cx="0" cy="0" r="3.5"/>
                <g id="zoomPlus">
                        <use xlink:href="#rim" fill="#404040">
                                <set attributeName="fill" to="#808080" begin="zoomplus.mouseover" end="zoomplus.mouseout"/>
                        </use>
                        <path d="M-4,0h8M0,-4v8" fill="none" stroke="white" stroke-width="1.5" pointer-events="none"/>
                </g>
                <g id="zoomMin">
                        <use xlink:href="#rim" fill="#404040">
                                <set attributeName="fill" to="#808080" begin="zoomminus.mouseover" end="zoomminus.mouseout"/>
                        </use>
                        <path d="M-4,0h8" fill="none" stroke="white" stroke-width="1.5" pointer-events="none"/>
                </g>
                <g id="dirArrow">
                        <path fill="none" stroke="white" stroke-width="1.5" d="M0,-3.0v7 M-2.5,-0.5L0,-3.0L2.5,-0.5"/>
                </g>
               <g id="resetDef">
                       <use xlink:href="#rim2" fill="#404040">
                               <set attributeName="fill" to="#808080" begin="reset.mouseover" end="reset.mouseout"/>
                       </use>
               </g>
        </defs>

<script type="text/javascript">
var viewWidth = 1056;
var viewHeight = 247;
var sectionId = 'dynsection-0';
</script>
<script xlink:href="svgpan.js"/>
<svg id="graph" class="graph">
<g id="viewport">
<title>game_system/cardmatch.h</title>
<!-- Node1 -->
<g id="node1" class="node">
<title>Node1</title>
<g id="a_node1"><a xlink:title=" ">
<polygon fill="#999999" stroke="#666666" points="436,-239 287,-239 287,-220 436,-220 436,-239"/>
<text text-anchor="middle" x="361.5" y="-227" font-family="Helvetica,sans-Serif" font-size="10.00">game_system/cardmatch.h</text>
</a>
</g>
</g>
<!-- Node2 -->
<g id="node2" class="node">
<title>Node2</title>
<g id="a_node2"><a xlink:href="combatSystem_8h.html" target="_top" xlink:title=" ">
<polygon fill="white" stroke="#666666" points="139,-184 0,-184 0,-165 139,-165 139,-184"/>
<text text-anchor="middle" x="69.5" y="-172" font-family="Helvetica,sans-Serif" font-size="10.00">combat/combatSystem.h</text>
</a>
</g>
</g>
<!-- Node1&#45;&gt;Node2 -->
<g id="edge1" class="edge">
<title>Node1&#45;&gt;Node2</title>
<path fill="none" stroke="#63b8ff" d="M314.59,-219.98C263.44,-210.7 181.58,-195.84 126.7,-185.88"/>
<polygon fill="#63b8ff" stroke="#63b8ff" points="127.25,-182.42 116.78,-184.08 126,-189.31 127.25,-182.42"/>
</g>
<!-- Node4 -->
<g id="node4" class="node">
<title>Node4</title>
<g id="a_node4"><a xlink:href="deckCombat_8h.html" target="_top" xlink:title=" ">
<polygon fill="white" stroke="#666666" points="418,-129 305,-129 305,-110 418,-110 418,-129"/>
<text text-anchor="middle" x="361.5" y="-117" font-family="Helvetica,sans-Serif" font-size="10.00">deck/deckCombat.h</text>
</a>
</g>
</g>
<!-- Node1&#45;&gt;Node4 -->
<g id="edge3" class="edge">
<title>Node1&#45;&gt;Node4</title>
<path fill="none" stroke="#63b8ff" d="M361.5,-219.66C361.5,-202.17 361.5,-162.8 361.5,-139.27"/>
<polygon fill="#63b8ff" stroke="#63b8ff" points="365,-139.16 361.5,-129.16 358,-139.16 365,-139.16"/>
</g>
<!-- Node8 -->
<g id="node8" class="node">
<title>Node8</title>
<g id="a_node8"><a xlink:href="enemy_8h.html" target="_top" xlink:title=" ">
<polygon fill="white" stroke="#666666" points="322,-184 179,-184 179,-165 322,-165 322,-184"/>
<text text-anchor="middle" x="250.5" y="-172" font-family="Helvetica,sans-Serif" font-size="10.00">entities/enemies/enemy.h</text>
</a>
</g>
</g>
<!-- Node1&#45;&gt;Node8 -->
<g id="edge7" class="edge">
<title>Node1&#45;&gt;Node8</title>
<path fill="none" stroke="#63b8ff" d="M343.67,-219.98C325.89,-211.5 298.35,-198.35 277.82,-188.54"/>
<polygon fill="#63b8ff" stroke="#63b8ff" points="279.19,-185.32 268.66,-184.17 276.17,-191.64 279.19,-185.32"/>
</g>
<!-- Node14 -->
<g id="node14" class="node">
<title>Node14</title>
<g id="a_node14"><a xlink:href="player_8h.html" target="_top" xlink:title=" ">
<polygon fill="white" stroke="#666666" points="647,-184 552,-184 552,-165 647,-165 647,-184"/>
<text text-anchor="middle" x="599.5" y="-172" font-family="Helvetica,sans-Serif" font-size="10.00">entities/player.h</text>
</a>
</g>
</g>
<!-- Node1&#45;&gt;Node14 -->
<g id="edge19" class="edge">
<title>Node1&#45;&gt;Node14</title>
<path fill="none" stroke="#63b8ff" d="M399.74,-219.98C440.91,-210.82 506.49,-196.21 551.2,-186.26"/>
<polygon fill="#63b8ff" stroke="#63b8ff" points="551.96,-189.67 560.96,-184.08 550.44,-182.84 551.96,-189.67"/>
</g>
<!-- Node19 -->
<g id="node19" class="node">
<title>Node19</title>
<g id="a_node19"><a xlink:href="cardFactory_8h.html" target="_top" xlink:title=" ">
<polygon fill="white" stroke="#666666" points="921.5,-184 795.5,-184 795.5,-165 921.5,-165 921.5,-184"/>
<text text-anchor="middle" x="858.5" y="-172" font-family="Helvetica,sans-Serif" font-size="10.00">factories/cardFactory.h</text>
</a>
</g>
</g>
<!-- Node1&#45;&gt;Node19 -->
<g id="edge34" class="edge">
<title>Node1&#45;&gt;Node19</title>
<path fill="none" stroke="#63b8ff" d="M436.17,-220.54C530.56,-210.47 691.98,-193.26 785.54,-183.28"/>
<polygon fill="#63b8ff" stroke="#63b8ff" points="785.92,-186.76 795.49,-182.22 785.18,-179.8 785.92,-186.76"/>
</g>
<!-- Node3 -->
<g id="node3" class="node">
<title>Node3</title>
<g id="a_node3"><a xlink:href="combatEvents_8h.html" target="_top" xlink:title=" ">
<polygon fill="white" stroke="#666666" points="106,-129 11,-129 11,-110 106,-110 106,-129"/>
<text text-anchor="middle" x="58.5" y="-117" font-family="Helvetica,sans-Serif" font-size="10.00">combatEvents.h</text>
</a>
</g>
</g>
<!-- Node2&#45;&gt;Node3 -->
<g id="edge2" class="edge">
<title>Node2&#45;&gt;Node3</title>
<path fill="none" stroke="#63b8ff" d="M67.68,-164.75C66.24,-157.8 64.18,-147.85 62.37,-139.13"/>
<polygon fill="#63b8ff" stroke="#63b8ff" points="65.74,-138.17 60.28,-129.09 58.89,-139.59 65.74,-138.17"/>
</g>
<!-- Node5 -->
<g id="node5" class="node">
<title>Node5</title>
<g id="a_node5"><a xlink:title=" ">
<polygon fill="#e0e0e0" stroke="#999999" points="371.5,-74 313.5,-74 313.5,-55 371.5,-55 371.5,-74"/>
<text text-anchor="middle" x="342.5" y="-62" font-family="Helvetica,sans-Serif" font-size="10.00">memory</text>
</a>
</g>
</g>
<!-- Node4&#45;&gt;Node5 -->
<g id="edge4" class="edge">
<title>Node4&#45;&gt;Node5</title>
<path fill="none" stroke="#63b8ff" d="M358.36,-109.75C355.82,-102.65 352.14,-92.4 348.97,-83.56"/>
<polygon fill="#63b8ff" stroke="#63b8ff" points="352.25,-82.32 345.58,-74.09 345.66,-84.68 352.25,-82.32"/>
</g>
<!-- Node6 -->
<g id="node6" class="node">
<title>Node6</title>
<g id="a_node6"><a xlink:title=" ">
<polygon fill="#e0e0e0" stroke="#999999" points="641.5,-19 597.5,-19 597.5,0 641.5,0 641.5,-19"/>
<text text-anchor="middle" x="619.5" y="-7" font-family="Helvetica,sans-Serif" font-size="10.00">string</text>
</a>
</g>
</g>
<!-- Node4&#45;&gt;Node6 -->
<g id="edge5" class="edge">
<title>Node4&#45;&gt;Node6</title>
<path fill="none" stroke="#63b8ff" d="M344.03,-109.95C321.52,-97.83 287.21,-74.91 304.5,-55 340.85,-13.16 513.81,-9.57 586.84,-9.97"/>
<polygon fill="#63b8ff" stroke="#63b8ff" points="587.23,-13.48 597.26,-10.06 587.29,-6.48 587.23,-13.48"/>
</g>
<!-- Node7 -->
<g id="node7" class="node">
<title>Node7</title>
<g id="a_node7"><a xlink:title=" ">
<polygon fill="#e0e0e0" stroke="#999999" points="257,-74 210,-74 210,-55 257,-55 257,-74"/>
<text text-anchor="middle" x="233.5" y="-62" font-family="Helvetica,sans-Serif" font-size="10.00">vector</text>
</a>
</g>
</g>
<!-- Node4&#45;&gt;Node7 -->
<g id="edge6" class="edge">
<title>Node4&#45;&gt;Node7</title>
<path fill="none" stroke="#63b8ff" d="M340.93,-109.98C320.07,-101.34 287.53,-87.87 263.73,-78.02"/>
<polygon fill="#63b8ff" stroke="#63b8ff" points="265.02,-74.76 254.44,-74.17 262.34,-81.23 265.02,-74.76"/>
</g>
<!-- Node8&#45;&gt;Node7 -->
<g id="edge18" class="edge">
<title>Node8&#45;&gt;Node7</title>
<path fill="none" stroke="#63b8ff" d="M249.11,-164.66C246.36,-147.17 240.16,-107.8 236.46,-84.27"/>
<polygon fill="#63b8ff" stroke="#63b8ff" points="239.88,-83.49 234.86,-74.16 232.96,-84.58 239.88,-83.49"/>
</g>
<!-- Node9 -->
<g id="node9" class="node">
<title>Node9</title>
<g id="a_node9"><a xlink:href="enemyMove_8h.html" target="_top" xlink:title=" ">
<polygon fill="white" stroke="#666666" points="210.5,-129 124.5,-129 124.5,-110 210.5,-110 210.5,-129"/>
<text text-anchor="middle" x="167.5" y="-117" font-family="Helvetica,sans-Serif" font-size="10.00">enemyMove.h</text>
</a>
</g>
</g>
<!-- Node8&#45;&gt;Node9 -->
<g id="edge8" class="edge">
<title>Node8&#45;&gt;Node9</title>
<path fill="none" stroke="#63b8ff" d="M237.16,-164.98C224.41,-156.84 204.95,-144.41 189.83,-134.76"/>
<polygon fill="#63b8ff" stroke="#63b8ff" points="191.39,-131.6 181.08,-129.17 187.62,-137.5 191.39,-131.6"/>
</g>
<!-- Node12 -->
<g id="node12" class="node">
<title>Node12</title>
<g id="a_node12"><a xlink:href="entity_8h.html" target="_top" xlink:title=" ">
<polygon fill="white" stroke="#666666" points="719.5,-129 627.5,-129 627.5,-110 719.5,-110 719.5,-129"/>
<text text-anchor="middle" x="673.5" y="-117" font-family="Helvetica,sans-Serif" font-size="10.00">entities/entity.h</text>
</a>
</g>
</g>
<!-- Node8&#45;&gt;Node12 -->
<g id="edge15" class="edge">
<title>Node8&#45;&gt;Node12</title>
<path fill="none" stroke="#63b8ff" d="M318.46,-164.98C401.38,-154.6 540.04,-137.22 617.25,-127.55"/>
<polygon fill="#63b8ff" stroke="#63b8ff" points="617.78,-131.01 627.27,-126.29 616.91,-124.06 617.78,-131.01"/>
</g>
<!-- Node9&#45;&gt;Node5 -->
<g id="edge12" class="edge">
<title>Node9&#45;&gt;Node5</title>
<path fill="none" stroke="#63b8ff" d="M195.62,-109.98C225.12,-101.05 271.69,-86.94 304.47,-77.02"/>
<polygon fill="#63b8ff" stroke="#63b8ff" points="305.61,-80.33 314.16,-74.08 303.58,-73.63 305.61,-80.33"/>
</g>
<!-- Node9&#45;&gt;Node6 -->
<g id="edge13" class="edge">
<title>Node9&#45;&gt;Node6</title>
<path fill="none" stroke="#63b8ff" d="M169.27,-109.77C172.64,-95.64 181.41,-68.02 200.5,-55 263.3,-12.16 500.29,-9.55 587.25,-10.08"/>
<polygon fill="#63b8ff" stroke="#63b8ff" points="587.3,-13.58 597.32,-10.16 587.35,-6.58 587.3,-13.58"/>
</g>
<!-- Node9&#45;&gt;Node7 -->
<g id="edge14" class="edge">
<title>Node9&#45;&gt;Node7</title>
<path fill="none" stroke="#63b8ff" d="M178.1,-109.98C187.96,-102.07 202.85,-90.11 214.72,-80.58"/>
<polygon fill="#63b8ff" stroke="#63b8ff" points="217.1,-83.16 222.7,-74.17 212.71,-77.7 217.1,-83.16"/>
</g>
<!-- Node10 -->
<g id="node10" class="node">
<title>Node10</title>
<g id="a_node10"><a xlink:href="effect_8h.html" target="_top" xlink:title=" ">
<polygon fill="white" stroke="#666666" points="115,-74 26,-74 26,-55 115,-55 115,-74"/>
<text text-anchor="middle" x="70.5" y="-62" font-family="Helvetica,sans-Serif" font-size="10.00">effects/effect.h</text>
</a>
</g>
</g>
<!-- Node9&#45;&gt;Node10 -->
<g id="edge9" class="edge">
<title>Node9&#45;&gt;Node10</title>
<path fill="none" stroke="#63b8ff" d="M151.92,-109.98C136.73,-101.69 113.4,-88.94 95.6,-79.22"/>
<polygon fill="#63b8ff" stroke="#63b8ff" points="96.82,-75.89 86.37,-74.17 93.47,-82.04 96.82,-75.89"/>
</g>
<!-- Node11 -->
<g id="node11" class="node">
<title>Node11</title>
<g id="a_node11"><a xlink:href="effectParams_8h.html" target="_top" xlink:title=" ">
<polygon fill="white" stroke="#666666" points="170,-19 45,-19 45,0 170,0 170,-19"/>
<text text-anchor="middle" x="107.5" y="-7" font-family="Helvetica,sans-Serif" font-size="10.00">effects/effectParams.h</text>
</a>
</g>
</g>
<!-- Node9&#45;&gt;Node11 -->
<g id="edge11" class="edge">
<title>Node9&#45;&gt;Node11</title>
<path fill="none" stroke="#63b8ff" d="M162.59,-109.66C152.7,-91.85 130.2,-51.37 117.23,-28.01"/>
<polygon fill="#63b8ff" stroke="#63b8ff" points="120.23,-26.2 112.31,-19.16 114.11,-29.6 120.23,-26.2"/>
</g>
<!-- Node10&#45;&gt;Node11 -->
<g id="edge10" class="edge">
<title>Node10&#45;&gt;Node11</title>
<path fill="none" stroke="#63b8ff" d="M76.61,-54.75C81.78,-47.34 89.35,-36.5 95.69,-27.41"/>
<polygon fill="#63b8ff" stroke="#63b8ff" points="98.65,-29.29 101.5,-19.09 92.91,-25.29 98.65,-29.29"/>
</g>
<!-- Node12&#45;&gt;Node6 -->
<g id="edge16" class="edge">
<title>Node12&#45;&gt;Node6</title>
<path fill="none" stroke="#63b8ff" d="M676.91,-109.74C681.3,-96.97 687.38,-72.82 678.5,-55 671.93,-41.82 659.4,-31.52 647.57,-24.16"/>
<polygon fill="#63b8ff" stroke="#63b8ff" points="649.18,-21.05 638.77,-19.1 645.7,-27.12 649.18,-21.05"/>
</g>
<!-- Node13 -->
<g id="node13" class="node">
<title>Node13</title>
<g id="a_node13"><a xlink:title=" ">
<polygon fill="#e0e0e0" stroke="#999999" points="799,-74 726,-74 726,-55 799,-55 799,-74"/>
<text text-anchor="middle" x="762.5" y="-62" font-family="Helvetica,sans-Serif" font-size="10.00">string_view</text>
</a>
</g>
</g>
<!-- Node12&#45;&gt;Node13 -->
<g id="edge17" class="edge">
<title>Node12&#45;&gt;Node13</title>
<path fill="none" stroke="#63b8ff" d="M687.8,-109.98C701.6,-101.77 722.74,-89.18 739.01,-79.49"/>
<polygon fill="#63b8ff" stroke="#63b8ff" points="741.14,-82.29 747.94,-74.17 737.56,-76.28 741.14,-82.29"/>
</g>
<!-- Node14&#45;&gt;Node6 -->
<g id="edge31" class="edge">
<title>Node14&#45;&gt;Node6</title>
<path fill="none" stroke="#63b8ff" d="M647.07,-168.26C699.98,-159.42 781.57,-135.91 808.5,-74 811.87,-66.26 813.74,-61.62 808.5,-55 789.3,-30.75 700.48,-18.4 651.74,-13.35"/>
<polygon fill="#63b8ff" stroke="#63b8ff" points="652,-9.86 641.7,-12.35 651.31,-16.82 652,-9.86"/>
</g>
<!-- Node14&#45;&gt;Node7 -->
<g id="edge33" class="edge">
<title>Node14&#45;&gt;Node7</title>
<path fill="none" stroke="#63b8ff" d="M551.74,-170.18C477.97,-164.43 340.22,-151.08 296.5,-129 275.15,-118.22 256.68,-97.42 245.36,-82.57"/>
<polygon fill="#63b8ff" stroke="#63b8ff" points="247.99,-80.24 239.27,-74.23 242.34,-84.37 247.99,-80.24"/>
</g>
<!-- Node14&#45;&gt;Node12 -->
<g id="edge30" class="edge">
<title>Node14&#45;&gt;Node12</title>
<path fill="none" stroke="#63b8ff" d="M611.39,-164.98C622.65,-156.92 639.79,-144.65 653.21,-135.03"/>
<polygon fill="#63b8ff" stroke="#63b8ff" points="655.3,-137.84 661.39,-129.17 651.23,-132.15 655.3,-137.84"/>
</g>
<!-- Node14&#45;&gt;Node13 -->
<g id="edge32" class="edge">
<title>Node14&#45;&gt;Node13</title>
<path fill="none" stroke="#63b8ff" d="M647.31,-165.85C673.67,-159.62 705.6,-148.51 728.5,-129 742.46,-117.11 751.58,-98.01 756.83,-83.86"/>
<polygon fill="#63b8ff" stroke="#63b8ff" points="760.2,-84.8 760.1,-74.2 753.57,-82.55 760.2,-84.8"/>
</g>
<!-- Node15 -->
<g id="node15" class="node">
<title>Node15</title>
<g id="a_node15"><a xlink:href="deckEntry_8h.html" target="_top" xlink:title=" ">
<polygon fill="white" stroke="#666666" points="669,-74 570,-74 570,-55 669,-55 669,-74"/>
<text text-anchor="middle" x="619.5" y="-62" font-family="Helvetica,sans-Serif" font-size="10.00">deck/deckEntry.h</text>
</a>
</g>
</g>
<!-- Node14&#45;&gt;Node15 -->
<g id="edge20" class="edge">
<title>Node14&#45;&gt;Node15</title>
<path fill="none" stroke="#63b8ff" d="M601.14,-164.66C604.38,-147.17 611.67,-107.8 616.02,-84.27"/>
<polygon fill="#63b8ff" stroke="#63b8ff" points="619.52,-84.63 617.9,-74.16 612.63,-83.35 619.52,-84.63"/>
</g>
<!-- Node16 -->
<g id="node16" class="node">
<title>Node16</title>
<g id="a_node16"><a xlink:href="deckPlayer_8h.html" target="_top" xlink:title=" ">
<polygon fill="white" stroke="#666666" points="560,-129 455,-129 455,-110 560,-110 560,-129"/>
<text text-anchor="middle" x="507.5" y="-117" font-family="Helvetica,sans-Serif" font-size="10.00">deck/deckPlayer.h</text>
</a>
</g>
</g>
<!-- Node14&#45;&gt;Node16 -->
<g id="edge22" class="edge">
<title>Node14&#45;&gt;Node16</title>
<path fill="none" stroke="#63b8ff" d="M584.72,-164.98C570.32,-156.69 548.19,-143.94 531.31,-134.22"/>
<polygon fill="#63b8ff" stroke="#63b8ff" points="532.96,-131.13 522.55,-129.17 529.47,-137.19 532.96,-131.13"/>
</g>
<!-- Node15&#45;&gt;Node6 -->
<g id="edge21" class="edge">
<title>Node15&#45;&gt;Node6</title>
<path fill="none" stroke="#63b8ff" d="M619.5,-54.75C619.5,-47.8 619.5,-37.85 619.5,-29.13"/>
<polygon fill="#63b8ff" stroke="#63b8ff" points="623,-29.09 619.5,-19.09 616,-29.09 623,-29.09"/>
</g>
<!-- Node16&#45;&gt;Node5 -->
<g id="edge25" class="edge">
<title>Node16&#45;&gt;Node5</title>
<path fill="none" stroke="#63b8ff" d="M480.99,-109.98C453.29,-101.09 409.64,-87.07 378.76,-77.15"/>
<polygon fill="#63b8ff" stroke="#63b8ff" points="379.81,-73.81 369.22,-74.08 377.67,-80.47 379.81,-73.81"/>
</g>
<!-- Node16&#45;&gt;Node6 -->
<g id="edge26" class="edge">
<title>Node16&#45;&gt;Node6</title>
<path fill="none" stroke="#63b8ff" d="M498.88,-109.59C487.42,-96.64 469.96,-72.25 482.5,-55 506.27,-22.28 554.68,-13.14 587.11,-10.85"/>
<polygon fill="#63b8ff" stroke="#63b8ff" points="587.64,-14.33 597.44,-10.31 587.27,-7.34 587.64,-14.33"/>
</g>
<!-- Node16&#45;&gt;Node7 -->
<g id="edge29" class="edge">
<title>Node16&#45;&gt;Node7</title>
<path fill="none" stroke="#63b8ff" d="M463.48,-109.98C408.68,-99.39 316.31,-81.52 266.95,-71.97"/>
<polygon fill="#63b8ff" stroke="#63b8ff" points="267.59,-68.53 257.11,-70.07 266.26,-75.4 267.59,-68.53"/>
</g>
<!-- Node16&#45;&gt;Node13 -->
<g id="edge27" class="edge">
<title>Node16&#45;&gt;Node13</title>
<path fill="none" stroke="#63b8ff" d="M548.47,-109.98C594.21,-100.48 668.08,-85.12 715.97,-75.17"/>
<polygon fill="#63b8ff" stroke="#63b8ff" points="716.69,-78.6 725.77,-73.13 715.27,-71.74 716.69,-78.6"/>
</g>
<!-- Node16&#45;&gt;Node15 -->
<g id="edge23" class="edge">
<title>Node16&#45;&gt;Node15</title>
<path fill="none" stroke="#63b8ff" d="M525.49,-109.98C543.43,-101.5 571.22,-88.35 591.93,-78.54"/>
<polygon fill="#63b8ff" stroke="#63b8ff" points="593.64,-81.61 601.18,-74.17 590.64,-75.28 593.64,-81.61"/>
</g>
<!-- Node17 -->
<g id="node17" class="node">
<title>Node17</title>
<g id="a_node17"><a xlink:title=" ">
<polygon fill="#e0e0e0" stroke="#999999" points="551.5,-74 491.5,-74 491.5,-55 551.5,-55 551.5,-74"/>
<text text-anchor="middle" x="521.5" y="-62" font-family="Helvetica,sans-Serif" font-size="10.00">iostream</text>
</a>
</g>
</g>
<!-- Node16&#45;&gt;Node17 -->
<g id="edge24" class="edge">
<title>Node16&#45;&gt;Node17</title>
<path fill="none" stroke="#63b8ff" d="M509.81,-109.75C511.67,-102.72 514.34,-92.62 516.65,-83.84"/>
<polygon fill="#63b8ff" stroke="#63b8ff" points="520.06,-84.65 519.23,-74.09 513.29,-82.86 520.06,-84.65"/>
</g>
<!-- Node18 -->
<g id="node18" class="node">
<title>Node18</title>
<g id="a_node18"><a xlink:title=" ">
<polygon fill="#e0e0e0" stroke="#999999" points="435,-74 390,-74 390,-55 435,-55 435,-74"/>
<text text-anchor="middle" x="412.5" y="-62" font-family="Helvetica,sans-Serif" font-size="10.00">utility</text>
</a>
</g>
</g>
<!-- Node16&#45;&gt;Node18 -->
<g id="edge28" class="edge">
<title>Node16&#45;&gt;Node18</title>
<path fill="none" stroke="#63b8ff" d="M492.24,-109.98C477.37,-101.69 454.52,-88.94 437.08,-79.22"/>
<polygon fill="#63b8ff" stroke="#63b8ff" points="438.48,-75.99 428.04,-74.17 435.07,-82.1 438.48,-75.99"/>
</g>
<!-- Node19&#45;&gt;Node13 -->
<g id="edge38" class="edge">
<title>Node19&#45;&gt;Node13</title>
<path fill="none" stroke="#63b8ff" d="M850.64,-164.66C834.53,-146.54 797.53,-104.91 776.96,-81.77"/>
<polygon fill="#63b8ff" stroke="#63b8ff" points="779.46,-79.31 770.2,-74.16 774.22,-83.96 779.46,-79.31"/>
</g>
<!-- Node20 -->
<g id="node20" class="node">
<title>Node20</title>
<g id="a_node20"><a xlink:href="ICardFactory_8h.html" target="_top" xlink:title=" ">
<polygon fill="white" stroke="#666666" points="937,-129 852,-129 852,-110 937,-110 937,-129"/>
<text text-anchor="middle" x="894.5" y="-117" font-family="Helvetica,sans-Serif" font-size="10.00">ICardFactory.h</text>
</a>
</g>
</g>
<!-- Node19&#45;&gt;Node20 -->
<g id="edge35" class="edge">
<title>Node19&#45;&gt;Node20</title>
<path fill="none" stroke="#63b8ff" d="M864.44,-164.75C869.48,-157.34 876.84,-146.5 883.01,-137.41"/>
<polygon fill="#63b8ff" stroke="#63b8ff" points="885.94,-139.33 888.67,-129.09 880.15,-135.39 885.94,-139.33"/>
</g>
<!-- Node21 -->
<g id="node21" class="node">
<title>Node21</title>
<g id="a_node21"><a xlink:title=" ">
<polygon fill="#e0e0e0" stroke="#999999" points="1048,-129 955,-129 955,-110 1048,-110 1048,-129"/>
<text text-anchor="middle" x="1001.5" y="-117" font-family="Helvetica,sans-Serif" font-size="10.00">unordered_map</text>
</a>
</g>
</g>
<!-- Node19&#45;&gt;Node21 -->
<g id="edge39" class="edge">
<title>Node19&#45;&gt;Node21</title>
<path fill="none" stroke="#63b8ff" d="M881.48,-164.98C905,-156.27 941.79,-142.63 968.44,-132.75"/>
<polygon fill="#63b8ff" stroke="#63b8ff" points="969.95,-135.93 978.11,-129.17 967.51,-129.36 969.95,-135.93"/>
</g>
<!-- Node20&#45;&gt;Node5 -->
<g id="edge36" class="edge">
<title>Node20&#45;&gt;Node5</title>
<path fill="none" stroke="#63b8ff" d="M851.72,-116.64C765.01,-112.48 562.24,-100.72 381.75,-73.81"/>
<polygon fill="#63b8ff" stroke="#63b8ff" points="382.22,-70.34 371.81,-72.31 381.18,-77.26 382.22,-70.34"/>
</g>
<!-- Node20&#45;&gt;Node6 -->
<g id="edge37" class="edge">
<title>Node20&#45;&gt;Node6</title>
<path fill="none" stroke="#63b8ff" d="M889.93,-109.92C882.03,-95.99 864.46,-68.65 841.5,-55 781.29,-19.19 697.33,-11.67 651.86,-10.41"/>
<polygon fill="#63b8ff" stroke="#63b8ff" points="651.76,-6.91 641.7,-10.22 651.63,-13.91 651.76,-6.91"/>
</g>
</g>
</svg>
        <g id="navigator" transform="translate(0 0)" fill="#404254">
                <rect fill="#f2f5e9" fill-opacity="0.5" stroke="#606060" stroke-width=".5" x="0" y="0" width="60" height="60"/>
                <use id="zoomplus" xlink:href="#zoomPlus" x="17" y="9" onmousedown="handleZoom(evt,'in')"/>
                <use id="zoomminus" xlink:href="#zoomMin" x="42" y="9" onmousedown="handleZoom(evt,'out')"/>
                <use id="reset" xlink:href="#resetDef" x="30" y="36" onmousedown="handleReset()"/>
                <g id="arrowUp" xlink:href="#dirArrow" transform="translate(30 24)" onmousedown="handlePan(0,-1)">
                  <use xlink:href="#rim" fill="#404040">
                        <set attributeName="fill" to="#808080" begin="arrowUp.mouseover" end="arrowUp.mouseout"/>
                  </use>
                  <path fill="none" stroke="white" stroke-width="1.5" d="M0,-3.0v7 M-2.5,-0.5L0,-3.0L2.5,-0.5"/>
                </g>
                <g id="arrowRight" xlink:href="#dirArrow" transform="rotate(90) translate(36 -43)" onmousedown="handlePan(1,0)">
                  <use xlink:href="#rim" fill="#404040">
                        <set attributeName="fill" to="#808080" begin="arrowRight.mouseover" end="arrowRight.mouseout"/>
                  </use>
                  <path fill="none" stroke="white" stroke-width="1.5" d="M0,-3.0v7 M-2.5,-0.5L0,-3.0L2.5,-0.5"/>
                </g>
                <g id="arrowDown" xlink:href="#dirArrow" transform="rotate(180) translate(-30 -48)" onmousedown="handlePan(0,1)">
                  <use xlink:href="#rim" fill="#404040">
                        <set attributeName="fill" to="#808080" begin="arrowDown.mouseover" end="arrowDown.mouseout"/>
                  </use>
                  <path fill="none" stroke="white" stroke-width="1.5" d="M0,-3.0v7 M-2.5,-0.5L0,-3.0L2.5,-0.5"/>
                </g>
                <g id="arrowLeft" xlink:href="#dirArrow" transform="rotate(270) translate(-36 17)" onmousedown="handlePan(-1,0)">
                  <use xlink:href="#rim" fill="#404040">
                        <set attributeName="fill" to="#808080" begin="arrowLeft.mouseover" end="arrowLeft.mouseout"/>
                  </use>
                  <path fill="none" stroke="white" stroke-width="1.5" d="M0,-3.0v7 M-2.5,-0.5L0,-3.0L2.5,-0.5"/>
                </g>
        </g>
        <svg viewBox="0 0 15 15" width="100%" height="30px" preserveAspectRatio="xMaxYMin meet">
         <g id="arrow_out" transform="scale(0.3 0.3)">
          <a xlink:href="cardmatch_8h__incl_org.svg" target="_base">
           <rect id="button" ry="5" rx="5" y="6" x="6" height="38" width="38"
                fill="#f2f5e9" fill-opacity="0.5" stroke="#606060" stroke-width="1.0"/>
           <path id="arrow"
             d="M 11.500037,31.436501 C 11.940474,20.09759 22.043105,11.32322 32.158766,21.979434 L 37.068811,17.246167 C 37.068811,17.246167 37.088388,32 37.088388,32 L 22.160133,31.978069 C 22.160133,31.978069 26.997745,27.140456 26.997745,27.140456 C 18.528582,18.264221 13.291696,25.230495 11.500037,31.436501 z"
             style="fill:#404040;"/>
          </a>
         </g>
        </svg>
</svg>
