<?xml version="1.0" encoding="UTF-8" standalone="no"?>
<!DOCTYPE svg PUBLIC "-//W3C//DTD SVG 1.1//EN"
 "http://www.w3.org/Graphics/SVG/1.1/DTD/svg11.dtd">
<!-- Generated by graphviz version 2.43.0 (0)
 -->
<!-- Title: factories/cardFactory.cpp Pages: 1 -->
<svg width="830pt" height="192pt"
 viewBox="0.00 0.00 830.00 192.00" xmlns="http://www.w3.org/2000/svg" xmlns:xlink="http://www.w3.org/1999/xlink">
<g id="graph0" class="graph" transform="scale(1 1) rotate(0) translate(4 188)">
<title>factories/cardFactory.cpp</title>
<!-- Node1 -->
<g id="node1" class="node">
<title>Node1</title>
<g id="a_node1"><a xlink:title=" ">
<polygon fill="#999999" stroke="#666666" points="518.5,-184 381.5,-184 381.5,-165 518.5,-165 518.5,-184"/>
<text text-anchor="middle" x="450" y="-172" font-family="Helvetica,sans-Serif" font-size="10.00">factories/cardFactory.cpp</text>
</a>
</g>
</g>
<!-- Node2 -->
<g id="node2" class="node">
<title>Node2</title>
<g id="a_node2"><a xlink:href="cardFactory_8h.html" target="_top" xlink:title=" ">
<polygon fill="white" stroke="#666666" points="330,-129 250,-129 250,-110 330,-110 330,-129"/>
<text text-anchor="middle" x="290" y="-117" font-family="Helvetica,sans-Serif" font-size="10.00">cardFactory.h</text>
</a>
</g>
</g>
<!-- Node1&#45;&gt;Node2 -->
<g id="edge1" class="edge">
<title>Node1&#45;&gt;Node2</title>
<path fill="none" stroke="#63b8ff" d="M424.29,-164.98C397.55,-156.13 355.47,-142.19 325.55,-132.28"/>
<polygon fill="#63b8ff" stroke="#63b8ff" points="326.5,-128.9 315.91,-129.08 324.3,-135.55 326.5,-128.9"/>
</g>
<!-- Node4 -->
<g id="node4" class="node">
<title>Node4</title>
<g id="a_node4"><a xlink:title=" ">
<polygon fill="#e0e0e0" stroke="#999999" points="58,-19 0,-19 0,0 58,0 58,-19"/>
<text text-anchor="middle" x="29" y="-7" font-family="Helvetica,sans-Serif" font-size="10.00">memory</text>
</a>
</g>
</g>
<!-- Node1&#45;&gt;Node4 -->
<g id="edge23" class="edge">
<title>Node1&#45;&gt;Node4</title>
<path fill="none" stroke="#63b8ff" d="M381.14,-170.36C272.62,-164.75 71.65,-151.45 48,-129 21.02,-103.38 22.43,-55.84 25.76,-29.43"/>
<polygon fill="#63b8ff" stroke="#63b8ff" points="29.27,-29.64 27.27,-19.23 22.34,-28.61 29.27,-29.64"/>
</g>
<!-- Node8 -->
<g id="node8" class="node">
<title>Node8</title>
<g id="a_node8"><a xlink:href="cardDefinition_8h.html" target="_top" xlink:title=" ">
<polygon fill="white" stroke="#666666" points="180.5,-129 57.5,-129 57.5,-110 180.5,-110 180.5,-129"/>
<text text-anchor="middle" x="119" y="-117" font-family="Helvetica,sans-Serif" font-size="10.00">cards/cardDefinition.h</text>
</a>
</g>
</g>
<!-- Node1&#45;&gt;Node8 -->
<g id="edge7" class="edge">
<title>Node1&#45;&gt;Node8</title>
<path fill="none" stroke="#63b8ff" d="M396.82,-164.98C338.39,-155.63 244.61,-140.61 182.41,-130.65"/>
<polygon fill="#63b8ff" stroke="#63b8ff" points="182.75,-127.16 172.32,-129.04 181.64,-134.08 182.75,-127.16"/>
</g>
<!-- Node10 -->
<g id="node10" class="node">
<title>Node10</title>
<g id="a_node10"><a xlink:href="cardInstance_8h.html" target="_top" xlink:title=" ">
<polygon fill="white" stroke="#666666" points="465.5,-129 348.5,-129 348.5,-110 465.5,-110 465.5,-129"/>
<text text-anchor="middle" x="407" y="-117" font-family="Helvetica,sans-Serif" font-size="10.00">cards/cardInstance.h</text>
</a>
</g>
</g>
<!-- Node1&#45;&gt;Node10 -->
<g id="edge12" class="edge">
<title>Node1&#45;&gt;Node10</title>
<path fill="none" stroke="#63b8ff" d="M442.9,-164.75C436.83,-157.26 427.91,-146.28 420.49,-137.13"/>
<polygon fill="#63b8ff" stroke="#63b8ff" points="422.99,-134.65 413.97,-129.09 417.55,-139.06 422.99,-134.65"/>
</g>
<!-- Node12 -->
<g id="node12" class="node">
<title>Node12</title>
<g id="a_node12"><a xlink:href="combatTarget_8h.html" target="_top" xlink:title=" ">
<polygon fill="white" stroke="#666666" points="744,-74 612,-74 612,-55 744,-55 744,-74"/>
<text text-anchor="middle" x="678" y="-62" font-family="Helvetica,sans-Serif" font-size="10.00">combat/combatTarget.h</text>
</a>
</g>
</g>
<!-- Node1&#45;&gt;Node12 -->
<g id="edge15" class="edge">
<title>Node1&#45;&gt;Node12</title>
<path fill="none" stroke="#63b8ff" d="M518.72,-168.41C575.8,-162.67 650.79,-151.09 671,-129 681.87,-117.12 682.66,-98.29 681.31,-84.21"/>
<polygon fill="#63b8ff" stroke="#63b8ff" points="684.76,-83.6 679.92,-74.17 677.82,-84.56 684.76,-83.6"/>
</g>
<!-- Node13 -->
<g id="node13" class="node">
<title>Node13</title>
<g id="a_node13"><a xlink:href="effect_8h.html" target="_top" xlink:title=" ">
<polygon fill="white" stroke="#666666" points="593.5,-74 504.5,-74 504.5,-55 593.5,-55 593.5,-74"/>
<text text-anchor="middle" x="549" y="-62" font-family="Helvetica,sans-Serif" font-size="10.00">effects/effect.h</text>
</a>
</g>
</g>
<!-- Node1&#45;&gt;Node13 -->
<g id="edge16" class="edge">
<title>Node1&#45;&gt;Node13</title>
<path fill="none" stroke="#63b8ff" d="M458.1,-164.66C474.72,-146.54 512.87,-104.91 534.09,-81.77"/>
<polygon fill="#63b8ff" stroke="#63b8ff" points="536.89,-83.89 541.06,-74.16 531.73,-79.16 536.89,-83.89"/>
</g>
<!-- Node14 -->
<g id="node14" class="node">
<title>Node14</title>
<g id="a_node14"><a xlink:href="gainArmorEffect_8h.html" target="_top" xlink:title=" ">
<polygon fill="white" stroke="#666666" points="662,-129 522,-129 522,-110 662,-110 662,-129"/>
<text text-anchor="middle" x="592" y="-117" font-family="Helvetica,sans-Serif" font-size="10.00">effects/gainArmorEffect.h</text>
</a>
</g>
</g>
<!-- Node1&#45;&gt;Node14 -->
<g id="edge18" class="edge">
<title>Node1&#45;&gt;Node14</title>
<path fill="none" stroke="#63b8ff" d="M472.81,-164.98C496.17,-156.27 532.7,-142.63 559.17,-132.75"/>
<polygon fill="#63b8ff" stroke="#63b8ff" points="560.63,-135.95 568.77,-129.17 558.18,-129.39 560.63,-135.95"/>
</g>
<!-- Node15 -->
<g id="node15" class="node">
<title>Node15</title>
<g id="a_node15"><a xlink:href="debug_8h.html" target="_top" xlink:title=" ">
<polygon fill="white" stroke="#666666" points="816,-129 742,-129 742,-110 816,-110 816,-129"/>
<text text-anchor="middle" x="779" y="-117" font-family="Helvetica,sans-Serif" font-size="10.00">util/debug.h</text>
</a>
</g>
</g>
<!-- Node1&#45;&gt;Node15 -->
<g id="edge21" class="edge">
<title>Node1&#45;&gt;Node15</title>
<path fill="none" stroke="#63b8ff" d="M502.86,-164.98C566.05,-154.81 670.85,-137.92 731.55,-128.14"/>
<polygon fill="#63b8ff" stroke="#63b8ff" points="732.3,-131.57 741.62,-126.52 731.19,-124.66 732.3,-131.57"/>
</g>
<!-- Node3 -->
<g id="node3" class="node">
<title>Node3</title>
<g id="a_node3"><a xlink:href="ICardFactory_8h.html" target="_top" xlink:title=" ">
<polygon fill="white" stroke="#666666" points="447.5,-74 362.5,-74 362.5,-55 447.5,-55 447.5,-74"/>
<text text-anchor="middle" x="405" y="-62" font-family="Helvetica,sans-Serif" font-size="10.00">ICardFactory.h</text>
</a>
</g>
</g>
<!-- Node2&#45;&gt;Node3 -->
<g id="edge2" class="edge">
<title>Node2&#45;&gt;Node3</title>
<path fill="none" stroke="#63b8ff" d="M308.48,-109.98C326.98,-101.46 355.68,-88.23 376.98,-78.41"/>
<polygon fill="#63b8ff" stroke="#63b8ff" points="378.57,-81.53 386.19,-74.17 375.64,-75.18 378.57,-81.53"/>
</g>
<!-- Node6 -->
<g id="node6" class="node">
<title>Node6</title>
<g id="a_node6"><a xlink:title=" ">
<polygon fill="#e0e0e0" stroke="#999999" points="344.5,-74 271.5,-74 271.5,-55 344.5,-55 344.5,-74"/>
<text text-anchor="middle" x="308" y="-62" font-family="Helvetica,sans-Serif" font-size="10.00">string_view</text>
</a>
</g>
</g>
<!-- Node2&#45;&gt;Node6 -->
<g id="edge5" class="edge">
<title>Node2&#45;&gt;Node6</title>
<path fill="none" stroke="#63b8ff" d="M292.97,-109.75C295.36,-102.72 298.79,-92.62 301.77,-83.84"/>
<polygon fill="#63b8ff" stroke="#63b8ff" points="305.18,-84.68 305.08,-74.09 298.55,-82.43 305.18,-84.68"/>
</g>
<!-- Node7 -->
<g id="node7" class="node">
<title>Node7</title>
<g id="a_node7"><a xlink:title=" ">
<polygon fill="#e0e0e0" stroke="#999999" points="253.5,-74 160.5,-74 160.5,-55 253.5,-55 253.5,-74"/>
<text text-anchor="middle" x="207" y="-62" font-family="Helvetica,sans-Serif" font-size="10.00">unordered_map</text>
</a>
</g>
</g>
<!-- Node2&#45;&gt;Node7 -->
<g id="edge6" class="edge">
<title>Node2&#45;&gt;Node7</title>
<path fill="none" stroke="#63b8ff" d="M276.66,-109.98C263.91,-101.84 244.45,-89.41 229.33,-79.76"/>
<polygon fill="#63b8ff" stroke="#63b8ff" points="230.89,-76.6 220.58,-74.17 227.12,-82.5 230.89,-76.6"/>
</g>
<!-- Node3&#45;&gt;Node4 -->
<g id="edge3" class="edge">
<title>Node3&#45;&gt;Node4</title>
<path fill="none" stroke="#63b8ff" d="M362.45,-56.45C359.25,-55.95 356.08,-55.46 353,-55 250.3,-39.56 128.95,-23.46 68.03,-15.53"/>
<polygon fill="#63b8ff" stroke="#63b8ff" points="68.45,-12.06 58.08,-14.24 67.54,-19 68.45,-12.06"/>
</g>
<!-- Node5 -->
<g id="node5" class="node">
<title>Node5</title>
<g id="a_node5"><a xlink:title=" ">
<polygon fill="#e0e0e0" stroke="#999999" points="294,-19 250,-19 250,0 294,0 294,-19"/>
<text text-anchor="middle" x="272" y="-7" font-family="Helvetica,sans-Serif" font-size="10.00">string</text>
</a>
</g>
</g>
<!-- Node3&#45;&gt;Node5 -->
<g id="edge4" class="edge">
<title>Node3&#45;&gt;Node5</title>
<path fill="none" stroke="#63b8ff" d="M383.63,-54.98C361.85,-46.3 327.84,-32.75 303.08,-22.88"/>
<polygon fill="#63b8ff" stroke="#63b8ff" points="304.34,-19.62 293.76,-19.17 301.75,-26.12 304.34,-19.62"/>
</g>
<!-- Node8&#45;&gt;Node4 -->
<g id="edge8" class="edge">
<title>Node8&#45;&gt;Node4</title>
<path fill="none" stroke="#63b8ff" d="M100.45,-109.99C85.77,-102.41 65.69,-90.04 53,-74 42.6,-60.86 36.35,-42.73 32.85,-29.2"/>
<polygon fill="#63b8ff" stroke="#63b8ff" points="36.18,-28.09 30.52,-19.13 29.36,-29.67 36.18,-28.09"/>
</g>
<!-- Node8&#45;&gt;Node5 -->
<g id="edge9" class="edge">
<title>Node8&#45;&gt;Node5</title>
<path fill="none" stroke="#63b8ff" d="M108.34,-109.68C94.09,-96.82 72.15,-72.56 86,-55 104.79,-31.19 191.48,-18.7 239.59,-13.5"/>
<polygon fill="#63b8ff" stroke="#63b8ff" points="240.22,-16.95 249.8,-12.44 239.49,-9.99 240.22,-16.95"/>
</g>
<!-- Node8&#45;&gt;Node6 -->
<g id="edge10" class="edge">
<title>Node8&#45;&gt;Node6</title>
<path fill="none" stroke="#63b8ff" d="M149.37,-109.98C181.37,-101.01 231.96,-86.82 267.38,-76.89"/>
<polygon fill="#63b8ff" stroke="#63b8ff" points="268.71,-80.15 277.4,-74.08 266.82,-73.41 268.71,-80.15"/>
</g>
<!-- Node9 -->
<g id="node9" class="node">
<title>Node9</title>
<g id="a_node9"><a xlink:title=" ">
<polygon fill="#e0e0e0" stroke="#999999" points="142.5,-74 95.5,-74 95.5,-55 142.5,-55 142.5,-74"/>
<text text-anchor="middle" x="119" y="-62" font-family="Helvetica,sans-Serif" font-size="10.00">vector</text>
</a>
</g>
</g>
<!-- Node8&#45;&gt;Node9 -->
<g id="edge11" class="edge">
<title>Node8&#45;&gt;Node9</title>
<path fill="none" stroke="#63b8ff" d="M119,-109.75C119,-102.8 119,-92.85 119,-84.13"/>
<polygon fill="#63b8ff" stroke="#63b8ff" points="122.5,-84.09 119,-74.09 115.5,-84.09 122.5,-84.09"/>
</g>
<!-- Node10&#45;&gt;Node6 -->
<g id="edge14" class="edge">
<title>Node10&#45;&gt;Node6</title>
<path fill="none" stroke="#63b8ff" d="M391.09,-109.98C375.45,-101.61 351.34,-88.7 333.12,-78.95"/>
<polygon fill="#63b8ff" stroke="#63b8ff" points="334.66,-75.8 324.2,-74.17 331.36,-81.98 334.66,-75.8"/>
</g>
<!-- Node11 -->
<g id="node11" class="node">
<title>Node11</title>
<g id="a_node11"><a xlink:href="effectParams_8h.html" target="_top" xlink:title=" ">
<polygon fill="white" stroke="#666666" points="574.5,-19 449.5,-19 449.5,0 574.5,0 574.5,-19"/>
<text text-anchor="middle" x="512" y="-7" font-family="Helvetica,sans-Serif" font-size="10.00">effects/effectParams.h</text>
</a>
</g>
</g>
<!-- Node10&#45;&gt;Node11 -->
<g id="edge13" class="edge">
<title>Node10&#45;&gt;Node11</title>
<path fill="none" stroke="#63b8ff" d="M417.06,-109.94C427.18,-101.2 443.09,-87.1 456,-74 471.07,-58.71 487.16,-40.21 498.21,-27.13"/>
<polygon fill="#63b8ff" stroke="#63b8ff" points="500.95,-29.32 504.69,-19.4 495.58,-24.82 500.95,-29.32"/>
</g>
<!-- Node13&#45;&gt;Node11 -->
<g id="edge17" class="edge">
<title>Node13&#45;&gt;Node11</title>
<path fill="none" stroke="#63b8ff" d="M542.89,-54.75C537.72,-47.34 530.15,-36.5 523.81,-27.41"/>
<polygon fill="#63b8ff" stroke="#63b8ff" points="526.59,-25.29 518,-19.09 520.85,-29.29 526.59,-25.29"/>
</g>
<!-- Node14&#45;&gt;Node12 -->
<g id="edge19" class="edge">
<title>Node14&#45;&gt;Node12</title>
<path fill="none" stroke="#63b8ff" d="M605.82,-109.98C619.15,-101.77 639.58,-89.18 655.31,-79.49"/>
<polygon fill="#63b8ff" stroke="#63b8ff" points="657.25,-82.4 663.93,-74.17 653.58,-76.44 657.25,-82.4"/>
</g>
<!-- Node14&#45;&gt;Node13 -->
<g id="edge20" class="edge">
<title>Node14&#45;&gt;Node13</title>
<path fill="none" stroke="#63b8ff" d="M584.9,-109.75C578.83,-102.26 569.91,-91.28 562.49,-82.13"/>
<polygon fill="#63b8ff" stroke="#63b8ff" points="564.99,-79.65 555.97,-74.09 559.55,-84.06 564.99,-79.65"/>
</g>
<!-- Node16 -->
<g id="node16" class="node">
<title>Node16</title>
<g id="a_node16"><a xlink:title=" ">
<polygon fill="#e0e0e0" stroke="#999999" points="822,-74 762,-74 762,-55 822,-55 822,-74"/>
<text text-anchor="middle" x="792" y="-62" font-family="Helvetica,sans-Serif" font-size="10.00">iostream</text>
</a>
</g>
</g>
<!-- Node15&#45;&gt;Node16 -->
<g id="edge22" class="edge">
<title>Node15&#45;&gt;Node16</title>
<path fill="none" stroke="#63b8ff" d="M781.15,-109.75C782.87,-102.72 785.35,-92.62 787.5,-83.84"/>
<polygon fill="#63b8ff" stroke="#63b8ff" points="790.91,-84.63 789.89,-74.09 784.11,-82.97 790.91,-84.63"/>
</g>
</g>
</svg>
