<?xml version="1.0" encoding="UTF-8" standalone="no"?>
<!DOCTYPE svg PUBLIC "-//W3C//DTD SVG 1.1//EN"
 "http://www.w3.org/Graphics/SVG/1.1/DTD/svg11.dtd">
<!-- Generated by graphviz version 2.43.0 (0)
 -->
<!-- Title: Enemy Pages: 1 -->
<svg width="379pt" height="408pt"
 viewBox="0.00 0.00 378.79 408.00" xmlns="http://www.w3.org/2000/svg" xmlns:xlink="http://www.w3.org/1999/xlink">
<g id="graph0" class="graph" transform="scale(1 1) rotate(0) translate(4 404)">
<title>Enemy</title>
<!-- Node1 -->
<g id="node1" class="node">
<title>Node1</title>
<g id="a_node1"><a xlink:title=" ">
<polygon fill="#999999" stroke="#666666" points="126.29,-0.5 126.29,-68.5 210.29,-68.5 210.29,-0.5 126.29,-0.5"/>
<text text-anchor="middle" x="168.29" y="-56.5" font-family="Helvetica,sans-Serif" font-size="10.00">Enemy</text>
<polyline fill="none" stroke="#666666" points="126.29,-49.5 210.29,-49.5 "/>
<text text-anchor="middle" x="168.29" y="-37.5" font-family="Helvetica,sans-Serif" font-size="10.00"> </text>
<polyline fill="none" stroke="#666666" points="126.29,-30.5 210.29,-30.5 "/>
<text text-anchor="start" x="134.29" y="-18.5" font-family="Helvetica,sans-Serif" font-size="10.00">+ nextMove()</text>
<text text-anchor="start" x="134.29" y="-7.5" font-family="Helvetica,sans-Serif" font-size="10.00"># Enemy()</text>
</a>
</g>
</g>
<!-- Node2 -->
<g id="node2" class="node">
<title>Node2</title>
<g id="a_node2"><a xlink:href="classEntity.html" target="_top" xlink:title=" ">
<polygon fill="white" stroke="#666666" points="114.79,-116.5 114.79,-272.5 221.79,-272.5 221.79,-116.5 114.79,-116.5"/>
<text text-anchor="middle" x="168.29" y="-260.5" font-family="Helvetica,sans-Serif" font-size="10.00">Entity</text>
<polyline fill="none" stroke="#666666" points="114.79,-253.5 221.79,-253.5 "/>
<text text-anchor="middle" x="168.29" y="-241.5" font-family="Helvetica,sans-Serif" font-size="10.00"> </text>
<polyline fill="none" stroke="#666666" points="114.79,-234.5 221.79,-234.5 "/>
<text text-anchor="start" x="122.79" y="-222.5" font-family="Helvetica,sans-Serif" font-size="10.00">+ Entity()</text>
<text text-anchor="start" x="122.79" y="-211.5" font-family="Helvetica,sans-Serif" font-size="10.00">+ Entity()</text>
<text text-anchor="start" x="122.79" y="-200.5" font-family="Helvetica,sans-Serif" font-size="10.00">+ getName()</text>
<text text-anchor="start" x="122.79" y="-189.5" font-family="Helvetica,sans-Serif" font-size="10.00">+ getArmor()</text>
<text text-anchor="start" x="122.79" y="-178.5" font-family="Helvetica,sans-Serif" font-size="10.00">+ resetArmor()</text>
<text text-anchor="start" x="122.79" y="-167.5" font-family="Helvetica,sans-Serif" font-size="10.00">+ increaseArmor()</text>
<text text-anchor="start" x="122.79" y="-156.5" font-family="Helvetica,sans-Serif" font-size="10.00">+ lowerArmor()</text>
<text text-anchor="start" x="122.79" y="-145.5" font-family="Helvetica,sans-Serif" font-size="10.00">+ getHp()</text>
<text text-anchor="start" x="122.79" y="-134.5" font-family="Helvetica,sans-Serif" font-size="10.00">+ lowerHp()</text>
<text text-anchor="start" x="122.79" y="-123.5" font-family="Helvetica,sans-Serif" font-size="10.00">+ increaseHp()</text>
</a>
</g>
</g>
<!-- Node2&#45;&gt;Node1 -->
<g id="edge1" class="edge">
<title>Node2&#45;&gt;Node1</title>
<path fill="none" stroke="#63b8ff" d="M168.29,-106.15C168.29,-92.85 168.29,-79.88 168.29,-68.75"/>
<polygon fill="none" stroke="#63b8ff" points="164.79,-106.35 168.29,-116.35 171.79,-106.35 164.79,-106.35"/>
</g>
<!-- Node3 -->
<g id="node3" class="node">
<title>Node3</title>
<g id="a_node3"><a xlink:title=" ">
<polygon fill="white" stroke="#666666" points="18.79,-342.5 18.79,-399.5 47.79,-399.5 47.79,-342.5 18.79,-342.5"/>
<text text-anchor="middle" x="33.29" y="-387.5" font-family="Helvetica,sans-Serif" font-size="10.00">int</text>
<polyline fill="none" stroke="#666666" points="18.79,-380.5 47.79,-380.5 "/>
<text text-anchor="middle" x="33.29" y="-368.5" font-family="Helvetica,sans-Serif" font-size="10.00"> </text>
<polyline fill="none" stroke="#666666" points="18.79,-361.5 47.79,-361.5 "/>
<text text-anchor="middle" x="33.29" y="-349.5" font-family="Helvetica,sans-Serif" font-size="10.00"> </text>
</a>
</g>
</g>
<!-- Node3&#45;&gt;Node1 -->
<g id="edge5" class="edge">
<title>Node3&#45;&gt;Node1</title>
<path fill="none" stroke="#404040" d="M23.16,-342.47C6.87,-293.17 -19.24,-188.26 23.29,-116 42.93,-82.63 81.95,-62.1 114.57,-50.14"/>
<polygon fill="none" stroke="#404040" points="114.91,-50.02 119.27,-44.28 126.25,-46.11 121.88,-51.85 114.91,-50.02"/>
<text text-anchor="middle" x="64.29" y="-192" font-family="Helvetica,sans-Serif" font-size="10.00"> #m_moveIndex</text>
</g>
<!-- Node3&#45;&gt;Node2 -->
<g id="edge2" class="edge">
<title>Node3&#45;&gt;Node2</title>
<path fill="none" stroke="#404040" d="M47.99,-350.99C62.36,-332.42 85.21,-302.89 107.16,-274.52"/>
<polygon fill="none" stroke="#404040" points="107.21,-274.45 107.71,-267.26 114.55,-264.96 114.04,-272.16 107.21,-274.45"/>
<text text-anchor="middle" x="121.29" y="-316" font-family="Helvetica,sans-Serif" font-size="10.00"> #m_armor</text>
<text text-anchor="middle" x="121.29" y="-305" font-family="Helvetica,sans-Serif" font-size="10.00">#m_attack</text>
<text text-anchor="middle" x="121.29" y="-294" font-family="Helvetica,sans-Serif" font-size="10.00">#m_hp</text>
</g>
<!-- Node4 -->
<g id="node4" class="node">
<title>Node4</title>
<g id="a_node4"><a xlink:title=" ">
<polygon fill="white" stroke="#666666" points="146.29,-342.5 146.29,-399.5 190.29,-399.5 190.29,-342.5 146.29,-342.5"/>
<text text-anchor="middle" x="168.29" y="-387.5" font-family="Helvetica,sans-Serif" font-size="10.00">string</text>
<polyline fill="none" stroke="#666666" points="146.29,-380.5 190.29,-380.5 "/>
<text text-anchor="middle" x="168.29" y="-368.5" font-family="Helvetica,sans-Serif" font-size="10.00"> </text>
<polyline fill="none" stroke="#666666" points="146.29,-361.5 190.29,-361.5 "/>
<text text-anchor="middle" x="168.29" y="-349.5" font-family="Helvetica,sans-Serif" font-size="10.00"> </text>
</a>
</g>
</g>
<!-- Node4&#45;&gt;Node2 -->
<g id="edge3" class="edge">
<title>Node4&#45;&gt;Node2</title>
<path fill="none" stroke="#404040" d="M168.29,-342.35C168.29,-326.6 168.29,-305.9 168.29,-285.02"/>
<polygon fill="none" stroke="#404040" points="168.29,-284.74 164.29,-278.74 168.29,-272.74 172.29,-278.74 168.29,-284.74"/>
<text text-anchor="middle" x="195.79" y="-305" font-family="Helvetica,sans-Serif" font-size="10.00"> #m_name</text>
</g>
<!-- Node5 -->
<g id="node5" class="node">
<title>Node5</title>
<g id="a_node5"><a xlink:title=" ">
<polygon fill="white" stroke="#666666" points="239.79,-166 239.79,-223 370.79,-223 370.79,-166 239.79,-166"/>
<text text-anchor="middle" x="305.29" y="-211" font-family="Helvetica,sans-Serif" font-size="10.00">vector&lt; EnemyMove &gt;</text>
<polyline fill="none" stroke="#666666" points="239.79,-204 370.79,-204 "/>
<text text-anchor="middle" x="305.29" y="-192" font-family="Helvetica,sans-Serif" font-size="10.00"> </text>
<polyline fill="none" stroke="#666666" points="239.79,-185 370.79,-185 "/>
<text text-anchor="middle" x="305.29" y="-173" font-family="Helvetica,sans-Serif" font-size="10.00"> </text>
</a>
</g>
</g>
<!-- Node5&#45;&gt;Node1 -->
<g id="edge4" class="edge">
<title>Node5&#45;&gt;Node1</title>
<path fill="none" stroke="#404040" d="M281.43,-165.98C260.35,-141.67 229.29,-105.85 205.04,-77.88"/>
<polygon fill="none" stroke="#404040" points="204.96,-77.8 198.01,-75.88 197.1,-68.73 204.06,-70.64 204.96,-77.8"/>
<text text-anchor="middle" x="251.29" y="-90" font-family="Helvetica,sans-Serif" font-size="10.00"> #m_moves</text>
</g>
</g>
</svg>
