<?xml version="1.0" encoding="UTF-8" standalone="no"?>
<!DOCTYPE svg PUBLIC "-//W3C//DTD SVG 1.1//EN"
 "http://www.w3.org/Graphics/SVG/1.1/DTD/svg11.dtd">
<!-- Generated by graphviz version 2.43.0 (0)
 -->
<!-- Title: WolfPack Pages: 1 -->
<!--zoomable 503 -->
<svg id="main" version="1.1" xmlns="http://www.w3.org/2000/svg" xmlns:xlink="http://www.w3.org/1999/xlink" xml:space="preserve" onload="init(evt)">
<style type="text/css"><![CDATA[
.edge:hover path { stroke: red; }
.edge:hover polygon { stroke: red; fill: red; }
]]></style>
<script type="text/javascript"><![CDATA[
var edges = document.getElementsByTagName('g');
if (edges && edges.length) {
  for (var i=0;i<edges.length;i++) {
    if (edges[i].id.substr(0,4)=='edge') {
      edges[i].setAttribute('class','edge');
    }
  }
}
]]></script>
        <defs>
                <circle id="rim" cx="0" cy="0" r="7"/>
                <circle id="rim2" cx="0" cy="0" r="3.5"/>
                <g id="zoomPlus">
                        <use xlink:href="#rim" fill="#404040">
                                <set attributeName="fill" to="#808080" begin="zoomplus.mouseover" end="zoomplus.mouseout"/>
                        </use>
                        <path d="M-4,0h8M0,-4v8" fill="none" stroke="white" stroke-width="1.5" pointer-events="none"/>
                </g>
                <g id="zoomMin">
                        <use xlink:href="#rim" fill="#404040">
                                <set attributeName="fill" to="#808080" begin="zoomminus.mouseover" end="zoomminus.mouseout"/>
                        </use>
                        <path d="M-4,0h8" fill="none" stroke="white" stroke-width="1.5" pointer-events="none"/>
                </g>
                <g id="dirArrow">
                        <path fill="none" stroke="white" stroke-width="1.5" d="M0,-3.0v7 M-2.5,-0.5L0,-3.0L2.5,-0.5"/>
                </g>
               <g id="resetDef">
                       <use xlink:href="#rim2" fill="#404040">
                               <set attributeName="fill" to="#808080" begin="reset.mouseover" end="reset.mouseout"/>
                       </use>
               </g>
        </defs>

<script type="text/javascript">
var viewWidth = 379;
var viewHeight = 503;
var sectionId = 'dynsection-1';
</script>
<script xlink:href="svgpan.js"/>
<svg id="graph" class="graph">
<g id="viewport">
<title>WolfPack</title>
<!-- Node1 -->
<g id="node1" class="node">
<title>Node1</title>
<g id="a_node1"><a xlink:title=" ">
<polygon fill="#999999" stroke="#666666" points="128.29,-0.5 128.29,-57.5 208.29,-57.5 208.29,-0.5 128.29,-0.5"/>
<text text-anchor="middle" x="168.29" y="-45.5" font-family="Helvetica,sans-Serif" font-size="10.00">WolfPack</text>
<polyline fill="none" stroke="#666666" points="128.29,-38.5 208.29,-38.5 "/>
<text text-anchor="middle" x="168.29" y="-26.5" font-family="Helvetica,sans-Serif" font-size="10.00"> </text>
<polyline fill="none" stroke="#666666" points="128.29,-19.5 208.29,-19.5 "/>
<text text-anchor="start" x="136.29" y="-7.5" font-family="Helvetica,sans-Serif" font-size="10.00">+ WolfPack()</text>
</a>
</g>
</g>
<!-- Node2 -->
<g id="node2" class="node">
<title>Node2</title>
<g id="a_node2"><a xlink:href="classEnemy.html" target="_top" xlink:title=" ">
<polygon fill="white" stroke="#666666" points="126.29,-95.5 126.29,-163.5 210.29,-163.5 210.29,-95.5 126.29,-95.5"/>
<text text-anchor="middle" x="168.29" y="-151.5" font-family="Helvetica,sans-Serif" font-size="10.00">Enemy</text>
<polyline fill="none" stroke="#666666" points="126.29,-144.5 210.29,-144.5 "/>
<text text-anchor="middle" x="168.29" y="-132.5" font-family="Helvetica,sans-Serif" font-size="10.00"> </text>
<polyline fill="none" stroke="#666666" points="126.29,-125.5 210.29,-125.5 "/>
<text text-anchor="start" x="134.29" y="-113.5" font-family="Helvetica,sans-Serif" font-size="10.00">+ nextMove()</text>
<text text-anchor="start" x="134.29" y="-102.5" font-family="Helvetica,sans-Serif" font-size="10.00"># Enemy()</text>
</a>
</g>
</g>
<!-- Node2&#45;&gt;Node1 -->
<g id="edge1" class="edge">
<title>Node2&#45;&gt;Node1</title>
<path fill="none" stroke="#63b8ff" d="M168.29,-85.38C168.29,-75.94 168.29,-66.2 168.29,-57.57"/>
<polygon fill="none" stroke="#63b8ff" points="164.79,-85.43 168.29,-95.43 171.79,-85.43 164.79,-85.43"/>
</g>
<!-- Node3 -->
<g id="node3" class="node">
<title>Node3</title>
<g id="a_node3"><a xlink:href="classEntity.html" target="_top" xlink:title=" ">
<polygon fill="white" stroke="#666666" points="114.79,-211.5 114.79,-367.5 221.79,-367.5 221.79,-211.5 114.79,-211.5"/>
<text text-anchor="middle" x="168.29" y="-355.5" font-family="Helvetica,sans-Serif" font-size="10.00">Entity</text>
<polyline fill="none" stroke="#666666" points="114.79,-348.5 221.79,-348.5 "/>
<text text-anchor="middle" x="168.29" y="-336.5" font-family="Helvetica,sans-Serif" font-size="10.00"> </text>
<polyline fill="none" stroke="#666666" points="114.79,-329.5 221.79,-329.5 "/>
<text text-anchor="start" x="122.79" y="-317.5" font-family="Helvetica,sans-Serif" font-size="10.00">+ Entity()</text>
<text text-anchor="start" x="122.79" y="-306.5" font-family="Helvetica,sans-Serif" font-size="10.00">+ Entity()</text>
<text text-anchor="start" x="122.79" y="-295.5" font-family="Helvetica,sans-Serif" font-size="10.00">+ getName()</text>
<text text-anchor="start" x="122.79" y="-284.5" font-family="Helvetica,sans-Serif" font-size="10.00">+ getArmor()</text>
<text text-anchor="start" x="122.79" y="-273.5" font-family="Helvetica,sans-Serif" font-size="10.00">+ resetArmor()</text>
<text text-anchor="start" x="122.79" y="-262.5" font-family="Helvetica,sans-Serif" font-size="10.00">+ increaseArmor()</text>
<text text-anchor="start" x="122.79" y="-251.5" font-family="Helvetica,sans-Serif" font-size="10.00">+ lowerArmor()</text>
<text text-anchor="start" x="122.79" y="-240.5" font-family="Helvetica,sans-Serif" font-size="10.00">+ getHp()</text>
<text text-anchor="start" x="122.79" y="-229.5" font-family="Helvetica,sans-Serif" font-size="10.00">+ lowerHp()</text>
<text text-anchor="start" x="122.79" y="-218.5" font-family="Helvetica,sans-Serif" font-size="10.00">+ increaseHp()</text>
</a>
</g>
</g>
<!-- Node3&#45;&gt;Node2 -->
<g id="edge2" class="edge">
<title>Node3&#45;&gt;Node2</title>
<path fill="none" stroke="#63b8ff" d="M168.29,-201.15C168.29,-187.85 168.29,-174.88 168.29,-163.75"/>
<polygon fill="none" stroke="#63b8ff" points="164.79,-201.35 168.29,-211.35 171.79,-201.35 164.79,-201.35"/>
</g>
<!-- Node4 -->
<g id="node4" class="node">
<title>Node4</title>
<g id="a_node4"><a xlink:title=" ">
<polygon fill="white" stroke="#666666" points="18.79,-437.5 18.79,-494.5 47.79,-494.5 47.79,-437.5 18.79,-437.5"/>
<text text-anchor="middle" x="33.29" y="-482.5" font-family="Helvetica,sans-Serif" font-size="10.00">int</text>
<polyline fill="none" stroke="#666666" points="18.79,-475.5 47.79,-475.5 "/>
<text text-anchor="middle" x="33.29" y="-463.5" font-family="Helvetica,sans-Serif" font-size="10.00"> </text>
<polyline fill="none" stroke="#666666" points="18.79,-456.5 47.79,-456.5 "/>
<text text-anchor="middle" x="33.29" y="-444.5" font-family="Helvetica,sans-Serif" font-size="10.00"> </text>
</a>
</g>
</g>
<!-- Node4&#45;&gt;Node2 -->
<g id="edge6" class="edge">
<title>Node4&#45;&gt;Node2</title>
<path fill="none" stroke="#404040" d="M23.16,-437.47C6.87,-388.17 -19.24,-283.26 23.29,-211 42.93,-177.63 81.95,-157.1 114.57,-145.14"/>
<polygon fill="none" stroke="#404040" points="114.91,-145.02 119.27,-139.28 126.25,-141.11 121.88,-146.85 114.91,-145.02"/>
<text text-anchor="middle" x="64.29" y="-287" font-family="Helvetica,sans-Serif" font-size="10.00"> #m_moveIndex</text>
</g>
<!-- Node4&#45;&gt;Node3 -->
<g id="edge3" class="edge">
<title>Node4&#45;&gt;Node3</title>
<path fill="none" stroke="#404040" d="M47.99,-445.99C62.36,-427.42 85.21,-397.89 107.16,-369.52"/>
<polygon fill="none" stroke="#404040" points="107.21,-369.45 107.71,-362.26 114.55,-359.96 114.04,-367.16 107.21,-369.45"/>
<text text-anchor="middle" x="121.29" y="-411" font-family="Helvetica,sans-Serif" font-size="10.00"> #m_armor</text>
<text text-anchor="middle" x="121.29" y="-400" font-family="Helvetica,sans-Serif" font-size="10.00">#m_attack</text>
<text text-anchor="middle" x="121.29" y="-389" font-family="Helvetica,sans-Serif" font-size="10.00">#m_hp</text>
</g>
<!-- Node5 -->
<g id="node5" class="node">
<title>Node5</title>
<g id="a_node5"><a xlink:title=" ">
<polygon fill="white" stroke="#666666" points="146.29,-437.5 146.29,-494.5 190.29,-494.5 190.29,-437.5 146.29,-437.5"/>
<text text-anchor="middle" x="168.29" y="-482.5" font-family="Helvetica,sans-Serif" font-size="10.00">string</text>
<polyline fill="none" stroke="#666666" points="146.29,-475.5 190.29,-475.5 "/>
<text text-anchor="middle" x="168.29" y="-463.5" font-family="Helvetica,sans-Serif" font-size="10.00"> </text>
<polyline fill="none" stroke="#666666" points="146.29,-456.5 190.29,-456.5 "/>
<text text-anchor="middle" x="168.29" y="-444.5" font-family="Helvetica,sans-Serif" font-size="10.00"> </text>
</a>
</g>
</g>
<!-- Node5&#45;&gt;Node3 -->
<g id="edge4" class="edge">
<title>Node5&#45;&gt;Node3</title>
<path fill="none" stroke="#404040" d="M168.29,-437.35C168.29,-421.6 168.29,-400.9 168.29,-380.02"/>
<polygon fill="none" stroke="#404040" points="168.29,-379.74 164.29,-373.74 168.29,-367.74 172.29,-373.74 168.29,-379.74"/>
<text text-anchor="middle" x="195.79" y="-400" font-family="Helvetica,sans-Serif" font-size="10.00"> #m_name</text>
</g>
<!-- Node6 -->
<g id="node6" class="node">
<title>Node6</title>
<g id="a_node6"><a xlink:title=" ">
<polygon fill="white" stroke="#666666" points="239.79,-261 239.79,-318 370.79,-318 370.79,-261 239.79,-261"/>
<text text-anchor="middle" x="305.29" y="-306" font-family="Helvetica,sans-Serif" font-size="10.00">vector&lt; EnemyMove &gt;</text>
<polyline fill="none" stroke="#666666" points="239.79,-299 370.79,-299 "/>
<text text-anchor="middle" x="305.29" y="-287" font-family="Helvetica,sans-Serif" font-size="10.00"> </text>
<polyline fill="none" stroke="#666666" points="239.79,-280 370.79,-280 "/>
<text text-anchor="middle" x="305.29" y="-268" font-family="Helvetica,sans-Serif" font-size="10.00"> </text>
</a>
</g>
</g>
<!-- Node6&#45;&gt;Node2 -->
<g id="edge5" class="edge">
<title>Node6&#45;&gt;Node2</title>
<path fill="none" stroke="#404040" d="M281.43,-260.98C260.35,-236.67 229.29,-200.85 205.04,-172.88"/>
<polygon fill="none" stroke="#404040" points="204.96,-172.8 198.01,-170.88 197.1,-163.73 204.06,-165.64 204.96,-172.8"/>
<text text-anchor="middle" x="251.29" y="-185" font-family="Helvetica,sans-Serif" font-size="10.00"> #m_moves</text>
</g>
</g>
</svg>
        <g id="navigator" transform="translate(0 0)" fill="#404254">
                <rect fill="#f2f5e9" fill-opacity="0.5" stroke="#606060" stroke-width=".5" x="0" y="0" width="60" height="60"/>
                <use id="zoomplus" xlink:href="#zoomPlus" x="17" y="9" onmousedown="handleZoom(evt,'in')"/>
                <use id="zoomminus" xlink:href="#zoomMin" x="42" y="9" onmousedown="handleZoom(evt,'out')"/>
                <use id="reset" xlink:href="#resetDef" x="30" y="36" onmousedown="handleReset()"/>
                <g id="arrowUp" xlink:href="#dirArrow" transform="translate(30 24)" onmousedown="handlePan(0,-1)">
                  <use xlink:href="#rim" fill="#404040">
                        <set attributeName="fill" to="#808080" begin="arrowUp.mouseover" end="arrowUp.mouseout"/>
                  </use>
                  <path fill="none" stroke="white" stroke-width="1.5" d="M0,-3.0v7 M-2.5,-0.5L0,-3.0L2.5,-0.5"/>
                </g>
                <g id="arrowRight" xlink:href="#dirArrow" transform="rotate(90) translate(36 -43)" onmousedown="handlePan(1,0)">
                  <use xlink:href="#rim" fill="#404040">
                        <set attributeName="fill" to="#808080" begin="arrowRight.mouseover" end="arrowRight.mouseout"/>
                  </use>
                  <path fill="none" stroke="white" stroke-width="1.5" d="M0,-3.0v7 M-2.5,-0.5L0,-3.0L2.5,-0.5"/>
                </g>
                <g id="arrowDown" xlink:href="#dirArrow" transform="rotate(180) translate(-30 -48)" onmousedown="handlePan(0,1)">
                  <use xlink:href="#rim" fill="#404040">
                        <set attributeName="fill" to="#808080" begin="arrowDown.mouseover" end="arrowDown.mouseout"/>
                  </use>
                  <path fill="none" stroke="white" stroke-width="1.5" d="M0,-3.0v7 M-2.5,-0.5L0,-3.0L2.5,-0.5"/>
                </g>
                <g id="arrowLeft" xlink:href="#dirArrow" transform="rotate(270) translate(-36 17)" onmousedown="handlePan(-1,0)">
                  <use xlink:href="#rim" fill="#404040">
                        <set attributeName="fill" to="#808080" begin="arrowLeft.mouseover" end="arrowLeft.mouseout"/>
                  </use>
                  <path fill="none" stroke="white" stroke-width="1.5" d="M0,-3.0v7 M-2.5,-0.5L0,-3.0L2.5,-0.5"/>
                </g>
        </g>
        <svg viewBox="0 0 15 15" width="100%" height="30px" preserveAspectRatio="xMaxYMin meet">
         <g id="arrow_out" transform="scale(0.3 0.3)">
          <a xlink:href="classWolfPack__coll__graph_org.svg" target="_base">
           <rect id="button" ry="5" rx="5" y="6" x="6" height="38" width="38"
                fill="#f2f5e9" fill-opacity="0.5" stroke="#606060" stroke-width="1.0"/>
           <path id="arrow"
             d="M 11.500037,31.436501 C 11.940474,20.09759 22.043105,11.32322 32.158766,21.979434 L 37.068811,17.246167 C 37.068811,17.246167 37.088388,32 37.088388,32 L 22.160133,31.978069 C 22.160133,31.978069 26.997745,27.140456 26.997745,27.140456 C 18.528582,18.264221 13.291696,25.230495 11.500037,31.436501 z"
             style="fill:#404040;"/>
          </a>
         </g>
        </svg>
</svg>
