<?xml version="1.0" encoding="UTF-8" standalone="no"?>
<!DOCTYPE svg PUBLIC "-//W3C//DTD SVG 1.1//EN"
 "http://www.w3.org/Graphics/SVG/1.1/DTD/svg11.dtd">
<!-- Generated by graphviz version 2.43.0 (0)
 -->
<!-- Title: Entity Pages: 1 -->
<svg width="232pt" height="430pt"
 viewBox="0.00 0.00 231.50 430.00" xmlns="http://www.w3.org/2000/svg" xmlns:xlink="http://www.w3.org/1999/xlink">
<g id="graph0" class="graph" transform="scale(1 1) rotate(0) translate(4 426)">
<title>Entity</title>
<!-- Node1 -->
<g id="node1" class="node">
<title>Node1</title>
<g id="a_node1"><a xlink:title=" ">
<polygon fill="#999999" stroke="#666666" points="55.5,-232.5 55.5,-421.5 162.5,-421.5 162.5,-232.5 55.5,-232.5"/>
<text text-anchor="middle" x="109" y="-409.5" font-family="Helvetica,sans-Serif" font-size="10.00">Entity</text>
<polyline fill="none" stroke="#666666" points="55.5,-402.5 162.5,-402.5 "/>
<text text-anchor="start" x="63.5" y="-390.5" font-family="Helvetica,sans-Serif" font-size="10.00"># m_hp</text>
<text text-anchor="start" x="63.5" y="-379.5" font-family="Helvetica,sans-Serif" font-size="10.00"># m_armor</text>
<text text-anchor="start" x="63.5" y="-368.5" font-family="Helvetica,sans-Serif" font-size="10.00"># m_attack</text>
<text text-anchor="start" x="63.5" y="-357.5" font-family="Helvetica,sans-Serif" font-size="10.00"># m_name</text>
<polyline fill="none" stroke="#666666" points="55.5,-350.5 162.5,-350.5 "/>
<text text-anchor="start" x="63.5" y="-338.5" font-family="Helvetica,sans-Serif" font-size="10.00">+ Entity()</text>
<text text-anchor="start" x="63.5" y="-327.5" font-family="Helvetica,sans-Serif" font-size="10.00">+ Entity()</text>
<text text-anchor="start" x="63.5" y="-316.5" font-family="Helvetica,sans-Serif" font-size="10.00">+ getName()</text>
<text text-anchor="start" x="63.5" y="-305.5" font-family="Helvetica,sans-Serif" font-size="10.00">+ getArmor()</text>
<text text-anchor="start" x="63.5" y="-294.5" font-family="Helvetica,sans-Serif" font-size="10.00">+ resetArmor()</text>
<text text-anchor="start" x="63.5" y="-283.5" font-family="Helvetica,sans-Serif" font-size="10.00">+ increaseArmor()</text>
<text text-anchor="start" x="63.5" y="-272.5" font-family="Helvetica,sans-Serif" font-size="10.00">+ lowerArmor()</text>
<text text-anchor="start" x="63.5" y="-261.5" font-family="Helvetica,sans-Serif" font-size="10.00">+ getHp()</text>
<text text-anchor="start" x="63.5" y="-250.5" font-family="Helvetica,sans-Serif" font-size="10.00">+ lowerHp()</text>
<text text-anchor="start" x="63.5" y="-239.5" font-family="Helvetica,sans-Serif" font-size="10.00">+ increaseHp()</text>
</a>
</g>
</g>
<!-- Node2 -->
<g id="node2" class="node">
<title>Node2</title>
<g id="a_node2"><a xlink:href="classEnemy.html" target="_top" xlink:title=" ">
<polygon fill="white" stroke="#666666" points="0,-105.5 0,-184.5 98,-184.5 98,-105.5 0,-105.5"/>
<text text-anchor="middle" x="49" y="-172.5" font-family="Helvetica,sans-Serif" font-size="10.00">Enemy</text>
<polyline fill="none" stroke="#666666" points="0,-165.5 98,-165.5 "/>
<text text-anchor="start" x="8" y="-153.5" font-family="Helvetica,sans-Serif" font-size="10.00"># m_moves</text>
<text text-anchor="start" x="8" y="-142.5" font-family="Helvetica,sans-Serif" font-size="10.00"># m_moveIndex</text>
<polyline fill="none" stroke="#666666" points="0,-135.5 98,-135.5 "/>
<text text-anchor="start" x="8" y="-123.5" font-family="Helvetica,sans-Serif" font-size="10.00">+ nextMove()</text>
<text text-anchor="start" x="8" y="-112.5" font-family="Helvetica,sans-Serif" font-size="10.00"># Enemy()</text>
</a>
</g>
</g>
<!-- Node1&#45;&gt;Node2 -->
<g id="edge1" class="edge">
<title>Node1&#45;&gt;Node2</title>
<path fill="none" stroke="#63b8ff" d="M74.51,-222.54C70.06,-209.19 65.75,-196.24 61.97,-184.92"/>
<polygon fill="none" stroke="#63b8ff" points="71.29,-223.93 77.77,-232.31 77.93,-221.72 71.29,-223.93"/>
</g>
<!-- Node4 -->
<g id="node4" class="node">
<title>Node4</title>
<g id="a_node4"><a xlink:href="classPlayer.html" target="_top" xlink:title=" ">
<polygon fill="white" stroke="#666666" points="116.5,-94.5 116.5,-195.5 223.5,-195.5 223.5,-94.5 116.5,-94.5"/>
<text text-anchor="middle" x="170" y="-183.5" font-family="Helvetica,sans-Serif" font-size="10.00">Player</text>
<polyline fill="none" stroke="#666666" points="116.5,-176.5 223.5,-176.5 "/>
<text text-anchor="middle" x="170" y="-164.5" font-family="Helvetica,sans-Serif" font-size="10.00"> </text>
<polyline fill="none" stroke="#666666" points="116.5,-157.5 223.5,-157.5 "/>
<text text-anchor="start" x="124.5" y="-145.5" font-family="Helvetica,sans-Serif" font-size="10.00">+ Player()</text>
<text text-anchor="start" x="124.5" y="-134.5" font-family="Helvetica,sans-Serif" font-size="10.00">+ Player()</text>
<text text-anchor="start" x="124.5" y="-123.5" font-family="Helvetica,sans-Serif" font-size="10.00">+ setName()</text>
<text text-anchor="start" x="124.5" y="-112.5" font-family="Helvetica,sans-Serif" font-size="10.00">+ getName()</text>
<text text-anchor="start" x="124.5" y="-101.5" font-family="Helvetica,sans-Serif" font-size="10.00">+ getDeckPlayer()</text>
</a>
</g>
</g>
<!-- Node1&#45;&gt;Node4 -->
<g id="edge3" class="edge">
<title>Node1&#45;&gt;Node4</title>
<path fill="none" stroke="#63b8ff" d="M144.05,-222.57C147.2,-213.27 150.29,-204.17 153.17,-195.67"/>
<polygon fill="none" stroke="#63b8ff" points="140.65,-221.72 140.75,-232.31 147.28,-223.96 140.65,-221.72"/>
</g>
<!-- Node3 -->
<g id="node3" class="node">
<title>Node3</title>
<g id="a_node3"><a xlink:href="classWolfPack.html" target="_top" xlink:title=" ">
<polygon fill="white" stroke="#666666" points="9,-0.5 9,-57.5 89,-57.5 89,-0.5 9,-0.5"/>
<text text-anchor="middle" x="49" y="-45.5" font-family="Helvetica,sans-Serif" font-size="10.00">WolfPack</text>
<polyline fill="none" stroke="#666666" points="9,-38.5 89,-38.5 "/>
<text text-anchor="middle" x="49" y="-26.5" font-family="Helvetica,sans-Serif" font-size="10.00"> </text>
<polyline fill="none" stroke="#666666" points="9,-19.5 89,-19.5 "/>
<text text-anchor="start" x="17" y="-7.5" font-family="Helvetica,sans-Serif" font-size="10.00">+ WolfPack()</text>
</a>
</g>
</g>
<!-- Node2&#45;&gt;Node3 -->
<g id="edge2" class="edge">
<title>Node2&#45;&gt;Node3</title>
<path fill="none" stroke="#63b8ff" d="M49,-95.29C49,-82.46 49,-69.05 49,-57.75"/>
<polygon fill="none" stroke="#63b8ff" points="45.5,-95.4 49,-105.4 52.5,-95.4 45.5,-95.4"/>
</g>
</g>
</svg>
