<?xml version="1.0" encoding="UTF-8" standalone="no"?>
<!DOCTYPE svg PUBLIC "-//W3C//DTD SVG 1.1//EN"
 "http://www.w3.org/Graphics/SVG/1.1/DTD/svg11.dtd">
<!-- Generated by graphviz version 2.43.0 (0)
 -->
<!-- Title: Entity Pages: 1 -->
<svg width="146pt" height="292pt"
 viewBox="0.00 0.00 145.50 292.00" xmlns="http://www.w3.org/2000/svg" xmlns:xlink="http://www.w3.org/1999/xlink">
<g id="graph0" class="graph" transform="scale(1 1) rotate(0) translate(4 288)">
<title>Entity</title>
<!-- Node1 -->
<g id="node1" class="node">
<title>Node1</title>
<g id="a_node1"><a xlink:title=" ">
<polygon fill="#999999" stroke="#666666" points="0,-0.5 0,-156.5 107,-156.5 107,-0.5 0,-0.5"/>
<text text-anchor="middle" x="53.5" y="-144.5" font-family="Helvetica,sans-Serif" font-size="10.00">Entity</text>
<polyline fill="none" stroke="#666666" points="0,-137.5 107,-137.5 "/>
<text text-anchor="middle" x="53.5" y="-125.5" font-family="Helvetica,sans-Serif" font-size="10.00"> </text>
<polyline fill="none" stroke="#666666" points="0,-118.5 107,-118.5 "/>
<text text-anchor="start" x="8" y="-106.5" font-family="Helvetica,sans-Serif" font-size="10.00">+ Entity()</text>
<text text-anchor="start" x="8" y="-95.5" font-family="Helvetica,sans-Serif" font-size="10.00">+ Entity()</text>
<text text-anchor="start" x="8" y="-84.5" font-family="Helvetica,sans-Serif" font-size="10.00">+ getName()</text>
<text text-anchor="start" x="8" y="-73.5" font-family="Helvetica,sans-Serif" font-size="10.00">+ getArmor()</text>
<text text-anchor="start" x="8" y="-62.5" font-family="Helvetica,sans-Serif" font-size="10.00">+ resetArmor()</text>
<text text-anchor="start" x="8" y="-51.5" font-family="Helvetica,sans-Serif" font-size="10.00">+ increaseArmor()</text>
<text text-anchor="start" x="8" y="-40.5" font-family="Helvetica,sans-Serif" font-size="10.00">+ lowerArmor()</text>
<text text-anchor="start" x="8" y="-29.5" font-family="Helvetica,sans-Serif" font-size="10.00">+ getHp()</text>
<text text-anchor="start" x="8" y="-18.5" font-family="Helvetica,sans-Serif" font-size="10.00">+ lowerHp()</text>
<text text-anchor="start" x="8" y="-7.5" font-family="Helvetica,sans-Serif" font-size="10.00">+ increaseHp()</text>
</a>
</g>
</g>
<!-- Node2 -->
<g id="node2" class="node">
<title>Node2</title>
<g id="a_node2"><a xlink:title=" ">
<polygon fill="white" stroke="#666666" points="0,-226.5 0,-283.5 29,-283.5 29,-226.5 0,-226.5"/>
<text text-anchor="middle" x="14.5" y="-271.5" font-family="Helvetica,sans-Serif" font-size="10.00">int</text>
<polyline fill="none" stroke="#666666" points="0,-264.5 29,-264.5 "/>
<text text-anchor="middle" x="14.5" y="-252.5" font-family="Helvetica,sans-Serif" font-size="10.00"> </text>
<polyline fill="none" stroke="#666666" points="0,-245.5 29,-245.5 "/>
<text text-anchor="middle" x="14.5" y="-233.5" font-family="Helvetica,sans-Serif" font-size="10.00"> </text>
</a>
</g>
</g>
<!-- Node2&#45;&gt;Node1 -->
<g id="edge1" class="edge">
<title>Node2&#45;&gt;Node1</title>
<path fill="none" stroke="#404040" d="M12.4,-226.32C11.85,-211.05 12.17,-191.82 15.5,-175 15.93,-172.83 16.41,-170.65 16.93,-168.45"/>
<polygon fill="none" stroke="#404040" points="16.97,-168.29 14.66,-161.46 20.07,-156.7 22.39,-163.53 16.97,-168.29"/>
<text text-anchor="middle" x="43.5" y="-200" font-family="Helvetica,sans-Serif" font-size="10.00"> #m_armor</text>
<text text-anchor="middle" x="43.5" y="-189" font-family="Helvetica,sans-Serif" font-size="10.00">#m_attack</text>
<text text-anchor="middle" x="43.5" y="-178" font-family="Helvetica,sans-Serif" font-size="10.00">#m_hp</text>
</g>
<!-- Node3 -->
<g id="node3" class="node">
<title>Node3</title>
<g id="a_node3"><a xlink:title=" ">
<polygon fill="white" stroke="#666666" points="71.5,-226.5 71.5,-283.5 115.5,-283.5 115.5,-226.5 71.5,-226.5"/>
<text text-anchor="middle" x="93.5" y="-271.5" font-family="Helvetica,sans-Serif" font-size="10.00">string</text>
<polyline fill="none" stroke="#666666" points="71.5,-264.5 115.5,-264.5 "/>
<text text-anchor="middle" x="93.5" y="-252.5" font-family="Helvetica,sans-Serif" font-size="10.00"> </text>
<polyline fill="none" stroke="#666666" points="71.5,-245.5 115.5,-245.5 "/>
<text text-anchor="middle" x="93.5" y="-233.5" font-family="Helvetica,sans-Serif" font-size="10.00"> </text>
</a>
</g>
</g>
<!-- Node3&#45;&gt;Node1 -->
<g id="edge2" class="edge">
<title>Node3&#45;&gt;Node1</title>
<path fill="none" stroke="#404040" d="M87.16,-226.35C83.54,-210.53 78.76,-189.7 73.95,-168.73"/>
<polygon fill="none" stroke="#404040" points="73.89,-168.44 68.65,-163.48 71.21,-156.74 76.45,-161.7 73.89,-168.44"/>
<text text-anchor="middle" x="110" y="-189" font-family="Helvetica,sans-Serif" font-size="10.00"> #m_name</text>
</g>
</g>
</svg>
