<?xml version="1.0" encoding="UTF-8" standalone="no"?>
<!DOCTYPE svg PUBLIC "-//W3C//DTD SVG 1.1//EN"
 "http://www.w3.org/Graphics/SVG/1.1/DTD/svg11.dtd">
<!-- Generated by graphviz version 2.43.0 (0)
 -->
<!-- Title: Effect Pages: 1 -->
<svg width="105pt" height="171pt"
 viewBox="0.00 0.00 105.00 171.00" xmlns="http://www.w3.org/2000/svg" xmlns:xlink="http://www.w3.org/1999/xlink">
<g id="graph0" class="graph" transform="scale(1 1) rotate(0) translate(4 167)">
<title>Effect</title>
<!-- Node1 -->
<g id="node1" class="node">
<title>Node1</title>
<g id="a_node1"><a xlink:title="Abstract base class for all card effects.">
<polygon fill="#999999" stroke="#666666" points="13,-94.5 13,-162.5 84,-162.5 84,-94.5 13,-94.5"/>
<text text-anchor="middle" x="48.5" y="-150.5" font-family="Helvetica,sans-Serif" font-size="10.00">Effect</text>
<polyline fill="none" stroke="#666666" points="13,-143.5 84,-143.5 "/>
<text text-anchor="middle" x="48.5" y="-131.5" font-family="Helvetica,sans-Serif" font-size="10.00"> </text>
<polyline fill="none" stroke="#666666" points="13,-124.5 84,-124.5 "/>
<text text-anchor="start" x="21" y="-112.5" font-family="Helvetica,sans-Serif" font-size="10.00">+ apply()</text>
<text text-anchor="start" x="21" y="-101.5" font-family="Helvetica,sans-Serif" font-size="10.00">+ ~Effect()</text>
</a>
</g>
</g>
<!-- Node2 -->
<g id="node2" class="node">
<title>Node2</title>
<g id="a_node2"><a xlink:href="classGainArmorEffect.html" target="_top" xlink:title="Effect that grants armor to the player based on the card&#39;s armor value.">
<polygon fill="white" stroke="#666666" points="0,-0.5 0,-57.5 97,-57.5 97,-0.5 0,-0.5"/>
<text text-anchor="middle" x="48.5" y="-45.5" font-family="Helvetica,sans-Serif" font-size="10.00">GainArmorEffect</text>
<polyline fill="none" stroke="#666666" points="0,-38.5 97,-38.5 "/>
<text text-anchor="middle" x="48.5" y="-26.5" font-family="Helvetica,sans-Serif" font-size="10.00"> </text>
<polyline fill="none" stroke="#666666" points="0,-19.5 97,-19.5 "/>
<text text-anchor="start" x="8" y="-7.5" font-family="Helvetica,sans-Serif" font-size="10.00">+ apply()</text>
</a>
</g>
</g>
<!-- Node1&#45;&gt;Node2 -->
<g id="edge1" class="edge">
<title>Node1&#45;&gt;Node2</title>
<path fill="none" stroke="#63b8ff" d="M48.5,-84.45C48.5,-75.4 48.5,-66.09 48.5,-57.78"/>
<polygon fill="none" stroke="#63b8ff" points="45,-84.49 48.5,-94.49 52,-84.49 45,-84.49"/>
</g>
</g>
</svg>
