<?xml version="1.0" encoding="UTF-8" standalone="no"?>
<!DOCTYPE svg PUBLIC "-//W3C//DTD SVG 1.1//EN"
 "http://www.w3.org/Graphics/SVG/1.1/DTD/svg11.dtd">
<!-- Generated by graphviz version 2.43.0 (0)
 -->
<!-- Title: Enemy Pages: 1 -->
<svg width="115pt" height="408pt"
 viewBox="0.00 0.00 115.00 408.00" xmlns="http://www.w3.org/2000/svg" xmlns:xlink="http://www.w3.org/1999/xlink">
<g id="graph0" class="graph" transform="scale(1 1) rotate(0) translate(4 404)">
<title>Enemy</title>
<!-- Node1 -->
<g id="node1" class="node">
<title>Node1</title>
<g id="a_node1"><a xlink:title=" ">
<polygon fill="#999999" stroke="#666666" points="4.5,-94.5 4.5,-173.5 102.5,-173.5 102.5,-94.5 4.5,-94.5"/>
<text text-anchor="middle" x="53.5" y="-161.5" font-family="Helvetica,sans-Serif" font-size="10.00">Enemy</text>
<polyline fill="none" stroke="#666666" points="4.5,-154.5 102.5,-154.5 "/>
<text text-anchor="start" x="12.5" y="-142.5" font-family="Helvetica,sans-Serif" font-size="10.00"># m_moves</text>
<text text-anchor="start" x="12.5" y="-131.5" font-family="Helvetica,sans-Serif" font-size="10.00"># m_moveIndex</text>
<polyline fill="none" stroke="#666666" points="4.5,-124.5 102.5,-124.5 "/>
<text text-anchor="start" x="12.5" y="-112.5" font-family="Helvetica,sans-Serif" font-size="10.00">+ nextMove()</text>
<text text-anchor="start" x="12.5" y="-101.5" font-family="Helvetica,sans-Serif" font-size="10.00"># Enemy()</text>
</a>
</g>
</g>
<!-- Node3 -->
<g id="node3" class="node">
<title>Node3</title>
<g id="a_node3"><a xlink:href="classWolfPack.html" target="_top" xlink:title=" ">
<polygon fill="white" stroke="#666666" points="13.5,-0.5 13.5,-57.5 93.5,-57.5 93.5,-0.5 13.5,-0.5"/>
<text text-anchor="middle" x="53.5" y="-45.5" font-family="Helvetica,sans-Serif" font-size="10.00">WolfPack</text>
<polyline fill="none" stroke="#666666" points="13.5,-38.5 93.5,-38.5 "/>
<text text-anchor="middle" x="53.5" y="-26.5" font-family="Helvetica,sans-Serif" font-size="10.00"> </text>
<polyline fill="none" stroke="#666666" points="13.5,-19.5 93.5,-19.5 "/>
<text text-anchor="start" x="21.5" y="-7.5" font-family="Helvetica,sans-Serif" font-size="10.00">+ WolfPack()</text>
</a>
</g>
</g>
<!-- Node1&#45;&gt;Node3 -->
<g id="edge2" class="edge">
<title>Node1&#45;&gt;Node3</title>
<path fill="none" stroke="#63b8ff" d="M53.5,-84.16C53.5,-75.04 53.5,-65.81 53.5,-57.61"/>
<polygon fill="none" stroke="#63b8ff" points="50,-84.35 53.5,-94.35 57,-84.35 50,-84.35"/>
</g>
<!-- Node2 -->
<g id="node2" class="node">
<title>Node2</title>
<g id="a_node2"><a xlink:href="classEntity.html" target="_top" xlink:title=" ">
<polygon fill="white" stroke="#666666" points="0,-210.5 0,-399.5 107,-399.5 107,-210.5 0,-210.5"/>
<text text-anchor="middle" x="53.5" y="-387.5" font-family="Helvetica,sans-Serif" font-size="10.00">Entity</text>
<polyline fill="none" stroke="#666666" points="0,-380.5 107,-380.5 "/>
<text text-anchor="start" x="8" y="-368.5" font-family="Helvetica,sans-Serif" font-size="10.00"># m_hp</text>
<text text-anchor="start" x="8" y="-357.5" font-family="Helvetica,sans-Serif" font-size="10.00"># m_armor</text>
<text text-anchor="start" x="8" y="-346.5" font-family="Helvetica,sans-Serif" font-size="10.00"># m_attack</text>
<text text-anchor="start" x="8" y="-335.5" font-family="Helvetica,sans-Serif" font-size="10.00"># m_name</text>
<polyline fill="none" stroke="#666666" points="0,-328.5 107,-328.5 "/>
<text text-anchor="start" x="8" y="-316.5" font-family="Helvetica,sans-Serif" font-size="10.00">+ Entity()</text>
<text text-anchor="start" x="8" y="-305.5" font-family="Helvetica,sans-Serif" font-size="10.00">+ Entity()</text>
<text text-anchor="start" x="8" y="-294.5" font-family="Helvetica,sans-Serif" font-size="10.00">+ getName()</text>
<text text-anchor="start" x="8" y="-283.5" font-family="Helvetica,sans-Serif" font-size="10.00">+ getArmor()</text>
<text text-anchor="start" x="8" y="-272.5" font-family="Helvetica,sans-Serif" font-size="10.00">+ resetArmor()</text>
<text text-anchor="start" x="8" y="-261.5" font-family="Helvetica,sans-Serif" font-size="10.00">+ increaseArmor()</text>
<text text-anchor="start" x="8" y="-250.5" font-family="Helvetica,sans-Serif" font-size="10.00">+ lowerArmor()</text>
<text text-anchor="start" x="8" y="-239.5" font-family="Helvetica,sans-Serif" font-size="10.00">+ getHp()</text>
<text text-anchor="start" x="8" y="-228.5" font-family="Helvetica,sans-Serif" font-size="10.00">+ lowerHp()</text>
<text text-anchor="start" x="8" y="-217.5" font-family="Helvetica,sans-Serif" font-size="10.00">+ increaseHp()</text>
</a>
</g>
</g>
<!-- Node2&#45;&gt;Node1 -->
<g id="edge1" class="edge">
<title>Node2&#45;&gt;Node1</title>
<path fill="none" stroke="#63b8ff" d="M53.5,-200.02C53.5,-190.82 53.5,-181.95 53.5,-173.87"/>
<polygon fill="none" stroke="#63b8ff" points="50,-200.11 53.5,-210.11 57,-200.11 50,-200.11"/>
</g>
</g>
</svg>
