<?xml version="1.0" encoding="UTF-8" standalone="no"?>
<!DOCTYPE svg PUBLIC "-//W3C//DTD SVG 1.1//EN"
 "http://www.w3.org/Graphics/SVG/1.1/DTD/svg11.dtd">
<!-- Generated by graphviz version 2.43.0 (0)
 -->
<!-- Title: WolfPack Pages: 1 -->
<svg width="379pt" height="503pt"
 viewBox="0.00 0.00 378.79 503.00" xmlns="http://www.w3.org/2000/svg" xmlns:xlink="http://www.w3.org/1999/xlink">
<g id="graph0" class="graph" transform="scale(1 1) rotate(0) translate(4 499)">
<title>WolfPack</title>
<!-- Node1 -->
<g id="node1" class="node">
<title>Node1</title>
<g id="a_node1"><a xlink:title=" ">
<polygon fill="#999999" stroke="#666666" points="128.29,-0.5 128.29,-57.5 208.29,-57.5 208.29,-0.5 128.29,-0.5"/>
<text text-anchor="middle" x="168.29" y="-45.5" font-family="Helvetica,sans-Serif" font-size="10.00">WolfPack</text>
<polyline fill="none" stroke="#666666" points="128.29,-38.5 208.29,-38.5 "/>
<text text-anchor="middle" x="168.29" y="-26.5" font-family="Helvetica,sans-Serif" font-size="10.00"> </text>
<polyline fill="none" stroke="#666666" points="128.29,-19.5 208.29,-19.5 "/>
<text text-anchor="start" x="136.29" y="-7.5" font-family="Helvetica,sans-Serif" font-size="10.00">+ WolfPack()</text>
</a>
</g>
</g>
<!-- Node2 -->
<g id="node2" class="node">
<title>Node2</title>
<g id="a_node2"><a xlink:href="classEnemy.html" target="_top" xlink:title=" ">
<polygon fill="white" stroke="#666666" points="126.29,-95.5 126.29,-163.5 210.29,-163.5 210.29,-95.5 126.29,-95.5"/>
<text text-anchor="middle" x="168.29" y="-151.5" font-family="Helvetica,sans-Serif" font-size="10.00">Enemy</text>
<polyline fill="none" stroke="#666666" points="126.29,-144.5 210.29,-144.5 "/>
<text text-anchor="middle" x="168.29" y="-132.5" font-family="Helvetica,sans-Serif" font-size="10.00"> </text>
<polyline fill="none" stroke="#666666" points="126.29,-125.5 210.29,-125.5 "/>
<text text-anchor="start" x="134.29" y="-113.5" font-family="Helvetica,sans-Serif" font-size="10.00">+ nextMove()</text>
<text text-anchor="start" x="134.29" y="-102.5" font-family="Helvetica,sans-Serif" font-size="10.00"># Enemy()</text>
</a>
</g>
</g>
<!-- Node2&#45;&gt;Node1 -->
<g id="edge1" class="edge">
<title>Node2&#45;&gt;Node1</title>
<path fill="none" stroke="#63b8ff" d="M168.29,-85.38C168.29,-75.94 168.29,-66.2 168.29,-57.57"/>
<polygon fill="none" stroke="#63b8ff" points="164.79,-85.43 168.29,-95.43 171.79,-85.43 164.79,-85.43"/>
</g>
<!-- Node3 -->
<g id="node3" class="node">
<title>Node3</title>
<g id="a_node3"><a xlink:href="classEntity.html" target="_top" xlink:title=" ">
<polygon fill="white" stroke="#666666" points="114.79,-211.5 114.79,-367.5 221.79,-367.5 221.79,-211.5 114.79,-211.5"/>
<text text-anchor="middle" x="168.29" y="-355.5" font-family="Helvetica,sans-Serif" font-size="10.00">Entity</text>
<polyline fill="none" stroke="#666666" points="114.79,-348.5 221.79,-348.5 "/>
<text text-anchor="middle" x="168.29" y="-336.5" font-family="Helvetica,sans-Serif" font-size="10.00"> </text>
<polyline fill="none" stroke="#666666" points="114.79,-329.5 221.79,-329.5 "/>
<text text-anchor="start" x="122.79" y="-317.5" font-family="Helvetica,sans-Serif" font-size="10.00">+ Entity()</text>
<text text-anchor="start" x="122.79" y="-306.5" font-family="Helvetica,sans-Serif" font-size="10.00">+ Entity()</text>
<text text-anchor="start" x="122.79" y="-295.5" font-family="Helvetica,sans-Serif" font-size="10.00">+ getName()</text>
<text text-anchor="start" x="122.79" y="-284.5" font-family="Helvetica,sans-Serif" font-size="10.00">+ getArmor()</text>
<text text-anchor="start" x="122.79" y="-273.5" font-family="Helvetica,sans-Serif" font-size="10.00">+ resetArmor()</text>
<text text-anchor="start" x="122.79" y="-262.5" font-family="Helvetica,sans-Serif" font-size="10.00">+ increaseArmor()</text>
<text text-anchor="start" x="122.79" y="-251.5" font-family="Helvetica,sans-Serif" font-size="10.00">+ lowerArmor()</text>
<text text-anchor="start" x="122.79" y="-240.5" font-family="Helvetica,sans-Serif" font-size="10.00">+ getHp()</text>
<text text-anchor="start" x="122.79" y="-229.5" font-family="Helvetica,sans-Serif" font-size="10.00">+ lowerHp()</text>
<text text-anchor="start" x="122.79" y="-218.5" font-family="Helvetica,sans-Serif" font-size="10.00">+ increaseHp()</text>
</a>
</g>
</g>
<!-- Node3&#45;&gt;Node2 -->
<g id="edge2" class="edge">
<title>Node3&#45;&gt;Node2</title>
<path fill="none" stroke="#63b8ff" d="M168.29,-201.15C168.29,-187.85 168.29,-174.88 168.29,-163.75"/>
<polygon fill="none" stroke="#63b8ff" points="164.79,-201.35 168.29,-211.35 171.79,-201.35 164.79,-201.35"/>
</g>
<!-- Node4 -->
<g id="node4" class="node">
<title>Node4</title>
<g id="a_node4"><a xlink:title=" ">
<polygon fill="white" stroke="#666666" points="18.79,-437.5 18.79,-494.5 47.79,-494.5 47.79,-437.5 18.79,-437.5"/>
<text text-anchor="middle" x="33.29" y="-482.5" font-family="Helvetica,sans-Serif" font-size="10.00">int</text>
<polyline fill="none" stroke="#666666" points="18.79,-475.5 47.79,-475.5 "/>
<text text-anchor="middle" x="33.29" y="-463.5" font-family="Helvetica,sans-Serif" font-size="10.00"> </text>
<polyline fill="none" stroke="#666666" points="18.79,-456.5 47.79,-456.5 "/>
<text text-anchor="middle" x="33.29" y="-444.5" font-family="Helvetica,sans-Serif" font-size="10.00"> </text>
</a>
</g>
</g>
<!-- Node4&#45;&gt;Node2 -->
<g id="edge6" class="edge">
<title>Node4&#45;&gt;Node2</title>
<path fill="none" stroke="#404040" d="M23.16,-437.47C6.87,-388.17 -19.24,-283.26 23.29,-211 42.93,-177.63 81.95,-157.1 114.57,-145.14"/>
<polygon fill="none" stroke="#404040" points="114.91,-145.02 119.27,-139.28 126.25,-141.11 121.88,-146.85 114.91,-145.02"/>
<text text-anchor="middle" x="64.29" y="-287" font-family="Helvetica,sans-Serif" font-size="10.00"> #m_moveIndex</text>
</g>
<!-- Node4&#45;&gt;Node3 -->
<g id="edge3" class="edge">
<title>Node4&#45;&gt;Node3</title>
<path fill="none" stroke="#404040" d="M47.99,-445.99C62.36,-427.42 85.21,-397.89 107.16,-369.52"/>
<polygon fill="none" stroke="#404040" points="107.21,-369.45 107.71,-362.26 114.55,-359.96 114.04,-367.16 107.21,-369.45"/>
<text text-anchor="middle" x="121.29" y="-411" font-family="Helvetica,sans-Serif" font-size="10.00"> #m_armor</text>
<text text-anchor="middle" x="121.29" y="-400" font-family="Helvetica,sans-Serif" font-size="10.00">#m_attack</text>
<text text-anchor="middle" x="121.29" y="-389" font-family="Helvetica,sans-Serif" font-size="10.00">#m_hp</text>
</g>
<!-- Node5 -->
<g id="node5" class="node">
<title>Node5</title>
<g id="a_node5"><a xlink:title=" ">
<polygon fill="white" stroke="#666666" points="146.29,-437.5 146.29,-494.5 190.29,-494.5 190.29,-437.5 146.29,-437.5"/>
<text text-anchor="middle" x="168.29" y="-482.5" font-family="Helvetica,sans-Serif" font-size="10.00">string</text>
<polyline fill="none" stroke="#666666" points="146.29,-475.5 190.29,-475.5 "/>
<text text-anchor="middle" x="168.29" y="-463.5" font-family="Helvetica,sans-Serif" font-size="10.00"> </text>
<polyline fill="none" stroke="#666666" points="146.29,-456.5 190.29,-456.5 "/>
<text text-anchor="middle" x="168.29" y="-444.5" font-family="Helvetica,sans-Serif" font-size="10.00"> </text>
</a>
</g>
</g>
<!-- Node5&#45;&gt;Node3 -->
<g id="edge4" class="edge">
<title>Node5&#45;&gt;Node3</title>
<path fill="none" stroke="#404040" d="M168.29,-437.35C168.29,-421.6 168.29,-400.9 168.29,-380.02"/>
<polygon fill="none" stroke="#404040" points="168.29,-379.74 164.29,-373.74 168.29,-367.74 172.29,-373.74 168.29,-379.74"/>
<text text-anchor="middle" x="195.79" y="-400" font-family="Helvetica,sans-Serif" font-size="10.00"> #m_name</text>
</g>
<!-- Node6 -->
<g id="node6" class="node">
<title>Node6</title>
<g id="a_node6"><a xlink:title=" ">
<polygon fill="white" stroke="#666666" points="239.79,-261 239.79,-318 370.79,-318 370.79,-261 239.79,-261"/>
<text text-anchor="middle" x="305.29" y="-306" font-family="Helvetica,sans-Serif" font-size="10.00">vector&lt; EnemyMove &gt;</text>
<polyline fill="none" stroke="#666666" points="239.79,-299 370.79,-299 "/>
<text text-anchor="middle" x="305.29" y="-287" font-family="Helvetica,sans-Serif" font-size="10.00"> </text>
<polyline fill="none" stroke="#666666" points="239.79,-280 370.79,-280 "/>
<text text-anchor="middle" x="305.29" y="-268" font-family="Helvetica,sans-Serif" font-size="10.00"> </text>
</a>
</g>
</g>
<!-- Node6&#45;&gt;Node2 -->
<g id="edge5" class="edge">
<title>Node6&#45;&gt;Node2</title>
<path fill="none" stroke="#404040" d="M281.43,-260.98C260.35,-236.67 229.29,-200.85 205.04,-172.88"/>
<polygon fill="none" stroke="#404040" points="204.96,-172.8 198.01,-170.88 197.1,-163.73 204.06,-165.64 204.96,-172.8"/>
<text text-anchor="middle" x="251.29" y="-185" font-family="Helvetica,sans-Serif" font-size="10.00"> #m_moves</text>
</g>
</g>
</svg>
