<?xml version="1.0" encoding="UTF-8" standalone="no"?>
<!DOCTYPE svg PUBLIC "-//W3C//DTD SVG 1.1//EN"
 "http://www.w3.org/Graphics/SVG/1.1/DTD/svg11.dtd">
<!-- Generated by graphviz version 2.43.0 (0)
 -->
<!-- Title: combat/combatEvents.h Pages: 1 -->
<svg width="495pt" height="137pt"
 viewBox="0.00 0.00 494.50 137.00" xmlns="http://www.w3.org/2000/svg" xmlns:xlink="http://www.w3.org/1999/xlink">
<g id="graph0" class="graph" transform="scale(1 1) rotate(0) translate(4 133)">
<title>combat/combatEvents.h</title>
<!-- Node1 -->
<g id="node1" class="node">
<title>Node1</title>
<g id="a_node1"><a xlink:title=" ">
<polygon fill="#999999" stroke="#666666" points="312.5,-129 177.5,-129 177.5,-110 312.5,-110 312.5,-129"/>
<text text-anchor="middle" x="245" y="-117" font-family="Helvetica,sans-Serif" font-size="10.00">combat/combatEvents.h</text>
</a>
</g>
</g>
<!-- Node2 -->
<g id="node2" class="node">
<title>Node2</title>
<g id="a_node2"><a xlink:href="combatSystem_8h.html" target="_top" xlink:title=" ">
<polygon fill="white" stroke="#666666" points="314.5,-74 175.5,-74 175.5,-55 314.5,-55 314.5,-74"/>
<text text-anchor="middle" x="245" y="-62" font-family="Helvetica,sans-Serif" font-size="10.00">combat/combatSystem.h</text>
</a>
</g>
</g>
<!-- Node1&#45;&gt;Node2 -->
<g id="edge1" class="edge">
<title>Node1&#45;&gt;Node2</title>
<path fill="none" stroke="#63b8ff" d="M245,-99.66C245,-90.93 245,-80.99 245,-74.09"/>
<polygon fill="#63b8ff" stroke="#63b8ff" points="241.5,-99.75 245,-109.75 248.5,-99.75 241.5,-99.75"/>
</g>
<!-- Node3 -->
<g id="node3" class="node">
<title>Node3</title>
<g id="a_node3"><a xlink:href="combatContext_8cpp.html" target="_top" xlink:title=" ">
<polygon fill="white" stroke="#666666" points="152,-19 0,-19 0,0 152,0 152,-19"/>
<text text-anchor="middle" x="76" y="-7" font-family="Helvetica,sans-Serif" font-size="10.00">combat/combatContext.cpp</text>
</a>
</g>
</g>
<!-- Node2&#45;&gt;Node3 -->
<g id="edge2" class="edge">
<title>Node2&#45;&gt;Node3</title>
<path fill="none" stroke="#63b8ff" d="M208.1,-51.93C176.53,-42.03 131.82,-28.01 103.37,-19.08"/>
<polygon fill="#63b8ff" stroke="#63b8ff" points="207.26,-55.33 217.85,-54.98 209.35,-48.65 207.26,-55.33"/>
</g>
<!-- Node4 -->
<g id="node4" class="node">
<title>Node4</title>
<g id="a_node4"><a xlink:href="combatSystem_8cpp.html" target="_top" xlink:title=" ">
<polygon fill="white" stroke="#666666" points="320,-19 170,-19 170,0 320,0 320,-19"/>
<text text-anchor="middle" x="245" y="-7" font-family="Helvetica,sans-Serif" font-size="10.00">combat/combatSystem.cpp</text>
</a>
</g>
</g>
<!-- Node2&#45;&gt;Node4 -->
<g id="edge3" class="edge">
<title>Node2&#45;&gt;Node4</title>
<path fill="none" stroke="#63b8ff" d="M245,-44.66C245,-35.93 245,-25.99 245,-19.09"/>
<polygon fill="#63b8ff" stroke="#63b8ff" points="241.5,-44.75 245,-54.75 248.5,-44.75 241.5,-44.75"/>
</g>
<!-- Node5 -->
<g id="node5" class="node">
<title>Node5</title>
<g id="a_node5"><a xlink:href="cardmatch_8h.html" target="_top" xlink:title=" ">
<polygon fill="white" stroke="#666666" points="486.5,-19 337.5,-19 337.5,0 486.5,0 486.5,-19"/>
<text text-anchor="middle" x="412" y="-7" font-family="Helvetica,sans-Serif" font-size="10.00">game_system/cardmatch.h</text>
</a>
</g>
</g>
<!-- Node2&#45;&gt;Node5 -->
<g id="edge4" class="edge">
<title>Node2&#45;&gt;Node5</title>
<path fill="none" stroke="#63b8ff" d="M281.46,-51.93C312.66,-42.03 356.84,-28.01 384.96,-19.08"/>
<polygon fill="#63b8ff" stroke="#63b8ff" points="280.3,-48.62 271.83,-54.98 282.42,-55.3 280.3,-48.62"/>
</g>
</g>
</svg>
