<?xml version="1.0" encoding="UTF-8" standalone="no"?>
<!DOCTYPE svg PUBLIC "-//W3C//DTD SVG 1.1//EN"
 "http://www.w3.org/Graphics/SVG/1.1/DTD/svg11.dtd">
<!-- Generated by graphviz version 2.43.0 (0)
 -->
<!-- Title: combat/combatTarget.h Pages: 1 -->
<svg width="848pt" height="137pt"
 viewBox="0.00 0.00 848.00 137.00" xmlns="http://www.w3.org/2000/svg" xmlns:xlink="http://www.w3.org/1999/xlink">
<g id="graph0" class="graph" transform="scale(1 1) rotate(0) translate(4 133)">
<title>combat/combatTarget.h</title>
<!-- Node1 -->
<g id="node1" class="node">
<title>Node1</title>
<g id="a_node1"><a xlink:title=" ">
<polygon fill="#999999" stroke="#666666" points="652.5,-129 520.5,-129 520.5,-110 652.5,-110 652.5,-129"/>
<text text-anchor="middle" x="586.5" y="-117" font-family="Helvetica,sans-Serif" font-size="10.00">combat/combatTarget.h</text>
</a>
</g>
</g>
<!-- Node2 -->
<g id="node2" class="node">
<title>Node2</title>
<g id="a_node2"><a xlink:href="combatContext_8h.html" target="_top" xlink:title=" ">
<polygon fill="white" stroke="#666666" points="404.5,-74 264.5,-74 264.5,-55 404.5,-55 404.5,-74"/>
<text text-anchor="middle" x="334.5" y="-62" font-family="Helvetica,sans-Serif" font-size="10.00">combat/combatContext.h</text>
</a>
</g>
</g>
<!-- Node1&#45;&gt;Node2 -->
<g id="edge1" class="edge">
<title>Node1&#45;&gt;Node2</title>
<path fill="none" stroke="#63b8ff" d="M536,-107.88C488.76,-97.94 419.11,-83.3 375.31,-74.08"/>
<polygon fill="#63b8ff" stroke="#63b8ff" points="535.51,-111.35 546.01,-109.98 536.95,-104.5 535.51,-111.35"/>
</g>
<!-- Node6 -->
<g id="node6" class="node">
<title>Node6</title>
<g id="a_node6"><a xlink:href="gainArmorEffect_8h.html" target="_top" xlink:title=" ">
<polygon fill="white" stroke="#666666" points="607.5,-74 467.5,-74 467.5,-55 607.5,-55 607.5,-74"/>
<text text-anchor="middle" x="537.5" y="-62" font-family="Helvetica,sans-Serif" font-size="10.00">effects/gainArmorEffect.h</text>
</a>
</g>
</g>
<!-- Node1&#45;&gt;Node6 -->
<g id="edge5" class="edge">
<title>Node1&#45;&gt;Node6</title>
<path fill="none" stroke="#63b8ff" d="M571.47,-102.24C562.88,-92.95 552.46,-81.68 545.44,-74.09"/>
<polygon fill="#63b8ff" stroke="#63b8ff" points="569.05,-104.78 578.41,-109.75 574.19,-100.03 569.05,-104.78"/>
</g>
<!-- Node7 -->
<g id="node7" class="node">
<title>Node7</title>
<g id="a_node7"><a xlink:href="wolfPack_8cpp.html" target="_top" xlink:title=" ">
<polygon fill="white" stroke="#666666" points="685,-19 520,-19 520,0 685,0 685,-19"/>
<text text-anchor="middle" x="602.5" y="-7" font-family="Helvetica,sans-Serif" font-size="10.00">entities/enemies/wolfPack.cpp</text>
</a>
</g>
</g>
<!-- Node1&#45;&gt;Node7 -->
<g id="edge9" class="edge">
<title>Node1&#45;&gt;Node7</title>
<path fill="none" stroke="#63b8ff" d="M601.19,-101.85C607.18,-93.98 613.41,-84.1 616.5,-74 622.37,-54.78 613.31,-31.59 607.24,-19.24"/>
<polygon fill="#63b8ff" stroke="#63b8ff" points="598.32,-99.84 594.71,-109.8 603.74,-104.26 598.32,-99.84"/>
</g>
<!-- Node8 -->
<g id="node8" class="node">
<title>Node8</title>
<g id="a_node8"><a xlink:href="cardFactory_8cpp.html" target="_top" xlink:title=" ">
<polygon fill="white" stroke="#666666" points="840,-19 703,-19 703,0 840,0 840,-19"/>
<text text-anchor="middle" x="771.5" y="-7" font-family="Helvetica,sans-Serif" font-size="10.00">factories/cardFactory.cpp</text>
</a>
</g>
</g>
<!-- Node1&#45;&gt;Node8 -->
<g id="edge10" class="edge">
<title>Node1&#45;&gt;Node8</title>
<path fill="none" stroke="#63b8ff" d="M610.36,-104.57C649.22,-81.89 725.02,-37.64 756.86,-19.05"/>
<polygon fill="#63b8ff" stroke="#63b8ff" points="608.2,-101.78 601.33,-109.84 611.73,-107.83 608.2,-101.78"/>
</g>
<!-- Node3 -->
<g id="node3" class="node">
<title>Node3</title>
<g id="a_node3"><a xlink:href="combatContext_8cpp.html" target="_top" xlink:title=" ">
<polygon fill="white" stroke="#666666" points="331.5,-19 179.5,-19 179.5,0 331.5,0 331.5,-19"/>
<text text-anchor="middle" x="255.5" y="-7" font-family="Helvetica,sans-Serif" font-size="10.00">combat/combatContext.cpp</text>
</a>
</g>
</g>
<!-- Node2&#45;&gt;Node3 -->
<g id="edge2" class="edge">
<title>Node2&#45;&gt;Node3</title>
<path fill="none" stroke="#63b8ff" d="M313.11,-49.15C298.83,-39.57 280.53,-27.29 268.42,-19.17"/>
<polygon fill="#63b8ff" stroke="#63b8ff" points="311.55,-52.32 321.81,-54.98 315.45,-46.51 311.55,-52.32"/>
</g>
<!-- Node4 -->
<g id="node4" class="node">
<title>Node4</title>
<g id="a_node4"><a xlink:href="gainArmorEffect_8cpp.html" target="_top" xlink:title=" ">
<polygon fill="white" stroke="#666666" points="501.5,-19 349.5,-19 349.5,0 501.5,0 501.5,-19"/>
<text text-anchor="middle" x="425.5" y="-7" font-family="Helvetica,sans-Serif" font-size="10.00">effects/gainArmorEffect.cpp</text>
</a>
</g>
</g>
<!-- Node2&#45;&gt;Node4 -->
<g id="edge3" class="edge">
<title>Node2&#45;&gt;Node4</title>
<path fill="none" stroke="#63b8ff" d="M358.2,-49.7C374.78,-40.04 396.41,-27.44 410.61,-19.17"/>
<polygon fill="#63b8ff" stroke="#63b8ff" points="356,-46.93 349.12,-54.98 359.52,-52.98 356,-46.93"/>
</g>
<!-- Node5 -->
<g id="node5" class="node">
<title>Node5</title>
<g id="a_node5"><a xlink:href="cardmatch_8cpp.html" target="_top" xlink:title=" ">
<polygon fill="white" stroke="#666666" points="161,-19 0,-19 0,0 161,0 161,-19"/>
<text text-anchor="middle" x="80.5" y="-7" font-family="Helvetica,sans-Serif" font-size="10.00">game_system/cardmatch.cpp</text>
</a>
</g>
</g>
<!-- Node2&#45;&gt;Node5 -->
<g id="edge4" class="edge">
<title>Node2&#45;&gt;Node5</title>
<path fill="none" stroke="#63b8ff" d="M283.89,-52.94C236.28,-43.01 165.88,-28.31 121.63,-19.08"/>
<polygon fill="#63b8ff" stroke="#63b8ff" points="283.19,-56.37 293.69,-54.98 284.62,-49.52 283.19,-56.37"/>
</g>
<!-- Node6&#45;&gt;Node4 -->
<g id="edge6" class="edge">
<title>Node6&#45;&gt;Node4</title>
<path fill="none" stroke="#63b8ff" d="M510.31,-50.63C489.68,-40.87 461.88,-27.71 443.82,-19.17"/>
<polygon fill="#63b8ff" stroke="#63b8ff" points="508.97,-53.87 519.51,-54.98 511.96,-47.54 508.97,-53.87"/>
</g>
<!-- Node6&#45;&gt;Node7 -->
<g id="edge7" class="edge">
<title>Node6&#45;&gt;Node7</title>
<path fill="none" stroke="#63b8ff" d="M555.77,-48.6C567.42,-39.11 582.1,-27.13 591.87,-19.17"/>
<polygon fill="#63b8ff" stroke="#63b8ff" points="553.48,-45.95 547.94,-54.98 557.91,-51.38 553.48,-45.95"/>
</g>
<!-- Node6&#45;&gt;Node8 -->
<g id="edge8" class="edge">
<title>Node6&#45;&gt;Node8</title>
<path fill="none" stroke="#63b8ff" d="M584.95,-52.75C628.8,-42.82 693.1,-28.26 733.61,-19.08"/>
<polygon fill="#63b8ff" stroke="#63b8ff" points="584.08,-49.36 575.1,-54.98 585.62,-56.19 584.08,-49.36"/>
</g>
</g>
</svg>
