<?xml version="1.0" encoding="UTF-8" standalone="no"?>
<!DOCTYPE svg PUBLIC "-//W3C//DTD SVG 1.1//EN"
 "http://www.w3.org/Graphics/SVG/1.1/DTD/svg11.dtd">
<!-- Generated by graphviz version 2.43.0 (0)
 -->
<!-- Title: combat/combatContext.cpp Pages: 1 -->
<svg width="382pt" height="137pt"
 viewBox="0.00 0.00 382.00 137.00" xmlns="http://www.w3.org/2000/svg" xmlns:xlink="http://www.w3.org/1999/xlink">
<g id="graph0" class="graph" transform="scale(1 1) rotate(0) translate(4 133)">
<title>combat/combatContext.cpp</title>
<!-- Node1 -->
<g id="node1" class="node">
<title>Node1</title>
<g id="a_node1"><a xlink:title=" ">
<polygon fill="#999999" stroke="#666666" points="296.5,-129 144.5,-129 144.5,-110 296.5,-110 296.5,-129"/>
<text text-anchor="middle" x="220.5" y="-117" font-family="Helvetica,sans-Serif" font-size="10.00">combat/combatContext.cpp</text>
</a>
</g>
</g>
<!-- Node2 -->
<g id="node2" class="node">
<title>Node2</title>
<g id="a_node2"><a xlink:href="combatContext_8h.html" target="_top" xlink:title=" ">
<polygon fill="white" stroke="#666666" points="101,-74 0,-74 0,-55 101,-55 101,-74"/>
<text text-anchor="middle" x="50.5" y="-62" font-family="Helvetica,sans-Serif" font-size="10.00">combatContext.h</text>
</a>
</g>
</g>
<!-- Node1&#45;&gt;Node2 -->
<g id="edge1" class="edge">
<title>Node1&#45;&gt;Node2</title>
<path fill="none" stroke="#63b8ff" d="M193.19,-109.98C164.65,-101.09 119.67,-87.07 87.86,-77.15"/>
<polygon fill="#63b8ff" stroke="#63b8ff" points="88.62,-73.72 78.03,-74.08 86.53,-80.4 88.62,-73.72"/>
</g>
<!-- Node4 -->
<g id="node4" class="node">
<title>Node4</title>
<g id="a_node4"><a xlink:href="combatSystem_8h.html" target="_top" xlink:title=" ">
<polygon fill="white" stroke="#666666" points="218,-74 119,-74 119,-55 218,-55 218,-74"/>
<text text-anchor="middle" x="168.5" y="-62" font-family="Helvetica,sans-Serif" font-size="10.00">combatSystem.h</text>
</a>
</g>
</g>
<!-- Node1&#45;&gt;Node4 -->
<g id="edge3" class="edge">
<title>Node1&#45;&gt;Node4</title>
<path fill="none" stroke="#63b8ff" d="M211.91,-109.75C204.34,-102.03 193.12,-90.6 183.99,-81.28"/>
<polygon fill="#63b8ff" stroke="#63b8ff" points="186.43,-78.78 176.93,-74.09 181.43,-83.68 186.43,-78.78"/>
</g>
<!-- Node6 -->
<g id="node6" class="node">
<title>Node6</title>
<g id="a_node6"><a xlink:href="debug_8h.html" target="_top" xlink:title=" ">
<polygon fill="white" stroke="#666666" points="310.5,-74 236.5,-74 236.5,-55 310.5,-55 310.5,-74"/>
<text text-anchor="middle" x="273.5" y="-62" font-family="Helvetica,sans-Serif" font-size="10.00">util/debug.h</text>
</a>
</g>
</g>
<!-- Node1&#45;&gt;Node6 -->
<g id="edge5" class="edge">
<title>Node1&#45;&gt;Node6</title>
<path fill="none" stroke="#63b8ff" d="M229.25,-109.75C236.97,-102.03 248.4,-90.6 257.72,-81.28"/>
<polygon fill="#63b8ff" stroke="#63b8ff" points="260.31,-83.64 264.91,-74.09 255.36,-78.69 260.31,-83.64"/>
</g>
<!-- Node8 -->
<g id="node8" class="node">
<title>Node8</title>
<g id="a_node8"><a xlink:title=" ">
<polygon fill="#e0e0e0" stroke="#999999" points="374,-74 329,-74 329,-55 374,-55 374,-74"/>
<text text-anchor="middle" x="351.5" y="-62" font-family="Helvetica,sans-Serif" font-size="10.00">utility</text>
</a>
</g>
</g>
<!-- Node1&#45;&gt;Node8 -->
<g id="edge7" class="edge">
<title>Node1&#45;&gt;Node8</title>
<path fill="none" stroke="#63b8ff" d="M241.55,-109.98C262.91,-101.34 296.2,-87.87 320.56,-78.02"/>
<polygon fill="#63b8ff" stroke="#63b8ff" points="322.11,-81.17 330.07,-74.17 319.49,-74.68 322.11,-81.17"/>
</g>
<!-- Node3 -->
<g id="node3" class="node">
<title>Node3</title>
<g id="a_node3"><a xlink:href="combatTarget_8h.html" target="_top" xlink:title=" ">
<polygon fill="white" stroke="#666666" points="96.5,-19 4.5,-19 4.5,0 96.5,0 96.5,-19"/>
<text text-anchor="middle" x="50.5" y="-7" font-family="Helvetica,sans-Serif" font-size="10.00">combatTarget.h</text>
</a>
</g>
</g>
<!-- Node2&#45;&gt;Node3 -->
<g id="edge2" class="edge">
<title>Node2&#45;&gt;Node3</title>
<path fill="none" stroke="#63b8ff" d="M50.5,-54.75C50.5,-47.8 50.5,-37.85 50.5,-29.13"/>
<polygon fill="#63b8ff" stroke="#63b8ff" points="54,-29.09 50.5,-19.09 47,-29.09 54,-29.09"/>
</g>
<!-- Node5 -->
<g id="node5" class="node">
<title>Node5</title>
<g id="a_node5"><a xlink:href="combatEvents_8h.html" target="_top" xlink:title=" ">
<polygon fill="white" stroke="#666666" points="216,-19 121,-19 121,0 216,0 216,-19"/>
<text text-anchor="middle" x="168.5" y="-7" font-family="Helvetica,sans-Serif" font-size="10.00">combatEvents.h</text>
</a>
</g>
</g>
<!-- Node4&#45;&gt;Node5 -->
<g id="edge4" class="edge">
<title>Node4&#45;&gt;Node5</title>
<path fill="none" stroke="#63b8ff" d="M168.5,-54.75C168.5,-47.8 168.5,-37.85 168.5,-29.13"/>
<polygon fill="#63b8ff" stroke="#63b8ff" points="172,-29.09 168.5,-19.09 165,-29.09 172,-29.09"/>
</g>
<!-- Node7 -->
<g id="node7" class="node">
<title>Node7</title>
<g id="a_node7"><a xlink:title=" ">
<polygon fill="#e0e0e0" stroke="#999999" points="303.5,-19 243.5,-19 243.5,0 303.5,0 303.5,-19"/>
<text text-anchor="middle" x="273.5" y="-7" font-family="Helvetica,sans-Serif" font-size="10.00">iostream</text>
</a>
</g>
</g>
<!-- Node6&#45;&gt;Node7 -->
<g id="edge6" class="edge">
<title>Node6&#45;&gt;Node7</title>
<path fill="none" stroke="#63b8ff" d="M273.5,-54.75C273.5,-47.8 273.5,-37.85 273.5,-29.13"/>
<polygon fill="#63b8ff" stroke="#63b8ff" points="277,-29.09 273.5,-19.09 270,-29.09 277,-29.09"/>
</g>
</g>
</svg>
