<?xml version="1.0" encoding="UTF-8" standalone="no"?>
<!DOCTYPE svg PUBLIC "-//W3C//DTD SVG 1.1//EN"
 "http://www.w3.org/Graphics/SVG/1.1/DTD/svg11.dtd">
<!-- Generated by graphviz version 2.43.0 (0)
 -->
<!-- Title: combat/combatTarget.h Pages: 1 -->
<svg width="1366pt" height="137pt"
 viewBox="0.00 0.00 1365.50 137.00" xmlns="http://www.w3.org/2000/svg" xmlns:xlink="http://www.w3.org/1999/xlink">
<g id="graph0" class="graph" transform="scale(1 1) rotate(0) translate(4 133)">
<title>combat/combatTarget.h</title>
<!-- Node1 -->
<g id="node1" class="node">
<title>Node1</title>
<g id="a_node1"><a xlink:title=" ">
<polygon fill="#999999" stroke="#666666" points="1040,-129 908,-129 908,-110 1040,-110 1040,-129"/>
<text text-anchor="middle" x="974" y="-117" font-family="Helvetica,sans-Serif" font-size="10.00">combat/combatTarget.h</text>
</a>
</g>
</g>
<!-- Node2 -->
<g id="node2" class="node">
<title>Node2</title>
<g id="a_node2"><a xlink:href="combatContext_8h.html" target="_top" xlink:title=" ">
<polygon fill="white" stroke="#666666" points="667,-74 527,-74 527,-55 667,-55 667,-74"/>
<text text-anchor="middle" x="597" y="-62" font-family="Helvetica,sans-Serif" font-size="10.00">combat/combatContext.h</text>
</a>
</g>
</g>
<!-- Node1&#45;&gt;Node2 -->
<g id="edge1" class="edge">
<title>Node1&#45;&gt;Node2</title>
<path fill="none" stroke="#63b8ff" d="M903.26,-108.56C832.49,-98.61 724.75,-83.46 657.73,-74.04"/>
<polygon fill="#63b8ff" stroke="#63b8ff" points="903.04,-112.06 913.43,-109.98 904.01,-105.13 903.04,-112.06"/>
</g>
<!-- Node8 -->
<g id="node8" class="node">
<title>Node8</title>
<g id="a_node8"><a xlink:href="cardmatch_8cpp.html" target="_top" xlink:title=" ">
<polygon fill="white" stroke="#666666" points="677.5,-19 516.5,-19 516.5,0 677.5,0 677.5,-19"/>
<text text-anchor="middle" x="597" y="-7" font-family="Helvetica,sans-Serif" font-size="10.00">game_system/cardmatch.cpp</text>
</a>
</g>
</g>
<!-- Node1&#45;&gt;Node8 -->
<g id="edge18" class="edge">
<title>Node1&#45;&gt;Node8</title>
<path fill="none" stroke="#63b8ff" d="M933.53,-107.2C901.6,-98.25 855.93,-85.41 816,-74 748.06,-54.58 668.39,-31.37 626.38,-19.1"/>
<polygon fill="#63b8ff" stroke="#63b8ff" points="932.82,-110.63 943.4,-109.96 934.71,-103.89 932.82,-110.63"/>
</g>
<!-- Node9 -->
<g id="node9" class="node">
<title>Node9</title>
<g id="a_node9"><a xlink:href="gainArmorEffect_8h.html" target="_top" xlink:title=" ">
<polygon fill="white" stroke="#666666" points="965,-74 825,-74 825,-55 965,-55 965,-74"/>
<text text-anchor="middle" x="895" y="-62" font-family="Helvetica,sans-Serif" font-size="10.00">effects/gainArmorEffect.h</text>
</a>
</g>
</g>
<!-- Node1&#45;&gt;Node9 -->
<g id="edge8" class="edge">
<title>Node1&#45;&gt;Node9</title>
<path fill="none" stroke="#63b8ff" d="M952.61,-104.15C938.33,-94.57 920.03,-82.29 907.92,-74.17"/>
<polygon fill="#63b8ff" stroke="#63b8ff" points="951.05,-107.32 961.31,-109.98 954.95,-101.51 951.05,-107.32"/>
</g>
<!-- Node10 -->
<g id="node10" class="node">
<title>Node10</title>
<g id="a_node10"><a xlink:href="wolfPack_8cpp.html" target="_top" xlink:title=" ">
<polygon fill="white" stroke="#666666" points="1202.5,-19 1037.5,-19 1037.5,0 1202.5,0 1202.5,-19"/>
<text text-anchor="middle" x="1120" y="-7" font-family="Helvetica,sans-Serif" font-size="10.00">entities/enemies/wolfPack.cpp</text>
</a>
</g>
</g>
<!-- Node1&#45;&gt;Node10 -->
<g id="edge16" class="edge">
<title>Node1&#45;&gt;Node10</title>
<path fill="none" stroke="#63b8ff" d="M1041.59,-108.07C1079.89,-100.62 1122.43,-89.23 1134,-74 1146.43,-57.64 1134.11,-32.45 1125.95,-19.25"/>
<polygon fill="#63b8ff" stroke="#63b8ff" points="1040.63,-104.69 1031.44,-109.97 1041.92,-111.57 1040.63,-104.69"/>
</g>
<!-- Node11 -->
<g id="node11" class="node">
<title>Node11</title>
<g id="a_node11"><a xlink:href="cardFactory_8cpp.html" target="_top" xlink:title=" ">
<polygon fill="white" stroke="#666666" points="1357.5,-19 1220.5,-19 1220.5,0 1357.5,0 1357.5,-19"/>
<text text-anchor="middle" x="1289" y="-7" font-family="Helvetica,sans-Serif" font-size="10.00">factories/cardFactory.cpp</text>
</a>
</g>
</g>
<!-- Node1&#45;&gt;Node11 -->
<g id="edge17" class="edge">
<title>Node1&#45;&gt;Node11</title>
<path fill="none" stroke="#63b8ff" d="M1026.7,-107.79C1062.06,-99.98 1109.41,-88.27 1150,-74 1195.8,-57.9 1247.15,-32.37 1272.71,-19.12"/>
<polygon fill="#63b8ff" stroke="#63b8ff" points="1025.62,-104.45 1016.6,-110 1027.11,-111.29 1025.62,-104.45"/>
</g>
<!-- Node12 -->
<g id="node12" class="node">
<title>Node12</title>
<g id="a_node12"><a xlink:href="gainAttackEffect_8h.html" target="_top" xlink:title=" ">
<polygon fill="white" stroke="#666666" points="1125,-74 983,-74 983,-55 1125,-55 1125,-74"/>
<text text-anchor="middle" x="1054" y="-62" font-family="Helvetica,sans-Serif" font-size="10.00">effects/gainAttackEffect.h</text>
</a>
</g>
</g>
<!-- Node1&#45;&gt;Node12 -->
<g id="edge12" class="edge">
<title>Node1&#45;&gt;Node12</title>
<path fill="none" stroke="#63b8ff" d="M995.25,-104.42C1009.76,-94.81 1028.54,-82.37 1040.91,-74.17"/>
<polygon fill="#63b8ff" stroke="#63b8ff" points="993.26,-101.54 986.85,-109.98 997.12,-107.38 993.26,-101.54"/>
</g>
<!-- Node3 -->
<g id="node3" class="node">
<title>Node3</title>
<g id="a_node3"><a xlink:href="combatContext_8cpp.html" target="_top" xlink:title=" ">
<polygon fill="white" stroke="#666666" points="152,-19 0,-19 0,0 152,0 152,-19"/>
<text text-anchor="middle" x="76" y="-7" font-family="Helvetica,sans-Serif" font-size="10.00">combat/combatContext.cpp</text>
</a>
</g>
</g>
<!-- Node2&#45;&gt;Node3 -->
<g id="edge2" class="edge">
<title>Node2&#45;&gt;Node3</title>
<path fill="none" stroke="#63b8ff" d="M516.76,-55.34C417.5,-45.24 249.74,-28.17 152.33,-18.26"/>
<polygon fill="#63b8ff" stroke="#63b8ff" points="516.43,-58.82 526.74,-56.35 517.14,-51.86 516.43,-58.82"/>
</g>
<!-- Node4 -->
<g id="node4" class="node">
<title>Node4</title>
<g id="a_node4"><a xlink:href="drawCardsEffect_8cpp.html" target="_top" xlink:title=" ">
<polygon fill="white" stroke="#666666" points="322,-19 170,-19 170,0 322,0 322,-19"/>
<text text-anchor="middle" x="246" y="-7" font-family="Helvetica,sans-Serif" font-size="10.00">effects/drawCardsEffect.cpp</text>
</a>
</g>
</g>
<!-- Node2&#45;&gt;Node4 -->
<g id="edge3" class="edge">
<title>Node2&#45;&gt;Node4</title>
<path fill="none" stroke="#63b8ff" d="M530.33,-53.43C464.42,-43.48 364.69,-28.42 302.54,-19.04"/>
<polygon fill="#63b8ff" stroke="#63b8ff" points="530.2,-56.95 540.61,-54.98 531.24,-50.03 530.2,-56.95"/>
</g>
<!-- Node5 -->
<g id="node5" class="node">
<title>Node5</title>
<g id="a_node5"><a xlink:href="gainActionsEffect_8cpp.html" target="_top" xlink:title=" ">
<polygon fill="white" stroke="#666666" points="498,-19 340,-19 340,0 498,0 498,-19"/>
<text text-anchor="middle" x="419" y="-7" font-family="Helvetica,sans-Serif" font-size="10.00">effects/gainActionsEffect.cpp</text>
</a>
</g>
</g>
<!-- Node2&#45;&gt;Node5 -->
<g id="edge4" class="edge">
<title>Node2&#45;&gt;Node5</title>
<path fill="none" stroke="#63b8ff" d="M558.56,-52.06C525.3,-42.15 477.92,-28.04 447.82,-19.08"/>
<polygon fill="#63b8ff" stroke="#63b8ff" points="557.82,-55.49 568.4,-54.98 559.82,-48.78 557.82,-55.49"/>
</g>
<!-- Node6 -->
<g id="node6" class="node">
<title>Node6</title>
<g id="a_node6"><a xlink:href="gainArmorEffect_8cpp.html" target="_top" xlink:title=" ">
<polygon fill="white" stroke="#666666" points="848,-19 696,-19 696,0 848,0 848,-19"/>
<text text-anchor="middle" x="772" y="-7" font-family="Helvetica,sans-Serif" font-size="10.00">effects/gainArmorEffect.cpp</text>
</a>
</g>
</g>
<!-- Node2&#45;&gt;Node6 -->
<g id="edge5" class="edge">
<title>Node2&#45;&gt;Node6</title>
<path fill="none" stroke="#63b8ff" d="M634.79,-52.06C667.5,-42.15 714.07,-28.04 743.66,-19.08"/>
<polygon fill="#63b8ff" stroke="#63b8ff" points="633.67,-48.74 625.12,-54.98 635.7,-55.44 633.67,-48.74"/>
</g>
<!-- Node7 -->
<g id="node7" class="node">
<title>Node7</title>
<g id="a_node7"><a xlink:href="gainAttackEffect_8cpp.html" target="_top" xlink:title=" ">
<polygon fill="white" stroke="#666666" points="1019.5,-19 866.5,-19 866.5,0 1019.5,0 1019.5,-19"/>
<text text-anchor="middle" x="943" y="-7" font-family="Helvetica,sans-Serif" font-size="10.00">effects/gainAttackEffect.cpp</text>
</a>
</g>
</g>
<!-- Node2&#45;&gt;Node7 -->
<g id="edge6" class="edge">
<title>Node2&#45;&gt;Node7</title>
<path fill="none" stroke="#63b8ff" d="M662.72,-53.43C727.69,-43.48 826,-28.42 887.26,-19.04"/>
<polygon fill="#63b8ff" stroke="#63b8ff" points="661.95,-50.01 652.59,-54.98 663.01,-56.93 661.95,-50.01"/>
</g>
<!-- Node2&#45;&gt;Node8 -->
<g id="edge7" class="edge">
<title>Node2&#45;&gt;Node8</title>
<path fill="none" stroke="#63b8ff" d="M597,-44.66C597,-35.93 597,-25.99 597,-19.09"/>
<polygon fill="#63b8ff" stroke="#63b8ff" points="593.5,-44.75 597,-54.75 600.5,-44.75 593.5,-44.75"/>
</g>
<!-- Node9&#45;&gt;Node6 -->
<g id="edge9" class="edge">
<title>Node9&#45;&gt;Node6</title>
<path fill="none" stroke="#63b8ff" d="M865.75,-50.9C843.03,-41.11 812.13,-27.79 792.12,-19.17"/>
<polygon fill="#63b8ff" stroke="#63b8ff" points="864.67,-54.24 875.24,-54.98 867.44,-47.81 864.67,-54.24"/>
</g>
<!-- Node9&#45;&gt;Node10 -->
<g id="edge10" class="edge">
<title>Node9&#45;&gt;Node10</title>
<path fill="none" stroke="#63b8ff" d="M940.89,-52.69C983.05,-42.76 1044.7,-28.24 1083.57,-19.08"/>
<polygon fill="#63b8ff" stroke="#63b8ff" points="940.08,-49.28 931.15,-54.98 941.69,-56.1 940.08,-49.28"/>
</g>
<!-- Node9&#45;&gt;Node11 -->
<g id="edge11" class="edge">
<title>Node9&#45;&gt;Node11</title>
<path fill="none" stroke="#63b8ff" d="M968.47,-53.62C1042.43,-43.67 1155.34,-28.48 1225.53,-19.04"/>
<polygon fill="#63b8ff" stroke="#63b8ff" points="967.75,-50.18 958.3,-54.98 968.68,-57.12 967.75,-50.18"/>
</g>
<!-- Node12&#45;&gt;Node7 -->
<g id="edge13" class="edge">
<title>Node12&#45;&gt;Node7</title>
<path fill="none" stroke="#63b8ff" d="M1027.05,-50.63C1006.61,-40.87 979.05,-27.71 961.16,-19.17"/>
<polygon fill="#63b8ff" stroke="#63b8ff" points="1025.63,-53.83 1036.17,-54.98 1028.65,-47.52 1025.63,-53.83"/>
</g>
<!-- Node12&#45;&gt;Node10 -->
<g id="edge14" class="edge">
<title>Node12&#45;&gt;Node10</title>
<path fill="none" stroke="#63b8ff" d="M1072.55,-48.6C1084.38,-39.11 1099.29,-27.13 1109.2,-19.17"/>
<polygon fill="#63b8ff" stroke="#63b8ff" points="1070.21,-45.99 1064.6,-54.98 1074.59,-51.45 1070.21,-45.99"/>
</g>
<!-- Node12&#45;&gt;Node11 -->
<g id="edge15" class="edge">
<title>Node12&#45;&gt;Node11</title>
<path fill="none" stroke="#63b8ff" d="M1101.65,-52.75C1145.69,-42.82 1210.27,-28.26 1250.95,-19.08"/>
<polygon fill="#63b8ff" stroke="#63b8ff" points="1100.74,-49.37 1091.76,-54.98 1102.28,-56.2 1100.74,-49.37"/>
</g>
</g>
</svg>
