<?xml version="1.0" encoding="UTF-8" standalone="no"?>
<!DOCTYPE svg PUBLIC "-//W3C//DTD SVG 1.1//EN"
 "http://www.w3.org/Graphics/SVG/1.1/DTD/svg11.dtd">
<!-- Generated by graphviz version 2.43.0 (0)
 -->
<!-- Title: deck/deckCombat.cpp Pages: 1 -->
<svg width="840pt" height="192pt"
 viewBox="0.00 0.00 839.50 192.00" xmlns="http://www.w3.org/2000/svg" xmlns:xlink="http://www.w3.org/1999/xlink">
<g id="graph0" class="graph" transform="scale(1 1) rotate(0) translate(4 188)">
<title>deck/deckCombat.cpp</title>
<!-- Node1 -->
<g id="node1" class="node">
<title>Node1</title>
<g id="a_node1"><a xlink:title=" ">
<polygon fill="#999999" stroke="#666666" points="468,-184 343,-184 343,-165 468,-165 468,-184"/>
<text text-anchor="middle" x="405.5" y="-172" font-family="Helvetica,sans-Serif" font-size="10.00">deck/deckCombat.cpp</text>
</a>
</g>
</g>
<!-- Node2 -->
<g id="node2" class="node">
<title>Node2</title>
<g id="a_node2"><a xlink:href="deckCombat_8h.html" target="_top" xlink:title=" ">
<polygon fill="white" stroke="#666666" points="236,-129 149,-129 149,-110 236,-110 236,-129"/>
<text text-anchor="middle" x="192.5" y="-117" font-family="Helvetica,sans-Serif" font-size="10.00">deckCombat.h</text>
</a>
</g>
</g>
<!-- Node1&#45;&gt;Node2 -->
<g id="edge1" class="edge">
<title>Node1&#45;&gt;Node2</title>
<path fill="none" stroke="#63b8ff" d="M371.28,-164.98C334.74,-155.89 276.72,-141.46 236.74,-131.51"/>
<polygon fill="#63b8ff" stroke="#63b8ff" points="237.54,-128.1 226.99,-129.08 235.85,-134.89 237.54,-128.1"/>
</g>
<!-- Node6 -->
<g id="node6" class="node">
<title>Node6</title>
<g id="a_node6"><a xlink:href="cardDefinition_8h.html" target="_top" xlink:title=" ">
<polygon fill="white" stroke="#666666" points="377,-129 254,-129 254,-110 377,-110 377,-129"/>
<text text-anchor="middle" x="315.5" y="-117" font-family="Helvetica,sans-Serif" font-size="10.00">cards/cardDefinition.h</text>
</a>
</g>
</g>
<!-- Node1&#45;&gt;Node6 -->
<g id="edge5" class="edge">
<title>Node1&#45;&gt;Node6</title>
<path fill="none" stroke="#63b8ff" d="M391.04,-164.98C377.08,-156.77 355.71,-144.18 339.25,-134.49"/>
<polygon fill="#63b8ff" stroke="#63b8ff" points="340.62,-131.23 330.22,-129.17 337.06,-137.26 340.62,-131.23"/>
</g>
<!-- Node8 -->
<g id="node8" class="node">
<title>Node8</title>
<g id="a_node8"><a xlink:href="cardInstance_8h.html" target="_top" xlink:title=" ">
<polygon fill="white" stroke="#666666" points="648,-129 531,-129 531,-110 648,-110 648,-129"/>
<text text-anchor="middle" x="589.5" y="-117" font-family="Helvetica,sans-Serif" font-size="10.00">cards/cardInstance.h</text>
</a>
</g>
</g>
<!-- Node1&#45;&gt;Node8 -->
<g id="edge10" class="edge">
<title>Node1&#45;&gt;Node8</title>
<path fill="none" stroke="#63b8ff" d="M435.06,-164.98C466.22,-156.01 515.47,-141.82 549.96,-131.89"/>
<polygon fill="#63b8ff" stroke="#63b8ff" points="551.07,-135.21 559.71,-129.08 549.13,-128.49 551.07,-135.21"/>
</g>
<!-- Node10 -->
<g id="node10" class="node">
<title>Node10</title>
<g id="a_node10"><a xlink:href="deckEntry_8h.html" target="_top" xlink:title=" ">
<polygon fill="white" stroke="#666666" points="417,-74 344,-74 344,-55 417,-55 417,-74"/>
<text text-anchor="middle" x="380.5" y="-62" font-family="Helvetica,sans-Serif" font-size="10.00">deckEntry.h</text>
</a>
</g>
</g>
<!-- Node1&#45;&gt;Node10 -->
<g id="edge13" class="edge">
<title>Node1&#45;&gt;Node10</title>
<path fill="none" stroke="#63b8ff" d="M403.45,-164.66C399.39,-147.09 390.21,-107.45 384.77,-83.95"/>
<polygon fill="#63b8ff" stroke="#63b8ff" points="388.17,-83.11 382.5,-74.16 381.35,-84.69 388.17,-83.11"/>
</g>
<!-- Node11 -->
<g id="node11" class="node">
<title>Node11</title>
<g id="a_node11"><a xlink:href="deckPlayer_8h.html" target="_top" xlink:title=" ">
<polygon fill="white" stroke="#666666" points="513,-129 434,-129 434,-110 513,-110 513,-129"/>
<text text-anchor="middle" x="473.5" y="-117" font-family="Helvetica,sans-Serif" font-size="10.00">deckPlayer.h</text>
</a>
</g>
</g>
<!-- Node1&#45;&gt;Node11 -->
<g id="edge15" class="edge">
<title>Node1&#45;&gt;Node11</title>
<path fill="none" stroke="#63b8ff" d="M416.43,-164.98C426.58,-157.07 441.92,-145.11 454.15,-135.58"/>
<polygon fill="#63b8ff" stroke="#63b8ff" points="456.64,-138.08 462.38,-129.17 452.34,-132.56 456.64,-138.08"/>
</g>
<!-- Node14 -->
<g id="node14" class="node">
<title>Node14</title>
<g id="a_node14"><a xlink:href="ICardFactory_8h.html" target="_top" xlink:title=" ">
<polygon fill="white" stroke="#666666" points="131,-129 0,-129 0,-110 131,-110 131,-129"/>
<text text-anchor="middle" x="65.5" y="-117" font-family="Helvetica,sans-Serif" font-size="10.00">factories/ICardFactory.h</text>
</a>
</g>
</g>
<!-- Node1&#45;&gt;Node14 -->
<g id="edge23" class="edge">
<title>Node1&#45;&gt;Node14</title>
<path fill="none" stroke="#63b8ff" d="M350.87,-164.98C290.74,-155.61 194.13,-140.55 130.24,-130.59"/>
<polygon fill="#63b8ff" stroke="#63b8ff" points="130.69,-127.12 120.27,-129.04 129.61,-134.04 130.69,-127.12"/>
</g>
<!-- Node15 -->
<g id="node15" class="node">
<title>Node15</title>
<g id="a_node15"><a xlink:href="debug_8h.html" target="_top" xlink:title=" ">
<polygon fill="white" stroke="#666666" points="789.5,-129 715.5,-129 715.5,-110 789.5,-110 789.5,-129"/>
<text text-anchor="middle" x="752.5" y="-117" font-family="Helvetica,sans-Serif" font-size="10.00">util/debug.h</text>
</a>
</g>
</g>
<!-- Node1&#45;&gt;Node15 -->
<g id="edge26" class="edge">
<title>Node1&#45;&gt;Node15</title>
<path fill="none" stroke="#63b8ff" d="M461.25,-164.98C528.76,-154.67 641.3,-137.48 704.91,-127.77"/>
<polygon fill="#63b8ff" stroke="#63b8ff" points="705.71,-131.19 715.07,-126.22 704.65,-124.27 705.71,-131.19"/>
</g>
<!-- Node3 -->
<g id="node3" class="node">
<title>Node3</title>
<g id="a_node3"><a xlink:title=" ">
<polygon fill="#e0e0e0" stroke="#999999" points="221.5,-74 163.5,-74 163.5,-55 221.5,-55 221.5,-74"/>
<text text-anchor="middle" x="192.5" y="-62" font-family="Helvetica,sans-Serif" font-size="10.00">memory</text>
</a>
</g>
</g>
<!-- Node2&#45;&gt;Node3 -->
<g id="edge2" class="edge">
<title>Node2&#45;&gt;Node3</title>
<path fill="none" stroke="#63b8ff" d="M192.5,-109.75C192.5,-102.8 192.5,-92.85 192.5,-84.13"/>
<polygon fill="#63b8ff" stroke="#63b8ff" points="196,-84.09 192.5,-74.09 189,-84.09 196,-84.09"/>
</g>
<!-- Node4 -->
<g id="node4" class="node">
<title>Node4</title>
<g id="a_node4"><a xlink:title=" ">
<polygon fill="#e0e0e0" stroke="#999999" points="337.5,-19 293.5,-19 293.5,0 337.5,0 337.5,-19"/>
<text text-anchor="middle" x="315.5" y="-7" font-family="Helvetica,sans-Serif" font-size="10.00">string</text>
</a>
</g>
</g>
<!-- Node2&#45;&gt;Node4 -->
<g id="edge3" class="edge">
<title>Node2&#45;&gt;Node4</title>
<path fill="none" stroke="#63b8ff" d="M180.74,-109.9C164.97,-97.32 140.49,-73.4 154.5,-55 170,-34.63 240.69,-21.19 283.08,-14.81"/>
<polygon fill="#63b8ff" stroke="#63b8ff" points="283.8,-18.24 293.19,-13.34 282.79,-11.32 283.8,-18.24"/>
</g>
<!-- Node5 -->
<g id="node5" class="node">
<title>Node5</title>
<g id="a_node5"><a xlink:title=" ">
<polygon fill="#e0e0e0" stroke="#999999" points="287,-74 240,-74 240,-55 287,-55 287,-74"/>
<text text-anchor="middle" x="263.5" y="-62" font-family="Helvetica,sans-Serif" font-size="10.00">vector</text>
</a>
</g>
</g>
<!-- Node2&#45;&gt;Node5 -->
<g id="edge4" class="edge">
<title>Node2&#45;&gt;Node5</title>
<path fill="none" stroke="#63b8ff" d="M203.91,-109.98C214.61,-102 230.84,-89.88 243.66,-80.31"/>
<polygon fill="#63b8ff" stroke="#63b8ff" points="245.97,-82.96 251.89,-74.17 241.78,-77.35 245.97,-82.96"/>
</g>
<!-- Node6&#45;&gt;Node3 -->
<g id="edge6" class="edge">
<title>Node6&#45;&gt;Node3</title>
<path fill="none" stroke="#63b8ff" d="M295.74,-109.98C275.77,-101.38 244.7,-87.99 221.85,-78.15"/>
<polygon fill="#63b8ff" stroke="#63b8ff" points="223.19,-74.91 212.62,-74.17 220.42,-81.34 223.19,-74.91"/>
</g>
<!-- Node6&#45;&gt;Node4 -->
<g id="edge7" class="edge">
<title>Node6&#45;&gt;Node4</title>
<path fill="none" stroke="#63b8ff" d="M315.5,-109.66C315.5,-92.17 315.5,-52.8 315.5,-29.27"/>
<polygon fill="#63b8ff" stroke="#63b8ff" points="319,-29.16 315.5,-19.16 312,-29.16 319,-29.16"/>
</g>
<!-- Node6&#45;&gt;Node5 -->
<g id="edge9" class="edge">
<title>Node6&#45;&gt;Node5</title>
<path fill="none" stroke="#63b8ff" d="M306.91,-109.75C299.34,-102.03 288.12,-90.6 278.99,-81.28"/>
<polygon fill="#63b8ff" stroke="#63b8ff" points="281.43,-78.78 271.93,-74.09 276.43,-83.68 281.43,-78.78"/>
</g>
<!-- Node7 -->
<g id="node7" class="node">
<title>Node7</title>
<g id="a_node7"><a xlink:title=" ">
<polygon fill="#e0e0e0" stroke="#999999" points="547,-74 474,-74 474,-55 547,-55 547,-74"/>
<text text-anchor="middle" x="510.5" y="-62" font-family="Helvetica,sans-Serif" font-size="10.00">string_view</text>
</a>
</g>
</g>
<!-- Node6&#45;&gt;Node7 -->
<g id="edge8" class="edge">
<title>Node6&#45;&gt;Node7</title>
<path fill="none" stroke="#63b8ff" d="M346.83,-109.98C379.99,-100.97 432.5,-86.7 469.06,-76.76"/>
<polygon fill="#63b8ff" stroke="#63b8ff" points="470.19,-80.08 478.92,-74.08 468.36,-73.33 470.19,-80.08"/>
</g>
<!-- Node8&#45;&gt;Node7 -->
<g id="edge12" class="edge">
<title>Node8&#45;&gt;Node7</title>
<path fill="none" stroke="#63b8ff" d="M576.81,-109.98C564.67,-101.84 546.14,-89.41 531.75,-79.76"/>
<polygon fill="#63b8ff" stroke="#63b8ff" points="533.68,-76.84 523.42,-74.17 529.78,-82.65 533.68,-76.84"/>
</g>
<!-- Node9 -->
<g id="node9" class="node">
<title>Node9</title>
<g id="a_node9"><a xlink:href="effectParams_8h.html" target="_top" xlink:title=" ">
<polygon fill="white" stroke="#666666" points="753,-74 628,-74 628,-55 753,-55 753,-74"/>
<text text-anchor="middle" x="690.5" y="-62" font-family="Helvetica,sans-Serif" font-size="10.00">effects/effectParams.h</text>
</a>
</g>
</g>
<!-- Node8&#45;&gt;Node9 -->
<g id="edge11" class="edge">
<title>Node8&#45;&gt;Node9</title>
<path fill="none" stroke="#63b8ff" d="M605.73,-109.98C621.68,-101.61 646.28,-88.7 664.88,-78.95"/>
<polygon fill="#63b8ff" stroke="#63b8ff" points="666.75,-81.92 673.98,-74.17 663.5,-75.72 666.75,-81.92"/>
</g>
<!-- Node10&#45;&gt;Node4 -->
<g id="edge14" class="edge">
<title>Node10&#45;&gt;Node4</title>
<path fill="none" stroke="#63b8ff" d="M370.06,-54.98C360.35,-47.07 345.68,-35.11 334,-25.58"/>
<polygon fill="#63b8ff" stroke="#63b8ff" points="336.1,-22.78 326.13,-19.17 331.67,-28.2 336.1,-22.78"/>
</g>
<!-- Node11&#45;&gt;Node3 -->
<g id="edge18" class="edge">
<title>Node11&#45;&gt;Node3</title>
<path fill="none" stroke="#63b8ff" d="M433.84,-111.73C387.64,-103.73 308.76,-89.74 231.43,-74.13"/>
<polygon fill="#63b8ff" stroke="#63b8ff" points="232.02,-70.67 221.52,-72.11 230.63,-77.53 232.02,-70.67"/>
</g>
<!-- Node11&#45;&gt;Node4 -->
<g id="edge19" class="edge">
<title>Node11&#45;&gt;Node4</title>
<path fill="none" stroke="#63b8ff" d="M469.03,-109.93C461.65,-96.51 445.68,-70.47 425.5,-55 402.14,-37.1 370.6,-25.32 347.28,-18.4"/>
<polygon fill="#63b8ff" stroke="#63b8ff" points="348.09,-15 337.52,-15.65 346.19,-21.73 348.09,-15"/>
</g>
<!-- Node11&#45;&gt;Node5 -->
<g id="edge22" class="edge">
<title>Node11&#45;&gt;Node5</title>
<path fill="none" stroke="#63b8ff" d="M439.76,-109.98C400.49,-100.07 336.03,-83.81 296.9,-73.93"/>
<polygon fill="#63b8ff" stroke="#63b8ff" points="297.61,-70.5 287.06,-71.45 295.9,-77.29 297.61,-70.5"/>
</g>
<!-- Node11&#45;&gt;Node7 -->
<g id="edge20" class="edge">
<title>Node11&#45;&gt;Node7</title>
<path fill="none" stroke="#63b8ff" d="M479.61,-109.75C484.78,-102.34 492.35,-91.5 498.69,-82.41"/>
<polygon fill="#63b8ff" stroke="#63b8ff" points="501.65,-84.29 504.5,-74.09 495.91,-80.29 501.65,-84.29"/>
</g>
<!-- Node11&#45;&gt;Node10 -->
<g id="edge16" class="edge">
<title>Node11&#45;&gt;Node10</title>
<path fill="none" stroke="#63b8ff" d="M458.56,-109.98C444,-101.69 421.63,-88.94 404.57,-79.22"/>
<polygon fill="#63b8ff" stroke="#63b8ff" points="406.14,-76.08 395.71,-74.17 402.67,-82.16 406.14,-76.08"/>
</g>
<!-- Node12 -->
<g id="node12" class="node">
<title>Node12</title>
<g id="a_node12"><a xlink:title=" ">
<polygon fill="#e0e0e0" stroke="#999999" points="831.5,-74 771.5,-74 771.5,-55 831.5,-55 831.5,-74"/>
<text text-anchor="middle" x="801.5" y="-62" font-family="Helvetica,sans-Serif" font-size="10.00">iostream</text>
</a>
</g>
</g>
<!-- Node11&#45;&gt;Node12 -->
<g id="edge17" class="edge">
<title>Node11&#45;&gt;Node12</title>
<path fill="none" stroke="#63b8ff" d="M513.04,-111.41C515.9,-110.93 518.74,-110.45 521.5,-110 627.95,-92.59 655.37,-93.22 761.5,-74 761.6,-73.98 761.7,-73.96 761.8,-73.95"/>
<polygon fill="#63b8ff" stroke="#63b8ff" points="762.24,-77.43 771.4,-72.1 760.92,-70.55 762.24,-77.43"/>
</g>
<!-- Node13 -->
<g id="node13" class="node">
<title>Node13</title>
<g id="a_node13"><a xlink:title=" ">
<polygon fill="#e0e0e0" stroke="#999999" points="610,-74 565,-74 565,-55 610,-55 610,-74"/>
<text text-anchor="middle" x="587.5" y="-62" font-family="Helvetica,sans-Serif" font-size="10.00">utility</text>
</a>
</g>
</g>
<!-- Node11&#45;&gt;Node13 -->
<g id="edge21" class="edge">
<title>Node11&#45;&gt;Node13</title>
<path fill="none" stroke="#63b8ff" d="M491.82,-109.98C510.16,-101.46 538.61,-88.23 559.73,-78.41"/>
<polygon fill="#63b8ff" stroke="#63b8ff" points="561.26,-81.56 568.85,-74.17 558.31,-75.21 561.26,-81.56"/>
</g>
<!-- Node14&#45;&gt;Node3 -->
<g id="edge24" class="edge">
<title>Node14&#45;&gt;Node3</title>
<path fill="none" stroke="#63b8ff" d="M85.9,-109.98C106.52,-101.38 138.61,-87.99 162.19,-78.15"/>
<polygon fill="#63b8ff" stroke="#63b8ff" points="163.84,-81.25 171.72,-74.17 161.15,-74.79 163.84,-81.25"/>
</g>
<!-- Node14&#45;&gt;Node4 -->
<g id="edge25" class="edge">
<title>Node14&#45;&gt;Node4</title>
<path fill="none" stroke="#63b8ff" d="M74.13,-109.73C88.09,-96.03 117.06,-69.63 146.5,-55 191.19,-32.79 248.22,-20.75 283.28,-14.98"/>
<polygon fill="#63b8ff" stroke="#63b8ff" points="284.09,-18.4 293.42,-13.39 283,-11.48 284.09,-18.4"/>
</g>
<!-- Node15&#45;&gt;Node12 -->
<g id="edge27" class="edge">
<title>Node15&#45;&gt;Node12</title>
<path fill="none" stroke="#63b8ff" d="M760.59,-109.75C767.66,-102.11 778.09,-90.82 786.65,-81.56"/>
<polygon fill="#63b8ff" stroke="#63b8ff" points="789.34,-83.81 793.56,-74.09 784.2,-79.06 789.34,-83.81"/>
</g>
</g>
</svg>
