<?xml version="1.0" encoding="UTF-8" standalone="no"?>
<!DOCTYPE svg PUBLIC "-//W3C//DTD SVG 1.1//EN"
 "http://www.w3.org/Graphics/SVG/1.1/DTD/svg11.dtd">
<!-- Generated by graphviz version 2.43.0 (0)
 -->
<!-- Title: deck/deckPlayer.h Pages: 1 -->
<svg width="585pt" height="192pt"
 viewBox="0.00 0.00 584.50 192.00" xmlns="http://www.w3.org/2000/svg" xmlns:xlink="http://www.w3.org/1999/xlink">
<g id="graph0" class="graph" transform="scale(1 1) rotate(0) translate(4 188)">
<title>deck/deckPlayer.h</title>
<!-- Node1 -->
<g id="node1" class="node">
<title>Node1</title>
<g id="a_node1"><a xlink:title=" ">
<polygon fill="#999999" stroke="#666666" points="254,-184 149,-184 149,-165 254,-165 254,-184"/>
<text text-anchor="middle" x="201.5" y="-172" font-family="Helvetica,sans-Serif" font-size="10.00">deck/deckPlayer.h</text>
</a>
</g>
</g>
<!-- Node2 -->
<g id="node2" class="node">
<title>Node2</title>
<g id="a_node2"><a xlink:href="deckCombat_8cpp.html" target="_top" xlink:title=" ">
<polygon fill="white" stroke="#666666" points="125,-129 0,-129 0,-110 125,-110 125,-129"/>
<text text-anchor="middle" x="62.5" y="-117" font-family="Helvetica,sans-Serif" font-size="10.00">deck/deckCombat.cpp</text>
</a>
</g>
</g>
<!-- Node1&#45;&gt;Node2 -->
<g id="edge1" class="edge">
<title>Node1&#45;&gt;Node2</title>
<path fill="none" stroke="#63b8ff" d="M169.82,-161.42C144.03,-151.59 108.26,-137.95 85.24,-129.17"/>
<polygon fill="#63b8ff" stroke="#63b8ff" points="168.58,-164.69 179.17,-164.98 171.07,-158.15 168.58,-164.69"/>
</g>
<!-- Node3 -->
<g id="node3" class="node">
<title>Node3</title>
<g id="a_node3"><a xlink:href="deckPlayer_8cpp.html" target="_top" xlink:title=" ">
<polygon fill="white" stroke="#666666" points="259.5,-129 143.5,-129 143.5,-110 259.5,-110 259.5,-129"/>
<text text-anchor="middle" x="201.5" y="-117" font-family="Helvetica,sans-Serif" font-size="10.00">deck/deckPlayer.cpp</text>
</a>
</g>
</g>
<!-- Node1&#45;&gt;Node3 -->
<g id="edge2" class="edge">
<title>Node1&#45;&gt;Node3</title>
<path fill="none" stroke="#63b8ff" d="M201.5,-154.66C201.5,-145.93 201.5,-135.99 201.5,-129.09"/>
<polygon fill="#63b8ff" stroke="#63b8ff" points="198,-154.75 201.5,-164.75 205,-154.75 198,-154.75"/>
</g>
<!-- Node4 -->
<g id="node4" class="node">
<title>Node4</title>
<g id="a_node4"><a xlink:href="player_8h.html" target="_top" xlink:title=" ">
<polygon fill="white" stroke="#666666" points="373,-129 278,-129 278,-110 373,-110 373,-129"/>
<text text-anchor="middle" x="325.5" y="-117" font-family="Helvetica,sans-Serif" font-size="10.00">entities/player.h</text>
</a>
</g>
</g>
<!-- Node1&#45;&gt;Node4 -->
<g id="edge3" class="edge">
<title>Node1&#45;&gt;Node4</title>
<path fill="none" stroke="#63b8ff" d="M230.68,-161.03C253.61,-151.23 284.95,-137.83 305.21,-129.17"/>
<polygon fill="#63b8ff" stroke="#63b8ff" points="229.24,-157.84 221.42,-164.98 231.99,-164.27 229.24,-157.84"/>
</g>
<!-- Node5 -->
<g id="node5" class="node">
<title>Node5</title>
<g id="a_node5"><a xlink:href="player_8cpp.html" target="_top" xlink:title=" ">
<polygon fill="white" stroke="#666666" points="227,-74 120,-74 120,-55 227,-55 227,-74"/>
<text text-anchor="middle" x="173.5" y="-62" font-family="Helvetica,sans-Serif" font-size="10.00">entities/player.cpp</text>
</a>
</g>
</g>
<!-- Node4&#45;&gt;Node5 -->
<g id="edge4" class="edge">
<title>Node4&#45;&gt;Node5</title>
<path fill="none" stroke="#63b8ff" d="M291.57,-106.67C263.23,-96.79 223.48,-82.93 198.11,-74.08"/>
<polygon fill="#63b8ff" stroke="#63b8ff" points="290.48,-110 301.08,-109.98 292.79,-103.39 290.48,-110"/>
</g>
<!-- Node6 -->
<g id="node6" class="node">
<title>Node6</title>
<g id="a_node6"><a xlink:href="cardmatch_8cpp.html" target="_top" xlink:title=" ">
<polygon fill="white" stroke="#666666" points="406,-74 245,-74 245,-55 406,-55 406,-74"/>
<text text-anchor="middle" x="325.5" y="-62" font-family="Helvetica,sans-Serif" font-size="10.00">game_system/cardmatch.cpp</text>
</a>
</g>
</g>
<!-- Node4&#45;&gt;Node6 -->
<g id="edge5" class="edge">
<title>Node4&#45;&gt;Node6</title>
<path fill="none" stroke="#63b8ff" d="M325.5,-99.66C325.5,-90.93 325.5,-80.99 325.5,-74.09"/>
<polygon fill="#63b8ff" stroke="#63b8ff" points="322,-99.75 325.5,-109.75 329,-99.75 322,-99.75"/>
</g>
<!-- Node7 -->
<g id="node7" class="node">
<title>Node7</title>
<g id="a_node7"><a xlink:href="game_8h.html" target="_top" xlink:title=" ">
<polygon fill="white" stroke="#666666" points="549,-74 424,-74 424,-55 549,-55 549,-74"/>
<text text-anchor="middle" x="486.5" y="-62" font-family="Helvetica,sans-Serif" font-size="10.00">game_system/game.h</text>
</a>
</g>
</g>
<!-- Node4&#45;&gt;Node7 -->
<g id="edge6" class="edge">
<title>Node4&#45;&gt;Node7</title>
<path fill="none" stroke="#63b8ff" d="M361.05,-106.8C391.09,-96.91 433.44,-82.97 460.43,-74.08"/>
<polygon fill="#63b8ff" stroke="#63b8ff" points="359.77,-103.53 351.37,-109.98 361.96,-110.18 359.77,-103.53"/>
</g>
<!-- Node8 -->
<g id="node8" class="node">
<title>Node8</title>
<g id="a_node8"><a xlink:href="game_8cpp.html" target="_top" xlink:title=" ">
<polygon fill="white" stroke="#666666" points="496,-19 359,-19 359,0 496,0 496,-19"/>
<text text-anchor="middle" x="427.5" y="-7" font-family="Helvetica,sans-Serif" font-size="10.00">game_system/game.cpp</text>
</a>
</g>
</g>
<!-- Node7&#45;&gt;Node8 -->
<g id="edge7" class="edge">
<title>Node7&#45;&gt;Node8</title>
<path fill="none" stroke="#63b8ff" d="M469.3,-48.04C458.83,-38.64 445.85,-26.98 437.15,-19.17"/>
<polygon fill="#63b8ff" stroke="#63b8ff" points="467.24,-50.91 477.02,-54.98 471.92,-45.7 467.24,-50.91"/>
</g>
<!-- Node9 -->
<g id="node9" class="node">
<title>Node9</title>
<g id="a_node9"><a xlink:href="main_8cpp.html" target="_top" xlink:title=" ">
<polygon fill="white" stroke="#666666" points="576.5,-19 514.5,-19 514.5,0 576.5,0 576.5,-19"/>
<text text-anchor="middle" x="545.5" y="-7" font-family="Helvetica,sans-Serif" font-size="10.00">main.cpp</text>
</a>
</g>
</g>
<!-- Node7&#45;&gt;Node9 -->
<g id="edge8" class="edge">
<title>Node7&#45;&gt;Node9</title>
<path fill="none" stroke="#63b8ff" d="M503.7,-48.04C514.17,-38.64 527.15,-26.98 535.85,-19.17"/>
<polygon fill="#63b8ff" stroke="#63b8ff" points="501.08,-45.7 495.98,-54.98 505.76,-50.91 501.08,-45.7"/>
</g>
</g>
</svg>
