<?xml version="1.0" encoding="UTF-8" standalone="no"?>
<!DOCTYPE svg PUBLIC "-//W3C//DTD SVG 1.1//EN"
 "http://www.w3.org/Graphics/SVG/1.1/DTD/svg11.dtd">
<!-- Generated by graphviz version 2.43.0 (0)
 -->
<!-- Title: deck/deckEntry.h Pages: 1 -->
<svg width="666pt" height="247pt"
 viewBox="0.00 0.00 665.50 247.00" xmlns="http://www.w3.org/2000/svg" xmlns:xlink="http://www.w3.org/1999/xlink">
<g id="graph0" class="graph" transform="scale(1 1) rotate(0) translate(4 243)">
<title>deck/deckEntry.h</title>
<!-- Node1 -->
<g id="node1" class="node">
<title>Node1</title>
<g id="a_node1"><a xlink:title=" ">
<polygon fill="#999999" stroke="#666666" points="251,-239 152,-239 152,-220 251,-220 251,-239"/>
<text text-anchor="middle" x="201.5" y="-227" font-family="Helvetica,sans-Serif" font-size="10.00">deck/deckEntry.h</text>
</a>
</g>
</g>
<!-- Node2 -->
<g id="node2" class="node">
<title>Node2</title>
<g id="a_node2"><a xlink:href="deckCombat_8cpp.html" target="_top" xlink:title=" ">
<polygon fill="white" stroke="#666666" points="125,-129 0,-129 0,-110 125,-110 125,-129"/>
<text text-anchor="middle" x="62.5" y="-117" font-family="Helvetica,sans-Serif" font-size="10.00">deck/deckCombat.cpp</text>
</a>
</g>
</g>
<!-- Node1&#45;&gt;Node2 -->
<g id="edge1" class="edge">
<title>Node1&#45;&gt;Node2</title>
<path fill="none" stroke="#63b8ff" d="M180.44,-213.91C168.32,-205.38 152.89,-194.3 139.5,-184 115.06,-165.19 87.38,-141.84 72.78,-129.35"/>
<polygon fill="#63b8ff" stroke="#63b8ff" points="178.77,-217.01 188.97,-219.88 182.78,-211.28 178.77,-217.01"/>
</g>
<!-- Node3 -->
<g id="node3" class="node">
<title>Node3</title>
<g id="a_node3"><a xlink:href="deckPlayer_8h.html" target="_top" xlink:title=" ">
<polygon fill="white" stroke="#666666" points="254,-184 149,-184 149,-165 254,-165 254,-184"/>
<text text-anchor="middle" x="201.5" y="-172" font-family="Helvetica,sans-Serif" font-size="10.00">deck/deckPlayer.h</text>
</a>
</g>
</g>
<!-- Node1&#45;&gt;Node3 -->
<g id="edge2" class="edge">
<title>Node1&#45;&gt;Node3</title>
<path fill="none" stroke="#63b8ff" d="M201.5,-209.66C201.5,-200.93 201.5,-190.99 201.5,-184.09"/>
<polygon fill="#63b8ff" stroke="#63b8ff" points="198,-209.75 201.5,-219.75 205,-209.75 198,-209.75"/>
</g>
<!-- Node5 -->
<g id="node5" class="node">
<title>Node5</title>
<g id="a_node5"><a xlink:href="player_8h.html" target="_top" xlink:title=" ">
<polygon fill="white" stroke="#666666" points="373,-129 278,-129 278,-110 373,-110 373,-129"/>
<text text-anchor="middle" x="325.5" y="-117" font-family="Helvetica,sans-Serif" font-size="10.00">entities/player.h</text>
</a>
</g>
</g>
<!-- Node1&#45;&gt;Node5 -->
<g id="edge12" class="edge">
<title>Node1&#45;&gt;Node5</title>
<path fill="none" stroke="#63b8ff" d="M223.05,-214.04C235.02,-205.7 249.98,-194.76 262.5,-184 283.7,-165.78 306.23,-141.79 317.75,-129.15"/>
<polygon fill="#63b8ff" stroke="#63b8ff" points="220.83,-211.32 214.57,-219.86 224.79,-217.09 220.83,-211.32"/>
</g>
<!-- Node3&#45;&gt;Node2 -->
<g id="edge3" class="edge">
<title>Node3&#45;&gt;Node2</title>
<path fill="none" stroke="#63b8ff" d="M169.82,-161.42C144.03,-151.59 108.26,-137.95 85.24,-129.17"/>
<polygon fill="#63b8ff" stroke="#63b8ff" points="168.58,-164.69 179.17,-164.98 171.07,-158.15 168.58,-164.69"/>
</g>
<!-- Node4 -->
<g id="node4" class="node">
<title>Node4</title>
<g id="a_node4"><a xlink:href="deckPlayer_8cpp.html" target="_top" xlink:title=" ">
<polygon fill="white" stroke="#666666" points="259.5,-129 143.5,-129 143.5,-110 259.5,-110 259.5,-129"/>
<text text-anchor="middle" x="201.5" y="-117" font-family="Helvetica,sans-Serif" font-size="10.00">deck/deckPlayer.cpp</text>
</a>
</g>
</g>
<!-- Node3&#45;&gt;Node4 -->
<g id="edge4" class="edge">
<title>Node3&#45;&gt;Node4</title>
<path fill="none" stroke="#63b8ff" d="M201.5,-154.66C201.5,-145.93 201.5,-135.99 201.5,-129.09"/>
<polygon fill="#63b8ff" stroke="#63b8ff" points="198,-154.75 201.5,-164.75 205,-154.75 198,-154.75"/>
</g>
<!-- Node3&#45;&gt;Node5 -->
<g id="edge5" class="edge">
<title>Node3&#45;&gt;Node5</title>
<path fill="none" stroke="#63b8ff" d="M230.68,-161.03C253.61,-151.23 284.95,-137.83 305.21,-129.17"/>
<polygon fill="#63b8ff" stroke="#63b8ff" points="229.24,-157.84 221.42,-164.98 231.99,-164.27 229.24,-157.84"/>
</g>
<!-- Node6 -->
<g id="node6" class="node">
<title>Node6</title>
<g id="a_node6"><a xlink:href="player_8cpp.html" target="_top" xlink:title=" ">
<polygon fill="white" stroke="#666666" points="141,-74 34,-74 34,-55 141,-55 141,-74"/>
<text text-anchor="middle" x="87.5" y="-62" font-family="Helvetica,sans-Serif" font-size="10.00">entities/player.cpp</text>
</a>
</g>
</g>
<!-- Node5&#45;&gt;Node6 -->
<g id="edge6" class="edge">
<title>Node5&#45;&gt;Node6</title>
<path fill="none" stroke="#63b8ff" d="M277.24,-107.75C232.64,-97.82 167.24,-83.26 126.04,-74.08"/>
<polygon fill="#63b8ff" stroke="#63b8ff" points="276.74,-111.23 287.26,-109.98 278.26,-104.39 276.74,-111.23"/>
</g>
<!-- Node7 -->
<g id="node7" class="node">
<title>Node7</title>
<g id="a_node7"><a xlink:href="cardmatch_8cpp.html" target="_top" xlink:title=" ">
<polygon fill="white" stroke="#666666" points="320,-74 159,-74 159,-55 320,-55 320,-74"/>
<text text-anchor="middle" x="239.5" y="-62" font-family="Helvetica,sans-Serif" font-size="10.00">game_system/cardmatch.cpp</text>
</a>
</g>
</g>
<!-- Node5&#45;&gt;Node7 -->
<g id="edge7" class="edge">
<title>Node5&#45;&gt;Node7</title>
<path fill="none" stroke="#63b8ff" d="M303.1,-104.7C287.43,-95.04 266.99,-82.44 253.57,-74.17"/>
<polygon fill="#63b8ff" stroke="#63b8ff" points="301.33,-107.72 311.68,-109.98 305.01,-101.76 301.33,-107.72"/>
</g>
<!-- Node8 -->
<g id="node8" class="node">
<title>Node8</title>
<g id="a_node8"><a xlink:href="cardmatch_8h.html" target="_top" xlink:title=" ">
<polygon fill="white" stroke="#666666" points="487,-74 338,-74 338,-55 487,-55 487,-74"/>
<text text-anchor="middle" x="412.5" y="-62" font-family="Helvetica,sans-Serif" font-size="10.00">game_system/cardmatch.h</text>
</a>
</g>
</g>
<!-- Node5&#45;&gt;Node8 -->
<g id="edge8" class="edge">
<title>Node5&#45;&gt;Node8</title>
<path fill="none" stroke="#63b8ff" d="M348.16,-104.7C364.01,-95.04 384.69,-82.44 398.27,-74.17"/>
<polygon fill="#63b8ff" stroke="#63b8ff" points="346.2,-101.79 339.48,-109.98 349.84,-107.77 346.2,-101.79"/>
</g>
<!-- Node9 -->
<g id="node9" class="node">
<title>Node9</title>
<g id="a_node9"><a xlink:href="game_8h.html" target="_top" xlink:title=" ">
<polygon fill="white" stroke="#666666" points="630,-74 505,-74 505,-55 630,-55 630,-74"/>
<text text-anchor="middle" x="567.5" y="-62" font-family="Helvetica,sans-Serif" font-size="10.00">game_system/game.h</text>
</a>
</g>
</g>
<!-- Node5&#45;&gt;Node9 -->
<g id="edge9" class="edge">
<title>Node5&#45;&gt;Node9</title>
<path fill="none" stroke="#63b8ff" d="M374.29,-107.82C419.64,-97.88 486.33,-83.28 528.31,-74.08"/>
<polygon fill="#63b8ff" stroke="#63b8ff" points="373.4,-104.43 364.38,-109.98 374.9,-111.26 373.4,-104.43"/>
</g>
<!-- Node10 -->
<g id="node10" class="node">
<title>Node10</title>
<g id="a_node10"><a xlink:href="game_8cpp.html" target="_top" xlink:title=" ">
<polygon fill="white" stroke="#666666" points="577,-19 440,-19 440,0 577,0 577,-19"/>
<text text-anchor="middle" x="508.5" y="-7" font-family="Helvetica,sans-Serif" font-size="10.00">game_system/game.cpp</text>
</a>
</g>
</g>
<!-- Node9&#45;&gt;Node10 -->
<g id="edge10" class="edge">
<title>Node9&#45;&gt;Node10</title>
<path fill="none" stroke="#63b8ff" d="M550.3,-48.04C539.83,-38.64 526.85,-26.98 518.15,-19.17"/>
<polygon fill="#63b8ff" stroke="#63b8ff" points="548.24,-50.91 558.02,-54.98 552.92,-45.7 548.24,-50.91"/>
</g>
<!-- Node11 -->
<g id="node11" class="node">
<title>Node11</title>
<g id="a_node11"><a xlink:href="main_8cpp.html" target="_top" xlink:title=" ">
<polygon fill="white" stroke="#666666" points="657.5,-19 595.5,-19 595.5,0 657.5,0 657.5,-19"/>
<text text-anchor="middle" x="626.5" y="-7" font-family="Helvetica,sans-Serif" font-size="10.00">main.cpp</text>
</a>
</g>
</g>
<!-- Node9&#45;&gt;Node11 -->
<g id="edge11" class="edge">
<title>Node9&#45;&gt;Node11</title>
<path fill="none" stroke="#63b8ff" d="M584.7,-48.04C595.17,-38.64 608.15,-26.98 616.85,-19.17"/>
<polygon fill="#63b8ff" stroke="#63b8ff" points="582.08,-45.7 576.98,-54.98 586.76,-50.91 582.08,-45.7"/>
</g>
</g>
</svg>
