<?xml version="1.0" encoding="UTF-8" standalone="no"?>
<!DOCTYPE svg PUBLIC "-//W3C//DTD SVG 1.1//EN"
 "http://www.w3.org/Graphics/SVG/1.1/DTD/svg11.dtd">
<!-- Generated by graphviz version 2.43.0 (0)
 -->
<!-- Title: deck/deckCombat.cpp Pages: 1 -->
<svg width="752pt" height="192pt"
 viewBox="0.00 0.00 751.50 192.00" xmlns="http://www.w3.org/2000/svg" xmlns:xlink="http://www.w3.org/1999/xlink">
<g id="graph0" class="graph" transform="scale(1 1) rotate(0) translate(4 188)">
<title>deck/deckCombat.cpp</title>
<!-- Node1 -->
<g id="node1" class="node">
<title>Node1</title>
<g id="a_node1"><a xlink:title=" ">
<polygon fill="#999999" stroke="#666666" points="516,-184 391,-184 391,-165 516,-165 516,-184"/>
<text text-anchor="middle" x="453.5" y="-172" font-family="Helvetica,sans-Serif" font-size="10.00">deck/deckCombat.cpp</text>
</a>
</g>
</g>
<!-- Node2 -->
<g id="node2" class="node">
<title>Node2</title>
<g id="a_node2"><a xlink:href="deckCombat_8h.html" target="_top" xlink:title=" ">
<polygon fill="white" stroke="#666666" points="236,-129 149,-129 149,-110 236,-110 236,-129"/>
<text text-anchor="middle" x="192.5" y="-117" font-family="Helvetica,sans-Serif" font-size="10.00">deckCombat.h</text>
</a>
</g>
</g>
<!-- Node1&#45;&gt;Node2 -->
<g id="edge1" class="edge">
<title>Node1&#45;&gt;Node2</title>
<path fill="none" stroke="#63b8ff" d="M411.57,-164.98C366.23,-155.78 293.89,-141.09 244.85,-131.13"/>
<polygon fill="#63b8ff" stroke="#63b8ff" points="245.26,-127.64 234.76,-129.08 243.87,-134.5 245.26,-127.64"/>
</g>
<!-- Node6 -->
<g id="node6" class="node">
<title>Node6</title>
<g id="a_node6"><a xlink:href="cardDefinition_8h.html" target="_top" xlink:title=" ">
<polygon fill="white" stroke="#666666" points="377,-129 254,-129 254,-110 377,-110 377,-129"/>
<text text-anchor="middle" x="315.5" y="-117" font-family="Helvetica,sans-Serif" font-size="10.00">cards/cardDefinition.h</text>
</a>
</g>
</g>
<!-- Node1&#45;&gt;Node6 -->
<g id="edge5" class="edge">
<title>Node1&#45;&gt;Node6</title>
<path fill="none" stroke="#63b8ff" d="M431.33,-164.98C408.73,-156.3 373.44,-142.75 347.75,-132.88"/>
<polygon fill="#63b8ff" stroke="#63b8ff" points="348.67,-129.49 338.08,-129.17 346.16,-136.02 348.67,-129.49"/>
</g>
<!-- Node8 -->
<g id="node8" class="node">
<title>Node8</title>
<g id="a_node8"><a xlink:href="cardInstance_8h.html" target="_top" xlink:title=" ">
<polygon fill="white" stroke="#666666" points="512,-129 395,-129 395,-110 512,-110 512,-129"/>
<text text-anchor="middle" x="453.5" y="-117" font-family="Helvetica,sans-Serif" font-size="10.00">cards/cardInstance.h</text>
</a>
</g>
</g>
<!-- Node1&#45;&gt;Node8 -->
<g id="edge10" class="edge">
<title>Node1&#45;&gt;Node8</title>
<path fill="none" stroke="#63b8ff" d="M453.5,-164.75C453.5,-157.8 453.5,-147.85 453.5,-139.13"/>
<polygon fill="#63b8ff" stroke="#63b8ff" points="457,-139.09 453.5,-129.09 450,-139.09 457,-139.09"/>
</g>
<!-- Node9 -->
<g id="node9" class="node">
<title>Node9</title>
<g id="a_node9"><a xlink:href="deckEntry_8h.html" target="_top" xlink:title=" ">
<polygon fill="white" stroke="#666666" points="662,-74 589,-74 589,-55 662,-55 662,-74"/>
<text text-anchor="middle" x="625.5" y="-62" font-family="Helvetica,sans-Serif" font-size="10.00">deckEntry.h</text>
</a>
</g>
</g>
<!-- Node1&#45;&gt;Node9 -->
<g id="edge12" class="edge">
<title>Node1&#45;&gt;Node9</title>
<path fill="none" stroke="#63b8ff" d="M510.06,-164.99C551.66,-157.53 603.32,-145.31 617.5,-129 628.08,-116.82 629.24,-98.03 628.25,-84.05"/>
<polygon fill="#63b8ff" stroke="#63b8ff" points="631.73,-83.63 627.14,-74.08 624.77,-84.41 631.73,-83.63"/>
</g>
<!-- Node10 -->
<g id="node10" class="node">
<title>Node10</title>
<g id="a_node10"><a xlink:href="deckPlayer_8h.html" target="_top" xlink:title=" ">
<polygon fill="white" stroke="#666666" points="609,-129 530,-129 530,-110 609,-110 609,-129"/>
<text text-anchor="middle" x="569.5" y="-117" font-family="Helvetica,sans-Serif" font-size="10.00">deckPlayer.h</text>
</a>
</g>
</g>
<!-- Node1&#45;&gt;Node10 -->
<g id="edge14" class="edge">
<title>Node1&#45;&gt;Node10</title>
<path fill="none" stroke="#63b8ff" d="M472.14,-164.98C490.8,-156.46 519.75,-143.23 541.24,-133.41"/>
<polygon fill="#63b8ff" stroke="#63b8ff" points="542.88,-136.51 550.52,-129.17 539.97,-130.14 542.88,-136.51"/>
</g>
<!-- Node13 -->
<g id="node13" class="node">
<title>Node13</title>
<g id="a_node13"><a xlink:href="ICardFactory_8h.html" target="_top" xlink:title=" ">
<polygon fill="white" stroke="#666666" points="131,-129 0,-129 0,-110 131,-110 131,-129"/>
<text text-anchor="middle" x="65.5" y="-117" font-family="Helvetica,sans-Serif" font-size="10.00">factories/ICardFactory.h</text>
</a>
</g>
</g>
<!-- Node1&#45;&gt;Node13 -->
<g id="edge22" class="edge">
<title>Node1&#45;&gt;Node13</title>
<path fill="none" stroke="#63b8ff" d="M391.16,-164.98C322.11,-155.55 210.93,-140.36 138.03,-130.41"/>
<polygon fill="#63b8ff" stroke="#63b8ff" points="138.39,-126.92 128.01,-129.04 137.44,-133.86 138.39,-126.92"/>
</g>
<!-- Node14 -->
<g id="node14" class="node">
<title>Node14</title>
<g id="a_node14"><a xlink:href="debug_8h.html" target="_top" xlink:title=" ">
<polygon fill="white" stroke="#666666" points="743.5,-129 669.5,-129 669.5,-110 743.5,-110 743.5,-129"/>
<text text-anchor="middle" x="706.5" y="-117" font-family="Helvetica,sans-Serif" font-size="10.00">util/debug.h</text>
</a>
</g>
</g>
<!-- Node1&#45;&gt;Node14 -->
<g id="edge25" class="edge">
<title>Node1&#45;&gt;Node14</title>
<path fill="none" stroke="#63b8ff" d="M494.15,-164.98C539.18,-155.55 611.68,-140.36 659.21,-130.41"/>
<polygon fill="#63b8ff" stroke="#63b8ff" points="660.18,-133.78 669.25,-128.3 658.74,-126.93 660.18,-133.78"/>
</g>
<!-- Node3 -->
<g id="node3" class="node">
<title>Node3</title>
<g id="a_node3"><a xlink:title=" ">
<polygon fill="#e0e0e0" stroke="#999999" points="273.5,-74 215.5,-74 215.5,-55 273.5,-55 273.5,-74"/>
<text text-anchor="middle" x="244.5" y="-62" font-family="Helvetica,sans-Serif" font-size="10.00">memory</text>
</a>
</g>
</g>
<!-- Node2&#45;&gt;Node3 -->
<g id="edge2" class="edge">
<title>Node2&#45;&gt;Node3</title>
<path fill="none" stroke="#63b8ff" d="M201.09,-109.75C208.66,-102.03 219.88,-90.6 229.01,-81.28"/>
<polygon fill="#63b8ff" stroke="#63b8ff" points="231.57,-83.68 236.07,-74.09 226.57,-78.78 231.57,-83.68"/>
</g>
<!-- Node4 -->
<g id="node4" class="node">
<title>Node4</title>
<g id="a_node4"><a xlink:title=" ">
<polygon fill="#e0e0e0" stroke="#999999" points="389.5,-19 345.5,-19 345.5,0 389.5,0 389.5,-19"/>
<text text-anchor="middle" x="367.5" y="-7" font-family="Helvetica,sans-Serif" font-size="10.00">string</text>
</a>
</g>
</g>
<!-- Node2&#45;&gt;Node4 -->
<g id="edge3" class="edge">
<title>Node2&#45;&gt;Node4</title>
<path fill="none" stroke="#63b8ff" d="M191.81,-109.83C191.23,-96.28 192.2,-70.07 206.5,-55 240.02,-19.67 298.84,-11.54 335.34,-10.13"/>
<polygon fill="#63b8ff" stroke="#63b8ff" points="335.54,-13.63 345.46,-9.89 335.38,-6.63 335.54,-13.63"/>
</g>
<!-- Node5 -->
<g id="node5" class="node">
<title>Node5</title>
<g id="a_node5"><a xlink:title=" ">
<polygon fill="#e0e0e0" stroke="#999999" points="339,-74 292,-74 292,-55 339,-55 339,-74"/>
<text text-anchor="middle" x="315.5" y="-62" font-family="Helvetica,sans-Serif" font-size="10.00">vector</text>
</a>
</g>
</g>
<!-- Node2&#45;&gt;Node5 -->
<g id="edge4" class="edge">
<title>Node2&#45;&gt;Node5</title>
<path fill="none" stroke="#63b8ff" d="M212.26,-109.98C232.23,-101.38 263.3,-87.99 286.15,-78.15"/>
<polygon fill="#63b8ff" stroke="#63b8ff" points="287.58,-81.34 295.38,-74.17 284.81,-74.91 287.58,-81.34"/>
</g>
<!-- Node6&#45;&gt;Node3 -->
<g id="edge6" class="edge">
<title>Node6&#45;&gt;Node3</title>
<path fill="none" stroke="#63b8ff" d="M304.09,-109.98C293.39,-102 277.16,-89.88 264.34,-80.31"/>
<polygon fill="#63b8ff" stroke="#63b8ff" points="266.22,-77.35 256.11,-74.17 262.03,-82.96 266.22,-77.35"/>
</g>
<!-- Node6&#45;&gt;Node4 -->
<g id="edge7" class="edge">
<title>Node6&#45;&gt;Node4</title>
<path fill="none" stroke="#63b8ff" d="M323.02,-109.84C330.16,-101.24 340.77,-87.44 347.5,-74 354.71,-59.61 359.99,-42.09 363.31,-29.1"/>
<polygon fill="#63b8ff" stroke="#63b8ff" points="366.79,-29.59 365.72,-19.05 359.99,-27.96 366.79,-29.59"/>
</g>
<!-- Node6&#45;&gt;Node5 -->
<g id="edge9" class="edge">
<title>Node6&#45;&gt;Node5</title>
<path fill="none" stroke="#63b8ff" d="M315.5,-109.75C315.5,-102.8 315.5,-92.85 315.5,-84.13"/>
<polygon fill="#63b8ff" stroke="#63b8ff" points="319,-84.09 315.5,-74.09 312,-84.09 319,-84.09"/>
</g>
<!-- Node7 -->
<g id="node7" class="node">
<title>Node7</title>
<g id="a_node7"><a xlink:title=" ">
<polygon fill="#e0e0e0" stroke="#999999" points="469,-74 396,-74 396,-55 469,-55 469,-74"/>
<text text-anchor="middle" x="432.5" y="-62" font-family="Helvetica,sans-Serif" font-size="10.00">string_view</text>
</a>
</g>
</g>
<!-- Node6&#45;&gt;Node7 -->
<g id="edge8" class="edge">
<title>Node6&#45;&gt;Node7</title>
<path fill="none" stroke="#63b8ff" d="M334.3,-109.98C353.12,-101.46 382.32,-88.23 404,-78.41"/>
<polygon fill="#63b8ff" stroke="#63b8ff" points="405.7,-81.48 413.36,-74.17 402.81,-75.11 405.7,-81.48"/>
</g>
<!-- Node8&#45;&gt;Node7 -->
<g id="edge11" class="edge">
<title>Node8&#45;&gt;Node7</title>
<path fill="none" stroke="#63b8ff" d="M450.03,-109.75C447.22,-102.65 443.16,-92.4 439.65,-83.56"/>
<polygon fill="#63b8ff" stroke="#63b8ff" points="442.84,-82.1 435.9,-74.09 436.33,-84.68 442.84,-82.1"/>
</g>
<!-- Node9&#45;&gt;Node4 -->
<g id="edge13" class="edge">
<title>Node9&#45;&gt;Node4</title>
<path fill="none" stroke="#63b8ff" d="M588.81,-55.96C538.13,-45.55 447.54,-26.94 399.48,-17.07"/>
<polygon fill="#63b8ff" stroke="#63b8ff" points="400.12,-13.63 389.62,-15.04 398.72,-20.49 400.12,-13.63"/>
</g>
<!-- Node10&#45;&gt;Node3 -->
<g id="edge17" class="edge">
<title>Node10&#45;&gt;Node3</title>
<path fill="none" stroke="#63b8ff" d="M529.93,-111.56C526.74,-111.02 523.57,-110.5 520.5,-110 418.1,-93.38 389.38,-93.65 283.64,-74.1"/>
<polygon fill="#63b8ff" stroke="#63b8ff" points="283.98,-70.6 273.5,-72.21 282.69,-77.48 283.98,-70.6"/>
</g>
<!-- Node10&#45;&gt;Node4 -->
<g id="edge18" class="edge">
<title>Node10&#45;&gt;Node4</title>
<path fill="none" stroke="#63b8ff" d="M567.97,-109.65C565.1,-95.86 557.6,-69.32 540.5,-55 500.35,-21.39 437.92,-12.75 400.05,-10.77"/>
<polygon fill="#63b8ff" stroke="#63b8ff" points="399.73,-7.26 389.6,-10.36 399.45,-14.25 399.73,-7.26"/>
</g>
<!-- Node10&#45;&gt;Node5 -->
<g id="edge21" class="edge">
<title>Node10&#45;&gt;Node5</title>
<path fill="none" stroke="#63b8ff" d="M529.81,-110.22C480.13,-99.85 395.9,-82.28 349.2,-72.53"/>
<polygon fill="#63b8ff" stroke="#63b8ff" points="349.79,-69.08 339.28,-70.46 348.36,-75.93 349.79,-69.08"/>
</g>
<!-- Node10&#45;&gt;Node7 -->
<g id="edge19" class="edge">
<title>Node10&#45;&gt;Node7</title>
<path fill="none" stroke="#63b8ff" d="M547.49,-109.98C525.05,-101.3 490.02,-87.75 464.51,-77.88"/>
<polygon fill="#63b8ff" stroke="#63b8ff" points="465.5,-74.51 454.91,-74.17 462.98,-81.04 465.5,-74.51"/>
</g>
<!-- Node10&#45;&gt;Node9 -->
<g id="edge15" class="edge">
<title>Node10&#45;&gt;Node9</title>
<path fill="none" stroke="#63b8ff" d="M578.5,-109.98C586.69,-102.23 599.01,-90.58 608.97,-81.14"/>
<polygon fill="#63b8ff" stroke="#63b8ff" points="611.48,-83.59 616.34,-74.17 606.67,-78.5 611.48,-83.59"/>
</g>
<!-- Node11 -->
<g id="node11" class="node">
<title>Node11</title>
<g id="a_node11"><a xlink:title=" ">
<polygon fill="#e0e0e0" stroke="#999999" points="740.5,-74 680.5,-74 680.5,-55 740.5,-55 740.5,-74"/>
<text text-anchor="middle" x="710.5" y="-62" font-family="Helvetica,sans-Serif" font-size="10.00">iostream</text>
</a>
</g>
</g>
<!-- Node10&#45;&gt;Node11 -->
<g id="edge16" class="edge">
<title>Node10&#45;&gt;Node11</title>
<path fill="none" stroke="#63b8ff" d="M592.15,-109.98C615.35,-101.27 651.62,-87.63 677.9,-77.75"/>
<polygon fill="#63b8ff" stroke="#63b8ff" points="679.3,-80.97 687.43,-74.17 676.84,-74.41 679.3,-80.97"/>
</g>
<!-- Node12 -->
<g id="node12" class="node">
<title>Node12</title>
<g id="a_node12"><a xlink:title=" ">
<polygon fill="#e0e0e0" stroke="#999999" points="532,-74 487,-74 487,-55 532,-55 532,-74"/>
<text text-anchor="middle" x="509.5" y="-62" font-family="Helvetica,sans-Serif" font-size="10.00">utility</text>
</a>
</g>
</g>
<!-- Node10&#45;&gt;Node12 -->
<g id="edge20" class="edge">
<title>Node10&#45;&gt;Node12</title>
<path fill="none" stroke="#63b8ff" d="M559.86,-109.98C550.99,-102.15 537.63,-90.34 526.89,-80.86"/>
<polygon fill="#63b8ff" stroke="#63b8ff" points="529.13,-78.17 519.32,-74.17 524.49,-83.41 529.13,-78.17"/>
</g>
<!-- Node13&#45;&gt;Node3 -->
<g id="edge23" class="edge">
<title>Node13&#45;&gt;Node3</title>
<path fill="none" stroke="#63b8ff" d="M94.26,-109.98C124.44,-101.05 172.07,-86.94 205.6,-77.02"/>
<polygon fill="#63b8ff" stroke="#63b8ff" points="206.92,-80.28 215.52,-74.08 204.93,-73.57 206.92,-80.28"/>
</g>
<!-- Node13&#45;&gt;Node4 -->
<g id="edge24" class="edge">
<title>Node13&#45;&gt;Node4</title>
<path fill="none" stroke="#63b8ff" d="M80.28,-109.79C103.49,-96.42 150.22,-70.74 192.5,-55 241.17,-36.89 300.12,-23.58 335.68,-16.45"/>
<polygon fill="#63b8ff" stroke="#63b8ff" points="336.35,-19.88 345.49,-14.52 335,-13.01 336.35,-19.88"/>
</g>
<!-- Node14&#45;&gt;Node11 -->
<g id="edge26" class="edge">
<title>Node14&#45;&gt;Node11</title>
<path fill="none" stroke="#63b8ff" d="M707.16,-109.75C707.68,-102.8 708.44,-92.85 709.09,-84.13"/>
<polygon fill="#63b8ff" stroke="#63b8ff" points="712.59,-84.32 709.85,-74.09 705.61,-83.8 712.59,-84.32"/>
</g>
</g>
</svg>
