<?xml version="1.0" encoding="UTF-8" standalone="no"?>
<!DOCTYPE svg PUBLIC "-//W3C//DTD SVG 1.1//EN"
 "http://www.w3.org/Graphics/SVG/1.1/DTD/svg11.dtd">
<!-- Generated by graphviz version 2.43.0 (0)
 -->
<!-- Title: deck/deckPlayer.h Pages: 1 -->
<svg width="493pt" height="137pt"
 viewBox="0.00 0.00 493.00 137.00" xmlns="http://www.w3.org/2000/svg" xmlns:xlink="http://www.w3.org/1999/xlink">
<g id="graph0" class="graph" transform="scale(1 1) rotate(0) translate(4 133)">
<title>deck/deckPlayer.h</title>
<!-- Node1 -->
<g id="node1" class="node">
<title>Node1</title>
<g id="a_node1"><a xlink:title=" ">
<polygon fill="#999999" stroke="#666666" points="289,-129 184,-129 184,-110 289,-110 289,-129"/>
<text text-anchor="middle" x="236.5" y="-117" font-family="Helvetica,sans-Serif" font-size="10.00">deck/deckPlayer.h</text>
</a>
</g>
</g>
<!-- Node2 -->
<g id="node2" class="node">
<title>Node2</title>
<g id="a_node2"><a xlink:href="deckEntry_8h.html" target="_top" xlink:title=" ">
<polygon fill="white" stroke="#666666" points="73,-74 0,-74 0,-55 73,-55 73,-74"/>
<text text-anchor="middle" x="36.5" y="-62" font-family="Helvetica,sans-Serif" font-size="10.00">deckEntry.h</text>
</a>
</g>
</g>
<!-- Node1&#45;&gt;Node2 -->
<g id="edge1" class="edge">
<title>Node1&#45;&gt;Node2</title>
<path fill="none" stroke="#63b8ff" d="M204.37,-109.98C170.35,-100.97 116.5,-86.7 79,-76.76"/>
<polygon fill="#63b8ff" stroke="#63b8ff" points="79.45,-73.26 68.89,-74.08 77.66,-80.03 79.45,-73.26"/>
</g>
<!-- Node3 -->
<g id="node3" class="node">
<title>Node3</title>
<g id="a_node3"><a xlink:title=" ">
<polygon fill="#e0e0e0" stroke="#999999" points="90.5,-19 46.5,-19 46.5,0 90.5,0 90.5,-19"/>
<text text-anchor="middle" x="68.5" y="-7" font-family="Helvetica,sans-Serif" font-size="10.00">string</text>
</a>
</g>
</g>
<!-- Node1&#45;&gt;Node3 -->
<g id="edge5" class="edge">
<title>Node1&#45;&gt;Node3</title>
<path fill="none" stroke="#63b8ff" d="M200.66,-109.96C176.45,-103 144.63,-91.43 120.5,-74 103.23,-61.53 88.4,-41.97 79.04,-27.85"/>
<polygon fill="#63b8ff" stroke="#63b8ff" points="81.8,-25.66 73.48,-19.1 75.89,-29.42 81.8,-25.66"/>
</g>
<!-- Node4 -->
<g id="node4" class="node">
<title>Node4</title>
<g id="a_node4"><a xlink:title=" ">
<polygon fill="#e0e0e0" stroke="#999999" points="189.5,-74 129.5,-74 129.5,-55 189.5,-55 189.5,-74"/>
<text text-anchor="middle" x="159.5" y="-62" font-family="Helvetica,sans-Serif" font-size="10.00">iostream</text>
</a>
</g>
</g>
<!-- Node1&#45;&gt;Node4 -->
<g id="edge3" class="edge">
<title>Node1&#45;&gt;Node4</title>
<path fill="none" stroke="#63b8ff" d="M224.13,-109.98C212.41,-101.92 194.58,-89.65 180.61,-80.03"/>
<polygon fill="#63b8ff" stroke="#63b8ff" points="182.32,-76.96 172.1,-74.17 178.35,-82.72 182.32,-76.96"/>
</g>
<!-- Node5 -->
<g id="node5" class="node">
<title>Node5</title>
<g id="a_node5"><a xlink:title=" ">
<polygon fill="#e0e0e0" stroke="#999999" points="265.5,-74 207.5,-74 207.5,-55 265.5,-55 265.5,-74"/>
<text text-anchor="middle" x="236.5" y="-62" font-family="Helvetica,sans-Serif" font-size="10.00">memory</text>
</a>
</g>
</g>
<!-- Node1&#45;&gt;Node5 -->
<g id="edge4" class="edge">
<title>Node1&#45;&gt;Node5</title>
<path fill="none" stroke="#63b8ff" d="M236.5,-109.75C236.5,-102.8 236.5,-92.85 236.5,-84.13"/>
<polygon fill="#63b8ff" stroke="#63b8ff" points="240,-84.09 236.5,-74.09 233,-84.09 240,-84.09"/>
</g>
<!-- Node6 -->
<g id="node6" class="node">
<title>Node6</title>
<g id="a_node6"><a xlink:title=" ">
<polygon fill="#e0e0e0" stroke="#999999" points="357,-74 284,-74 284,-55 357,-55 357,-74"/>
<text text-anchor="middle" x="320.5" y="-62" font-family="Helvetica,sans-Serif" font-size="10.00">string_view</text>
</a>
</g>
</g>
<!-- Node1&#45;&gt;Node6 -->
<g id="edge6" class="edge">
<title>Node1&#45;&gt;Node6</title>
<path fill="none" stroke="#63b8ff" d="M250,-109.98C262.9,-101.84 282.6,-89.41 297.9,-79.76"/>
<polygon fill="#63b8ff" stroke="#63b8ff" points="300.17,-82.47 306.76,-74.17 296.43,-76.55 300.17,-82.47"/>
</g>
<!-- Node7 -->
<g id="node7" class="node">
<title>Node7</title>
<g id="a_node7"><a xlink:title=" ">
<polygon fill="#e0e0e0" stroke="#999999" points="420,-74 375,-74 375,-55 420,-55 420,-74"/>
<text text-anchor="middle" x="397.5" y="-62" font-family="Helvetica,sans-Serif" font-size="10.00">utility</text>
</a>
</g>
</g>
<!-- Node1&#45;&gt;Node7 -->
<g id="edge7" class="edge">
<title>Node1&#45;&gt;Node7</title>
<path fill="none" stroke="#63b8ff" d="M262.37,-109.98C290.32,-100.78 334.91,-86.1 365.16,-76.15"/>
<polygon fill="#63b8ff" stroke="#63b8ff" points="366.42,-79.42 374.82,-72.97 364.23,-72.77 366.42,-79.42"/>
</g>
<!-- Node8 -->
<g id="node8" class="node">
<title>Node8</title>
<g id="a_node8"><a xlink:title=" ">
<polygon fill="#e0e0e0" stroke="#999999" points="485,-74 438,-74 438,-55 485,-55 485,-74"/>
<text text-anchor="middle" x="461.5" y="-62" font-family="Helvetica,sans-Serif" font-size="10.00">vector</text>
</a>
</g>
</g>
<!-- Node1&#45;&gt;Node8 -->
<g id="edge8" class="edge">
<title>Node1&#45;&gt;Node8</title>
<path fill="none" stroke="#63b8ff" d="M275.4,-109.93C312.39,-101.69 369.81,-88.67 428.03,-74.31"/>
<polygon fill="#63b8ff" stroke="#63b8ff" points="428.89,-77.7 437.76,-71.9 427.21,-70.91 428.89,-77.7"/>
</g>
<!-- Node2&#45;&gt;Node3 -->
<g id="edge2" class="edge">
<title>Node2&#45;&gt;Node3</title>
<path fill="none" stroke="#63b8ff" d="M41.78,-54.75C46.21,-47.42 52.66,-36.73 58.12,-27.7"/>
<polygon fill="#63b8ff" stroke="#63b8ff" points="61.14,-29.46 63.31,-19.09 55.15,-25.84 61.14,-29.46"/>
</g>
</g>
</svg>
