<?xml version="1.0" encoding="UTF-8" standalone="no"?>
<!DOCTYPE svg PUBLIC "-//W3C//DTD SVG 1.1//EN"
 "http://www.w3.org/Graphics/SVG/1.1/DTD/svg11.dtd">
<!-- Generated by graphviz version 2.43.0 (0)
 -->
<!-- Title: deck/deckPlayer.cpp Pages: 1 -->
<svg width="494pt" height="192pt"
 viewBox="0.00 0.00 493.50 192.00" xmlns="http://www.w3.org/2000/svg" xmlns:xlink="http://www.w3.org/1999/xlink">
<g id="graph0" class="graph" transform="scale(1 1) rotate(0) translate(4 188)">
<title>deck/deckPlayer.cpp</title>
<!-- Node1 -->
<g id="node1" class="node">
<title>Node1</title>
<g id="a_node1"><a xlink:title=" ">
<polygon fill="#999999" stroke="#666666" points="266,-184 150,-184 150,-165 266,-165 266,-184"/>
<text text-anchor="middle" x="208" y="-172" font-family="Helvetica,sans-Serif" font-size="10.00">deck/deckPlayer.cpp</text>
</a>
</g>
</g>
<!-- Node2 -->
<g id="node2" class="node">
<title>Node2</title>
<g id="a_node2"><a xlink:href="deckPlayer_8h.html" target="_top" xlink:title=" ">
<polygon fill="white" stroke="#666666" points="260.5,-129 155.5,-129 155.5,-110 260.5,-110 260.5,-129"/>
<text text-anchor="middle" x="208" y="-117" font-family="Helvetica,sans-Serif" font-size="10.00">deck/deckPlayer.h</text>
</a>
</g>
</g>
<!-- Node1&#45;&gt;Node2 -->
<g id="edge1" class="edge">
<title>Node1&#45;&gt;Node2</title>
<path fill="none" stroke="#63b8ff" d="M208,-164.75C208,-157.8 208,-147.85 208,-139.13"/>
<polygon fill="#63b8ff" stroke="#63b8ff" points="211.5,-139.09 208,-129.09 204.5,-139.09 211.5,-139.09"/>
</g>
<!-- Node10 -->
<g id="node10" class="node">
<title>Node10</title>
<g id="a_node10"><a xlink:href="debug_8h.html" target="_top" xlink:title=" ">
<polygon fill="white" stroke="#666666" points="116,-129 42,-129 42,-110 116,-110 116,-129"/>
<text text-anchor="middle" x="79" y="-117" font-family="Helvetica,sans-Serif" font-size="10.00">util/debug.h</text>
</a>
</g>
</g>
<!-- Node1&#45;&gt;Node10 -->
<g id="edge10" class="edge">
<title>Node1&#45;&gt;Node10</title>
<path fill="none" stroke="#63b8ff" d="M187.27,-164.98C166.24,-156.34 133.45,-142.87 109.46,-133.02"/>
<polygon fill="#63b8ff" stroke="#63b8ff" points="110.68,-129.73 100.1,-129.17 108.02,-136.21 110.68,-129.73"/>
</g>
<!-- Node11 -->
<g id="node11" class="node">
<title>Node11</title>
<g id="a_node11"><a xlink:title=" ">
<polygon fill="#e0e0e0" stroke="#999999" points="343,-129 279,-129 279,-110 343,-110 343,-129"/>
<text text-anchor="middle" x="311" y="-117" font-family="Helvetica,sans-Serif" font-size="10.00">algorithm</text>
</a>
</g>
</g>
<!-- Node1&#45;&gt;Node11 -->
<g id="edge12" class="edge">
<title>Node1&#45;&gt;Node11</title>
<path fill="none" stroke="#63b8ff" d="M224.55,-164.98C240.89,-156.57 266.13,-143.59 285.13,-133.81"/>
<polygon fill="#63b8ff" stroke="#63b8ff" points="286.86,-136.86 294.15,-129.17 283.66,-130.63 286.86,-136.86"/>
</g>
<!-- Node3 -->
<g id="node3" class="node">
<title>Node3</title>
<g id="a_node3"><a xlink:href="deckEntry_8h.html" target="_top" xlink:title=" ">
<polygon fill="white" stroke="#666666" points="151.5,-74 78.5,-74 78.5,-55 151.5,-55 151.5,-74"/>
<text text-anchor="middle" x="115" y="-62" font-family="Helvetica,sans-Serif" font-size="10.00">deckEntry.h</text>
</a>
</g>
</g>
<!-- Node2&#45;&gt;Node3 -->
<g id="edge2" class="edge">
<title>Node2&#45;&gt;Node3</title>
<path fill="none" stroke="#63b8ff" d="M193.06,-109.98C178.5,-101.69 156.13,-88.94 139.07,-79.22"/>
<polygon fill="#63b8ff" stroke="#63b8ff" points="140.64,-76.08 130.21,-74.17 137.17,-82.16 140.64,-76.08"/>
</g>
<!-- Node4 -->
<g id="node4" class="node">
<title>Node4</title>
<g id="a_node4"><a xlink:title=" ">
<polygon fill="#e0e0e0" stroke="#999999" points="169,-19 125,-19 125,0 169,0 169,-19"/>
<text text-anchor="middle" x="147" y="-7" font-family="Helvetica,sans-Serif" font-size="10.00">string</text>
</a>
</g>
</g>
<!-- Node2&#45;&gt;Node4 -->
<g id="edge6" class="edge">
<title>Node2&#45;&gt;Node4</title>
<path fill="none" stroke="#63b8ff" d="M203.01,-109.66C192.95,-91.85 170.08,-51.37 156.89,-28.01"/>
<polygon fill="#63b8ff" stroke="#63b8ff" points="159.86,-26.14 151.89,-19.16 153.76,-29.59 159.86,-26.14"/>
</g>
<!-- Node5 -->
<g id="node5" class="node">
<title>Node5</title>
<g id="a_node5"><a xlink:title=" ">
<polygon fill="#e0e0e0" stroke="#999999" points="60,-74 0,-74 0,-55 60,-55 60,-74"/>
<text text-anchor="middle" x="30" y="-62" font-family="Helvetica,sans-Serif" font-size="10.00">iostream</text>
</a>
</g>
</g>
<!-- Node2&#45;&gt;Node5 -->
<g id="edge4" class="edge">
<title>Node2&#45;&gt;Node5</title>
<path fill="none" stroke="#63b8ff" d="M179.4,-109.98C149.39,-101.05 102.02,-86.94 68.68,-77.02"/>
<polygon fill="#63b8ff" stroke="#63b8ff" points="69.41,-73.58 58.82,-74.08 67.41,-80.29 69.41,-73.58"/>
</g>
<!-- Node6 -->
<g id="node6" class="node">
<title>Node6</title>
<g id="a_node6"><a xlink:title=" ">
<polygon fill="#e0e0e0" stroke="#999999" points="266,-74 208,-74 208,-55 266,-55 266,-74"/>
<text text-anchor="middle" x="237" y="-62" font-family="Helvetica,sans-Serif" font-size="10.00">memory</text>
</a>
</g>
</g>
<!-- Node2&#45;&gt;Node6 -->
<g id="edge5" class="edge">
<title>Node2&#45;&gt;Node6</title>
<path fill="none" stroke="#63b8ff" d="M212.79,-109.75C216.76,-102.49 222.53,-91.95 227.43,-82.98"/>
<polygon fill="#63b8ff" stroke="#63b8ff" points="230.57,-84.54 232.3,-74.09 224.43,-81.18 230.57,-84.54"/>
</g>
<!-- Node7 -->
<g id="node7" class="node">
<title>Node7</title>
<g id="a_node7"><a xlink:title=" ">
<polygon fill="#e0e0e0" stroke="#999999" points="357.5,-74 284.5,-74 284.5,-55 357.5,-55 357.5,-74"/>
<text text-anchor="middle" x="321" y="-62" font-family="Helvetica,sans-Serif" font-size="10.00">string_view</text>
</a>
</g>
</g>
<!-- Node2&#45;&gt;Node7 -->
<g id="edge7" class="edge">
<title>Node2&#45;&gt;Node7</title>
<path fill="none" stroke="#63b8ff" d="M226.16,-109.98C244.25,-101.5 272.28,-88.35 293.19,-78.54"/>
<polygon fill="#63b8ff" stroke="#63b8ff" points="294.95,-81.59 302.51,-74.17 291.97,-75.25 294.95,-81.59"/>
</g>
<!-- Node8 -->
<g id="node8" class="node">
<title>Node8</title>
<g id="a_node8"><a xlink:title=" ">
<polygon fill="#e0e0e0" stroke="#999999" points="420.5,-74 375.5,-74 375.5,-55 420.5,-55 420.5,-74"/>
<text text-anchor="middle" x="398" y="-62" font-family="Helvetica,sans-Serif" font-size="10.00">utility</text>
</a>
</g>
</g>
<!-- Node2&#45;&gt;Node8 -->
<g id="edge8" class="edge">
<title>Node2&#45;&gt;Node8</title>
<path fill="none" stroke="#63b8ff" d="M238.53,-109.98C273.28,-100.29 329.83,-84.52 365.41,-74.59"/>
<polygon fill="#63b8ff" stroke="#63b8ff" points="366.61,-77.89 375.3,-71.83 364.73,-71.15 366.61,-77.89"/>
</g>
<!-- Node9 -->
<g id="node9" class="node">
<title>Node9</title>
<g id="a_node9"><a xlink:title=" ">
<polygon fill="#e0e0e0" stroke="#999999" points="485.5,-74 438.5,-74 438.5,-55 485.5,-55 485.5,-74"/>
<text text-anchor="middle" x="462" y="-62" font-family="Helvetica,sans-Serif" font-size="10.00">vector</text>
</a>
</g>
</g>
<!-- Node2&#45;&gt;Node9 -->
<g id="edge9" class="edge">
<title>Node2&#45;&gt;Node9</title>
<path fill="none" stroke="#63b8ff" d="M254.96,-109.96C297.81,-101.97 363.13,-89.31 428.25,-74.3"/>
<polygon fill="#63b8ff" stroke="#63b8ff" points="429.33,-77.65 438.28,-71.98 427.74,-70.83 429.33,-77.65"/>
</g>
<!-- Node3&#45;&gt;Node4 -->
<g id="edge3" class="edge">
<title>Node3&#45;&gt;Node4</title>
<path fill="none" stroke="#63b8ff" d="M120.28,-54.75C124.71,-47.42 131.16,-36.73 136.62,-27.7"/>
<polygon fill="#63b8ff" stroke="#63b8ff" points="139.64,-29.46 141.81,-19.09 133.65,-25.84 139.64,-29.46"/>
</g>
<!-- Node10&#45;&gt;Node5 -->
<g id="edge11" class="edge">
<title>Node10&#45;&gt;Node5</title>
<path fill="none" stroke="#63b8ff" d="M70.91,-109.75C63.84,-102.11 53.41,-90.82 44.85,-81.56"/>
<polygon fill="#63b8ff" stroke="#63b8ff" points="47.3,-79.06 37.94,-74.09 42.16,-83.81 47.3,-79.06"/>
</g>
</g>
</svg>
