<?xml version="1.0" encoding="UTF-8" standalone="no"?>
<!DOCTYPE svg PUBLIC "-//W3C//DTD SVG 1.1//EN"
 "http://www.w3.org/Graphics/SVG/1.1/DTD/svg11.dtd">
<!-- Generated by graphviz version 2.43.0 (0)
 -->
<!-- Title: entities Pages: 1 -->
<svg width="216pt" height="98pt"
 viewBox="0.00 0.00 215.50 98.00" xmlns="http://www.w3.org/2000/svg" xmlns:xlink="http://www.w3.org/1999/xlink">
<g id="graph0" class="graph" transform="scale(1 1) rotate(0) translate(4 94)">
<title>entities</title>
<g id="clust1" class="cluster">
<title>clusterdir_9404ca00d5cf333c309ae0ebf80749c4</title>
<g id="a_clust1"><a xlink:href="dir_9404ca00d5cf333c309ae0ebf80749c4.html" target="_top">
<polygon fill="#edf0f7" stroke="#404040" stroke-width="2" points="8,-47 8,-82 155,-82 155,-47 8,-47"/>
</a>
</g>
</g>
<!-- dir_9404ca00d5cf333c309ae0ebf80749c4 -->
<g id="node1" class="node">
<title>dir_9404ca00d5cf333c309ae0ebf80749c4</title>
<text text-anchor="middle" x="43" y="-62" font-family="Helvetica,sans-Serif" font-size="10.00">entities</text>
</g>
<!-- dir_70398d026f8dc8cc45517d8e684fbc42 -->
<g id="node4" class="node">
<title>dir_70398d026f8dc8cc45517d8e684fbc42</title>
<g id="a_node4"><a xlink:href="dir_70398d026f8dc8cc45517d8e684fbc42.html" target="_top" xlink:title="deck">
<polygon fill="#edf0f7" stroke="#404040" points="63,-19 23,-19 23,0 63,0 63,-19"/>
<text text-anchor="middle" x="43" y="-7" font-family="Helvetica,sans-Serif" font-size="10.00">deck</text>
</a>
</g>
</g>
<!-- dir_9404ca00d5cf333c309ae0ebf80749c4&#45;&gt;dir_70398d026f8dc8cc45517d8e684fbc42 -->
<g id="edge1" class="edge">
<title>dir_9404ca00d5cf333c309ae0ebf80749c4&#45;&gt;dir_70398d026f8dc8cc45517d8e684fbc42</title>
<path fill="none" stroke="#63b8ff" d="M43,-54.75C43,-47.8 43,-37.85 43,-29.13"/>
<polygon fill="#63b8ff" stroke="#63b8ff" points="46.5,-29.09 43,-19.09 39.5,-29.09 46.5,-29.09"/>
<g id="a_edge1&#45;headlabel"><a xlink:href="dir_000005_000002.html" target="_top" xlink:title="2">
<text text-anchor="middle" x="49.34" y="-30.18" font-family="Helvetica,sans-Serif" font-size="10.00" fill="#63b8ff">2</text>
</a>
</g>
</g>
<!-- dir_c9cfae8d275c488dd3c4d7618cc4d437 -->
<g id="node2" class="node">
<title>dir_c9cfae8d275c488dd3c4d7618cc4d437</title>
<g id="a_node2"><a xlink:href="dir_c9cfae8d275c488dd3c4d7618cc4d437.html" target="_top" xlink:title="enemies">
<polygon fill="#a2b4d6" stroke="#404040" points="146.5,-74 87.5,-74 87.5,-55 146.5,-55 146.5,-74"/>
<text text-anchor="middle" x="117" y="-62" font-family="Helvetica,sans-Serif" font-size="10.00">enemies</text>
</a>
</g>
</g>
<!-- dir_63bb297c276a119495816091bcd678e9 -->
<g id="node3" class="node">
<title>dir_63bb297c276a119495816091bcd678e9</title>
<g id="a_node3"><a xlink:href="dir_63bb297c276a119495816091bcd678e9.html" target="_top" xlink:title="effects">
<polygon fill="#edf0f7" stroke="#404040" points="136,-19 86,-19 86,0 136,0 136,-19"/>
<text text-anchor="middle" x="111" y="-7" font-family="Helvetica,sans-Serif" font-size="10.00">effects</text>
</a>
</g>
</g>
<!-- dir_c9cfae8d275c488dd3c4d7618cc4d437&#45;&gt;dir_63bb297c276a119495816091bcd678e9 -->
<g id="edge2" class="edge">
<title>dir_c9cfae8d275c488dd3c4d7618cc4d437&#45;&gt;dir_63bb297c276a119495816091bcd678e9</title>
<path fill="none" stroke="#63b8ff" d="M116.01,-54.75C115.22,-47.8 114.1,-37.85 113.11,-29.13"/>
<polygon fill="#63b8ff" stroke="#63b8ff" points="116.58,-28.63 111.97,-19.09 109.62,-29.42 116.58,-28.63"/>
<g id="a_edge2&#45;headlabel"><a xlink:href="dir_000004_000003.html" target="_top" xlink:title="3">
<text text-anchor="middle" x="119.8" y="-29.38" font-family="Helvetica,sans-Serif" font-size="10.00" fill="#63b8ff">3</text>
</a>
</g>
</g>
<!-- dir_e2d39b432b977da645a96dbcf8bd25b8 -->
<g id="node5" class="node">
<title>dir_e2d39b432b977da645a96dbcf8bd25b8</title>
<g id="a_node5"><a xlink:href="dir_e2d39b432b977da645a96dbcf8bd25b8.html" target="_top" xlink:title="combat">
<polygon fill="#edf0f7" stroke="#404040" points="207.5,-19 154.5,-19 154.5,0 207.5,0 207.5,-19"/>
<text text-anchor="middle" x="181" y="-7" font-family="Helvetica,sans-Serif" font-size="10.00">combat</text>
</a>
</g>
</g>
<!-- dir_c9cfae8d275c488dd3c4d7618cc4d437&#45;&gt;dir_e2d39b432b977da645a96dbcf8bd25b8 -->
<g id="edge3" class="edge">
<title>dir_c9cfae8d275c488dd3c4d7618cc4d437&#45;&gt;dir_e2d39b432b977da645a96dbcf8bd25b8</title>
<path fill="none" stroke="#63b8ff" d="M127.28,-54.98C136.84,-47.07 151.28,-35.11 162.78,-25.58"/>
<polygon fill="#63b8ff" stroke="#63b8ff" points="165.06,-28.24 170.53,-19.17 160.6,-22.85 165.06,-28.24"/>
<g id="a_edge3&#45;headlabel"><a xlink:href="dir_000004_000001.html" target="_top" xlink:title="1">
<text text-anchor="middle" x="164.1" y="-30.22" font-family="Helvetica,sans-Serif" font-size="10.00" fill="#63b8ff">1</text>
</a>
</g>
</g>
</g>
</svg>
