<?xml version="1.0" encoding="UTF-8" standalone="no"?>
<!DOCTYPE svg PUBLIC "-//W3C//DTD SVG 1.1//EN"
 "http://www.w3.org/Graphics/SVG/1.1/DTD/svg11.dtd">
<!-- Generated by graphviz version 2.43.0 (0)
 -->
<!-- Title: factories Pages: 1 -->
<svg width="242pt" height="82pt"
 viewBox="0.00 0.00 241.50 82.00" xmlns="http://www.w3.org/2000/svg" xmlns:xlink="http://www.w3.org/1999/xlink">
<g id="graph0" class="graph" transform="scale(1 1) rotate(0) translate(4 78)">
<title>factories</title>
<!-- dir_bec78ecbdc42a5401a3b082f36c4b809 -->
<g id="node1" class="node">
<title>dir_bec78ecbdc42a5401a3b082f36c4b809</title>
<g id="a_node1"><a xlink:href="dir_bec78ecbdc42a5401a3b082f36c4b809.html" target="_top" xlink:title="factories">
<polygon fill="#edf0f7" stroke="#404040" stroke-width="2" points="133.5,-74 74.5,-74 74.5,-55 133.5,-55 133.5,-74"/>
<text text-anchor="middle" x="104" y="-62" font-family="Helvetica,sans-Serif" font-size="10.00">factories</text>
</a>
</g>
</g>
<!-- dir_23ec12649285f9fabf3a6b7380226c28 -->
<g id="node2" class="node">
<title>dir_23ec12649285f9fabf3a6b7380226c28</title>
<g id="a_node2"><a xlink:href="dir_23ec12649285f9fabf3a6b7380226c28.html" target="_top" xlink:title="util">
<polygon fill="#edf0f7" stroke="#404040" points="32,-19 0,-19 0,0 32,0 32,-19"/>
<text text-anchor="middle" x="16" y="-7" font-family="Helvetica,sans-Serif" font-size="10.00">util</text>
</a>
</g>
</g>
<!-- dir_bec78ecbdc42a5401a3b082f36c4b809&#45;&gt;dir_23ec12649285f9fabf3a6b7380226c28 -->
<g id="edge1" class="edge">
<title>dir_bec78ecbdc42a5401a3b082f36c4b809&#45;&gt;dir_23ec12649285f9fabf3a6b7380226c28</title>
<path fill="none" stroke="#63b8ff" d="M89.86,-54.98C76.21,-46.77 55.31,-34.18 39.22,-24.49"/>
<polygon fill="#63b8ff" stroke="#63b8ff" points="40.77,-21.33 30.4,-19.17 37.16,-27.33 40.77,-21.33"/>
<g id="a_edge1&#45;headlabel"><a xlink:href="dir_000006_000009.html" target="_top" xlink:title="1">
<text text-anchor="middle" x="45.31" y="-18.25" font-family="Helvetica,sans-Serif" font-size="10.00" fill="#63b8ff">1</text>
</a>
</g>
</g>
<!-- dir_4ede3bb414071aa76c9f8264ce8b8dde -->
<g id="node3" class="node">
<title>dir_4ede3bb414071aa76c9f8264ce8b8dde</title>
<g id="a_node3"><a xlink:href="dir_4ede3bb414071aa76c9f8264ce8b8dde.html" target="_top" xlink:title="cards">
<polygon fill="#edf0f7" stroke="#404040" points="93.5,-19 50.5,-19 50.5,0 93.5,0 93.5,-19"/>
<text text-anchor="middle" x="72" y="-7" font-family="Helvetica,sans-Serif" font-size="10.00">cards</text>
</a>
</g>
</g>
<!-- dir_bec78ecbdc42a5401a3b082f36c4b809&#45;&gt;dir_4ede3bb414071aa76c9f8264ce8b8dde -->
<g id="edge2" class="edge">
<title>dir_bec78ecbdc42a5401a3b082f36c4b809&#45;&gt;dir_4ede3bb414071aa76c9f8264ce8b8dde</title>
<path fill="none" stroke="#63b8ff" d="M98.72,-54.75C94.29,-47.42 87.84,-36.73 82.38,-27.7"/>
<polygon fill="#63b8ff" stroke="#63b8ff" points="85.35,-25.84 77.19,-19.09 79.36,-29.46 85.35,-25.84"/>
<g id="a_edge2&#45;headlabel"><a xlink:href="dir_000006_000000.html" target="_top" xlink:title="2">
<text text-anchor="middle" x="89.64" y="-24.95" font-family="Helvetica,sans-Serif" font-size="10.00" fill="#63b8ff">2</text>
</a>
</g>
</g>
<!-- dir_63bb297c276a119495816091bcd678e9 -->
<g id="node4" class="node">
<title>dir_63bb297c276a119495816091bcd678e9</title>
<g id="a_node4"><a xlink:href="dir_63bb297c276a119495816091bcd678e9.html" target="_top" xlink:title="effects">
<polygon fill="#edf0f7" stroke="#404040" points="162,-19 112,-19 112,0 162,0 162,-19"/>
<text text-anchor="middle" x="137" y="-7" font-family="Helvetica,sans-Serif" font-size="10.00">effects</text>
</a>
</g>
</g>
<!-- dir_bec78ecbdc42a5401a3b082f36c4b809&#45;&gt;dir_63bb297c276a119495816091bcd678e9 -->
<g id="edge3" class="edge">
<title>dir_bec78ecbdc42a5401a3b082f36c4b809&#45;&gt;dir_63bb297c276a119495816091bcd678e9</title>
<path fill="none" stroke="#63b8ff" d="M109.45,-54.75C114.01,-47.42 120.67,-36.73 126.29,-27.7"/>
<polygon fill="#63b8ff" stroke="#63b8ff" points="129.34,-29.43 131.65,-19.09 123.4,-25.73 129.34,-29.43"/>
<g id="a_edge3&#45;headlabel"><a xlink:href="dir_000006_000003.html" target="_top" xlink:title="2">
<text text-anchor="middle" x="129.85" y="-31.48" font-family="Helvetica,sans-Serif" font-size="10.00" fill="#63b8ff">2</text>
</a>
</g>
</g>
<!-- dir_e2d39b432b977da645a96dbcf8bd25b8 -->
<g id="node5" class="node">
<title>dir_e2d39b432b977da645a96dbcf8bd25b8</title>
<g id="a_node5"><a xlink:href="dir_e2d39b432b977da645a96dbcf8bd25b8.html" target="_top" xlink:title="combat">
<polygon fill="#edf0f7" stroke="#404040" points="233.5,-19 180.5,-19 180.5,0 233.5,0 233.5,-19"/>
<text text-anchor="middle" x="207" y="-7" font-family="Helvetica,sans-Serif" font-size="10.00">combat</text>
</a>
</g>
</g>
<!-- dir_bec78ecbdc42a5401a3b082f36c4b809&#45;&gt;dir_e2d39b432b977da645a96dbcf8bd25b8 -->
<g id="edge4" class="edge">
<title>dir_bec78ecbdc42a5401a3b082f36c4b809&#45;&gt;dir_e2d39b432b977da645a96dbcf8bd25b8</title>
<path fill="none" stroke="#63b8ff" d="M120.55,-54.98C136.89,-46.57 162.13,-33.59 181.13,-23.81"/>
<polygon fill="#63b8ff" stroke="#63b8ff" points="182.86,-26.86 190.15,-19.17 179.66,-20.63 182.86,-26.86"/>
<g id="a_edge4&#45;headlabel"><a xlink:href="dir_000006_000001.html" target="_top" xlink:title="1">
<text text-anchor="middle" x="180.96" y="-28.53" font-family="Helvetica,sans-Serif" font-size="10.00" fill="#63b8ff">1</text>
</a>
</g>
</g>
</g>
</svg>
