<?xml version="1.0" encoding="UTF-8" standalone="no"?>
<!DOCTYPE svg PUBLIC "-//W3C//DTD SVG 1.1//EN"
 "http://www.w3.org/Graphics/SVG/1.1/DTD/svg11.dtd">
<!-- Generated by graphviz version 2.43.0 (0)
 -->
<!-- Title: effects Pages: 1 -->
<svg width="173pt" height="82pt"
 viewBox="0.00 0.00 172.50 82.00" xmlns="http://www.w3.org/2000/svg" xmlns:xlink="http://www.w3.org/1999/xlink">
<g id="graph0" class="graph" transform="scale(1 1) rotate(0) translate(4 78)">
<title>effects</title>
<!-- dir_63bb297c276a119495816091bcd678e9 -->
<g id="node1" class="node">
<title>dir_63bb297c276a119495816091bcd678e9</title>
<g id="a_node1"><a xlink:href="dir_63bb297c276a119495816091bcd678e9.html" target="_top" xlink:title="effects">
<polygon fill="#edf0f7" stroke="#404040" stroke-width="2" points="97,-74 47,-74 47,-55 97,-55 97,-74"/>
<text text-anchor="middle" x="72" y="-62" font-family="Helvetica,sans-Serif" font-size="10.00">effects</text>
</a>
</g>
</g>
<!-- dir_23ec12649285f9fabf3a6b7380226c28 -->
<g id="node2" class="node">
<title>dir_23ec12649285f9fabf3a6b7380226c28</title>
<g id="a_node2"><a xlink:href="dir_23ec12649285f9fabf3a6b7380226c28.html" target="_top" xlink:title="util">
<polygon fill="#edf0f7" stroke="#404040" points="32,-19 0,-19 0,0 32,0 32,-19"/>
<text text-anchor="middle" x="16" y="-7" font-family="Helvetica,sans-Serif" font-size="10.00">util</text>
</a>
</g>
</g>
<!-- dir_63bb297c276a119495816091bcd678e9&#45;&gt;dir_23ec12649285f9fabf3a6b7380226c28 -->
<g id="edge1" class="edge">
<title>dir_63bb297c276a119495816091bcd678e9&#45;&gt;dir_23ec12649285f9fabf3a6b7380226c28</title>
<path fill="none" stroke="#63b8ff" d="M63,-54.98C54.81,-47.23 42.49,-35.58 32.53,-26.14"/>
<polygon fill="#63b8ff" stroke="#63b8ff" points="34.83,-23.5 25.16,-19.17 30.02,-28.59 34.83,-23.5"/>
<g id="a_edge1&#45;headlabel"><a xlink:href="dir_000003_000009.html" target="_top" xlink:title="1">
<text text-anchor="middle" x="39.39" y="-21.41" font-family="Helvetica,sans-Serif" font-size="10.00" fill="#63b8ff">1</text>
</a>
</g>
</g>
<!-- dir_4ede3bb414071aa76c9f8264ce8b8dde -->
<g id="node3" class="node">
<title>dir_4ede3bb414071aa76c9f8264ce8b8dde</title>
<g id="a_node3"><a xlink:href="dir_4ede3bb414071aa76c9f8264ce8b8dde.html" target="_top" xlink:title="cards">
<polygon fill="#edf0f7" stroke="#404040" points="93.5,-19 50.5,-19 50.5,0 93.5,0 93.5,-19"/>
<text text-anchor="middle" x="72" y="-7" font-family="Helvetica,sans-Serif" font-size="10.00">cards</text>
</a>
</g>
</g>
<!-- dir_63bb297c276a119495816091bcd678e9&#45;&gt;dir_4ede3bb414071aa76c9f8264ce8b8dde -->
<g id="edge2" class="edge">
<title>dir_63bb297c276a119495816091bcd678e9&#45;&gt;dir_4ede3bb414071aa76c9f8264ce8b8dde</title>
<path fill="none" stroke="#63b8ff" d="M72,-54.75C72,-47.8 72,-37.85 72,-29.13"/>
<polygon fill="#63b8ff" stroke="#63b8ff" points="75.5,-29.09 72,-19.09 68.5,-29.09 75.5,-29.09"/>
<g id="a_edge2&#45;headlabel"><a xlink:href="dir_000003_000000.html" target="_top" xlink:title="2">
<text text-anchor="middle" x="78.34" y="-30.18" font-family="Helvetica,sans-Serif" font-size="10.00" fill="#63b8ff">2</text>
</a>
</g>
</g>
<!-- dir_e2d39b432b977da645a96dbcf8bd25b8 -->
<g id="node4" class="node">
<title>dir_e2d39b432b977da645a96dbcf8bd25b8</title>
<g id="a_node4"><a xlink:href="dir_e2d39b432b977da645a96dbcf8bd25b8.html" target="_top" xlink:title="combat">
<polygon fill="#edf0f7" stroke="#404040" points="164.5,-19 111.5,-19 111.5,0 164.5,0 164.5,-19"/>
<text text-anchor="middle" x="138" y="-7" font-family="Helvetica,sans-Serif" font-size="10.00">combat</text>
</a>
</g>
</g>
<!-- dir_63bb297c276a119495816091bcd678e9&#45;&gt;dir_e2d39b432b977da645a96dbcf8bd25b8 -->
<g id="edge3" class="edge">
<title>dir_63bb297c276a119495816091bcd678e9&#45;&gt;dir_e2d39b432b977da645a96dbcf8bd25b8</title>
<path fill="none" stroke="#63b8ff" d="M82.6,-54.98C92.46,-47.07 107.35,-35.11 119.22,-25.58"/>
<polygon fill="#63b8ff" stroke="#63b8ff" points="121.6,-28.16 127.2,-19.17 117.21,-22.7 121.6,-28.16"/>
<g id="a_edge3&#45;headlabel"><a xlink:href="dir_000003_000001.html" target="_top" xlink:title="2">
<text text-anchor="middle" x="120.57" y="-30.13" font-family="Helvetica,sans-Serif" font-size="10.00" fill="#63b8ff">2</text>
</a>
</g>
</g>
</g>
</svg>
