<?xml version="1.0" encoding="UTF-8" standalone="no"?>
<!DOCTYPE svg PUBLIC "-//W3C//DTD SVG 1.1//EN"
 "http://www.w3.org/Graphics/SVG/1.1/DTD/svg11.dtd">
<!-- Generated by graphviz version 2.43.0 (0)
 -->
<!-- Title: game_system Pages: 1 -->
<svg width="356pt" height="82pt"
 viewBox="0.00 0.00 356.00 82.00" xmlns="http://www.w3.org/2000/svg" xmlns:xlink="http://www.w3.org/1999/xlink">
<g id="graph0" class="graph" transform="scale(1 1) rotate(0) translate(4 78)">
<title>game_system</title>
<!-- dir_18d58962dcdf46ba17fa85f38bb069c5 -->
<g id="node1" class="node">
<title>dir_18d58962dcdf46ba17fa85f38bb069c5</title>
<g id="a_node1"><a xlink:href="dir_18d58962dcdf46ba17fa85f38bb069c5.html" target="_top" xlink:title="game_system">
<polygon fill="#edf0f7" stroke="#404040" stroke-width="2" points="192.5,-74 106.5,-74 106.5,-55 192.5,-55 192.5,-74"/>
<text text-anchor="middle" x="149.5" y="-62" font-family="Helvetica,sans-Serif" font-size="10.00">game_system</text>
</a>
</g>
</g>
<!-- dir_1788f8309b1a812dcb800a185471cf6c -->
<g id="node2" class="node">
<title>dir_1788f8309b1a812dcb800a185471cf6c</title>
<g id="a_node2"><a xlink:href="dir_1788f8309b1a812dcb800a185471cf6c.html" target="_top" xlink:title="ui">
<polygon fill="#edf0f7" stroke="#404040" points="29,-19 0,-19 0,0 29,0 29,-19"/>
<text text-anchor="middle" x="14.5" y="-7" font-family="Helvetica,sans-Serif" font-size="10.00">ui</text>
</a>
</g>
</g>
<!-- dir_18d58962dcdf46ba17fa85f38bb069c5&#45;&gt;dir_1788f8309b1a812dcb800a185471cf6c -->
<g id="edge1" class="edge">
<title>dir_18d58962dcdf46ba17fa85f38bb069c5&#45;&gt;dir_1788f8309b1a812dcb800a185471cf6c</title>
<path fill="none" stroke="#63b8ff" d="M127.81,-54.98C103.44,-45.42 63.99,-29.93 38.65,-19.98"/>
<polygon fill="#63b8ff" stroke="#63b8ff" points="39.65,-16.61 29.06,-16.22 37.09,-23.13 39.65,-16.61"/>
<g id="a_edge1&#45;headlabel"><a xlink:href="dir_000006_000007.html" target="_top" xlink:title="2">
<text text-anchor="middle" x="44.03" y="-12.78" font-family="Helvetica,sans-Serif" font-size="10.00" fill="#63b8ff">2</text>
</a>
</g>
</g>
<!-- dir_23ec12649285f9fabf3a6b7380226c28 -->
<g id="node3" class="node">
<title>dir_23ec12649285f9fabf3a6b7380226c28</title>
<g id="a_node3"><a xlink:href="dir_23ec12649285f9fabf3a6b7380226c28.html" target="_top" xlink:title="util">
<polygon fill="#edf0f7" stroke="#404040" points="79.5,-19 47.5,-19 47.5,0 79.5,0 79.5,-19"/>
<text text-anchor="middle" x="63.5" y="-7" font-family="Helvetica,sans-Serif" font-size="10.00">util</text>
</a>
</g>
</g>
<!-- dir_18d58962dcdf46ba17fa85f38bb069c5&#45;&gt;dir_23ec12649285f9fabf3a6b7380226c28 -->
<g id="edge2" class="edge">
<title>dir_18d58962dcdf46ba17fa85f38bb069c5&#45;&gt;dir_23ec12649285f9fabf3a6b7380226c28</title>
<path fill="none" stroke="#63b8ff" d="M135.68,-54.98C122.35,-46.77 101.92,-34.18 86.19,-24.49"/>
<polygon fill="#63b8ff" stroke="#63b8ff" points="87.92,-21.44 77.57,-19.17 84.25,-27.4 87.92,-21.44"/>
<g id="a_edge2&#45;headlabel"><a xlink:href="dir_000006_000008.html" target="_top" xlink:title="1">
<text text-anchor="middle" x="92.47" y="-18.41" font-family="Helvetica,sans-Serif" font-size="10.00" fill="#63b8ff">1</text>
</a>
</g>
</g>
<!-- dir_4ede3bb414071aa76c9f8264ce8b8dde -->
<g id="node4" class="node">
<title>dir_4ede3bb414071aa76c9f8264ce8b8dde</title>
<g id="a_node4"><a xlink:href="dir_4ede3bb414071aa76c9f8264ce8b8dde.html" target="_top" xlink:title="cards">
<polygon fill="#edf0f7" stroke="red" points="141,-19 98,-19 98,0 141,0 141,-19"/>
<text text-anchor="middle" x="119.5" y="-7" font-family="Helvetica,sans-Serif" font-size="10.00">cards</text>
</a>
</g>
</g>
<!-- dir_18d58962dcdf46ba17fa85f38bb069c5&#45;&gt;dir_4ede3bb414071aa76c9f8264ce8b8dde -->
<g id="edge3" class="edge">
<title>dir_18d58962dcdf46ba17fa85f38bb069c5&#45;&gt;dir_4ede3bb414071aa76c9f8264ce8b8dde</title>
<path fill="none" stroke="#63b8ff" d="M144.55,-54.75C140.44,-47.49 134.47,-36.95 129.4,-27.98"/>
<polygon fill="#63b8ff" stroke="#63b8ff" points="132.33,-26.07 124.36,-19.09 126.24,-29.52 132.33,-26.07"/>
<g id="a_edge3&#45;headlabel"><a xlink:href="dir_000006_000000.html" target="_top" xlink:title="2">
<text text-anchor="middle" x="136.58" y="-25.3" font-family="Helvetica,sans-Serif" font-size="10.00" fill="#63b8ff">2</text>
</a>
</g>
</g>
<!-- dir_70398d026f8dc8cc45517d8e684fbc42 -->
<g id="node5" class="node">
<title>dir_70398d026f8dc8cc45517d8e684fbc42</title>
<g id="a_node5"><a xlink:href="dir_70398d026f8dc8cc45517d8e684fbc42.html" target="_top" xlink:title="deck">
<polygon fill="#edf0f7" stroke="#404040" points="199.5,-19 159.5,-19 159.5,0 199.5,0 199.5,-19"/>
<text text-anchor="middle" x="179.5" y="-7" font-family="Helvetica,sans-Serif" font-size="10.00">deck</text>
</a>
</g>
</g>
<!-- dir_18d58962dcdf46ba17fa85f38bb069c5&#45;&gt;dir_70398d026f8dc8cc45517d8e684fbc42 -->
<g id="edge4" class="edge">
<title>dir_18d58962dcdf46ba17fa85f38bb069c5&#45;&gt;dir_70398d026f8dc8cc45517d8e684fbc42</title>
<path fill="none" stroke="#63b8ff" d="M154.45,-54.75C158.56,-47.49 164.53,-36.95 169.6,-27.98"/>
<polygon fill="#63b8ff" stroke="#63b8ff" points="172.76,-29.52 174.64,-19.09 166.67,-26.07 172.76,-29.52"/>
<g id="a_edge4&#45;headlabel"><a xlink:href="dir_000006_000001.html" target="_top" xlink:title="1">
<text text-anchor="middle" x="173.46" y="-31.54" font-family="Helvetica,sans-Serif" font-size="10.00" fill="#63b8ff">1</text>
</a>
</g>
</g>
<!-- dir_9404ca00d5cf333c309ae0ebf80749c4 -->
<g id="node6" class="node">
<title>dir_9404ca00d5cf333c309ae0ebf80749c4</title>
<g id="a_node6"><a xlink:href="dir_9404ca00d5cf333c309ae0ebf80749c4.html" target="_top" xlink:title="entities">
<polygon fill="#edf0f7" stroke="red" points="271,-19 218,-19 218,0 271,0 271,-19"/>
<text text-anchor="middle" x="244.5" y="-7" font-family="Helvetica,sans-Serif" font-size="10.00">entities</text>
</a>
</g>
</g>
<!-- dir_18d58962dcdf46ba17fa85f38bb069c5&#45;&gt;dir_9404ca00d5cf333c309ae0ebf80749c4 -->
<g id="edge5" class="edge">
<title>dir_18d58962dcdf46ba17fa85f38bb069c5&#45;&gt;dir_9404ca00d5cf333c309ae0ebf80749c4</title>
<path fill="none" stroke="#63b8ff" d="M164.76,-54.98C179.63,-46.69 202.48,-33.94 219.92,-24.22"/>
<polygon fill="#63b8ff" stroke="#63b8ff" points="221.93,-27.1 228.96,-19.17 218.52,-20.99 221.93,-27.1"/>
<g id="a_edge5&#45;headlabel"><a xlink:href="dir_000006_000004.html" target="_top" xlink:title="3">
<text text-anchor="middle" x="220.18" y="-28.83" font-family="Helvetica,sans-Serif" font-size="10.00" fill="#63b8ff">3</text>
</a>
</g>
</g>
<!-- dir_bec78ecbdc42a5401a3b082f36c4b809 -->
<g id="node7" class="node">
<title>dir_bec78ecbdc42a5401a3b082f36c4b809</title>
<g id="a_node7"><a xlink:href="dir_bec78ecbdc42a5401a3b082f36c4b809.html" target="_top" xlink:title="factories">
<polygon fill="#edf0f7" stroke="#404040" points="348,-19 289,-19 289,0 348,0 348,-19"/>
<text text-anchor="middle" x="318.5" y="-7" font-family="Helvetica,sans-Serif" font-size="10.00">factories</text>
</a>
</g>
</g>
<!-- dir_18d58962dcdf46ba17fa85f38bb069c5&#45;&gt;dir_bec78ecbdc42a5401a3b082f36c4b809 -->
<g id="edge6" class="edge">
<title>dir_18d58962dcdf46ba17fa85f38bb069c5&#45;&gt;dir_bec78ecbdc42a5401a3b082f36c4b809</title>
<path fill="none" stroke="#63b8ff" d="M176.65,-54.98C205.03,-46.09 249.73,-32.07 281.36,-22.15"/>
<polygon fill="#63b8ff" stroke="#63b8ff" points="282.64,-25.41 291.13,-19.08 280.55,-18.73 282.64,-25.41"/>
<g id="a_edge6&#45;headlabel"><a xlink:href="dir_000006_000005.html" target="_top" xlink:title="1">
<text text-anchor="middle" x="280.06" y="-26.7" font-family="Helvetica,sans-Serif" font-size="10.00" fill="#63b8ff">1</text>
</a>
</g>
</g>
</g>
</svg>
