<?xml version="1.0" encoding="UTF-8" standalone="no"?>
<!DOCTYPE svg PUBLIC "-//W3C//DTD SVG 1.1//EN"
 "http://www.w3.org/Graphics/SVG/1.1/DTD/svg11.dtd">
<!-- Generated by graphviz version 2.43.0 (0)
 -->
<!-- Title: cards/effects Pages: 1 -->
<svg width="144pt" height="117pt"
 viewBox="0.00 0.00 144.00 117.00" xmlns="http://www.w3.org/2000/svg" xmlns:xlink="http://www.w3.org/1999/xlink">
<g id="graph0" class="graph" transform="scale(1 1) rotate(0) translate(4 113)">
<title>cards/effects</title>
<g id="clust1" class="cluster">
<title>clusterdir_4ede3bb414071aa76c9f8264ce8b8dde</title>
<g id="a_clust1"><a xlink:href="dir_4ede3bb414071aa76c9f8264ce8b8dde.html" target="_top" xlink:title="cards">
<polygon fill="#edf0f7" stroke="#404040" stroke-dasharray="5,2" points="48,-47 48,-101 114,-101 114,-47 48,-47"/>
<text text-anchor="middle" x="81" y="-89" font-family="Helvetica,sans-Serif" font-size="10.00">cards</text>
</a>
</g>
</g>
<!-- dir_05874676431c6e854ad1878c5b662663 -->
<g id="node1" class="node">
<title>dir_05874676431c6e854ad1878c5b662663</title>
<g id="a_node1"><a xlink:href="dir_05874676431c6e854ad1878c5b662663.html" target="_top" xlink:title="effects">
<polygon fill="#edf0f7" stroke="#404040" stroke-width="2" points="106,-74 56,-74 56,-55 106,-55 106,-74"/>
<text text-anchor="middle" x="81" y="-62" font-family="Helvetica,sans-Serif" font-size="10.00">effects</text>
</a>
</g>
</g>
<!-- dir_18d58962dcdf46ba17fa85f38bb069c5 -->
<g id="node2" class="node">
<title>dir_18d58962dcdf46ba17fa85f38bb069c5</title>
<g id="a_node2"><a xlink:href="dir_18d58962dcdf46ba17fa85f38bb069c5.html" target="_top" xlink:title="game_system">
<polygon fill="#edf0f7" stroke="#404040" points="86,-19 0,-19 0,0 86,0 86,-19"/>
<text text-anchor="middle" x="43" y="-7" font-family="Helvetica,sans-Serif" font-size="10.00">game_system</text>
</a>
</g>
</g>
<!-- dir_05874676431c6e854ad1878c5b662663&#45;&gt;dir_18d58962dcdf46ba17fa85f38bb069c5 -->
<g id="edge1" class="edge">
<title>dir_05874676431c6e854ad1878c5b662663&#45;&gt;dir_18d58962dcdf46ba17fa85f38bb069c5</title>
<path fill="none" stroke="#63b8ff" d="M74.73,-54.75C69.41,-47.34 61.64,-36.5 55.12,-27.41"/>
<polygon fill="#63b8ff" stroke="#63b8ff" points="57.83,-25.18 49.16,-19.09 52.14,-29.26 57.83,-25.18"/>
<g id="a_edge1&#45;headlabel"><a xlink:href="dir_000002_000006.html" target="_top" xlink:title="1">
<text text-anchor="middle" x="62.23" y="-23.94" font-family="Helvetica,sans-Serif" font-size="10.00" fill="#63b8ff">1</text>
</a>
</g>
</g>
<!-- dir_23ec12649285f9fabf3a6b7380226c28 -->
<g id="node3" class="node">
<title>dir_23ec12649285f9fabf3a6b7380226c28</title>
<g id="a_node3"><a xlink:href="dir_23ec12649285f9fabf3a6b7380226c28.html" target="_top" xlink:title="util">
<polygon fill="#edf0f7" stroke="#404040" points="136,-19 104,-19 104,0 136,0 136,-19"/>
<text text-anchor="middle" x="120" y="-7" font-family="Helvetica,sans-Serif" font-size="10.00">util</text>
</a>
</g>
</g>
<!-- dir_05874676431c6e854ad1878c5b662663&#45;&gt;dir_23ec12649285f9fabf3a6b7380226c28 -->
<g id="edge2" class="edge">
<title>dir_05874676431c6e854ad1878c5b662663&#45;&gt;dir_23ec12649285f9fabf3a6b7380226c28</title>
<path fill="none" stroke="#63b8ff" d="M87.44,-54.75C92.89,-47.34 100.86,-36.5 107.56,-27.41"/>
<polygon fill="#63b8ff" stroke="#63b8ff" points="110.57,-29.22 113.68,-19.09 104.93,-25.07 110.57,-29.22"/>
<g id="a_edge2&#45;headlabel"><a xlink:href="dir_000002_000008.html" target="_top" xlink:title="1">
<text text-anchor="middle" x="110.73" y="-31.3" font-family="Helvetica,sans-Serif" font-size="10.00" fill="#63b8ff">1</text>
</a>
</g>
</g>
</g>
</svg>
