<?xml version="1.0" encoding="UTF-8" standalone="no"?>
<!DOCTYPE svg PUBLIC "-//W3C//DTD SVG 1.1//EN"
 "http://www.w3.org/Graphics/SVG/1.1/DTD/svg11.dtd">
<!-- Generated by graphviz version 2.43.0 (0)
 -->
<!-- Title: deck Pages: 1 -->
<svg width="179pt" height="82pt"
 viewBox="0.00 0.00 178.50 82.00" xmlns="http://www.w3.org/2000/svg" xmlns:xlink="http://www.w3.org/1999/xlink">
<g id="graph0" class="graph" transform="scale(1 1) rotate(0) translate(4 78)">
<title>deck</title>
<!-- dir_70398d026f8dc8cc45517d8e684fbc42 -->
<g id="node1" class="node">
<title>dir_70398d026f8dc8cc45517d8e684fbc42</title>
<g id="a_node1"><a xlink:href="dir_70398d026f8dc8cc45517d8e684fbc42.html" target="_top" xlink:title="deck">
<polygon fill="#edf0f7" stroke="#404040" stroke-width="2" points="92,-74 52,-74 52,-55 92,-55 92,-74"/>
<text text-anchor="middle" x="72" y="-62" font-family="Helvetica,sans-Serif" font-size="10.00">deck</text>
</a>
</g>
</g>
<!-- dir_23ec12649285f9fabf3a6b7380226c28 -->
<g id="node2" class="node">
<title>dir_23ec12649285f9fabf3a6b7380226c28</title>
<g id="a_node2"><a xlink:href="dir_23ec12649285f9fabf3a6b7380226c28.html" target="_top" xlink:title="util">
<polygon fill="#edf0f7" stroke="#404040" points="32,-19 0,-19 0,0 32,0 32,-19"/>
<text text-anchor="middle" x="16" y="-7" font-family="Helvetica,sans-Serif" font-size="10.00">util</text>
</a>
</g>
</g>
<!-- dir_70398d026f8dc8cc45517d8e684fbc42&#45;&gt;dir_23ec12649285f9fabf3a6b7380226c28 -->
<g id="edge1" class="edge">
<title>dir_70398d026f8dc8cc45517d8e684fbc42&#45;&gt;dir_23ec12649285f9fabf3a6b7380226c28</title>
<path fill="none" stroke="#63b8ff" d="M63,-54.98C54.81,-47.23 42.49,-35.58 32.53,-26.14"/>
<polygon fill="#63b8ff" stroke="#63b8ff" points="34.83,-23.5 25.16,-19.17 30.02,-28.59 34.83,-23.5"/>
<g id="a_edge1&#45;headlabel"><a xlink:href="dir_000002_000009.html" target="_top" xlink:title="2">
<text text-anchor="middle" x="39.39" y="-21.41" font-family="Helvetica,sans-Serif" font-size="10.00" fill="#63b8ff">2</text>
</a>
</g>
</g>
<!-- dir_4ede3bb414071aa76c9f8264ce8b8dde -->
<g id="node3" class="node">
<title>dir_4ede3bb414071aa76c9f8264ce8b8dde</title>
<g id="a_node3"><a xlink:href="dir_4ede3bb414071aa76c9f8264ce8b8dde.html" target="_top" xlink:title="cards">
<polygon fill="#edf0f7" stroke="#404040" points="93.5,-19 50.5,-19 50.5,0 93.5,0 93.5,-19"/>
<text text-anchor="middle" x="72" y="-7" font-family="Helvetica,sans-Serif" font-size="10.00">cards</text>
</a>
</g>
</g>
<!-- dir_70398d026f8dc8cc45517d8e684fbc42&#45;&gt;dir_4ede3bb414071aa76c9f8264ce8b8dde -->
<g id="edge2" class="edge">
<title>dir_70398d026f8dc8cc45517d8e684fbc42&#45;&gt;dir_4ede3bb414071aa76c9f8264ce8b8dde</title>
<path fill="none" stroke="#63b8ff" d="M72,-54.75C72,-47.8 72,-37.85 72,-29.13"/>
<polygon fill="#63b8ff" stroke="#63b8ff" points="75.5,-29.09 72,-19.09 68.5,-29.09 75.5,-29.09"/>
<g id="a_edge2&#45;headlabel"><a xlink:href="dir_000002_000000.html" target="_top" xlink:title="2">
<text text-anchor="middle" x="78.34" y="-30.18" font-family="Helvetica,sans-Serif" font-size="10.00" fill="#63b8ff">2</text>
</a>
</g>
</g>
<!-- dir_bec78ecbdc42a5401a3b082f36c4b809 -->
<g id="node4" class="node">
<title>dir_bec78ecbdc42a5401a3b082f36c4b809</title>
<g id="a_node4"><a xlink:href="dir_bec78ecbdc42a5401a3b082f36c4b809.html" target="_top" xlink:title="factories">
<polygon fill="#edf0f7" stroke="#404040" points="170.5,-19 111.5,-19 111.5,0 170.5,0 170.5,-19"/>
<text text-anchor="middle" x="141" y="-7" font-family="Helvetica,sans-Serif" font-size="10.00">factories</text>
</a>
</g>
</g>
<!-- dir_70398d026f8dc8cc45517d8e684fbc42&#45;&gt;dir_bec78ecbdc42a5401a3b082f36c4b809 -->
<g id="edge3" class="edge">
<title>dir_70398d026f8dc8cc45517d8e684fbc42&#45;&gt;dir_bec78ecbdc42a5401a3b082f36c4b809</title>
<path fill="none" stroke="#63b8ff" d="M83.09,-54.98C93.49,-47 109.26,-34.88 121.72,-25.31"/>
<polygon fill="#63b8ff" stroke="#63b8ff" points="123.91,-28.04 129.71,-19.17 119.65,-22.49 123.91,-28.04"/>
<g id="a_edge3&#45;headlabel"><a xlink:href="dir_000002_000006.html" target="_top" xlink:title="1">
<text text-anchor="middle" x="122.79" y="-29.98" font-family="Helvetica,sans-Serif" font-size="10.00" fill="#63b8ff">1</text>
</a>
</g>
</g>
</g>
</svg>
