<?xml version="1.0" encoding="UTF-8" standalone="no"?>
<!DOCTYPE svg PUBLIC "-//W3C//DTD SVG 1.1//EN"
 "http://www.w3.org/Graphics/SVG/1.1/DTD/svg11.dtd">
<!-- Generated by graphviz version 2.43.0 (0)
 -->
<!-- Title: entities/enemies Pages: 1 -->
<svg width="130pt" height="117pt"
 viewBox="0.00 0.00 129.50 117.00" xmlns="http://www.w3.org/2000/svg" xmlns:xlink="http://www.w3.org/1999/xlink">
<g id="graph0" class="graph" transform="scale(1 1) rotate(0) translate(4 113)">
<title>entities/enemies</title>
<g id="clust1" class="cluster">
<title>clusterdir_9404ca00d5cf333c309ae0ebf80749c4</title>
<g id="a_clust1"><a xlink:href="dir_9404ca00d5cf333c309ae0ebf80749c4.html" target="_top" xlink:title="entities">
<polygon fill="#edf0f7" stroke="#404040" stroke-dasharray="5,2" points="22,-47 22,-101 98,-101 98,-47 22,-47"/>
<text text-anchor="middle" x="60" y="-89" font-family="Helvetica,sans-Serif" font-size="10.00">entities</text>
</a>
</g>
</g>
<!-- dir_c9cfae8d275c488dd3c4d7618cc4d437 -->
<g id="node1" class="node">
<title>dir_c9cfae8d275c488dd3c4d7618cc4d437</title>
<g id="a_node1"><a xlink:href="dir_c9cfae8d275c488dd3c4d7618cc4d437.html" target="_top" xlink:title="enemies">
<polygon fill="#edf0f7" stroke="#404040" stroke-width="2" points="89.5,-74 30.5,-74 30.5,-55 89.5,-55 89.5,-74"/>
<text text-anchor="middle" x="60" y="-62" font-family="Helvetica,sans-Serif" font-size="10.00">enemies</text>
</a>
</g>
</g>
<!-- dir_63bb297c276a119495816091bcd678e9 -->
<g id="node2" class="node">
<title>dir_63bb297c276a119495816091bcd678e9</title>
<g id="a_node2"><a xlink:href="dir_63bb297c276a119495816091bcd678e9.html" target="_top" xlink:title="effects">
<polygon fill="#edf0f7" stroke="#404040" points="50,-19 0,-19 0,0 50,0 50,-19"/>
<text text-anchor="middle" x="25" y="-7" font-family="Helvetica,sans-Serif" font-size="10.00">effects</text>
</a>
</g>
</g>
<!-- dir_c9cfae8d275c488dd3c4d7618cc4d437&#45;&gt;dir_63bb297c276a119495816091bcd678e9 -->
<g id="edge1" class="edge">
<title>dir_c9cfae8d275c488dd3c4d7618cc4d437&#45;&gt;dir_63bb297c276a119495816091bcd678e9</title>
<path fill="none" stroke="#63b8ff" d="M54.22,-54.75C49.38,-47.42 42.32,-36.73 36.36,-27.7"/>
<polygon fill="#63b8ff" stroke="#63b8ff" points="39.1,-25.5 30.67,-19.09 33.26,-29.36 39.1,-25.5"/>
<g id="a_edge1&#45;headlabel"><a xlink:href="dir_000004_000003.html" target="_top" xlink:title="3">
<text text-anchor="middle" x="43.45" y="-24.44" font-family="Helvetica,sans-Serif" font-size="10.00" fill="#63b8ff">3</text>
</a>
</g>
</g>
<!-- dir_e2d39b432b977da645a96dbcf8bd25b8 -->
<g id="node3" class="node">
<title>dir_e2d39b432b977da645a96dbcf8bd25b8</title>
<g id="a_node3"><a xlink:href="dir_e2d39b432b977da645a96dbcf8bd25b8.html" target="_top" xlink:title="combat">
<polygon fill="#edf0f7" stroke="#404040" points="121.5,-19 68.5,-19 68.5,0 121.5,0 121.5,-19"/>
<text text-anchor="middle" x="95" y="-7" font-family="Helvetica,sans-Serif" font-size="10.00">combat</text>
</a>
</g>
</g>
<!-- dir_c9cfae8d275c488dd3c4d7618cc4d437&#45;&gt;dir_e2d39b432b977da645a96dbcf8bd25b8 -->
<g id="edge2" class="edge">
<title>dir_c9cfae8d275c488dd3c4d7618cc4d437&#45;&gt;dir_e2d39b432b977da645a96dbcf8bd25b8</title>
<path fill="none" stroke="#63b8ff" d="M65.78,-54.75C70.62,-47.42 77.68,-36.73 83.64,-27.7"/>
<polygon fill="#63b8ff" stroke="#63b8ff" points="86.74,-29.36 89.33,-19.09 80.9,-25.5 86.74,-29.36"/>
<g id="a_edge2&#45;headlabel"><a xlink:href="dir_000004_000001.html" target="_top" xlink:title="1">
<text text-anchor="middle" x="87.13" y="-31.43" font-family="Helvetica,sans-Serif" font-size="10.00" fill="#63b8ff">1</text>
</a>
</g>
</g>
</g>
</svg>
