<?xml version="1.0" encoding="UTF-8" standalone="no"?>
<!DOCTYPE svg PUBLIC "-//W3C//DTD SVG 1.1//EN"
 "http://www.w3.org/Graphics/SVG/1.1/DTD/svg11.dtd">
<!-- Generated by graphviz version 2.43.0 (0)
 -->
<!-- Title: game_system Pages: 1 -->
<svg width="495pt" height="82pt"
 viewBox="0.00 0.00 495.00 82.00" xmlns="http://www.w3.org/2000/svg" xmlns:xlink="http://www.w3.org/1999/xlink">
<g id="graph0" class="graph" transform="scale(1 1) rotate(0) translate(4 78)">
<title>game_system</title>
<!-- dir_18d58962dcdf46ba17fa85f38bb069c5 -->
<g id="node1" class="node">
<title>dir_18d58962dcdf46ba17fa85f38bb069c5</title>
<g id="a_node1"><a xlink:href="dir_18d58962dcdf46ba17fa85f38bb069c5.html" target="_top" xlink:title="game_system">
<polygon fill="#edf0f7" stroke="#404040" stroke-width="2" points="258.5,-74 172.5,-74 172.5,-55 258.5,-55 258.5,-74"/>
<text text-anchor="middle" x="215.5" y="-62" font-family="Helvetica,sans-Serif" font-size="10.00">game_system</text>
</a>
</g>
</g>
<!-- dir_1788f8309b1a812dcb800a185471cf6c -->
<g id="node2" class="node">
<title>dir_1788f8309b1a812dcb800a185471cf6c</title>
<g id="a_node2"><a xlink:href="dir_1788f8309b1a812dcb800a185471cf6c.html" target="_top" xlink:title="ui">
<polygon fill="#edf0f7" stroke="#404040" points="29,-19 0,-19 0,0 29,0 29,-19"/>
<text text-anchor="middle" x="14.5" y="-7" font-family="Helvetica,sans-Serif" font-size="10.00">ui</text>
</a>
</g>
</g>
<!-- dir_18d58962dcdf46ba17fa85f38bb069c5&#45;&gt;dir_1788f8309b1a812dcb800a185471cf6c -->
<g id="edge1" class="edge">
<title>dir_18d58962dcdf46ba17fa85f38bb069c5&#45;&gt;dir_1788f8309b1a812dcb800a185471cf6c</title>
<path fill="none" stroke="#63b8ff" d="M177.24,-54.98C143.24,-47.16 92.03,-34.79 38.76,-18.85"/>
<polygon fill="#63b8ff" stroke="#63b8ff" points="39.74,-15.48 29.15,-15.93 37.71,-22.18 39.74,-15.48"/>
<g id="a_edge1&#45;headlabel"><a xlink:href="dir_000007_000008.html" target="_top" xlink:title="2">
<text text-anchor="middle" x="44" y="-11.31" font-family="Helvetica,sans-Serif" font-size="10.00" fill="#63b8ff">2</text>
</a>
</g>
</g>
<!-- dir_23ec12649285f9fabf3a6b7380226c28 -->
<g id="node3" class="node">
<title>dir_23ec12649285f9fabf3a6b7380226c28</title>
<g id="a_node3"><a xlink:href="dir_23ec12649285f9fabf3a6b7380226c28.html" target="_top" xlink:title="util">
<polygon fill="#edf0f7" stroke="#404040" points="79.5,-19 47.5,-19 47.5,0 79.5,0 79.5,-19"/>
<text text-anchor="middle" x="63.5" y="-7" font-family="Helvetica,sans-Serif" font-size="10.00">util</text>
</a>
</g>
</g>
<!-- dir_18d58962dcdf46ba17fa85f38bb069c5&#45;&gt;dir_23ec12649285f9fabf3a6b7380226c28 -->
<g id="edge2" class="edge">
<title>dir_18d58962dcdf46ba17fa85f38bb069c5&#45;&gt;dir_23ec12649285f9fabf3a6b7380226c28</title>
<path fill="none" stroke="#63b8ff" d="M191.08,-54.98C163.27,-45.29 118.03,-29.51 89.56,-19.59"/>
<polygon fill="#63b8ff" stroke="#63b8ff" points="90.49,-16.21 79.9,-16.22 88.19,-22.81 90.49,-16.21"/>
<g id="a_edge2&#45;headlabel"><a xlink:href="dir_000007_000009.html" target="_top" xlink:title="1">
<text text-anchor="middle" x="94.82" y="-12.21" font-family="Helvetica,sans-Serif" font-size="10.00" fill="#63b8ff">1</text>
</a>
</g>
</g>
<!-- dir_4ede3bb414071aa76c9f8264ce8b8dde -->
<g id="node4" class="node">
<title>dir_4ede3bb414071aa76c9f8264ce8b8dde</title>
<g id="a_node4"><a xlink:href="dir_4ede3bb414071aa76c9f8264ce8b8dde.html" target="_top" xlink:title="cards">
<polygon fill="#edf0f7" stroke="#404040" points="141,-19 98,-19 98,0 141,0 141,-19"/>
<text text-anchor="middle" x="119.5" y="-7" font-family="Helvetica,sans-Serif" font-size="10.00">cards</text>
</a>
</g>
</g>
<!-- dir_18d58962dcdf46ba17fa85f38bb069c5&#45;&gt;dir_4ede3bb414071aa76c9f8264ce8b8dde -->
<g id="edge3" class="edge">
<title>dir_18d58962dcdf46ba17fa85f38bb069c5&#45;&gt;dir_4ede3bb414071aa76c9f8264ce8b8dde</title>
<path fill="none" stroke="#63b8ff" d="M200.08,-54.98C185.05,-46.69 161.96,-33.94 144.34,-24.22"/>
<polygon fill="#63b8ff" stroke="#63b8ff" points="145.65,-20.94 135.2,-19.17 142.27,-27.07 145.65,-20.94"/>
<g id="a_edge3&#45;headlabel"><a xlink:href="dir_000007_000000.html" target="_top" xlink:title="1">
<text text-anchor="middle" x="150.17" y="-17.69" font-family="Helvetica,sans-Serif" font-size="10.00" fill="#63b8ff">1</text>
</a>
</g>
</g>
<!-- dir_63bb297c276a119495816091bcd678e9 -->
<g id="node5" class="node">
<title>dir_63bb297c276a119495816091bcd678e9</title>
<g id="a_node5"><a xlink:href="dir_63bb297c276a119495816091bcd678e9.html" target="_top" xlink:title="effects">
<polygon fill="#edf0f7" stroke="#404040" points="209.5,-19 159.5,-19 159.5,0 209.5,0 209.5,-19"/>
<text text-anchor="middle" x="184.5" y="-7" font-family="Helvetica,sans-Serif" font-size="10.00">effects</text>
</a>
</g>
</g>
<!-- dir_18d58962dcdf46ba17fa85f38bb069c5&#45;&gt;dir_63bb297c276a119495816091bcd678e9 -->
<g id="edge4" class="edge">
<title>dir_18d58962dcdf46ba17fa85f38bb069c5&#45;&gt;dir_63bb297c276a119495816091bcd678e9</title>
<path fill="none" stroke="#63b8ff" d="M210.38,-54.75C206.14,-47.49 199.97,-36.95 194.72,-27.98"/>
<polygon fill="#63b8ff" stroke="#63b8ff" points="197.59,-25.95 189.52,-19.09 191.55,-29.49 197.59,-25.95"/>
<g id="a_edge4&#45;headlabel"><a xlink:href="dir_000007_000003.html" target="_top" xlink:title="1">
<text text-anchor="middle" x="201.86" y="-25.12" font-family="Helvetica,sans-Serif" font-size="10.00" fill="#63b8ff">1</text>
</a>
</g>
</g>
<!-- dir_70398d026f8dc8cc45517d8e684fbc42 -->
<g id="node6" class="node">
<title>dir_70398d026f8dc8cc45517d8e684fbc42</title>
<g id="a_node6"><a xlink:href="dir_70398d026f8dc8cc45517d8e684fbc42.html" target="_top" xlink:title="deck">
<polygon fill="#edf0f7" stroke="#404040" points="267.5,-19 227.5,-19 227.5,0 267.5,0 267.5,-19"/>
<text text-anchor="middle" x="247.5" y="-7" font-family="Helvetica,sans-Serif" font-size="10.00">deck</text>
</a>
</g>
</g>
<!-- dir_18d58962dcdf46ba17fa85f38bb069c5&#45;&gt;dir_70398d026f8dc8cc45517d8e684fbc42 -->
<g id="edge5" class="edge">
<title>dir_18d58962dcdf46ba17fa85f38bb069c5&#45;&gt;dir_70398d026f8dc8cc45517d8e684fbc42</title>
<path fill="none" stroke="#63b8ff" d="M220.78,-54.75C225.21,-47.42 231.66,-36.73 237.12,-27.7"/>
<polygon fill="#63b8ff" stroke="#63b8ff" points="240.14,-29.46 242.31,-19.09 234.15,-25.84 240.14,-29.46"/>
<g id="a_edge5&#45;headlabel"><a xlink:href="dir_000007_000002.html" target="_top" xlink:title="1">
<text text-anchor="middle" x="240.71" y="-31.5" font-family="Helvetica,sans-Serif" font-size="10.00" fill="#63b8ff">1</text>
</a>
</g>
</g>
<!-- dir_9404ca00d5cf333c309ae0ebf80749c4 -->
<g id="node7" class="node">
<title>dir_9404ca00d5cf333c309ae0ebf80749c4</title>
<g id="a_node7"><a xlink:href="dir_9404ca00d5cf333c309ae0ebf80749c4.html" target="_top" xlink:title="entities">
<polygon fill="#edf0f7" stroke="red" points="339,-19 286,-19 286,0 339,0 339,-19"/>
<text text-anchor="middle" x="312.5" y="-7" font-family="Helvetica,sans-Serif" font-size="10.00">entities</text>
</a>
</g>
</g>
<!-- dir_18d58962dcdf46ba17fa85f38bb069c5&#45;&gt;dir_9404ca00d5cf333c309ae0ebf80749c4 -->
<g id="edge6" class="edge">
<title>dir_18d58962dcdf46ba17fa85f38bb069c5&#45;&gt;dir_9404ca00d5cf333c309ae0ebf80749c4</title>
<path fill="none" stroke="#63b8ff" d="M231.08,-54.98C246.27,-46.69 269.6,-33.94 287.4,-24.22"/>
<polygon fill="#63b8ff" stroke="#63b8ff" points="289.53,-27.04 296.63,-19.17 286.18,-20.89 289.53,-27.04"/>
<g id="a_edge6&#45;headlabel"><a xlink:href="dir_000007_000005.html" target="_top" xlink:title="6">
<text text-anchor="middle" x="287.74" y="-28.75" font-family="Helvetica,sans-Serif" font-size="10.00" fill="#63b8ff">6</text>
</a>
</g>
</g>
<!-- dir_bec78ecbdc42a5401a3b082f36c4b809 -->
<g id="node8" class="node">
<title>dir_bec78ecbdc42a5401a3b082f36c4b809</title>
<g id="a_node8"><a xlink:href="dir_bec78ecbdc42a5401a3b082f36c4b809.html" target="_top" xlink:title="factories">
<polygon fill="#edf0f7" stroke="#404040" points="416,-19 357,-19 357,0 416,0 416,-19"/>
<text text-anchor="middle" x="386.5" y="-7" font-family="Helvetica,sans-Serif" font-size="10.00">factories</text>
</a>
</g>
</g>
<!-- dir_18d58962dcdf46ba17fa85f38bb069c5&#45;&gt;dir_bec78ecbdc42a5401a3b082f36c4b809 -->
<g id="edge7" class="edge">
<title>dir_18d58962dcdf46ba17fa85f38bb069c5&#45;&gt;dir_bec78ecbdc42a5401a3b082f36c4b809</title>
<path fill="none" stroke="#63b8ff" d="M242.97,-54.98C271.68,-46.09 316.92,-32.07 348.92,-22.15"/>
<polygon fill="#63b8ff" stroke="#63b8ff" points="350.3,-25.39 358.81,-19.08 348.22,-18.7 350.3,-25.39"/>
<g id="a_edge7&#45;headlabel"><a xlink:href="dir_000007_000006.html" target="_top" xlink:title="1">
<text text-anchor="middle" x="347.7" y="-26.66" font-family="Helvetica,sans-Serif" font-size="10.00" fill="#63b8ff">1</text>
</a>
</g>
</g>
<!-- dir_e2d39b432b977da645a96dbcf8bd25b8 -->
<g id="node9" class="node">
<title>dir_e2d39b432b977da645a96dbcf8bd25b8</title>
<g id="a_node9"><a xlink:href="dir_e2d39b432b977da645a96dbcf8bd25b8.html" target="_top" xlink:title="combat">
<polygon fill="#edf0f7" stroke="#404040" points="487,-19 434,-19 434,0 487,0 487,-19"/>
<text text-anchor="middle" x="460.5" y="-7" font-family="Helvetica,sans-Serif" font-size="10.00">combat</text>
</a>
</g>
</g>
<!-- dir_18d58962dcdf46ba17fa85f38bb069c5&#45;&gt;dir_e2d39b432b977da645a96dbcf8bd25b8 -->
<g id="edge8" class="edge">
<title>dir_18d58962dcdf46ba17fa85f38bb069c5&#45;&gt;dir_e2d39b432b977da645a96dbcf8bd25b8</title>
<path fill="none" stroke="#63b8ff" d="M257.42,-55C297.7,-46.74 360.56,-33.63 423.64,-19.38"/>
<polygon fill="#63b8ff" stroke="#63b8ff" points="424.79,-22.71 433.77,-17.08 423.24,-15.88 424.79,-22.71"/>
<g id="a_edge8&#45;headlabel"><a xlink:href="dir_000007_000001.html" target="_top" xlink:title="2">
<text text-anchor="middle" x="421.91" y="-23.77" font-family="Helvetica,sans-Serif" font-size="10.00" fill="#63b8ff">2</text>
</a>
</g>
</g>
</g>
</svg>
