<?xml version="1.0" encoding="UTF-8" standalone="no"?>
<!DOCTYPE svg PUBLIC "-//W3C//DTD SVG 1.1//EN"
 "http://www.w3.org/Graphics/SVG/1.1/DTD/svg11.dtd">
<!-- Generated by graphviz version 2.43.0 (0)
 -->
<!-- Title: effects/effect.h Pages: 1 -->
<svg width="921pt" height="247pt"
 viewBox="0.00 0.00 920.50 247.00" xmlns="http://www.w3.org/2000/svg" xmlns:xlink="http://www.w3.org/1999/xlink">
<g id="graph0" class="graph" transform="scale(1 1) rotate(0) translate(4 243)">
<title>effects/effect.h</title>
<!-- Node1 -->
<g id="node1" class="node">
<title>Node1</title>
<g id="a_node1"><a xlink:title=" ">
<polygon fill="#999999" stroke="#666666" points="364.5,-239 275.5,-239 275.5,-220 364.5,-220 364.5,-239"/>
<text text-anchor="middle" x="320" y="-227" font-family="Helvetica,sans-Serif" font-size="10.00">effects/effect.h</text>
</a>
</g>
</g>
<!-- Node2 -->
<g id="node2" class="node">
<title>Node2</title>
<g id="a_node2"><a xlink:href="cardDefinition_8cpp.html" target="_top" xlink:title=" ">
<polygon fill="white" stroke="#666666" points="134,-184 0,-184 0,-165 134,-165 134,-184"/>
<text text-anchor="middle" x="67" y="-172" font-family="Helvetica,sans-Serif" font-size="10.00">cards/cardDefinition.cpp</text>
</a>
</g>
</g>
<!-- Node1&#45;&gt;Node2 -->
<g id="edge1" class="edge">
<title>Node1&#45;&gt;Node2</title>
<path fill="none" stroke="#63b8ff" d="M269.3,-217.88C221.88,-207.94 151.95,-193.3 107.97,-184.08"/>
<polygon fill="#63b8ff" stroke="#63b8ff" points="268.85,-221.36 279.35,-219.98 270.28,-214.51 268.85,-221.36"/>
</g>
<!-- Node3 -->
<g id="node3" class="node">
<title>Node3</title>
<g id="a_node3"><a xlink:href="gainArmorEffect_8h.html" target="_top" xlink:title=" ">
<polygon fill="white" stroke="#666666" points="292,-184 152,-184 152,-165 292,-165 292,-184"/>
<text text-anchor="middle" x="222" y="-172" font-family="Helvetica,sans-Serif" font-size="10.00">effects/gainArmorEffect.h</text>
</a>
</g>
</g>
<!-- Node1&#45;&gt;Node3 -->
<g id="edge2" class="edge">
<title>Node1&#45;&gt;Node3</title>
<path fill="none" stroke="#63b8ff" d="M294.97,-214.97C277.06,-205.28 253.47,-192.52 238.03,-184.17"/>
<polygon fill="#63b8ff" stroke="#63b8ff" points="293.79,-218.31 304.25,-219.98 297.12,-212.15 293.79,-218.31"/>
</g>
<!-- Node6 -->
<g id="node6" class="node">
<title>Node6</title>
<g id="a_node6"><a xlink:href="cardFactory_8cpp.html" target="_top" xlink:title=" ">
<polygon fill="white" stroke="#666666" points="388.5,-129 251.5,-129 251.5,-110 388.5,-110 388.5,-129"/>
<text text-anchor="middle" x="320" y="-117" font-family="Helvetica,sans-Serif" font-size="10.00">factories/cardFactory.cpp</text>
</a>
</g>
</g>
<!-- Node1&#45;&gt;Node6 -->
<g id="edge14" class="edge">
<title>Node1&#45;&gt;Node6</title>
<path fill="none" stroke="#63b8ff" d="M320,-209.48C320,-185.84 320,-146.5 320,-129.16"/>
<polygon fill="#63b8ff" stroke="#63b8ff" points="316.5,-209.66 320,-219.66 323.5,-209.66 316.5,-209.66"/>
</g>
<!-- Node7 -->
<g id="node7" class="node">
<title>Node7</title>
<g id="a_node7"><a xlink:href="enemyMove_8h.html" target="_top" xlink:title=" ">
<polygon fill="white" stroke="#666666" points="600.5,-184 429.5,-184 429.5,-165 600.5,-165 600.5,-184"/>
<text text-anchor="middle" x="515" y="-172" font-family="Helvetica,sans-Serif" font-size="10.00">entities/enemies/enemyMove.h</text>
</a>
</g>
</g>
<!-- Node1&#45;&gt;Node7 -->
<g id="edge6" class="edge">
<title>Node1&#45;&gt;Node7</title>
<path fill="none" stroke="#63b8ff" d="M361.17,-217.31C397.66,-207.39 450.17,-193.12 483.42,-184.08"/>
<polygon fill="#63b8ff" stroke="#63b8ff" points="360.06,-213.98 351.33,-219.98 361.9,-220.74 360.06,-213.98"/>
</g>
<!-- Node11 -->
<g id="node11" class="node">
<title>Node11</title>
<g id="a_node11"><a xlink:href="cardmatch_8cpp.html" target="_top" xlink:title=" ">
<polygon fill="white" stroke="#666666" points="912.5,-74 751.5,-74 751.5,-55 912.5,-55 912.5,-74"/>
<text text-anchor="middle" x="832" y="-62" font-family="Helvetica,sans-Serif" font-size="10.00">game_system/cardmatch.cpp</text>
</a>
</g>
</g>
<!-- Node1&#45;&gt;Node11 -->
<g id="edge15" class="edge">
<title>Node1&#45;&gt;Node11</title>
<path fill="none" stroke="#63b8ff" d="M374.83,-225.6C434.12,-221.21 530.78,-210.36 610,-184 695.39,-155.58 787.11,-96.17 819.67,-74.04"/>
<polygon fill="#63b8ff" stroke="#63b8ff" points="374.3,-222.13 364.57,-226.33 374.79,-229.11 374.3,-222.13"/>
</g>
<!-- Node4 -->
<g id="node4" class="node">
<title>Node4</title>
<g id="a_node4"><a xlink:href="gainArmorEffect_8cpp.html" target="_top" xlink:title=" ">
<polygon fill="white" stroke="#666666" points="184,-129 32,-129 32,-110 184,-110 184,-129"/>
<text text-anchor="middle" x="108" y="-117" font-family="Helvetica,sans-Serif" font-size="10.00">effects/gainArmorEffect.cpp</text>
</a>
</g>
</g>
<!-- Node3&#45;&gt;Node4 -->
<g id="edge3" class="edge">
<title>Node3&#45;&gt;Node4</title>
<path fill="none" stroke="#63b8ff" d="M194.61,-160.77C173.58,-150.99 145.11,-137.75 126.65,-129.17"/>
<polygon fill="#63b8ff" stroke="#63b8ff" points="193.14,-163.94 203.68,-164.98 196.09,-157.6 193.14,-163.94"/>
</g>
<!-- Node5 -->
<g id="node5" class="node">
<title>Node5</title>
<g id="a_node5"><a xlink:href="wolfPack_8cpp.html" target="_top" xlink:title=" ">
<polygon fill="white" stroke="#666666" points="432.5,-19 267.5,-19 267.5,0 432.5,0 432.5,-19"/>
<text text-anchor="middle" x="350" y="-7" font-family="Helvetica,sans-Serif" font-size="10.00">entities/enemies/wolfPack.cpp</text>
</a>
</g>
</g>
<!-- Node3&#45;&gt;Node5 -->
<g id="edge4" class="edge">
<title>Node3&#45;&gt;Node5</title>
<path fill="none" stroke="#63b8ff" d="M217.77,-154.91C213.15,-129.62 209.07,-84.18 231,-55 245.18,-36.13 268.29,-25.26 290.4,-19"/>
<polygon fill="#63b8ff" stroke="#63b8ff" points="214.4,-155.89 219.83,-164.98 221.25,-154.48 214.4,-155.89"/>
</g>
<!-- Node3&#45;&gt;Node6 -->
<g id="edge5" class="edge">
<title>Node3&#45;&gt;Node6</title>
<path fill="none" stroke="#63b8ff" d="M247.03,-159.97C264.94,-150.28 288.53,-137.52 303.97,-129.17"/>
<polygon fill="#63b8ff" stroke="#63b8ff" points="244.88,-157.15 237.75,-164.98 248.21,-163.31 244.88,-157.15"/>
</g>
<!-- Node8 -->
<g id="node8" class="node">
<title>Node8</title>
<g id="a_node8"><a xlink:href="enemy_8h.html" target="_top" xlink:title=" ">
<polygon fill="white" stroke="#666666" points="586.5,-129 443.5,-129 443.5,-110 586.5,-110 586.5,-129"/>
<text text-anchor="middle" x="515" y="-117" font-family="Helvetica,sans-Serif" font-size="10.00">entities/enemies/enemy.h</text>
</a>
</g>
</g>
<!-- Node7&#45;&gt;Node8 -->
<g id="edge7" class="edge">
<title>Node7&#45;&gt;Node8</title>
<path fill="none" stroke="#63b8ff" d="M515,-154.66C515,-145.93 515,-135.99 515,-129.09"/>
<polygon fill="#63b8ff" stroke="#63b8ff" points="511.5,-154.75 515,-164.75 518.5,-154.75 511.5,-154.75"/>
</g>
<!-- Node7&#45;&gt;Node11 -->
<g id="edge13" class="edge">
<title>Node7&#45;&gt;Node11</title>
<path fill="none" stroke="#63b8ff" d="M549.84,-161.63C614.26,-139.68 750.56,-93.25 806.86,-74.07"/>
<polygon fill="#63b8ff" stroke="#63b8ff" points="548.48,-158.4 540.14,-164.94 550.73,-165.02 548.48,-158.4"/>
</g>
<!-- Node9 -->
<g id="node9" class="node">
<title>Node9</title>
<g id="a_node9"><a xlink:href="enemy_8cpp.html" target="_top" xlink:title=" ">
<polygon fill="white" stroke="#666666" points="394,-74 240,-74 240,-55 394,-55 394,-74"/>
<text text-anchor="middle" x="317" y="-62" font-family="Helvetica,sans-Serif" font-size="10.00">entities/enemies/enemy.cpp</text>
</a>
</g>
</g>
<!-- Node8&#45;&gt;Node9 -->
<g id="edge8" class="edge">
<title>Node8&#45;&gt;Node9</title>
<path fill="none" stroke="#63b8ff" d="M473.2,-107.31C436.15,-97.39 382.83,-83.12 349.06,-74.08"/>
<polygon fill="#63b8ff" stroke="#63b8ff" points="472.62,-110.78 483.19,-109.98 474.43,-104.02 472.62,-110.78"/>
</g>
<!-- Node10 -->
<g id="node10" class="node">
<title>Node10</title>
<g id="a_node10"><a xlink:href="wolfPack_8h.html" target="_top" xlink:title=" ">
<polygon fill="white" stroke="#666666" points="566,-74 412,-74 412,-55 566,-55 566,-74"/>
<text text-anchor="middle" x="489" y="-62" font-family="Helvetica,sans-Serif" font-size="10.00">entities/enemies/wolfPack.h</text>
</a>
</g>
</g>
<!-- Node8&#45;&gt;Node10 -->
<g id="edge9" class="edge">
<title>Node8&#45;&gt;Node10</title>
<path fill="none" stroke="#63b8ff" d="M506.18,-100.53C501.8,-91.6 496.71,-81.22 493.21,-74.09"/>
<polygon fill="#63b8ff" stroke="#63b8ff" points="503.16,-102.31 510.71,-109.75 509.44,-99.23 503.16,-102.31"/>
</g>
<!-- Node8&#45;&gt;Node11 -->
<g id="edge11" class="edge">
<title>Node8&#45;&gt;Node11</title>
<path fill="none" stroke="#63b8ff" d="M575.95,-108.31C635.48,-98.36 725.04,-83.38 780.93,-74.04"/>
<polygon fill="#63b8ff" stroke="#63b8ff" points="575.22,-104.88 565.93,-109.98 576.37,-111.79 575.22,-104.88"/>
</g>
<!-- Node12 -->
<g id="node12" class="node">
<title>Node12</title>
<g id="a_node12"><a xlink:href="cardmatch_8h.html" target="_top" xlink:title=" ">
<polygon fill="white" stroke="#666666" points="733.5,-74 584.5,-74 584.5,-55 733.5,-55 733.5,-74"/>
<text text-anchor="middle" x="659" y="-62" font-family="Helvetica,sans-Serif" font-size="10.00">game_system/cardmatch.h</text>
</a>
</g>
</g>
<!-- Node8&#45;&gt;Node12 -->
<g id="edge12" class="edge">
<title>Node8&#45;&gt;Node12</title>
<path fill="none" stroke="#63b8ff" d="M547.82,-106.42C574.53,-96.59 611.6,-82.95 635.44,-74.17"/>
<polygon fill="#63b8ff" stroke="#63b8ff" points="546.31,-103.25 538.14,-109.98 548.73,-109.82 546.31,-103.25"/>
</g>
<!-- Node10&#45;&gt;Node5 -->
<g id="edge10" class="edge">
<title>Node10&#45;&gt;Node5</title>
<path fill="none" stroke="#63b8ff" d="M457.32,-51.42C431.53,-41.59 395.76,-27.95 372.74,-19.17"/>
<polygon fill="#63b8ff" stroke="#63b8ff" points="456.08,-54.69 466.67,-54.98 458.57,-48.15 456.08,-54.69"/>
</g>
</g>
</svg>
