<?xml version="1.0" encoding="UTF-8" standalone="no"?>
<!DOCTYPE svg PUBLIC "-//W3C//DTD SVG 1.1//EN"
 "http://www.w3.org/Graphics/SVG/1.1/DTD/svg11.dtd">
<!-- Generated by graphviz version 2.43.0 (0)
 -->
<!-- Title: effects/effectParams.h Pages: 1 -->
<svg width="1335pt" height="302pt"
 viewBox="0.00 0.00 1334.50 302.00" xmlns="http://www.w3.org/2000/svg" xmlns:xlink="http://www.w3.org/1999/xlink">
<g id="graph0" class="graph" transform="scale(1 1) rotate(0) translate(4 298)">
<title>effects/effectParams.h</title>
<!-- Node1 -->
<g id="node1" class="node">
<title>Node1</title>
<g id="a_node1"><a xlink:title=" ">
<polygon fill="#999999" stroke="#666666" points="884.5,-294 759.5,-294 759.5,-275 884.5,-275 884.5,-294"/>
<text text-anchor="middle" x="822" y="-282" font-family="Helvetica,sans-Serif" font-size="10.00">effects/effectParams.h</text>
</a>
</g>
</g>
<!-- Node2 -->
<g id="node2" class="node">
<title>Node2</title>
<g id="a_node2"><a xlink:href="cardInstance_8h.html" target="_top" xlink:title=" ">
<polygon fill="white" stroke="#666666" points="416.5,-184 299.5,-184 299.5,-165 416.5,-165 416.5,-184"/>
<text text-anchor="middle" x="358" y="-172" font-family="Helvetica,sans-Serif" font-size="10.00">cards/cardInstance.h</text>
</a>
</g>
</g>
<!-- Node1&#45;&gt;Node2 -->
<g id="edge1" class="edge">
<title>Node1&#45;&gt;Node2</title>
<path fill="none" stroke="#63b8ff" d="M775.3,-272.63C682.9,-251.12 478.48,-203.54 394.8,-184.07"/>
<polygon fill="#63b8ff" stroke="#63b8ff" points="774.67,-276.08 785.2,-274.94 776.26,-269.26 774.67,-276.08"/>
</g>
<!-- Node7 -->
<g id="node7" class="node">
<title>Node7</title>
<g id="a_node7"><a xlink:href="effect_8h.html" target="_top" xlink:title=" ">
<polygon fill="white" stroke="#666666" points="866.5,-239 777.5,-239 777.5,-220 866.5,-220 866.5,-239"/>
<text text-anchor="middle" x="822" y="-227" font-family="Helvetica,sans-Serif" font-size="10.00">effects/effect.h</text>
</a>
</g>
</g>
<!-- Node1&#45;&gt;Node7 -->
<g id="edge6" class="edge">
<title>Node1&#45;&gt;Node7</title>
<path fill="none" stroke="#63b8ff" d="M822,-264.66C822,-255.93 822,-245.99 822,-239.09"/>
<polygon fill="#63b8ff" stroke="#63b8ff" points="818.5,-264.75 822,-274.75 825.5,-264.75 818.5,-264.75"/>
</g>
<!-- Node11 -->
<g id="node11" class="node">
<title>Node11</title>
<g id="a_node11"><a xlink:href="enemyMove_8h.html" target="_top" xlink:title=" ">
<polygon fill="white" stroke="#666666" points="1199.5,-184 1028.5,-184 1028.5,-165 1199.5,-165 1199.5,-184"/>
<text text-anchor="middle" x="1114" y="-172" font-family="Helvetica,sans-Serif" font-size="10.00">entities/enemies/enemyMove.h</text>
</a>
</g>
</g>
<!-- Node1&#45;&gt;Node11 -->
<g id="edge22" class="edge">
<title>Node1&#45;&gt;Node11</title>
<path fill="none" stroke="#63b8ff" d="M855.1,-271.26C914.86,-249.15 1039.36,-203.11 1090.89,-184.05"/>
<polygon fill="#63b8ff" stroke="#63b8ff" points="853.57,-268.09 845.4,-274.84 856,-274.66 853.57,-268.09"/>
</g>
<!-- Node3 -->
<g id="node3" class="node">
<title>Node3</title>
<g id="a_node3"><a xlink:href="cardInstance_8cpp.html" target="_top" xlink:title=" ">
<polygon fill="white" stroke="#666666" points="128,-129 0,-129 0,-110 128,-110 128,-129"/>
<text text-anchor="middle" x="64" y="-117" font-family="Helvetica,sans-Serif" font-size="10.00">cards/cardInstance.cpp</text>
</a>
</g>
</g>
<!-- Node2&#45;&gt;Node3 -->
<g id="edge2" class="edge">
<title>Node2&#45;&gt;Node3</title>
<path fill="none" stroke="#63b8ff" d="M300.8,-163.19C245.68,-153.25 163.25,-138.39 111.61,-129.08"/>
<polygon fill="#63b8ff" stroke="#63b8ff" points="300.3,-166.65 310.76,-164.98 301.54,-159.77 300.3,-166.65"/>
</g>
<!-- Node4 -->
<g id="node4" class="node">
<title>Node4</title>
<g id="a_node4"><a xlink:href="deckCombat_8cpp.html" target="_top" xlink:title=" ">
<polygon fill="white" stroke="#666666" points="271.5,-129 146.5,-129 146.5,-110 271.5,-110 271.5,-129"/>
<text text-anchor="middle" x="209" y="-117" font-family="Helvetica,sans-Serif" font-size="10.00">deck/deckCombat.cpp</text>
</a>
</g>
</g>
<!-- Node2&#45;&gt;Node4 -->
<g id="edge3" class="edge">
<title>Node2&#45;&gt;Node4</title>
<path fill="none" stroke="#63b8ff" d="M324.41,-161.55C296.74,-151.71 258.16,-137.98 233.38,-129.17"/>
<polygon fill="#63b8ff" stroke="#63b8ff" points="323.47,-164.93 334.06,-164.98 325.81,-158.34 323.47,-164.93"/>
</g>
<!-- Node5 -->
<g id="node5" class="node">
<title>Node5</title>
<g id="a_node5"><a xlink:href="gainArmorEffect_8cpp.html" target="_top" xlink:title=" ">
<polygon fill="white" stroke="#666666" points="597,-129 445,-129 445,-110 597,-110 597,-129"/>
<text text-anchor="middle" x="521" y="-117" font-family="Helvetica,sans-Serif" font-size="10.00">effects/gainArmorEffect.cpp</text>
</a>
</g>
</g>
<!-- Node2&#45;&gt;Node5 -->
<g id="edge4" class="edge">
<title>Node2&#45;&gt;Node5</title>
<path fill="none" stroke="#63b8ff" d="M393.99,-161.8C424.41,-151.91 467.28,-137.97 494.61,-129.08"/>
<polygon fill="#63b8ff" stroke="#63b8ff" points="392.62,-158.56 384.19,-164.98 394.78,-165.22 392.62,-158.56"/>
</g>
<!-- Node6 -->
<g id="node6" class="node">
<title>Node6</title>
<g id="a_node6"><a xlink:href="cardFactory_8cpp.html" target="_top" xlink:title=" ">
<polygon fill="white" stroke="#666666" points="426.5,-129 289.5,-129 289.5,-110 426.5,-110 426.5,-129"/>
<text text-anchor="middle" x="358" y="-117" font-family="Helvetica,sans-Serif" font-size="10.00">factories/cardFactory.cpp</text>
</a>
</g>
</g>
<!-- Node2&#45;&gt;Node6 -->
<g id="edge5" class="edge">
<title>Node2&#45;&gt;Node6</title>
<path fill="none" stroke="#63b8ff" d="M358,-154.66C358,-145.93 358,-135.99 358,-129.09"/>
<polygon fill="#63b8ff" stroke="#63b8ff" points="354.5,-154.75 358,-164.75 361.5,-154.75 354.5,-154.75"/>
</g>
<!-- Node7&#45;&gt;Node6 -->
<g id="edge20" class="edge">
<title>Node7&#45;&gt;Node6</title>
<path fill="none" stroke="#63b8ff" d="M767.13,-225.28C703.2,-220.5 594.84,-209.21 505,-184 455.22,-170.03 400.17,-142.84 373.8,-129.01"/>
<polygon fill="#63b8ff" stroke="#63b8ff" points="767.16,-228.79 777.39,-226.01 767.67,-221.8 767.16,-228.79"/>
</g>
<!-- Node8 -->
<g id="node8" class="node">
<title>Node8</title>
<g id="a_node8"><a xlink:href="cardDefinition_8cpp.html" target="_top" xlink:title=" ">
<polygon fill="white" stroke="#666666" points="889,-184 755,-184 755,-165 889,-165 889,-184"/>
<text text-anchor="middle" x="822" y="-172" font-family="Helvetica,sans-Serif" font-size="10.00">cards/cardDefinition.cpp</text>
</a>
</g>
</g>
<!-- Node7&#45;&gt;Node8 -->
<g id="edge7" class="edge">
<title>Node7&#45;&gt;Node8</title>
<path fill="none" stroke="#63b8ff" d="M822,-209.66C822,-200.93 822,-190.99 822,-184.09"/>
<polygon fill="#63b8ff" stroke="#63b8ff" points="818.5,-209.75 822,-219.75 825.5,-209.75 818.5,-209.75"/>
</g>
<!-- Node9 -->
<g id="node9" class="node">
<title>Node9</title>
<g id="a_node9"><a xlink:href="gainArmorEffect_8h.html" target="_top" xlink:title=" ">
<polygon fill="white" stroke="#666666" points="654,-184 514,-184 514,-165 654,-165 654,-184"/>
<text text-anchor="middle" x="584" y="-172" font-family="Helvetica,sans-Serif" font-size="10.00">effects/gainArmorEffect.h</text>
</a>
</g>
</g>
<!-- Node7&#45;&gt;Node9 -->
<g id="edge8" class="edge">
<title>Node7&#45;&gt;Node9</title>
<path fill="none" stroke="#63b8ff" d="M773.74,-217.75C729.14,-207.82 663.74,-193.26 622.54,-184.08"/>
<polygon fill="#63b8ff" stroke="#63b8ff" points="773.24,-221.23 783.76,-219.98 774.76,-214.39 773.24,-221.23"/>
</g>
<!-- Node7&#45;&gt;Node11 -->
<g id="edge12" class="edge">
<title>Node7&#45;&gt;Node11</title>
<path fill="none" stroke="#63b8ff" d="M876.55,-218.6C931.35,-208.65 1014.93,-193.48 1066.92,-184.05"/>
<polygon fill="#63b8ff" stroke="#63b8ff" points="875.88,-215.16 866.67,-220.39 877.13,-222.05 875.88,-215.16"/>
</g>
<!-- Node15 -->
<g id="node15" class="node">
<title>Node15</title>
<g id="a_node15"><a xlink:href="cardmatch_8cpp.html" target="_top" xlink:title=" ">
<polygon fill="white" stroke="#666666" points="1326.5,-74 1165.5,-74 1165.5,-55 1326.5,-55 1326.5,-74"/>
<text text-anchor="middle" x="1246" y="-62" font-family="Helvetica,sans-Serif" font-size="10.00">game_system/cardmatch.cpp</text>
</a>
</g>
</g>
<!-- Node7&#45;&gt;Node15 -->
<g id="edge21" class="edge">
<title>Node7&#45;&gt;Node15</title>
<path fill="none" stroke="#63b8ff" d="M853.74,-216.3C935.8,-184.75 1153.46,-101.07 1223.77,-74.05"/>
<polygon fill="#63b8ff" stroke="#63b8ff" points="852.28,-213.11 844.2,-219.97 854.79,-219.64 852.28,-213.11"/>
</g>
<!-- Node9&#45;&gt;Node5 -->
<g id="edge9" class="edge">
<title>Node9&#45;&gt;Node5</title>
<path fill="none" stroke="#63b8ff" d="M565.96,-158.32C554.73,-148.87 540.68,-137.06 531.31,-129.17"/>
<polygon fill="#63b8ff" stroke="#63b8ff" points="563.97,-161.23 573.88,-164.98 568.48,-155.87 563.97,-161.23"/>
</g>
<!-- Node9&#45;&gt;Node6 -->
<g id="edge11" class="edge">
<title>Node9&#45;&gt;Node6</title>
<path fill="none" stroke="#63b8ff" d="M537.91,-162.69C495.56,-152.76 433.64,-138.24 394.6,-129.08"/>
<polygon fill="#63b8ff" stroke="#63b8ff" points="537.15,-166.11 547.69,-164.98 538.75,-159.29 537.15,-166.11"/>
</g>
<!-- Node10 -->
<g id="node10" class="node">
<title>Node10</title>
<g id="a_node10"><a xlink:href="wolfPack_8cpp.html" target="_top" xlink:title=" ">
<polygon fill="white" stroke="#666666" points="759.5,-19 594.5,-19 594.5,0 759.5,0 759.5,-19"/>
<text text-anchor="middle" x="677" y="-7" font-family="Helvetica,sans-Serif" font-size="10.00">entities/enemies/wolfPack.cpp</text>
</a>
</g>
</g>
<!-- Node9&#45;&gt;Node10 -->
<g id="edge10" class="edge">
<title>Node9&#45;&gt;Node10</title>
<path fill="none" stroke="#63b8ff" d="M592.86,-155.58C608.12,-124.81 638.26,-64.3 644,-55 652.09,-41.91 662.96,-27.8 669.97,-19.06"/>
<polygon fill="#63b8ff" stroke="#63b8ff" points="589.62,-154.25 588.32,-164.76 595.89,-157.35 589.62,-154.25"/>
</g>
<!-- Node12 -->
<g id="node12" class="node">
<title>Node12</title>
<g id="a_node12"><a xlink:href="enemy_8h.html" target="_top" xlink:title=" ">
<polygon fill="white" stroke="#666666" points="971.5,-129 828.5,-129 828.5,-110 971.5,-110 971.5,-129"/>
<text text-anchor="middle" x="900" y="-117" font-family="Helvetica,sans-Serif" font-size="10.00">entities/enemies/enemy.h</text>
</a>
</g>
</g>
<!-- Node11&#45;&gt;Node12 -->
<g id="edge13" class="edge">
<title>Node11&#45;&gt;Node12</title>
<path fill="none" stroke="#63b8ff" d="M1069.84,-162.56C1029.76,-152.64 971.46,-138.2 934.65,-129.08"/>
<polygon fill="#63b8ff" stroke="#63b8ff" points="1069.07,-165.98 1079.62,-164.98 1070.75,-159.18 1069.07,-165.98"/>
</g>
<!-- Node11&#45;&gt;Node15 -->
<g id="edge19" class="edge">
<title>Node11&#45;&gt;Node15</title>
<path fill="none" stroke="#63b8ff" d="M1132.69,-158.21C1160.81,-135.2 1213.07,-92.44 1235.42,-74.16"/>
<polygon fill="#63b8ff" stroke="#63b8ff" points="1130.33,-155.62 1124.8,-164.66 1134.76,-161.04 1130.33,-155.62"/>
</g>
<!-- Node13 -->
<g id="node13" class="node">
<title>Node13</title>
<g id="a_node13"><a xlink:href="enemy_8cpp.html" target="_top" xlink:title=" ">
<polygon fill="white" stroke="#666666" points="1147,-74 993,-74 993,-55 1147,-55 1147,-74"/>
<text text-anchor="middle" x="1070" y="-62" font-family="Helvetica,sans-Serif" font-size="10.00">entities/enemies/enemy.cpp</text>
</a>
</g>
</g>
<!-- Node12&#45;&gt;Node13 -->
<g id="edge14" class="edge">
<title>Node12&#45;&gt;Node13</title>
<path fill="none" stroke="#63b8ff" d="M937.12,-106.93C968.87,-97.03 1013.85,-83.01 1042.47,-74.08"/>
<polygon fill="#63b8ff" stroke="#63b8ff" points="935.82,-103.67 927.31,-109.98 937.9,-110.35 935.82,-103.67"/>
</g>
<!-- Node14 -->
<g id="node14" class="node">
<title>Node14</title>
<g id="a_node14"><a xlink:href="wolfPack_8h.html" target="_top" xlink:title=" ">
<polygon fill="white" stroke="#666666" points="807,-74 653,-74 653,-55 807,-55 807,-74"/>
<text text-anchor="middle" x="730" y="-62" font-family="Helvetica,sans-Serif" font-size="10.00">entities/enemies/wolfPack.h</text>
</a>
</g>
</g>
<!-- Node12&#45;&gt;Node14 -->
<g id="edge15" class="edge">
<title>Node12&#45;&gt;Node14</title>
<path fill="none" stroke="#63b8ff" d="M862.88,-106.93C831.13,-97.03 786.15,-83.01 757.53,-74.08"/>
<polygon fill="#63b8ff" stroke="#63b8ff" points="862.1,-110.35 872.69,-109.98 864.18,-103.67 862.1,-110.35"/>
</g>
<!-- Node12&#45;&gt;Node15 -->
<g id="edge17" class="edge">
<title>Node12&#45;&gt;Node15</title>
<path fill="none" stroke="#63b8ff" d="M965.72,-108.43C1030.69,-98.48 1129,-83.42 1190.26,-74.04"/>
<polygon fill="#63b8ff" stroke="#63b8ff" points="964.95,-105.01 955.59,-109.98 966.01,-111.93 964.95,-105.01"/>
</g>
<!-- Node16 -->
<g id="node16" class="node">
<title>Node16</title>
<g id="a_node16"><a xlink:href="cardmatch_8h.html" target="_top" xlink:title=" ">
<polygon fill="white" stroke="#666666" points="974.5,-74 825.5,-74 825.5,-55 974.5,-55 974.5,-74"/>
<text text-anchor="middle" x="900" y="-62" font-family="Helvetica,sans-Serif" font-size="10.00">game_system/cardmatch.h</text>
</a>
</g>
</g>
<!-- Node12&#45;&gt;Node16 -->
<g id="edge18" class="edge">
<title>Node12&#45;&gt;Node16</title>
<path fill="none" stroke="#63b8ff" d="M900,-99.66C900,-90.93 900,-80.99 900,-74.09"/>
<polygon fill="#63b8ff" stroke="#63b8ff" points="896.5,-99.75 900,-109.75 903.5,-99.75 896.5,-99.75"/>
</g>
<!-- Node14&#45;&gt;Node10 -->
<g id="edge16" class="edge">
<title>Node14&#45;&gt;Node10</title>
<path fill="none" stroke="#63b8ff" d="M714.02,-47.52C704.68,-38.18 693.25,-26.75 685.59,-19.09"/>
<polygon fill="#63b8ff" stroke="#63b8ff" points="711.7,-50.15 721.25,-54.75 716.65,-45.2 711.7,-50.15"/>
</g>
</g>
</svg>
