<?xml version="1.0" encoding="UTF-8" standalone="no"?>
<!DOCTYPE svg PUBLIC "-//W3C//DTD SVG 1.1//EN"
 "http://www.w3.org/Graphics/SVG/1.1/DTD/svg11.dtd">
<!-- Generated by graphviz version 2.43.0 (0)
 -->
<!-- Title: entities/enemies/enemy.h Pages: 1 -->
<svg width="342pt" height="82pt"
 viewBox="0.00 0.00 341.50 82.00" xmlns="http://www.w3.org/2000/svg" xmlns:xlink="http://www.w3.org/1999/xlink">
<g id="graph0" class="graph" transform="scale(1 1) rotate(0) translate(4 78)">
<title>entities/enemies/enemy.h</title>
<!-- Node1 -->
<g id="node1" class="node">
<title>Node1</title>
<g id="a_node1"><a xlink:title=" ">
<polygon fill="#999999" stroke="#666666" points="236.5,-74 93.5,-74 93.5,-55 236.5,-55 236.5,-74"/>
<text text-anchor="middle" x="165" y="-62" font-family="Helvetica,sans-Serif" font-size="10.00">entities/enemies/enemy.h</text>
</a>
</g>
</g>
<!-- Node2 -->
<g id="node2" class="node">
<title>Node2</title>
<g id="a_node2"><a xlink:href="enemy_8cpp.html" target="_top" xlink:title=" ">
<polygon fill="white" stroke="#666666" points="154,-19 0,-19 0,0 154,0 154,-19"/>
<text text-anchor="middle" x="77" y="-7" font-family="Helvetica,sans-Serif" font-size="10.00">entities/enemies/enemy.cpp</text>
</a>
</g>
</g>
<!-- Node1&#45;&gt;Node2 -->
<g id="edge1" class="edge">
<title>Node1&#45;&gt;Node2</title>
<path fill="none" stroke="#63b8ff" d="M142.08,-49.7C126.05,-40.04 105.13,-27.44 91.4,-19.17"/>
<polygon fill="#63b8ff" stroke="#63b8ff" points="140.49,-52.82 150.86,-54.98 144.1,-46.83 140.49,-52.82"/>
</g>
<!-- Node3 -->
<g id="node3" class="node">
<title>Node3</title>
<g id="a_node3"><a xlink:href="cardmatch_8cpp.html" target="_top" xlink:title=" ">
<polygon fill="white" stroke="#666666" points="333.5,-19 172.5,-19 172.5,0 333.5,0 333.5,-19"/>
<text text-anchor="middle" x="253" y="-7" font-family="Helvetica,sans-Serif" font-size="10.00">game_system/cardmatch.cpp</text>
</a>
</g>
</g>
<!-- Node1&#45;&gt;Node3 -->
<g id="edge2" class="edge">
<title>Node1&#45;&gt;Node3</title>
<path fill="none" stroke="#63b8ff" d="M187.92,-49.7C203.95,-40.04 224.87,-27.44 238.6,-19.17"/>
<polygon fill="#63b8ff" stroke="#63b8ff" points="185.9,-46.83 179.14,-54.98 189.51,-52.82 185.9,-46.83"/>
</g>
</g>
</svg>
