<?xml version="1.0" encoding="UTF-8" standalone="no"?>
<!DOCTYPE svg PUBLIC "-//W3C//DTD SVG 1.1//EN"
 "http://www.w3.org/Graphics/SVG/1.1/DTD/svg11.dtd">
<!-- Generated by graphviz version 2.43.0 (0)
 -->
<!-- Title: entities/enemies/enemy.h Pages: 1 -->
<svg width="447pt" height="192pt"
 viewBox="0.00 0.00 447.00 192.00" xmlns="http://www.w3.org/2000/svg" xmlns:xlink="http://www.w3.org/1999/xlink">
<g id="graph0" class="graph" transform="scale(1 1) rotate(0) translate(4 188)">
<title>entities/enemies/enemy.h</title>
<!-- Node1 -->
<g id="node1" class="node">
<title>Node1</title>
<g id="a_node1"><a xlink:title=" ">
<polygon fill="#999999" stroke="#666666" points="333,-184 190,-184 190,-165 333,-165 333,-184"/>
<text text-anchor="middle" x="261.5" y="-172" font-family="Helvetica,sans-Serif" font-size="10.00">entities/enemies/enemy.h</text>
</a>
</g>
</g>
<!-- Node2 -->
<g id="node2" class="node">
<title>Node2</title>
<g id="a_node2"><a xlink:href="enemyMove_8h.html" target="_top" xlink:title=" ">
<polygon fill="white" stroke="#666666" points="233.5,-129 147.5,-129 147.5,-110 233.5,-110 233.5,-129"/>
<text text-anchor="middle" x="190.5" y="-117" font-family="Helvetica,sans-Serif" font-size="10.00">enemyMove.h</text>
</a>
</g>
</g>
<!-- Node1&#45;&gt;Node2 -->
<g id="edge1" class="edge">
<title>Node1&#45;&gt;Node2</title>
<path fill="none" stroke="#63b8ff" d="M250.09,-164.98C239.39,-157 223.16,-144.88 210.34,-135.31"/>
<polygon fill="#63b8ff" stroke="#63b8ff" points="212.22,-132.35 202.11,-129.17 208.03,-137.96 212.22,-132.35"/>
</g>
<!-- Node7 -->
<g id="node7" class="node">
<title>Node7</title>
<g id="a_node7"><a xlink:title=" ">
<polygon fill="#e0e0e0" stroke="#999999" points="285,-74 238,-74 238,-55 285,-55 285,-74"/>
<text text-anchor="middle" x="261.5" y="-62" font-family="Helvetica,sans-Serif" font-size="10.00">vector</text>
</a>
</g>
</g>
<!-- Node1&#45;&gt;Node7 -->
<g id="edge11" class="edge">
<title>Node1&#45;&gt;Node7</title>
<path fill="none" stroke="#63b8ff" d="M261.5,-164.66C261.5,-147.17 261.5,-107.8 261.5,-84.27"/>
<polygon fill="#63b8ff" stroke="#63b8ff" points="265,-84.16 261.5,-74.16 258,-84.16 265,-84.16"/>
</g>
<!-- Node8 -->
<g id="node8" class="node">
<title>Node8</title>
<g id="a_node8"><a xlink:href="entity_8h.html" target="_top" xlink:title=" ">
<polygon fill="white" stroke="#666666" points="381.5,-129 289.5,-129 289.5,-110 381.5,-110 381.5,-129"/>
<text text-anchor="middle" x="335.5" y="-117" font-family="Helvetica,sans-Serif" font-size="10.00">entities/entity.h</text>
</a>
</g>
</g>
<!-- Node1&#45;&gt;Node8 -->
<g id="edge8" class="edge">
<title>Node1&#45;&gt;Node8</title>
<path fill="none" stroke="#63b8ff" d="M273.39,-164.98C284.65,-156.92 301.79,-144.65 315.21,-135.03"/>
<polygon fill="#63b8ff" stroke="#63b8ff" points="317.3,-137.84 323.39,-129.17 313.23,-132.15 317.3,-137.84"/>
</g>
<!-- Node3 -->
<g id="node3" class="node">
<title>Node3</title>
<g id="a_node3"><a xlink:href="effect_8h.html" target="_top" xlink:title=" ">
<polygon fill="white" stroke="#666666" points="144,-74 55,-74 55,-55 144,-55 144,-74"/>
<text text-anchor="middle" x="99.5" y="-62" font-family="Helvetica,sans-Serif" font-size="10.00">effects/effect.h</text>
</a>
</g>
</g>
<!-- Node2&#45;&gt;Node3 -->
<g id="edge2" class="edge">
<title>Node2&#45;&gt;Node3</title>
<path fill="none" stroke="#63b8ff" d="M175.88,-109.98C161.64,-101.69 139.75,-88.94 123.05,-79.22"/>
<polygon fill="#63b8ff" stroke="#63b8ff" points="124.79,-76.18 114.39,-74.17 121.27,-82.23 124.79,-76.18"/>
</g>
<!-- Node4 -->
<g id="node4" class="node">
<title>Node4</title>
<g id="a_node4"><a xlink:href="effectParams_8h.html" target="_top" xlink:title=" ">
<polygon fill="white" stroke="#666666" points="125,-19 0,-19 0,0 125,0 125,-19"/>
<text text-anchor="middle" x="62.5" y="-7" font-family="Helvetica,sans-Serif" font-size="10.00">effects/effectParams.h</text>
</a>
</g>
</g>
<!-- Node2&#45;&gt;Node4 -->
<g id="edge4" class="edge">
<title>Node2&#45;&gt;Node4</title>
<path fill="none" stroke="#63b8ff" d="M147.22,-118.16C113.51,-115.32 68.66,-105.34 45.5,-74 35.47,-60.43 42.7,-41.35 50.6,-27.65"/>
<polygon fill="#63b8ff" stroke="#63b8ff" points="53.58,-29.49 55.96,-19.16 47.66,-25.74 53.58,-29.49"/>
</g>
<!-- Node5 -->
<g id="node5" class="node">
<title>Node5</title>
<g id="a_node5"><a xlink:title=" ">
<polygon fill="#e0e0e0" stroke="#999999" points="219.5,-74 161.5,-74 161.5,-55 219.5,-55 219.5,-74"/>
<text text-anchor="middle" x="190.5" y="-62" font-family="Helvetica,sans-Serif" font-size="10.00">memory</text>
</a>
</g>
</g>
<!-- Node2&#45;&gt;Node5 -->
<g id="edge5" class="edge">
<title>Node2&#45;&gt;Node5</title>
<path fill="none" stroke="#63b8ff" d="M190.5,-109.75C190.5,-102.8 190.5,-92.85 190.5,-84.13"/>
<polygon fill="#63b8ff" stroke="#63b8ff" points="194,-84.09 190.5,-74.09 187,-84.09 194,-84.09"/>
</g>
<!-- Node6 -->
<g id="node6" class="node">
<title>Node6</title>
<g id="a_node6"><a xlink:title=" ">
<polygon fill="#e0e0e0" stroke="#999999" points="347.5,-74 303.5,-74 303.5,-55 347.5,-55 347.5,-74"/>
<text text-anchor="middle" x="325.5" y="-62" font-family="Helvetica,sans-Serif" font-size="10.00">string</text>
</a>
</g>
</g>
<!-- Node2&#45;&gt;Node6 -->
<g id="edge6" class="edge">
<title>Node2&#45;&gt;Node6</title>
<path fill="none" stroke="#63b8ff" d="M212.19,-109.98C234.3,-101.3 268.82,-87.75 293.95,-77.88"/>
<polygon fill="#63b8ff" stroke="#63b8ff" points="295.39,-81.08 303.42,-74.17 292.83,-74.57 295.39,-81.08"/>
</g>
<!-- Node2&#45;&gt;Node7 -->
<g id="edge7" class="edge">
<title>Node2&#45;&gt;Node7</title>
<path fill="none" stroke="#63b8ff" d="M201.91,-109.98C212.61,-102 228.84,-89.88 241.66,-80.31"/>
<polygon fill="#63b8ff" stroke="#63b8ff" points="243.97,-82.96 249.89,-74.17 239.78,-77.35 243.97,-82.96"/>
</g>
<!-- Node3&#45;&gt;Node4 -->
<g id="edge3" class="edge">
<title>Node3&#45;&gt;Node4</title>
<path fill="none" stroke="#63b8ff" d="M93.39,-54.75C88.22,-47.34 80.65,-36.5 74.31,-27.41"/>
<polygon fill="#63b8ff" stroke="#63b8ff" points="77.09,-25.29 68.5,-19.09 71.35,-29.29 77.09,-25.29"/>
</g>
<!-- Node8&#45;&gt;Node6 -->
<g id="edge9" class="edge">
<title>Node8&#45;&gt;Node6</title>
<path fill="none" stroke="#63b8ff" d="M333.85,-109.75C332.54,-102.8 330.66,-92.85 329.02,-84.13"/>
<polygon fill="#63b8ff" stroke="#63b8ff" points="332.41,-83.27 327.12,-74.09 325.54,-84.56 332.41,-83.27"/>
</g>
<!-- Node9 -->
<g id="node9" class="node">
<title>Node9</title>
<g id="a_node9"><a xlink:title=" ">
<polygon fill="#e0e0e0" stroke="#999999" points="439,-74 366,-74 366,-55 439,-55 439,-74"/>
<text text-anchor="middle" x="402.5" y="-62" font-family="Helvetica,sans-Serif" font-size="10.00">string_view</text>
</a>
</g>
</g>
<!-- Node8&#45;&gt;Node9 -->
<g id="edge10" class="edge">
<title>Node8&#45;&gt;Node9</title>
<path fill="none" stroke="#63b8ff" d="M346.26,-109.98C356.27,-102.07 371.39,-90.11 383.43,-80.58"/>
<polygon fill="#63b8ff" stroke="#63b8ff" points="385.87,-83.12 391.54,-74.17 381.53,-77.63 385.87,-83.12"/>
</g>
</g>
</svg>
