<?xml version="1.0" encoding="UTF-8" standalone="no"?>
<!DOCTYPE svg PUBLIC "-//W3C//DTD SVG 1.1//EN"
 "http://www.w3.org/Graphics/SVG/1.1/DTD/svg11.dtd">
<!-- Generated by graphviz version 2.43.0 (0)
 -->
<!-- Title: entities/enemies/enemyMove.h Pages: 1 -->
<svg width="851pt" height="192pt"
 viewBox="0.00 0.00 850.50 192.00" xmlns="http://www.w3.org/2000/svg" xmlns:xlink="http://www.w3.org/1999/xlink">
<g id="graph0" class="graph" transform="scale(1 1) rotate(0) translate(4 188)">
<title>entities/enemies/enemyMove.h</title>
<!-- Node1 -->
<g id="node1" class="node">
<title>Node1</title>
<g id="a_node1"><a xlink:title=" ">
<polygon fill="#999999" stroke="#666666" points="639.5,-184 468.5,-184 468.5,-165 639.5,-165 639.5,-184"/>
<text text-anchor="middle" x="554" y="-172" font-family="Helvetica,sans-Serif" font-size="10.00">entities/enemies/enemyMove.h</text>
</a>
</g>
</g>
<!-- Node2 -->
<g id="node2" class="node">
<title>Node2</title>
<g id="a_node2"><a xlink:href="enemy_8h.html" target="_top" xlink:title=" ">
<polygon fill="white" stroke="#666666" points="575.5,-129 432.5,-129 432.5,-110 575.5,-110 575.5,-129"/>
<text text-anchor="middle" x="504" y="-117" font-family="Helvetica,sans-Serif" font-size="10.00">entities/enemies/enemy.h</text>
</a>
</g>
</g>
<!-- Node1&#45;&gt;Node2 -->
<g id="edge1" class="edge">
<title>Node1&#45;&gt;Node2</title>
<path fill="none" stroke="#63b8ff" d="M538.66,-157.24C529.9,-147.95 519.26,-136.68 512.1,-129.09"/>
<polygon fill="#63b8ff" stroke="#63b8ff" points="536.34,-159.88 545.74,-164.75 541.43,-155.07 536.34,-159.88"/>
</g>
<!-- Node8 -->
<g id="node8" class="node">
<title>Node8</title>
<g id="a_node8"><a xlink:href="cardmatch_8cpp.html" target="_top" xlink:title=" ">
<polygon fill="white" stroke="#666666" points="842.5,-74 681.5,-74 681.5,-55 842.5,-55 842.5,-74"/>
<text text-anchor="middle" x="762" y="-62" font-family="Helvetica,sans-Serif" font-size="10.00">game_system/cardmatch.cpp</text>
</a>
</g>
</g>
<!-- Node1&#45;&gt;Node8 -->
<g id="edge9" class="edge">
<title>Node1&#45;&gt;Node8</title>
<path fill="none" stroke="#63b8ff" d="M579.72,-160.14C623.06,-137.64 709.44,-92.79 745.54,-74.05"/>
<polygon fill="#63b8ff" stroke="#63b8ff" points="577.93,-157.13 570.67,-164.84 581.16,-163.34 577.93,-157.13"/>
</g>
<!-- Node3 -->
<g id="node3" class="node">
<title>Node3</title>
<g id="a_node3"><a xlink:href="bandits_8h.html" target="_top" xlink:title=" ">
<polygon fill="white" stroke="#666666" points="152,-74 6,-74 6,-55 152,-55 152,-74"/>
<text text-anchor="middle" x="79" y="-62" font-family="Helvetica,sans-Serif" font-size="10.00">entities/enemies/bandits.h</text>
</a>
</g>
</g>
<!-- Node2&#45;&gt;Node3 -->
<g id="edge2" class="edge">
<title>Node2&#45;&gt;Node3</title>
<path fill="none" stroke="#63b8ff" d="M425.72,-108.74C345.96,-98.79 223.48,-83.52 147.47,-74.04"/>
<polygon fill="#63b8ff" stroke="#63b8ff" points="425.36,-112.22 435.72,-109.98 426.23,-105.27 425.36,-112.22"/>
</g>
<!-- Node5 -->
<g id="node5" class="node">
<title>Node5</title>
<g id="a_node5"><a xlink:href="enemy_8cpp.html" target="_top" xlink:title=" ">
<polygon fill="white" stroke="#666666" points="324,-74 170,-74 170,-55 324,-55 324,-74"/>
<text text-anchor="middle" x="247" y="-62" font-family="Helvetica,sans-Serif" font-size="10.00">entities/enemies/enemy.cpp</text>
</a>
</g>
</g>
<!-- Node2&#45;&gt;Node5 -->
<g id="edge4" class="edge">
<title>Node2&#45;&gt;Node5</title>
<path fill="none" stroke="#63b8ff" d="M452.8,-107.94C404.62,-98.01 333.38,-83.31 288.62,-74.08"/>
<polygon fill="#63b8ff" stroke="#63b8ff" points="452.21,-111.39 462.71,-109.98 453.62,-104.54 452.21,-111.39"/>
</g>
<!-- Node6 -->
<g id="node6" class="node">
<title>Node6</title>
<g id="a_node6"><a xlink:href="wolfPack_8h.html" target="_top" xlink:title=" ">
<polygon fill="white" stroke="#666666" points="496,-74 342,-74 342,-55 496,-55 496,-74"/>
<text text-anchor="middle" x="419" y="-62" font-family="Helvetica,sans-Serif" font-size="10.00">entities/enemies/wolfPack.h</text>
</a>
</g>
</g>
<!-- Node2&#45;&gt;Node6 -->
<g id="edge5" class="edge">
<title>Node2&#45;&gt;Node6</title>
<path fill="none" stroke="#63b8ff" d="M481.43,-104.42C466,-94.81 446.05,-82.37 432.91,-74.17"/>
<polygon fill="#63b8ff" stroke="#63b8ff" points="480.01,-107.66 490.34,-109.98 483.71,-101.72 480.01,-107.66"/>
</g>
<!-- Node2&#45;&gt;Node8 -->
<g id="edge7" class="edge">
<title>Node2&#45;&gt;Node8</title>
<path fill="none" stroke="#63b8ff" d="M555.4,-107.94C603.76,-98.01 675.28,-83.31 720.22,-74.08"/>
<polygon fill="#63b8ff" stroke="#63b8ff" points="554.54,-104.54 545.45,-109.98 555.95,-111.4 554.54,-104.54"/>
</g>
<!-- Node9 -->
<g id="node9" class="node">
<title>Node9</title>
<g id="a_node9"><a xlink:href="cardmatch_8h.html" target="_top" xlink:title=" ">
<polygon fill="white" stroke="#666666" points="663.5,-74 514.5,-74 514.5,-55 663.5,-55 663.5,-74"/>
<text text-anchor="middle" x="589" y="-62" font-family="Helvetica,sans-Serif" font-size="10.00">game_system/cardmatch.h</text>
</a>
</g>
</g>
<!-- Node2&#45;&gt;Node9 -->
<g id="edge8" class="edge">
<title>Node2&#45;&gt;Node9</title>
<path fill="none" stroke="#63b8ff" d="M526.57,-104.42C542,-94.81 561.95,-82.37 575.09,-74.17"/>
<polygon fill="#63b8ff" stroke="#63b8ff" points="524.29,-101.72 517.66,-109.98 527.99,-107.66 524.29,-101.72"/>
</g>
<!-- Node4 -->
<g id="node4" class="node">
<title>Node4</title>
<g id="a_node4"><a xlink:href="bandits_8cpp.html" target="_top" xlink:title=" ">
<polygon fill="white" stroke="#666666" points="158,-19 0,-19 0,0 158,0 158,-19"/>
<text text-anchor="middle" x="79" y="-7" font-family="Helvetica,sans-Serif" font-size="10.00">entities/enemies/bandits.cpp</text>
</a>
</g>
</g>
<!-- Node3&#45;&gt;Node4 -->
<g id="edge3" class="edge">
<title>Node3&#45;&gt;Node4</title>
<path fill="none" stroke="#63b8ff" d="M79,-44.66C79,-35.93 79,-25.99 79,-19.09"/>
<polygon fill="#63b8ff" stroke="#63b8ff" points="75.5,-44.75 79,-54.75 82.5,-44.75 75.5,-44.75"/>
</g>
<!-- Node7 -->
<g id="node7" class="node">
<title>Node7</title>
<g id="a_node7"><a xlink:href="wolfPack_8cpp.html" target="_top" xlink:title=" ">
<polygon fill="white" stroke="#666666" points="501.5,-19 336.5,-19 336.5,0 501.5,0 501.5,-19"/>
<text text-anchor="middle" x="419" y="-7" font-family="Helvetica,sans-Serif" font-size="10.00">entities/enemies/wolfPack.cpp</text>
</a>
</g>
</g>
<!-- Node6&#45;&gt;Node7 -->
<g id="edge6" class="edge">
<title>Node6&#45;&gt;Node7</title>
<path fill="none" stroke="#63b8ff" d="M419,-44.66C419,-35.93 419,-25.99 419,-19.09"/>
<polygon fill="#63b8ff" stroke="#63b8ff" points="415.5,-44.75 419,-54.75 422.5,-44.75 415.5,-44.75"/>
</g>
</g>
</svg>
