<?xml version="1.0" encoding="UTF-8" standalone="no"?>
<!DOCTYPE svg PUBLIC "-//W3C//DTD SVG 1.1//EN"
 "http://www.w3.org/Graphics/SVG/1.1/DTD/svg11.dtd">
<!-- Generated by graphviz version 2.43.0 (0)
 -->
<!-- Title: effects/gainArmorEffect.cpp Pages: 1 -->
<svg width="643pt" height="192pt"
 viewBox="0.00 0.00 643.00 192.00" xmlns="http://www.w3.org/2000/svg" xmlns:xlink="http://www.w3.org/1999/xlink">
<g id="graph0" class="graph" transform="scale(1 1) rotate(0) translate(4 188)">
<title>effects/gainArmorEffect.cpp</title>
<!-- Node1 -->
<g id="node1" class="node">
<title>Node1</title>
<g id="a_node1"><a xlink:title=" ">
<polygon fill="#999999" stroke="#666666" points="418,-184 266,-184 266,-165 418,-165 418,-184"/>
<text text-anchor="middle" x="342" y="-172" font-family="Helvetica,sans-Serif" font-size="10.00">effects/gainArmorEffect.cpp</text>
</a>
</g>
</g>
<!-- Node2 -->
<g id="node2" class="node">
<title>Node2</title>
<g id="a_node2"><a xlink:href="gainArmorEffect_8h.html" target="_top" xlink:title=" ">
<polygon fill="white" stroke="#666666" points="104,-129 0,-129 0,-110 104,-110 104,-129"/>
<text text-anchor="middle" x="52" y="-117" font-family="Helvetica,sans-Serif" font-size="10.00">gainArmorEffect.h</text>
</a>
</g>
</g>
<!-- Node1&#45;&gt;Node2 -->
<g id="edge1" class="edge">
<title>Node1&#45;&gt;Node2</title>
<path fill="none" stroke="#63b8ff" d="M295.41,-164.98C244.61,-155.7 163.31,-140.84 108.81,-130.88"/>
<polygon fill="#63b8ff" stroke="#63b8ff" points="109.43,-127.44 98.96,-129.08 108.17,-134.32 109.43,-127.44"/>
</g>
<!-- Node6 -->
<g id="node6" class="node">
<title>Node6</title>
<g id="a_node6"><a xlink:href="cardDefinition_8h.html" target="_top" xlink:title=" ">
<polygon fill="white" stroke="#666666" points="403.5,-129 280.5,-129 280.5,-110 403.5,-110 403.5,-129"/>
<text text-anchor="middle" x="342" y="-117" font-family="Helvetica,sans-Serif" font-size="10.00">cards/cardDefinition.h</text>
</a>
</g>
</g>
<!-- Node1&#45;&gt;Node6 -->
<g id="edge5" class="edge">
<title>Node1&#45;&gt;Node6</title>
<path fill="none" stroke="#63b8ff" d="M342,-164.75C342,-157.8 342,-147.85 342,-139.13"/>
<polygon fill="#63b8ff" stroke="#63b8ff" points="345.5,-139.09 342,-129.09 338.5,-139.09 345.5,-139.09"/>
</g>
<!-- Node11 -->
<g id="node11" class="node">
<title>Node11</title>
<g id="a_node11"><a xlink:href="cardInstance_8h.html" target="_top" xlink:title=" ">
<polygon fill="white" stroke="#666666" points="538.5,-129 421.5,-129 421.5,-110 538.5,-110 538.5,-129"/>
<text text-anchor="middle" x="480" y="-117" font-family="Helvetica,sans-Serif" font-size="10.00">cards/cardInstance.h</text>
</a>
</g>
</g>
<!-- Node1&#45;&gt;Node11 -->
<g id="edge10" class="edge">
<title>Node1&#45;&gt;Node11</title>
<path fill="none" stroke="#63b8ff" d="M364.17,-164.98C386.77,-156.3 422.06,-142.75 447.75,-132.88"/>
<polygon fill="#63b8ff" stroke="#63b8ff" points="449.34,-136.02 457.42,-129.17 446.83,-129.49 449.34,-136.02"/>
</g>
<!-- Node12 -->
<g id="node12" class="node">
<title>Node12</title>
<g id="a_node12"><a xlink:href="combatContext_8h.html" target="_top" xlink:title=" ">
<polygon fill="white" stroke="#666666" points="262,-129 122,-129 122,-110 262,-110 262,-129"/>
<text text-anchor="middle" x="192" y="-117" font-family="Helvetica,sans-Serif" font-size="10.00">combat/combatContext.h</text>
</a>
</g>
</g>
<!-- Node1&#45;&gt;Node12 -->
<g id="edge13" class="edge">
<title>Node1&#45;&gt;Node12</title>
<path fill="none" stroke="#63b8ff" d="M317.9,-164.98C293.12,-156.23 254.3,-142.51 226.31,-132.62"/>
<polygon fill="#63b8ff" stroke="#63b8ff" points="227.13,-129.2 216.54,-129.17 224.8,-135.8 227.13,-129.2"/>
</g>
<!-- Node13 -->
<g id="node13" class="node">
<title>Node13</title>
<g id="a_node13"><a xlink:href="debug_8h.html" target="_top" xlink:title=" ">
<polygon fill="white" stroke="#666666" points="635,-129 561,-129 561,-110 635,-110 635,-129"/>
<text text-anchor="middle" x="598" y="-117" font-family="Helvetica,sans-Serif" font-size="10.00">util/debug.h</text>
</a>
</g>
</g>
<!-- Node1&#45;&gt;Node13 -->
<g id="edge15" class="edge">
<title>Node1&#45;&gt;Node13</title>
<path fill="none" stroke="#63b8ff" d="M383.13,-164.98C428.92,-155.51 502.79,-140.21 550.87,-130.26"/>
<polygon fill="#63b8ff" stroke="#63b8ff" points="551.63,-133.67 560.72,-128.22 550.22,-126.82 551.63,-133.67"/>
</g>
<!-- Node3 -->
<g id="node3" class="node">
<title>Node3</title>
<g id="a_node3"><a xlink:href="combatTarget_8h.html" target="_top" xlink:title=" ">
<polygon fill="white" stroke="#666666" points="220,-74 88,-74 88,-55 220,-55 220,-74"/>
<text text-anchor="middle" x="154" y="-62" font-family="Helvetica,sans-Serif" font-size="10.00">combat/combatTarget.h</text>
</a>
</g>
</g>
<!-- Node2&#45;&gt;Node3 -->
<g id="edge2" class="edge">
<title>Node2&#45;&gt;Node3</title>
<path fill="none" stroke="#63b8ff" d="M68.39,-109.98C84.57,-101.57 109.57,-88.59 128.38,-78.81"/>
<polygon fill="#63b8ff" stroke="#63b8ff" points="130.05,-81.89 137.31,-74.17 126.83,-75.68 130.05,-81.89"/>
</g>
<!-- Node4 -->
<g id="node4" class="node">
<title>Node4</title>
<g id="a_node4"><a xlink:href="effect_8h.html" target="_top" xlink:title=" ">
<polygon fill="white" stroke="#666666" points="69.5,-74 16.5,-74 16.5,-55 69.5,-55 69.5,-74"/>
<text text-anchor="middle" x="43" y="-62" font-family="Helvetica,sans-Serif" font-size="10.00">effect.h</text>
</a>
</g>
</g>
<!-- Node2&#45;&gt;Node4 -->
<g id="edge3" class="edge">
<title>Node2&#45;&gt;Node4</title>
<path fill="none" stroke="#63b8ff" d="M50.51,-109.75C49.33,-102.8 47.64,-92.85 46.16,-84.13"/>
<polygon fill="#63b8ff" stroke="#63b8ff" points="49.58,-83.36 44.46,-74.09 42.68,-84.53 49.58,-83.36"/>
</g>
<!-- Node5 -->
<g id="node5" class="node">
<title>Node5</title>
<g id="a_node5"><a xlink:href="effectParams_8h.html" target="_top" xlink:title=" ">
<polygon fill="white" stroke="#666666" points="355.5,-19 230.5,-19 230.5,0 355.5,0 355.5,-19"/>
<text text-anchor="middle" x="293" y="-7" font-family="Helvetica,sans-Serif" font-size="10.00">effects/effectParams.h</text>
</a>
</g>
</g>
<!-- Node4&#45;&gt;Node5 -->
<g id="edge4" class="edge">
<title>Node4&#45;&gt;Node5</title>
<path fill="none" stroke="#63b8ff" d="M69.72,-57.11C72.84,-56.38 75.99,-55.67 79,-55 133.87,-42.82 196.89,-29.84 240.26,-21.06"/>
<polygon fill="#63b8ff" stroke="#63b8ff" points="241.19,-24.44 250.29,-19.03 239.8,-17.58 241.19,-24.44"/>
</g>
<!-- Node7 -->
<g id="node7" class="node">
<title>Node7</title>
<g id="a_node7"><a xlink:title=" ">
<polygon fill="#e0e0e0" stroke="#999999" points="296,-74 238,-74 238,-55 296,-55 296,-74"/>
<text text-anchor="middle" x="267" y="-62" font-family="Helvetica,sans-Serif" font-size="10.00">memory</text>
</a>
</g>
</g>
<!-- Node6&#45;&gt;Node7 -->
<g id="edge6" class="edge">
<title>Node6&#45;&gt;Node7</title>
<path fill="none" stroke="#63b8ff" d="M329.95,-109.98C318.54,-101.92 301.17,-89.65 287.57,-80.03"/>
<polygon fill="#63b8ff" stroke="#63b8ff" points="289.46,-77.08 279.27,-74.17 285.42,-82.8 289.46,-77.08"/>
</g>
<!-- Node8 -->
<g id="node8" class="node">
<title>Node8</title>
<g id="a_node8"><a xlink:title=" ">
<polygon fill="#e0e0e0" stroke="#999999" points="358,-74 314,-74 314,-55 358,-55 358,-74"/>
<text text-anchor="middle" x="336" y="-62" font-family="Helvetica,sans-Serif" font-size="10.00">string</text>
</a>
</g>
</g>
<!-- Node6&#45;&gt;Node8 -->
<g id="edge7" class="edge">
<title>Node6&#45;&gt;Node8</title>
<path fill="none" stroke="#63b8ff" d="M341.01,-109.75C340.22,-102.8 339.1,-92.85 338.11,-84.13"/>
<polygon fill="#63b8ff" stroke="#63b8ff" points="341.58,-83.63 336.97,-74.09 334.62,-84.42 341.58,-83.63"/>
</g>
<!-- Node9 -->
<g id="node9" class="node">
<title>Node9</title>
<g id="a_node9"><a xlink:title=" ">
<polygon fill="#e0e0e0" stroke="#999999" points="514.5,-74 441.5,-74 441.5,-55 514.5,-55 514.5,-74"/>
<text text-anchor="middle" x="478" y="-62" font-family="Helvetica,sans-Serif" font-size="10.00">string_view</text>
</a>
</g>
</g>
<!-- Node6&#45;&gt;Node9 -->
<g id="edge8" class="edge">
<title>Node6&#45;&gt;Node9</title>
<path fill="none" stroke="#63b8ff" d="M363.85,-109.98C386.12,-101.3 420.9,-87.75 446.22,-77.88"/>
<polygon fill="#63b8ff" stroke="#63b8ff" points="447.71,-81.06 455.75,-74.17 445.16,-74.54 447.71,-81.06"/>
</g>
<!-- Node10 -->
<g id="node10" class="node">
<title>Node10</title>
<g id="a_node10"><a xlink:title=" ">
<polygon fill="#e0e0e0" stroke="#999999" points="423.5,-74 376.5,-74 376.5,-55 423.5,-55 423.5,-74"/>
<text text-anchor="middle" x="400" y="-62" font-family="Helvetica,sans-Serif" font-size="10.00">vector</text>
</a>
</g>
</g>
<!-- Node6&#45;&gt;Node10 -->
<g id="edge9" class="edge">
<title>Node6&#45;&gt;Node10</title>
<path fill="none" stroke="#63b8ff" d="M351.32,-109.98C359.81,-102.23 372.56,-90.58 382.88,-81.14"/>
<polygon fill="#63b8ff" stroke="#63b8ff" points="385.49,-83.5 390.51,-74.17 380.77,-78.33 385.49,-83.5"/>
</g>
<!-- Node11&#45;&gt;Node5 -->
<g id="edge11" class="edge">
<title>Node11&#45;&gt;Node5</title>
<path fill="none" stroke="#63b8ff" d="M493.4,-109.96C511.37,-97.45 539.37,-73.62 524,-55 504.15,-30.96 425.82,-19.77 365.82,-14.65"/>
<polygon fill="#63b8ff" stroke="#63b8ff" points="365.86,-11.14 355.61,-13.82 365.29,-18.12 365.86,-11.14"/>
</g>
<!-- Node11&#45;&gt;Node9 -->
<g id="edge12" class="edge">
<title>Node11&#45;&gt;Node9</title>
<path fill="none" stroke="#63b8ff" d="M479.67,-109.75C479.41,-102.8 479.03,-92.85 478.7,-84.13"/>
<polygon fill="#63b8ff" stroke="#63b8ff" points="482.2,-83.95 478.32,-74.09 475.2,-84.21 482.2,-83.95"/>
</g>
<!-- Node12&#45;&gt;Node3 -->
<g id="edge14" class="edge">
<title>Node12&#45;&gt;Node3</title>
<path fill="none" stroke="#63b8ff" d="M185.73,-109.75C180.41,-102.34 172.64,-91.5 166.12,-82.41"/>
<polygon fill="#63b8ff" stroke="#63b8ff" points="168.83,-80.18 160.16,-74.09 163.14,-84.26 168.83,-80.18"/>
</g>
<!-- Node14 -->
<g id="node14" class="node">
<title>Node14</title>
<g id="a_node14"><a xlink:title=" ">
<polygon fill="#e0e0e0" stroke="#999999" points="631,-74 571,-74 571,-55 631,-55 631,-74"/>
<text text-anchor="middle" x="601" y="-62" font-family="Helvetica,sans-Serif" font-size="10.00">iostream</text>
</a>
</g>
</g>
<!-- Node13&#45;&gt;Node14 -->
<g id="edge16" class="edge">
<title>Node13&#45;&gt;Node14</title>
<path fill="none" stroke="#63b8ff" d="M598.5,-109.75C598.89,-102.8 599.45,-92.85 599.95,-84.13"/>
<polygon fill="#63b8ff" stroke="#63b8ff" points="603.44,-84.27 600.51,-74.09 596.45,-83.88 603.44,-84.27"/>
</g>
</g>
</svg>
