<?xml version="1.0" encoding="UTF-8" standalone="no"?>
<!DOCTYPE svg PUBLIC "-//W3C//DTD SVG 1.1//EN"
 "http://www.w3.org/Graphics/SVG/1.1/DTD/svg11.dtd">
<!-- Generated by graphviz version 2.43.0 (0)
 -->
<!-- Title: cards/effects/gainArmorEffect.cpp Pages: 1 -->
<svg width="632pt" height="247pt"
 viewBox="0.00 0.00 632.00 247.00" xmlns="http://www.w3.org/2000/svg" xmlns:xlink="http://www.w3.org/1999/xlink">
<g id="graph0" class="graph" transform="scale(1 1) rotate(0) translate(4 243)">
<title>cards/effects/gainArmorEffect.cpp</title>
<!-- Node1 -->
<g id="node1" class="node">
<title>Node1</title>
<g id="a_node1"><a xlink:title=" ">
<polygon fill="#999999" stroke="#666666" points="345,-239 164,-239 164,-220 345,-220 345,-239"/>
<text text-anchor="middle" x="254.5" y="-227" font-family="Helvetica,sans-Serif" font-size="10.00">cards/effects/gainArmorEffect.cpp</text>
</a>
</g>
</g>
<!-- Node2 -->
<g id="node2" class="node">
<title>Node2</title>
<g id="a_node2"><a xlink:href="gainArmorEffect_8h.html" target="_top" xlink:title=" ">
<polygon fill="white" stroke="#666666" points="120.5,-184 16.5,-184 16.5,-165 120.5,-165 120.5,-184"/>
<text text-anchor="middle" x="68.5" y="-172" font-family="Helvetica,sans-Serif" font-size="10.00">gainArmorEffect.h</text>
</a>
</g>
</g>
<!-- Node1&#45;&gt;Node2 -->
<g id="edge1" class="edge">
<title>Node1&#45;&gt;Node2</title>
<path fill="none" stroke="#63b8ff" d="M224.62,-219.98C193.12,-211.01 143.33,-196.82 108.47,-186.89"/>
<polygon fill="#63b8ff" stroke="#63b8ff" points="109.19,-183.46 98.62,-184.08 107.28,-190.19 109.19,-183.46"/>
</g>
<!-- Node4 -->
<g id="node4" class="node">
<title>Node4</title>
<g id="a_node4"><a xlink:href="cardDefinition_8h.html" target="_top" xlink:title=" ">
<polygon fill="white" stroke="#666666" points="355,-129 232,-129 232,-110 355,-110 355,-129"/>
<text text-anchor="middle" x="293.5" y="-117" font-family="Helvetica,sans-Serif" font-size="10.00">cards/cardDefinition.h</text>
</a>
</g>
</g>
<!-- Node1&#45;&gt;Node4 -->
<g id="edge3" class="edge">
<title>Node1&#45;&gt;Node4</title>
<path fill="none" stroke="#63b8ff" d="M225.35,-219.91C194.99,-209.4 154.08,-189.9 171.5,-165 183.44,-147.93 202.65,-137.39 222.33,-130.88"/>
<polygon fill="#63b8ff" stroke="#63b8ff" points="223.41,-134.21 232,-128 221.41,-127.5 223.41,-134.21"/>
</g>
<!-- Node9 -->
<g id="node9" class="node">
<title>Node9</title>
<g id="a_node9"><a xlink:href="cardInstance_8h.html" target="_top" xlink:title=" ">
<polygon fill="white" stroke="#666666" points="464,-184 347,-184 347,-165 464,-165 464,-184"/>
<text text-anchor="middle" x="405.5" y="-172" font-family="Helvetica,sans-Serif" font-size="10.00">cards/cardInstance.h</text>
</a>
</g>
</g>
<!-- Node1&#45;&gt;Node9 -->
<g id="edge8" class="edge">
<title>Node1&#45;&gt;Node9</title>
<path fill="none" stroke="#63b8ff" d="M278.76,-219.98C303.82,-211.19 343.13,-197.39 371.33,-187.49"/>
<polygon fill="#63b8ff" stroke="#63b8ff" points="372.52,-190.78 380.8,-184.17 370.2,-184.18 372.52,-190.78"/>
</g>
<!-- Node10 -->
<g id="node10" class="node">
<title>Node10</title>
<g id="a_node10"><a xlink:href="cardmatch_8h.html" target="_top" xlink:title=" ">
<polygon fill="white" stroke="#666666" points="329,-184 180,-184 180,-165 329,-165 329,-184"/>
<text text-anchor="middle" x="254.5" y="-172" font-family="Helvetica,sans-Serif" font-size="10.00">game_system/cardmatch.h</text>
</a>
</g>
</g>
<!-- Node1&#45;&gt;Node10 -->
<g id="edge10" class="edge">
<title>Node1&#45;&gt;Node10</title>
<path fill="none" stroke="#63b8ff" d="M254.5,-219.75C254.5,-212.8 254.5,-202.85 254.5,-194.13"/>
<polygon fill="#63b8ff" stroke="#63b8ff" points="258,-194.09 254.5,-184.09 251,-194.09 258,-194.09"/>
</g>
<!-- Node15 -->
<g id="node15" class="node">
<title>Node15</title>
<g id="a_node15"><a xlink:href="debug_8h.html" target="_top" xlink:title=" ">
<polygon fill="white" stroke="#666666" points="600.5,-184 526.5,-184 526.5,-165 600.5,-165 600.5,-184"/>
<text text-anchor="middle" x="563.5" y="-172" font-family="Helvetica,sans-Serif" font-size="10.00">util/debug.h</text>
</a>
</g>
</g>
<!-- Node1&#45;&gt;Node15 -->
<g id="edge21" class="edge">
<title>Node1&#45;&gt;Node15</title>
<path fill="none" stroke="#63b8ff" d="M304.15,-219.98C362.57,-209.96 458.86,-193.45 516.23,-183.61"/>
<polygon fill="#63b8ff" stroke="#63b8ff" points="516.86,-187.05 526.12,-181.91 515.68,-180.15 516.86,-187.05"/>
</g>
<!-- Node3 -->
<g id="node3" class="node">
<title>Node3</title>
<g id="a_node3"><a xlink:href="effect_8h.html" target="_top" xlink:title=" ">
<polygon fill="white" stroke="#666666" points="83,-129 0,-129 0,-110 83,-110 83,-129"/>
<text text-anchor="middle" x="41.5" y="-117" font-family="Helvetica,sans-Serif" font-size="10.00">cards/effect.h</text>
</a>
</g>
</g>
<!-- Node2&#45;&gt;Node3 -->
<g id="edge2" class="edge">
<title>Node2&#45;&gt;Node3</title>
<path fill="none" stroke="#63b8ff" d="M64.04,-164.75C60.38,-157.57 55.09,-147.18 50.55,-138.27"/>
<polygon fill="#63b8ff" stroke="#63b8ff" points="53.53,-136.41 45.88,-129.09 47.3,-139.59 53.53,-136.41"/>
</g>
<!-- Node5 -->
<g id="node5" class="node">
<title>Node5</title>
<g id="a_node5"><a xlink:title=" ">
<polygon fill="#e0e0e0" stroke="#999999" points="352.5,-19 294.5,-19 294.5,0 352.5,0 352.5,-19"/>
<text text-anchor="middle" x="323.5" y="-7" font-family="Helvetica,sans-Serif" font-size="10.00">memory</text>
</a>
</g>
</g>
<!-- Node4&#45;&gt;Node5 -->
<g id="edge4" class="edge">
<title>Node4&#45;&gt;Node5</title>
<path fill="none" stroke="#63b8ff" d="M295.96,-109.66C300.84,-92.09 311.85,-52.45 318.37,-28.95"/>
<polygon fill="#63b8ff" stroke="#63b8ff" points="321.79,-29.73 321.09,-19.16 315.05,-27.86 321.79,-29.73"/>
</g>
<!-- Node6 -->
<g id="node6" class="node">
<title>Node6</title>
<g id="a_node6"><a xlink:title=" ">
<polygon fill="#e0e0e0" stroke="#999999" points="276.5,-19 232.5,-19 232.5,0 276.5,0 276.5,-19"/>
<text text-anchor="middle" x="254.5" y="-7" font-family="Helvetica,sans-Serif" font-size="10.00">string</text>
</a>
</g>
</g>
<!-- Node4&#45;&gt;Node6 -->
<g id="edge5" class="edge">
<title>Node4&#45;&gt;Node6</title>
<path fill="none" stroke="#63b8ff" d="M290.31,-109.66C283.93,-92.01 269.52,-52.09 261.05,-28.64"/>
<polygon fill="#63b8ff" stroke="#63b8ff" points="264.32,-27.38 257.63,-19.16 257.73,-29.75 264.32,-27.38"/>
</g>
<!-- Node7 -->
<g id="node7" class="node">
<title>Node7</title>
<g id="a_node7"><a xlink:title=" ">
<polygon fill="#e0e0e0" stroke="#999999" points="410,-74 337,-74 337,-55 410,-55 410,-74"/>
<text text-anchor="middle" x="373.5" y="-62" font-family="Helvetica,sans-Serif" font-size="10.00">string_view</text>
</a>
</g>
</g>
<!-- Node4&#45;&gt;Node7 -->
<g id="edge6" class="edge">
<title>Node4&#45;&gt;Node7</title>
<path fill="none" stroke="#63b8ff" d="M306.35,-109.98C318.64,-101.84 337.41,-89.41 351.98,-79.76"/>
<polygon fill="#63b8ff" stroke="#63b8ff" points="354.01,-82.61 360.41,-74.17 350.14,-76.78 354.01,-82.61"/>
</g>
<!-- Node8 -->
<g id="node8" class="node">
<title>Node8</title>
<g id="a_node8"><a xlink:title=" ">
<polygon fill="#e0e0e0" stroke="#999999" points="242,-74 195,-74 195,-55 242,-55 242,-74"/>
<text text-anchor="middle" x="218.5" y="-62" font-family="Helvetica,sans-Serif" font-size="10.00">vector</text>
</a>
</g>
</g>
<!-- Node4&#45;&gt;Node8 -->
<g id="edge7" class="edge">
<title>Node4&#45;&gt;Node8</title>
<path fill="none" stroke="#63b8ff" d="M281.45,-109.98C270.04,-101.92 252.67,-89.65 239.07,-80.03"/>
<polygon fill="#63b8ff" stroke="#63b8ff" points="240.96,-77.08 230.77,-74.17 236.92,-82.8 240.96,-77.08"/>
</g>
<!-- Node9&#45;&gt;Node7 -->
<g id="edge9" class="edge">
<title>Node9&#45;&gt;Node7</title>
<path fill="none" stroke="#63b8ff" d="M402.88,-164.66C397.68,-147.09 385.93,-107.45 378.97,-83.95"/>
<polygon fill="#63b8ff" stroke="#63b8ff" points="382.26,-82.75 376.07,-74.16 375.55,-84.74 382.26,-82.75"/>
</g>
<!-- Node11 -->
<g id="node11" class="node">
<title>Node11</title>
<g id="a_node11"><a xlink:href="deckCombat_8h.html" target="_top" xlink:title=" ">
<polygon fill="white" stroke="#666666" points="214,-129 101,-129 101,-110 214,-110 214,-129"/>
<text text-anchor="middle" x="157.5" y="-117" font-family="Helvetica,sans-Serif" font-size="10.00">deck/deckCombat.h</text>
</a>
</g>
</g>
<!-- Node10&#45;&gt;Node11 -->
<g id="edge11" class="edge">
<title>Node10&#45;&gt;Node11</title>
<path fill="none" stroke="#63b8ff" d="M238.92,-164.98C223.73,-156.69 200.4,-143.94 182.6,-134.22"/>
<polygon fill="#63b8ff" stroke="#63b8ff" points="183.82,-130.89 173.37,-129.17 180.47,-137.04 183.82,-130.89"/>
</g>
<!-- Node12 -->
<g id="node12" class="node">
<title>Node12</title>
<g id="a_node12"><a xlink:href="cardFactory_8h.html" target="_top" xlink:title=" ">
<polygon fill="white" stroke="#666666" points="537.5,-129 411.5,-129 411.5,-110 537.5,-110 537.5,-129"/>
<text text-anchor="middle" x="474.5" y="-117" font-family="Helvetica,sans-Serif" font-size="10.00">factories/cardFactory.h</text>
</a>
</g>
</g>
<!-- Node10&#45;&gt;Node12 -->
<g id="edge15" class="edge">
<title>Node10&#45;&gt;Node12</title>
<path fill="none" stroke="#63b8ff" d="M289.85,-164.98C327.66,-155.87 387.76,-141.4 429.07,-131.45"/>
<polygon fill="#63b8ff" stroke="#63b8ff" points="429.97,-134.83 438.88,-129.08 428.33,-128.02 429.97,-134.83"/>
</g>
<!-- Node11&#45;&gt;Node5 -->
<g id="edge12" class="edge">
<title>Node11&#45;&gt;Node5</title>
<path fill="none" stroke="#63b8ff" d="M158.99,-109.78C161.77,-96.15 169.04,-69.85 185.5,-55 200.22,-41.73 249.04,-27.95 284.44,-19.31"/>
<polygon fill="#63b8ff" stroke="#63b8ff" points="285.58,-22.63 294.49,-16.9 283.95,-15.82 285.58,-22.63"/>
</g>
<!-- Node11&#45;&gt;Node6 -->
<g id="edge13" class="edge">
<title>Node11&#45;&gt;Node6</title>
<path fill="none" stroke="#63b8ff" d="M153.72,-109.87C148.65,-96.83 141.48,-71.84 152.5,-55 167.9,-31.49 198.73,-20.33 222.49,-15.07"/>
<polygon fill="#63b8ff" stroke="#63b8ff" points="223.36,-18.47 232.5,-13.11 222.01,-11.6 223.36,-18.47"/>
</g>
<!-- Node11&#45;&gt;Node8 -->
<g id="edge14" class="edge">
<title>Node11&#45;&gt;Node8</title>
<path fill="none" stroke="#63b8ff" d="M167.3,-109.98C176.32,-102.15 189.91,-90.34 200.82,-80.86"/>
<polygon fill="#63b8ff" stroke="#63b8ff" points="203.27,-83.37 208.52,-74.17 198.68,-78.09 203.27,-83.37"/>
</g>
<!-- Node12&#45;&gt;Node7 -->
<g id="edge19" class="edge">
<title>Node12&#45;&gt;Node7</title>
<path fill="none" stroke="#63b8ff" d="M458.27,-109.98C442.32,-101.61 417.72,-88.7 399.12,-78.95"/>
<polygon fill="#63b8ff" stroke="#63b8ff" points="400.5,-75.72 390.02,-74.17 397.25,-81.92 400.5,-75.72"/>
</g>
<!-- Node13 -->
<g id="node13" class="node">
<title>Node13</title>
<g id="a_node13"><a xlink:href="ICardFactory_8h.html" target="_top" xlink:title=" ">
<polygon fill="white" stroke="#666666" points="624,-74 539,-74 539,-55 624,-55 624,-74"/>
<text text-anchor="middle" x="581.5" y="-62" font-family="Helvetica,sans-Serif" font-size="10.00">ICardFactory.h</text>
</a>
</g>
</g>
<!-- Node12&#45;&gt;Node13 -->
<g id="edge16" class="edge">
<title>Node12&#45;&gt;Node13</title>
<path fill="none" stroke="#63b8ff" d="M491.69,-109.98C508.75,-101.54 535.13,-88.47 554.9,-78.68"/>
<polygon fill="#63b8ff" stroke="#63b8ff" points="556.59,-81.75 564,-74.17 553.48,-75.47 556.59,-81.75"/>
</g>
<!-- Node14 -->
<g id="node14" class="node">
<title>Node14</title>
<g id="a_node14"><a xlink:title=" ">
<polygon fill="#e0e0e0" stroke="#999999" points="521,-74 428,-74 428,-55 521,-55 521,-74"/>
<text text-anchor="middle" x="474.5" y="-62" font-family="Helvetica,sans-Serif" font-size="10.00">unordered_map</text>
</a>
</g>
</g>
<!-- Node12&#45;&gt;Node14 -->
<g id="edge20" class="edge">
<title>Node12&#45;&gt;Node14</title>
<path fill="none" stroke="#63b8ff" d="M474.5,-109.75C474.5,-102.8 474.5,-92.85 474.5,-84.13"/>
<polygon fill="#63b8ff" stroke="#63b8ff" points="478,-84.09 474.5,-74.09 471,-84.09 478,-84.09"/>
</g>
<!-- Node13&#45;&gt;Node5 -->
<g id="edge17" class="edge">
<title>Node13&#45;&gt;Node5</title>
<path fill="none" stroke="#63b8ff" d="M540.05,-54.98C491.21,-44.95 410.68,-28.41 362.8,-18.57"/>
<polygon fill="#63b8ff" stroke="#63b8ff" points="363.31,-15.11 352.81,-16.52 361.9,-21.96 363.31,-15.11"/>
</g>
<!-- Node13&#45;&gt;Node6 -->
<g id="edge18" class="edge">
<title>Node13&#45;&gt;Node6</title>
<path fill="none" stroke="#63b8ff" d="M538.93,-56.34C536.08,-55.88 533.25,-55.43 530.5,-55 424.96,-38.45 394.96,-41.4 286.78,-19.05"/>
<polygon fill="#63b8ff" stroke="#63b8ff" points="287.28,-15.58 276.77,-16.96 285.84,-22.43 287.28,-15.58"/>
</g>
<!-- Node16 -->
<g id="node16" class="node">
<title>Node16</title>
<g id="a_node16"><a xlink:title=" ">
<polygon fill="#e0e0e0" stroke="#999999" points="615.5,-129 555.5,-129 555.5,-110 615.5,-110 615.5,-129"/>
<text text-anchor="middle" x="585.5" y="-117" font-family="Helvetica,sans-Serif" font-size="10.00">iostream</text>
</a>
</g>
</g>
<!-- Node15&#45;&gt;Node16 -->
<g id="edge22" class="edge">
<title>Node15&#45;&gt;Node16</title>
<path fill="none" stroke="#63b8ff" d="M567.13,-164.75C570.08,-157.65 574.33,-147.4 578.01,-138.56"/>
<polygon fill="#63b8ff" stroke="#63b8ff" points="581.33,-139.67 581.93,-129.09 574.87,-136.98 581.33,-139.67"/>
</g>
</g>
</svg>
