<?xml version="1.0" encoding="UTF-8" standalone="no"?>
<!DOCTYPE svg PUBLIC "-//W3C//DTD SVG 1.1//EN"
 "http://www.w3.org/Graphics/SVG/1.1/DTD/svg11.dtd">
<!-- Generated by graphviz version 2.43.0 (0)
 -->
<!-- Title: cards/effects/gainArmorEffect.h Pages: 1 -->
<svg width="344pt" height="82pt"
 viewBox="0.00 0.00 344.00 82.00" xmlns="http://www.w3.org/2000/svg" xmlns:xlink="http://www.w3.org/1999/xlink">
<g id="graph0" class="graph" transform="scale(1 1) rotate(0) translate(4 78)">
<title>cards/effects/gainArmorEffect.h</title>
<!-- Node1 -->
<g id="node1" class="node">
<title>Node1</title>
<g id="a_node1"><a xlink:title=" ">
<polygon fill="#999999" stroke="#666666" points="263.5,-74 93.5,-74 93.5,-55 263.5,-55 263.5,-74"/>
<text text-anchor="middle" x="178.5" y="-62" font-family="Helvetica,sans-Serif" font-size="10.00">cards/effects/gainArmorEffect.h</text>
</a>
</g>
</g>
<!-- Node2 -->
<g id="node2" class="node">
<title>Node2</title>
<g id="a_node2"><a xlink:href="gainArmorEffect_8cpp.html" target="_top" xlink:title=" ">
<polygon fill="white" stroke="#666666" points="181,-19 0,-19 0,0 181,0 181,-19"/>
<text text-anchor="middle" x="90.5" y="-7" font-family="Helvetica,sans-Serif" font-size="10.00">cards/effects/gainArmorEffect.cpp</text>
</a>
</g>
</g>
<!-- Node1&#45;&gt;Node2 -->
<g id="edge1" class="edge">
<title>Node1&#45;&gt;Node2</title>
<path fill="none" stroke="#63b8ff" d="M155.58,-49.7C139.55,-40.04 118.63,-27.44 104.9,-19.17"/>
<polygon fill="#63b8ff" stroke="#63b8ff" points="153.99,-52.82 164.36,-54.98 157.6,-46.83 153.99,-52.82"/>
</g>
<!-- Node3 -->
<g id="node3" class="node">
<title>Node3</title>
<g id="a_node3"><a xlink:href="cardFactory_8cpp.html" target="_top" xlink:title=" ">
<polygon fill="white" stroke="#666666" points="336,-19 199,-19 199,0 336,0 336,-19"/>
<text text-anchor="middle" x="267.5" y="-7" font-family="Helvetica,sans-Serif" font-size="10.00">factories/cardFactory.cpp</text>
</a>
</g>
</g>
<!-- Node1&#45;&gt;Node3 -->
<g id="edge2" class="edge">
<title>Node1&#45;&gt;Node3</title>
<path fill="none" stroke="#63b8ff" d="M201.68,-49.7C217.89,-40.04 239.05,-27.44 252.94,-19.17"/>
<polygon fill="#63b8ff" stroke="#63b8ff" points="199.6,-46.86 192.8,-54.98 203.18,-52.88 199.6,-46.86"/>
</g>
</g>
</svg>
