<?xml version="1.0" encoding="UTF-8" standalone="no"?>
<!DOCTYPE svg PUBLIC "-//W3C//DTD SVG 1.1//EN"
 "http://www.w3.org/Graphics/SVG/1.1/DTD/svg11.dtd">
<!-- Generated by graphviz version 2.43.0 (0)
 -->
<!-- Title: game_system/game.h Pages: 1 -->
<svg width="801pt" height="247pt"
 viewBox="0.00 0.00 800.77 247.00" xmlns="http://www.w3.org/2000/svg" xmlns:xlink="http://www.w3.org/1999/xlink">
<g id="graph0" class="graph" transform="scale(1 1) rotate(0) translate(4 243)">
<title>game_system/game.h</title>
<!-- Node1 -->
<g id="node1" class="node">
<title>Node1</title>
<g id="a_node1"><a xlink:title=" ">
<polygon fill="#999999" stroke="#666666" points="640.5,-239 515.5,-239 515.5,-220 640.5,-220 640.5,-239"/>
<text text-anchor="middle" x="578" y="-227" font-family="Helvetica,sans-Serif" font-size="10.00">game_system/game.h</text>
</a>
</g>
</g>
<!-- Node2 -->
<g id="node2" class="node">
<title>Node2</title>
<g id="a_node2"><a xlink:href="player_8h.html" target="_top" xlink:title=" ">
<polygon fill="white" stroke="#666666" points="413.5,-184 318.5,-184 318.5,-165 413.5,-165 413.5,-184"/>
<text text-anchor="middle" x="366" y="-172" font-family="Helvetica,sans-Serif" font-size="10.00">entities/player.h</text>
</a>
</g>
</g>
<!-- Node1&#45;&gt;Node2 -->
<g id="edge1" class="edge">
<title>Node1&#45;&gt;Node2</title>
<path fill="none" stroke="#63b8ff" d="M543.94,-219.98C507.58,-210.89 449.83,-196.46 410.03,-186.51"/>
<polygon fill="#63b8ff" stroke="#63b8ff" points="410.88,-183.11 400.33,-184.08 409.18,-189.9 410.88,-183.11"/>
</g>
<!-- Node4 -->
<g id="node4" class="node">
<title>Node4</title>
<g id="a_node4"><a xlink:title=" ">
<polygon fill="#e0e0e0" stroke="#999999" points="392,-19 348,-19 348,0 392,0 392,-19"/>
<text text-anchor="middle" x="370" y="-7" font-family="Helvetica,sans-Serif" font-size="10.00">string</text>
</a>
</g>
</g>
<!-- Node1&#45;&gt;Node4 -->
<g id="edge25" class="edge">
<title>Node1&#45;&gt;Node4</title>
<path fill="none" stroke="#63b8ff" d="M628.57,-219.97C702.9,-205.21 828.21,-170.51 783,-110 736.92,-48.33 491.35,-21.07 402.29,-13.11"/>
<polygon fill="#63b8ff" stroke="#63b8ff" points="402.49,-9.62 392.23,-12.24 401.89,-16.59 402.49,-9.62"/>
</g>
<!-- Node7 -->
<g id="node7" class="node">
<title>Node7</title>
<g id="a_node7"><a xlink:title=" ">
<polygon fill="#e0e0e0" stroke="#999999" points="58,-74 0,-74 0,-55 58,-55 58,-74"/>
<text text-anchor="middle" x="29" y="-62" font-family="Helvetica,sans-Serif" font-size="10.00">memory</text>
</a>
</g>
</g>
<!-- Node1&#45;&gt;Node7 -->
<g id="edge24" class="edge">
<title>Node1&#45;&gt;Node7</title>
<path fill="none" stroke="#63b8ff" d="M515.38,-222.19C460.49,-215.69 378.93,-203.7 310,-184 248.5,-166.43 235.95,-153.83 177,-129 135.56,-111.54 87.78,-90.96 57.98,-78.07"/>
<polygon fill="#63b8ff" stroke="#63b8ff" points="59.16,-74.77 48.6,-74.01 56.38,-81.19 59.16,-74.77"/>
</g>
<!-- Node8 -->
<g id="node8" class="node">
<title>Node8</title>
<g id="a_node8"><a xlink:title=" ">
<polygon fill="#e0e0e0" stroke="#999999" points="587.5,-74 514.5,-74 514.5,-55 587.5,-55 587.5,-74"/>
<text text-anchor="middle" x="551" y="-62" font-family="Helvetica,sans-Serif" font-size="10.00">string_view</text>
</a>
</g>
</g>
<!-- Node1&#45;&gt;Node8 -->
<g id="edge26" class="edge">
<title>Node1&#45;&gt;Node8</title>
<path fill="none" stroke="#63b8ff" d="M579.71,-219.94C583.31,-200.12 590.46,-149.73 579,-110 576.13,-100.06 570.32,-90.2 564.72,-82.29"/>
<polygon fill="#63b8ff" stroke="#63b8ff" points="567.5,-80.16 558.67,-74.3 561.92,-84.39 567.5,-80.16"/>
</g>
<!-- Node12 -->
<g id="node12" class="node">
<title>Node12</title>
<g id="a_node12"><a xlink:href="iotext_8h.html" target="_top" xlink:title=" ">
<polygon fill="white" stroke="#666666" points="570,-129 504,-129 504,-110 570,-110 570,-129"/>
<text text-anchor="middle" x="537" y="-117" font-family="Helvetica,sans-Serif" font-size="10.00">ui/iotext.h</text>
</a>
</g>
</g>
<!-- Node1&#45;&gt;Node12 -->
<g id="edge18" class="edge">
<title>Node1&#45;&gt;Node12</title>
<path fill="none" stroke="#63b8ff" d="M574.64,-219.66C567.94,-202.01 552.79,-162.09 543.88,-138.64"/>
<polygon fill="#63b8ff" stroke="#63b8ff" points="547.11,-137.27 540.29,-129.16 540.56,-139.75 547.11,-137.27"/>
</g>
<!-- Node13 -->
<g id="node13" class="node">
<title>Node13</title>
<g id="a_node13"><a xlink:href="text_8h.html" target="_top" xlink:title=" ">
<polygon fill="white" stroke="#666666" points="683.5,-184 626.5,-184 626.5,-165 683.5,-165 683.5,-184"/>
<text text-anchor="middle" x="655" y="-172" font-family="Helvetica,sans-Serif" font-size="10.00">ui/text.h</text>
</a>
</g>
</g>
<!-- Node1&#45;&gt;Node13 -->
<g id="edge21" class="edge">
<title>Node1&#45;&gt;Node13</title>
<path fill="none" stroke="#63b8ff" d="M590.37,-219.98C602.09,-211.92 619.92,-199.65 633.89,-190.03"/>
<polygon fill="#63b8ff" stroke="#63b8ff" points="636.15,-192.72 642.4,-184.17 632.18,-186.96 636.15,-192.72"/>
</g>
<!-- Node3 -->
<g id="node3" class="node">
<title>Node3</title>
<g id="a_node3"><a xlink:href="deckEntry_8h.html" target="_top" xlink:title=" ">
<polygon fill="white" stroke="#666666" points="175.5,-74 76.5,-74 76.5,-55 175.5,-55 175.5,-74"/>
<text text-anchor="middle" x="126" y="-62" font-family="Helvetica,sans-Serif" font-size="10.00">deck/deckEntry.h</text>
</a>
</g>
</g>
<!-- Node2&#45;&gt;Node3 -->
<g id="edge2" class="edge">
<title>Node2&#45;&gt;Node3</title>
<path fill="none" stroke="#63b8ff" d="M320.31,-164.95C288.56,-157.93 245.86,-146.3 211,-129 185.15,-116.17 159.1,-95.26 142.78,-80.96"/>
<polygon fill="#63b8ff" stroke="#63b8ff" points="144.97,-78.23 135.18,-74.17 140.3,-83.44 144.97,-78.23"/>
</g>
<!-- Node2&#45;&gt;Node4 -->
<g id="edge15" class="edge">
<title>Node2&#45;&gt;Node4</title>
<path fill="none" stroke="#63b8ff" d="M366.22,-164.74C366.84,-139.31 368.66,-65.08 369.53,-29.69"/>
<polygon fill="#63b8ff" stroke="#63b8ff" points="373.04,-29.39 369.78,-19.31 366.04,-29.22 373.04,-29.39"/>
</g>
<!-- Node5 -->
<g id="node5" class="node">
<title>Node5</title>
<g id="a_node5"><a xlink:href="deckPlayer_8h.html" target="_top" xlink:title=" ">
<polygon fill="white" stroke="#666666" points="337.5,-129 232.5,-129 232.5,-110 337.5,-110 337.5,-129"/>
<text text-anchor="middle" x="285" y="-117" font-family="Helvetica,sans-Serif" font-size="10.00">deck/deckPlayer.h</text>
</a>
</g>
</g>
<!-- Node2&#45;&gt;Node5 -->
<g id="edge4" class="edge">
<title>Node2&#45;&gt;Node5</title>
<path fill="none" stroke="#63b8ff" d="M352.99,-164.98C340.54,-156.84 321.54,-144.41 306.79,-134.76"/>
<polygon fill="#63b8ff" stroke="#63b8ff" points="308.54,-131.72 298.25,-129.17 304.7,-137.57 308.54,-131.72"/>
</g>
<!-- Node2&#45;&gt;Node8 -->
<g id="edge16" class="edge">
<title>Node2&#45;&gt;Node8</title>
<path fill="none" stroke="#63b8ff" d="M385.58,-164.89C404.29,-156.43 433.1,-142.83 457,-129 483.52,-113.66 512.51,-93.52 531.19,-80.07"/>
<polygon fill="#63b8ff" stroke="#63b8ff" points="533.43,-82.77 539.47,-74.06 529.32,-77.1 533.43,-82.77"/>
</g>
<!-- Node10 -->
<g id="node10" class="node">
<title>Node10</title>
<g id="a_node10"><a xlink:title=" ">
<polygon fill="#e0e0e0" stroke="#999999" points="240.5,-74 193.5,-74 193.5,-55 240.5,-55 240.5,-74"/>
<text text-anchor="middle" x="217" y="-62" font-family="Helvetica,sans-Serif" font-size="10.00">vector</text>
</a>
</g>
</g>
<!-- Node2&#45;&gt;Node10 -->
<g id="edge17" class="edge">
<title>Node2&#45;&gt;Node10</title>
<path fill="none" stroke="#63b8ff" d="M318.43,-171.49C286.72,-167.47 246.82,-156.73 224,-129 213.87,-116.69 212.91,-98.18 214.01,-84.32"/>
<polygon fill="#63b8ff" stroke="#63b8ff" points="217.54,-84.35 215.27,-74 210.59,-83.51 217.54,-84.35"/>
</g>
<!-- Node11 -->
<g id="node11" class="node">
<title>Node11</title>
<g id="a_node11"><a xlink:href="entity_8h.html" target="_top" xlink:title=" ">
<polygon fill="white" stroke="#666666" points="447.5,-129 394.5,-129 394.5,-110 447.5,-110 447.5,-129"/>
<text text-anchor="middle" x="421" y="-117" font-family="Helvetica,sans-Serif" font-size="10.00">entity.h</text>
</a>
</g>
</g>
<!-- Node2&#45;&gt;Node11 -->
<g id="edge12" class="edge">
<title>Node2&#45;&gt;Node11</title>
<path fill="none" stroke="#63b8ff" d="M375.08,-164.75C383.09,-157.03 394.96,-145.6 404.62,-136.28"/>
<polygon fill="#63b8ff" stroke="#63b8ff" points="407.31,-138.55 412.09,-129.09 402.46,-133.51 407.31,-138.55"/>
</g>
<!-- Node3&#45;&gt;Node4 -->
<g id="edge3" class="edge">
<title>Node3&#45;&gt;Node4</title>
<path fill="none" stroke="#63b8ff" d="M165.2,-54.98C213.09,-44.58 293.21,-27.18 337.72,-17.51"/>
<polygon fill="#63b8ff" stroke="#63b8ff" points="338.67,-20.89 347.7,-15.34 337.18,-14.05 338.67,-20.89"/>
</g>
<!-- Node5&#45;&gt;Node3 -->
<g id="edge5" class="edge">
<title>Node5&#45;&gt;Node3</title>
<path fill="none" stroke="#63b8ff" d="M259.45,-109.98C232.88,-101.13 191.06,-87.19 161.33,-77.28"/>
<polygon fill="#63b8ff" stroke="#63b8ff" points="162.34,-73.92 151.75,-74.08 160.13,-80.56 162.34,-73.92"/>
</g>
<!-- Node5&#45;&gt;Node4 -->
<g id="edge8" class="edge">
<title>Node5&#45;&gt;Node4</title>
<path fill="none" stroke="#63b8ff" d="M291.96,-109.66C306.16,-91.61 338.69,-50.28 356.95,-27.08"/>
<polygon fill="#63b8ff" stroke="#63b8ff" points="359.75,-29.18 363.19,-19.16 354.25,-24.85 359.75,-29.18"/>
</g>
<!-- Node6 -->
<g id="node6" class="node">
<title>Node6</title>
<g id="a_node6"><a xlink:title=" ">
<polygon fill="#e0e0e0" stroke="#999999" points="496,-74 436,-74 436,-55 496,-55 496,-74"/>
<text text-anchor="middle" x="466" y="-62" font-family="Helvetica,sans-Serif" font-size="10.00">iostream</text>
</a>
</g>
</g>
<!-- Node5&#45;&gt;Node6 -->
<g id="edge6" class="edge">
<title>Node5&#45;&gt;Node6</title>
<path fill="none" stroke="#63b8ff" d="M314.08,-109.98C344.6,-101.05 392.76,-86.94 426.66,-77.02"/>
<polygon fill="#63b8ff" stroke="#63b8ff" points="428.08,-80.25 436.69,-74.08 426.11,-73.53 428.08,-80.25"/>
</g>
<!-- Node5&#45;&gt;Node7 -->
<g id="edge7" class="edge">
<title>Node5&#45;&gt;Node7</title>
<path fill="none" stroke="#63b8ff" d="M241.93,-109.96C199.99,-101.58 134.16,-88.29 67.82,-74.15"/>
<polygon fill="#63b8ff" stroke="#63b8ff" points="68.54,-70.72 58.03,-72.05 67.08,-77.57 68.54,-70.72"/>
</g>
<!-- Node5&#45;&gt;Node8 -->
<g id="edge9" class="edge">
<title>Node5&#45;&gt;Node8</title>
<path fill="none" stroke="#63b8ff" d="M327.74,-109.98C376.1,-100.35 454.61,-84.71 504.48,-74.77"/>
<polygon fill="#63b8ff" stroke="#63b8ff" points="505.24,-78.19 514.36,-72.8 503.87,-71.32 505.24,-78.19"/>
</g>
<!-- Node9 -->
<g id="node9" class="node">
<title>Node9</title>
<g id="a_node9"><a xlink:title=" ">
<polygon fill="#e0e0e0" stroke="#999999" points="303.5,-74 258.5,-74 258.5,-55 303.5,-55 303.5,-74"/>
<text text-anchor="middle" x="281" y="-62" font-family="Helvetica,sans-Serif" font-size="10.00">utility</text>
</a>
</g>
</g>
<!-- Node5&#45;&gt;Node9 -->
<g id="edge10" class="edge">
<title>Node5&#45;&gt;Node9</title>
<path fill="none" stroke="#63b8ff" d="M284.34,-109.75C283.82,-102.8 283.06,-92.85 282.41,-84.13"/>
<polygon fill="#63b8ff" stroke="#63b8ff" points="285.89,-83.8 281.65,-74.09 278.91,-84.32 285.89,-83.8"/>
</g>
<!-- Node5&#45;&gt;Node10 -->
<g id="edge11" class="edge">
<title>Node5&#45;&gt;Node10</title>
<path fill="none" stroke="#63b8ff" d="M274.07,-109.98C263.92,-102.07 248.58,-90.11 236.35,-80.58"/>
<polygon fill="#63b8ff" stroke="#63b8ff" points="238.16,-77.56 228.12,-74.17 233.86,-83.08 238.16,-77.56"/>
</g>
<!-- Node11&#45;&gt;Node4 -->
<g id="edge13" class="edge">
<title>Node11&#45;&gt;Node4</title>
<path fill="none" stroke="#63b8ff" d="M416.83,-109.66C408.45,-91.93 389.47,-51.73 378.41,-28.32"/>
<polygon fill="#63b8ff" stroke="#63b8ff" points="381.52,-26.71 374.09,-19.16 375.19,-29.7 381.52,-26.71"/>
</g>
<!-- Node11&#45;&gt;Node8 -->
<g id="edge14" class="edge">
<title>Node11&#45;&gt;Node8</title>
<path fill="none" stroke="#63b8ff" d="M441.89,-109.98C463.08,-101.34 496.13,-87.87 520.3,-78.02"/>
<polygon fill="#63b8ff" stroke="#63b8ff" points="521.79,-81.19 529.73,-74.17 519.15,-74.7 521.79,-81.19"/>
</g>
<!-- Node12&#45;&gt;Node6 -->
<g id="edge20" class="edge">
<title>Node12&#45;&gt;Node6</title>
<path fill="none" stroke="#63b8ff" d="M525.59,-109.98C514.89,-102 498.66,-89.88 485.84,-80.31"/>
<polygon fill="#63b8ff" stroke="#63b8ff" points="487.72,-77.35 477.61,-74.17 483.53,-82.96 487.72,-77.35"/>
</g>
<!-- Node12&#45;&gt;Node8 -->
<g id="edge19" class="edge">
<title>Node12&#45;&gt;Node8</title>
<path fill="none" stroke="#63b8ff" d="M539.31,-109.75C541.17,-102.72 543.84,-92.62 546.15,-83.84"/>
<polygon fill="#63b8ff" stroke="#63b8ff" points="549.56,-84.65 548.73,-74.09 542.79,-82.86 549.56,-84.65"/>
</g>
<!-- Node13&#45;&gt;Node8 -->
<g id="edge22" class="edge">
<title>Node13&#45;&gt;Node8</title>
<path fill="none" stroke="#63b8ff" d="M650.28,-164.59C643.14,-151.63 628.65,-127.24 612,-110 600.83,-98.43 586.35,-87.72 574.3,-79.72"/>
<polygon fill="#63b8ff" stroke="#63b8ff" points="575.96,-76.62 565.66,-74.15 572.17,-82.51 575.96,-76.62"/>
</g>
<!-- Node14 -->
<g id="node14" class="node">
<title>Node14</title>
<g id="a_node14"><a xlink:title=" ">
<polygon fill="#e0e0e0" stroke="#999999" points="774,-129 664,-129 664,-110 774,-110 774,-129"/>
<text text-anchor="middle" x="719" y="-117" font-family="Helvetica,sans-Serif" font-size="10.00">nlohmann/json.hpp</text>
</a>
</g>
</g>
<!-- Node13&#45;&gt;Node14 -->
<g id="edge23" class="edge">
<title>Node13&#45;&gt;Node14</title>
<path fill="none" stroke="#63b8ff" d="M665.28,-164.98C674.84,-157.07 689.28,-145.11 700.78,-135.58"/>
<polygon fill="#63b8ff" stroke="#63b8ff" points="703.06,-138.24 708.53,-129.17 698.6,-132.85 703.06,-138.24"/>
</g>
</g>
</svg>
