<?xml version="1.0" encoding="UTF-8" standalone="no"?>
<!DOCTYPE svg PUBLIC "-//W3C//DTD SVG 1.1//EN"
 "http://www.w3.org/Graphics/SVG/1.1/DTD/svg11.dtd">
<!-- Generated by graphviz version 2.43.0 (0)
 -->
<!-- Title: game_system/game.cpp Pages: 1 -->
<!--zoomable 302 -->
<svg id="main" version="1.1" xmlns="http://www.w3.org/2000/svg" xmlns:xlink="http://www.w3.org/1999/xlink" xml:space="preserve" onload="init(evt)">
<style type="text/css"><![CDATA[
.edge:hover path { stroke: red; }
.edge:hover polygon { stroke: red; fill: red; }
]]></style>
<script type="text/javascript"><![CDATA[
var edges = document.getElementsByTagName('g');
if (edges && edges.length) {
  for (var i=0;i<edges.length;i++) {
    if (edges[i].id.substr(0,4)=='edge') {
      edges[i].setAttribute('class','edge');
    }
  }
}
]]></script>
        <defs>
                <circle id="rim" cx="0" cy="0" r="7"/>
                <circle id="rim2" cx="0" cy="0" r="3.5"/>
                <g id="zoomPlus">
                        <use xlink:href="#rim" fill="#404040">
                                <set attributeName="fill" to="#808080" begin="zoomplus.mouseover" end="zoomplus.mouseout"/>
                        </use>
                        <path d="M-4,0h8M0,-4v8" fill="none" stroke="white" stroke-width="1.5" pointer-events="none"/>
                </g>
                <g id="zoomMin">
                        <use xlink:href="#rim" fill="#404040">
                                <set attributeName="fill" to="#808080" begin="zoomminus.mouseover" end="zoomminus.mouseout"/>
                        </use>
                        <path d="M-4,0h8" fill="none" stroke="white" stroke-width="1.5" pointer-events="none"/>
                </g>
                <g id="dirArrow">
                        <path fill="none" stroke="white" stroke-width="1.5" d="M0,-3.0v7 M-2.5,-0.5L0,-3.0L2.5,-0.5"/>
                </g>
               <g id="resetDef">
                       <use xlink:href="#rim2" fill="#404040">
                               <set attributeName="fill" to="#808080" begin="reset.mouseover" end="reset.mouseout"/>
                       </use>
               </g>
        </defs>

<script type="text/javascript">
var viewWidth = 647;
var viewHeight = 302;
var sectionId = 'dynsection-0';
</script>
<script xlink:href="svgpan.js"/>
<svg id="graph" class="graph">
<g id="viewport">
<title>game_system/game.cpp</title>
<!-- Node1 -->
<g id="node1" class="node">
<title>Node1</title>
<g id="a_node1"><a xlink:title=" ">
<polygon fill="#999999" stroke="#666666" points="509.41,-294 372.41,-294 372.41,-275 509.41,-275 509.41,-294"/>
<text text-anchor="middle" x="440.91" y="-282" font-family="Helvetica,sans-Serif" font-size="10.00">game_system/game.cpp</text>
</a>
</g>
</g>
<!-- Node2 -->
<g id="node2" class="node">
<title>Node2</title>
<g id="a_node2"><a xlink:href="game_8h.html" target="_top" xlink:title=" ">
<polygon fill="white" stroke="#666666" points="360.41,-239 307.41,-239 307.41,-220 360.41,-220 360.41,-239"/>
<text text-anchor="middle" x="333.91" y="-227" font-family="Helvetica,sans-Serif" font-size="10.00">game.h</text>
</a>
</g>
</g>
<!-- Node1&#45;&gt;Node2 -->
<g id="edge1" class="edge">
<title>Node1&#45;&gt;Node2</title>
<path fill="none" stroke="#63b8ff" d="M423.72,-274.98C406.66,-266.54 380.28,-253.47 360.52,-243.68"/>
<polygon fill="#63b8ff" stroke="#63b8ff" points="361.93,-240.47 351.42,-239.17 358.82,-246.75 361.93,-240.47"/>
</g>
<!-- Node15 -->
<g id="node15" class="node">
<title>Node15</title>
<g id="a_node15"><a xlink:title=" ">
<polygon fill="#e0e0e0" stroke="#999999" points="428.91,-239 378.91,-239 378.91,-220 428.91,-220 428.91,-239"/>
<text text-anchor="middle" x="403.91" y="-227" font-family="Helvetica,sans-Serif" font-size="10.00">ranges</text>
</a>
</g>
</g>
<!-- Node1&#45;&gt;Node15 -->
<g id="edge25" class="edge">
<title>Node1&#45;&gt;Node15</title>
<path fill="none" stroke="#63b8ff" d="M434.8,-274.75C429.63,-267.34 422.07,-256.5 415.72,-247.41"/>
<polygon fill="#63b8ff" stroke="#63b8ff" points="418.5,-245.29 409.91,-239.09 412.76,-249.29 418.5,-245.29"/>
</g>
<!-- Node16 -->
<g id="node16" class="node">
<title>Node16</title>
<g id="a_node16"><a xlink:title=" ">
<polygon fill="#e0e0e0" stroke="#999999" points="510.91,-239 446.91,-239 446.91,-220 510.91,-220 510.91,-239"/>
<text text-anchor="middle" x="478.91" y="-227" font-family="Helvetica,sans-Serif" font-size="10.00">algorithm</text>
</a>
</g>
</g>
<!-- Node1&#45;&gt;Node16 -->
<g id="edge26" class="edge">
<title>Node1&#45;&gt;Node16</title>
<path fill="none" stroke="#63b8ff" d="M447.19,-274.75C452.5,-267.34 460.27,-256.5 466.79,-247.41"/>
<polygon fill="#63b8ff" stroke="#63b8ff" points="469.77,-249.26 472.75,-239.09 464.08,-245.18 469.77,-249.26"/>
</g>
<!-- Node17 -->
<g id="node17" class="node">
<title>Node17</title>
<g id="a_node17"><a xlink:title=" ">
<polygon fill="#e0e0e0" stroke="#999999" points="578.41,-239 529.41,-239 529.41,-220 578.41,-220 578.41,-239"/>
<text text-anchor="middle" x="553.91" y="-227" font-family="Helvetica,sans-Serif" font-size="10.00">cctype</text>
</a>
</g>
</g>
<!-- Node1&#45;&gt;Node17 -->
<g id="edge27" class="edge">
<title>Node1&#45;&gt;Node17</title>
<path fill="none" stroke="#63b8ff" d="M459.07,-274.98C477.16,-266.5 505.2,-253.35 526.1,-243.54"/>
<polygon fill="#63b8ff" stroke="#63b8ff" points="527.86,-246.59 535.43,-239.17 524.89,-240.25 527.86,-246.59"/>
</g>
<!-- Node3 -->
<g id="node3" class="node">
<title>Node3</title>
<g id="a_node3"><a xlink:href="player_8h.html" target="_top" xlink:title=" ">
<polygon fill="white" stroke="#666666" points="291.41,-184 196.41,-184 196.41,-165 291.41,-165 291.41,-184"/>
<text text-anchor="middle" x="243.91" y="-172" font-family="Helvetica,sans-Serif" font-size="10.00">entities/player.h</text>
</a>
</g>
</g>
<!-- Node2&#45;&gt;Node3 -->
<g id="edge2" class="edge">
<title>Node2&#45;&gt;Node3</title>
<path fill="none" stroke="#63b8ff" d="M319.45,-219.98C305.5,-211.77 284.12,-199.18 267.66,-189.49"/>
<polygon fill="#63b8ff" stroke="#63b8ff" points="269.03,-186.23 258.64,-184.17 265.48,-192.26 269.03,-186.23"/>
</g>
<!-- Node5 -->
<g id="node5" class="node">
<title>Node5</title>
<g id="a_node5"><a xlink:title=" ">
<polygon fill="#e0e0e0" stroke="#999999" points="102.91,-19 58.91,-19 58.91,0 102.91,0 102.91,-19"/>
<text text-anchor="middle" x="80.91" y="-7" font-family="Helvetica,sans-Serif" font-size="10.00">string</text>
</a>
</g>
</g>
<!-- Node2&#45;&gt;Node5 -->
<g id="edge23" class="edge">
<title>Node2&#45;&gt;Node5</title>
<path fill="none" stroke="#63b8ff" d="M307.23,-226.41C239.44,-219.42 61.82,-190.25 2.91,-74 -9.46,-49.58 22.56,-31.26 49.25,-20.72"/>
<polygon fill="#63b8ff" stroke="#63b8ff" points="50.59,-23.96 58.75,-17.2 48.16,-17.4 50.59,-23.96"/>
</g>
<!-- Node8 -->
<g id="node8" class="node">
<title>Node8</title>
<g id="a_node8"><a xlink:title=" ">
<polygon fill="#e0e0e0" stroke="#999999" points="76.91,-74 18.91,-74 18.91,-55 76.91,-55 76.91,-74"/>
<text text-anchor="middle" x="47.91" y="-62" font-family="Helvetica,sans-Serif" font-size="10.00">memory</text>
</a>
</g>
</g>
<!-- Node2&#45;&gt;Node8 -->
<g id="edge22" class="edge">
<title>Node2&#45;&gt;Node8</title>
<path fill="none" stroke="#63b8ff" d="M307.33,-223.78C277.06,-217.67 226.77,-205.18 187.91,-184 136.42,-155.93 86.55,-106.91 62.63,-81.62"/>
<polygon fill="#63b8ff" stroke="#63b8ff" points="64.92,-78.95 55.54,-74.01 59.8,-83.72 64.92,-78.95"/>
</g>
<!-- Node9 -->
<g id="node9" class="node">
<title>Node9</title>
<g id="a_node9"><a xlink:title=" ">
<polygon fill="#e0e0e0" stroke="#999999" points="531.41,-74 458.41,-74 458.41,-55 531.41,-55 531.41,-74"/>
<text text-anchor="middle" x="494.91" y="-62" font-family="Helvetica,sans-Serif" font-size="10.00">string_view</text>
</a>
</g>
</g>
<!-- Node2&#45;&gt;Node9 -->
<g id="edge24" class="edge">
<title>Node2&#45;&gt;Node9</title>
<path fill="none" stroke="#63b8ff" d="M344.42,-219.96C364.61,-203.35 409.82,-165.16 443.91,-129 458.1,-113.95 472.72,-95.38 482.65,-82.21"/>
<polygon fill="#63b8ff" stroke="#63b8ff" points="485.55,-84.18 488.71,-74.07 479.93,-80 485.55,-84.18"/>
</g>
<!-- Node12 -->
<g id="node12" class="node">
<title>Node12</title>
<g id="a_node12"><a xlink:href="iotext_8h.html" target="_top" xlink:title=" ">
<polygon fill="white" stroke="#666666" points="434.91,-129 368.91,-129 368.91,-110 434.91,-110 434.91,-129"/>
<text text-anchor="middle" x="401.91" y="-117" font-family="Helvetica,sans-Serif" font-size="10.00">ui/iotext.h</text>
</a>
</g>
</g>
<!-- Node2&#45;&gt;Node12 -->
<g id="edge16" class="edge">
<title>Node2&#45;&gt;Node12</title>
<path fill="none" stroke="#63b8ff" d="M339.48,-219.66C350.74,-201.77 376.41,-161 391.09,-137.69"/>
<polygon fill="#63b8ff" stroke="#63b8ff" points="394.09,-139.49 396.46,-129.16 388.17,-135.76 394.09,-139.49"/>
</g>
<!-- Node13 -->
<g id="node13" class="node">
<title>Node13</title>
<g id="a_node13"><a xlink:href="text_8h.html" target="_top" xlink:title=" ">
<polygon fill="white" stroke="#666666" points="548.41,-184 491.41,-184 491.41,-165 548.41,-165 548.41,-184"/>
<text text-anchor="middle" x="519.91" y="-172" font-family="Helvetica,sans-Serif" font-size="10.00">ui/text.h</text>
</a>
</g>
</g>
<!-- Node2&#45;&gt;Node13 -->
<g id="edge19" class="edge">
<title>Node2&#45;&gt;Node13</title>
<path fill="none" stroke="#63b8ff" d="M360.56,-220.91C392.24,-211.88 445.35,-196.75 481.47,-186.45"/>
<polygon fill="#63b8ff" stroke="#63b8ff" points="482.51,-189.8 491.17,-183.69 480.6,-183.06 482.51,-189.8"/>
</g>
<!-- Node4 -->
<g id="node4" class="node">
<title>Node4</title>
<g id="a_node4"><a xlink:href="deckEntry_8h.html" target="_top" xlink:title=" ">
<polygon fill="white" stroke="#666666" points="361.41,-74 262.41,-74 262.41,-55 361.41,-55 361.41,-74"/>
<text text-anchor="middle" x="311.91" y="-62" font-family="Helvetica,sans-Serif" font-size="10.00">deck/deckEntry.h</text>
</a>
</g>
</g>
<!-- Node3&#45;&gt;Node4 -->
<g id="edge3" class="edge">
<title>Node3&#45;&gt;Node4</title>
<path fill="none" stroke="#63b8ff" d="M253.09,-164.99C261.85,-156.51 275,-142.78 283.91,-129 293.11,-114.77 300.65,-97.01 305.58,-83.9"/>
<polygon fill="#63b8ff" stroke="#63b8ff" points="308.99,-84.75 309.09,-74.15 302.41,-82.38 308.99,-84.75"/>
</g>
<!-- Node3&#45;&gt;Node5 -->
<g id="edge13" class="edge">
<title>Node3&#45;&gt;Node5</title>
<path fill="none" stroke="#63b8ff" d="M195.96,-168.47C140.39,-159.79 51.19,-136.41 9.91,-74 -4.16,-52.72 24.52,-34.02 49.53,-22.53"/>
<polygon fill="#63b8ff" stroke="#63b8ff" points="51.06,-25.68 58.84,-18.48 48.27,-19.26 51.06,-25.68"/>
</g>
<!-- Node6 -->
<g id="node6" class="node">
<title>Node6</title>
<g id="a_node6"><a xlink:href="deckPlayer_8h.html" target="_top" xlink:title=" ">
<polygon fill="white" stroke="#666666" points="274.41,-129 169.41,-129 169.41,-110 274.41,-110 274.41,-129"/>
<text text-anchor="middle" x="221.91" y="-117" font-family="Helvetica,sans-Serif" font-size="10.00">deck/deckPlayer.h</text>
</a>
</g>
</g>
<!-- Node3&#45;&gt;Node6 -->
<g id="edge5" class="edge">
<title>Node3&#45;&gt;Node6</title>
<path fill="none" stroke="#63b8ff" d="M240.28,-164.75C237.33,-157.65 233.08,-147.4 229.41,-138.56"/>
<polygon fill="#63b8ff" stroke="#63b8ff" points="232.54,-136.98 225.48,-129.09 226.08,-139.67 232.54,-136.98"/>
</g>
<!-- Node3&#45;&gt;Node9 -->
<g id="edge14" class="edge">
<title>Node3&#45;&gt;Node9</title>
<path fill="none" stroke="#63b8ff" d="M257.78,-164.82C279.12,-151.72 321.58,-126.64 359.91,-110 390.62,-96.67 426.7,-84.97 453.83,-76.91"/>
<polygon fill="#63b8ff" stroke="#63b8ff" points="455.14,-80.18 463.76,-74.01 453.18,-73.46 455.14,-80.18"/>
</g>
<!-- Node11 -->
<g id="node11" class="node">
<title>Node11</title>
<g id="a_node11"><a xlink:title=" ">
<polygon fill="#e0e0e0" stroke="#999999" points="142.41,-74 95.41,-74 95.41,-55 142.41,-55 142.41,-74"/>
<text text-anchor="middle" x="118.91" y="-62" font-family="Helvetica,sans-Serif" font-size="10.00">vector</text>
</a>
</g>
</g>
<!-- Node3&#45;&gt;Node11 -->
<g id="edge15" class="edge">
<title>Node3&#45;&gt;Node11</title>
<path fill="none" stroke="#63b8ff" d="M221.24,-164.97C203.4,-157.46 178.67,-145.19 160.91,-129 146.61,-115.96 134.92,-97.06 127.54,-83.27"/>
<polygon fill="#63b8ff" stroke="#63b8ff" points="130.62,-81.6 122.96,-74.29 124.39,-84.78 130.62,-81.6"/>
</g>
<!-- Node4&#45;&gt;Node5 -->
<g id="edge4" class="edge">
<title>Node4&#45;&gt;Node5</title>
<path fill="none" stroke="#63b8ff" d="M274.8,-54.98C229.91,-44.69 155.11,-27.52 112.74,-17.8"/>
<polygon fill="#63b8ff" stroke="#63b8ff" points="113.48,-14.38 102.95,-15.56 111.92,-21.2 113.48,-14.38"/>
</g>
<!-- Node6&#45;&gt;Node4 -->
<g id="edge6" class="edge">
<title>Node6&#45;&gt;Node4</title>
<path fill="none" stroke="#63b8ff" d="M236.37,-109.98C250.33,-101.77 271.71,-89.18 288.16,-79.49"/>
<polygon fill="#63b8ff" stroke="#63b8ff" points="290.35,-82.26 297.19,-74.17 286.8,-76.23 290.35,-82.26"/>
</g>
<!-- Node6&#45;&gt;Node5 -->
<g id="edge9" class="edge">
<title>Node6&#45;&gt;Node5</title>
<path fill="none" stroke="#63b8ff" d="M213.29,-109.75C200.5,-96.98 175.45,-72.83 151.91,-55 137.12,-43.79 119.44,-32.71 105.42,-24.4"/>
<polygon fill="#63b8ff" stroke="#63b8ff" points="106.79,-21.15 96.39,-19.13 103.26,-27.19 106.79,-21.15"/>
</g>
<!-- Node7 -->
<g id="node7" class="node">
<title>Node7</title>
<g id="a_node7"><a xlink:title=" ">
<polygon fill="#e0e0e0" stroke="#999999" points="439.91,-74 379.91,-74 379.91,-55 439.91,-55 439.91,-74"/>
<text text-anchor="middle" x="409.91" y="-62" font-family="Helvetica,sans-Serif" font-size="10.00">iostream</text>
</a>
</g>
</g>
<!-- Node6&#45;&gt;Node7 -->
<g id="edge7" class="edge">
<title>Node6&#45;&gt;Node7</title>
<path fill="none" stroke="#63b8ff" d="M252.12,-109.98C284.05,-100.98 334.57,-86.74 369.82,-76.8"/>
<polygon fill="#63b8ff" stroke="#63b8ff" points="371.11,-80.08 379.78,-73.99 369.21,-73.34 371.11,-80.08"/>
</g>
<!-- Node6&#45;&gt;Node8 -->
<g id="edge8" class="edge">
<title>Node6&#45;&gt;Node8</title>
<path fill="none" stroke="#63b8ff" d="M193.96,-109.98C164.62,-101.05 118.32,-86.94 85.73,-77.02"/>
<polygon fill="#63b8ff" stroke="#63b8ff" points="86.67,-73.65 76.09,-74.08 84.63,-80.34 86.67,-73.65"/>
</g>
<!-- Node6&#45;&gt;Node9 -->
<g id="edge10" class="edge">
<title>Node6&#45;&gt;Node9</title>
<path fill="none" stroke="#63b8ff" d="M265.77,-109.98C315.69,-100.29 396.9,-84.53 448.04,-74.6"/>
<polygon fill="#63b8ff" stroke="#63b8ff" points="449.01,-77.98 458.16,-72.63 447.68,-71.1 449.01,-77.98"/>
</g>
<!-- Node10 -->
<g id="node10" class="node">
<title>Node10</title>
<g id="a_node10"><a xlink:title=" ">
<polygon fill="#e0e0e0" stroke="#999999" points="244.41,-74 199.41,-74 199.41,-55 244.41,-55 244.41,-74"/>
<text text-anchor="middle" x="221.91" y="-62" font-family="Helvetica,sans-Serif" font-size="10.00">utility</text>
</a>
</g>
</g>
<!-- Node6&#45;&gt;Node10 -->
<g id="edge11" class="edge">
<title>Node6&#45;&gt;Node10</title>
<path fill="none" stroke="#63b8ff" d="M221.91,-109.75C221.91,-102.8 221.91,-92.85 221.91,-84.13"/>
<polygon fill="#63b8ff" stroke="#63b8ff" points="225.41,-84.09 221.91,-74.09 218.41,-84.09 225.41,-84.09"/>
</g>
<!-- Node6&#45;&gt;Node11 -->
<g id="edge12" class="edge">
<title>Node6&#45;&gt;Node11</title>
<path fill="none" stroke="#63b8ff" d="M205.36,-109.98C189.02,-101.57 163.78,-88.59 144.78,-78.81"/>
<polygon fill="#63b8ff" stroke="#63b8ff" points="146.26,-75.63 135.76,-74.17 143.05,-81.86 146.26,-75.63"/>
</g>
<!-- Node12&#45;&gt;Node7 -->
<g id="edge18" class="edge">
<title>Node12&#45;&gt;Node7</title>
<path fill="none" stroke="#63b8ff" d="M403.23,-109.75C404.28,-102.8 405.78,-92.85 407.1,-84.13"/>
<polygon fill="#63b8ff" stroke="#63b8ff" points="410.58,-84.5 408.62,-74.09 403.66,-83.45 410.58,-84.5"/>
</g>
<!-- Node12&#45;&gt;Node9 -->
<g id="edge17" class="edge">
<title>Node12&#45;&gt;Node9</title>
<path fill="none" stroke="#63b8ff" d="M416.85,-109.98C431.41,-101.69 453.78,-88.94 470.85,-79.22"/>
<polygon fill="#63b8ff" stroke="#63b8ff" points="472.74,-82.16 479.7,-74.17 469.28,-76.08 472.74,-82.16"/>
</g>
<!-- Node13&#45;&gt;Node9 -->
<g id="edge20" class="edge">
<title>Node13&#45;&gt;Node9</title>
<path fill="none" stroke="#63b8ff" d="M517.87,-164.66C513.8,-147.09 504.62,-107.45 499.18,-83.95"/>
<polygon fill="#63b8ff" stroke="#63b8ff" points="502.58,-83.11 496.92,-74.16 495.76,-84.69 502.58,-83.11"/>
</g>
<!-- Node14 -->
<g id="node14" class="node">
<title>Node14</title>
<g id="a_node14"><a xlink:title=" ">
<polygon fill="#e0e0e0" stroke="#999999" points="638.91,-129 528.91,-129 528.91,-110 638.91,-110 638.91,-129"/>
<text text-anchor="middle" x="583.91" y="-117" font-family="Helvetica,sans-Serif" font-size="10.00">nlohmann/json.hpp</text>
</a>
</g>
</g>
<!-- Node13&#45;&gt;Node14 -->
<g id="edge21" class="edge">
<title>Node13&#45;&gt;Node14</title>
<path fill="none" stroke="#63b8ff" d="M530.19,-164.98C539.75,-157.07 554.19,-145.11 565.7,-135.58"/>
<polygon fill="#63b8ff" stroke="#63b8ff" points="567.97,-138.24 573.44,-129.17 563.51,-132.85 567.97,-138.24"/>
</g>
</g>
</svg>
        <g id="navigator" transform="translate(0 0)" fill="#404254">
                <rect fill="#f2f5e9" fill-opacity="0.5" stroke="#606060" stroke-width=".5" x="0" y="0" width="60" height="60"/>
                <use id="zoomplus" xlink:href="#zoomPlus" x="17" y="9" onmousedown="handleZoom(evt,'in')"/>
                <use id="zoomminus" xlink:href="#zoomMin" x="42" y="9" onmousedown="handleZoom(evt,'out')"/>
                <use id="reset" xlink:href="#resetDef" x="30" y="36" onmousedown="handleReset()"/>
                <g id="arrowUp" xlink:href="#dirArrow" transform="translate(30 24)" onmousedown="handlePan(0,-1)">
                  <use xlink:href="#rim" fill="#404040">
                        <set attributeName="fill" to="#808080" begin="arrowUp.mouseover" end="arrowUp.mouseout"/>
                  </use>
                  <path fill="none" stroke="white" stroke-width="1.5" d="M0,-3.0v7 M-2.5,-0.5L0,-3.0L2.5,-0.5"/>
                </g>
                <g id="arrowRight" xlink:href="#dirArrow" transform="rotate(90) translate(36 -43)" onmousedown="handlePan(1,0)">
                  <use xlink:href="#rim" fill="#404040">
                        <set attributeName="fill" to="#808080" begin="arrowRight.mouseover" end="arrowRight.mouseout"/>
                  </use>
                  <path fill="none" stroke="white" stroke-width="1.5" d="M0,-3.0v7 M-2.5,-0.5L0,-3.0L2.5,-0.5"/>
                </g>
                <g id="arrowDown" xlink:href="#dirArrow" transform="rotate(180) translate(-30 -48)" onmousedown="handlePan(0,1)">
                  <use xlink:href="#rim" fill="#404040">
                        <set attributeName="fill" to="#808080" begin="arrowDown.mouseover" end="arrowDown.mouseout"/>
                  </use>
                  <path fill="none" stroke="white" stroke-width="1.5" d="M0,-3.0v7 M-2.5,-0.5L0,-3.0L2.5,-0.5"/>
                </g>
                <g id="arrowLeft" xlink:href="#dirArrow" transform="rotate(270) translate(-36 17)" onmousedown="handlePan(-1,0)">
                  <use xlink:href="#rim" fill="#404040">
                        <set attributeName="fill" to="#808080" begin="arrowLeft.mouseover" end="arrowLeft.mouseout"/>
                  </use>
                  <path fill="none" stroke="white" stroke-width="1.5" d="M0,-3.0v7 M-2.5,-0.5L0,-3.0L2.5,-0.5"/>
                </g>
        </g>
        <svg viewBox="0 0 15 15" width="100%" height="30px" preserveAspectRatio="xMaxYMin meet">
         <g id="arrow_out" transform="scale(0.3 0.3)">
          <a xlink:href="game_8cpp__incl_org.svg" target="_base">
           <rect id="button" ry="5" rx="5" y="6" x="6" height="38" width="38"
                fill="#f2f5e9" fill-opacity="0.5" stroke="#606060" stroke-width="1.0"/>
           <path id="arrow"
             d="M 11.500037,31.436501 C 11.940474,20.09759 22.043105,11.32322 32.158766,21.979434 L 37.068811,17.246167 C 37.068811,17.246167 37.088388,32 37.088388,32 L 22.160133,31.978069 C 22.160133,31.978069 26.997745,27.140456 26.997745,27.140456 C 18.528582,18.264221 13.291696,25.230495 11.500037,31.436501 z"
             style="fill:#404040;"/>
          </a>
         </g>
        </svg>
</svg>
