<?xml version="1.0" encoding="UTF-8" standalone="no"?>
<!DOCTYPE svg PUBLIC "-//W3C//DTD SVG 1.1//EN"
 "http://www.w3.org/Graphics/SVG/1.1/DTD/svg11.dtd">
<!-- Generated by graphviz version 2.43.0 (0)
 -->
<!-- Title: game_events/gameEvent.h Pages: 1 -->
<svg width="573pt" height="137pt"
 viewBox="0.00 0.00 572.50 137.00" xmlns="http://www.w3.org/2000/svg" xmlns:xlink="http://www.w3.org/1999/xlink">
<g id="graph0" class="graph" transform="scale(1 1) rotate(0) translate(4 133)">
<title>game_events/gameEvent.h</title>
<!-- Node1 -->
<g id="node1" class="node">
<title>Node1</title>
<g id="a_node1"><a xlink:title=" ">
<polygon fill="#999999" stroke="#666666" points="350,-129 200,-129 200,-110 350,-110 350,-129"/>
<text text-anchor="middle" x="275" y="-117" font-family="Helvetica,sans-Serif" font-size="10.00">game_events/gameEvent.h</text>
</a>
</g>
</g>
<!-- Node2 -->
<g id="node2" class="node">
<title>Node2</title>
<g id="a_node2"><a xlink:href="matchEvent_8h.html" target="_top" xlink:title=" ">
<polygon fill="white" stroke="#666666" points="158.5,-74 5.5,-74 5.5,-55 158.5,-55 158.5,-74"/>
<text text-anchor="middle" x="82" y="-62" font-family="Helvetica,sans-Serif" font-size="10.00">game_events/matchEvent.h</text>
</a>
</g>
</g>
<!-- Node1&#45;&gt;Node2 -->
<g id="edge1" class="edge">
<title>Node1&#45;&gt;Node2</title>
<path fill="none" stroke="#63b8ff" d="M234.25,-107.31C198.14,-97.39 146.17,-83.12 113.25,-74.08"/>
<polygon fill="#63b8ff" stroke="#63b8ff" points="233.42,-110.71 243.99,-109.98 235.28,-103.96 233.42,-110.71"/>
</g>
<!-- Node5 -->
<g id="node5" class="node">
<title>Node5</title>
<g id="a_node5"><a xlink:href="matchEventLoader_8cpp.html" target="_top" xlink:title=" ">
<polygon fill="white" stroke="#666666" points="373.5,-74 176.5,-74 176.5,-55 373.5,-55 373.5,-74"/>
<text text-anchor="middle" x="275" y="-62" font-family="Helvetica,sans-Serif" font-size="10.00">game_events/matchEventLoader.cpp</text>
</a>
</g>
</g>
<!-- Node1&#45;&gt;Node5 -->
<g id="edge4" class="edge">
<title>Node1&#45;&gt;Node5</title>
<path fill="none" stroke="#63b8ff" d="M275,-99.66C275,-90.93 275,-80.99 275,-74.09"/>
<polygon fill="#63b8ff" stroke="#63b8ff" points="271.5,-99.75 275,-109.75 278.5,-99.75 271.5,-99.75"/>
</g>
<!-- Node6 -->
<g id="node6" class="node">
<title>Node6</title>
<g id="a_node6"><a xlink:href="eventSequence_8h.html" target="_top" xlink:title=" ">
<polygon fill="white" stroke="#666666" points="564.5,-74 391.5,-74 391.5,-55 564.5,-55 564.5,-74"/>
<text text-anchor="middle" x="478" y="-62" font-family="Helvetica,sans-Serif" font-size="10.00">game_system/eventSequence.h</text>
</a>
</g>
</g>
<!-- Node1&#45;&gt;Node6 -->
<g id="edge5" class="edge">
<title>Node1&#45;&gt;Node6</title>
<path fill="none" stroke="#63b8ff" d="M317.37,-107.44C355.37,-97.52 410.36,-83.16 445.13,-74.08"/>
<polygon fill="#63b8ff" stroke="#63b8ff" points="316.41,-104.07 307.62,-109.98 318.18,-110.84 316.41,-104.07"/>
</g>
<!-- Node3 -->
<g id="node3" class="node">
<title>Node3</title>
<g id="a_node3"><a xlink:href="matchEvent_8cpp.html" target="_top" xlink:title=" ">
<polygon fill="white" stroke="#666666" points="164,-19 0,-19 0,0 164,0 164,-19"/>
<text text-anchor="middle" x="82" y="-7" font-family="Helvetica,sans-Serif" font-size="10.00">game_events/matchEvent.cpp</text>
</a>
</g>
</g>
<!-- Node2&#45;&gt;Node3 -->
<g id="edge2" class="edge">
<title>Node2&#45;&gt;Node3</title>
<path fill="none" stroke="#63b8ff" d="M82,-44.66C82,-35.93 82,-25.99 82,-19.09"/>
<polygon fill="#63b8ff" stroke="#63b8ff" points="78.5,-44.75 82,-54.75 85.5,-44.75 78.5,-44.75"/>
</g>
<!-- Node4 -->
<g id="node4" class="node">
<title>Node4</title>
<g id="a_node4"><a xlink:href="eventSequence_8cpp.html" target="_top" xlink:title=" ">
<polygon fill="white" stroke="#666666" points="468,-19 284,-19 284,0 468,0 468,-19"/>
<text text-anchor="middle" x="376" y="-7" font-family="Helvetica,sans-Serif" font-size="10.00">game_system/eventSequence.cpp</text>
</a>
</g>
</g>
<!-- Node2&#45;&gt;Node4 -->
<g id="edge3" class="edge">
<title>Node2&#45;&gt;Node4</title>
<path fill="none" stroke="#63b8ff" d="M139.2,-53.19C194.32,-43.25 276.75,-28.39 328.39,-19.08"/>
<polygon fill="#63b8ff" stroke="#63b8ff" points="138.46,-49.77 129.24,-54.98 139.7,-56.65 138.46,-49.77"/>
</g>
<!-- Node6&#45;&gt;Node4 -->
<g id="edge6" class="edge">
<title>Node6&#45;&gt;Node4</title>
<path fill="none" stroke="#63b8ff" d="M452.73,-50.37C433.99,-40.63 408.98,-27.64 392.69,-19.17"/>
<polygon fill="#63b8ff" stroke="#63b8ff" points="451.12,-53.48 461.61,-54.98 454.35,-47.27 451.12,-53.48"/>
</g>
</g>
</svg>
