<?xml version="1.0" encoding="UTF-8" standalone="no"?>
<!DOCTYPE svg PUBLIC "-//W3C//DTD SVG 1.1//EN"
 "http://www.w3.org/Graphics/SVG/1.1/DTD/svg11.dtd">
<!-- Generated by graphviz version 2.43.0 (0)
 -->
<!-- Title: game_system/game.h Pages: 1 -->
<svg width="647pt" height="247pt"
 viewBox="0.00 0.00 646.91 247.00" xmlns="http://www.w3.org/2000/svg" xmlns:xlink="http://www.w3.org/1999/xlink">
<g id="graph0" class="graph" transform="scale(1 1) rotate(0) translate(4 243)">
<title>game_system/game.h</title>
<!-- Node1 -->
<g id="node1" class="node">
<title>Node1</title>
<g id="a_node1"><a xlink:title=" ">
<polygon fill="#999999" stroke="#666666" points="396.41,-239 271.41,-239 271.41,-220 396.41,-220 396.41,-239"/>
<text text-anchor="middle" x="333.91" y="-227" font-family="Helvetica,sans-Serif" font-size="10.00">game_system/game.h</text>
</a>
</g>
</g>
<!-- Node2 -->
<g id="node2" class="node">
<title>Node2</title>
<g id="a_node2"><a xlink:href="player_8h.html" target="_top" xlink:title=" ">
<polygon fill="white" stroke="#666666" points="291.41,-184 196.41,-184 196.41,-165 291.41,-165 291.41,-184"/>
<text text-anchor="middle" x="243.91" y="-172" font-family="Helvetica,sans-Serif" font-size="10.00">entities/player.h</text>
</a>
</g>
</g>
<!-- Node1&#45;&gt;Node2 -->
<g id="edge1" class="edge">
<title>Node1&#45;&gt;Node2</title>
<path fill="none" stroke="#63b8ff" d="M319.45,-219.98C305.5,-211.77 284.12,-199.18 267.66,-189.49"/>
<polygon fill="#63b8ff" stroke="#63b8ff" points="269.03,-186.23 258.64,-184.17 265.48,-192.26 269.03,-186.23"/>
</g>
<!-- Node4 -->
<g id="node4" class="node">
<title>Node4</title>
<g id="a_node4"><a xlink:title=" ">
<polygon fill="#e0e0e0" stroke="#999999" points="102.91,-19 58.91,-19 58.91,0 102.91,0 102.91,-19"/>
<text text-anchor="middle" x="80.91" y="-7" font-family="Helvetica,sans-Serif" font-size="10.00">string</text>
</a>
</g>
</g>
<!-- Node1&#45;&gt;Node4 -->
<g id="edge22" class="edge">
<title>Node1&#45;&gt;Node4</title>
<path fill="none" stroke="#63b8ff" d="M271.23,-221.73C190.11,-209.05 53.22,-173.28 2.91,-74 -9.46,-49.58 22.56,-31.26 49.25,-20.72"/>
<polygon fill="#63b8ff" stroke="#63b8ff" points="50.59,-23.96 58.75,-17.2 48.16,-17.4 50.59,-23.96"/>
</g>
<!-- Node7 -->
<g id="node7" class="node">
<title>Node7</title>
<g id="a_node7"><a xlink:title=" ">
<polygon fill="#e0e0e0" stroke="#999999" points="76.91,-74 18.91,-74 18.91,-55 76.91,-55 76.91,-74"/>
<text text-anchor="middle" x="47.91" y="-62" font-family="Helvetica,sans-Serif" font-size="10.00">memory</text>
</a>
</g>
</g>
<!-- Node1&#45;&gt;Node7 -->
<g id="edge21" class="edge">
<title>Node1&#45;&gt;Node7</title>
<path fill="none" stroke="#63b8ff" d="M289.59,-219.93C259.65,-212.98 219.9,-201.44 187.91,-184 136.42,-155.93 86.55,-106.91 62.63,-81.62"/>
<polygon fill="#63b8ff" stroke="#63b8ff" points="64.92,-78.95 55.54,-74.01 59.8,-83.72 64.92,-78.95"/>
</g>
<!-- Node8 -->
<g id="node8" class="node">
<title>Node8</title>
<g id="a_node8"><a xlink:title=" ">
<polygon fill="#e0e0e0" stroke="#999999" points="531.41,-74 458.41,-74 458.41,-55 531.41,-55 531.41,-74"/>
<text text-anchor="middle" x="494.91" y="-62" font-family="Helvetica,sans-Serif" font-size="10.00">string_view</text>
</a>
</g>
</g>
<!-- Node1&#45;&gt;Node8 -->
<g id="edge23" class="edge">
<title>Node1&#45;&gt;Node8</title>
<path fill="none" stroke="#63b8ff" d="M344.42,-219.96C364.61,-203.35 409.82,-165.16 443.91,-129 458.1,-113.95 472.72,-95.38 482.65,-82.21"/>
<polygon fill="#63b8ff" stroke="#63b8ff" points="485.55,-84.18 488.71,-74.07 479.93,-80 485.55,-84.18"/>
</g>
<!-- Node11 -->
<g id="node11" class="node">
<title>Node11</title>
<g id="a_node11"><a xlink:href="iotext_8h.html" target="_top" xlink:title=" ">
<polygon fill="white" stroke="#666666" points="434.91,-129 368.91,-129 368.91,-110 434.91,-110 434.91,-129"/>
<text text-anchor="middle" x="401.91" y="-117" font-family="Helvetica,sans-Serif" font-size="10.00">ui/iotext.h</text>
</a>
</g>
</g>
<!-- Node1&#45;&gt;Node11 -->
<g id="edge15" class="edge">
<title>Node1&#45;&gt;Node11</title>
<path fill="none" stroke="#63b8ff" d="M339.48,-219.66C350.74,-201.77 376.41,-161 391.09,-137.69"/>
<polygon fill="#63b8ff" stroke="#63b8ff" points="394.09,-139.49 396.46,-129.16 388.17,-135.76 394.09,-139.49"/>
</g>
<!-- Node12 -->
<g id="node12" class="node">
<title>Node12</title>
<g id="a_node12"><a xlink:href="text_8h.html" target="_top" xlink:title=" ">
<polygon fill="white" stroke="#666666" points="548.41,-184 491.41,-184 491.41,-165 548.41,-165 548.41,-184"/>
<text text-anchor="middle" x="519.91" y="-172" font-family="Helvetica,sans-Serif" font-size="10.00">ui/text.h</text>
</a>
</g>
</g>
<!-- Node1&#45;&gt;Node12 -->
<g id="edge18" class="edge">
<title>Node1&#45;&gt;Node12</title>
<path fill="none" stroke="#63b8ff" d="M363.8,-219.98C395.76,-210.88 446.56,-196.4 481.48,-186.45"/>
<polygon fill="#63b8ff" stroke="#63b8ff" points="482.67,-189.75 491.32,-183.65 480.75,-183.02 482.67,-189.75"/>
</g>
<!-- Node3 -->
<g id="node3" class="node">
<title>Node3</title>
<g id="a_node3"><a xlink:href="deckEntry_8h.html" target="_top" xlink:title=" ">
<polygon fill="white" stroke="#666666" points="361.41,-74 262.41,-74 262.41,-55 361.41,-55 361.41,-74"/>
<text text-anchor="middle" x="311.91" y="-62" font-family="Helvetica,sans-Serif" font-size="10.00">deck/deckEntry.h</text>
</a>
</g>
</g>
<!-- Node2&#45;&gt;Node3 -->
<g id="edge2" class="edge">
<title>Node2&#45;&gt;Node3</title>
<path fill="none" stroke="#63b8ff" d="M253.09,-164.99C261.85,-156.51 275,-142.78 283.91,-129 293.11,-114.77 300.65,-97.01 305.58,-83.9"/>
<polygon fill="#63b8ff" stroke="#63b8ff" points="308.99,-84.75 309.09,-74.15 302.41,-82.38 308.99,-84.75"/>
</g>
<!-- Node2&#45;&gt;Node4 -->
<g id="edge12" class="edge">
<title>Node2&#45;&gt;Node4</title>
<path fill="none" stroke="#63b8ff" d="M195.96,-168.47C140.39,-159.79 51.19,-136.41 9.91,-74 -4.16,-52.72 24.52,-34.02 49.53,-22.53"/>
<polygon fill="#63b8ff" stroke="#63b8ff" points="51.06,-25.68 58.84,-18.48 48.27,-19.26 51.06,-25.68"/>
</g>
<!-- Node5 -->
<g id="node5" class="node">
<title>Node5</title>
<g id="a_node5"><a xlink:href="deckPlayer_8h.html" target="_top" xlink:title=" ">
<polygon fill="white" stroke="#666666" points="274.41,-129 169.41,-129 169.41,-110 274.41,-110 274.41,-129"/>
<text text-anchor="middle" x="221.91" y="-117" font-family="Helvetica,sans-Serif" font-size="10.00">deck/deckPlayer.h</text>
</a>
</g>
</g>
<!-- Node2&#45;&gt;Node5 -->
<g id="edge4" class="edge">
<title>Node2&#45;&gt;Node5</title>
<path fill="none" stroke="#63b8ff" d="M240.28,-164.75C237.33,-157.65 233.08,-147.4 229.41,-138.56"/>
<polygon fill="#63b8ff" stroke="#63b8ff" points="232.54,-136.98 225.48,-129.09 226.08,-139.67 232.54,-136.98"/>
</g>
<!-- Node2&#45;&gt;Node8 -->
<g id="edge13" class="edge">
<title>Node2&#45;&gt;Node8</title>
<path fill="none" stroke="#63b8ff" d="M257.78,-164.82C279.12,-151.72 321.58,-126.64 359.91,-110 390.62,-96.67 426.7,-84.97 453.83,-76.91"/>
<polygon fill="#63b8ff" stroke="#63b8ff" points="455.14,-80.18 463.76,-74.01 453.18,-73.46 455.14,-80.18"/>
</g>
<!-- Node10 -->
<g id="node10" class="node">
<title>Node10</title>
<g id="a_node10"><a xlink:title=" ">
<polygon fill="#e0e0e0" stroke="#999999" points="142.41,-74 95.41,-74 95.41,-55 142.41,-55 142.41,-74"/>
<text text-anchor="middle" x="118.91" y="-62" font-family="Helvetica,sans-Serif" font-size="10.00">vector</text>
</a>
</g>
</g>
<!-- Node2&#45;&gt;Node10 -->
<g id="edge14" class="edge">
<title>Node2&#45;&gt;Node10</title>
<path fill="none" stroke="#63b8ff" d="M221.24,-164.97C203.4,-157.46 178.67,-145.19 160.91,-129 146.61,-115.96 134.92,-97.06 127.54,-83.27"/>
<polygon fill="#63b8ff" stroke="#63b8ff" points="130.62,-81.6 122.96,-74.29 124.39,-84.78 130.62,-81.6"/>
</g>
<!-- Node3&#45;&gt;Node4 -->
<g id="edge3" class="edge">
<title>Node3&#45;&gt;Node4</title>
<path fill="none" stroke="#63b8ff" d="M274.8,-54.98C229.91,-44.69 155.11,-27.52 112.74,-17.8"/>
<polygon fill="#63b8ff" stroke="#63b8ff" points="113.48,-14.38 102.95,-15.56 111.92,-21.2 113.48,-14.38"/>
</g>
<!-- Node5&#45;&gt;Node3 -->
<g id="edge5" class="edge">
<title>Node5&#45;&gt;Node3</title>
<path fill="none" stroke="#63b8ff" d="M236.37,-109.98C250.33,-101.77 271.71,-89.18 288.16,-79.49"/>
<polygon fill="#63b8ff" stroke="#63b8ff" points="290.35,-82.26 297.19,-74.17 286.8,-76.23 290.35,-82.26"/>
</g>
<!-- Node5&#45;&gt;Node4 -->
<g id="edge8" class="edge">
<title>Node5&#45;&gt;Node4</title>
<path fill="none" stroke="#63b8ff" d="M213.29,-109.75C200.5,-96.98 175.45,-72.83 151.91,-55 137.12,-43.79 119.44,-32.71 105.42,-24.4"/>
<polygon fill="#63b8ff" stroke="#63b8ff" points="106.79,-21.15 96.39,-19.13 103.26,-27.19 106.79,-21.15"/>
</g>
<!-- Node6 -->
<g id="node6" class="node">
<title>Node6</title>
<g id="a_node6"><a xlink:title=" ">
<polygon fill="#e0e0e0" stroke="#999999" points="439.91,-74 379.91,-74 379.91,-55 439.91,-55 439.91,-74"/>
<text text-anchor="middle" x="409.91" y="-62" font-family="Helvetica,sans-Serif" font-size="10.00">iostream</text>
</a>
</g>
</g>
<!-- Node5&#45;&gt;Node6 -->
<g id="edge6" class="edge">
<title>Node5&#45;&gt;Node6</title>
<path fill="none" stroke="#63b8ff" d="M252.12,-109.98C284.05,-100.98 334.57,-86.74 369.82,-76.8"/>
<polygon fill="#63b8ff" stroke="#63b8ff" points="371.11,-80.08 379.78,-73.99 369.21,-73.34 371.11,-80.08"/>
</g>
<!-- Node5&#45;&gt;Node7 -->
<g id="edge7" class="edge">
<title>Node5&#45;&gt;Node7</title>
<path fill="none" stroke="#63b8ff" d="M193.96,-109.98C164.62,-101.05 118.32,-86.94 85.73,-77.02"/>
<polygon fill="#63b8ff" stroke="#63b8ff" points="86.67,-73.65 76.09,-74.08 84.63,-80.34 86.67,-73.65"/>
</g>
<!-- Node5&#45;&gt;Node8 -->
<g id="edge9" class="edge">
<title>Node5&#45;&gt;Node8</title>
<path fill="none" stroke="#63b8ff" d="M265.77,-109.98C315.69,-100.29 396.9,-84.53 448.04,-74.6"/>
<polygon fill="#63b8ff" stroke="#63b8ff" points="449.01,-77.98 458.16,-72.63 447.68,-71.1 449.01,-77.98"/>
</g>
<!-- Node9 -->
<g id="node9" class="node">
<title>Node9</title>
<g id="a_node9"><a xlink:title=" ">
<polygon fill="#e0e0e0" stroke="#999999" points="244.41,-74 199.41,-74 199.41,-55 244.41,-55 244.41,-74"/>
<text text-anchor="middle" x="221.91" y="-62" font-family="Helvetica,sans-Serif" font-size="10.00">utility</text>
</a>
</g>
</g>
<!-- Node5&#45;&gt;Node9 -->
<g id="edge10" class="edge">
<title>Node5&#45;&gt;Node9</title>
<path fill="none" stroke="#63b8ff" d="M221.91,-109.75C221.91,-102.8 221.91,-92.85 221.91,-84.13"/>
<polygon fill="#63b8ff" stroke="#63b8ff" points="225.41,-84.09 221.91,-74.09 218.41,-84.09 225.41,-84.09"/>
</g>
<!-- Node5&#45;&gt;Node10 -->
<g id="edge11" class="edge">
<title>Node5&#45;&gt;Node10</title>
<path fill="none" stroke="#63b8ff" d="M205.36,-109.98C189.02,-101.57 163.78,-88.59 144.78,-78.81"/>
<polygon fill="#63b8ff" stroke="#63b8ff" points="146.26,-75.63 135.76,-74.17 143.05,-81.86 146.26,-75.63"/>
</g>
<!-- Node11&#45;&gt;Node6 -->
<g id="edge17" class="edge">
<title>Node11&#45;&gt;Node6</title>
<path fill="none" stroke="#63b8ff" d="M403.23,-109.75C404.28,-102.8 405.78,-92.85 407.1,-84.13"/>
<polygon fill="#63b8ff" stroke="#63b8ff" points="410.58,-84.5 408.62,-74.09 403.66,-83.45 410.58,-84.5"/>
</g>
<!-- Node11&#45;&gt;Node8 -->
<g id="edge16" class="edge">
<title>Node11&#45;&gt;Node8</title>
<path fill="none" stroke="#63b8ff" d="M416.85,-109.98C431.41,-101.69 453.78,-88.94 470.85,-79.22"/>
<polygon fill="#63b8ff" stroke="#63b8ff" points="472.74,-82.16 479.7,-74.17 469.28,-76.08 472.74,-82.16"/>
</g>
<!-- Node12&#45;&gt;Node8 -->
<g id="edge19" class="edge">
<title>Node12&#45;&gt;Node8</title>
<path fill="none" stroke="#63b8ff" d="M517.87,-164.66C513.8,-147.09 504.62,-107.45 499.18,-83.95"/>
<polygon fill="#63b8ff" stroke="#63b8ff" points="502.58,-83.11 496.92,-74.16 495.76,-84.69 502.58,-83.11"/>
</g>
<!-- Node13 -->
<g id="node13" class="node">
<title>Node13</title>
<g id="a_node13"><a xlink:title=" ">
<polygon fill="#e0e0e0" stroke="#999999" points="638.91,-129 528.91,-129 528.91,-110 638.91,-110 638.91,-129"/>
<text text-anchor="middle" x="583.91" y="-117" font-family="Helvetica,sans-Serif" font-size="10.00">nlohmann/json.hpp</text>
</a>
</g>
</g>
<!-- Node12&#45;&gt;Node13 -->
<g id="edge20" class="edge">
<title>Node12&#45;&gt;Node13</title>
<path fill="none" stroke="#63b8ff" d="M530.19,-164.98C539.75,-157.07 554.19,-145.11 565.7,-135.58"/>
<polygon fill="#63b8ff" stroke="#63b8ff" points="567.97,-138.24 573.44,-129.17 563.51,-132.85 567.97,-138.24"/>
</g>
</g>
</svg>
