<?xml version="1.0" encoding="UTF-8" standalone="no"?>
<!DOCTYPE svg PUBLIC "-//W3C//DTD SVG 1.1//EN"
 "http://www.w3.org/Graphics/SVG/1.1/DTD/svg11.dtd">
<!-- Generated by graphviz version 2.43.0 (0)
 -->
<!-- Title: factories/ICardFactory.h Pages: 1 -->
<svg width="369pt" height="137pt"
 viewBox="0.00 0.00 369.00 137.00" xmlns="http://www.w3.org/2000/svg" xmlns:xlink="http://www.w3.org/1999/xlink">
<g id="graph0" class="graph" transform="scale(1 1) rotate(0) translate(4 133)">
<title>factories/ICardFactory.h</title>
<!-- Node1 -->
<g id="node1" class="node">
<title>Node1</title>
<g id="a_node1"><a xlink:title=" ">
<polygon fill="#999999" stroke="#666666" points="200,-129 69,-129 69,-110 200,-110 200,-129"/>
<text text-anchor="middle" x="134.5" y="-117" font-family="Helvetica,sans-Serif" font-size="10.00">factories/ICardFactory.h</text>
</a>
</g>
</g>
<!-- Node2 -->
<g id="node2" class="node">
<title>Node2</title>
<g id="a_node2"><a xlink:href="deckCombat_8cpp.html" target="_top" xlink:title=" ">
<polygon fill="white" stroke="#666666" points="125,-74 0,-74 0,-55 125,-55 125,-74"/>
<text text-anchor="middle" x="62.5" y="-62" font-family="Helvetica,sans-Serif" font-size="10.00">deck/deckCombat.cpp</text>
</a>
</g>
</g>
<!-- Node1&#45;&gt;Node2 -->
<g id="edge1" class="edge">
<title>Node1&#45;&gt;Node2</title>
<path fill="none" stroke="#63b8ff" d="M114.63,-103.88C101.68,-94.34 85.2,-82.21 74.28,-74.17"/>
<polygon fill="#63b8ff" stroke="#63b8ff" points="112.8,-106.88 122.93,-109.98 116.95,-101.24 112.8,-106.88"/>
</g>
<!-- Node3 -->
<g id="node3" class="node">
<title>Node3</title>
<g id="a_node3"><a xlink:href="cardFactory_8h.html" target="_top" xlink:title=" ">
<polygon fill="white" stroke="#666666" points="269.5,-74 143.5,-74 143.5,-55 269.5,-55 269.5,-74"/>
<text text-anchor="middle" x="206.5" y="-62" font-family="Helvetica,sans-Serif" font-size="10.00">factories/cardFactory.h</text>
</a>
</g>
</g>
<!-- Node1&#45;&gt;Node3 -->
<g id="edge2" class="edge">
<title>Node1&#45;&gt;Node3</title>
<path fill="none" stroke="#63b8ff" d="M154.37,-103.88C167.32,-94.34 183.8,-82.21 194.72,-74.17"/>
<polygon fill="#63b8ff" stroke="#63b8ff" points="152.05,-101.24 146.07,-109.98 156.2,-106.88 152.05,-101.24"/>
</g>
<!-- Node4 -->
<g id="node4" class="node">
<title>Node4</title>
<g id="a_node4"><a xlink:href="cardFactory_8cpp.html" target="_top" xlink:title=" ">
<polygon fill="white" stroke="#666666" points="194,-19 57,-19 57,0 194,0 194,-19"/>
<text text-anchor="middle" x="125.5" y="-7" font-family="Helvetica,sans-Serif" font-size="10.00">factories/cardFactory.cpp</text>
</a>
</g>
</g>
<!-- Node3&#45;&gt;Node4 -->
<g id="edge3" class="edge">
<title>Node3&#45;&gt;Node4</title>
<path fill="none" stroke="#63b8ff" d="M184.99,-49.42C170.29,-39.81 151.28,-27.37 138.75,-19.17"/>
<polygon fill="#63b8ff" stroke="#63b8ff" points="183.2,-52.44 193.49,-54.98 187.03,-46.58 183.2,-52.44"/>
</g>
<!-- Node5 -->
<g id="node5" class="node">
<title>Node5</title>
<g id="a_node5"><a xlink:href="cardmatch_8h.html" target="_top" xlink:title=" ">
<polygon fill="white" stroke="#666666" points="361,-19 212,-19 212,0 361,0 361,-19"/>
<text text-anchor="middle" x="286.5" y="-7" font-family="Helvetica,sans-Serif" font-size="10.00">game_system/cardmatch.h</text>
</a>
</g>
</g>
<!-- Node3&#45;&gt;Node5 -->
<g id="edge4" class="edge">
<title>Node3&#45;&gt;Node5</title>
<path fill="none" stroke="#63b8ff" d="M227.75,-49.42C242.26,-39.81 261.04,-27.37 273.41,-19.17"/>
<polygon fill="#63b8ff" stroke="#63b8ff" points="225.76,-46.54 219.35,-54.98 229.62,-52.38 225.76,-46.54"/>
</g>
</g>
</svg>
