<?xml version="1.0" encoding="UTF-8" standalone="no"?>
<!DOCTYPE svg PUBLIC "-//W3C//DTD SVG 1.1//EN"
 "http://www.w3.org/Graphics/SVG/1.1/DTD/svg11.dtd">
<!-- Generated by graphviz version 2.43.0 (0)
 -->
<!-- Title: ui/iotext.h Pages: 1 -->
<svg width="456pt" height="137pt"
 viewBox="0.00 0.00 456.00 137.00" xmlns="http://www.w3.org/2000/svg" xmlns:xlink="http://www.w3.org/1999/xlink">
<g id="graph0" class="graph" transform="scale(1 1) rotate(0) translate(4 133)">
<title>ui/iotext.h</title>
<!-- Node1 -->
<g id="node1" class="node">
<title>Node1</title>
<g id="a_node1"><a xlink:title=" ">
<polygon fill="#999999" stroke="#666666" points="252.5,-129 186.5,-129 186.5,-110 252.5,-110 252.5,-129"/>
<text text-anchor="middle" x="219.5" y="-117" font-family="Helvetica,sans-Serif" font-size="10.00">ui/iotext.h</text>
</a>
</g>
</g>
<!-- Node2 -->
<g id="node2" class="node">
<title>Node2</title>
<g id="a_node2"><a xlink:href="game_8h.html" target="_top" xlink:title=" ">
<polygon fill="white" stroke="#666666" points="158,-74 33,-74 33,-55 158,-55 158,-74"/>
<text text-anchor="middle" x="95.5" y="-62" font-family="Helvetica,sans-Serif" font-size="10.00">game_system/game.h</text>
</a>
</g>
</g>
<!-- Node1&#45;&gt;Node2 -->
<g id="edge1" class="edge">
<title>Node1&#45;&gt;Node2</title>
<path fill="none" stroke="#63b8ff" d="M190.32,-106.03C167.39,-96.23 136.05,-82.83 115.79,-74.17"/>
<polygon fill="#63b8ff" stroke="#63b8ff" points="189.01,-109.27 199.58,-109.98 191.76,-102.84 189.01,-109.27"/>
</g>
<!-- Node4 -->
<g id="node4" class="node">
<title>Node4</title>
<g id="a_node4"><a xlink:href="main_8cpp.html" target="_top" xlink:title=" ">
<polygon fill="white" stroke="#666666" points="217.5,-19 155.5,-19 155.5,0 217.5,0 217.5,-19"/>
<text text-anchor="middle" x="186.5" y="-7" font-family="Helvetica,sans-Serif" font-size="10.00">main.cpp</text>
</a>
</g>
</g>
<!-- Node1&#45;&gt;Node4 -->
<g id="edge4" class="edge">
<title>Node1&#45;&gt;Node4</title>
<path fill="none" stroke="#63b8ff" d="M213.68,-100.2C211.14,-92.17 208.15,-82.62 205.5,-74 199.49,-54.42 192.65,-31.37 189.04,-19.14"/>
<polygon fill="#63b8ff" stroke="#63b8ff" points="210.42,-101.51 216.78,-109.98 217.09,-99.39 210.42,-101.51"/>
</g>
<!-- Node5 -->
<g id="node5" class="node">
<title>Node5</title>
<g id="a_node5"><a xlink:href="iotext_8cpp.html" target="_top" xlink:title=" ">
<polygon fill="white" stroke="#666666" points="292,-74 215,-74 215,-55 292,-55 292,-74"/>
<text text-anchor="middle" x="253.5" y="-62" font-family="Helvetica,sans-Serif" font-size="10.00">ui/iotext.cpp</text>
</a>
</g>
</g>
<!-- Node1&#45;&gt;Node5 -->
<g id="edge5" class="edge">
<title>Node1&#45;&gt;Node5</title>
<path fill="none" stroke="#63b8ff" d="M230.66,-101.1C236.47,-92.04 243.32,-81.37 247.99,-74.09"/>
<polygon fill="#63b8ff" stroke="#63b8ff" points="227.57,-99.44 225.11,-109.75 233.46,-103.22 227.57,-99.44"/>
</g>
<!-- Node6 -->
<g id="node6" class="node">
<title>Node6</title>
<g id="a_node6"><a xlink:href="terminalMatchView_8h.html" target="_top" xlink:title=" ">
<polygon fill="white" stroke="#666666" points="442.5,-74 310.5,-74 310.5,-55 442.5,-55 442.5,-74"/>
<text text-anchor="middle" x="376.5" y="-62" font-family="Helvetica,sans-Serif" font-size="10.00">ui/terminalMatchView.h</text>
</a>
</g>
</g>
<!-- Node1&#45;&gt;Node6 -->
<g id="edge6" class="edge">
<title>Node1&#45;&gt;Node6</title>
<path fill="none" stroke="#63b8ff" d="M254.55,-106.67C283.82,-96.79 324.87,-82.93 351.08,-74.08"/>
<polygon fill="#63b8ff" stroke="#63b8ff" points="253.08,-103.47 244.72,-109.98 255.32,-110.1 253.08,-103.47"/>
</g>
<!-- Node3 -->
<g id="node3" class="node">
<title>Node3</title>
<g id="a_node3"><a xlink:href="game_8cpp.html" target="_top" xlink:title=" ">
<polygon fill="white" stroke="#666666" points="137,-19 0,-19 0,0 137,0 137,-19"/>
<text text-anchor="middle" x="68.5" y="-7" font-family="Helvetica,sans-Serif" font-size="10.00">game_system/game.cpp</text>
</a>
</g>
</g>
<!-- Node2&#45;&gt;Node3 -->
<g id="edge2" class="edge">
<title>Node2&#45;&gt;Node3</title>
<path fill="none" stroke="#63b8ff" d="M86.49,-45.82C81.91,-36.82 76.55,-26.29 72.88,-19.09"/>
<polygon fill="#63b8ff" stroke="#63b8ff" points="83.38,-47.43 91.04,-54.75 89.62,-44.25 83.38,-47.43"/>
</g>
<!-- Node2&#45;&gt;Node4 -->
<g id="edge3" class="edge">
<title>Node2&#45;&gt;Node4</title>
<path fill="none" stroke="#63b8ff" d="M119.2,-49.7C135.78,-40.04 157.41,-27.44 171.61,-19.17"/>
<polygon fill="#63b8ff" stroke="#63b8ff" points="117,-46.93 110.12,-54.98 120.52,-52.98 117,-46.93"/>
</g>
<!-- Node7 -->
<g id="node7" class="node">
<title>Node7</title>
<g id="a_node7"><a xlink:href="terminalMatchView_8cpp.html" target="_top" xlink:title=" ">
<polygon fill="white" stroke="#666666" points="448,-19 305,-19 305,0 448,0 448,-19"/>
<text text-anchor="middle" x="376.5" y="-7" font-family="Helvetica,sans-Serif" font-size="10.00">ui/terminalMatchView.cpp</text>
</a>
</g>
</g>
<!-- Node6&#45;&gt;Node7 -->
<g id="edge7" class="edge">
<title>Node6&#45;&gt;Node7</title>
<path fill="none" stroke="#63b8ff" d="M376.5,-44.66C376.5,-35.93 376.5,-25.99 376.5,-19.09"/>
<polygon fill="#63b8ff" stroke="#63b8ff" points="373,-44.75 376.5,-54.75 380,-44.75 373,-44.75"/>
</g>
</g>
</svg>
