<?xml version="1.0" encoding="UTF-8" standalone="no"?>
<!DOCTYPE svg PUBLIC "-//W3C//DTD SVG 1.1//EN"
 "http://www.w3.org/Graphics/SVG/1.1/DTD/svg11.dtd">
<!-- Generated by graphviz version 2.43.0 (0)
 -->
<!-- Title: main.cpp Pages: 1 -->
<!--zoomable 302 -->
<svg id="main" version="1.1" xmlns="http://www.w3.org/2000/svg" xmlns:xlink="http://www.w3.org/1999/xlink" xml:space="preserve" onload="init(evt)">
<style type="text/css"><![CDATA[
.edge:hover path { stroke: red; }
.edge:hover polygon { stroke: red; fill: red; }
]]></style>
<script type="text/javascript"><![CDATA[
var edges = document.getElementsByTagName('g');
if (edges && edges.length) {
  for (var i=0;i<edges.length;i++) {
    if (edges[i].id.substr(0,4)=='edge') {
      edges[i].setAttribute('class','edge');
    }
  }
}
]]></script>
        <defs>
                <circle id="rim" cx="0" cy="0" r="7"/>
                <circle id="rim2" cx="0" cy="0" r="3.5"/>
                <g id="zoomPlus">
                        <use xlink:href="#rim" fill="#404040">
                                <set attributeName="fill" to="#808080" begin="zoomplus.mouseover" end="zoomplus.mouseout"/>
                        </use>
                        <path d="M-4,0h8M0,-4v8" fill="none" stroke="white" stroke-width="1.5" pointer-events="none"/>
                </g>
                <g id="zoomMin">
                        <use xlink:href="#rim" fill="#404040">
                                <set attributeName="fill" to="#808080" begin="zoomminus.mouseover" end="zoomminus.mouseout"/>
                        </use>
                        <path d="M-4,0h8" fill="none" stroke="white" stroke-width="1.5" pointer-events="none"/>
                </g>
                <g id="dirArrow">
                        <path fill="none" stroke="white" stroke-width="1.5" d="M0,-3.0v7 M-2.5,-0.5L0,-3.0L2.5,-0.5"/>
                </g>
               <g id="resetDef">
                       <use xlink:href="#rim2" fill="#404040">
                               <set attributeName="fill" to="#808080" begin="reset.mouseover" end="reset.mouseout"/>
                       </use>
               </g>
        </defs>

<script type="text/javascript">
var viewWidth = 649;
var viewHeight = 302;
var sectionId = 'dynsection-0';
</script>
<script xlink:href="svgpan.js"/>
<svg id="graph" class="graph">
<g id="viewport">
<title>main.cpp</title>
<!-- Node1 -->
<g id="node1" class="node">
<title>Node1</title>
<g id="a_node1"><a xlink:title=" ">
<polygon fill="#999999" stroke="#666666" points="66.27,-294 4.27,-294 4.27,-275 66.27,-275 66.27,-294"/>
<text text-anchor="middle" x="35.27" y="-282" font-family="Helvetica,sans-Serif" font-size="10.00">main.cpp</text>
</a>
</g>
</g>
<!-- Node2 -->
<g id="node2" class="node">
<title>Node2</title>
<g id="a_node2"><a xlink:title=" ">
<polygon fill="#e0e0e0" stroke="#999999" points="80.27,-74 20.27,-74 20.27,-55 80.27,-55 80.27,-74"/>
<text text-anchor="middle" x="50.27" y="-62" font-family="Helvetica,sans-Serif" font-size="10.00">iostream</text>
</a>
</g>
</g>
<!-- Node1&#45;&gt;Node2 -->
<g id="edge1" class="edge">
<title>Node1&#45;&gt;Node2</title>
<path fill="none" stroke="#63b8ff" d="M30.86,-274.84C18.26,-248.88 -15.48,-169.77 8.27,-110 12.79,-98.63 21.75,-88.48 30.23,-80.76"/>
<polygon fill="#63b8ff" stroke="#63b8ff" points="32.69,-83.27 38.06,-74.14 28.17,-77.92 32.69,-83.27"/>
</g>
<!-- Node3 -->
<g id="node3" class="node">
<title>Node3</title>
<g id="a_node3"><a xlink:href="game_8h.html" target="_top" xlink:title=" ">
<polygon fill="white" stroke="#666666" points="262.77,-239 137.77,-239 137.77,-220 262.77,-220 262.77,-239"/>
<text text-anchor="middle" x="200.27" y="-227" font-family="Helvetica,sans-Serif" font-size="10.00">game_system/game.h</text>
</a>
</g>
</g>
<!-- Node1&#45;&gt;Node3 -->
<g id="edge2" class="edge">
<title>Node1&#45;&gt;Node3</title>
<path fill="none" stroke="#63b8ff" d="M61.78,-274.98C89.48,-266.09 133.13,-252.07 164.01,-242.15"/>
<polygon fill="#63b8ff" stroke="#63b8ff" points="165.1,-245.47 173.56,-239.08 162.96,-238.81 165.1,-245.47"/>
</g>
<!-- Node12 -->
<g id="node12" class="node">
<title>Node12</title>
<g id="a_node12"><a xlink:href="iotext_8h.html" target="_top" xlink:title=" ">
<polygon fill="white" stroke="#666666" points="83.27,-129 17.27,-129 17.27,-110 83.27,-110 83.27,-129"/>
<text text-anchor="middle" x="50.27" y="-117" font-family="Helvetica,sans-Serif" font-size="10.00">ui/iotext.h</text>
</a>
</g>
</g>
<!-- Node1&#45;&gt;Node12 -->
<g id="edge26" class="edge">
<title>Node1&#45;&gt;Node12</title>
<path fill="none" stroke="#63b8ff" d="M36.08,-274.74C38.42,-249.31 45.25,-175.08 48.51,-139.69"/>
<polygon fill="#63b8ff" stroke="#63b8ff" points="52.03,-139.59 49.46,-129.31 45.06,-138.94 52.03,-139.59"/>
</g>
<!-- Node4 -->
<g id="node4" class="node">
<title>Node4</title>
<g id="a_node4"><a xlink:href="player_8h.html" target="_top" xlink:title=" ">
<polygon fill="white" stroke="#666666" points="521.77,-184 426.77,-184 426.77,-165 521.77,-165 521.77,-184"/>
<text text-anchor="middle" x="474.27" y="-172" font-family="Helvetica,sans-Serif" font-size="10.00">entities/player.h</text>
</a>
</g>
</g>
<!-- Node3&#45;&gt;Node4 -->
<g id="edge3" class="edge">
<title>Node3&#45;&gt;Node4</title>
<path fill="none" stroke="#63b8ff" d="M244.3,-219.98C292.09,-210.74 368.47,-195.97 419.96,-186.01"/>
<polygon fill="#63b8ff" stroke="#63b8ff" points="420.75,-189.42 429.91,-184.08 419.42,-182.54 420.75,-189.42"/>
</g>
<!-- Node6 -->
<g id="node6" class="node">
<title>Node6</title>
<g id="a_node6"><a xlink:title=" ">
<polygon fill="#e0e0e0" stroke="#999999" points="592.27,-19 548.27,-19 548.27,0 592.27,0 592.27,-19"/>
<text text-anchor="middle" x="570.27" y="-7" font-family="Helvetica,sans-Serif" font-size="10.00">string</text>
</a>
</g>
</g>
<!-- Node3&#45;&gt;Node6 -->
<g id="edge24" class="edge">
<title>Node3&#45;&gt;Node6</title>
<path fill="none" stroke="#63b8ff" d="M263.03,-224.27C345.28,-218.01 484.57,-204.74 531.27,-184 593.61,-156.32 616.43,-138.61 638.27,-74 640.98,-66 642.29,-62.43 638.27,-55 630.42,-40.48 615.54,-29.94 601.7,-22.77"/>
<polygon fill="#63b8ff" stroke="#63b8ff" points="602.92,-19.47 592.38,-18.34 599.91,-25.79 602.92,-19.47"/>
</g>
<!-- Node8 -->
<g id="node8" class="node">
<title>Node8</title>
<g id="a_node8"><a xlink:title=" ">
<polygon fill="#e0e0e0" stroke="#999999" points="329.27,-74 271.27,-74 271.27,-55 329.27,-55 329.27,-74"/>
<text text-anchor="middle" x="300.27" y="-62" font-family="Helvetica,sans-Serif" font-size="10.00">memory</text>
</a>
</g>
</g>
<!-- Node3&#45;&gt;Node8 -->
<g id="edge23" class="edge">
<title>Node3&#45;&gt;Node8</title>
<path fill="none" stroke="#63b8ff" d="M213.14,-219.91C234.83,-204.6 278.07,-170.29 296.27,-129 302.48,-114.93 303.12,-97.38 302.41,-84.3"/>
<polygon fill="#63b8ff" stroke="#63b8ff" points="305.88,-83.82 301.55,-74.16 298.91,-84.42 305.88,-83.82"/>
</g>
<!-- Node9 -->
<g id="node9" class="node">
<title>Node9</title>
<g id="a_node9"><a xlink:title=" ">
<polygon fill="#e0e0e0" stroke="#999999" points="185.77,-74 112.77,-74 112.77,-55 185.77,-55 185.77,-74"/>
<text text-anchor="middle" x="149.27" y="-62" font-family="Helvetica,sans-Serif" font-size="10.00">string_view</text>
</a>
</g>
</g>
<!-- Node3&#45;&gt;Node9 -->
<g id="edge25" class="edge">
<title>Node3&#45;&gt;Node9</title>
<path fill="none" stroke="#63b8ff" d="M189.94,-219.78C180.97,-211.55 168.48,-198.36 162.27,-184 148.09,-151.19 147.13,-108.7 148,-84.54"/>
<polygon fill="#63b8ff" stroke="#63b8ff" points="151.51,-84.44 148.53,-74.27 144.52,-84.08 151.51,-84.44"/>
</g>
<!-- Node3&#45;&gt;Node12 -->
<g id="edge17" class="edge">
<title>Node3&#45;&gt;Node12</title>
<path fill="none" stroke="#63b8ff" d="M169.62,-219.96C147.85,-212.84 118.79,-201.07 97.27,-184 81.36,-171.38 68.14,-152.11 59.81,-138.11"/>
<polygon fill="#63b8ff" stroke="#63b8ff" points="62.63,-135.99 54.64,-129.02 56.54,-139.44 62.63,-135.99"/>
</g>
<!-- Node13 -->
<g id="node13" class="node">
<title>Node13</title>
<g id="a_node13"><a xlink:href="text_8h.html" target="_top" xlink:title=" ">
<polygon fill="white" stroke="#666666" points="228.77,-184 171.77,-184 171.77,-165 228.77,-165 228.77,-184"/>
<text text-anchor="middle" x="200.27" y="-172" font-family="Helvetica,sans-Serif" font-size="10.00">ui/text.h</text>
</a>
</g>
</g>
<!-- Node3&#45;&gt;Node13 -->
<g id="edge20" class="edge">
<title>Node3&#45;&gt;Node13</title>
<path fill="none" stroke="#63b8ff" d="M200.27,-219.75C200.27,-212.8 200.27,-202.85 200.27,-194.13"/>
<polygon fill="#63b8ff" stroke="#63b8ff" points="203.77,-194.09 200.27,-184.09 196.77,-194.09 203.77,-194.09"/>
</g>
<!-- Node5 -->
<g id="node5" class="node">
<title>Node5</title>
<g id="a_node5"><a xlink:href="deckEntry_8h.html" target="_top" xlink:title=" ">
<polygon fill="white" stroke="#666666" points="548.77,-74 449.77,-74 449.77,-55 548.77,-55 548.77,-74"/>
<text text-anchor="middle" x="499.27" y="-62" font-family="Helvetica,sans-Serif" font-size="10.00">deck/deckEntry.h</text>
</a>
</g>
</g>
<!-- Node4&#45;&gt;Node5 -->
<g id="edge4" class="edge">
<title>Node4&#45;&gt;Node5</title>
<path fill="none" stroke="#63b8ff" d="M479.98,-164.72C485.28,-156.04 492.86,-142.18 496.27,-129 500.04,-114.44 500.65,-97.39 500.39,-84.62"/>
<polygon fill="#63b8ff" stroke="#63b8ff" points="503.87,-84.15 499.98,-74.3 496.88,-84.43 503.87,-84.15"/>
</g>
<!-- Node4&#45;&gt;Node6 -->
<g id="edge14" class="edge">
<title>Node4&#45;&gt;Node6</title>
<path fill="none" stroke="#63b8ff" d="M500.89,-164.91C536.5,-151.78 598.08,-122.95 623.27,-74 633.1,-54.91 613.36,-36.45 595.25,-24.41"/>
<polygon fill="#63b8ff" stroke="#63b8ff" points="596.96,-21.35 586.62,-19.03 593.26,-27.29 596.96,-21.35"/>
</g>
<!-- Node7 -->
<g id="node7" class="node">
<title>Node7</title>
<g id="a_node7"><a xlink:href="deckPlayer_8h.html" target="_top" xlink:title=" ">
<polygon fill="white" stroke="#666666" points="486.77,-129 381.77,-129 381.77,-110 486.77,-110 486.77,-129"/>
<text text-anchor="middle" x="434.27" y="-117" font-family="Helvetica,sans-Serif" font-size="10.00">deck/deckPlayer.h</text>
</a>
</g>
</g>
<!-- Node4&#45;&gt;Node7 -->
<g id="edge6" class="edge">
<title>Node4&#45;&gt;Node7</title>
<path fill="none" stroke="#63b8ff" d="M467.67,-164.75C462.02,-157.26 453.73,-146.28 446.82,-137.13"/>
<polygon fill="#63b8ff" stroke="#63b8ff" points="449.57,-134.96 440.76,-129.09 443.99,-139.18 449.57,-134.96"/>
</g>
<!-- Node4&#45;&gt;Node9 -->
<g id="edge15" class="edge">
<title>Node4&#45;&gt;Node9</title>
<path fill="none" stroke="#63b8ff" d="M451.35,-164.92C417.58,-152.37 352.36,-128.48 296.27,-110 260.14,-98.09 218.62,-85.64 188.95,-76.94"/>
<polygon fill="#63b8ff" stroke="#63b8ff" points="189.55,-73.47 178.97,-74.03 187.59,-80.19 189.55,-73.47"/>
</g>
<!-- Node11 -->
<g id="node11" class="node">
<title>Node11</title>
<g id="a_node11"><a xlink:title=" ">
<polygon fill="#e0e0e0" stroke="#999999" points="613.77,-74 566.77,-74 566.77,-55 613.77,-55 613.77,-74"/>
<text text-anchor="middle" x="590.27" y="-62" font-family="Helvetica,sans-Serif" font-size="10.00">vector</text>
</a>
</g>
</g>
<!-- Node4&#45;&gt;Node11 -->
<g id="edge16" class="edge">
<title>Node4&#45;&gt;Node11</title>
<path fill="none" stroke="#63b8ff" d="M483.77,-164.66C503.41,-146.38 548.73,-104.18 573.45,-81.17"/>
<polygon fill="#63b8ff" stroke="#63b8ff" points="576.04,-83.53 580.97,-74.16 571.27,-78.41 576.04,-83.53"/>
</g>
<!-- Node5&#45;&gt;Node6 -->
<g id="edge5" class="edge">
<title>Node5&#45;&gt;Node6</title>
<path fill="none" stroke="#63b8ff" d="M510.68,-54.98C521.38,-47 537.61,-34.88 550.44,-25.31"/>
<polygon fill="#63b8ff" stroke="#63b8ff" points="552.74,-27.96 558.66,-19.17 548.55,-22.35 552.74,-27.96"/>
</g>
<!-- Node7&#45;&gt;Node2 -->
<g id="edge8" class="edge">
<title>Node7&#45;&gt;Node2</title>
<path fill="none" stroke="#63b8ff" d="M381.76,-111.86C316.43,-103.5 201.51,-88.48 103.27,-74 99.12,-73.39 94.8,-72.73 90.48,-72.06"/>
<polygon fill="#63b8ff" stroke="#63b8ff" points="90.95,-68.59 80.52,-70.49 89.85,-75.5 90.95,-68.59"/>
</g>
<!-- Node7&#45;&gt;Node5 -->
<g id="edge7" class="edge">
<title>Node7&#45;&gt;Node5</title>
<path fill="none" stroke="#63b8ff" d="M444.72,-109.98C454.42,-102.07 469.09,-90.11 480.77,-80.58"/>
<polygon fill="#63b8ff" stroke="#63b8ff" points="483.1,-83.2 488.64,-74.17 478.68,-77.78 483.1,-83.2"/>
</g>
<!-- Node7&#45;&gt;Node6 -->
<g id="edge10" class="edge">
<title>Node7&#45;&gt;Node6</title>
<path fill="none" stroke="#63b8ff" d="M432.53,-109.6C430.45,-96.21 428.67,-70.77 441.27,-55 464.56,-25.86 507.99,-15.73 537.99,-12.25"/>
<polygon fill="#63b8ff" stroke="#63b8ff" points="538.37,-15.73 547.98,-11.28 537.69,-8.76 538.37,-15.73"/>
</g>
<!-- Node7&#45;&gt;Node8 -->
<g id="edge9" class="edge">
<title>Node7&#45;&gt;Node8</title>
<path fill="none" stroke="#63b8ff" d="M412.74,-109.98C390.8,-101.3 356.53,-87.75 331.59,-77.88"/>
<polygon fill="#63b8ff" stroke="#63b8ff" points="332.78,-74.59 322.19,-74.17 330.21,-81.1 332.78,-74.59"/>
</g>
<!-- Node7&#45;&gt;Node9 -->
<g id="edge11" class="edge">
<title>Node7&#45;&gt;Node9</title>
<path fill="none" stroke="#63b8ff" d="M388.48,-109.98C335.56,-100.14 248.95,-84.04 195.74,-74.14"/>
<polygon fill="#63b8ff" stroke="#63b8ff" points="196.36,-70.7 185.89,-72.31 195.08,-77.58 196.36,-70.7"/>
</g>
<!-- Node10 -->
<g id="node10" class="node">
<title>Node10</title>
<g id="a_node10"><a xlink:title=" ">
<polygon fill="#e0e0e0" stroke="#999999" points="392.77,-74 347.77,-74 347.77,-55 392.77,-55 392.77,-74"/>
<text text-anchor="middle" x="370.27" y="-62" font-family="Helvetica,sans-Serif" font-size="10.00">utility</text>
</a>
</g>
</g>
<!-- Node7&#45;&gt;Node10 -->
<g id="edge12" class="edge">
<title>Node7&#45;&gt;Node10</title>
<path fill="none" stroke="#63b8ff" d="M423.99,-109.98C414.44,-102.07 399.99,-90.11 388.49,-80.58"/>
<polygon fill="#63b8ff" stroke="#63b8ff" points="390.68,-77.85 380.74,-74.17 386.21,-83.24 390.68,-77.85"/>
</g>
<!-- Node7&#45;&gt;Node11 -->
<g id="edge13" class="edge">
<title>Node7&#45;&gt;Node11</title>
<path fill="none" stroke="#63b8ff" d="M459.34,-109.98C485.76,-101.01 527.54,-86.81 556.78,-76.88"/>
<polygon fill="#63b8ff" stroke="#63b8ff" points="558.21,-80.09 566.55,-73.56 555.96,-73.46 558.21,-80.09"/>
</g>
<!-- Node12&#45;&gt;Node2 -->
<g id="edge19" class="edge">
<title>Node12&#45;&gt;Node2</title>
<path fill="none" stroke="#63b8ff" d="M50.27,-109.75C50.27,-102.8 50.27,-92.85 50.27,-84.13"/>
<polygon fill="#63b8ff" stroke="#63b8ff" points="53.77,-84.09 50.27,-74.09 46.77,-84.09 53.77,-84.09"/>
</g>
<!-- Node12&#45;&gt;Node9 -->
<g id="edge18" class="edge">
<title>Node12&#45;&gt;Node9</title>
<path fill="none" stroke="#63b8ff" d="M66.18,-109.98C81.82,-101.61 105.93,-88.7 124.16,-78.95"/>
<polygon fill="#63b8ff" stroke="#63b8ff" points="125.91,-81.98 133.08,-74.17 122.61,-75.8 125.91,-81.98"/>
</g>
<!-- Node13&#45;&gt;Node9 -->
<g id="edge21" class="edge">
<title>Node13&#45;&gt;Node9</title>
<path fill="none" stroke="#63b8ff" d="M192.71,-164.86C185.54,-156.28 174.91,-142.49 168.27,-129 161.2,-114.62 156.2,-97.1 153.11,-84.11"/>
<polygon fill="#63b8ff" stroke="#63b8ff" points="156.47,-83.06 150.89,-74.05 149.63,-84.57 156.47,-83.06"/>
</g>
<!-- Node14 -->
<g id="node14" class="node">
<title>Node14</title>
<g id="a_node14"><a xlink:title=" ">
<polygon fill="#e0e0e0" stroke="#999999" points="287.27,-129 177.27,-129 177.27,-110 287.27,-110 287.27,-129"/>
<text text-anchor="middle" x="232.27" y="-117" font-family="Helvetica,sans-Serif" font-size="10.00">nlohmann/json.hpp</text>
</a>
</g>
</g>
<!-- Node13&#45;&gt;Node14 -->
<g id="edge22" class="edge">
<title>Node13&#45;&gt;Node14</title>
<path fill="none" stroke="#63b8ff" d="M205.56,-164.75C209.98,-157.42 216.44,-146.73 221.89,-137.7"/>
<polygon fill="#63b8ff" stroke="#63b8ff" points="224.91,-139.46 227.09,-129.09 218.92,-135.84 224.91,-139.46"/>
</g>
</g>
</svg>
        <g id="navigator" transform="translate(0 0)" fill="#404254">
                <rect fill="#f2f5e9" fill-opacity="0.5" stroke="#606060" stroke-width=".5" x="0" y="0" width="60" height="60"/>
                <use id="zoomplus" xlink:href="#zoomPlus" x="17" y="9" onmousedown="handleZoom(evt,'in')"/>
                <use id="zoomminus" xlink:href="#zoomMin" x="42" y="9" onmousedown="handleZoom(evt,'out')"/>
                <use id="reset" xlink:href="#resetDef" x="30" y="36" onmousedown="handleReset()"/>
                <g id="arrowUp" xlink:href="#dirArrow" transform="translate(30 24)" onmousedown="handlePan(0,-1)">
                  <use xlink:href="#rim" fill="#404040">
                        <set attributeName="fill" to="#808080" begin="arrowUp.mouseover" end="arrowUp.mouseout"/>
                  </use>
                  <path fill="none" stroke="white" stroke-width="1.5" d="M0,-3.0v7 M-2.5,-0.5L0,-3.0L2.5,-0.5"/>
                </g>
                <g id="arrowRight" xlink:href="#dirArrow" transform="rotate(90) translate(36 -43)" onmousedown="handlePan(1,0)">
                  <use xlink:href="#rim" fill="#404040">
                        <set attributeName="fill" to="#808080" begin="arrowRight.mouseover" end="arrowRight.mouseout"/>
                  </use>
                  <path fill="none" stroke="white" stroke-width="1.5" d="M0,-3.0v7 M-2.5,-0.5L0,-3.0L2.5,-0.5"/>
                </g>
                <g id="arrowDown" xlink:href="#dirArrow" transform="rotate(180) translate(-30 -48)" onmousedown="handlePan(0,1)">
                  <use xlink:href="#rim" fill="#404040">
                        <set attributeName="fill" to="#808080" begin="arrowDown.mouseover" end="arrowDown.mouseout"/>
                  </use>
                  <path fill="none" stroke="white" stroke-width="1.5" d="M0,-3.0v7 M-2.5,-0.5L0,-3.0L2.5,-0.5"/>
                </g>
                <g id="arrowLeft" xlink:href="#dirArrow" transform="rotate(270) translate(-36 17)" onmousedown="handlePan(-1,0)">
                  <use xlink:href="#rim" fill="#404040">
                        <set attributeName="fill" to="#808080" begin="arrowLeft.mouseover" end="arrowLeft.mouseout"/>
                  </use>
                  <path fill="none" stroke="white" stroke-width="1.5" d="M0,-3.0v7 M-2.5,-0.5L0,-3.0L2.5,-0.5"/>
                </g>
        </g>
        <svg viewBox="0 0 15 15" width="100%" height="30px" preserveAspectRatio="xMaxYMin meet">
         <g id="arrow_out" transform="scale(0.3 0.3)">
          <a xlink:href="main_8cpp__incl_org.svg" target="_base">
           <rect id="button" ry="5" rx="5" y="6" x="6" height="38" width="38"
                fill="#f2f5e9" fill-opacity="0.5" stroke="#606060" stroke-width="1.0"/>
           <path id="arrow"
             d="M 11.500037,31.436501 C 11.940474,20.09759 22.043105,11.32322 32.158766,21.979434 L 37.068811,17.246167 C 37.068811,17.246167 37.088388,32 37.088388,32 L 22.160133,31.978069 C 22.160133,31.978069 26.997745,27.140456 26.997745,27.140456 C 18.528582,18.264221 13.291696,25.230495 11.500037,31.436501 z"
             style="fill:#404040;"/>
          </a>
         </g>
        </svg>
</svg>
