<?xml version="1.0" encoding="UTF-8" standalone="no"?>
<!DOCTYPE svg PUBLIC "-//W3C//DTD SVG 1.1//EN"
 "http://www.w3.org/Graphics/SVG/1.1/DTD/svg11.dtd">
<!-- Generated by graphviz version 2.43.0 (0)
 -->
<!-- Title: main.cpp Pages: 1 -->
<!--zoomable 302 -->
<svg id="main" version="1.1" xmlns="http://www.w3.org/2000/svg" xmlns:xlink="http://www.w3.org/1999/xlink" xml:space="preserve" onload="init(evt)">
<style type="text/css"><![CDATA[
.edge:hover path { stroke: red; }
.edge:hover polygon { stroke: red; fill: red; }
]]></style>
<script type="text/javascript"><![CDATA[
var edges = document.getElementsByTagName('g');
if (edges && edges.length) {
  for (var i=0;i<edges.length;i++) {
    if (edges[i].id.substr(0,4)=='edge') {
      edges[i].setAttribute('class','edge');
    }
  }
}
]]></script>
        <defs>
                <circle id="rim" cx="0" cy="0" r="7"/>
                <circle id="rim2" cx="0" cy="0" r="3.5"/>
                <g id="zoomPlus">
                        <use xlink:href="#rim" fill="#404040">
                                <set attributeName="fill" to="#808080" begin="zoomplus.mouseover" end="zoomplus.mouseout"/>
                        </use>
                        <path d="M-4,0h8M0,-4v8" fill="none" stroke="white" stroke-width="1.5" pointer-events="none"/>
                </g>
                <g id="zoomMin">
                        <use xlink:href="#rim" fill="#404040">
                                <set attributeName="fill" to="#808080" begin="zoomminus.mouseover" end="zoomminus.mouseout"/>
                        </use>
                        <path d="M-4,0h8" fill="none" stroke="white" stroke-width="1.5" pointer-events="none"/>
                </g>
                <g id="dirArrow">
                        <path fill="none" stroke="white" stroke-width="1.5" d="M0,-3.0v7 M-2.5,-0.5L0,-3.0L2.5,-0.5"/>
                </g>
               <g id="resetDef">
                       <use xlink:href="#rim2" fill="#404040">
                               <set attributeName="fill" to="#808080" begin="reset.mouseover" end="reset.mouseout"/>
                       </use>
               </g>
        </defs>

<script type="text/javascript">
var viewWidth = 778;
var viewHeight = 302;
var sectionId = 'dynsection-0';
</script>
<script xlink:href="svgpan.js"/>
<svg id="graph" class="graph">
<g id="viewport">
<title>main.cpp</title>
<!-- Node1 -->
<g id="node1" class="node">
<title>Node1</title>
<g id="a_node1"><a xlink:title=" ">
<polygon fill="#999999" stroke="#666666" points="122,-294 60,-294 60,-275 122,-275 122,-294"/>
<text text-anchor="middle" x="91" y="-282" font-family="Helvetica,sans-Serif" font-size="10.00">main.cpp</text>
</a>
</g>
</g>
<!-- Node2 -->
<g id="node2" class="node">
<title>Node2</title>
<g id="a_node2"><a xlink:title=" ">
<polygon fill="#e0e0e0" stroke="#999999" points="60,-74 0,-74 0,-55 60,-55 60,-74"/>
<text text-anchor="middle" x="30" y="-62" font-family="Helvetica,sans-Serif" font-size="10.00">iostream</text>
</a>
</g>
</g>
<!-- Node1&#45;&gt;Node2 -->
<g id="edge1" class="edge">
<title>Node1&#45;&gt;Node2</title>
<path fill="none" stroke="#63b8ff" d="M86.57,-274.97C77.98,-258.08 59.02,-218.97 49,-184 39.13,-149.58 33.95,-107.96 31.61,-84.33"/>
<polygon fill="#63b8ff" stroke="#63b8ff" points="35.09,-83.92 30.68,-74.28 28.12,-84.56 35.09,-83.92"/>
</g>
<!-- Node3 -->
<g id="node3" class="node">
<title>Node3</title>
<g id="a_node3"><a xlink:href="game_8h.html" target="_top" xlink:title=" ">
<polygon fill="white" stroke="#666666" points="479.5,-239 354.5,-239 354.5,-220 479.5,-220 479.5,-239"/>
<text text-anchor="middle" x="417" y="-227" font-family="Helvetica,sans-Serif" font-size="10.00">game_system/game.h</text>
</a>
</g>
</g>
<!-- Node1&#45;&gt;Node3 -->
<g id="edge2" class="edge">
<title>Node1&#45;&gt;Node3</title>
<path fill="none" stroke="#63b8ff" d="M122.26,-278.42C175.57,-269.75 285.05,-251.95 354.54,-240.65"/>
<polygon fill="#63b8ff" stroke="#63b8ff" points="355.18,-244.1 364.49,-239.04 354.06,-237.19 355.18,-244.1"/>
</g>
<!-- Node13 -->
<g id="node13" class="node">
<title>Node13</title>
<g id="a_node13"><a xlink:href="iotext_8h.html" target="_top" xlink:title=" ">
<polygon fill="white" stroke="#666666" points="124,-184 58,-184 58,-165 124,-165 124,-184"/>
<text text-anchor="middle" x="91" y="-172" font-family="Helvetica,sans-Serif" font-size="10.00">ui/iotext.h</text>
</a>
</g>
</g>
<!-- Node1&#45;&gt;Node13 -->
<g id="edge29" class="edge">
<title>Node1&#45;&gt;Node13</title>
<path fill="none" stroke="#63b8ff" d="M91,-274.66C91,-257.17 91,-217.8 91,-194.27"/>
<polygon fill="#63b8ff" stroke="#63b8ff" points="94.5,-194.16 91,-184.16 87.5,-194.16 94.5,-194.16"/>
</g>
<!-- Node4 -->
<g id="node4" class="node">
<title>Node4</title>
<g id="a_node4"><a xlink:href="player_8h.html" target="_top" xlink:title=" ">
<polygon fill="white" stroke="#666666" points="464.5,-184 369.5,-184 369.5,-165 464.5,-165 464.5,-184"/>
<text text-anchor="middle" x="417" y="-172" font-family="Helvetica,sans-Serif" font-size="10.00">entities/player.h</text>
</a>
</g>
</g>
<!-- Node3&#45;&gt;Node4 -->
<g id="edge3" class="edge">
<title>Node3&#45;&gt;Node4</title>
<path fill="none" stroke="#63b8ff" d="M417,-219.75C417,-212.8 417,-202.85 417,-194.13"/>
<polygon fill="#63b8ff" stroke="#63b8ff" points="420.5,-194.09 417,-184.09 413.5,-194.09 420.5,-194.09"/>
</g>
<!-- Node6 -->
<g id="node6" class="node">
<title>Node6</title>
<g id="a_node6"><a xlink:title=" ">
<polygon fill="#e0e0e0" stroke="#999999" points="471,-19 427,-19 427,0 471,0 471,-19"/>
<text text-anchor="middle" x="449" y="-7" font-family="Helvetica,sans-Serif" font-size="10.00">string</text>
</a>
</g>
</g>
<!-- Node3&#45;&gt;Node6 -->
<g id="edge27" class="edge">
<title>Node3&#45;&gt;Node6</title>
<path fill="none" stroke="#63b8ff" d="M479.53,-224.1C532.02,-218.88 608.28,-207.68 671,-184 714.86,-167.44 738.07,-169.89 761,-129 820.57,-22.78 572.02,-11.1 481.13,-10.32"/>
<polygon fill="#63b8ff" stroke="#63b8ff" points="481.13,-6.82 471.11,-10.28 481.09,-13.82 481.13,-6.82"/>
</g>
<!-- Node8 -->
<g id="node8" class="node">
<title>Node8</title>
<g id="a_node8"><a xlink:title=" ">
<polygon fill="#e0e0e0" stroke="#999999" points="136,-74 78,-74 78,-55 136,-55 136,-74"/>
<text text-anchor="middle" x="107" y="-62" font-family="Helvetica,sans-Serif" font-size="10.00">memory</text>
</a>
</g>
</g>
<!-- Node3&#45;&gt;Node8 -->
<g id="edge26" class="edge">
<title>Node3&#45;&gt;Node8</title>
<path fill="none" stroke="#63b8ff" d="M385.34,-219.95C336.76,-205.92 242.09,-174.9 172,-129 152.11,-115.97 133.11,-96.28 120.85,-82.28"/>
<polygon fill="#63b8ff" stroke="#63b8ff" points="123.29,-79.74 114.13,-74.41 117.96,-84.29 123.29,-79.74"/>
</g>
<!-- Node9 -->
<g id="node9" class="node">
<title>Node9</title>
<g id="a_node9"><a xlink:title=" ">
<polygon fill="#e0e0e0" stroke="#999999" points="550.5,-74 477.5,-74 477.5,-55 550.5,-55 550.5,-74"/>
<text text-anchor="middle" x="514" y="-62" font-family="Helvetica,sans-Serif" font-size="10.00">string_view</text>
</a>
</g>
</g>
<!-- Node3&#45;&gt;Node9 -->
<g id="edge28" class="edge">
<title>Node3&#45;&gt;Node9</title>
<path fill="none" stroke="#63b8ff" d="M431.62,-219.77C444.13,-211.72 461.97,-198.81 474,-184 498.1,-154.33 507.97,-109.43 511.78,-84.28"/>
<polygon fill="#63b8ff" stroke="#63b8ff" points="515.27,-84.61 513.14,-74.23 508.33,-83.68 515.27,-84.61"/>
</g>
<!-- Node3&#45;&gt;Node13 -->
<g id="edge20" class="edge">
<title>Node3&#45;&gt;Node13</title>
<path fill="none" stroke="#63b8ff" d="M361.36,-219.97C305.01,-211.26 215.37,-197.16 138,-184 136.74,-183.78 135.45,-183.56 134.16,-183.34"/>
<polygon fill="#63b8ff" stroke="#63b8ff" points="134.56,-179.86 124.11,-181.58 133.35,-186.75 134.56,-179.86"/>
</g>
<!-- Node14 -->
<g id="node14" class="node">
<title>Node14</title>
<g id="a_node14"><a xlink:href="text_8h.html" target="_top" xlink:title=" ">
<polygon fill="white" stroke="#666666" points="661.5,-184 604.5,-184 604.5,-165 661.5,-165 661.5,-184"/>
<text text-anchor="middle" x="633" y="-172" font-family="Helvetica,sans-Serif" font-size="10.00">ui/text.h</text>
</a>
</g>
</g>
<!-- Node3&#45;&gt;Node14 -->
<g id="edge23" class="edge">
<title>Node3&#45;&gt;Node14</title>
<path fill="none" stroke="#63b8ff" d="M451.7,-219.98C490.73,-210.41 553.94,-194.9 594.47,-184.95"/>
<polygon fill="#63b8ff" stroke="#63b8ff" points="595.38,-188.34 604.26,-182.55 593.71,-181.54 595.38,-188.34"/>
</g>
<!-- Node5 -->
<g id="node5" class="node">
<title>Node5</title>
<g id="a_node5"><a xlink:href="deckEntry_8h.html" target="_top" xlink:title=" ">
<polygon fill="white" stroke="#666666" points="420.5,-74 321.5,-74 321.5,-55 420.5,-55 420.5,-74"/>
<text text-anchor="middle" x="371" y="-62" font-family="Helvetica,sans-Serif" font-size="10.00">deck/deckEntry.h</text>
</a>
</g>
</g>
<!-- Node4&#45;&gt;Node5 -->
<g id="edge4" class="edge">
<title>Node4&#45;&gt;Node5</title>
<path fill="none" stroke="#63b8ff" d="M413.24,-164.66C405.72,-147.01 388.71,-107.09 378.72,-83.64"/>
<polygon fill="#63b8ff" stroke="#63b8ff" points="381.83,-81.99 374.69,-74.16 375.39,-84.73 381.83,-81.99"/>
</g>
<!-- Node4&#45;&gt;Node6 -->
<g id="edge17" class="edge">
<title>Node4&#45;&gt;Node6</title>
<path fill="none" stroke="#63b8ff" d="M443.35,-164.95C478.46,-151.86 538.65,-123.09 560,-74 575.3,-38.83 519.4,-22.21 481.43,-15.12"/>
<polygon fill="#63b8ff" stroke="#63b8ff" points="481.72,-11.62 471.27,-13.36 480.53,-18.52 481.72,-11.62"/>
</g>
<!-- Node7 -->
<g id="node7" class="node">
<title>Node7</title>
<g id="a_node7"><a xlink:href="deckPlayer_8h.html" target="_top" xlink:title=" ">
<polygon fill="white" stroke="#666666" points="285.5,-129 180.5,-129 180.5,-110 285.5,-110 285.5,-129"/>
<text text-anchor="middle" x="233" y="-117" font-family="Helvetica,sans-Serif" font-size="10.00">deck/deckPlayer.h</text>
</a>
</g>
</g>
<!-- Node4&#45;&gt;Node7 -->
<g id="edge6" class="edge">
<title>Node4&#45;&gt;Node7</title>
<path fill="none" stroke="#63b8ff" d="M387.44,-164.98C356.28,-156.01 307.03,-141.82 272.54,-131.89"/>
<polygon fill="#63b8ff" stroke="#63b8ff" points="273.37,-128.49 262.79,-129.08 271.43,-135.21 273.37,-128.49"/>
</g>
<!-- Node4&#45;&gt;Node9 -->
<g id="edge18" class="edge">
<title>Node4&#45;&gt;Node9</title>
<path fill="none" stroke="#63b8ff" d="M433.66,-164.93C447.66,-157.07 467.51,-144.35 481,-129 492.78,-115.6 501.73,-97.25 507.32,-83.72"/>
<polygon fill="#63b8ff" stroke="#63b8ff" points="510.7,-84.68 511.06,-74.09 504.18,-82.14 510.7,-84.68"/>
</g>
<!-- Node11 -->
<g id="node11" class="node">
<title>Node11</title>
<g id="a_node11"><a xlink:title=" ">
<polygon fill="#e0e0e0" stroke="#999999" points="303.5,-74 256.5,-74 256.5,-55 303.5,-55 303.5,-74"/>
<text text-anchor="middle" x="280" y="-62" font-family="Helvetica,sans-Serif" font-size="10.00">vector</text>
</a>
</g>
</g>
<!-- Node4&#45;&gt;Node11 -->
<g id="edge19" class="edge">
<title>Node4&#45;&gt;Node11</title>
<path fill="none" stroke="#63b8ff" d="M405.79,-164.66C382.39,-146.22 328.13,-103.45 299.12,-80.57"/>
<polygon fill="#63b8ff" stroke="#63b8ff" points="301,-77.6 290.98,-74.16 296.67,-83.1 301,-77.6"/>
</g>
<!-- Node12 -->
<g id="node12" class="node">
<title>Node12</title>
<g id="a_node12"><a xlink:href="entity_8h.html" target="_top" xlink:title=" ">
<polygon fill="white" stroke="#666666" points="471.5,-129 418.5,-129 418.5,-110 471.5,-110 471.5,-129"/>
<text text-anchor="middle" x="445" y="-117" font-family="Helvetica,sans-Serif" font-size="10.00">entity.h</text>
</a>
</g>
</g>
<!-- Node4&#45;&gt;Node12 -->
<g id="edge14" class="edge">
<title>Node4&#45;&gt;Node12</title>
<path fill="none" stroke="#63b8ff" d="M421.62,-164.75C425.46,-157.49 431.02,-146.95 435.76,-137.98"/>
<polygon fill="#63b8ff" stroke="#63b8ff" points="438.89,-139.57 440.46,-129.09 432.7,-136.3 438.89,-139.57"/>
</g>
<!-- Node5&#45;&gt;Node6 -->
<g id="edge5" class="edge">
<title>Node5&#45;&gt;Node6</title>
<path fill="none" stroke="#63b8ff" d="M383.53,-54.98C395.4,-46.92 413.46,-34.65 427.61,-25.03"/>
<polygon fill="#63b8ff" stroke="#63b8ff" points="429.94,-27.69 436.24,-19.17 426,-21.9 429.94,-27.69"/>
</g>
<!-- Node7&#45;&gt;Node2 -->
<g id="edge8" class="edge">
<title>Node7&#45;&gt;Node2</title>
<path fill="none" stroke="#63b8ff" d="M200.38,-109.98C164.89,-100.72 108.12,-85.89 69.97,-75.93"/>
<polygon fill="#63b8ff" stroke="#63b8ff" points="70.77,-72.53 60.21,-73.39 69.01,-79.3 70.77,-72.53"/>
</g>
<!-- Node7&#45;&gt;Node5 -->
<g id="edge7" class="edge">
<title>Node7&#45;&gt;Node5</title>
<path fill="none" stroke="#63b8ff" d="M255.17,-109.98C277.77,-101.3 313.06,-87.75 338.75,-77.88"/>
<polygon fill="#63b8ff" stroke="#63b8ff" points="340.34,-81.02 348.42,-74.17 337.83,-74.49 340.34,-81.02"/>
</g>
<!-- Node7&#45;&gt;Node6 -->
<g id="edge10" class="edge">
<title>Node7&#45;&gt;Node6</title>
<path fill="none" stroke="#63b8ff" d="M232.37,-109.73C231.9,-96.04 233.16,-69.63 248,-55 271.58,-31.75 366.35,-18.84 416.89,-13.49"/>
<polygon fill="#63b8ff" stroke="#63b8ff" points="417.36,-16.96 426.96,-12.46 416.65,-9.99 417.36,-16.96"/>
</g>
<!-- Node7&#45;&gt;Node8 -->
<g id="edge9" class="edge">
<title>Node7&#45;&gt;Node8</title>
<path fill="none" stroke="#63b8ff" d="M212.76,-109.98C192.3,-101.38 160.47,-87.99 137.07,-78.15"/>
<polygon fill="#63b8ff" stroke="#63b8ff" points="138.19,-74.82 127.61,-74.17 135.47,-81.27 138.19,-74.82"/>
</g>
<!-- Node7&#45;&gt;Node9 -->
<g id="edge11" class="edge">
<title>Node7&#45;&gt;Node9</title>
<path fill="none" stroke="#63b8ff" d="M278.15,-109.98C330.07,-100.19 414.89,-84.19 467.41,-74.29"/>
<polygon fill="#63b8ff" stroke="#63b8ff" points="468.29,-77.68 477.47,-72.39 466.99,-70.8 468.29,-77.68"/>
</g>
<!-- Node10 -->
<g id="node10" class="node">
<title>Node10</title>
<g id="a_node10"><a xlink:title=" ">
<polygon fill="#e0e0e0" stroke="#999999" points="199.5,-74 154.5,-74 154.5,-55 199.5,-55 199.5,-74"/>
<text text-anchor="middle" x="177" y="-62" font-family="Helvetica,sans-Serif" font-size="10.00">utility</text>
</a>
</g>
</g>
<!-- Node7&#45;&gt;Node10 -->
<g id="edge12" class="edge">
<title>Node7&#45;&gt;Node10</title>
<path fill="none" stroke="#63b8ff" d="M224,-109.98C215.81,-102.23 203.49,-90.58 193.53,-81.14"/>
<polygon fill="#63b8ff" stroke="#63b8ff" points="195.83,-78.5 186.16,-74.17 191.02,-83.59 195.83,-78.5"/>
</g>
<!-- Node7&#45;&gt;Node11 -->
<g id="edge13" class="edge">
<title>Node7&#45;&gt;Node11</title>
<path fill="none" stroke="#63b8ff" d="M240.76,-109.75C247.47,-102.18 257.34,-91.05 265.51,-81.84"/>
<polygon fill="#63b8ff" stroke="#63b8ff" points="268.37,-83.89 272.38,-74.09 263.13,-79.25 268.37,-83.89"/>
</g>
<!-- Node12&#45;&gt;Node6 -->
<g id="edge15" class="edge">
<title>Node12&#45;&gt;Node6</title>
<path fill="none" stroke="#63b8ff" d="M445.33,-109.66C445.98,-92.17 447.43,-52.8 448.3,-29.27"/>
<polygon fill="#63b8ff" stroke="#63b8ff" points="451.81,-29.28 448.68,-19.16 444.81,-29.02 451.81,-29.28"/>
</g>
<!-- Node12&#45;&gt;Node9 -->
<g id="edge16" class="edge">
<title>Node12&#45;&gt;Node9</title>
<path fill="none" stroke="#63b8ff" d="M456.09,-109.98C466.49,-102 482.26,-89.88 494.72,-80.31"/>
<polygon fill="#63b8ff" stroke="#63b8ff" points="496.91,-83.04 502.71,-74.17 492.65,-77.49 496.91,-83.04"/>
</g>
<!-- Node13&#45;&gt;Node2 -->
<g id="edge22" class="edge">
<title>Node13&#45;&gt;Node2</title>
<path fill="none" stroke="#63b8ff" d="M86.01,-164.66C75.95,-146.85 53.08,-106.37 39.89,-83.01"/>
<polygon fill="#63b8ff" stroke="#63b8ff" points="42.86,-81.14 34.89,-74.16 36.76,-84.59 42.86,-81.14"/>
</g>
<!-- Node13&#45;&gt;Node9 -->
<g id="edge21" class="edge">
<title>Node13&#45;&gt;Node9</title>
<path fill="none" stroke="#63b8ff" d="M124.02,-167.01C164.49,-158.89 235.09,-144.2 295,-129 359.47,-112.64 433.66,-90.4 477.03,-77.05"/>
<polygon fill="#63b8ff" stroke="#63b8ff" points="478.33,-80.31 486.85,-74.01 476.26,-73.62 478.33,-80.31"/>
</g>
<!-- Node14&#45;&gt;Node9 -->
<g id="edge24" class="edge">
<title>Node14&#45;&gt;Node9</title>
<path fill="none" stroke="#63b8ff" d="M628.73,-164.8C621.96,-151.67 607.69,-126.56 590,-110 576.27,-97.14 558.18,-86.36 543.09,-78.63"/>
<polygon fill="#63b8ff" stroke="#63b8ff" points="544.21,-75.28 533.69,-74.01 541.12,-81.56 544.21,-75.28"/>
</g>
<!-- Node15 -->
<g id="node15" class="node">
<title>Node15</title>
<g id="a_node15"><a xlink:title=" ">
<polygon fill="#e0e0e0" stroke="#999999" points="752,-129 642,-129 642,-110 752,-110 752,-129"/>
<text text-anchor="middle" x="697" y="-117" font-family="Helvetica,sans-Serif" font-size="10.00">nlohmann/json.hpp</text>
</a>
</g>
</g>
<!-- Node14&#45;&gt;Node15 -->
<g id="edge25" class="edge">
<title>Node14&#45;&gt;Node15</title>
<path fill="none" stroke="#63b8ff" d="M643.28,-164.98C652.84,-157.07 667.28,-145.11 678.78,-135.58"/>
<polygon fill="#63b8ff" stroke="#63b8ff" points="681.06,-138.24 686.53,-129.17 676.6,-132.85 681.06,-138.24"/>
</g>
</g>
</svg>
        <g id="navigator" transform="translate(0 0)" fill="#404254">
                <rect fill="#f2f5e9" fill-opacity="0.5" stroke="#606060" stroke-width=".5" x="0" y="0" width="60" height="60"/>
                <use id="zoomplus" xlink:href="#zoomPlus" x="17" y="9" onmousedown="handleZoom(evt,'in')"/>
                <use id="zoomminus" xlink:href="#zoomMin" x="42" y="9" onmousedown="handleZoom(evt,'out')"/>
                <use id="reset" xlink:href="#resetDef" x="30" y="36" onmousedown="handleReset()"/>
                <g id="arrowUp" xlink:href="#dirArrow" transform="translate(30 24)" onmousedown="handlePan(0,-1)">
                  <use xlink:href="#rim" fill="#404040">
                        <set attributeName="fill" to="#808080" begin="arrowUp.mouseover" end="arrowUp.mouseout"/>
                  </use>
                  <path fill="none" stroke="white" stroke-width="1.5" d="M0,-3.0v7 M-2.5,-0.5L0,-3.0L2.5,-0.5"/>
                </g>
                <g id="arrowRight" xlink:href="#dirArrow" transform="rotate(90) translate(36 -43)" onmousedown="handlePan(1,0)">
                  <use xlink:href="#rim" fill="#404040">
                        <set attributeName="fill" to="#808080" begin="arrowRight.mouseover" end="arrowRight.mouseout"/>
                  </use>
                  <path fill="none" stroke="white" stroke-width="1.5" d="M0,-3.0v7 M-2.5,-0.5L0,-3.0L2.5,-0.5"/>
                </g>
                <g id="arrowDown" xlink:href="#dirArrow" transform="rotate(180) translate(-30 -48)" onmousedown="handlePan(0,1)">
                  <use xlink:href="#rim" fill="#404040">
                        <set attributeName="fill" to="#808080" begin="arrowDown.mouseover" end="arrowDown.mouseout"/>
                  </use>
                  <path fill="none" stroke="white" stroke-width="1.5" d="M0,-3.0v7 M-2.5,-0.5L0,-3.0L2.5,-0.5"/>
                </g>
                <g id="arrowLeft" xlink:href="#dirArrow" transform="rotate(270) translate(-36 17)" onmousedown="handlePan(-1,0)">
                  <use xlink:href="#rim" fill="#404040">
                        <set attributeName="fill" to="#808080" begin="arrowLeft.mouseover" end="arrowLeft.mouseout"/>
                  </use>
                  <path fill="none" stroke="white" stroke-width="1.5" d="M0,-3.0v7 M-2.5,-0.5L0,-3.0L2.5,-0.5"/>
                </g>
        </g>
        <svg viewBox="0 0 15 15" width="100%" height="30px" preserveAspectRatio="xMaxYMin meet">
         <g id="arrow_out" transform="scale(0.3 0.3)">
          <a xlink:href="main_8cpp__incl_org.svg" target="_base">
           <rect id="button" ry="5" rx="5" y="6" x="6" height="38" width="38"
                fill="#f2f5e9" fill-opacity="0.5" stroke="#606060" stroke-width="1.0"/>
           <path id="arrow"
             d="M 11.500037,31.436501 C 11.940474,20.09759 22.043105,11.32322 32.158766,21.979434 L 37.068811,17.246167 C 37.068811,17.246167 37.088388,32 37.088388,32 L 22.160133,31.978069 C 22.160133,31.978069 26.997745,27.140456 26.997745,27.140456 C 18.528582,18.264221 13.291696,25.230495 11.500037,31.436501 z"
             style="fill:#404040;"/>
          </a>
         </g>
        </svg>
</svg>
