<?xml version="1.0" encoding="UTF-8" standalone="no"?>
<!DOCTYPE svg PUBLIC "-//W3C//DTD SVG 1.1//EN"
 "http://www.w3.org/Graphics/SVG/1.1/DTD/svg11.dtd">
<!-- Generated by graphviz version 2.43.0 (0)
 -->
<!-- Title: entities/player.cpp Pages: 1 -->
<svg width="557pt" height="247pt"
 viewBox="0.00 0.00 557.17 247.00" xmlns="http://www.w3.org/2000/svg" xmlns:xlink="http://www.w3.org/1999/xlink">
<g id="graph0" class="graph" transform="scale(1 1) rotate(0) translate(4 243)">
<title>entities/player.cpp</title>
<!-- Node1 -->
<g id="node1" class="node">
<title>Node1</title>
<g id="a_node1"><a xlink:title=" ">
<polygon fill="#999999" stroke="#666666" points="470,-239 363,-239 363,-220 470,-220 470,-239"/>
<text text-anchor="middle" x="416.5" y="-227" font-family="Helvetica,sans-Serif" font-size="10.00">entities/player.cpp</text>
</a>
</g>
</g>
<!-- Node2 -->
<g id="node2" class="node">
<title>Node2</title>
<g id="a_node2"><a xlink:href="player_8h.html" target="_top" xlink:title=" ">
<polygon fill="white" stroke="#666666" points="444.5,-184 388.5,-184 388.5,-165 444.5,-165 444.5,-184"/>
<text text-anchor="middle" x="416.5" y="-172" font-family="Helvetica,sans-Serif" font-size="10.00">player.h</text>
</a>
</g>
</g>
<!-- Node1&#45;&gt;Node2 -->
<g id="edge1" class="edge">
<title>Node1&#45;&gt;Node2</title>
<path fill="none" stroke="#63b8ff" d="M416.5,-219.75C416.5,-212.8 416.5,-202.85 416.5,-194.13"/>
<polygon fill="#63b8ff" stroke="#63b8ff" points="420,-194.09 416.5,-184.09 413,-194.09 420,-194.09"/>
</g>
<!-- Node3 -->
<g id="node3" class="node">
<title>Node3</title>
<g id="a_node3"><a xlink:href="deckEntry_8h.html" target="_top" xlink:title=" ">
<polygon fill="white" stroke="#666666" points="99,-74 0,-74 0,-55 99,-55 99,-74"/>
<text text-anchor="middle" x="49.5" y="-62" font-family="Helvetica,sans-Serif" font-size="10.00">deck/deckEntry.h</text>
</a>
</g>
</g>
<!-- Node2&#45;&gt;Node3 -->
<g id="edge2" class="edge">
<title>Node2&#45;&gt;Node3</title>
<path fill="none" stroke="#63b8ff" d="M388.44,-168.28C350.28,-160.92 280.08,-146.42 221.5,-129 170.82,-113.93 113.5,-91.68 79.48,-77.92"/>
<polygon fill="#63b8ff" stroke="#63b8ff" points="80.7,-74.63 70.12,-74.1 78.06,-81.12 80.7,-74.63"/>
</g>
<!-- Node4 -->
<g id="node4" class="node">
<title>Node4</title>
<g id="a_node4"><a xlink:title=" ">
<polygon fill="#e0e0e0" stroke="#999999" points="355.5,-19 311.5,-19 311.5,0 355.5,0 355.5,-19"/>
<text text-anchor="middle" x="333.5" y="-7" font-family="Helvetica,sans-Serif" font-size="10.00">string</text>
</a>
</g>
</g>
<!-- Node2&#45;&gt;Node4 -->
<g id="edge15" class="edge">
<title>Node2&#45;&gt;Node4</title>
<path fill="none" stroke="#63b8ff" d="M444.84,-169.67C470.1,-164.72 506.13,-153.59 526.5,-129 547.71,-103.4 558.36,-80.9 537.5,-55 516.28,-28.65 417.57,-17.07 365.64,-12.73"/>
<polygon fill="#63b8ff" stroke="#63b8ff" points="365.86,-9.23 355.61,-11.93 365.3,-16.21 365.86,-9.23"/>
</g>
<!-- Node5 -->
<g id="node5" class="node">
<title>Node5</title>
<g id="a_node5"><a xlink:href="deckPlayer_8h.html" target="_top" xlink:title=" ">
<polygon fill="white" stroke="#666666" points="336,-129 231,-129 231,-110 336,-110 336,-129"/>
<text text-anchor="middle" x="283.5" y="-117" font-family="Helvetica,sans-Serif" font-size="10.00">deck/deckPlayer.h</text>
</a>
</g>
</g>
<!-- Node2&#45;&gt;Node5 -->
<g id="edge4" class="edge">
<title>Node2&#45;&gt;Node5</title>
<path fill="none" stroke="#63b8ff" d="M395.13,-164.98C373.35,-156.3 339.34,-142.75 314.58,-132.88"/>
<polygon fill="#63b8ff" stroke="#63b8ff" points="315.84,-129.62 305.26,-129.17 313.25,-136.12 315.84,-129.62"/>
</g>
<!-- Node8 -->
<g id="node8" class="node">
<title>Node8</title>
<g id="a_node8"><a xlink:title=" ">
<polygon fill="#e0e0e0" stroke="#999999" points="512,-74 439,-74 439,-55 512,-55 512,-74"/>
<text text-anchor="middle" x="475.5" y="-62" font-family="Helvetica,sans-Serif" font-size="10.00">string_view</text>
</a>
</g>
</g>
<!-- Node2&#45;&gt;Node8 -->
<g id="edge16" class="edge">
<title>Node2&#45;&gt;Node8</title>
<path fill="none" stroke="#63b8ff" d="M421.33,-164.66C431.06,-146.85 453.18,-106.37 465.94,-83.01"/>
<polygon fill="#63b8ff" stroke="#63b8ff" points="469.05,-84.61 470.77,-74.16 462.9,-81.26 469.05,-84.61"/>
</g>
<!-- Node10 -->
<g id="node10" class="node">
<title>Node10</title>
<g id="a_node10"><a xlink:title=" ">
<polygon fill="#e0e0e0" stroke="#999999" points="421,-74 374,-74 374,-55 421,-55 421,-74"/>
<text text-anchor="middle" x="397.5" y="-62" font-family="Helvetica,sans-Serif" font-size="10.00">vector</text>
</a>
</g>
</g>
<!-- Node2&#45;&gt;Node10 -->
<g id="edge17" class="edge">
<title>Node2&#45;&gt;Node10</title>
<path fill="none" stroke="#63b8ff" d="M414.95,-164.66C411.87,-147.17 404.94,-107.8 400.8,-84.27"/>
<polygon fill="#63b8ff" stroke="#63b8ff" points="404.2,-83.4 399.02,-74.16 397.31,-84.61 404.2,-83.4"/>
</g>
<!-- Node11 -->
<g id="node11" class="node">
<title>Node11</title>
<g id="a_node11"><a xlink:href="entity_8h.html" target="_top" xlink:title=" ">
<polygon fill="white" stroke="#666666" points="517,-129 464,-129 464,-110 517,-110 517,-129"/>
<text text-anchor="middle" x="490.5" y="-117" font-family="Helvetica,sans-Serif" font-size="10.00">entity.h</text>
</a>
</g>
</g>
<!-- Node2&#45;&gt;Node11 -->
<g id="edge12" class="edge">
<title>Node2&#45;&gt;Node11</title>
<path fill="none" stroke="#63b8ff" d="M428.39,-164.98C439.65,-156.92 456.79,-144.65 470.21,-135.03"/>
<polygon fill="#63b8ff" stroke="#63b8ff" points="472.3,-137.84 478.39,-129.17 468.23,-132.15 472.3,-137.84"/>
</g>
<!-- Node3&#45;&gt;Node4 -->
<g id="edge3" class="edge">
<title>Node3&#45;&gt;Node4</title>
<path fill="none" stroke="#63b8ff" d="M95.13,-54.98C152.81,-44.22 250.64,-25.96 301.17,-16.53"/>
<polygon fill="#63b8ff" stroke="#63b8ff" points="302.01,-19.94 311.2,-14.66 300.72,-13.06 302.01,-19.94"/>
</g>
<!-- Node5&#45;&gt;Node3 -->
<g id="edge5" class="edge">
<title>Node5&#45;&gt;Node3</title>
<path fill="none" stroke="#63b8ff" d="M245.9,-109.98C205.51,-100.84 141.22,-86.27 97.27,-76.32"/>
<polygon fill="#63b8ff" stroke="#63b8ff" points="97.92,-72.88 87.39,-74.08 96.37,-79.7 97.92,-72.88"/>
</g>
<!-- Node5&#45;&gt;Node4 -->
<g id="edge8" class="edge">
<title>Node5&#45;&gt;Node4</title>
<path fill="none" stroke="#63b8ff" d="M230.55,-112.51C181.65,-104.8 120.26,-88.22 146.5,-55 165.44,-31.03 252.92,-18.59 301.23,-13.44"/>
<polygon fill="#63b8ff" stroke="#63b8ff" points="301.59,-16.92 311.18,-12.42 300.88,-9.96 301.59,-16.92"/>
</g>
<!-- Node6 -->
<g id="node6" class="node">
<title>Node6</title>
<g id="a_node6"><a xlink:title=" ">
<polygon fill="#e0e0e0" stroke="#999999" points="279.5,-74 219.5,-74 219.5,-55 279.5,-55 279.5,-74"/>
<text text-anchor="middle" x="249.5" y="-62" font-family="Helvetica,sans-Serif" font-size="10.00">iostream</text>
</a>
</g>
</g>
<!-- Node5&#45;&gt;Node6 -->
<g id="edge6" class="edge">
<title>Node5&#45;&gt;Node6</title>
<path fill="none" stroke="#63b8ff" d="M277.89,-109.75C273.18,-102.42 266.33,-91.73 260.53,-82.7"/>
<polygon fill="#63b8ff" stroke="#63b8ff" points="263.36,-80.62 255.01,-74.09 257.46,-84.4 263.36,-80.62"/>
</g>
<!-- Node7 -->
<g id="node7" class="node">
<title>Node7</title>
<g id="a_node7"><a xlink:title=" ">
<polygon fill="#e0e0e0" stroke="#999999" points="355.5,-74 297.5,-74 297.5,-55 355.5,-55 355.5,-74"/>
<text text-anchor="middle" x="326.5" y="-62" font-family="Helvetica,sans-Serif" font-size="10.00">memory</text>
</a>
</g>
</g>
<!-- Node5&#45;&gt;Node7 -->
<g id="edge7" class="edge">
<title>Node5&#45;&gt;Node7</title>
<path fill="none" stroke="#63b8ff" d="M290.6,-109.75C296.67,-102.26 305.59,-91.28 313.01,-82.13"/>
<polygon fill="#63b8ff" stroke="#63b8ff" points="315.95,-84.06 319.53,-74.09 310.51,-79.65 315.95,-84.06"/>
</g>
<!-- Node5&#45;&gt;Node8 -->
<g id="edge9" class="edge">
<title>Node5&#45;&gt;Node8</title>
<path fill="none" stroke="#63b8ff" d="M314.35,-109.98C347,-100.97 398.7,-86.7 434.7,-76.76"/>
<polygon fill="#63b8ff" stroke="#63b8ff" points="435.7,-80.12 444.41,-74.08 433.84,-73.37 435.7,-80.12"/>
</g>
<!-- Node9 -->
<g id="node9" class="node">
<title>Node9</title>
<g id="a_node9"><a xlink:title=" ">
<polygon fill="#e0e0e0" stroke="#999999" points="201,-74 156,-74 156,-55 201,-55 201,-74"/>
<text text-anchor="middle" x="178.5" y="-62" font-family="Helvetica,sans-Serif" font-size="10.00">utility</text>
</a>
</g>
</g>
<!-- Node5&#45;&gt;Node9 -->
<g id="edge10" class="edge">
<title>Node5&#45;&gt;Node9</title>
<path fill="none" stroke="#63b8ff" d="M266.63,-109.98C249.89,-101.54 224,-88.47 204.61,-78.68"/>
<polygon fill="#63b8ff" stroke="#63b8ff" points="206.18,-75.55 195.68,-74.17 203.03,-81.8 206.18,-75.55"/>
</g>
<!-- Node5&#45;&gt;Node10 -->
<g id="edge11" class="edge">
<title>Node5&#45;&gt;Node10</title>
<path fill="none" stroke="#63b8ff" d="M301.82,-109.98C320.16,-101.46 348.61,-88.23 369.73,-78.41"/>
<polygon fill="#63b8ff" stroke="#63b8ff" points="371.26,-81.56 378.85,-74.17 368.31,-75.21 371.26,-81.56"/>
</g>
<!-- Node11&#45;&gt;Node4 -->
<g id="edge13" class="edge">
<title>Node11&#45;&gt;Node4</title>
<path fill="none" stroke="#63b8ff" d="M500.7,-109.61C514.31,-96.68 535.2,-72.32 521.5,-55 502.41,-30.86 414.06,-18.46 365.57,-13.38"/>
<polygon fill="#63b8ff" stroke="#63b8ff" points="365.89,-9.89 355.59,-12.37 365.19,-16.85 365.89,-9.89"/>
</g>
<!-- Node11&#45;&gt;Node8 -->
<g id="edge14" class="edge">
<title>Node11&#45;&gt;Node8</title>
<path fill="none" stroke="#63b8ff" d="M488.02,-109.75C486.04,-102.72 483.18,-92.62 480.69,-83.84"/>
<polygon fill="#63b8ff" stroke="#63b8ff" points="484.02,-82.76 477.93,-74.09 477.29,-84.66 484.02,-82.76"/>
</g>
</g>
</svg>
