<?xml version="1.0" encoding="UTF-8" standalone="no"?>
<!DOCTYPE svg PUBLIC "-//W3C//DTD SVG 1.1//EN"
 "http://www.w3.org/Graphics/SVG/1.1/DTD/svg11.dtd">
<!-- Generated by graphviz version 2.43.0 (0)
 -->
<!-- Title: entities/player.h Pages: 1 -->
<svg width="532pt" height="192pt"
 viewBox="0.00 0.00 532.43 192.00" xmlns="http://www.w3.org/2000/svg" xmlns:xlink="http://www.w3.org/1999/xlink">
<g id="graph0" class="graph" transform="scale(1 1) rotate(0) translate(4 188)">
<title>entities/player.h</title>
<!-- Node1 -->
<g id="node1" class="node">
<title>Node1</title>
<g id="a_node1"><a xlink:title=" ">
<polygon fill="#999999" stroke="#666666" points="323.43,-184 228.43,-184 228.43,-165 323.43,-165 323.43,-184"/>
<text text-anchor="middle" x="275.93" y="-172" font-family="Helvetica,sans-Serif" font-size="10.00">entities/player.h</text>
</a>
</g>
</g>
<!-- Node2 -->
<g id="node2" class="node">
<title>Node2</title>
<g id="a_node2"><a xlink:href="deckEntry_8h.html" target="_top" xlink:title=" ">
<polygon fill="white" stroke="#666666" points="112.43,-74 13.43,-74 13.43,-55 112.43,-55 112.43,-74"/>
<text text-anchor="middle" x="62.93" y="-62" font-family="Helvetica,sans-Serif" font-size="10.00">deck/deckEntry.h</text>
</a>
</g>
</g>
<!-- Node1&#45;&gt;Node2 -->
<g id="edge1" class="edge">
<title>Node1&#45;&gt;Node2</title>
<path fill="none" stroke="#63b8ff" d="M258.86,-164.84C221.61,-145.96 132.86,-100.96 88.74,-78.59"/>
<polygon fill="#63b8ff" stroke="#63b8ff" points="90.29,-75.45 79.79,-74.05 87.13,-81.69 90.29,-75.45"/>
</g>
<!-- Node3 -->
<g id="node3" class="node">
<title>Node3</title>
<g id="a_node3"><a xlink:title=" ">
<polygon fill="#e0e0e0" stroke="#999999" points="84.93,-19 40.93,-19 40.93,0 84.93,0 84.93,-19"/>
<text text-anchor="middle" x="62.93" y="-7" font-family="Helvetica,sans-Serif" font-size="10.00">string</text>
</a>
</g>
</g>
<!-- Node1&#45;&gt;Node3 -->
<g id="edge11" class="edge">
<title>Node1&#45;&gt;Node3</title>
<path fill="none" stroke="#63b8ff" d="M228.21,-171.74C164.74,-166.52 54.67,-146.81 3.93,-74 -9.24,-55.09 14.45,-36.09 35.62,-23.86"/>
<polygon fill="#63b8ff" stroke="#63b8ff" points="37.33,-26.92 44.43,-19.06 33.97,-20.78 37.33,-26.92"/>
</g>
<!-- Node4 -->
<g id="node4" class="node">
<title>Node4</title>
<g id="a_node4"><a xlink:href="deckPlayer_8h.html" target="_top" xlink:title=" ">
<polygon fill="white" stroke="#666666" points="328.43,-129 223.43,-129 223.43,-110 328.43,-110 328.43,-129"/>
<text text-anchor="middle" x="275.93" y="-117" font-family="Helvetica,sans-Serif" font-size="10.00">deck/deckPlayer.h</text>
</a>
</g>
</g>
<!-- Node1&#45;&gt;Node4 -->
<g id="edge3" class="edge">
<title>Node1&#45;&gt;Node4</title>
<path fill="none" stroke="#63b8ff" d="M275.93,-164.75C275.93,-157.8 275.93,-147.85 275.93,-139.13"/>
<polygon fill="#63b8ff" stroke="#63b8ff" points="279.43,-139.09 275.93,-129.09 272.43,-139.09 279.43,-139.09"/>
</g>
<!-- Node7 -->
<g id="node7" class="node">
<title>Node7</title>
<g id="a_node7"><a xlink:title=" ">
<polygon fill="#e0e0e0" stroke="#999999" points="459.43,-74 386.43,-74 386.43,-55 459.43,-55 459.43,-74"/>
<text text-anchor="middle" x="422.93" y="-62" font-family="Helvetica,sans-Serif" font-size="10.00">string_view</text>
</a>
</g>
</g>
<!-- Node1&#45;&gt;Node7 -->
<g id="edge12" class="edge">
<title>Node1&#45;&gt;Node7</title>
<path fill="none" stroke="#63b8ff" d="M287.64,-164.99C299.93,-156.05 319.81,-141.56 336.93,-129 359.61,-112.35 385.59,-93.16 403,-80.27"/>
<polygon fill="#63b8ff" stroke="#63b8ff" points="405.31,-82.91 411.26,-74.15 401.14,-77.29 405.31,-82.91"/>
</g>
<!-- Node9 -->
<g id="node9" class="node">
<title>Node9</title>
<g id="a_node9"><a xlink:title=" ">
<polygon fill="#e0e0e0" stroke="#999999" points="524.43,-74 477.43,-74 477.43,-55 524.43,-55 524.43,-74"/>
<text text-anchor="middle" x="500.93" y="-62" font-family="Helvetica,sans-Serif" font-size="10.00">vector</text>
</a>
</g>
</g>
<!-- Node1&#45;&gt;Node9 -->
<g id="edge13" class="edge">
<title>Node1&#45;&gt;Node9</title>
<path fill="none" stroke="#63b8ff" d="M293.97,-164.84C333.39,-145.92 427.46,-100.77 473.96,-78.45"/>
<polygon fill="#63b8ff" stroke="#63b8ff" points="475.63,-81.53 483.13,-74.05 472.6,-75.22 475.63,-81.53"/>
</g>
<!-- Node2&#45;&gt;Node3 -->
<g id="edge2" class="edge">
<title>Node2&#45;&gt;Node3</title>
<path fill="none" stroke="#63b8ff" d="M62.93,-54.75C62.93,-47.8 62.93,-37.85 62.93,-29.13"/>
<polygon fill="#63b8ff" stroke="#63b8ff" points="66.43,-29.09 62.93,-19.09 59.43,-29.09 66.43,-29.09"/>
</g>
<!-- Node4&#45;&gt;Node2 -->
<g id="edge4" class="edge">
<title>Node4&#45;&gt;Node2</title>
<path fill="none" stroke="#63b8ff" d="M241.71,-109.98C205.18,-100.89 147.16,-86.46 107.18,-76.51"/>
<polygon fill="#63b8ff" stroke="#63b8ff" points="107.97,-73.1 97.42,-74.08 106.28,-79.89 107.97,-73.1"/>
</g>
<!-- Node4&#45;&gt;Node3 -->
<g id="edge7" class="edge">
<title>Node4&#45;&gt;Node3</title>
<path fill="none" stroke="#63b8ff" d="M248.98,-109.99C225.01,-101.99 189.31,-89.03 159.93,-74 131.78,-59.59 101.65,-38.95 82.57,-25.16"/>
<polygon fill="#63b8ff" stroke="#63b8ff" points="84.52,-22.25 74.39,-19.17 80.39,-27.9 84.52,-22.25"/>
</g>
<!-- Node5 -->
<g id="node5" class="node">
<title>Node5</title>
<g id="a_node5"><a xlink:title=" ">
<polygon fill="#e0e0e0" stroke="#999999" points="228.93,-74 168.93,-74 168.93,-55 228.93,-55 228.93,-74"/>
<text text-anchor="middle" x="198.93" y="-62" font-family="Helvetica,sans-Serif" font-size="10.00">iostream</text>
</a>
</g>
</g>
<!-- Node4&#45;&gt;Node5 -->
<g id="edge5" class="edge">
<title>Node4&#45;&gt;Node5</title>
<path fill="none" stroke="#63b8ff" d="M263.56,-109.98C251.84,-101.92 234.01,-89.65 220.05,-80.03"/>
<polygon fill="#63b8ff" stroke="#63b8ff" points="221.75,-76.96 211.53,-74.17 217.78,-82.72 221.75,-76.96"/>
</g>
<!-- Node6 -->
<g id="node6" class="node">
<title>Node6</title>
<g id="a_node6"><a xlink:title=" ">
<polygon fill="#e0e0e0" stroke="#999999" points="304.93,-74 246.93,-74 246.93,-55 304.93,-55 304.93,-74"/>
<text text-anchor="middle" x="275.93" y="-62" font-family="Helvetica,sans-Serif" font-size="10.00">memory</text>
</a>
</g>
</g>
<!-- Node4&#45;&gt;Node6 -->
<g id="edge6" class="edge">
<title>Node4&#45;&gt;Node6</title>
<path fill="none" stroke="#63b8ff" d="M275.93,-109.75C275.93,-102.8 275.93,-92.85 275.93,-84.13"/>
<polygon fill="#63b8ff" stroke="#63b8ff" points="279.43,-84.09 275.93,-74.09 272.43,-84.09 279.43,-84.09"/>
</g>
<!-- Node4&#45;&gt;Node7 -->
<g id="edge8" class="edge">
<title>Node4&#45;&gt;Node7</title>
<path fill="none" stroke="#63b8ff" d="M299.55,-109.98C323.84,-101.23 361.88,-87.51 389.31,-77.62"/>
<polygon fill="#63b8ff" stroke="#63b8ff" points="390.66,-80.85 398.89,-74.17 388.29,-74.27 390.66,-80.85"/>
</g>
<!-- Node8 -->
<g id="node8" class="node">
<title>Node8</title>
<g id="a_node8"><a xlink:title=" ">
<polygon fill="#e0e0e0" stroke="#999999" points="368.43,-74 323.43,-74 323.43,-55 368.43,-55 368.43,-74"/>
<text text-anchor="middle" x="345.93" y="-62" font-family="Helvetica,sans-Serif" font-size="10.00">utility</text>
</a>
</g>
</g>
<!-- Node4&#45;&gt;Node8 -->
<g id="edge9" class="edge">
<title>Node4&#45;&gt;Node8</title>
<path fill="none" stroke="#63b8ff" d="M287.18,-109.98C297.73,-102 313.73,-89.88 326.38,-80.31"/>
<polygon fill="#63b8ff" stroke="#63b8ff" points="328.62,-83 334.48,-74.17 324.4,-77.42 328.62,-83"/>
</g>
<!-- Node4&#45;&gt;Node9 -->
<g id="edge10" class="edge">
<title>Node4&#45;&gt;Node9</title>
<path fill="none" stroke="#63b8ff" d="M314.84,-109.93C351.82,-101.69 409.24,-88.67 467.46,-74.31"/>
<polygon fill="#63b8ff" stroke="#63b8ff" points="468.32,-77.7 477.19,-71.9 466.64,-70.91 468.32,-77.7"/>
</g>
</g>
</svg>
