<?xml version="1.0" encoding="UTF-8" standalone="no"?>
<!DOCTYPE svg PUBLIC "-//W3C//DTD SVG 1.1//EN"
 "http://www.w3.org/Graphics/SVG/1.1/DTD/svg11.dtd">
<!-- Generated by graphviz version 2.43.0 (0)
 -->
<!-- Title: game_events/rewards/reward_effects/rewardEffectData.h Pages: 1 -->
<svg width="190pt" height="159pt"
 viewBox="0.00 0.00 190.00 159.00" xmlns="http://www.w3.org/2000/svg" xmlns:xlink="http://www.w3.org/1999/xlink">
<g id="graph0" class="graph" transform="scale(1 1) rotate(0) translate(4 155)">
<title>game_events/rewards/reward_effects/rewardEffectData.h</title>
<!-- Node1 -->
<g id="node1" class="node">
<title>Node1</title>
<g id="a_node1"><a xlink:title=" ">
<polygon fill="#999999" stroke="#666666" points="182,-151 26,-151 26,-110 182,-110 182,-151"/>
<text text-anchor="start" x="34" y="-139" font-family="Helvetica,sans-Serif" font-size="10.00">game_events/rewards</text>
<text text-anchor="start" x="34" y="-128" font-family="Helvetica,sans-Serif" font-size="10.00">/reward_effects/rewardEffect</text>
<text text-anchor="middle" x="104" y="-117" font-family="Helvetica,sans-Serif" font-size="10.00">Data.h</text>
</a>
</g>
</g>
<!-- Node2 -->
<g id="node2" class="node">
<title>Node2</title>
<g id="a_node2"><a xlink:href="cardParams_8h.html" target="_top" xlink:title=" ">
<polygon fill="white" stroke="#666666" points="112,-74 0,-74 0,-55 112,-55 112,-74"/>
<text text-anchor="middle" x="56" y="-62" font-family="Helvetica,sans-Serif" font-size="10.00">cards/cardParams.h</text>
</a>
</g>
</g>
<!-- Node1&#45;&gt;Node2 -->
<g id="edge1" class="edge">
<title>Node1&#45;&gt;Node2</title>
<path fill="none" stroke="#63b8ff" d="M89.34,-109.95C82.71,-101.11 74.95,-90.77 68.59,-82.29"/>
<polygon fill="#63b8ff" stroke="#63b8ff" points="71.37,-80.16 62.57,-74.26 65.77,-84.36 71.37,-80.16"/>
</g>
<!-- Node4 -->
<g id="node4" class="node">
<title>Node4</title>
<g id="a_node4"><a xlink:title=" ">
<polygon fill="#e0e0e0" stroke="#999999" points="174,-74 130,-74 130,-55 174,-55 174,-74"/>
<text text-anchor="middle" x="152" y="-62" font-family="Helvetica,sans-Serif" font-size="10.00">string</text>
</a>
</g>
</g>
<!-- Node1&#45;&gt;Node4 -->
<g id="edge3" class="edge">
<title>Node1&#45;&gt;Node4</title>
<path fill="none" stroke="#63b8ff" d="M118.66,-109.95C125.29,-101.11 133.05,-90.77 139.41,-82.29"/>
<polygon fill="#63b8ff" stroke="#63b8ff" points="142.23,-84.36 145.43,-74.26 136.63,-80.16 142.23,-84.36"/>
</g>
<!-- Node3 -->
<g id="node3" class="node">
<title>Node3</title>
<g id="a_node3"><a xlink:title=" ">
<polygon fill="#e0e0e0" stroke="#999999" points="84,-19 28,-19 28,0 84,0 84,-19"/>
<text text-anchor="middle" x="56" y="-7" font-family="Helvetica,sans-Serif" font-size="10.00">optional</text>
</a>
</g>
</g>
<!-- Node2&#45;&gt;Node3 -->
<g id="edge2" class="edge">
<title>Node2&#45;&gt;Node3</title>
<path fill="none" stroke="#63b8ff" d="M56,-54.75C56,-47.8 56,-37.85 56,-29.13"/>
<polygon fill="#63b8ff" stroke="#63b8ff" points="59.5,-29.09 56,-19.09 52.5,-29.09 59.5,-29.09"/>
</g>
</g>
</svg>
