<?xml version="1.0" encoding="UTF-8" standalone="no"?>
<!DOCTYPE svg PUBLIC "-//W3C//DTD SVG 1.1//EN"
 "http://www.w3.org/Graphics/SVG/1.1/DTD/svg11.dtd">
<!-- Generated by graphviz version 2.43.0 (0)
 -->
<!-- Title: game_events/rewards/rewardOption.h Pages: 1 -->
<svg width="1233pt" height="280pt"
 viewBox="0.00 0.00 1233.00 280.00" xmlns="http://www.w3.org/2000/svg" xmlns:xlink="http://www.w3.org/1999/xlink">
<g id="graph0" class="graph" transform="scale(1 1) rotate(0) translate(4 276)">
<title>game_events/rewards/rewardOption.h</title>
<!-- Node1 -->
<g id="node1" class="node">
<title>Node1</title>
<g id="a_node1"><a xlink:title=" ">
<polygon fill="#999999" stroke="#666666" points="723,-272 598,-272 598,-242 723,-242 723,-272"/>
<text text-anchor="start" x="606" y="-260" font-family="Helvetica,sans-Serif" font-size="10.00">game_events/rewards</text>
<text text-anchor="middle" x="660.5" y="-249" font-family="Helvetica,sans-Serif" font-size="10.00">/rewardOption.h</text>
</a>
</g>
</g>
<!-- Node2 -->
<g id="node2" class="node">
<title>Node2</title>
<g id="a_node2"><a xlink:href="rewardLoader_8h.html" target="_top" xlink:title=" ">
<polygon fill="white" stroke="#666666" points="216,-206 91,-206 91,-176 216,-176 216,-206"/>
<text text-anchor="start" x="99" y="-194" font-family="Helvetica,sans-Serif" font-size="10.00">game_events/rewards</text>
<text text-anchor="middle" x="153.5" y="-183" font-family="Helvetica,sans-Serif" font-size="10.00">/rewardLoader.h</text>
</a>
</g>
</g>
<!-- Node1&#45;&gt;Node2 -->
<g id="edge1" class="edge">
<title>Node1&#45;&gt;Node2</title>
<path fill="none" stroke="#63b8ff" d="M587.82,-246.83C488.01,-234.23 310.21,-211.78 216.03,-199.89"/>
<polygon fill="#63b8ff" stroke="#63b8ff" points="587.46,-250.31 597.82,-248.09 588.34,-243.36 587.46,-250.31"/>
</g>
<!-- Node6 -->
<g id="node6" class="node">
<title>Node6</title>
<g id="a_node6"><a xlink:href="rewardOption_8cpp.html" target="_top" xlink:title=" ">
<polygon fill="white" stroke="#666666" points="580,-206 455,-206 455,-176 580,-176 580,-206"/>
<text text-anchor="start" x="463" y="-194" font-family="Helvetica,sans-Serif" font-size="10.00">game_events/rewards</text>
<text text-anchor="middle" x="517.5" y="-183" font-family="Helvetica,sans-Serif" font-size="10.00">/rewardOption.cpp</text>
</a>
</g>
</g>
<!-- Node1&#45;&gt;Node6 -->
<g id="edge5" class="edge">
<title>Node1&#45;&gt;Node6</title>
<path fill="none" stroke="#63b8ff" d="M619.8,-237.78C597.25,-227.69 569.66,-215.34 548.81,-206.01"/>
<polygon fill="#63b8ff" stroke="#63b8ff" points="618.56,-241.06 629.12,-241.95 621.42,-234.68 618.56,-241.06"/>
</g>
<!-- Node7 -->
<g id="node7" class="node">
<title>Node7</title>
<g id="a_node7"><a xlink:href="rewardPhase_8h.html" target="_top" xlink:title=" ">
<polygon fill="white" stroke="#666666" points="723,-206 598,-206 598,-176 723,-176 723,-206"/>
<text text-anchor="start" x="606" y="-194" font-family="Helvetica,sans-Serif" font-size="10.00">game_events/rewards</text>
<text text-anchor="middle" x="660.5" y="-183" font-family="Helvetica,sans-Serif" font-size="10.00">/rewardPhase.h</text>
</a>
</g>
</g>
<!-- Node1&#45;&gt;Node7 -->
<g id="edge6" class="edge">
<title>Node1&#45;&gt;Node7</title>
<path fill="none" stroke="#63b8ff" d="M660.5,-231.54C660.5,-222.96 660.5,-213.61 660.5,-206.16"/>
<polygon fill="#63b8ff" stroke="#63b8ff" points="657,-231.8 660.5,-241.8 664,-231.8 657,-231.8"/>
</g>
<!-- Node13 -->
<g id="node13" class="node">
<title>Node13</title>
<g id="a_node13"><a xlink:href="rewardOptionRenderer_8h.html" target="_top" xlink:title=" ">
<polygon fill="white" stroke="#666666" points="940,-200.5 793,-200.5 793,-181.5 940,-181.5 940,-200.5"/>
<text text-anchor="middle" x="866.5" y="-188.5" font-family="Helvetica,sans-Serif" font-size="10.00">ui/rewardOptionRenderer.h</text>
</a>
</g>
</g>
<!-- Node1&#45;&gt;Node13 -->
<g id="edge15" class="edge">
<title>Node1&#45;&gt;Node13</title>
<path fill="none" stroke="#63b8ff" d="M715.31,-238.97C755.23,-226.57 807.62,-210.29 839.08,-200.52"/>
<polygon fill="#63b8ff" stroke="#63b8ff" points="714.22,-235.65 705.71,-241.95 716.3,-242.33 714.22,-235.65"/>
</g>
<!-- Node17 -->
<g id="node17" class="node">
<title>Node17</title>
<g id="a_node17"><a xlink:href="rewardsRenderer_8cpp.html" target="_top" xlink:title=" ">
<polygon fill="white" stroke="#666666" points="1225,-74 1094,-74 1094,-55 1225,-55 1225,-74"/>
<text text-anchor="middle" x="1159.5" y="-62" font-family="Helvetica,sans-Serif" font-size="10.00">ui/rewardsRenderer.cpp</text>
</a>
</g>
</g>
<!-- Node1&#45;&gt;Node17 -->
<g id="edge22" class="edge">
<title>Node1&#45;&gt;Node17</title>
<path fill="none" stroke="#63b8ff" d="M733.13,-252.43C825.01,-244.59 984.26,-219.6 1092.5,-140 1118.85,-120.63 1142.63,-89.53 1153.41,-74.38"/>
<polygon fill="#63b8ff" stroke="#63b8ff" points="732.78,-248.94 723.09,-253.24 733.34,-255.92 732.78,-248.94"/>
</g>
<!-- Node3 -->
<g id="node3" class="node">
<title>Node3</title>
<g id="a_node3"><a xlink:href="rewardLoader_8cpp.html" target="_top" xlink:title=" ">
<polygon fill="white" stroke="#666666" points="125,-140 0,-140 0,-110 125,-110 125,-140"/>
<text text-anchor="start" x="8" y="-128" font-family="Helvetica,sans-Serif" font-size="10.00">game_events/rewards</text>
<text text-anchor="middle" x="62.5" y="-117" font-family="Helvetica,sans-Serif" font-size="10.00">/rewardLoader.cpp</text>
</a>
</g>
</g>
<!-- Node2&#45;&gt;Node3 -->
<g id="edge2" class="edge">
<title>Node2&#45;&gt;Node3</title>
<path fill="none" stroke="#63b8ff" d="M125.1,-170.03C111.33,-160.34 95.12,-148.94 82.64,-140.16"/>
<polygon fill="#63b8ff" stroke="#63b8ff" points="123.11,-172.91 133.3,-175.8 127.14,-167.18 123.11,-172.91"/>
</g>
<!-- Node4 -->
<g id="node4" class="node">
<title>Node4</title>
<g id="a_node4"><a xlink:href="eventSequence_8h.html" target="_top" xlink:title=" ">
<polygon fill="white" stroke="#666666" points="201,-74 28,-74 28,-55 201,-55 201,-74"/>
<text text-anchor="middle" x="114.5" y="-62" font-family="Helvetica,sans-Serif" font-size="10.00">game_system/eventSequence.h</text>
</a>
</g>
</g>
<!-- Node2&#45;&gt;Node4 -->
<g id="edge3" class="edge">
<title>Node2&#45;&gt;Node4</title>
<path fill="none" stroke="#63b8ff" d="M148.5,-165.8C144.94,-149.78 139.69,-128.41 133.5,-110 129.22,-97.26 122.87,-83.06 118.71,-74.21"/>
<polygon fill="#63b8ff" stroke="#63b8ff" points="145.16,-166.9 150.69,-175.93 152,-165.42 145.16,-166.9"/>
</g>
<!-- Node5 -->
<g id="node5" class="node">
<title>Node5</title>
<g id="a_node5"><a xlink:href="eventSequence_8cpp.html" target="_top" xlink:title=" ">
<polygon fill="white" stroke="#666666" points="297.5,-19 113.5,-19 113.5,0 297.5,0 297.5,-19"/>
<text text-anchor="middle" x="205.5" y="-7" font-family="Helvetica,sans-Serif" font-size="10.00">game_system/eventSequence.cpp</text>
</a>
</g>
</g>
<!-- Node4&#45;&gt;Node5 -->
<g id="edge4" class="edge">
<title>Node4&#45;&gt;Node5</title>
<path fill="none" stroke="#63b8ff" d="M138.2,-49.7C154.78,-40.04 176.41,-27.44 190.61,-19.17"/>
<polygon fill="#63b8ff" stroke="#63b8ff" points="136,-46.93 129.12,-54.98 139.52,-52.98 136,-46.93"/>
</g>
<!-- Node8 -->
<g id="node8" class="node">
<title>Node8</title>
<g id="a_node8"><a xlink:href="gameEvent_8h.html" target="_top" xlink:title=" ">
<polygon fill="white" stroke="#666666" points="466.5,-134.5 316.5,-134.5 316.5,-115.5 466.5,-115.5 466.5,-134.5"/>
<text text-anchor="middle" x="391.5" y="-122.5" font-family="Helvetica,sans-Serif" font-size="10.00">game_events/gameEvent.h</text>
</a>
</g>
</g>
<!-- Node7&#45;&gt;Node8 -->
<g id="edge7" class="edge">
<title>Node7&#45;&gt;Node8</title>
<path fill="none" stroke="#63b8ff" d="M591.56,-173.6C539.12,-161.12 469.08,-144.46 427.3,-134.52"/>
<polygon fill="#63b8ff" stroke="#63b8ff" points="590.93,-177.05 601.47,-175.95 592.55,-170.24 590.93,-177.05"/>
</g>
<!-- Node10 -->
<g id="node10" class="node">
<title>Node10</title>
<g id="a_node10"><a xlink:href="matchEvent_8cpp.html" target="_top" xlink:title=" ">
<polygon fill="white" stroke="#666666" points="588.5,-19 424.5,-19 424.5,0 588.5,0 588.5,-19"/>
<text text-anchor="middle" x="506.5" y="-7" font-family="Helvetica,sans-Serif" font-size="10.00">game_events/matchEvent.cpp</text>
</a>
</g>
</g>
<!-- Node7&#45;&gt;Node10 -->
<g id="edge13" class="edge">
<title>Node7&#45;&gt;Node10</title>
<path fill="none" stroke="#63b8ff" d="M648.13,-166.79C643.73,-158.39 638.81,-148.81 634.5,-140 616.24,-102.66 624.39,-84.88 595.5,-55 578.81,-37.74 554,-26.1 534.82,-19.07"/>
<polygon fill="#63b8ff" stroke="#63b8ff" points="645.04,-168.44 652.8,-175.65 651.23,-165.18 645.04,-168.44"/>
</g>
<!-- Node12 -->
<g id="node12" class="node">
<title>Node12</title>
<g id="a_node12"><a xlink:href="rewardPhase_8cpp.html" target="_top" xlink:title=" ">
<polygon fill="white" stroke="#666666" points="769,-140 644,-140 644,-110 769,-110 769,-140"/>
<text text-anchor="start" x="652" y="-128" font-family="Helvetica,sans-Serif" font-size="10.00">game_events/rewards</text>
<text text-anchor="middle" x="706.5" y="-117" font-family="Helvetica,sans-Serif" font-size="10.00">/rewardPhase.cpp</text>
</a>
</g>
</g>
<!-- Node7&#45;&gt;Node12 -->
<g id="edge14" class="edge">
<title>Node7&#45;&gt;Node12</title>
<path fill="none" stroke="#63b8ff" d="M676.65,-167.53C683.19,-158.43 690.55,-148.19 696.32,-140.16"/>
<polygon fill="#63b8ff" stroke="#63b8ff" points="673.7,-165.63 670.71,-175.8 679.39,-169.72 673.7,-165.63"/>
</g>
<!-- Node8&#45;&gt;Node4 -->
<g id="edge12" class="edge">
<title>Node8&#45;&gt;Node4</title>
<path fill="none" stroke="#63b8ff" d="M341.27,-113.39C287.79,-102.1 204.19,-84.44 154.83,-74.02"/>
<polygon fill="#63b8ff" stroke="#63b8ff" points="340.71,-116.85 351.22,-115.49 342.16,-110 340.71,-116.85"/>
</g>
<!-- Node9 -->
<g id="node9" class="node">
<title>Node9</title>
<g id="a_node9"><a xlink:href="matchEvent_8h.html" target="_top" xlink:title=" ">
<polygon fill="white" stroke="#666666" points="372,-74 219,-74 219,-55 372,-55 372,-74"/>
<text text-anchor="middle" x="295.5" y="-62" font-family="Helvetica,sans-Serif" font-size="10.00">game_events/matchEvent.h</text>
</a>
</g>
</g>
<!-- Node8&#45;&gt;Node9 -->
<g id="edge8" class="edge">
<title>Node8&#45;&gt;Node9</title>
<path fill="none" stroke="#63b8ff" d="M368.72,-110.12C350.42,-98.96 325.27,-83.64 309.72,-74.17"/>
<polygon fill="#63b8ff" stroke="#63b8ff" points="366.97,-113.15 377.33,-115.37 370.62,-107.18 366.97,-113.15"/>
</g>
<!-- Node11 -->
<g id="node11" class="node">
<title>Node11</title>
<g id="a_node11"><a xlink:href="matchEventLoader_8cpp.html" target="_top" xlink:title=" ">
<polygon fill="white" stroke="#666666" points="587,-74 390,-74 390,-55 587,-55 587,-74"/>
<text text-anchor="middle" x="488.5" y="-62" font-family="Helvetica,sans-Serif" font-size="10.00">game_events/matchEventLoader.cpp</text>
</a>
</g>
</g>
<!-- Node8&#45;&gt;Node11 -->
<g id="edge11" class="edge">
<title>Node8&#45;&gt;Node11</title>
<path fill="none" stroke="#63b8ff" d="M414.52,-110.12C433.01,-98.96 458.42,-83.64 474.13,-74.17"/>
<polygon fill="#63b8ff" stroke="#63b8ff" points="412.57,-107.21 405.81,-115.37 416.18,-113.2 412.57,-107.21"/>
</g>
<!-- Node9&#45;&gt;Node5 -->
<g id="edge10" class="edge">
<title>Node9&#45;&gt;Node5</title>
<path fill="none" stroke="#63b8ff" d="M272.06,-49.7C255.66,-40.04 234.27,-27.44 220.22,-19.17"/>
<polygon fill="#63b8ff" stroke="#63b8ff" points="270.65,-52.93 281.04,-54.98 274.2,-46.89 270.65,-52.93"/>
</g>
<!-- Node9&#45;&gt;Node10 -->
<g id="edge9" class="edge">
<title>Node9&#45;&gt;Node10</title>
<path fill="none" stroke="#63b8ff" d="M339.29,-52.5C378.8,-42.58 436.12,-28.18 472.33,-19.08"/>
<polygon fill="#63b8ff" stroke="#63b8ff" points="338.25,-49.15 329.4,-54.98 339.95,-55.94 338.25,-49.15"/>
</g>
<!-- Node14 -->
<g id="node14" class="node">
<title>Node14</title>
<g id="a_node14"><a xlink:href="rewardOptionRenderer_8cpp.html" target="_top" xlink:title=" ">
<polygon fill="white" stroke="#666666" points="945.5,-134.5 787.5,-134.5 787.5,-115.5 945.5,-115.5 945.5,-134.5"/>
<text text-anchor="middle" x="866.5" y="-122.5" font-family="Helvetica,sans-Serif" font-size="10.00">ui/rewardOptionRenderer.cpp</text>
</a>
</g>
</g>
<!-- Node13&#45;&gt;Node14 -->
<g id="edge16" class="edge">
<title>Node13&#45;&gt;Node14</title>
<path fill="none" stroke="#63b8ff" d="M866.5,-171.08C866.5,-159.13 866.5,-144.22 866.5,-134.91"/>
<polygon fill="#63b8ff" stroke="#63b8ff" points="863,-171.37 866.5,-181.37 870,-171.37 863,-171.37"/>
</g>
<!-- Node15 -->
<g id="node15" class="node">
<title>Node15</title>
<g id="a_node15"><a xlink:href="rewardsRenderer_8h.html" target="_top" xlink:title=" ">
<polygon fill="white" stroke="#666666" points="1083.5,-134.5 963.5,-134.5 963.5,-115.5 1083.5,-115.5 1083.5,-134.5"/>
<text text-anchor="middle" x="1023.5" y="-122.5" font-family="Helvetica,sans-Serif" font-size="10.00">ui/rewardsRenderer.h</text>
</a>
</g>
</g>
<!-- Node13&#45;&gt;Node15 -->
<g id="edge17" class="edge">
<title>Node13&#45;&gt;Node15</title>
<path fill="none" stroke="#63b8ff" d="M897.14,-177.51C928.17,-164.86 975.34,-145.63 1002.41,-134.6"/>
<polygon fill="#63b8ff" stroke="#63b8ff" points="895.61,-174.35 887.67,-181.37 898.26,-180.83 895.61,-174.35"/>
</g>
<!-- Node16 -->
<g id="node16" class="node">
<title>Node16</title>
<g id="a_node16"><a xlink:href="iotext_8cpp.html" target="_top" xlink:title=" ">
<polygon fill="white" stroke="#666666" points="919,-74 842,-74 842,-55 919,-55 919,-74"/>
<text text-anchor="middle" x="880.5" y="-62" font-family="Helvetica,sans-Serif" font-size="10.00">ui/iotext.cpp</text>
</a>
</g>
</g>
<!-- Node15&#45;&gt;Node16 -->
<g id="edge18" class="edge">
<title>Node15&#45;&gt;Node16</title>
<path fill="none" stroke="#63b8ff" d="M993.14,-111.58C965.52,-100.28 925.48,-83.9 901.32,-74.02"/>
<polygon fill="#63b8ff" stroke="#63b8ff" points="992.13,-114.95 1002.71,-115.49 994.78,-108.47 992.13,-114.95"/>
</g>
<!-- Node15&#45;&gt;Node17 -->
<g id="edge19" class="edge">
<title>Node15&#45;&gt;Node17</title>
<path fill="none" stroke="#63b8ff" d="M1052.72,-111.43C1078.98,-100.14 1116.83,-83.86 1139.7,-74.02"/>
<polygon fill="#63b8ff" stroke="#63b8ff" points="1051.08,-108.33 1043.28,-115.49 1053.84,-114.76 1051.08,-108.33"/>
</g>
<!-- Node18 -->
<g id="node18" class="node">
<title>Node18</title>
<g id="a_node18"><a xlink:href="terminalRewardView_8h.html" target="_top" xlink:title=" ">
<polygon fill="white" stroke="#666666" points="1076,-74 937,-74 937,-55 1076,-55 1076,-74"/>
<text text-anchor="middle" x="1006.5" y="-62" font-family="Helvetica,sans-Serif" font-size="10.00">ui/terminalRewardView.h</text>
</a>
</g>
</g>
<!-- Node15&#45;&gt;Node18 -->
<g id="edge20" class="edge">
<title>Node15&#45;&gt;Node18</title>
<path fill="none" stroke="#63b8ff" d="M1018.12,-105.49C1015.08,-95.01 1011.41,-82.39 1009.02,-74.17"/>
<polygon fill="#63b8ff" stroke="#63b8ff" points="1014.84,-106.74 1020.99,-115.37 1021.56,-104.79 1014.84,-106.74"/>
</g>
<!-- Node19 -->
<g id="node19" class="node">
<title>Node19</title>
<g id="a_node19"><a xlink:href="terminalRewardView_8cpp.html" target="_top" xlink:title=" ">
<polygon fill="white" stroke="#666666" points="1081.5,-19 931.5,-19 931.5,0 1081.5,0 1081.5,-19"/>
<text text-anchor="middle" x="1006.5" y="-7" font-family="Helvetica,sans-Serif" font-size="10.00">ui/terminalRewardView.cpp</text>
</a>
</g>
</g>
<!-- Node18&#45;&gt;Node19 -->
<g id="edge21" class="edge">
<title>Node18&#45;&gt;Node19</title>
<path fill="none" stroke="#63b8ff" d="M1006.5,-44.66C1006.5,-35.93 1006.5,-25.99 1006.5,-19.09"/>
<polygon fill="#63b8ff" stroke="#63b8ff" points="1003,-44.75 1006.5,-54.75 1010,-44.75 1003,-44.75"/>
</g>
</g>
</svg>
