<?xml version="1.0" encoding="UTF-8" standalone="no"?>
<!DOCTYPE svg PUBLIC "-//W3C//DTD SVG 1.1//EN"
 "http://www.w3.org/Graphics/SVG/1.1/DTD/svg11.dtd">
<!-- Generated by graphviz version 2.43.0 (0)
 -->
<!-- Title: game_events/rewards/rewardLoader.cpp Pages: 1 -->
<svg width="1512pt" height="632pt"
 viewBox="0.00 0.00 1511.55 632.00" xmlns="http://www.w3.org/2000/svg" xmlns:xlink="http://www.w3.org/1999/xlink">
<g id="graph0" class="graph" transform="scale(1 1) rotate(0) translate(4 628)">
<title>game_events/rewards/rewardLoader.cpp</title>
<!-- Node1 -->
<g id="node1" class="node">
<title>Node1</title>
<g id="a_node1"><a xlink:title=" ">
<polygon fill="#999999" stroke="#666666" points="1421.05,-624 1296.05,-624 1296.05,-594 1421.05,-594 1421.05,-624"/>
<text text-anchor="start" x="1304.05" y="-612" font-family="Helvetica,sans-Serif" font-size="10.00">game_events/rewards</text>
<text text-anchor="middle" x="1358.55" y="-601" font-family="Helvetica,sans-Serif" font-size="10.00">/rewardLoader.cpp</text>
</a>
</g>
</g>
<!-- Node2 -->
<g id="node2" class="node">
<title>Node2</title>
<g id="a_node2"><a xlink:href="rewardLoader_8h.html" target="_top" xlink:title=" ">
<polygon fill="white" stroke="#666666" points="1133.55,-558 1041.55,-558 1041.55,-539 1133.55,-539 1133.55,-558"/>
<text text-anchor="middle" x="1087.55" y="-546" font-family="Helvetica,sans-Serif" font-size="10.00">rewardLoader.h</text>
</a>
</g>
</g>
<!-- Node1&#45;&gt;Node2 -->
<g id="edge1" class="edge">
<title>Node1&#45;&gt;Node2</title>
<path fill="none" stroke="#63b8ff" d="M1296.04,-594.51C1247.74,-584.08 1181.82,-569.85 1137.13,-560.2"/>
<polygon fill="#63b8ff" stroke="#63b8ff" points="1137.61,-556.73 1127.09,-558.04 1136.13,-563.57 1137.61,-556.73"/>
</g>
<!-- Node12 -->
<g id="node12" class="node">
<title>Node12</title>
<g id="a_node12"><a xlink:title=" ">
<polygon fill="#e0e0e0" stroke="#999999" points="736.55,-74 692.55,-74 692.55,-55 736.55,-55 736.55,-74"/>
<text text-anchor="middle" x="714.55" y="-62" font-family="Helvetica,sans-Serif" font-size="10.00">string</text>
</a>
</g>
</g>
<!-- Node1&#45;&gt;Node12 -->
<g id="edge71" class="edge">
<title>Node1&#45;&gt;Node12</title>
<path fill="none" stroke="#63b8ff" d="M1340.31,-593.9C1330.13,-584.86 1318.35,-572.19 1312.55,-558 1261.12,-432.26 1302.55,-388.35 1302.55,-252.5 1302.55,-252.5 1302.55,-252.5 1302.55,-195.5 1302.55,-156.57 1313,-135.46 1283.55,-110 1242.33,-74.37 848.81,-78.88 794.55,-74 778.77,-72.58 761.26,-70.75 746.66,-69.15"/>
<polygon fill="#63b8ff" stroke="#63b8ff" points="746.93,-65.66 736.6,-68.04 746.16,-72.62 746.93,-65.66"/>
</g>
<!-- Node27 -->
<g id="node27" class="node">
<title>Node27</title>
<g id="a_node27"><a xlink:href="debug_8h.html" target="_top" xlink:title=" ">
<polygon fill="white" stroke="#666666" points="1395.55,-558 1321.55,-558 1321.55,-539 1395.55,-539 1395.55,-558"/>
<text text-anchor="middle" x="1358.55" y="-546" font-family="Helvetica,sans-Serif" font-size="10.00">util/debug.h</text>
</a>
</g>
</g>
<!-- Node1&#45;&gt;Node27 -->
<g id="edge65" class="edge">
<title>Node1&#45;&gt;Node27</title>
<path fill="none" stroke="#63b8ff" d="M1358.55,-593.84C1358.55,-586.21 1358.55,-576.7 1358.55,-568.45"/>
<polygon fill="#63b8ff" stroke="#63b8ff" points="1362.05,-568.27 1358.55,-558.27 1355.05,-568.27 1362.05,-568.27"/>
</g>
<!-- Node29 -->
<g id="node29" class="node">
<title>Node29</title>
<g id="a_node29"><a xlink:title=" ">
<polygon fill="#e0e0e0" stroke="#999999" points="1484.05,-503 1429.05,-503 1429.05,-484 1484.05,-484 1484.05,-503"/>
<text text-anchor="middle" x="1456.55" y="-491" font-family="Helvetica,sans-Serif" font-size="10.00">fstream</text>
</a>
</g>
</g>
<!-- Node1&#45;&gt;Node29 -->
<g id="edge70" class="edge">
<title>Node1&#45;&gt;Node29</title>
<path fill="none" stroke="#63b8ff" d="M1372.06,-593.76C1381.34,-583.86 1393.88,-570.29 1404.55,-558 1418.06,-542.44 1432.9,-524.19 1443.26,-511.26"/>
<polygon fill="#63b8ff" stroke="#63b8ff" points="1446.14,-513.26 1449.64,-503.26 1440.67,-508.9 1446.14,-513.26"/>
</g>
<!-- Node30 -->
<g id="node30" class="node">
<title>Node30</title>
<g id="a_node30"><a xlink:title=" ">
<polygon fill="#e0e0e0" stroke="#999999" points="1503.55,-558 1451.55,-558 1451.55,-539 1503.55,-539 1503.55,-558"/>
<text text-anchor="middle" x="1477.55" y="-546" font-family="Helvetica,sans-Serif" font-size="10.00">cassert</text>
</a>
</g>
</g>
<!-- Node1&#45;&gt;Node30 -->
<g id="edge69" class="edge">
<title>Node1&#45;&gt;Node30</title>
<path fill="none" stroke="#63b8ff" d="M1387.05,-593.99C1406.46,-584.45 1431.98,-571.9 1450.97,-562.57"/>
<polygon fill="#63b8ff" stroke="#63b8ff" points="1452.54,-565.69 1459.98,-558.14 1449.46,-559.41 1452.54,-565.69"/>
</g>
<!-- Node3 -->
<g id="node3" class="node">
<title>Node3</title>
<g id="a_node3"><a xlink:href="cardParams_8h.html" target="_top" xlink:title=" ">
<polygon fill="white" stroke="#666666" points="915.55,-74 803.55,-74 803.55,-55 915.55,-55 915.55,-74"/>
<text text-anchor="middle" x="859.55" y="-62" font-family="Helvetica,sans-Serif" font-size="10.00">cards/cardParams.h</text>
</a>
</g>
</g>
<!-- Node2&#45;&gt;Node3 -->
<g id="edge2" class="edge">
<title>Node2&#45;&gt;Node3</title>
<path fill="none" stroke="#63b8ff" d="M1120.62,-538.99C1142.39,-532.1 1170.48,-520.59 1190.55,-503 1288.15,-417.48 1340.55,-382.27 1340.55,-252.5 1340.55,-252.5 1340.55,-252.5 1340.55,-195.5 1340.55,-156.03 1346.81,-135.34 1316.55,-110 1287.26,-85.48 1045.67,-72.73 926.08,-67.87"/>
<polygon fill="#63b8ff" stroke="#63b8ff" points="926.08,-64.37 915.95,-67.47 925.8,-71.36 926.08,-64.37"/>
</g>
<!-- Node5 -->
<g id="node5" class="node">
<title>Node5</title>
<g id="a_node5"><a xlink:href="rewardEffectFactory_8h.html" target="_top" xlink:title=" ">
<polygon fill="white" stroke="#666666" points="1073.05,-448 906.05,-448 906.05,-429 1073.05,-429 1073.05,-448"/>
<text text-anchor="middle" x="989.55" y="-436" font-family="Helvetica,sans-Serif" font-size="10.00">factories/rewardEffectFactory.h</text>
</a>
</g>
</g>
<!-- Node2&#45;&gt;Node5 -->
<g id="edge4" class="edge">
<title>Node2&#45;&gt;Node5</title>
<path fill="none" stroke="#63b8ff" d="M1079.53,-538.66C1063.08,-520.54 1025.31,-478.91 1004.31,-455.77"/>
<polygon fill="#63b8ff" stroke="#63b8ff" points="1006.72,-453.21 997.41,-448.16 1001.53,-457.92 1006.72,-453.21"/>
</g>
<!-- Node6 -->
<g id="node6" class="node">
<title>Node6</title>
<g id="a_node6"><a xlink:title=" ">
<polygon fill="#e0e0e0" stroke="#999999" points="1172.55,-387.5 1062.55,-387.5 1062.55,-368.5 1172.55,-368.5 1172.55,-387.5"/>
<text text-anchor="middle" x="1117.55" y="-375.5" font-family="Helvetica,sans-Serif" font-size="10.00">nlohmann/json.hpp</text>
</a>
</g>
</g>
<!-- Node2&#45;&gt;Node6 -->
<g id="edge62" class="edge">
<title>Node2&#45;&gt;Node6</title>
<path fill="none" stroke="#63b8ff" d="M1089.08,-538.91C1093.71,-512.89 1107.67,-434.47 1114.16,-398.01"/>
<polygon fill="#63b8ff" stroke="#63b8ff" points="1117.68,-398.23 1115.99,-387.77 1110.79,-397 1117.68,-398.23"/>
</g>
<!-- Node7 -->
<g id="node7" class="node">
<title>Node7</title>
<g id="a_node7"><a xlink:title=" ">
<polygon fill="#e0e0e0" stroke="#999999" points="236.05,-387.5 143.05,-387.5 143.05,-368.5 236.05,-368.5 236.05,-387.5"/>
<text text-anchor="middle" x="189.55" y="-375.5" font-family="Helvetica,sans-Serif" font-size="10.00">unordered_map</text>
</a>
</g>
</g>
<!-- Node2&#45;&gt;Node7 -->
<g id="edge63" class="edge">
<title>Node2&#45;&gt;Node7</title>
<path fill="none" stroke="#63b8ff" d="M1041.45,-546.48C886.87,-542.4 388.85,-523.53 250.55,-448 228.5,-435.96 210.53,-412.7 199.94,-396.53"/>
<polygon fill="#63b8ff" stroke="#63b8ff" points="202.86,-394.59 194.59,-387.97 196.93,-398.3 202.86,-394.59"/>
</g>
<!-- Node14 -->
<g id="node14" class="node">
<title>Node14</title>
<g id="a_node14"><a xlink:href="rewardEffectData_8h.html" target="_top" xlink:title=" ">
<polygon fill="white" stroke="#666666" points="1274.55,-151 1118.55,-151 1118.55,-110 1274.55,-110 1274.55,-151"/>
<text text-anchor="start" x="1126.55" y="-139" font-family="Helvetica,sans-Serif" font-size="10.00">game_events/rewards</text>
<text text-anchor="start" x="1126.55" y="-128" font-family="Helvetica,sans-Serif" font-size="10.00">/reward_effects/rewardEffect</text>
<text text-anchor="middle" x="1196.55" y="-117" font-family="Helvetica,sans-Serif" font-size="10.00">Data.h</text>
</a>
</g>
</g>
<!-- Node2&#45;&gt;Node14 -->
<g id="edge61" class="edge">
<title>Node2&#45;&gt;Node14</title>
<path fill="none" stroke="#63b8ff" d="M1108.54,-538.89C1141.22,-523.93 1200.55,-489.84 1200.55,-439.5 1200.55,-439.5 1200.55,-439.5 1200.55,-250.5 1200.55,-220.21 1199.24,-185.6 1198.12,-161.54"/>
<polygon fill="#63b8ff" stroke="#63b8ff" points="1201.6,-161.1 1197.62,-151.29 1194.61,-161.44 1201.6,-161.1"/>
</g>
<!-- Node15 -->
<g id="node15" class="node">
<title>Node15</title>
<g id="a_node15"><a xlink:title=" ">
<polygon fill="#e0e0e0" stroke="#999999" points="379.05,-74 332.05,-74 332.05,-55 379.05,-55 379.05,-74"/>
<text text-anchor="middle" x="355.55" y="-62" font-family="Helvetica,sans-Serif" font-size="10.00">vector</text>
</a>
</g>
</g>
<!-- Node2&#45;&gt;Node15 -->
<g id="edge64" class="edge">
<title>Node2&#45;&gt;Node15</title>
<path fill="none" stroke="#63b8ff" d="M1041.46,-547.67C839,-547.8 38.55,-541.85 38.55,-439.5 38.55,-439.5 38.55,-439.5 38.55,-195.5 38.55,-141.92 76.24,-135.17 123.55,-110 187.87,-75.78 274.65,-67.62 321.74,-65.84"/>
<polygon fill="#63b8ff" stroke="#63b8ff" points="322.1,-69.33 331.99,-65.53 321.89,-62.33 322.1,-69.33"/>
</g>
<!-- Node26 -->
<g id="node26" class="node">
<title>Node26</title>
<g id="a_node26"><a xlink:href="rewardOption_8h.html" target="_top" xlink:title=" ">
<polygon fill="white" stroke="#666666" points="708.55,-503 616.55,-503 616.55,-484 708.55,-484 708.55,-503"/>
<text text-anchor="middle" x="662.55" y="-491" font-family="Helvetica,sans-Serif" font-size="10.00">rewardOption.h</text>
</a>
</g>
</g>
<!-- Node2&#45;&gt;Node26 -->
<g id="edge53" class="edge">
<title>Node2&#45;&gt;Node26</title>
<path fill="none" stroke="#63b8ff" d="M1041.26,-541.73C962.7,-531.93 803.57,-512.09 718.75,-501.51"/>
<polygon fill="#63b8ff" stroke="#63b8ff" points="719.14,-498.03 708.78,-500.27 718.27,-504.98 719.14,-498.03"/>
</g>
<!-- Node4 -->
<g id="node4" class="node">
<title>Node4</title>
<g id="a_node4"><a xlink:title=" ">
<polygon fill="#e0e0e0" stroke="#999999" points="132.55,-19 76.55,-19 76.55,0 132.55,0 132.55,-19"/>
<text text-anchor="middle" x="104.55" y="-7" font-family="Helvetica,sans-Serif" font-size="10.00">optional</text>
</a>
</g>
</g>
<!-- Node3&#45;&gt;Node4 -->
<g id="edge3" class="edge">
<title>Node3&#45;&gt;Node4</title>
<path fill="none" stroke="#63b8ff" d="M803.31,-59.25C784.9,-57.87 764.35,-56.35 745.55,-55 516.89,-38.54 242.26,-19.83 142.83,-13.09"/>
<polygon fill="#63b8ff" stroke="#63b8ff" points="142.88,-9.58 132.67,-12.4 142.41,-16.57 142.88,-9.58"/>
</g>
<!-- Node5&#45;&gt;Node6 -->
<g id="edge5" class="edge">
<title>Node5&#45;&gt;Node6</title>
<path fill="none" stroke="#63b8ff" d="M1008.16,-428.99C1029.59,-419.2 1064.99,-403.02 1089.7,-391.73"/>
<polygon fill="#63b8ff" stroke="#63b8ff" points="1091.27,-394.86 1098.91,-387.52 1088.36,-388.49 1091.27,-394.86"/>
</g>
<!-- Node5&#45;&gt;Node7 -->
<g id="edge6" class="edge">
<title>Node5&#45;&gt;Node7</title>
<path fill="none" stroke="#63b8ff" d="M905.82,-431.38C742.43,-419.43 384.93,-393.29 246.18,-383.14"/>
<polygon fill="#63b8ff" stroke="#63b8ff" points="246.41,-379.65 236.18,-382.41 245.9,-386.63 246.41,-379.65"/>
</g>
<!-- Node8 -->
<g id="node8" class="node">
<title>Node8</title>
<g id="a_node8"><a xlink:href="rewardEffect_8h.html" target="_top" xlink:title=" ">
<polygon fill="white" stroke="#666666" points="1006.05,-393 841.05,-393 841.05,-363 1006.05,-363 1006.05,-393"/>
<text text-anchor="start" x="849.05" y="-381" font-family="Helvetica,sans-Serif" font-size="10.00">game_events/rewards</text>
<text text-anchor="middle" x="923.55" y="-370" font-family="Helvetica,sans-Serif" font-size="10.00">/reward_effects/rewardEffect.h</text>
</a>
</g>
</g>
<!-- Node5&#45;&gt;Node8 -->
<g id="edge7" class="edge">
<title>Node5&#45;&gt;Node8</title>
<path fill="none" stroke="#63b8ff" d="M979.81,-428.87C971.19,-421.22 958.25,-409.76 946.96,-399.75"/>
<polygon fill="#63b8ff" stroke="#63b8ff" points="949.28,-397.13 939.47,-393.11 944.64,-402.37 949.28,-397.13"/>
</g>
<!-- Node5&#45;&gt;Node14 -->
<g id="edge52" class="edge">
<title>Node5&#45;&gt;Node14</title>
<path fill="none" stroke="#63b8ff" d="M995.3,-429C1021.8,-389.83 1132.7,-225.88 1177.58,-159.54"/>
<polygon fill="#63b8ff" stroke="#63b8ff" points="1180.51,-161.46 1183.21,-151.22 1174.71,-157.54 1180.51,-161.46"/>
</g>
<!-- Node9 -->
<g id="node9" class="node">
<title>Node9</title>
<g id="a_node9"><a xlink:href="rewardContext_8h.html" target="_top" xlink:title=" ">
<polygon fill="white" stroke="#666666" points="818.05,-327 693.05,-327 693.05,-297 818.05,-297 818.05,-327"/>
<text text-anchor="start" x="701.05" y="-315" font-family="Helvetica,sans-Serif" font-size="10.00">game_events/rewards</text>
<text text-anchor="middle" x="755.55" y="-304" font-family="Helvetica,sans-Serif" font-size="10.00">/rewardContext.h</text>
</a>
</g>
</g>
<!-- Node8&#45;&gt;Node9 -->
<g id="edge8" class="edge">
<title>Node8&#45;&gt;Node9</title>
<path fill="none" stroke="#63b8ff" d="M886.68,-362.95C861.73,-353.45 828.59,-340.82 801.86,-330.64"/>
<polygon fill="#63b8ff" stroke="#63b8ff" points="802.92,-327.3 792.33,-327.01 800.43,-333.84 802.92,-327.3"/>
</g>
<!-- Node8&#45;&gt;Node14 -->
<g id="edge51" class="edge">
<title>Node8&#45;&gt;Node14</title>
<path fill="none" stroke="#63b8ff" d="M939.41,-362.74C983.75,-322.86 1109.54,-209.74 1167.12,-157.96"/>
<polygon fill="#63b8ff" stroke="#63b8ff" points="1169.68,-160.37 1174.78,-151.08 1165,-155.16 1169.68,-160.37"/>
</g>
<!-- Node10 -->
<g id="node10" class="node">
<title>Node10</title>
<g id="a_node10"><a xlink:href="player_8h.html" target="_top" xlink:title=" ">
<polygon fill="white" stroke="#666666" points="789.05,-261 694.05,-261 694.05,-242 789.05,-242 789.05,-261"/>
<text text-anchor="middle" x="741.55" y="-249" font-family="Helvetica,sans-Serif" font-size="10.00">entities/player.h</text>
</a>
</g>
</g>
<!-- Node9&#45;&gt;Node10 -->
<g id="edge9" class="edge">
<title>Node9&#45;&gt;Node10</title>
<path fill="none" stroke="#63b8ff" d="M752.16,-296.84C750.31,-289.13 748.01,-279.49 746.02,-271.17"/>
<polygon fill="#63b8ff" stroke="#63b8ff" points="749.38,-270.18 743.65,-261.27 742.57,-271.81 749.38,-270.18"/>
</g>
<!-- Node21 -->
<g id="node21" class="node">
<title>Node21</title>
<g id="a_node21"><a xlink:href="ICardFactory_8h.html" target="_top" xlink:title=" ">
<polygon fill="white" stroke="#666666" points="1058.05,-206 927.05,-206 927.05,-187 1058.05,-187 1058.05,-206"/>
<text text-anchor="middle" x="992.55" y="-194" font-family="Helvetica,sans-Serif" font-size="10.00">factories/ICardFactory.h</text>
</a>
</g>
</g>
<!-- Node9&#45;&gt;Node21 -->
<g id="edge32" class="edge">
<title>Node9&#45;&gt;Node21</title>
<path fill="none" stroke="#63b8ff" d="M785.09,-296.85C831.44,-274.65 920.61,-231.95 965.42,-210.49"/>
<polygon fill="#63b8ff" stroke="#63b8ff" points="967.03,-213.6 974.54,-206.12 964.01,-207.29 967.03,-213.6"/>
</g>
<!-- Node22 -->
<g id="node22" class="node">
<title>Node22</title>
<g id="a_node22"><a xlink:href="IRewardView_8h.html" target="_top" xlink:title=" ">
<polygon fill="white" stroke="#666666" points="334.05,-261 233.05,-261 233.05,-242 334.05,-242 334.05,-261"/>
<text text-anchor="middle" x="283.55" y="-249" font-family="Helvetica,sans-Serif" font-size="10.00">ui/IRewardView.h</text>
</a>
</g>
</g>
<!-- Node9&#45;&gt;Node22 -->
<g id="edge37" class="edge">
<title>Node9&#45;&gt;Node22</title>
<path fill="none" stroke="#63b8ff" d="M692.87,-303.23C601.84,-291.95 434.13,-271.16 344.23,-260.02"/>
<polygon fill="#63b8ff" stroke="#63b8ff" points="344.55,-256.53 334.2,-258.78 343.69,-263.48 344.55,-256.53"/>
</g>
<!-- Node11 -->
<g id="node11" class="node">
<title>Node11</title>
<g id="a_node11"><a xlink:href="deckEntry_8h.html" target="_top" xlink:title=" ">
<polygon fill="white" stroke="#666666" points="948.05,-140 849.05,-140 849.05,-121 948.05,-121 948.05,-140"/>
<text text-anchor="middle" x="898.55" y="-128" font-family="Helvetica,sans-Serif" font-size="10.00">deck/deckEntry.h</text>
</a>
</g>
</g>
<!-- Node10&#45;&gt;Node11 -->
<g id="edge10" class="edge">
<title>Node10&#45;&gt;Node11</title>
<path fill="none" stroke="#63b8ff" d="M767.44,-241.91C787.56,-234.44 815.5,-222.25 836.55,-206 857.48,-189.84 876.08,-165.45 887.32,-149.02"/>
<polygon fill="#63b8ff" stroke="#63b8ff" points="890.43,-150.65 893.05,-140.39 884.6,-146.78 890.43,-150.65"/>
</g>
<!-- Node10&#45;&gt;Node12 -->
<g id="edge29" class="edge">
<title>Node10&#45;&gt;Node12</title>
<path fill="none" stroke="#63b8ff" d="M761.75,-241.91C776.02,-234.64 794.05,-222.71 802.55,-206 806.38,-198.47 804.51,-195.21 802.55,-187 793.64,-149.69 786.8,-140.51 763.55,-110 755.15,-98.97 743.78,-88.45 734.11,-80.42"/>
<polygon fill="#63b8ff" stroke="#63b8ff" points="736.15,-77.57 726.16,-74.04 731.77,-83.03 736.15,-77.57"/>
</g>
<!-- Node13 -->
<g id="node13" class="node">
<title>Node13</title>
<g id="a_node13"><a xlink:href="deckPlayer_8h.html" target="_top" xlink:title=" ">
<polygon fill="white" stroke="#666666" points="794.05,-206 689.05,-206 689.05,-187 794.05,-187 794.05,-206"/>
<text text-anchor="middle" x="741.55" y="-194" font-family="Helvetica,sans-Serif" font-size="10.00">deck/deckPlayer.h</text>
</a>
</g>
</g>
<!-- Node10&#45;&gt;Node13 -->
<g id="edge13" class="edge">
<title>Node10&#45;&gt;Node13</title>
<path fill="none" stroke="#63b8ff" d="M741.55,-241.75C741.55,-234.8 741.55,-224.85 741.55,-216.13"/>
<polygon fill="#63b8ff" stroke="#63b8ff" points="745.05,-216.09 741.55,-206.09 738.05,-216.09 745.05,-216.09"/>
</g>
<!-- Node10&#45;&gt;Node15 -->
<g id="edge31" class="edge">
<title>Node10&#45;&gt;Node15</title>
<path fill="none" stroke="#63b8ff" d="M730.38,-241.85C712.4,-228.31 675.53,-202.13 640.55,-187 582.37,-161.84 556.02,-185.04 502.55,-151 482.58,-138.29 487.72,-123.89 468.55,-110 444.49,-92.58 412.69,-80.85 388.96,-73.83"/>
<polygon fill="#63b8ff" stroke="#63b8ff" points="389.9,-70.46 379.33,-71.11 388,-77.2 389.9,-70.46"/>
</g>
<!-- Node18 -->
<g id="node18" class="node">
<title>Node18</title>
<g id="a_node18"><a xlink:title=" ">
<polygon fill="#e0e0e0" stroke="#999999" points="460.05,-140 387.05,-140 387.05,-121 460.05,-121 460.05,-140"/>
<text text-anchor="middle" x="423.55" y="-128" font-family="Helvetica,sans-Serif" font-size="10.00">string_view</text>
</a>
</g>
</g>
<!-- Node10&#45;&gt;Node18 -->
<g id="edge30" class="edge">
<title>Node10&#45;&gt;Node18</title>
<path fill="none" stroke="#63b8ff" d="M697.97,-241.99C662.71,-234.45 612.09,-222.13 569.55,-206 545.71,-196.96 483.74,-164.09 448.67,-145.16"/>
<polygon fill="#63b8ff" stroke="#63b8ff" points="450.01,-141.91 439.55,-140.23 446.68,-148.07 450.01,-141.91"/>
</g>
<!-- Node20 -->
<g id="node20" class="node">
<title>Node20</title>
<g id="a_node20"><a xlink:href="entity_8h.html" target="_top" xlink:title=" ">
<polygon fill="white" stroke="#666666" points="632.05,-206 579.05,-206 579.05,-187 632.05,-187 632.05,-206"/>
<text text-anchor="middle" x="605.55" y="-194" font-family="Helvetica,sans-Serif" font-size="10.00">entity.h</text>
</a>
</g>
</g>
<!-- Node10&#45;&gt;Node20 -->
<g id="edge26" class="edge">
<title>Node10&#45;&gt;Node20</title>
<path fill="none" stroke="#63b8ff" d="M719.7,-241.98C697.43,-233.3 662.65,-219.75 637.33,-209.88"/>
<polygon fill="#63b8ff" stroke="#63b8ff" points="638.39,-206.54 627.8,-206.17 635.84,-213.06 638.39,-206.54"/>
</g>
<!-- Node11&#45;&gt;Node3 -->
<g id="edge11" class="edge">
<title>Node11&#45;&gt;Node3</title>
<path fill="none" stroke="#63b8ff" d="M893.29,-120.87C887.45,-111.28 877.86,-95.55 870.4,-83.3"/>
<polygon fill="#63b8ff" stroke="#63b8ff" points="873.17,-81.12 864.98,-74.41 867.19,-84.77 873.17,-81.12"/>
</g>
<!-- Node11&#45;&gt;Node12 -->
<g id="edge12" class="edge">
<title>Node11&#45;&gt;Node12</title>
<path fill="none" stroke="#63b8ff" d="M873.73,-120.87C840.74,-109.39 782.39,-89.1 746.24,-76.52"/>
<polygon fill="#63b8ff" stroke="#63b8ff" points="747.27,-73.18 736.68,-73.2 744.97,-79.79 747.27,-73.18"/>
</g>
<!-- Node13&#45;&gt;Node3 -->
<g id="edge14" class="edge">
<title>Node13&#45;&gt;Node3</title>
<path fill="none" stroke="#63b8ff" d="M749.29,-186.97C768.62,-165.67 819.26,-109.88 844.63,-81.94"/>
<polygon fill="#63b8ff" stroke="#63b8ff" points="847.49,-83.99 851.62,-74.23 842.31,-79.28 847.49,-83.99"/>
</g>
<!-- Node13&#45;&gt;Node11 -->
<g id="edge15" class="edge">
<title>Node13&#45;&gt;Node11</title>
<path fill="none" stroke="#63b8ff" d="M762.72,-186.87C789.84,-175.82 837.01,-156.58 868.01,-143.95"/>
<polygon fill="#63b8ff" stroke="#63b8ff" points="869.52,-147.11 877.46,-140.1 866.88,-140.63 869.52,-147.11"/>
</g>
<!-- Node13&#45;&gt;Node12 -->
<g id="edge22" class="edge">
<title>Node13&#45;&gt;Node12</title>
<path fill="none" stroke="#63b8ff" d="M723.78,-186.96C710.54,-179.51 693.43,-167.33 685.55,-151 677.63,-134.59 680.36,-127.47 685.55,-110 688.53,-99.98 694.55,-90.11 700.34,-82.22"/>
<polygon fill="#63b8ff" stroke="#63b8ff" points="703.18,-84.28 706.61,-74.25 697.67,-79.95 703.18,-84.28"/>
</g>
<!-- Node13&#45;&gt;Node14 -->
<g id="edge16" class="edge">
<title>Node13&#45;&gt;Node14</title>
<path fill="none" stroke="#63b8ff" d="M794.19,-188.1C871.04,-177.29 1014.93,-157.05 1108.18,-143.93"/>
<polygon fill="#63b8ff" stroke="#63b8ff" points="1108.75,-147.38 1118.17,-142.52 1107.78,-140.45 1108.75,-147.38"/>
</g>
<!-- Node13&#45;&gt;Node15 -->
<g id="edge25" class="edge">
<title>Node13&#45;&gt;Node15</title>
<path fill="none" stroke="#63b8ff" d="M703.53,-186.99C671.09,-179.21 623.51,-166.57 583.55,-151 545.95,-136.35 540,-125.01 502.55,-110 464.58,-94.78 419.33,-81.82 389.16,-73.88"/>
<polygon fill="#63b8ff" stroke="#63b8ff" points="389.71,-70.41 379.15,-71.28 387.95,-77.18 389.71,-70.41"/>
</g>
<!-- Node16 -->
<g id="node16" class="node">
<title>Node16</title>
<g id="a_node16"><a xlink:title=" ">
<polygon fill="#e0e0e0" stroke="#999999" points="754.55,-140 694.55,-140 694.55,-121 754.55,-121 754.55,-140"/>
<text text-anchor="middle" x="724.55" y="-128" font-family="Helvetica,sans-Serif" font-size="10.00">iostream</text>
</a>
</g>
</g>
<!-- Node13&#45;&gt;Node16 -->
<g id="edge20" class="edge">
<title>Node13&#45;&gt;Node16</title>
<path fill="none" stroke="#63b8ff" d="M739.26,-186.87C736.79,-177.57 732.78,-162.48 729.57,-150.4"/>
<polygon fill="#63b8ff" stroke="#63b8ff" points="732.86,-149.17 726.91,-140.41 726.1,-150.97 732.86,-149.17"/>
</g>
<!-- Node17 -->
<g id="node17" class="node">
<title>Node17</title>
<g id="a_node17"><a xlink:title=" ">
<polygon fill="#e0e0e0" stroke="#999999" points="1024.55,-140 966.55,-140 966.55,-121 1024.55,-121 1024.55,-140"/>
<text text-anchor="middle" x="995.55" y="-128" font-family="Helvetica,sans-Serif" font-size="10.00">memory</text>
</a>
</g>
</g>
<!-- Node13&#45;&gt;Node17 -->
<g id="edge21" class="edge">
<title>Node13&#45;&gt;Node17</title>
<path fill="none" stroke="#63b8ff" d="M794.27,-188.5C838.43,-181.71 902.71,-169.67 956.55,-151 961.6,-149.25 966.84,-146.97 971.77,-144.6"/>
<polygon fill="#63b8ff" stroke="#63b8ff" points="973.43,-147.69 980.76,-140.04 970.26,-141.45 973.43,-147.69"/>
</g>
<!-- Node13&#45;&gt;Node18 -->
<g id="edge23" class="edge">
<title>Node13&#45;&gt;Node18</title>
<path fill="none" stroke="#63b8ff" d="M698.99,-186.94C639.51,-174.96 531.91,-153.31 470.28,-140.9"/>
<polygon fill="#63b8ff" stroke="#63b8ff" points="470.92,-137.46 460.43,-138.92 469.54,-144.33 470.92,-137.46"/>
</g>
<!-- Node19 -->
<g id="node19" class="node">
<title>Node19</title>
<g id="a_node19"><a xlink:title=" ">
<polygon fill="#e0e0e0" stroke="#999999" points="638.05,-140 593.05,-140 593.05,-121 638.05,-121 638.05,-140"/>
<text text-anchor="middle" x="615.55" y="-128" font-family="Helvetica,sans-Serif" font-size="10.00">utility</text>
</a>
</g>
</g>
<!-- Node13&#45;&gt;Node19 -->
<g id="edge24" class="edge">
<title>Node13&#45;&gt;Node19</title>
<path fill="none" stroke="#63b8ff" d="M724.1,-186.91C706.11,-178.03 677.29,-163.7 652.55,-151 648.7,-149.02 644.63,-146.91 640.66,-144.83"/>
<polygon fill="#63b8ff" stroke="#63b8ff" points="642.2,-141.68 631.72,-140.12 638.94,-147.87 642.2,-141.68"/>
</g>
<!-- Node14&#45;&gt;Node3 -->
<g id="edge17" class="edge">
<title>Node14&#45;&gt;Node3</title>
<path fill="none" stroke="#63b8ff" d="M1118.28,-112.75C1113.64,-111.81 1109.03,-110.88 1104.55,-110 1041.25,-97.55 968.51,-84.49 918.83,-75.77"/>
<polygon fill="#63b8ff" stroke="#63b8ff" points="919.36,-72.31 908.9,-74.03 918.15,-79.2 919.36,-72.31"/>
</g>
<!-- Node14&#45;&gt;Node12 -->
<g id="edge18" class="edge">
<title>Node14&#45;&gt;Node12</title>
<path fill="none" stroke="#63b8ff" d="M1118.35,-112.4C1113.69,-111.54 1109.06,-110.73 1104.55,-110 1069.56,-104.31 833.81,-78.47 746.76,-69"/>
<polygon fill="#63b8ff" stroke="#63b8ff" points="746.99,-65.5 736.67,-67.9 746.23,-72.46 746.99,-65.5"/>
</g>
<!-- Node14&#45;&gt;Node15 -->
<g id="edge19" class="edge">
<title>Node14&#45;&gt;Node15</title>
<path fill="none" stroke="#63b8ff" d="M1118.32,-116.65C1101.29,-114.16 1083.34,-111.78 1066.55,-110 806.71,-82.43 491.49,-70.06 389.28,-66.58"/>
<polygon fill="#63b8ff" stroke="#63b8ff" points="389.35,-63.08 379.24,-66.24 389.12,-70.07 389.35,-63.08"/>
</g>
<!-- Node20&#45;&gt;Node12 -->
<g id="edge27" class="edge">
<title>Node20&#45;&gt;Node12</title>
<path fill="none" stroke="#63b8ff" d="M598.9,-186.63C587.35,-170.06 566.41,-133.92 583.55,-110 605.82,-78.91 651.07,-69.28 682.09,-66.44"/>
<polygon fill="#63b8ff" stroke="#63b8ff" points="682.69,-69.91 692.41,-65.7 682.18,-62.93 682.69,-69.91"/>
</g>
<!-- Node20&#45;&gt;Node18 -->
<g id="edge28" class="edge">
<title>Node20&#45;&gt;Node18</title>
<path fill="none" stroke="#63b8ff" d="M579.35,-186.92C552.83,-178.17 510.7,-164.05 474.55,-151 468.23,-148.72 461.5,-146.21 455.07,-143.77"/>
<polygon fill="#63b8ff" stroke="#63b8ff" points="455.91,-140.34 445.32,-140.03 453.41,-146.88 455.91,-140.34"/>
</g>
<!-- Node21&#45;&gt;Node11 -->
<g id="edge33" class="edge">
<title>Node21&#45;&gt;Node11</title>
<path fill="none" stroke="#63b8ff" d="M979.87,-186.87C964.45,-176.37 938.2,-158.5 919.7,-145.9"/>
<polygon fill="#63b8ff" stroke="#63b8ff" points="921.56,-142.93 911.33,-140.2 917.62,-148.72 921.56,-142.93"/>
</g>
<!-- Node21&#45;&gt;Node12 -->
<g id="edge35" class="edge">
<title>Node21&#45;&gt;Node12</title>
<path fill="none" stroke="#63b8ff" d="M1019.84,-186.88C1036.55,-180.03 1056.59,-168.62 1066.55,-151 1075.52,-135.14 1078.6,-123.67 1066.55,-110 1061.26,-104 832.56,-78.41 746.68,-69"/>
<polygon fill="#63b8ff" stroke="#63b8ff" points="747.03,-65.51 736.71,-67.9 746.27,-72.47 747.03,-65.51"/>
</g>
<!-- Node21&#45;&gt;Node15 -->
<g id="edge36" class="edge">
<title>Node21&#45;&gt;Node15</title>
<path fill="none" stroke="#63b8ff" d="M1004.48,-186.8C1014.38,-178.77 1027.74,-165.87 1033.55,-151 1040.18,-134.03 1046,-123.3 1033.55,-110 1011.3,-86.24 523.19,-70.37 389.27,-66.45"/>
<polygon fill="#63b8ff" stroke="#63b8ff" points="389.28,-62.95 379.18,-66.15 389.08,-69.94 389.28,-62.95"/>
</g>
<!-- Node21&#45;&gt;Node17 -->
<g id="edge34" class="edge">
<title>Node21&#45;&gt;Node17</title>
<path fill="none" stroke="#63b8ff" d="M992.95,-186.87C993.39,-177.57 994.1,-162.48 994.66,-150.4"/>
<polygon fill="#63b8ff" stroke="#63b8ff" points="998.16,-150.56 995.13,-140.41 991.17,-150.23 998.16,-150.56"/>
</g>
<!-- Node22&#45;&gt;Node12 -->
<g id="edge48" class="edge">
<title>Node22&#45;&gt;Node12</title>
<path fill="none" stroke="#63b8ff" d="M273.39,-241.81C264.64,-233.6 252.65,-220.43 247.55,-206 244.73,-198.04 244.97,-195.04 247.55,-187 260.38,-146.95 266.24,-131.23 302.55,-110 366.87,-72.39 596.84,-66.51 682.28,-65.63"/>
<polygon fill="#63b8ff" stroke="#63b8ff" points="682.46,-69.13 692.43,-65.55 682.4,-62.13 682.46,-69.13"/>
</g>
<!-- Node22&#45;&gt;Node15 -->
<g id="edge50" class="edge">
<title>Node22&#45;&gt;Node15</title>
<path fill="none" stroke="#63b8ff" d="M259.08,-241.86C243.28,-234.85 223.96,-223.27 214.55,-206 210.51,-198.59 211.53,-194.89 214.55,-187 234.6,-134.58 292.34,-97.37 327.4,-78.85"/>
<polygon fill="#63b8ff" stroke="#63b8ff" points="329.33,-81.8 336.64,-74.13 326.14,-75.56 329.33,-81.8"/>
</g>
<!-- Node22&#45;&gt;Node18 -->
<g id="edge49" class="edge">
<title>Node22&#45;&gt;Node18</title>
<path fill="none" stroke="#63b8ff" d="M334.31,-244.17C379.23,-237.39 439.87,-224.99 454.55,-206 468.27,-188.26 452.7,-163.57 439.12,-147.56"/>
<polygon fill="#63b8ff" stroke="#63b8ff" points="441.65,-145.15 432.36,-140.07 436.46,-149.84 441.65,-145.15"/>
</g>
<!-- Node23 -->
<g id="node23" class="node">
<title>Node23</title>
<g id="a_node23"><a xlink:href="cardInstance_8h.html" target="_top" xlink:title=" ">
<polygon fill="white" stroke="#666666" points="446.05,-206 329.05,-206 329.05,-187 446.05,-187 446.05,-206"/>
<text text-anchor="middle" x="387.55" y="-194" font-family="Helvetica,sans-Serif" font-size="10.00">cards/cardInstance.h</text>
</a>
</g>
</g>
<!-- Node22&#45;&gt;Node23 -->
<g id="edge38" class="edge">
<title>Node22&#45;&gt;Node23</title>
<path fill="none" stroke="#63b8ff" d="M300.26,-241.98C316.76,-233.57 342.25,-220.59 361.43,-210.81"/>
<polygon fill="#63b8ff" stroke="#63b8ff" points="363.21,-213.83 370.54,-206.17 360.04,-207.59 363.21,-213.83"/>
</g>
<!-- Node24 -->
<g id="node24" class="node">
<title>Node24</title>
<g id="a_node24"><a xlink:href="matchData_8h.html" target="_top" xlink:title=" ">
<polygon fill="white" stroke="#666666" points="180.55,-74 28.55,-74 28.55,-55 180.55,-55 180.55,-74"/>
<text text-anchor="middle" x="104.55" y="-62" font-family="Helvetica,sans-Serif" font-size="10.00">game_system/matchData.h</text>
</a>
</g>
</g>
<!-- Node22&#45;&gt;Node24 -->
<g id="edge41" class="edge">
<title>Node22&#45;&gt;Node24</title>
<path fill="none" stroke="#63b8ff" d="M264.61,-241.92C248.56,-234.05 225.52,-221.32 208.55,-206 166.64,-168.15 130.71,-111.1 114.21,-82.76"/>
<polygon fill="#63b8ff" stroke="#63b8ff" points="117.21,-80.95 109.21,-74 111.13,-84.42 117.21,-80.95"/>
</g>
<!-- Node25 -->
<g id="node25" class="node">
<title>Node25</title>
<g id="a_node25"><a xlink:href="iotext_8h.html" target="_top" xlink:title=" ">
<polygon fill="white" stroke="#666666" points="310.55,-206 256.55,-206 256.55,-187 310.55,-187 310.55,-206"/>
<text text-anchor="middle" x="283.55" y="-194" font-family="Helvetica,sans-Serif" font-size="10.00">iotext.h</text>
</a>
</g>
</g>
<!-- Node22&#45;&gt;Node25 -->
<g id="edge43" class="edge">
<title>Node22&#45;&gt;Node25</title>
<path fill="none" stroke="#63b8ff" d="M283.55,-241.75C283.55,-234.8 283.55,-224.85 283.55,-216.13"/>
<polygon fill="#63b8ff" stroke="#63b8ff" points="287.05,-216.09 283.55,-206.09 280.05,-216.09 287.05,-216.09"/>
</g>
<!-- Node23&#45;&gt;Node3 -->
<g id="edge39" class="edge">
<title>Node23&#45;&gt;Node3</title>
<path fill="none" stroke="#63b8ff" d="M382.77,-186.92C373.99,-169.87 357.91,-131.53 377.55,-110 384.47,-102.41 662.49,-80.42 793.07,-70.48"/>
<polygon fill="#63b8ff" stroke="#63b8ff" points="793.64,-73.95 803.35,-69.7 793.11,-66.97 793.64,-73.95"/>
</g>
<!-- Node23&#45;&gt;Node18 -->
<g id="edge40" class="edge">
<title>Node23&#45;&gt;Node18</title>
<path fill="none" stroke="#63b8ff" d="M392.4,-186.87C397.8,-177.28 406.65,-161.55 413.54,-149.3"/>
<polygon fill="#63b8ff" stroke="#63b8ff" points="416.69,-150.84 418.54,-140.41 410.59,-147.41 416.69,-150.84"/>
</g>
<!-- Node24&#45;&gt;Node4 -->
<g id="edge42" class="edge">
<title>Node24&#45;&gt;Node4</title>
<path fill="none" stroke="#63b8ff" d="M104.55,-54.75C104.55,-47.8 104.55,-37.85 104.55,-29.13"/>
<polygon fill="#63b8ff" stroke="#63b8ff" points="108.05,-29.09 104.55,-19.09 101.05,-29.09 108.05,-29.09"/>
</g>
<!-- Node25&#45;&gt;Node12 -->
<g id="edge45" class="edge">
<title>Node25&#45;&gt;Node12</title>
<path fill="none" stroke="#63b8ff" d="M286.85,-186.89C294.19,-169.08 313.65,-128.33 344.55,-110 401.28,-76.35 602.38,-68.07 681.87,-66.1"/>
<polygon fill="#63b8ff" stroke="#63b8ff" points="682.34,-69.59 692.25,-65.86 682.18,-62.59 682.34,-69.59"/>
</g>
<!-- Node25&#45;&gt;Node15 -->
<g id="edge47" class="edge">
<title>Node25&#45;&gt;Node15</title>
<path fill="none" stroke="#63b8ff" d="M283.39,-186.8C283.47,-170.53 285.52,-134.87 300.55,-110 308.02,-97.64 320.22,-87.25 331.24,-79.62"/>
<polygon fill="#63b8ff" stroke="#63b8ff" points="333.24,-82.5 339.72,-74.11 329.42,-76.63 333.24,-82.5"/>
</g>
<!-- Node25&#45;&gt;Node16 -->
<g id="edge44" class="edge">
<title>Node25&#45;&gt;Node16</title>
<path fill="none" stroke="#63b8ff" d="M310.6,-188.74C313.61,-188.1 316.64,-187.5 319.55,-187 463.63,-162.15 502.63,-176.79 646.55,-151 659,-148.77 672.41,-145.67 684.54,-142.61"/>
<polygon fill="#63b8ff" stroke="#63b8ff" points="685.58,-145.95 694.38,-140.05 683.82,-139.18 685.58,-145.95"/>
</g>
<!-- Node25&#45;&gt;Node18 -->
<g id="edge46" class="edge">
<title>Node25&#45;&gt;Node18</title>
<path fill="none" stroke="#63b8ff" d="M302.43,-186.87C326.33,-175.94 367.72,-157.02 395.36,-144.38"/>
<polygon fill="#63b8ff" stroke="#63b8ff" points="396.88,-147.54 404.52,-140.2 393.97,-141.17 396.88,-147.54"/>
</g>
<!-- Node26&#45;&gt;Node4 -->
<g id="edge57" class="edge">
<title>Node26&#45;&gt;Node4</title>
<path fill="none" stroke="#63b8ff" d="M624.77,-483.98C588.2,-475.54 531.31,-461.9 482.55,-448 406.18,-426.23 384.52,-426.56 312.55,-393 275.47,-375.71 0.55,-238.41 0.55,-197.5 0.55,-197.5 0.55,-197.5 0.55,-129.5 0.55,-95.33 -1.65,-81.8 19.55,-55 31.55,-39.82 50.17,-29.25 66.93,-22.24"/>
<polygon fill="#63b8ff" stroke="#63b8ff" points="68.46,-25.4 76.51,-18.51 65.92,-18.87 68.46,-25.4"/>
</g>
<!-- Node26&#45;&gt;Node5 -->
<g id="edge54" class="edge">
<title>Node26&#45;&gt;Node5</title>
<path fill="none" stroke="#63b8ff" d="M708.71,-485.02C765.77,-475.77 863.15,-459.99 926.93,-449.65"/>
<polygon fill="#63b8ff" stroke="#63b8ff" points="927.55,-453.09 936.86,-448.04 926.43,-446.18 927.55,-453.09"/>
</g>
<!-- Node26&#45;&gt;Node8 -->
<g id="edge55" class="edge">
<title>Node26&#45;&gt;Node8</title>
<path fill="none" stroke="#63b8ff" d="M708.62,-484.54C742.36,-477.64 788.68,-465.91 826.55,-448 853.57,-435.23 881.01,-414.87 899.78,-399.57"/>
<polygon fill="#63b8ff" stroke="#63b8ff" points="902.05,-402.23 907.51,-393.15 897.58,-396.84 902.05,-402.23"/>
</g>
<!-- Node26&#45;&gt;Node12 -->
<g id="edge58" class="edge">
<title>Node26&#45;&gt;Node12</title>
<path fill="none" stroke="#63b8ff" d="M630.85,-483.97C603.63,-476.14 563.65,-463.43 530.55,-448 385.74,-380.51 301.8,-400.29 223.55,-261 219.41,-253.64 222.49,-250.38 223.55,-242 231.16,-181.9 211.52,-149.39 257.55,-110 289.73,-82.46 583.46,-69.98 682.28,-66.53"/>
<polygon fill="#63b8ff" stroke="#63b8ff" points="682.67,-70.02 692.55,-66.18 682.43,-63.02 682.67,-70.02"/>
</g>
<!-- Node26&#45;&gt;Node15 -->
<g id="edge60" class="edge">
<title>Node26&#45;&gt;Node15</title>
<path fill="none" stroke="#63b8ff" d="M616.3,-492.71C484.18,-492.06 114.55,-481.14 114.55,-379 114.55,-379 114.55,-379 114.55,-195.5 114.55,-102.32 255.84,-75.62 322.05,-68.22"/>
<polygon fill="#63b8ff" stroke="#63b8ff" points="322.42,-71.7 332,-67.19 321.7,-64.74 322.42,-71.7"/>
</g>
<!-- Node26&#45;&gt;Node17 -->
<g id="edge56" class="edge">
<title>Node26&#45;&gt;Node17</title>
<path fill="none" stroke="#63b8ff" d="M672.5,-483.8C699.2,-460.16 773.99,-392.18 826.55,-327 873.13,-269.23 866.19,-240.57 917.55,-187 933.41,-170.45 954.83,-155.63 971.2,-145.47"/>
<polygon fill="#63b8ff" stroke="#63b8ff" points="973.43,-148.21 980.18,-140.05 969.81,-142.22 973.43,-148.21"/>
</g>
<!-- Node26&#45;&gt;Node18 -->
<g id="edge59" class="edge">
<title>Node26&#45;&gt;Node18</title>
<path fill="none" stroke="#63b8ff" d="M630.74,-483.97C586.71,-470.01 512.55,-437.78 512.55,-379 512.55,-379 512.55,-379 512.55,-250.5 512.55,-205.53 471.29,-166.64 444.96,-146.39"/>
<polygon fill="#63b8ff" stroke="#63b8ff" points="446.8,-143.39 436.68,-140.25 442.63,-149.02 446.8,-143.39"/>
</g>
<!-- Node27&#45;&gt;Node16 -->
<g id="edge68" class="edge">
<title>Node27&#45;&gt;Node16</title>
<path fill="none" stroke="#63b8ff" d="M1352.83,-538.86C1319.29,-488.51 1146.94,-233.42 1066.55,-187 978.09,-135.92 940.35,-167.54 839.55,-151 814.71,-146.92 786.87,-142.21 764.81,-138.44"/>
<polygon fill="#63b8ff" stroke="#63b8ff" points="765.25,-134.96 754.8,-136.72 764.07,-141.86 765.25,-134.96"/>
</g>
<!-- Node28 -->
<g id="node28" class="node">
<title>Node28</title>
<g id="a_node28"><a xlink:title=" ">
<polygon fill="#e0e0e0" stroke="#999999" points="1410.55,-503 1342.55,-503 1342.55,-484 1410.55,-484 1410.55,-503"/>
<text text-anchor="middle" x="1376.55" y="-491" font-family="Helvetica,sans-Serif" font-size="10.00">filesystem</text>
</a>
</g>
</g>
<!-- Node27&#45;&gt;Node28 -->
<g id="edge66" class="edge">
<title>Node27&#45;&gt;Node28</title>
<path fill="none" stroke="#63b8ff" d="M1361.52,-538.75C1363.91,-531.72 1367.34,-521.62 1370.32,-512.84"/>
<polygon fill="#63b8ff" stroke="#63b8ff" points="1373.73,-513.68 1373.63,-503.09 1367.1,-511.43 1373.73,-513.68"/>
</g>
<!-- Node27&#45;&gt;Node29 -->
<g id="edge67" class="edge">
<title>Node27&#45;&gt;Node29</title>
<path fill="none" stroke="#63b8ff" d="M1374.29,-538.98C1389.78,-530.61 1413.64,-517.7 1431.69,-507.95"/>
<polygon fill="#63b8ff" stroke="#63b8ff" points="1433.39,-511.01 1440.52,-503.17 1430.06,-504.85 1433.39,-511.01"/>
</g>
</g>
</svg>
