<?xml version="1.0" encoding="UTF-8" standalone="no"?>
<!DOCTYPE svg PUBLIC "-//W3C//DTD SVG 1.1//EN"
 "http://www.w3.org/Graphics/SVG/1.1/DTD/svg11.dtd">
<!-- Generated by graphviz version 2.43.0 (0)
 -->
<!-- Title: ui/rewardsRenderer.h Pages: 1 -->
<!--zoomable 544 -->
<svg id="main" version="1.1" xmlns="http://www.w3.org/2000/svg" xmlns:xlink="http://www.w3.org/1999/xlink" xml:space="preserve" onload="init(evt)">
<style type="text/css"><![CDATA[
.edge:hover path { stroke: red; }
.edge:hover polygon { stroke: red; fill: red; }
]]></style>
<script type="text/javascript"><![CDATA[
var edges = document.getElementsByTagName('g');
if (edges && edges.length) {
  for (var i=0;i<edges.length;i++) {
    if (edges[i].id.substr(0,4)=='edge') {
      edges[i].setAttribute('class','edge');
    }
  }
}
]]></script>
        <defs>
                <circle id="rim" cx="0" cy="0" r="7"/>
                <circle id="rim2" cx="0" cy="0" r="3.5"/>
                <g id="zoomPlus">
                        <use xlink:href="#rim" fill="#404040">
                                <set attributeName="fill" to="#808080" begin="zoomplus.mouseover" end="zoomplus.mouseout"/>
                        </use>
                        <path d="M-4,0h8M0,-4v8" fill="none" stroke="white" stroke-width="1.5" pointer-events="none"/>
                </g>
                <g id="zoomMin">
                        <use xlink:href="#rim" fill="#404040">
                                <set attributeName="fill" to="#808080" begin="zoomminus.mouseover" end="zoomminus.mouseout"/>
                        </use>
                        <path d="M-4,0h8" fill="none" stroke="white" stroke-width="1.5" pointer-events="none"/>
                </g>
                <g id="dirArrow">
                        <path fill="none" stroke="white" stroke-width="1.5" d="M0,-3.0v7 M-2.5,-0.5L0,-3.0L2.5,-0.5"/>
                </g>
               <g id="resetDef">
                       <use xlink:href="#rim2" fill="#404040">
                               <set attributeName="fill" to="#808080" begin="reset.mouseover" end="reset.mouseout"/>
                       </use>
               </g>
        </defs>

<script type="text/javascript">
var viewWidth = 1532;
var viewHeight = 544;
var sectionId = 'dynsection-0';
</script>
<script xlink:href="svgpan.js"/>
<svg id="graph" class="graph">
<g id="viewport">
<title>ui/rewardsRenderer.h</title>
<!-- Node1 -->
<g id="node1" class="node">
<title>Node1</title>
<g id="a_node1"><a xlink:title=" ">
<polygon fill="#999999" stroke="#666666" points="944,-536 824,-536 824,-517 944,-517 944,-536"/>
<text text-anchor="middle" x="884" y="-524" font-family="Helvetica,sans-Serif" font-size="10.00">ui/rewardsRenderer.h</text>
</a>
</g>
</g>
<!-- Node2 -->
<g id="node2" class="node">
<title>Node2</title>
<g id="a_node2"><a xlink:href="cardFactory_8h.html" target="_top" xlink:title=" ">
<polygon fill="white" stroke="#666666" points="390,-299.5 264,-299.5 264,-280.5 390,-280.5 390,-299.5"/>
<text text-anchor="middle" x="327" y="-287.5" font-family="Helvetica,sans-Serif" font-size="10.00">factories/cardFactory.h</text>
</a>
</g>
</g>
<!-- Node1&#45;&gt;Node2 -->
<g id="edge1" class="edge">
<title>Node1&#45;&gt;Node2</title>
<path fill="none" stroke="#63b8ff" d="M834.17,-516.97C763.32,-503.67 630.49,-474.38 526,-426 453.66,-392.51 378.53,-333.88 345.01,-306.24"/>
<polygon fill="#63b8ff" stroke="#63b8ff" points="346.98,-303.32 337.05,-299.61 342.5,-308.7 346.98,-303.32"/>
</g>
<!-- Node6 -->
<g id="node6" class="node">
<title>Node6</title>
<g id="a_node6"><a xlink:title=" ">
<polygon fill="#e0e0e0" stroke="#999999" points="1056,-19 1000,-19 1000,0 1056,0 1056,-19"/>
<text text-anchor="middle" x="1028" y="-7" font-family="Helvetica,sans-Serif" font-size="10.00">optional</text>
</a>
</g>
</g>
<!-- Node1&#45;&gt;Node6 -->
<g id="edge68" class="edge">
<title>Node1&#45;&gt;Node6</title>
<path fill="none" stroke="#63b8ff" d="M944.21,-521.13C1103.53,-508.75 1524,-470.54 1524,-412 1524,-412 1524,-412 1524,-118.5 1524,-24.92 1182.66,-12.28 1066.31,-10.69"/>
<polygon fill="#63b8ff" stroke="#63b8ff" points="1066.13,-7.19 1056.09,-10.57 1066.05,-14.18 1066.13,-7.19"/>
</g>
<!-- Node8 -->
<g id="node8" class="node">
<title>Node8</title>
<g id="a_node8"><a xlink:title=" ">
<polygon fill="#e0e0e0" stroke="#999999" points="486,-129 428,-129 428,-110 486,-110 486,-129"/>
<text text-anchor="middle" x="457" y="-117" font-family="Helvetica,sans-Serif" font-size="10.00">memory</text>
</a>
</g>
</g>
<!-- Node1&#45;&gt;Node8 -->
<g id="edge67" class="edge">
<title>Node1&#45;&gt;Node8</title>
<path fill="none" stroke="#63b8ff" d="M823.84,-523.76C630.56,-517.39 38,-491.37 38,-412 38,-412 38,-412 38,-349.5 38,-216.95 205.6,-313.84 315,-239 352.11,-213.61 349.14,-193.41 384,-165 398.63,-153.08 416.73,-142.02 431.25,-133.91"/>
<polygon fill="#63b8ff" stroke="#63b8ff" points="433.1,-136.89 440.2,-129.03 429.75,-130.74 433.1,-136.89"/>
</g>
<!-- Node15 -->
<g id="node15" class="node">
<title>Node15</title>
<g id="a_node15"><a xlink:title=" ">
<polygon fill="#e0e0e0" stroke="#999999" points="1173.5,-129 1126.5,-129 1126.5,-110 1173.5,-110 1173.5,-129"/>
<text text-anchor="middle" x="1150" y="-117" font-family="Helvetica,sans-Serif" font-size="10.00">vector</text>
</a>
</g>
</g>
<!-- Node1&#45;&gt;Node15 -->
<g id="edge69" class="edge">
<title>Node1&#45;&gt;Node15</title>
<path fill="none" stroke="#63b8ff" d="M944.08,-523.07C1067.91,-516.43 1340,-492.66 1340,-412 1340,-412 1340,-412 1340,-349.5 1340,-266.75 1369.63,-227.16 1315,-165 1297.81,-145.44 1226.62,-131.78 1183.57,-125.13"/>
<polygon fill="#63b8ff" stroke="#63b8ff" points="1183.94,-121.65 1173.54,-123.63 1182.91,-128.57 1183.94,-121.65"/>
</g>
<!-- Node17 -->
<g id="node17" class="node">
<title>Node17</title>
<g id="a_node17"><a xlink:href="rewardOptionRenderer_8h.html" target="_top" xlink:title=" ">
<polygon fill="white" stroke="#666666" points="951.5,-481 816.5,-481 816.5,-462 951.5,-462 951.5,-481"/>
<text text-anchor="middle" x="884" y="-469" font-family="Helvetica,sans-Serif" font-size="10.00">rewardOptionRenderer.h</text>
</a>
</g>
</g>
<!-- Node1&#45;&gt;Node17 -->
<g id="edge24" class="edge">
<title>Node1&#45;&gt;Node17</title>
<path fill="none" stroke="#63b8ff" d="M884,-516.75C884,-509.8 884,-499.85 884,-491.13"/>
<polygon fill="#63b8ff" stroke="#63b8ff" points="887.5,-491.09 884,-481.09 880.5,-491.09 887.5,-491.09"/>
</g>
<!-- Node3 -->
<g id="node3" class="node">
<title>Node3</title>
<g id="a_node3"><a xlink:href="ICardFactory_8h.html" target="_top" xlink:title=" ">
<polygon fill="white" stroke="#666666" points="485.5,-184 400.5,-184 400.5,-165 485.5,-165 485.5,-184"/>
<text text-anchor="middle" x="443" y="-172" font-family="Helvetica,sans-Serif" font-size="10.00">ICardFactory.h</text>
</a>
</g>
</g>
<!-- Node2&#45;&gt;Node3 -->
<g id="edge2" class="edge">
<title>Node2&#45;&gt;Node3</title>
<path fill="none" stroke="#63b8ff" d="M335.72,-280.47C355.12,-261.49 402.09,-215.53 426.95,-191.21"/>
<polygon fill="#63b8ff" stroke="#63b8ff" points="429.48,-193.63 434.18,-184.13 424.58,-188.62 429.48,-193.63"/>
</g>
<!-- Node4 -->
<g id="node4" class="node">
<title>Node4</title>
<g id="a_node4"><a xlink:href="deckEntry_8h.html" target="_top" xlink:title=" ">
<polygon fill="white" stroke="#666666" points="735.5,-129 636.5,-129 636.5,-110 735.5,-110 735.5,-129"/>
<text text-anchor="middle" x="686" y="-117" font-family="Helvetica,sans-Serif" font-size="10.00">deck/deckEntry.h</text>
</a>
</g>
</g>
<!-- Node2&#45;&gt;Node4 -->
<g id="edge21" class="edge">
<title>Node2&#45;&gt;Node4</title>
<path fill="none" stroke="#63b8ff" d="M342.44,-280.47C380.6,-259.52 482.69,-204.4 571,-165 597.91,-152.99 629.12,-141.03 652.24,-132.54"/>
<polygon fill="#63b8ff" stroke="#63b8ff" points="653.73,-135.72 661.92,-129.01 651.33,-129.15 653.73,-135.72"/>
</g>
<!-- Node9 -->
<g id="node9" class="node">
<title>Node9</title>
<g id="a_node9"><a xlink:href="cardsLoader_8h.html" target="_top" xlink:title=" ">
<polygon fill="white" stroke="#666666" points="306,-239 222,-239 222,-220 306,-220 306,-239"/>
<text text-anchor="middle" x="264" y="-227" font-family="Helvetica,sans-Serif" font-size="10.00">cardsLoader.h</text>
</a>
</g>
</g>
<!-- Node2&#45;&gt;Node9 -->
<g id="edge9" class="edge">
<title>Node2&#45;&gt;Node9</title>
<path fill="none" stroke="#63b8ff" d="M317.7,-280.37C308.03,-271.38 292.66,-257.11 280.84,-246.14"/>
<polygon fill="#63b8ff" stroke="#63b8ff" points="283.04,-243.41 273.33,-239.17 278.28,-248.54 283.04,-243.41"/>
</g>
<!-- Node14 -->
<g id="node14" class="node">
<title>Node14</title>
<g id="a_node14"><a xlink:title=" ">
<polygon fill="#e0e0e0" stroke="#999999" points="121.5,-129 28.5,-129 28.5,-110 121.5,-110 121.5,-129"/>
<text text-anchor="middle" x="75" y="-117" font-family="Helvetica,sans-Serif" font-size="10.00">unordered_map</text>
</a>
</g>
</g>
<!-- Node2&#45;&gt;Node14 -->
<g id="edge23" class="edge">
<title>Node2&#45;&gt;Node14</title>
<path fill="none" stroke="#63b8ff" d="M301.93,-280.46C278.09,-271.78 241.72,-257.06 213,-239 164.25,-208.34 114.92,-161.22 90.58,-136.66"/>
<polygon fill="#63b8ff" stroke="#63b8ff" points="92.82,-133.94 83.32,-129.25 87.82,-138.84 92.82,-133.94"/>
</g>
<!-- Node16 -->
<g id="node16" class="node">
<title>Node16</title>
<g id="a_node16"><a xlink:title=" ">
<polygon fill="#e0e0e0" stroke="#999999" points="1045.5,-129 972.5,-129 972.5,-110 1045.5,-110 1045.5,-129"/>
<text text-anchor="middle" x="1009" y="-117" font-family="Helvetica,sans-Serif" font-size="10.00">string_view</text>
</a>
</g>
</g>
<!-- Node2&#45;&gt;Node16 -->
<g id="edge22" class="edge">
<title>Node2&#45;&gt;Node16</title>
<path fill="none" stroke="#63b8ff" d="M380.57,-280.48C514.74,-258.98 858.01,-202.89 907,-184 938.39,-171.9 970.72,-149.84 990.34,-135.17"/>
<polygon fill="#63b8ff" stroke="#63b8ff" points="992.58,-137.86 998.41,-129.02 988.34,-132.3 992.58,-137.86"/>
</g>
<!-- Node3&#45;&gt;Node4 -->
<g id="edge3" class="edge">
<title>Node3&#45;&gt;Node4</title>
<path fill="none" stroke="#63b8ff" d="M482.04,-164.98C524.08,-155.82 591.04,-141.21 636.68,-131.26"/>
<polygon fill="#63b8ff" stroke="#63b8ff" points="637.63,-134.63 646.65,-129.08 636.14,-127.79 637.63,-134.63"/>
</g>
<!-- Node7 -->
<g id="node7" class="node">
<title>Node7</title>
<g id="a_node7"><a xlink:title=" ">
<polygon fill="#e0e0e0" stroke="#999999" points="1096,-74 1052,-74 1052,-55 1096,-55 1096,-74"/>
<text text-anchor="middle" x="1074" y="-62" font-family="Helvetica,sans-Serif" font-size="10.00">string</text>
</a>
</g>
</g>
<!-- Node3&#45;&gt;Node7 -->
<g id="edge8" class="edge">
<title>Node3&#45;&gt;Node7</title>
<path fill="none" stroke="#63b8ff" d="M462.71,-164.98C495.92,-151.03 565.44,-123.49 627,-110 779.84,-76.5 967.67,-68.18 1041.77,-66.14"/>
<polygon fill="#63b8ff" stroke="#63b8ff" points="1041.95,-69.64 1051.85,-65.89 1041.77,-62.64 1041.95,-69.64"/>
</g>
<!-- Node3&#45;&gt;Node8 -->
<g id="edge7" class="edge">
<title>Node3&#45;&gt;Node8</title>
<path fill="none" stroke="#63b8ff" d="M445.31,-164.75C447.17,-157.72 449.84,-147.62 452.15,-138.84"/>
<polygon fill="#63b8ff" stroke="#63b8ff" points="455.56,-139.65 454.73,-129.09 448.79,-137.86 455.56,-139.65"/>
</g>
<!-- Node5 -->
<g id="node5" class="node">
<title>Node5</title>
<g id="a_node5"><a xlink:href="cardParams_8h.html" target="_top" xlink:title=" ">
<polygon fill="white" stroke="#666666" points="626,-74 514,-74 514,-55 626,-55 626,-74"/>
<text text-anchor="middle" x="570" y="-62" font-family="Helvetica,sans-Serif" font-size="10.00">cards/cardParams.h</text>
</a>
</g>
</g>
<!-- Node4&#45;&gt;Node5 -->
<g id="edge4" class="edge">
<title>Node4&#45;&gt;Node5</title>
<path fill="none" stroke="#63b8ff" d="M667.36,-109.98C648.7,-101.46 619.75,-88.23 598.26,-78.41"/>
<polygon fill="#63b8ff" stroke="#63b8ff" points="599.53,-75.14 588.98,-74.17 596.62,-81.51 599.53,-75.14"/>
</g>
<!-- Node4&#45;&gt;Node7 -->
<g id="edge6" class="edge">
<title>Node4&#45;&gt;Node7</title>
<path fill="none" stroke="#63b8ff" d="M735.53,-111.73C816.21,-100.71 973.77,-79.19 1041.63,-69.92"/>
<polygon fill="#63b8ff" stroke="#63b8ff" points="1042.29,-73.36 1051.73,-68.54 1041.35,-66.43 1042.29,-73.36"/>
</g>
<!-- Node5&#45;&gt;Node6 -->
<g id="edge5" class="edge">
<title>Node5&#45;&gt;Node6</title>
<path fill="none" stroke="#63b8ff" d="M626.16,-57C720.57,-46.08 908.69,-24.31 989.58,-14.95"/>
<polygon fill="#63b8ff" stroke="#63b8ff" points="990.27,-18.39 999.8,-13.76 989.47,-11.44 990.27,-18.39"/>
</g>
<!-- Node9&#45;&gt;Node8 -->
<g id="edge18" class="edge">
<title>Node9&#45;&gt;Node8</title>
<path fill="none" stroke="#63b8ff" d="M269.43,-219.78C278.35,-206.16 297.39,-179.85 320,-165 336.31,-154.29 383.67,-140.09 418.14,-130.65"/>
<polygon fill="#63b8ff" stroke="#63b8ff" points="419.2,-133.99 427.93,-128 417.37,-127.23 419.2,-133.99"/>
</g>
<!-- Node10 -->
<g id="node10" class="node">
<title>Node10</title>
<g id="a_node10"><a xlink:href="effectFactory_8h.html" target="_top" xlink:title=" ">
<polygon fill="white" stroke="#666666" points="267.5,-184 180.5,-184 180.5,-165 267.5,-165 267.5,-184"/>
<text text-anchor="middle" x="224" y="-172" font-family="Helvetica,sans-Serif" font-size="10.00">effectFactory.h</text>
</a>
</g>
</g>
<!-- Node9&#45;&gt;Node10 -->
<g id="edge10" class="edge">
<title>Node9&#45;&gt;Node10</title>
<path fill="none" stroke="#63b8ff" d="M257.39,-219.75C251.74,-212.26 243.46,-201.28 236.55,-192.13"/>
<polygon fill="#63b8ff" stroke="#63b8ff" points="239.3,-189.96 230.48,-184.09 233.71,-194.18 239.3,-189.96"/>
</g>
<!-- Node13 -->
<g id="node13" class="node">
<title>Node13</title>
<g id="a_node13"><a xlink:title=" ">
<polygon fill="#e0e0e0" stroke="#999999" points="250,-129 140,-129 140,-110 250,-110 250,-129"/>
<text text-anchor="middle" x="195" y="-117" font-family="Helvetica,sans-Serif" font-size="10.00">nlohmann/json.hpp</text>
</a>
</g>
</g>
<!-- Node9&#45;&gt;Node13 -->
<g id="edge19" class="edge">
<title>Node9&#45;&gt;Node13</title>
<path fill="none" stroke="#63b8ff" d="M223.8,-219.87C204.31,-213.45 182.64,-202.48 171,-184 161.81,-169.42 170.95,-150.77 180.48,-137.47"/>
<polygon fill="#63b8ff" stroke="#63b8ff" points="183.52,-139.26 186.92,-129.22 178.01,-134.95 183.52,-139.26"/>
</g>
<!-- Node9&#45;&gt;Node15 -->
<g id="edge20" class="edge">
<title>Node9&#45;&gt;Node15</title>
<path fill="none" stroke="#63b8ff" d="M306.21,-228.12C465.11,-226.42 1021.78,-218.09 1093,-184 1113.61,-174.14 1130.07,-153.11 1139.91,-137.95"/>
<polygon fill="#63b8ff" stroke="#63b8ff" points="1143.14,-139.37 1145.39,-129.02 1137.18,-135.71 1143.14,-139.37"/>
</g>
<!-- Node10&#45;&gt;Node8 -->
<g id="edge14" class="edge">
<title>Node10&#45;&gt;Node8</title>
<path fill="none" stroke="#63b8ff" d="M261.44,-164.98C304.31,-155.23 374.23,-139.33 417.82,-129.41"/>
<polygon fill="#63b8ff" stroke="#63b8ff" points="418.8,-132.78 427.77,-127.15 417.24,-125.95 418.8,-132.78"/>
</g>
<!-- Node11 -->
<g id="node11" class="node">
<title>Node11</title>
<g id="a_node11"><a xlink:href="effect_8h.html" target="_top" xlink:title=" ">
<polygon fill="white" stroke="#666666" points="410.5,-129 321.5,-129 321.5,-110 410.5,-110 410.5,-129"/>
<text text-anchor="middle" x="366" y="-117" font-family="Helvetica,sans-Serif" font-size="10.00">effects/effect.h</text>
</a>
</g>
</g>
<!-- Node10&#45;&gt;Node11 -->
<g id="edge11" class="edge">
<title>Node10&#45;&gt;Node11</title>
<path fill="none" stroke="#63b8ff" d="M246.81,-164.98C270.17,-156.27 306.7,-142.63 333.17,-132.75"/>
<polygon fill="#63b8ff" stroke="#63b8ff" points="334.63,-135.95 342.77,-129.17 332.18,-129.39 334.63,-135.95"/>
</g>
<!-- Node12 -->
<g id="node12" class="node">
<title>Node12</title>
<g id="a_node12"><a xlink:title=" ">
<polygon fill="#e0e0e0" stroke="#999999" points="303.5,-129 268.5,-129 268.5,-110 303.5,-110 303.5,-129"/>
<text text-anchor="middle" x="286" y="-117" font-family="Helvetica,sans-Serif" font-size="10.00">any</text>
</a>
</g>
</g>
<!-- Node10&#45;&gt;Node12 -->
<g id="edge13" class="edge">
<title>Node10&#45;&gt;Node12</title>
<path fill="none" stroke="#63b8ff" d="M233.96,-164.98C243.13,-157.15 256.94,-145.34 268.03,-135.86"/>
<polygon fill="#63b8ff" stroke="#63b8ff" points="270.53,-138.33 275.86,-129.17 265.98,-133.01 270.53,-138.33"/>
</g>
<!-- Node10&#45;&gt;Node13 -->
<g id="edge15" class="edge">
<title>Node10&#45;&gt;Node13</title>
<path fill="none" stroke="#63b8ff" d="M219.21,-164.75C215.24,-157.49 209.47,-146.95 204.57,-137.98"/>
<polygon fill="#63b8ff" stroke="#63b8ff" points="207.57,-136.18 199.7,-129.09 201.43,-139.54 207.57,-136.18"/>
</g>
<!-- Node10&#45;&gt;Node14 -->
<g id="edge16" class="edge">
<title>Node10&#45;&gt;Node14</title>
<path fill="none" stroke="#63b8ff" d="M200.06,-164.98C175.44,-156.23 136.88,-142.51 109.08,-132.62"/>
<polygon fill="#63b8ff" stroke="#63b8ff" points="109.97,-129.22 99.38,-129.17 107.62,-135.82 109.97,-129.22"/>
</g>
<!-- Node10&#45;&gt;Node15 -->
<g id="edge17" class="edge">
<title>Node10&#45;&gt;Node15</title>
<path fill="none" stroke="#63b8ff" d="M267.75,-171.25C427.82,-163 976.37,-134.62 1055,-129 1075.3,-127.55 1098,-125.53 1116.12,-123.83"/>
<polygon fill="#63b8ff" stroke="#63b8ff" points="1116.58,-127.3 1126.2,-122.87 1115.92,-120.33 1116.58,-127.3"/>
</g>
<!-- Node11&#45;&gt;Node5 -->
<g id="edge12" class="edge">
<title>Node11&#45;&gt;Node5</title>
<path fill="none" stroke="#63b8ff" d="M398.78,-109.98C433.62,-100.93 488.87,-86.58 527.14,-76.64"/>
<polygon fill="#63b8ff" stroke="#63b8ff" points="528.17,-79.98 536.97,-74.08 526.41,-73.21 528.17,-79.98"/>
</g>
<!-- Node17&#45;&gt;Node3 -->
<g id="edge34" class="edge">
<title>Node17&#45;&gt;Node3</title>
<path fill="none" stroke="#63b8ff" d="M821.7,-461.98C722.57,-446.65 540,-410.43 540,-351.5 540,-351.5 540,-351.5 540,-289 540,-244.33 496.04,-208.36 467.3,-189.63"/>
<polygon fill="#63b8ff" stroke="#63b8ff" points="468.92,-186.51 458.58,-184.16 465.2,-192.44 468.92,-186.51"/>
</g>
<!-- Node17&#45;&gt;Node7 -->
<g id="edge66" class="edge">
<title>Node17&#45;&gt;Node7</title>
<path fill="none" stroke="#63b8ff" d="M951.57,-465.62C1031.35,-459.06 1158.68,-445.88 1202,-426 1316.37,-373.5 1324.72,-307.48 1349,-184 1355.6,-150.45 1354.37,-131.76 1328,-110 1294.61,-82.45 1166.72,-71.13 1106.16,-67.24"/>
<polygon fill="#63b8ff" stroke="#63b8ff" points="1106.21,-63.74 1096.01,-66.62 1105.78,-70.72 1106.21,-63.74"/>
</g>
<!-- Node18 -->
<g id="node18" class="node">
<title>Node18</title>
<g id="a_node18"><a xlink:href="cardRenderer_8h.html" target="_top" xlink:title=" ">
<polygon fill="white" stroke="#666666" points="1306,-184 1216,-184 1216,-165 1306,-165 1306,-184"/>
<text text-anchor="middle" x="1261" y="-172" font-family="Helvetica,sans-Serif" font-size="10.00">cardRenderer.h</text>
</a>
</g>
</g>
<!-- Node17&#45;&gt;Node18 -->
<g id="edge25" class="edge">
<title>Node17&#45;&gt;Node18</title>
<path fill="none" stroke="#63b8ff" d="M951.94,-463.31C1061.24,-449.84 1264,-416.14 1264,-351.5 1264,-351.5 1264,-351.5 1264,-289 1264,-255.6 1262.69,-216.68 1261.8,-194.19"/>
<polygon fill="#63b8ff" stroke="#63b8ff" points="1265.29,-193.89 1261.38,-184.04 1258.29,-194.18 1265.29,-193.89"/>
</g>
<!-- Node19 -->
<g id="node19" class="node">
<title>Node19</title>
<g id="a_node19"><a xlink:href="cardInstance_8h.html" target="_top" xlink:title=" ">
<polygon fill="white" stroke="#666666" points="697.5,-184 580.5,-184 580.5,-165 697.5,-165 697.5,-184"/>
<text text-anchor="middle" x="639" y="-172" font-family="Helvetica,sans-Serif" font-size="10.00">cards/cardInstance.h</text>
</a>
</g>
</g>
<!-- Node17&#45;&gt;Node19 -->
<g id="edge31" class="edge">
<title>Node17&#45;&gt;Node19</title>
<path fill="none" stroke="#63b8ff" d="M816.4,-465.01C746.35,-455.19 647,-427.81 647,-351.5 647,-351.5 647,-351.5 647,-289 647,-255.53 643.49,-216.63 641.12,-194.17"/>
<polygon fill="#63b8ff" stroke="#63b8ff" points="644.58,-193.59 640.01,-184.03 637.62,-194.35 644.58,-193.59"/>
</g>
<!-- Node20 -->
<g id="node20" class="node">
<title>Node20</title>
<g id="a_node20"><a xlink:href="rewardOption_8h.html" target="_top" xlink:title=" ">
<polygon fill="white" stroke="#666666" points="946.5,-426 821.5,-426 821.5,-396 946.5,-396 946.5,-426"/>
<text text-anchor="start" x="829.5" y="-414" font-family="Helvetica,sans-Serif" font-size="10.00">game_events/rewards</text>
<text text-anchor="middle" x="884" y="-403" font-family="Helvetica,sans-Serif" font-size="10.00">/rewardOption.h</text>
</a>
</g>
</g>
<!-- Node17&#45;&gt;Node20 -->
<g id="edge35" class="edge">
<title>Node17&#45;&gt;Node20</title>
<path fill="none" stroke="#63b8ff" d="M884,-461.87C884,-455.11 884,-445.35 884,-436.26"/>
<polygon fill="#63b8ff" stroke="#63b8ff" points="887.5,-436.11 884,-426.11 880.5,-436.11 887.5,-436.11"/>
</g>
<!-- Node18&#45;&gt;Node6 -->
<g id="edge27" class="edge">
<title>Node18&#45;&gt;Node6</title>
<path fill="none" stroke="#63b8ff" d="M1255.62,-164.79C1247.18,-151.65 1229.73,-126.52 1210,-110 1162.86,-70.52 1097.64,-39.44 1059.43,-23.12"/>
<polygon fill="#63b8ff" stroke="#63b8ff" points="1060.44,-19.75 1049.86,-19.1 1057.73,-26.2 1060.44,-19.75"/>
</g>
<!-- Node18&#45;&gt;Node7 -->
<g id="edge28" class="edge">
<title>Node18&#45;&gt;Node7</title>
<path fill="none" stroke="#63b8ff" d="M1252.07,-164.71C1238.23,-151.47 1210.33,-126.22 1183,-110 1158.46,-95.44 1128.26,-83.52 1105.88,-75.7"/>
<polygon fill="#63b8ff" stroke="#63b8ff" points="1106.79,-72.31 1096.2,-72.4 1104.53,-78.94 1106.79,-72.31"/>
</g>
<!-- Node18&#45;&gt;Node8 -->
<g id="edge26" class="edge">
<title>Node18&#45;&gt;Node8</title>
<path fill="none" stroke="#63b8ff" d="M1215.76,-170.52C1072.64,-161.08 631.24,-131.99 496.48,-123.1"/>
<polygon fill="#63b8ff" stroke="#63b8ff" points="496.43,-119.59 486.22,-122.43 495.96,-126.58 496.43,-119.59"/>
</g>
<!-- Node18&#45;&gt;Node15 -->
<g id="edge30" class="edge">
<title>Node18&#45;&gt;Node15</title>
<path fill="none" stroke="#63b8ff" d="M1243.17,-164.98C1225.39,-156.5 1197.85,-143.35 1177.32,-133.54"/>
<polygon fill="#63b8ff" stroke="#63b8ff" points="1178.69,-130.32 1168.16,-129.17 1175.67,-136.64 1178.69,-130.32"/>
</g>
<!-- Node18&#45;&gt;Node16 -->
<g id="edge29" class="edge">
<title>Node18&#45;&gt;Node16</title>
<path fill="none" stroke="#63b8ff" d="M1220.51,-164.98C1175.53,-155.53 1103.03,-140.28 1055.69,-130.32"/>
<polygon fill="#63b8ff" stroke="#63b8ff" points="1056.21,-126.85 1045.7,-128.22 1054.77,-133.7 1056.21,-126.85"/>
</g>
<!-- Node19&#45;&gt;Node5 -->
<g id="edge32" class="edge">
<title>Node19&#45;&gt;Node5</title>
<path fill="none" stroke="#63b8ff" d="M633.35,-164.66C621.92,-146.77 595.88,-106 580.98,-82.69"/>
<polygon fill="#63b8ff" stroke="#63b8ff" points="583.87,-80.7 575.53,-74.16 577.97,-84.47 583.87,-80.7"/>
</g>
<!-- Node19&#45;&gt;Node16 -->
<g id="edge33" class="edge">
<title>Node19&#45;&gt;Node16</title>
<path fill="none" stroke="#63b8ff" d="M697.63,-165.1C770.84,-154.62 894.62,-136.88 961.96,-127.24"/>
<polygon fill="#63b8ff" stroke="#63b8ff" points="962.86,-130.65 972.26,-125.76 961.87,-123.72 962.86,-130.65"/>
</g>
<!-- Node20&#45;&gt;Node6 -->
<g id="edge62" class="edge">
<title>Node20&#45;&gt;Node6</title>
<path fill="none" stroke="#63b8ff" d="M821.49,-410.62C619.9,-410.96 0,-398.36 0,-230.5 0,-230.5 0,-230.5 0,-118.5 0,-16.95 803.7,-10.55 989.84,-10.42"/>
<polygon fill="#63b8ff" stroke="#63b8ff" points="989.97,-13.92 999.97,-10.42 989.97,-6.92 989.97,-13.92"/>
</g>
<!-- Node20&#45;&gt;Node7 -->
<g id="edge63" class="edge">
<title>Node20&#45;&gt;Node7</title>
<path fill="none" stroke="#63b8ff" d="M946.68,-405.51C998.19,-399.93 1072.02,-387.51 1131,-360 1180.37,-336.98 1326.15,-201.67 1334,-184 1346.01,-156.96 1308.19,-110.15 1308,-110 1276.89,-85.93 1162.8,-73.06 1106.23,-68.04"/>
<polygon fill="#63b8ff" stroke="#63b8ff" points="1106.31,-64.53 1096.05,-67.16 1105.71,-71.5 1106.31,-64.53"/>
</g>
<!-- Node20&#45;&gt;Node8 -->
<g id="edge61" class="edge">
<title>Node20&#45;&gt;Node8</title>
<path fill="none" stroke="#63b8ff" d="M821.41,-403.94C709.62,-389.26 479.09,-340.51 391,-184 379.28,-163.17 404.07,-144.92 426.54,-133.39"/>
<polygon fill="#63b8ff" stroke="#63b8ff" points="428.11,-136.52 435.59,-129.02 425.07,-130.21 428.11,-136.52"/>
</g>
<!-- Node20&#45;&gt;Node15 -->
<g id="edge65" class="edge">
<title>Node20&#45;&gt;Node15</title>
<path fill="none" stroke="#63b8ff" d="M946.62,-398.63C1035.61,-380.65 1188,-342.36 1188,-291 1188,-291 1188,-291 1188,-228.5 1188,-195.02 1171.55,-158.84 1160.3,-138.01"/>
<polygon fill="#63b8ff" stroke="#63b8ff" points="1163.24,-136.1 1155.28,-129.1 1157.13,-139.53 1163.24,-136.1"/>
</g>
<!-- Node20&#45;&gt;Node16 -->
<g id="edge64" class="edge">
<title>Node20&#45;&gt;Node16</title>
<path fill="none" stroke="#63b8ff" d="M914.08,-395.97C949.04,-377.35 1002,-340.9 1002,-291 1002,-291 1002,-291 1002,-228.5 1002,-197.12 1004.98,-160.73 1007.05,-139.21"/>
<polygon fill="#63b8ff" stroke="#63b8ff" points="1010.54,-139.47 1008.06,-129.17 1003.58,-138.77 1010.54,-139.47"/>
</g>
<!-- Node21 -->
<g id="node21" class="node">
<title>Node21</title>
<g id="a_node21"><a xlink:href="rewardEffectFactory_8h.html" target="_top" xlink:title=" ">
<polygon fill="white" stroke="#666666" points="856.5,-360 689.5,-360 689.5,-341 856.5,-341 856.5,-360"/>
<text text-anchor="middle" x="773" y="-348" font-family="Helvetica,sans-Serif" font-size="10.00">factories/rewardEffectFactory.h</text>
</a>
</g>
</g>
<!-- Node20&#45;&gt;Node21 -->
<g id="edge36" class="edge">
<title>Node20&#45;&gt;Node21</title>
<path fill="none" stroke="#63b8ff" d="M857.41,-395.99C839.55,-386.58 816.16,-374.24 798.52,-364.95"/>
<polygon fill="#63b8ff" stroke="#63b8ff" points="799.87,-361.71 789.39,-360.14 796.61,-367.9 799.87,-361.71"/>
</g>
<!-- Node22 -->
<g id="node22" class="node">
<title>Node22</title>
<g id="a_node22"><a xlink:href="rewardEffect_8h.html" target="_top" xlink:title=" ">
<polygon fill="white" stroke="#666666" points="966.5,-305 801.5,-305 801.5,-275 966.5,-275 966.5,-305"/>
<text text-anchor="start" x="809.5" y="-293" font-family="Helvetica,sans-Serif" font-size="10.00">game_events/rewards</text>
<text text-anchor="middle" x="884" y="-282" font-family="Helvetica,sans-Serif" font-size="10.00">/reward_effects/rewardEffect.h</text>
</a>
</g>
</g>
<!-- Node20&#45;&gt;Node22 -->
<g id="edge60" class="edge">
<title>Node20&#45;&gt;Node22</title>
<path fill="none" stroke="#63b8ff" d="M884,-395.88C884,-376.02 884,-339.55 884,-315.29"/>
<polygon fill="#63b8ff" stroke="#63b8ff" points="887.5,-315.1 884,-305.1 880.5,-315.1 887.5,-315.1"/>
</g>
<!-- Node21&#45;&gt;Node13 -->
<g id="edge37" class="edge">
<title>Node21&#45;&gt;Node13</title>
<path fill="none" stroke="#63b8ff" d="M689.33,-350.47C562.18,-350.59 327.44,-345.13 255,-305 196.14,-272.4 185.32,-247.82 164,-184 158.44,-167.36 168.77,-149.5 178.96,-136.97"/>
<polygon fill="#63b8ff" stroke="#63b8ff" points="181.8,-139.04 185.81,-129.23 176.56,-134.4 181.8,-139.04"/>
</g>
<!-- Node21&#45;&gt;Node14 -->
<g id="edge38" class="edge">
<title>Node21&#45;&gt;Node14</title>
<path fill="none" stroke="#63b8ff" d="M689.48,-346.66C542.71,-341.13 250.08,-327.43 209,-305 140.08,-267.37 97.51,-177.29 81.84,-138.63"/>
<polygon fill="#63b8ff" stroke="#63b8ff" points="85.04,-137.21 78.13,-129.18 78.52,-139.76 85.04,-137.21"/>
</g>
<!-- Node21&#45;&gt;Node22 -->
<g id="edge39" class="edge">
<title>Node21&#45;&gt;Node22</title>
<path fill="none" stroke="#63b8ff" d="M789.38,-340.87C804.79,-332.75 828.39,-320.31 848.16,-309.89"/>
<polygon fill="#63b8ff" stroke="#63b8ff" points="850,-312.87 857.22,-305.11 846.74,-306.68 850,-312.87"/>
</g>
<!-- Node28 -->
<g id="node28" class="node">
<title>Node28</title>
<g id="a_node28"><a xlink:href="rewardEffectData_8h.html" target="_top" xlink:title=" ">
<polygon fill="white" stroke="#666666" points="860,-239 750,-239 750,-220 860,-220 860,-239"/>
<text text-anchor="middle" x="805" y="-227" font-family="Helvetica,sans-Serif" font-size="10.00">rewardEffectData.h</text>
</a>
</g>
</g>
<!-- Node21&#45;&gt;Node28 -->
<g id="edge59" class="edge">
<title>Node21&#45;&gt;Node28</title>
<path fill="none" stroke="#63b8ff" d="M775.34,-340.78C779.07,-326.87 786.6,-298.8 793,-275 795.32,-266.39 797.89,-256.85 800.05,-248.82"/>
<polygon fill="#63b8ff" stroke="#63b8ff" points="803.47,-249.6 802.7,-239.03 796.71,-247.77 803.47,-249.6"/>
</g>
<!-- Node23 -->
<g id="node23" class="node">
<title>Node23</title>
<g id="a_node23"><a xlink:href="player_8h.html" target="_top" xlink:title=" ">
<polygon fill="white" stroke="#666666" points="973.5,-239 878.5,-239 878.5,-220 973.5,-220 973.5,-239"/>
<text text-anchor="middle" x="926" y="-227" font-family="Helvetica,sans-Serif" font-size="10.00">entities/player.h</text>
</a>
</g>
</g>
<!-- Node22&#45;&gt;Node23 -->
<g id="edge40" class="edge">
<title>Node22&#45;&gt;Node23</title>
<path fill="none" stroke="#63b8ff" d="M894.17,-274.84C900.08,-266.61 907.56,-256.18 913.79,-247.51"/>
<polygon fill="#63b8ff" stroke="#63b8ff" points="916.72,-249.43 919.71,-239.27 911.03,-245.35 916.72,-249.43"/>
</g>
<!-- Node22&#45;&gt;Node28 -->
<g id="edge56" class="edge">
<title>Node22&#45;&gt;Node28</title>
<path fill="none" stroke="#63b8ff" d="M864.88,-274.84C852.82,-265.91 837.29,-254.41 825.06,-245.35"/>
<polygon fill="#63b8ff" stroke="#63b8ff" points="826.96,-242.4 816.84,-239.27 822.79,-248.03 826.96,-242.4"/>
</g>
<!-- Node23&#45;&gt;Node4 -->
<g id="edge41" class="edge">
<title>Node23&#45;&gt;Node4</title>
<path fill="none" stroke="#63b8ff" d="M889.39,-219.95C860.09,-212.43 818.37,-200.15 784,-184 755.01,-170.38 724.48,-149.39 705.35,-135.31"/>
<polygon fill="#63b8ff" stroke="#63b8ff" points="707.28,-132.38 697.17,-129.2 703.09,-137.99 707.28,-132.38"/>
</g>
<!-- Node23&#45;&gt;Node7 -->
<g id="edge53" class="edge">
<title>Node23&#45;&gt;Node7</title>
<path fill="none" stroke="#63b8ff" d="M973.78,-226.53C1072.7,-221.96 1292.63,-209.08 1315,-184 1378.72,-112.58 1185.28,-79.5 1106.13,-69.2"/>
<polygon fill="#63b8ff" stroke="#63b8ff" points="1106.55,-65.73 1096.2,-67.95 1105.68,-72.67 1106.55,-65.73"/>
</g>
<!-- Node23&#45;&gt;Node15 -->
<g id="edge55" class="edge">
<title>Node23&#45;&gt;Node15</title>
<path fill="none" stroke="#63b8ff" d="M973.57,-223.16C1025.28,-216.46 1103.56,-203.45 1126,-184 1138.93,-172.79 1144.91,-153.87 1147.67,-139.59"/>
<polygon fill="#63b8ff" stroke="#63b8ff" points="1151.18,-139.79 1149.26,-129.37 1144.26,-138.72 1151.18,-139.79"/>
</g>
<!-- Node23&#45;&gt;Node16 -->
<g id="edge54" class="edge">
<title>Node23&#45;&gt;Node16</title>
<path fill="none" stroke="#63b8ff" d="M932.79,-219.66C946.6,-201.69 978.15,-160.64 996.02,-137.38"/>
<polygon fill="#63b8ff" stroke="#63b8ff" points="999.03,-139.22 1002.35,-129.16 993.48,-134.95 999.03,-139.22"/>
</g>
<!-- Node24 -->
<g id="node24" class="node">
<title>Node24</title>
<g id="a_node24"><a xlink:href="deckPlayer_8h.html" target="_top" xlink:title=" ">
<polygon fill="white" stroke="#666666" points="897.5,-184 792.5,-184 792.5,-165 897.5,-165 897.5,-184"/>
<text text-anchor="middle" x="845" y="-172" font-family="Helvetica,sans-Serif" font-size="10.00">deck/deckPlayer.h</text>
</a>
</g>
</g>
<!-- Node23&#45;&gt;Node24 -->
<g id="edge42" class="edge">
<title>Node23&#45;&gt;Node24</title>
<path fill="none" stroke="#63b8ff" d="M912.99,-219.98C900.54,-211.84 881.54,-199.41 866.79,-189.76"/>
<polygon fill="#63b8ff" stroke="#63b8ff" points="868.54,-186.72 858.25,-184.17 864.7,-192.57 868.54,-186.72"/>
</g>
<!-- Node27 -->
<g id="node27" class="node">
<title>Node27</title>
<g id="a_node27"><a xlink:href="entity_8h.html" target="_top" xlink:title=" ">
<polygon fill="white" stroke="#666666" points="1083.5,-184 1030.5,-184 1030.5,-165 1083.5,-165 1083.5,-184"/>
<text text-anchor="middle" x="1057" y="-172" font-family="Helvetica,sans-Serif" font-size="10.00">entity.h</text>
</a>
</g>
</g>
<!-- Node23&#45;&gt;Node27 -->
<g id="edge50" class="edge">
<title>Node23&#45;&gt;Node27</title>
<path fill="none" stroke="#63b8ff" d="M947.05,-219.98C968.41,-211.34 1001.7,-197.87 1026.06,-188.02"/>
<polygon fill="#63b8ff" stroke="#63b8ff" points="1027.61,-191.17 1035.57,-184.17 1024.99,-184.68 1027.61,-191.17"/>
</g>
<!-- Node24&#45;&gt;Node4 -->
<g id="edge43" class="edge">
<title>Node24&#45;&gt;Node4</title>
<path fill="none" stroke="#63b8ff" d="M819.45,-164.98C792.88,-156.13 751.06,-142.19 721.33,-132.28"/>
<polygon fill="#63b8ff" stroke="#63b8ff" points="722.34,-128.92 711.75,-129.08 720.13,-135.56 722.34,-128.92"/>
</g>
<!-- Node24&#45;&gt;Node7 -->
<g id="edge46" class="edge">
<title>Node24&#45;&gt;Node7</title>
<path fill="none" stroke="#63b8ff" d="M859.77,-164.96C882.01,-152.26 925.6,-127.95 964,-110 989.89,-97.9 1020.03,-85.84 1042.21,-77.34"/>
<polygon fill="#63b8ff" stroke="#63b8ff" points="1043.69,-80.52 1051.79,-73.69 1041.2,-73.97 1043.69,-80.52"/>
</g>
<!-- Node24&#45;&gt;Node8 -->
<g id="edge45" class="edge">
<title>Node24&#45;&gt;Node8</title>
<path fill="none" stroke="#63b8ff" d="M792.27,-166.3C713.44,-155.53 566.63,-135.48 496.4,-125.88"/>
<polygon fill="#63b8ff" stroke="#63b8ff" points="496.59,-122.38 486.21,-124.49 495.65,-129.31 496.59,-122.38"/>
</g>
<!-- Node24&#45;&gt;Node15 -->
<g id="edge49" class="edge">
<title>Node24&#45;&gt;Node15</title>
<path fill="none" stroke="#63b8ff" d="M894,-164.98C956.36,-154.15 1062.43,-135.72 1116.36,-126.35"/>
<polygon fill="#63b8ff" stroke="#63b8ff" points="1117.17,-129.76 1126.43,-124.6 1115.97,-122.86 1117.17,-129.76"/>
</g>
<!-- Node24&#45;&gt;Node16 -->
<g id="edge47" class="edge">
<title>Node24&#45;&gt;Node16</title>
<path fill="none" stroke="#63b8ff" d="M871.35,-164.98C898.76,-156.13 941.89,-142.19 972.56,-132.28"/>
<polygon fill="#63b8ff" stroke="#63b8ff" points="974,-135.49 982.44,-129.08 971.85,-128.83 974,-135.49"/>
</g>
<!-- Node25 -->
<g id="node25" class="node">
<title>Node25</title>
<g id="a_node25"><a xlink:title=" ">
<polygon fill="#e0e0e0" stroke="#999999" points="852,-129 792,-129 792,-110 852,-110 852,-129"/>
<text text-anchor="middle" x="822" y="-117" font-family="Helvetica,sans-Serif" font-size="10.00">iostream</text>
</a>
</g>
</g>
<!-- Node24&#45;&gt;Node25 -->
<g id="edge44" class="edge">
<title>Node24&#45;&gt;Node25</title>
<path fill="none" stroke="#63b8ff" d="M841.2,-164.75C838.09,-157.57 833.58,-147.18 829.71,-138.27"/>
<polygon fill="#63b8ff" stroke="#63b8ff" points="832.92,-136.87 825.73,-129.09 826.5,-139.66 832.92,-136.87"/>
</g>
<!-- Node26 -->
<g id="node26" class="node">
<title>Node26</title>
<g id="a_node26"><a xlink:title=" ">
<polygon fill="#e0e0e0" stroke="#999999" points="915.5,-129 870.5,-129 870.5,-110 915.5,-110 915.5,-129"/>
<text text-anchor="middle" x="893" y="-117" font-family="Helvetica,sans-Serif" font-size="10.00">utility</text>
</a>
</g>
</g>
<!-- Node24&#45;&gt;Node26 -->
<g id="edge48" class="edge">
<title>Node24&#45;&gt;Node26</title>
<path fill="none" stroke="#63b8ff" d="M852.93,-164.75C859.85,-157.11 870.07,-145.82 878.45,-136.56"/>
<polygon fill="#63b8ff" stroke="#63b8ff" points="881.1,-138.85 885.22,-129.09 875.91,-134.15 881.1,-138.85"/>
</g>
<!-- Node27&#45;&gt;Node7 -->
<g id="edge51" class="edge">
<title>Node27&#45;&gt;Node7</title>
<path fill="none" stroke="#63b8ff" d="M1058.39,-164.66C1061.14,-147.17 1067.34,-107.8 1071.04,-84.27"/>
<polygon fill="#63b8ff" stroke="#63b8ff" points="1074.54,-84.58 1072.64,-74.16 1067.62,-83.49 1074.54,-84.58"/>
</g>
<!-- Node27&#45;&gt;Node16 -->
<g id="edge52" class="edge">
<title>Node27&#45;&gt;Node16</title>
<path fill="none" stroke="#63b8ff" d="M1049.07,-164.75C1042.15,-157.11 1031.93,-145.82 1023.55,-136.56"/>
<polygon fill="#63b8ff" stroke="#63b8ff" points="1026.09,-134.15 1016.78,-129.09 1020.9,-138.85 1026.09,-134.15"/>
</g>
<!-- Node28&#45;&gt;Node5 -->
<g id="edge57" class="edge">
<title>Node28&#45;&gt;Node5</title>
<path fill="none" stroke="#63b8ff" d="M749.78,-225.85C687.92,-221.59 593.36,-210.78 571,-184 547.46,-155.81 556.26,-109.32 563.75,-83.75"/>
<polygon fill="#63b8ff" stroke="#63b8ff" points="567.09,-84.78 566.78,-74.19 560.42,-82.67 567.09,-84.78"/>
</g>
<!-- Node28&#45;&gt;Node7 -->
<g id="edge58" class="edge">
<title>Node28&#45;&gt;Node7</title>
<path fill="none" stroke="#63b8ff" d="M799.2,-219.83C785.67,-198.4 755.19,-142.38 783,-110 816.03,-71.54 972.62,-65.96 1041.44,-65.4"/>
<polygon fill="#63b8ff" stroke="#63b8ff" points="1041.71,-68.9 1051.69,-65.35 1041.68,-61.9 1041.71,-68.9"/>
</g>
</g>
</svg>
        <g id="navigator" transform="translate(0 0)" fill="#404254">
                <rect fill="#f2f5e9" fill-opacity="0.5" stroke="#606060" stroke-width=".5" x="0" y="0" width="60" height="60"/>
                <use id="zoomplus" xlink:href="#zoomPlus" x="17" y="9" onmousedown="handleZoom(evt,'in')"/>
                <use id="zoomminus" xlink:href="#zoomMin" x="42" y="9" onmousedown="handleZoom(evt,'out')"/>
                <use id="reset" xlink:href="#resetDef" x="30" y="36" onmousedown="handleReset()"/>
                <g id="arrowUp" xlink:href="#dirArrow" transform="translate(30 24)" onmousedown="handlePan(0,-1)">
                  <use xlink:href="#rim" fill="#404040">
                        <set attributeName="fill" to="#808080" begin="arrowUp.mouseover" end="arrowUp.mouseout"/>
                  </use>
                  <path fill="none" stroke="white" stroke-width="1.5" d="M0,-3.0v7 M-2.5,-0.5L0,-3.0L2.5,-0.5"/>
                </g>
                <g id="arrowRight" xlink:href="#dirArrow" transform="rotate(90) translate(36 -43)" onmousedown="handlePan(1,0)">
                  <use xlink:href="#rim" fill="#404040">
                        <set attributeName="fill" to="#808080" begin="arrowRight.mouseover" end="arrowRight.mouseout"/>
                  </use>
                  <path fill="none" stroke="white" stroke-width="1.5" d="M0,-3.0v7 M-2.5,-0.5L0,-3.0L2.5,-0.5"/>
                </g>
                <g id="arrowDown" xlink:href="#dirArrow" transform="rotate(180) translate(-30 -48)" onmousedown="handlePan(0,1)">
                  <use xlink:href="#rim" fill="#404040">
                        <set attributeName="fill" to="#808080" begin="arrowDown.mouseover" end="arrowDown.mouseout"/>
                  </use>
                  <path fill="none" stroke="white" stroke-width="1.5" d="M0,-3.0v7 M-2.5,-0.5L0,-3.0L2.5,-0.5"/>
                </g>
                <g id="arrowLeft" xlink:href="#dirArrow" transform="rotate(270) translate(-36 17)" onmousedown="handlePan(-1,0)">
                  <use xlink:href="#rim" fill="#404040">
                        <set attributeName="fill" to="#808080" begin="arrowLeft.mouseover" end="arrowLeft.mouseout"/>
                  </use>
                  <path fill="none" stroke="white" stroke-width="1.5" d="M0,-3.0v7 M-2.5,-0.5L0,-3.0L2.5,-0.5"/>
                </g>
        </g>
        <svg viewBox="0 0 15 15" width="100%" height="30px" preserveAspectRatio="xMaxYMin meet">
         <g id="arrow_out" transform="scale(0.3 0.3)">
          <a xlink:href="rewardsRenderer_8h__incl_org.svg" target="_base">
           <rect id="button" ry="5" rx="5" y="6" x="6" height="38" width="38"
                fill="#f2f5e9" fill-opacity="0.5" stroke="#606060" stroke-width="1.0"/>
           <path id="arrow"
             d="M 11.500037,31.436501 C 11.940474,20.09759 22.043105,11.32322 32.158766,21.979434 L 37.068811,17.246167 C 37.068811,17.246167 37.088388,32 37.088388,32 L 22.160133,31.978069 C 22.160133,31.978069 26.997745,27.140456 26.997745,27.140456 C 18.528582,18.264221 13.291696,25.230495 11.500037,31.436501 z"
             style="fill:#404040;"/>
          </a>
         </g>
        </svg>
</svg>
