<?xml version="1.0" encoding="UTF-8" standalone="no"?>
<!DOCTYPE svg PUBLIC "-//W3C//DTD SVG 1.1//EN"
 "http://www.w3.org/Graphics/SVG/1.1/DTD/svg11.dtd">
<!-- Generated by graphviz version 2.43.0 (0)
 -->
<!-- Title: factories/rewardEffectFactory.cpp Pages: 1 -->
<!--zoomable 445 -->
<svg id="main" version="1.1" xmlns="http://www.w3.org/2000/svg" xmlns:xlink="http://www.w3.org/1999/xlink" xml:space="preserve" onload="init(evt)">
<style type="text/css"><![CDATA[
.edge:hover path { stroke: red; }
.edge:hover polygon { stroke: red; fill: red; }
]]></style>
<script type="text/javascript"><![CDATA[
var edges = document.getElementsByTagName('g');
if (edges && edges.length) {
  for (var i=0;i<edges.length;i++) {
    if (edges[i].id.substr(0,4)=='edge') {
      edges[i].setAttribute('class','edge');
    }
  }
}
]]></script>
        <defs>
                <circle id="rim" cx="0" cy="0" r="7"/>
                <circle id="rim2" cx="0" cy="0" r="3.5"/>
                <g id="zoomPlus">
                        <use xlink:href="#rim" fill="#404040">
                                <set attributeName="fill" to="#808080" begin="zoomplus.mouseover" end="zoomplus.mouseout"/>
                        </use>
                        <path d="M-4,0h8M0,-4v8" fill="none" stroke="white" stroke-width="1.5" pointer-events="none"/>
                </g>
                <g id="zoomMin">
                        <use xlink:href="#rim" fill="#404040">
                                <set attributeName="fill" to="#808080" begin="zoomminus.mouseover" end="zoomminus.mouseout"/>
                        </use>
                        <path d="M-4,0h8" fill="none" stroke="white" stroke-width="1.5" pointer-events="none"/>
                </g>
                <g id="dirArrow">
                        <path fill="none" stroke="white" stroke-width="1.5" d="M0,-3.0v7 M-2.5,-0.5L0,-3.0L2.5,-0.5"/>
                </g>
               <g id="resetDef">
                       <use xlink:href="#rim2" fill="#404040">
                               <set attributeName="fill" to="#808080" begin="reset.mouseover" end="reset.mouseout"/>
                       </use>
               </g>
        </defs>

<script type="text/javascript">
var viewWidth = 857;
var viewHeight = 445;
var sectionId = 'dynsection-0';
</script>
<script xlink:href="svgpan.js"/>
<svg id="graph" class="graph">
<g id="viewport">
<title>factories/rewardEffectFactory.cpp</title>
<!-- Node1 -->
<g id="node1" class="node">
<title>Node1</title>
<g id="a_node1"><a xlink:title=" ">
<polygon fill="#999999" stroke="#666666" points="564.5,-437 386.5,-437 386.5,-418 564.5,-418 564.5,-437"/>
<text text-anchor="middle" x="475.5" y="-425" font-family="Helvetica,sans-Serif" font-size="10.00">factories/rewardEffectFactory.cpp</text>
</a>
</g>
</g>
<!-- Node2 -->
<g id="node2" class="node">
<title>Node2</title>
<g id="a_node2"><a xlink:href="rewardEffectFactory_8h.html" target="_top" xlink:title=" ">
<polygon fill="white" stroke="#666666" points="245,-371 124,-371 124,-352 245,-352 245,-371"/>
<text text-anchor="middle" x="184.5" y="-359" font-family="Helvetica,sans-Serif" font-size="10.00">rewardEffectFactory.h</text>
</a>
</g>
</g>
<!-- Node1&#45;&gt;Node2 -->
<g id="edge1" class="edge">
<title>Node1&#45;&gt;Node2</title>
<path fill="none" stroke="#63b8ff" d="M427.86,-417.95C382.95,-409.64 313.87,-396.23 254.5,-382 244.29,-379.55 233.31,-376.63 223.15,-373.81"/>
<polygon fill="#63b8ff" stroke="#63b8ff" points="223.9,-370.39 213.33,-371.04 222,-377.12 223.9,-370.39"/>
</g>
<!-- Node14 -->
<g id="node14" class="node">
<title>Node14</title>
<g id="a_node14"><a xlink:title=" ">
<polygon fill="#e0e0e0" stroke="#999999" points="382,-129 309,-129 309,-110 382,-110 382,-129"/>
<text text-anchor="middle" x="345.5" y="-117" font-family="Helvetica,sans-Serif" font-size="10.00">string_view</text>
</a>
</g>
</g>
<!-- Node1&#45;&gt;Node14 -->
<g id="edge35" class="edge">
<title>Node1&#45;&gt;Node14</title>
<path fill="none" stroke="#63b8ff" d="M475.5,-417.94C475.5,-396.54 475.5,-338.99 475.5,-291 475.5,-291 475.5,-291 475.5,-228.5 475.5,-179.41 419.97,-148.35 381.49,-132.73"/>
<polygon fill="#63b8ff" stroke="#63b8ff" points="382.71,-129.45 372.12,-129.09 380.17,-135.97 382.71,-129.45"/>
</g>
<!-- Node19 -->
<g id="node19" class="node">
<title>Node19</title>
<g id="a_node19"><a xlink:href="gainCardRewardEffect_8h.html" target="_top" xlink:title=" ">
<polygon fill="white" stroke="#666666" points="679,-382 504,-382 504,-341 679,-341 679,-382"/>
<text text-anchor="start" x="512" y="-370" font-family="Helvetica,sans-Serif" font-size="10.00">game_events/rewards</text>
<text text-anchor="start" x="512" y="-359" font-family="Helvetica,sans-Serif" font-size="10.00">/reward_effects/gainCardReward</text>
<text text-anchor="middle" x="591.5" y="-348" font-family="Helvetica,sans-Serif" font-size="10.00">Effect.h</text>
</a>
</g>
</g>
<!-- Node1&#45;&gt;Node19 -->
<g id="edge28" class="edge">
<title>Node1&#45;&gt;Node19</title>
<path fill="none" stroke="#63b8ff" d="M491.14,-417.87C505.52,-409.94 527.52,-397.8 547.26,-386.91"/>
<polygon fill="#63b8ff" stroke="#63b8ff" points="549.07,-389.9 556.14,-382.01 545.69,-383.78 549.07,-389.9"/>
</g>
<!-- Node20 -->
<g id="node20" class="node">
<title>Node20</title>
<g id="a_node20"><a xlink:href="gainMoneyRewardEffect_8h.html" target="_top" xlink:title=" ">
<polygon fill="white" stroke="#666666" points="448,-382 263,-382 263,-341 448,-341 448,-382"/>
<text text-anchor="start" x="271" y="-370" font-family="Helvetica,sans-Serif" font-size="10.00">game_events/rewards</text>
<text text-anchor="start" x="271" y="-359" font-family="Helvetica,sans-Serif" font-size="10.00">/reward_effects/gainMoneyReward</text>
<text text-anchor="middle" x="355.5" y="-348" font-family="Helvetica,sans-Serif" font-size="10.00">Effect.h</text>
</a>
</g>
</g>
<!-- Node1&#45;&gt;Node20 -->
<g id="edge32" class="edge">
<title>Node1&#45;&gt;Node20</title>
<path fill="none" stroke="#63b8ff" d="M459.32,-417.87C444.38,-409.9 421.48,-397.69 400.99,-386.76"/>
<polygon fill="#63b8ff" stroke="#63b8ff" points="402.55,-383.63 392.08,-382.01 399.26,-389.8 402.55,-383.63"/>
</g>
<!-- Node21 -->
<g id="node21" class="node">
<title>Node21</title>
<g id="a_node21"><a xlink:title=" ">
<polygon fill="#e0e0e0" stroke="#999999" points="749.5,-371 697.5,-371 697.5,-352 749.5,-352 749.5,-371"/>
<text text-anchor="middle" x="723.5" y="-359" font-family="Helvetica,sans-Serif" font-size="10.00">cassert</text>
</a>
</g>
</g>
<!-- Node1&#45;&gt;Node21 -->
<g id="edge34" class="edge">
<title>Node1&#45;&gt;Node21</title>
<path fill="none" stroke="#63b8ff" d="M541.73,-417.95C584.52,-411.14 640.9,-399.76 688.5,-382 692.87,-380.37 697.35,-378.25 701.59,-376.02"/>
<polygon fill="#63b8ff" stroke="#63b8ff" points="703.34,-379.05 710.33,-371.09 699.9,-372.96 703.34,-379.05"/>
</g>
<!-- Node3 -->
<g id="node3" class="node">
<title>Node3</title>
<g id="a_node3"><a xlink:title=" ">
<polygon fill="#e0e0e0" stroke="#999999" points="259.5,-299.5 149.5,-299.5 149.5,-280.5 259.5,-280.5 259.5,-299.5"/>
<text text-anchor="middle" x="204.5" y="-287.5" font-family="Helvetica,sans-Serif" font-size="10.00">nlohmann/json.hpp</text>
</a>
</g>
</g>
<!-- Node2&#45;&gt;Node3 -->
<g id="edge2" class="edge">
<title>Node2&#45;&gt;Node3</title>
<path fill="none" stroke="#63b8ff" d="M186.95,-351.98C189.98,-341.45 195.22,-323.25 199.19,-309.47"/>
<polygon fill="#63b8ff" stroke="#63b8ff" points="202.63,-310.17 202.03,-299.59 195.9,-308.23 202.63,-310.17"/>
</g>
<!-- Node4 -->
<g id="node4" class="node">
<title>Node4</title>
<g id="a_node4"><a xlink:title=" ">
<polygon fill="#e0e0e0" stroke="#999999" points="93,-299.5 0,-299.5 0,-280.5 93,-280.5 93,-299.5"/>
<text text-anchor="middle" x="46.5" y="-287.5" font-family="Helvetica,sans-Serif" font-size="10.00">unordered_map</text>
</a>
</g>
</g>
<!-- Node2&#45;&gt;Node4 -->
<g id="edge3" class="edge">
<title>Node2&#45;&gt;Node4</title>
<path fill="none" stroke="#63b8ff" d="M167.58,-351.98C143.89,-340.05 100.61,-318.25 72.72,-304.21"/>
<polygon fill="#63b8ff" stroke="#63b8ff" points="74.07,-300.96 63.56,-299.59 70.92,-307.22 74.07,-300.96"/>
</g>
<!-- Node5 -->
<g id="node5" class="node">
<title>Node5</title>
<g id="a_node5"><a xlink:href="rewardEffect_8h.html" target="_top" xlink:title=" ">
<polygon fill="white" stroke="#666666" points="443,-305 278,-305 278,-275 443,-275 443,-305"/>
<text text-anchor="start" x="286" y="-293" font-family="Helvetica,sans-Serif" font-size="10.00">game_events/rewards</text>
<text text-anchor="middle" x="360.5" y="-282" font-family="Helvetica,sans-Serif" font-size="10.00">/reward_effects/rewardEffect.h</text>
</a>
</g>
</g>
<!-- Node2&#45;&gt;Node5 -->
<g id="edge4" class="edge">
<title>Node2&#45;&gt;Node5</title>
<path fill="none" stroke="#63b8ff" d="M206.08,-351.98C233.18,-341.28 280.37,-322.64 315.48,-308.78"/>
<polygon fill="#63b8ff" stroke="#63b8ff" points="317.01,-311.94 325.03,-305.01 314.44,-305.42 317.01,-311.94"/>
</g>
<!-- Node18 -->
<g id="node18" class="node">
<title>Node18</title>
<g id="a_node18"><a xlink:href="rewardEffectData_8h.html" target="_top" xlink:title=" ">
<polygon fill="white" stroke="#666666" points="232.5,-239 122.5,-239 122.5,-220 232.5,-220 232.5,-239"/>
<text text-anchor="middle" x="177.5" y="-227" font-family="Helvetica,sans-Serif" font-size="10.00">rewardEffectData.h</text>
</a>
</g>
</g>
<!-- Node2&#45;&gt;Node18 -->
<g id="edge27" class="edge">
<title>Node2&#45;&gt;Node18</title>
<path fill="none" stroke="#63b8ff" d="M174.5,-351.89C163.72,-341.89 147.21,-324.28 140.5,-305 136.11,-292.41 135.97,-287.54 140.5,-275 144.44,-264.09 152.36,-253.96 159.86,-246.14"/>
<polygon fill="#63b8ff" stroke="#63b8ff" points="162.34,-248.61 167.06,-239.13 157.45,-243.6 162.34,-248.61"/>
</g>
<!-- Node6 -->
<g id="node6" class="node">
<title>Node6</title>
<g id="a_node6"><a xlink:href="player_8h.html" target="_top" xlink:title=" ">
<polygon fill="white" stroke="#666666" points="408,-239 313,-239 313,-220 408,-220 408,-239"/>
<text text-anchor="middle" x="360.5" y="-227" font-family="Helvetica,sans-Serif" font-size="10.00">entities/player.h</text>
</a>
</g>
</g>
<!-- Node5&#45;&gt;Node6 -->
<g id="edge5" class="edge">
<title>Node5&#45;&gt;Node6</title>
<path fill="none" stroke="#63b8ff" d="M360.5,-274.84C360.5,-267.21 360.5,-257.7 360.5,-249.45"/>
<polygon fill="#63b8ff" stroke="#63b8ff" points="364,-249.27 360.5,-239.27 357,-249.27 364,-249.27"/>
</g>
<!-- Node5&#45;&gt;Node18 -->
<g id="edge24" class="edge">
<title>Node5&#45;&gt;Node18</title>
<path fill="none" stroke="#63b8ff" d="M316.67,-274.99C285.36,-264.98 243.72,-251.67 214.17,-242.22"/>
<polygon fill="#63b8ff" stroke="#63b8ff" points="214.85,-238.76 204.26,-239.05 212.72,-245.43 214.85,-238.76"/>
</g>
<!-- Node7 -->
<g id="node7" class="node">
<title>Node7</title>
<g id="a_node7"><a xlink:href="deckEntry_8h.html" target="_top" xlink:title=" ">
<polygon fill="white" stroke="#666666" points="499,-129 400,-129 400,-110 499,-110 499,-129"/>
<text text-anchor="middle" x="449.5" y="-117" font-family="Helvetica,sans-Serif" font-size="10.00">deck/deckEntry.h</text>
</a>
</g>
</g>
<!-- Node6&#45;&gt;Node7 -->
<g id="edge6" class="edge">
<title>Node6&#45;&gt;Node7</title>
<path fill="none" stroke="#63b8ff" d="M367.78,-219.66C382.66,-201.61 416.72,-160.28 435.84,-137.08"/>
<polygon fill="#63b8ff" stroke="#63b8ff" points="438.71,-139.1 442.36,-129.16 433.3,-134.65 438.71,-139.1"/>
</g>
<!-- Node10 -->
<g id="node10" class="node">
<title>Node10</title>
<g id="a_node10"><a xlink:title=" ">
<polygon fill="#e0e0e0" stroke="#999999" points="386.5,-74 342.5,-74 342.5,-55 386.5,-55 386.5,-74"/>
<text text-anchor="middle" x="364.5" y="-62" font-family="Helvetica,sans-Serif" font-size="10.00">string</text>
</a>
</g>
</g>
<!-- Node6&#45;&gt;Node10 -->
<g id="edge21" class="edge">
<title>Node6&#45;&gt;Node10</title>
<path fill="none" stroke="#63b8ff" d="M350.08,-219.84C327.77,-200.21 279.14,-150.87 300.5,-110 307.61,-96.39 320.99,-86.1 333.69,-78.87"/>
<polygon fill="#63b8ff" stroke="#63b8ff" points="335.48,-81.88 342.71,-74.13 332.23,-75.68 335.48,-81.88"/>
</g>
<!-- Node11 -->
<g id="node11" class="node">
<title>Node11</title>
<g id="a_node11"><a xlink:href="deckPlayer_8h.html" target="_top" xlink:title=" ">
<polygon fill="white" stroke="#666666" points="644,-184 539,-184 539,-165 644,-165 644,-184"/>
<text text-anchor="middle" x="591.5" y="-172" font-family="Helvetica,sans-Serif" font-size="10.00">deck/deckPlayer.h</text>
</a>
</g>
</g>
<!-- Node6&#45;&gt;Node11 -->
<g id="edge10" class="edge">
<title>Node6&#45;&gt;Node11</title>
<path fill="none" stroke="#63b8ff" d="M397.61,-219.98C437.49,-210.84 500.96,-196.27 544.34,-186.32"/>
<polygon fill="#63b8ff" stroke="#63b8ff" points="545.13,-189.73 554.09,-184.08 543.57,-182.91 545.13,-189.73"/>
</g>
<!-- Node6&#45;&gt;Node14 -->
<g id="edge22" class="edge">
<title>Node6&#45;&gt;Node14</title>
<path fill="none" stroke="#63b8ff" d="M359.27,-219.66C356.84,-202.17 351.38,-162.8 348.11,-139.27"/>
<polygon fill="#63b8ff" stroke="#63b8ff" points="351.55,-138.58 346.7,-129.16 344.61,-139.54 351.55,-138.58"/>
</g>
<!-- Node16 -->
<g id="node16" class="node">
<title>Node16</title>
<g id="a_node16"><a xlink:title=" ">
<polygon fill="#e0e0e0" stroke="#999999" points="564,-129 517,-129 517,-110 564,-110 564,-129"/>
<text text-anchor="middle" x="540.5" y="-117" font-family="Helvetica,sans-Serif" font-size="10.00">vector</text>
</a>
</g>
</g>
<!-- Node6&#45;&gt;Node16 -->
<g id="edge23" class="edge">
<title>Node6&#45;&gt;Node16</title>
<path fill="none" stroke="#63b8ff" d="M374.93,-219.84C406,-201.2 479.48,-157.11 517.23,-134.46"/>
<polygon fill="#63b8ff" stroke="#63b8ff" points="519.23,-137.34 526.01,-129.2 515.63,-131.34 519.23,-137.34"/>
</g>
<!-- Node17 -->
<g id="node17" class="node">
<title>Node17</title>
<g id="a_node17"><a xlink:href="entity_8h.html" target="_top" xlink:title=" ">
<polygon fill="white" stroke="#666666" points="278,-184 225,-184 225,-165 278,-165 278,-184"/>
<text text-anchor="middle" x="251.5" y="-172" font-family="Helvetica,sans-Serif" font-size="10.00">entity.h</text>
</a>
</g>
</g>
<!-- Node6&#45;&gt;Node17 -->
<g id="edge18" class="edge">
<title>Node6&#45;&gt;Node17</title>
<path fill="none" stroke="#63b8ff" d="M342.99,-219.98C325.53,-211.5 298.49,-198.35 278.33,-188.54"/>
<polygon fill="#63b8ff" stroke="#63b8ff" points="279.86,-185.4 269.33,-184.17 276.79,-191.69 279.86,-185.4"/>
</g>
<!-- Node8 -->
<g id="node8" class="node">
<title>Node8</title>
<g id="a_node8"><a xlink:href="cardParams_8h.html" target="_top" xlink:title=" ">
<polygon fill="white" stroke="#666666" points="315.5,-74 203.5,-74 203.5,-55 315.5,-55 315.5,-74"/>
<text text-anchor="middle" x="259.5" y="-62" font-family="Helvetica,sans-Serif" font-size="10.00">cards/cardParams.h</text>
</a>
</g>
</g>
<!-- Node7&#45;&gt;Node8 -->
<g id="edge7" class="edge">
<title>Node7&#45;&gt;Node8</title>
<path fill="none" stroke="#63b8ff" d="M418.97,-109.98C386.8,-101.01 335.94,-86.82 300.33,-76.89"/>
<polygon fill="#63b8ff" stroke="#63b8ff" points="300.84,-73.4 290.27,-74.08 298.96,-80.14 300.84,-73.4"/>
</g>
<!-- Node7&#45;&gt;Node10 -->
<g id="edge9" class="edge">
<title>Node7&#45;&gt;Node10</title>
<path fill="none" stroke="#63b8ff" d="M435.84,-109.98C422.66,-101.77 402.47,-89.18 386.93,-79.49"/>
<polygon fill="#63b8ff" stroke="#63b8ff" points="388.74,-76.49 378.41,-74.17 385.04,-82.43 388.74,-76.49"/>
</g>
<!-- Node9 -->
<g id="node9" class="node">
<title>Node9</title>
<g id="a_node9"><a xlink:title=" ">
<polygon fill="#e0e0e0" stroke="#999999" points="287.5,-19 231.5,-19 231.5,0 287.5,0 287.5,-19"/>
<text text-anchor="middle" x="259.5" y="-7" font-family="Helvetica,sans-Serif" font-size="10.00">optional</text>
</a>
</g>
</g>
<!-- Node8&#45;&gt;Node9 -->
<g id="edge8" class="edge">
<title>Node8&#45;&gt;Node9</title>
<path fill="none" stroke="#63b8ff" d="M259.5,-54.75C259.5,-47.8 259.5,-37.85 259.5,-29.13"/>
<polygon fill="#63b8ff" stroke="#63b8ff" points="263,-29.09 259.5,-19.09 256,-29.09 263,-29.09"/>
</g>
<!-- Node11&#45;&gt;Node7 -->
<g id="edge11" class="edge">
<title>Node11&#45;&gt;Node7</title>
<path fill="none" stroke="#63b8ff" d="M568.69,-164.98C545.33,-156.27 508.8,-142.63 482.33,-132.75"/>
<polygon fill="#63b8ff" stroke="#63b8ff" points="483.32,-129.39 472.73,-129.17 480.87,-135.95 483.32,-129.39"/>
</g>
<!-- Node11&#45;&gt;Node10 -->
<g id="edge14" class="edge">
<title>Node11&#45;&gt;Node10</title>
<path fill="none" stroke="#63b8ff" d="M591.68,-164.67C591.46,-150.91 588.9,-124.41 573.5,-110 548.22,-86.35 448.71,-73.53 396.64,-68.32"/>
<polygon fill="#63b8ff" stroke="#63b8ff" points="396.89,-64.83 386.6,-67.35 396.22,-71.8 396.89,-64.83"/>
</g>
<!-- Node12 -->
<g id="node12" class="node">
<title>Node12</title>
<g id="a_node12"><a xlink:title=" ">
<polygon fill="#e0e0e0" stroke="#999999" points="680.5,-129 620.5,-129 620.5,-110 680.5,-110 680.5,-129"/>
<text text-anchor="middle" x="650.5" y="-117" font-family="Helvetica,sans-Serif" font-size="10.00">iostream</text>
</a>
</g>
</g>
<!-- Node11&#45;&gt;Node12 -->
<g id="edge12" class="edge">
<title>Node11&#45;&gt;Node12</title>
<path fill="none" stroke="#63b8ff" d="M600.98,-164.98C609.7,-157.15 622.84,-145.34 633.4,-135.86"/>
<polygon fill="#63b8ff" stroke="#63b8ff" points="635.75,-138.46 640.85,-129.17 631.07,-133.25 635.75,-138.46"/>
</g>
<!-- Node13 -->
<g id="node13" class="node">
<title>Node13</title>
<g id="a_node13"><a xlink:title=" ">
<polygon fill="#e0e0e0" stroke="#999999" points="756.5,-129 698.5,-129 698.5,-110 756.5,-110 756.5,-129"/>
<text text-anchor="middle" x="727.5" y="-117" font-family="Helvetica,sans-Serif" font-size="10.00">memory</text>
</a>
</g>
</g>
<!-- Node11&#45;&gt;Node13 -->
<g id="edge13" class="edge">
<title>Node11&#45;&gt;Node13</title>
<path fill="none" stroke="#63b8ff" d="M613.35,-164.98C635.62,-156.3 670.4,-142.75 695.72,-132.88"/>
<polygon fill="#63b8ff" stroke="#63b8ff" points="697.21,-136.06 705.25,-129.17 694.66,-129.54 697.21,-136.06"/>
</g>
<!-- Node11&#45;&gt;Node14 -->
<g id="edge15" class="edge">
<title>Node11&#45;&gt;Node14</title>
<path fill="none" stroke="#63b8ff" d="M551.98,-164.98C508.41,-155.6 438.4,-140.52 392.17,-130.56"/>
<polygon fill="#63b8ff" stroke="#63b8ff" points="392.63,-127.07 382.11,-128.39 391.15,-133.92 392.63,-127.07"/>
</g>
<!-- Node15 -->
<g id="node15" class="node">
<title>Node15</title>
<g id="a_node15"><a xlink:title=" ">
<polygon fill="#e0e0e0" stroke="#999999" points="820,-129 775,-129 775,-110 820,-110 820,-129"/>
<text text-anchor="middle" x="797.5" y="-117" font-family="Helvetica,sans-Serif" font-size="10.00">utility</text>
</a>
</g>
</g>
<!-- Node11&#45;&gt;Node15 -->
<g id="edge16" class="edge">
<title>Node11&#45;&gt;Node15</title>
<path fill="none" stroke="#63b8ff" d="M625.21,-164.98C658.29,-156.59 710.44,-143.31 764.94,-129.13"/>
<polygon fill="#63b8ff" stroke="#63b8ff" points="765.99,-132.47 774.78,-126.56 764.22,-125.7 765.99,-132.47"/>
</g>
<!-- Node11&#45;&gt;Node16 -->
<g id="edge17" class="edge">
<title>Node11&#45;&gt;Node16</title>
<path fill="none" stroke="#63b8ff" d="M583.08,-164.75C575.73,-157.11 564.87,-145.82 555.96,-136.56"/>
<polygon fill="#63b8ff" stroke="#63b8ff" points="558.22,-133.87 548.76,-129.09 553.18,-138.72 558.22,-133.87"/>
</g>
<!-- Node17&#45;&gt;Node10 -->
<g id="edge19" class="edge">
<title>Node17&#45;&gt;Node10</title>
<path fill="none" stroke="#63b8ff" d="M251.25,-164.64C251.35,-151.3 253.4,-125.92 266.5,-110 283.1,-89.82 310.81,-78.4 332.54,-72.2"/>
<polygon fill="#63b8ff" stroke="#63b8ff" points="333.55,-75.56 342.34,-69.64 331.78,-68.78 333.55,-75.56"/>
</g>
<!-- Node17&#45;&gt;Node14 -->
<g id="edge20" class="edge">
<title>Node17&#45;&gt;Node14</title>
<path fill="none" stroke="#63b8ff" d="M266.6,-164.98C281.32,-156.69 303.92,-143.94 321.17,-134.22"/>
<polygon fill="#63b8ff" stroke="#63b8ff" points="323.13,-137.13 330.12,-129.17 319.69,-131.03 323.13,-137.13"/>
</g>
<!-- Node18&#45;&gt;Node8 -->
<g id="edge25" class="edge">
<title>Node18&#45;&gt;Node8</title>
<path fill="none" stroke="#63b8ff" d="M175.27,-219.96C170.39,-199.32 160.85,-145.76 182.5,-110 191.29,-95.48 206.73,-85.23 221.48,-78.25"/>
<polygon fill="#63b8ff" stroke="#63b8ff" points="223.22,-81.31 231.01,-74.13 220.44,-74.89 223.22,-81.31"/>
</g>
<!-- Node18&#45;&gt;Node10 -->
<g id="edge26" class="edge">
<title>Node18&#45;&gt;Node10</title>
<path fill="none" stroke="#63b8ff" d="M180.69,-219.99C189.16,-198.44 214.34,-141.26 253.5,-110 276.68,-91.49 308.56,-79.79 332.2,-73.05"/>
<polygon fill="#63b8ff" stroke="#63b8ff" points="333.36,-76.36 342.11,-70.38 331.54,-69.6 333.36,-76.36"/>
</g>
<!-- Node19&#45;&gt;Node5 -->
<g id="edge30" class="edge">
<title>Node19&#45;&gt;Node5</title>
<path fill="none" stroke="#63b8ff" d="M526.54,-340.96C492.07,-330.59 450.13,-317.97 417.02,-308"/>
<polygon fill="#63b8ff" stroke="#63b8ff" points="417.63,-304.53 407.05,-305 415.61,-311.24 417.63,-304.53"/>
</g>
<!-- Node19&#45;&gt;Node10 -->
<g id="edge31" class="edge">
<title>Node19&#45;&gt;Node10</title>
<path fill="none" stroke="#63b8ff" d="M658.35,-340.95C734.5,-316.64 848.5,-273.13 848.5,-230.5 848.5,-230.5 848.5,-230.5 848.5,-173.5 848.5,-144.04 852.26,-128.7 829.5,-110 796.13,-82.59 496.41,-69.99 396.64,-66.52"/>
<polygon fill="#63b8ff" stroke="#63b8ff" points="396.67,-63.02 386.55,-66.18 396.43,-70.02 396.67,-63.02"/>
</g>
<!-- Node19&#45;&gt;Node11 -->
<g id="edge29" class="edge">
<title>Node19&#45;&gt;Node11</title>
<path fill="none" stroke="#63b8ff" d="M591.5,-340.7C591.5,-304.86 591.5,-229.67 591.5,-194.46"/>
<polygon fill="#63b8ff" stroke="#63b8ff" points="595,-194.16 591.5,-184.16 588,-194.16 595,-194.16"/>
</g>
<!-- Node20&#45;&gt;Node5 -->
<g id="edge33" class="edge">
<title>Node20&#45;&gt;Node5</title>
<path fill="none" stroke="#63b8ff" d="M356.92,-340.77C357.5,-332.76 358.17,-323.42 358.77,-315.02"/>
<polygon fill="#63b8ff" stroke="#63b8ff" points="362.26,-315.26 359.49,-305.04 355.28,-314.76 362.26,-315.26"/>
</g>
</g>
</svg>
        <g id="navigator" transform="translate(0 0)" fill="#404254">
                <rect fill="#f2f5e9" fill-opacity="0.5" stroke="#606060" stroke-width=".5" x="0" y="0" width="60" height="60"/>
                <use id="zoomplus" xlink:href="#zoomPlus" x="17" y="9" onmousedown="handleZoom(evt,'in')"/>
                <use id="zoomminus" xlink:href="#zoomMin" x="42" y="9" onmousedown="handleZoom(evt,'out')"/>
                <use id="reset" xlink:href="#resetDef" x="30" y="36" onmousedown="handleReset()"/>
                <g id="arrowUp" xlink:href="#dirArrow" transform="translate(30 24)" onmousedown="handlePan(0,-1)">
                  <use xlink:href="#rim" fill="#404040">
                        <set attributeName="fill" to="#808080" begin="arrowUp.mouseover" end="arrowUp.mouseout"/>
                  </use>
                  <path fill="none" stroke="white" stroke-width="1.5" d="M0,-3.0v7 M-2.5,-0.5L0,-3.0L2.5,-0.5"/>
                </g>
                <g id="arrowRight" xlink:href="#dirArrow" transform="rotate(90) translate(36 -43)" onmousedown="handlePan(1,0)">
                  <use xlink:href="#rim" fill="#404040">
                        <set attributeName="fill" to="#808080" begin="arrowRight.mouseover" end="arrowRight.mouseout"/>
                  </use>
                  <path fill="none" stroke="white" stroke-width="1.5" d="M0,-3.0v7 M-2.5,-0.5L0,-3.0L2.5,-0.5"/>
                </g>
                <g id="arrowDown" xlink:href="#dirArrow" transform="rotate(180) translate(-30 -48)" onmousedown="handlePan(0,1)">
                  <use xlink:href="#rim" fill="#404040">
                        <set attributeName="fill" to="#808080" begin="arrowDown.mouseover" end="arrowDown.mouseout"/>
                  </use>
                  <path fill="none" stroke="white" stroke-width="1.5" d="M0,-3.0v7 M-2.5,-0.5L0,-3.0L2.5,-0.5"/>
                </g>
                <g id="arrowLeft" xlink:href="#dirArrow" transform="rotate(270) translate(-36 17)" onmousedown="handlePan(-1,0)">
                  <use xlink:href="#rim" fill="#404040">
                        <set attributeName="fill" to="#808080" begin="arrowLeft.mouseover" end="arrowLeft.mouseout"/>
                  </use>
                  <path fill="none" stroke="white" stroke-width="1.5" d="M0,-3.0v7 M-2.5,-0.5L0,-3.0L2.5,-0.5"/>
                </g>
        </g>
        <svg viewBox="0 0 15 15" width="100%" height="30px" preserveAspectRatio="xMaxYMin meet">
         <g id="arrow_out" transform="scale(0.3 0.3)">
          <a xlink:href="rewardEffectFactory_8cpp__incl_org.svg" target="_base">
           <rect id="button" ry="5" rx="5" y="6" x="6" height="38" width="38"
                fill="#f2f5e9" fill-opacity="0.5" stroke="#606060" stroke-width="1.0"/>
           <path id="arrow"
             d="M 11.500037,31.436501 C 11.940474,20.09759 22.043105,11.32322 32.158766,21.979434 L 37.068811,17.246167 C 37.068811,17.246167 37.088388,32 37.088388,32 L 22.160133,31.978069 C 22.160133,31.978069 26.997745,27.140456 26.997745,27.140456 C 18.528582,18.264221 13.291696,25.230495 11.500037,31.436501 z"
             style="fill:#404040;"/>
          </a>
         </g>
        </svg>
</svg>
