<?xml version="1.0" encoding="UTF-8" standalone="no"?>
<!DOCTYPE svg PUBLIC "-//W3C//DTD SVG 1.1//EN"
 "http://www.w3.org/Graphics/SVG/1.1/DTD/svg11.dtd">
<!-- Generated by graphviz version 2.43.0 (0)
 -->
<!-- Title: DeckEntry Pages: 1 -->
<svg width="140pt" height="171pt"
 viewBox="0.00 0.00 140.00 171.00" xmlns="http://www.w3.org/2000/svg" xmlns:xlink="http://www.w3.org/1999/xlink">
<g id="graph0" class="graph" transform="scale(1 1) rotate(0) translate(4 167)">
<title>DeckEntry</title>
<!-- Node1 -->
<g id="node1" class="node">
<title>Node1</title>
<g id="a_node1"><a xlink:title="Represents a single card entry in the player&#39;s persistent deck.">
<polygon fill="#999999" stroke="#666666" points="20.5,-0.5 20.5,-57.5 87.5,-57.5 87.5,-0.5 20.5,-0.5"/>
<text text-anchor="middle" x="54" y="-45.5" font-family="Helvetica,sans-Serif" font-size="10.00">DeckEntry</text>
<polyline fill="none" stroke="#666666" points="20.5,-38.5 87.5,-38.5 "/>
<text text-anchor="middle" x="54" y="-26.5" font-family="Helvetica,sans-Serif" font-size="10.00"> </text>
<polyline fill="none" stroke="#666666" points="20.5,-19.5 87.5,-19.5 "/>
<text text-anchor="middle" x="54" y="-7.5" font-family="Helvetica,sans-Serif" font-size="10.00"> </text>
</a>
</g>
</g>
<!-- Node2 -->
<g id="node2" class="node">
<title>Node2</title>
<g id="a_node2"><a xlink:title=" ">
<polygon fill="white" stroke="#666666" points="0,-105.5 0,-162.5 44,-162.5 44,-105.5 0,-105.5"/>
<text text-anchor="middle" x="22" y="-150.5" font-family="Helvetica,sans-Serif" font-size="10.00">string</text>
<polyline fill="none" stroke="#666666" points="0,-143.5 44,-143.5 "/>
<text text-anchor="middle" x="22" y="-131.5" font-family="Helvetica,sans-Serif" font-size="10.00"> </text>
<polyline fill="none" stroke="#666666" points="0,-124.5 44,-124.5 "/>
<text text-anchor="middle" x="22" y="-112.5" font-family="Helvetica,sans-Serif" font-size="10.00"> </text>
</a>
</g>
</g>
<!-- Node2&#45;&gt;Node1 -->
<g id="edge1" class="edge">
<title>Node2&#45;&gt;Node1</title>
<path fill="none" stroke="#404040" d="M19.34,-105.24C19.26,-95.77 20.08,-85.25 23,-76 23.81,-73.43 24.82,-70.86 25.96,-68.34"/>
<polygon fill="none" stroke="#404040" points="26.04,-68.19 25.37,-61.01 31.74,-57.63 32.41,-64.81 26.04,-68.19"/>
<text text-anchor="middle" x="44" y="-79" font-family="Helvetica,sans-Serif" font-size="10.00"> +cardId</text>
</g>
<!-- Node3 -->
<g id="node3" class="node">
<title>Node3</title>
<g id="a_node3"><a xlink:title=" ">
<polygon fill="white" stroke="#666666" points="72.5,-105.5 72.5,-162.5 101.5,-162.5 101.5,-105.5 72.5,-105.5"/>
<text text-anchor="middle" x="87" y="-150.5" font-family="Helvetica,sans-Serif" font-size="10.00">int</text>
<polyline fill="none" stroke="#666666" points="72.5,-143.5 101.5,-143.5 "/>
<text text-anchor="middle" x="87" y="-131.5" font-family="Helvetica,sans-Serif" font-size="10.00"> </text>
<polyline fill="none" stroke="#666666" points="72.5,-124.5 101.5,-124.5 "/>
<text text-anchor="middle" x="87" y="-112.5" font-family="Helvetica,sans-Serif" font-size="10.00"> </text>
</a>
</g>
</g>
<!-- Node3&#45;&gt;Node1 -->
<g id="edge2" class="edge">
<title>Node3&#45;&gt;Node1</title>
<path fill="none" stroke="#404040" d="M78.16,-105.4C74.61,-94.31 70.45,-81.33 66.59,-69.3"/>
<polygon fill="none" stroke="#404040" points="66.53,-69.11 60.89,-64.61 62.87,-57.68 68.51,-62.17 66.53,-69.11"/>
<text text-anchor="middle" x="101.5" y="-79" font-family="Helvetica,sans-Serif" font-size="10.00"> +cardCount</text>
</g>
</g>
</svg>
