<?xml version="1.0" encoding="UTF-8" standalone="no"?>
<!DOCTYPE svg PUBLIC "-//W3C//DTD SVG 1.1//EN"
 "http://www.w3.org/Graphics/SVG/1.1/DTD/svg11.dtd">
<!-- Generated by graphviz version 2.43.0 (0)
 -->
<!-- Title: EffectParams Pages: 1 -->
<svg width="97pt" height="182pt"
 viewBox="0.00 0.00 97.00 182.00" xmlns="http://www.w3.org/2000/svg" xmlns:xlink="http://www.w3.org/1999/xlink">
<g id="graph0" class="graph" transform="scale(1 1) rotate(0) translate(4 178)">
<title>EffectParams</title>
<!-- Node1 -->
<g id="node1" class="node">
<title>Node1</title>
<g id="a_node1"><a xlink:title=" ">
<polygon fill="#999999" stroke="#666666" points="0,-0.5 0,-57.5 80,-57.5 80,-0.5 0,-0.5"/>
<text text-anchor="middle" x="40" y="-45.5" font-family="Helvetica,sans-Serif" font-size="10.00">EffectParams</text>
<polyline fill="none" stroke="#666666" points="0,-38.5 80,-38.5 "/>
<text text-anchor="middle" x="40" y="-26.5" font-family="Helvetica,sans-Serif" font-size="10.00"> </text>
<polyline fill="none" stroke="#666666" points="0,-19.5 80,-19.5 "/>
<text text-anchor="middle" x="40" y="-7.5" font-family="Helvetica,sans-Serif" font-size="10.00"> </text>
</a>
</g>
</g>
<!-- Node2 -->
<g id="node2" class="node">
<title>Node2</title>
<g id="a_node2"><a xlink:title=" ">
<polygon fill="white" stroke="#666666" points="25.5,-116.5 25.5,-173.5 54.5,-173.5 54.5,-116.5 25.5,-116.5"/>
<text text-anchor="middle" x="40" y="-161.5" font-family="Helvetica,sans-Serif" font-size="10.00">int</text>
<polyline fill="none" stroke="#666666" points="25.5,-154.5 54.5,-154.5 "/>
<text text-anchor="middle" x="40" y="-142.5" font-family="Helvetica,sans-Serif" font-size="10.00"> </text>
<polyline fill="none" stroke="#666666" points="25.5,-135.5 54.5,-135.5 "/>
<text text-anchor="middle" x="40" y="-123.5" font-family="Helvetica,sans-Serif" font-size="10.00"> </text>
</a>
</g>
</g>
<!-- Node2&#45;&gt;Node1 -->
<g id="edge1" class="edge">
<title>Node2&#45;&gt;Node1</title>
<path fill="none" stroke="#404040" d="M40,-116.4C40,-102.5 40,-85.39 40,-70.07"/>
<polygon fill="none" stroke="#404040" points="40,-69.74 36,-63.74 40,-57.74 44,-63.74 40,-69.74"/>
<text text-anchor="middle" x="64.5" y="-90" font-family="Helvetica,sans-Serif" font-size="10.00"> +armor</text>
<text text-anchor="middle" x="64.5" y="-79" font-family="Helvetica,sans-Serif" font-size="10.00">+damage</text>
</g>
</g>
</svg>
