<?xml version="1.0" encoding="UTF-8" standalone="no"?>
<!DOCTYPE svg PUBLIC "-//W3C//DTD SVG 1.1//EN"
 "http://www.w3.org/Graphics/SVG/1.1/DTD/svg11.dtd">
<!-- Generated by graphviz version 2.43.0 (0)
 -->
<!-- Title: EnemyMove Pages: 1 -->
<svg width="293pt" height="298pt"
 viewBox="0.00 0.00 292.50 298.00" xmlns="http://www.w3.org/2000/svg" xmlns:xlink="http://www.w3.org/1999/xlink">
<g id="graph0" class="graph" transform="scale(1 1) rotate(0) translate(4 294)">
<title>EnemyMove</title>
<!-- Node1 -->
<g id="node1" class="node">
<title>Node1</title>
<g id="a_node1"><a xlink:title=" ">
<polygon fill="#999999" stroke="#666666" points="123,-0.5 123,-57.5 200,-57.5 200,-0.5 123,-0.5"/>
<text text-anchor="middle" x="161.5" y="-45.5" font-family="Helvetica,sans-Serif" font-size="10.00">EnemyMove</text>
<polyline fill="none" stroke="#666666" points="123,-38.5 200,-38.5 "/>
<text text-anchor="middle" x="161.5" y="-26.5" font-family="Helvetica,sans-Serif" font-size="10.00"> </text>
<polyline fill="none" stroke="#666666" points="123,-19.5 200,-19.5 "/>
<text text-anchor="middle" x="161.5" y="-7.5" font-family="Helvetica,sans-Serif" font-size="10.00"> </text>
</a>
</g>
</g>
<!-- Node2 -->
<g id="node2" class="node">
<title>Node2</title>
<g id="a_node2"><a xlink:title=" ">
<polygon fill="white" stroke="#666666" points="0,-105.5 0,-173.5 113,-173.5 113,-105.5 0,-105.5"/>
<text text-anchor="start" x="8" y="-161.5" font-family="Helvetica,sans-Serif" font-size="10.00">vector&lt; std::unique</text>
<text text-anchor="middle" x="56.5" y="-150.5" font-family="Helvetica,sans-Serif" font-size="10.00">_ptr&lt; Effect &gt; &gt;</text>
<polyline fill="none" stroke="#666666" points="0,-143.5 113,-143.5 "/>
<text text-anchor="middle" x="56.5" y="-131.5" font-family="Helvetica,sans-Serif" font-size="10.00"> </text>
<polyline fill="none" stroke="#666666" points="0,-124.5 113,-124.5 "/>
<text text-anchor="middle" x="56.5" y="-112.5" font-family="Helvetica,sans-Serif" font-size="10.00"> </text>
</a>
</g>
</g>
<!-- Node2&#45;&gt;Node1 -->
<g id="edge1" class="edge">
<title>Node2&#45;&gt;Node1</title>
<path fill="none" stroke="#404040" d="M77.08,-105.21C83.94,-95.31 92.01,-84.77 100.5,-76 104.5,-71.87 108.89,-67.82 113.43,-63.94"/>
<polygon fill="none" stroke="#404040" points="113.57,-63.82 115.7,-56.93 122.87,-56.25 120.75,-63.14 113.57,-63.82"/>
<text text-anchor="middle" x="129" y="-79" font-family="Helvetica,sans-Serif" font-size="10.00"> +effectList</text>
</g>
<!-- Node3 -->
<g id="node3" class="node">
<title>Node3</title>
<g id="a_node3"><a xlink:href="structEffectParams.html" target="_top" xlink:title=" ">
<polygon fill="white" stroke="#666666" points="131.5,-111 131.5,-168 211.5,-168 211.5,-111 131.5,-111"/>
<text text-anchor="middle" x="171.5" y="-156" font-family="Helvetica,sans-Serif" font-size="10.00">EffectParams</text>
<polyline fill="none" stroke="#666666" points="131.5,-149 211.5,-149 "/>
<text text-anchor="middle" x="171.5" y="-137" font-family="Helvetica,sans-Serif" font-size="10.00"> </text>
<polyline fill="none" stroke="#666666" points="131.5,-130 211.5,-130 "/>
<text text-anchor="middle" x="171.5" y="-118" font-family="Helvetica,sans-Serif" font-size="10.00"> </text>
</a>
</g>
</g>
<!-- Node3&#45;&gt;Node1 -->
<g id="edge2" class="edge">
<title>Node3&#45;&gt;Node1</title>
<path fill="none" stroke="#404040" d="M165.85,-110.81C164.5,-103.13 163.24,-94.77 162.5,-87 161.97,-81.47 161.63,-75.64 161.41,-69.88"/>
<polygon fill="none" stroke="#404040" points="161.4,-69.59 157.26,-63.68 161.12,-57.59 165.26,-63.5 161.4,-69.59"/>
<text text-anchor="middle" x="200.5" y="-79" font-family="Helvetica,sans-Serif" font-size="10.00"> +effectParams</text>
</g>
<!-- Node4 -->
<g id="node4" class="node">
<title>Node4</title>
<g id="a_node4"><a xlink:title=" ">
<polygon fill="white" stroke="#666666" points="157,-232.5 157,-289.5 186,-289.5 186,-232.5 157,-232.5"/>
<text text-anchor="middle" x="171.5" y="-277.5" font-family="Helvetica,sans-Serif" font-size="10.00">int</text>
<polyline fill="none" stroke="#666666" points="157,-270.5 186,-270.5 "/>
<text text-anchor="middle" x="171.5" y="-258.5" font-family="Helvetica,sans-Serif" font-size="10.00"> </text>
<polyline fill="none" stroke="#666666" points="157,-251.5 186,-251.5 "/>
<text text-anchor="middle" x="171.5" y="-239.5" font-family="Helvetica,sans-Serif" font-size="10.00"> </text>
</a>
</g>
</g>
<!-- Node4&#45;&gt;Node3 -->
<g id="edge3" class="edge">
<title>Node4&#45;&gt;Node3</title>
<path fill="none" stroke="#404040" d="M171.5,-232.28C171.5,-216.9 171.5,-197.49 171.5,-180.49"/>
<polygon fill="none" stroke="#404040" points="171.5,-180.07 167.5,-174.07 171.5,-168.07 175.5,-174.07 171.5,-180.07"/>
<text text-anchor="middle" x="196" y="-206" font-family="Helvetica,sans-Serif" font-size="10.00"> +armor</text>
<text text-anchor="middle" x="196" y="-195" font-family="Helvetica,sans-Serif" font-size="10.00">+damage</text>
</g>
<!-- Node5 -->
<g id="node5" class="node">
<title>Node5</title>
<g id="a_node5"><a xlink:title=" ">
<polygon fill="white" stroke="#666666" points="238.5,-111 238.5,-168 282.5,-168 282.5,-111 238.5,-111"/>
<text text-anchor="middle" x="260.5" y="-156" font-family="Helvetica,sans-Serif" font-size="10.00">string</text>
<polyline fill="none" stroke="#666666" points="238.5,-149 282.5,-149 "/>
<text text-anchor="middle" x="260.5" y="-137" font-family="Helvetica,sans-Serif" font-size="10.00"> </text>
<polyline fill="none" stroke="#666666" points="238.5,-130 282.5,-130 "/>
<text text-anchor="middle" x="260.5" y="-118" font-family="Helvetica,sans-Serif" font-size="10.00"> </text>
</a>
</g>
</g>
<!-- Node5&#45;&gt;Node1 -->
<g id="edge4" class="edge">
<title>Node5&#45;&gt;Node1</title>
<path fill="none" stroke="#404040" d="M255.19,-110.89C251.89,-99.18 246.65,-85.97 238.5,-76 230.97,-66.78 221.06,-58.97 210.88,-52.54"/>
<polygon fill="none" stroke="#404040" points="210.62,-52.39 203.42,-52.82 200.26,-46.35 207.46,-45.91 210.62,-52.39"/>
<text text-anchor="middle" x="264.5" y="-79" font-family="Helvetica,sans-Serif" font-size="10.00"> +name</text>
</g>
</g>
</svg>
