<?xml version="1.0" encoding="UTF-8" standalone="no"?>
<!DOCTYPE svg PUBLIC "-//W3C//DTD SVG 1.1//EN"
 "http://www.w3.org/Graphics/SVG/1.1/DTD/svg11.dtd">
<!-- Generated by graphviz version 2.43.0 (0)
 -->
<!-- Title: DamageInfo Pages: 1 -->
<svg width="322pt" height="408pt"
 viewBox="0.00 0.00 322.46 408.00" xmlns="http://www.w3.org/2000/svg" xmlns:xlink="http://www.w3.org/1999/xlink">
<g id="graph0" class="graph" transform="scale(1 1) rotate(0) translate(4 404)">
<title>DamageInfo</title>
<!-- Node1 -->
<g id="node1" class="node">
<title>Node1</title>
<g id="a_node1"><a xlink:title=" ">
<polygon fill="#999999" stroke="#666666" points="93.96,-0.5 93.96,-57.5 170.96,-57.5 170.96,-0.5 93.96,-0.5"/>
<text text-anchor="middle" x="132.46" y="-45.5" font-family="Helvetica,sans-Serif" font-size="10.00">DamageInfo</text>
<polyline fill="none" stroke="#666666" points="93.96,-38.5 170.96,-38.5 "/>
<text text-anchor="middle" x="132.46" y="-26.5" font-family="Helvetica,sans-Serif" font-size="10.00"> </text>
<polyline fill="none" stroke="#666666" points="93.96,-19.5 170.96,-19.5 "/>
<text text-anchor="middle" x="132.46" y="-7.5" font-family="Helvetica,sans-Serif" font-size="10.00"> </text>
</a>
</g>
</g>
<!-- Node2 -->
<g id="node2" class="node">
<title>Node2</title>
<g id="a_node2"><a xlink:href="classEntity.html" target="_top" xlink:title=" ">
<polygon fill="white" stroke="#666666" points="78.96,-116.5 78.96,-272.5 185.96,-272.5 185.96,-116.5 78.96,-116.5"/>
<text text-anchor="middle" x="132.46" y="-260.5" font-family="Helvetica,sans-Serif" font-size="10.00">Entity</text>
<polyline fill="none" stroke="#666666" points="78.96,-253.5 185.96,-253.5 "/>
<text text-anchor="middle" x="132.46" y="-241.5" font-family="Helvetica,sans-Serif" font-size="10.00"> </text>
<polyline fill="none" stroke="#666666" points="78.96,-234.5 185.96,-234.5 "/>
<text text-anchor="start" x="86.96" y="-222.5" font-family="Helvetica,sans-Serif" font-size="10.00">+ Entity()</text>
<text text-anchor="start" x="86.96" y="-211.5" font-family="Helvetica,sans-Serif" font-size="10.00">+ Entity()</text>
<text text-anchor="start" x="86.96" y="-200.5" font-family="Helvetica,sans-Serif" font-size="10.00">+ getName()</text>
<text text-anchor="start" x="86.96" y="-189.5" font-family="Helvetica,sans-Serif" font-size="10.00">+ getArmor()</text>
<text text-anchor="start" x="86.96" y="-178.5" font-family="Helvetica,sans-Serif" font-size="10.00">+ resetArmor()</text>
<text text-anchor="start" x="86.96" y="-167.5" font-family="Helvetica,sans-Serif" font-size="10.00">+ increaseArmor()</text>
<text text-anchor="start" x="86.96" y="-156.5" font-family="Helvetica,sans-Serif" font-size="10.00">+ lowerArmor()</text>
<text text-anchor="start" x="86.96" y="-145.5" font-family="Helvetica,sans-Serif" font-size="10.00">+ getHp()</text>
<text text-anchor="start" x="86.96" y="-134.5" font-family="Helvetica,sans-Serif" font-size="10.00">+ lowerHp()</text>
<text text-anchor="start" x="86.96" y="-123.5" font-family="Helvetica,sans-Serif" font-size="10.00">+ increaseHp()</text>
</a>
</g>
</g>
<!-- Node2&#45;&gt;Node1 -->
<g id="edge1" class="edge">
<title>Node2&#45;&gt;Node1</title>
<path fill="none" stroke="#404040" d="M132.46,-116.06C132.46,-100.01 132.46,-83.73 132.46,-69.72"/>
<polygon fill="none" stroke="#404040" points="132.46,-69.56 128.46,-63.56 132.46,-57.56 136.46,-63.56 132.46,-69.56"/>
<text text-anchor="middle" x="158.46" y="-90" font-family="Helvetica,sans-Serif" font-size="10.00"> +attacker</text>
<text text-anchor="middle" x="158.46" y="-79" font-family="Helvetica,sans-Serif" font-size="10.00">+target</text>
</g>
<!-- Node3 -->
<g id="node3" class="node">
<title>Node3</title>
<g id="a_node3"><a xlink:title=" ">
<polygon fill="white" stroke="#666666" points="13.96,-342.5 13.96,-399.5 42.96,-399.5 42.96,-342.5 13.96,-342.5"/>
<text text-anchor="middle" x="28.46" y="-387.5" font-family="Helvetica,sans-Serif" font-size="10.00">int</text>
<polyline fill="none" stroke="#666666" points="13.96,-380.5 42.96,-380.5 "/>
<text text-anchor="middle" x="28.46" y="-368.5" font-family="Helvetica,sans-Serif" font-size="10.00"> </text>
<polyline fill="none" stroke="#666666" points="13.96,-361.5 42.96,-361.5 "/>
<text text-anchor="middle" x="28.46" y="-349.5" font-family="Helvetica,sans-Serif" font-size="10.00"> </text>
</a>
</g>
</g>
<!-- Node3&#45;&gt;Node1 -->
<g id="edge4" class="edge">
<title>Node3&#45;&gt;Node1</title>
<path fill="none" stroke="#404040" d="M19.53,-342.28C5.52,-293.59 -16.41,-190.79 20.46,-116 33.67,-89.21 59.67,-68.44 83.3,-54.03"/>
<polygon fill="none" stroke="#404040" points="83.56,-53.88 86.74,-47.41 93.94,-47.85 90.75,-54.33 83.56,-53.88"/>
<text text-anchor="middle" x="44.96" y="-192" font-family="Helvetica,sans-Serif" font-size="10.00"> +amount</text>
</g>
<!-- Node3&#45;&gt;Node2 -->
<g id="edge2" class="edge">
<title>Node3&#45;&gt;Node2</title>
<path fill="none" stroke="#404040" d="M42.98,-343.11C51.39,-327.73 62.3,-308.16 72.46,-291 74.01,-288.38 75.59,-285.73 77.2,-283.06"/>
<polygon fill="none" stroke="#404040" points="77.26,-282.95 76.95,-275.75 83.48,-272.69 83.79,-279.89 77.26,-282.95"/>
<text text-anchor="middle" x="100.46" y="-316" font-family="Helvetica,sans-Serif" font-size="10.00"> #m_armor</text>
<text text-anchor="middle" x="100.46" y="-305" font-family="Helvetica,sans-Serif" font-size="10.00">#m_attack</text>
<text text-anchor="middle" x="100.46" y="-294" font-family="Helvetica,sans-Serif" font-size="10.00">#m_hp</text>
</g>
<!-- Node4 -->
<g id="node4" class="node">
<title>Node4</title>
<g id="a_node4"><a xlink:title=" ">
<polygon fill="white" stroke="#666666" points="110.46,-342.5 110.46,-399.5 154.46,-399.5 154.46,-342.5 110.46,-342.5"/>
<text text-anchor="middle" x="132.46" y="-387.5" font-family="Helvetica,sans-Serif" font-size="10.00">string</text>
<polyline fill="none" stroke="#666666" points="110.46,-380.5 154.46,-380.5 "/>
<text text-anchor="middle" x="132.46" y="-368.5" font-family="Helvetica,sans-Serif" font-size="10.00"> </text>
<polyline fill="none" stroke="#666666" points="110.46,-361.5 154.46,-361.5 "/>
<text text-anchor="middle" x="132.46" y="-349.5" font-family="Helvetica,sans-Serif" font-size="10.00"> </text>
</a>
</g>
</g>
<!-- Node4&#45;&gt;Node2 -->
<g id="edge3" class="edge">
<title>Node4&#45;&gt;Node2</title>
<path fill="none" stroke="#404040" d="M132.46,-342.35C132.46,-326.6 132.46,-305.9 132.46,-285.02"/>
<polygon fill="none" stroke="#404040" points="132.46,-284.74 128.46,-278.74 132.46,-272.74 136.46,-278.74 132.46,-284.74"/>
<text text-anchor="middle" x="159.96" y="-305" font-family="Helvetica,sans-Serif" font-size="10.00"> #m_name</text>
</g>
<!-- Node5 -->
<g id="node5" class="node">
<title>Node5</title>
<g id="a_node5"><a xlink:title=" ">
<polygon fill="white" stroke="#666666" points="204.46,-166 204.46,-223 314.46,-223 314.46,-166 204.46,-166"/>
<text text-anchor="middle" x="259.46" y="-211" font-family="Helvetica,sans-Serif" font-size="10.00">DamageResolution</text>
<polyline fill="none" stroke="#666666" points="204.46,-204 314.46,-204 "/>
<text text-anchor="middle" x="259.46" y="-192" font-family="Helvetica,sans-Serif" font-size="10.00"> </text>
<polyline fill="none" stroke="#666666" points="204.46,-185 314.46,-185 "/>
<text text-anchor="middle" x="259.46" y="-173" font-family="Helvetica,sans-Serif" font-size="10.00"> </text>
</a>
</g>
</g>
<!-- Node5&#45;&gt;Node1 -->
<g id="edge5" class="edge">
<title>Node5&#45;&gt;Node1</title>
<path fill="none" stroke="#404040" d="M246.06,-165.62C233.29,-140.64 212.48,-103.76 188.46,-76 185.4,-72.46 182.04,-68.98 178.55,-65.62"/>
<polygon fill="none" stroke="#404040" points="178.52,-65.59 171.39,-64.52 169.65,-57.52 176.78,-58.6 178.52,-65.59"/>
<text text-anchor="middle" x="255.96" y="-84.5" font-family="Helvetica,sans-Serif" font-size="10.00"> +damageResolution</text>
</g>
</g>
</svg>
