<?xml version="1.0" encoding="UTF-8" standalone="no"?>
<!DOCTYPE svg PUBLIC "-//W3C//DTD SVG 1.1//EN"
 "http://www.w3.org/Graphics/SVG/1.1/DTD/svg11.dtd">
<!-- Generated by graphviz version 2.43.0 (0)
 -->
<!-- Title: DamageResult Pages: 1 -->
<svg width="160pt" height="193pt"
 viewBox="0.00 0.00 159.50 193.00" xmlns="http://www.w3.org/2000/svg" xmlns:xlink="http://www.w3.org/1999/xlink">
<g id="graph0" class="graph" transform="scale(1 1) rotate(0) translate(4 189)">
<title>DamageResult</title>
<!-- Node1 -->
<g id="node1" class="node">
<title>Node1</title>
<g id="a_node1"><a xlink:title=" ">
<polygon fill="#999999" stroke="#666666" points="12,-0.5 12,-57.5 101,-57.5 101,-0.5 12,-0.5"/>
<text text-anchor="middle" x="56.5" y="-45.5" font-family="Helvetica,sans-Serif" font-size="10.00">DamageResult</text>
<polyline fill="none" stroke="#666666" points="12,-38.5 101,-38.5 "/>
<text text-anchor="middle" x="56.5" y="-26.5" font-family="Helvetica,sans-Serif" font-size="10.00"> </text>
<polyline fill="none" stroke="#666666" points="12,-19.5 101,-19.5 "/>
<text text-anchor="middle" x="56.5" y="-7.5" font-family="Helvetica,sans-Serif" font-size="10.00"> </text>
</a>
</g>
</g>
<!-- Node2 -->
<g id="node2" class="node">
<title>Node2</title>
<g id="a_node2"><a xlink:title=" ">
<polygon fill="white" stroke="#666666" points="0,-127.5 0,-184.5 29,-184.5 29,-127.5 0,-127.5"/>
<text text-anchor="middle" x="14.5" y="-172.5" font-family="Helvetica,sans-Serif" font-size="10.00">int</text>
<polyline fill="none" stroke="#666666" points="0,-165.5 29,-165.5 "/>
<text text-anchor="middle" x="14.5" y="-153.5" font-family="Helvetica,sans-Serif" font-size="10.00"> </text>
<polyline fill="none" stroke="#666666" points="0,-146.5 29,-146.5 "/>
<text text-anchor="middle" x="14.5" y="-134.5" font-family="Helvetica,sans-Serif" font-size="10.00"> </text>
</a>
</g>
</g>
<!-- Node2&#45;&gt;Node1 -->
<g id="edge1" class="edge">
<title>Node2&#45;&gt;Node1</title>
<path fill="none" stroke="#404040" d="M10.2,-127.41C8.9,-111.81 9.2,-92.24 15.5,-76 16.62,-73.12 18.01,-70.31 19.59,-67.58"/>
<polygon fill="none" stroke="#404040" points="19.7,-67.42 19.8,-60.21 26.49,-57.53 26.39,-64.74 19.7,-67.42"/>
<text text-anchor="middle" x="46.5" y="-101" font-family="Helvetica,sans-Serif" font-size="10.00"> +blocked</text>
<text text-anchor="middle" x="46.5" y="-90" font-family="Helvetica,sans-Serif" font-size="10.00">+hpDamage</text>
<text text-anchor="middle" x="46.5" y="-79" font-family="Helvetica,sans-Serif" font-size="10.00">+requested</text>
</g>
<!-- Node3 -->
<g id="node3" class="node">
<title>Node3</title>
<g id="a_node3"><a xlink:title=" ">
<polygon fill="white" stroke="#666666" points="80.5,-127.5 80.5,-184.5 118.5,-184.5 118.5,-127.5 80.5,-127.5"/>
<text text-anchor="middle" x="99.5" y="-172.5" font-family="Helvetica,sans-Serif" font-size="10.00">bool</text>
<polyline fill="none" stroke="#666666" points="80.5,-165.5 118.5,-165.5 "/>
<text text-anchor="middle" x="99.5" y="-153.5" font-family="Helvetica,sans-Serif" font-size="10.00"> </text>
<polyline fill="none" stroke="#666666" points="80.5,-146.5 118.5,-146.5 "/>
<text text-anchor="middle" x="99.5" y="-134.5" font-family="Helvetica,sans-Serif" font-size="10.00"> </text>
</a>
</g>
</g>
<!-- Node3&#45;&gt;Node1 -->
<g id="edge2" class="edge">
<title>Node3&#45;&gt;Node1</title>
<path fill="none" stroke="#404040" d="M92.91,-127.24C88.99,-111.94 83.6,-92.72 77.5,-76 76.69,-73.77 75.81,-71.5 74.9,-69.23"/>
<polygon fill="none" stroke="#404040" points="74.79,-68.97 68.76,-65.02 70.09,-57.93 76.12,-61.88 74.79,-68.97"/>
<text text-anchor="middle" x="119.5" y="-90" font-family="Helvetica,sans-Serif" font-size="10.00"> +targetDied</text>
</g>
</g>
</svg>
