<?xml version="1.0" encoding="UTF-8" standalone="no"?>
<!DOCTYPE svg PUBLIC "-//W3C//DTD SVG 1.1//EN"
 "http://www.w3.org/Graphics/SVG/1.1/DTD/svg11.dtd">
<!-- Generated by graphviz version 2.43.0 (0)
 -->
<!-- Title: entities/enemies/wolfPack.cpp Pages: 1 -->
<svg width="519pt" height="302pt"
 viewBox="0.00 0.00 518.50 302.00" xmlns="http://www.w3.org/2000/svg" xmlns:xlink="http://www.w3.org/1999/xlink">
<g id="graph0" class="graph" transform="scale(1 1) rotate(0) translate(4 298)">
<title>entities/enemies/wolfPack.cpp</title>
<!-- Node1 -->
<g id="node1" class="node">
<title>Node1</title>
<g id="a_node1"><a xlink:title=" ">
<polygon fill="#999999" stroke="#666666" points="430,-294 265,-294 265,-275 430,-275 430,-294"/>
<text text-anchor="middle" x="347.5" y="-282" font-family="Helvetica,sans-Serif" font-size="10.00">entities/enemies/wolfPack.cpp</text>
</a>
</g>
</g>
<!-- Node2 -->
<g id="node2" class="node">
<title>Node2</title>
<g id="a_node2"><a xlink:href="wolfPack_8h.html" target="_top" xlink:title=" ">
<polygon fill="white" stroke="#666666" points="250,-239 181,-239 181,-220 250,-220 250,-239"/>
<text text-anchor="middle" x="215.5" y="-227" font-family="Helvetica,sans-Serif" font-size="10.00">wolfPack.h</text>
</a>
</g>
</g>
<!-- Node1&#45;&gt;Node2 -->
<g id="edge1" class="edge">
<title>Node1&#45;&gt;Node2</title>
<path fill="none" stroke="#63b8ff" d="M326.29,-274.98C304.77,-266.34 271.22,-252.87 246.67,-243.02"/>
<polygon fill="#63b8ff" stroke="#63b8ff" points="247.68,-239.65 237.09,-239.17 245.07,-246.14 247.68,-239.65"/>
</g>
<!-- Node12 -->
<g id="node12" class="node">
<title>Node12</title>
<g id="a_node12"><a xlink:href="combatTarget_8h.html" target="_top" xlink:title=" ">
<polygon fill="white" stroke="#666666" points="510.5,-184 378.5,-184 378.5,-165 510.5,-165 510.5,-184"/>
<text text-anchor="middle" x="444.5" y="-172" font-family="Helvetica,sans-Serif" font-size="10.00">combat/combatTarget.h</text>
</a>
</g>
</g>
<!-- Node1&#45;&gt;Node12 -->
<g id="edge14" class="edge">
<title>Node1&#45;&gt;Node12</title>
<path fill="none" stroke="#63b8ff" d="M373.44,-274.88C390.84,-267.83 412.96,-256.19 426.5,-239 436.58,-226.2 441.02,-208.03 442.97,-194.4"/>
<polygon fill="#63b8ff" stroke="#63b8ff" points="446.47,-194.57 444.09,-184.24 439.51,-193.8 446.47,-194.57"/>
</g>
<!-- Node13 -->
<g id="node13" class="node">
<title>Node13</title>
<g id="a_node13"><a xlink:href="gainArmorEffect_8h.html" target="_top" xlink:title=" ">
<polygon fill="white" stroke="#666666" points="417.5,-239 277.5,-239 277.5,-220 417.5,-220 417.5,-239"/>
<text text-anchor="middle" x="347.5" y="-227" font-family="Helvetica,sans-Serif" font-size="10.00">effects/gainArmorEffect.h</text>
</a>
</g>
</g>
<!-- Node1&#45;&gt;Node13 -->
<g id="edge15" class="edge">
<title>Node1&#45;&gt;Node13</title>
<path fill="none" stroke="#63b8ff" d="M347.5,-274.75C347.5,-267.8 347.5,-257.85 347.5,-249.13"/>
<polygon fill="#63b8ff" stroke="#63b8ff" points="351,-249.09 347.5,-239.09 344,-249.09 351,-249.09"/>
</g>
<!-- Node3 -->
<g id="node3" class="node">
<title>Node3</title>
<g id="a_node3"><a xlink:href="enemy_8h.html" target="_top" xlink:title=" ">
<polygon fill="white" stroke="#666666" points="211.5,-184 153.5,-184 153.5,-165 211.5,-165 211.5,-184"/>
<text text-anchor="middle" x="182.5" y="-172" font-family="Helvetica,sans-Serif" font-size="10.00">enemy.h</text>
</a>
</g>
</g>
<!-- Node2&#45;&gt;Node3 -->
<g id="edge2" class="edge">
<title>Node2&#45;&gt;Node3</title>
<path fill="none" stroke="#63b8ff" d="M210.05,-219.75C205.49,-212.42 198.83,-201.73 193.21,-192.7"/>
<polygon fill="#63b8ff" stroke="#63b8ff" points="196.1,-190.73 187.85,-184.09 190.16,-194.43 196.1,-190.73"/>
</g>
<!-- Node4 -->
<g id="node4" class="node">
<title>Node4</title>
<g id="a_node4"><a xlink:href="enemyMove_8h.html" target="_top" xlink:title=" ">
<polygon fill="white" stroke="#666666" points="291.5,-129 205.5,-129 205.5,-110 291.5,-110 291.5,-129"/>
<text text-anchor="middle" x="248.5" y="-117" font-family="Helvetica,sans-Serif" font-size="10.00">enemyMove.h</text>
</a>
</g>
</g>
<!-- Node3&#45;&gt;Node4 -->
<g id="edge3" class="edge">
<title>Node3&#45;&gt;Node4</title>
<path fill="none" stroke="#63b8ff" d="M193.1,-164.98C202.96,-157.07 217.85,-145.11 229.72,-135.58"/>
<polygon fill="#63b8ff" stroke="#63b8ff" points="232.1,-138.16 237.7,-129.17 227.71,-132.7 232.1,-138.16"/>
</g>
<!-- Node9 -->
<g id="node9" class="node">
<title>Node9</title>
<g id="a_node9"><a xlink:title=" ">
<polygon fill="#e0e0e0" stroke="#999999" points="201,-74 154,-74 154,-55 201,-55 201,-74"/>
<text text-anchor="middle" x="177.5" y="-62" font-family="Helvetica,sans-Serif" font-size="10.00">vector</text>
</a>
</g>
</g>
<!-- Node3&#45;&gt;Node9 -->
<g id="edge13" class="edge">
<title>Node3&#45;&gt;Node9</title>
<path fill="none" stroke="#63b8ff" d="M182.09,-164.66C181.28,-147.17 179.46,-107.8 178.37,-84.27"/>
<polygon fill="#63b8ff" stroke="#63b8ff" points="181.86,-83.99 177.9,-74.16 174.87,-84.31 181.86,-83.99"/>
</g>
<!-- Node10 -->
<g id="node10" class="node">
<title>Node10</title>
<g id="a_node10"><a xlink:href="entity_8h.html" target="_top" xlink:title=" ">
<polygon fill="white" stroke="#666666" points="149.5,-129 57.5,-129 57.5,-110 149.5,-110 149.5,-129"/>
<text text-anchor="middle" x="103.5" y="-117" font-family="Helvetica,sans-Serif" font-size="10.00">entities/entity.h</text>
</a>
</g>
</g>
<!-- Node3&#45;&gt;Node10 -->
<g id="edge10" class="edge">
<title>Node3&#45;&gt;Node10</title>
<path fill="none" stroke="#63b8ff" d="M169.81,-164.98C157.67,-156.84 139.14,-144.41 124.75,-134.76"/>
<polygon fill="#63b8ff" stroke="#63b8ff" points="126.68,-131.84 116.42,-129.17 122.78,-137.65 126.68,-131.84"/>
</g>
<!-- Node5 -->
<g id="node5" class="node">
<title>Node5</title>
<g id="a_node5"><a xlink:href="effect_8h.html" target="_top" xlink:title=" ">
<polygon fill="white" stroke="#666666" points="423,-74 334,-74 334,-55 423,-55 423,-74"/>
<text text-anchor="middle" x="378.5" y="-62" font-family="Helvetica,sans-Serif" font-size="10.00">effects/effect.h</text>
</a>
</g>
</g>
<!-- Node4&#45;&gt;Node5 -->
<g id="edge4" class="edge">
<title>Node4&#45;&gt;Node5</title>
<path fill="none" stroke="#63b8ff" d="M269.39,-109.98C290.58,-101.34 323.63,-87.87 347.8,-78.02"/>
<polygon fill="#63b8ff" stroke="#63b8ff" points="349.29,-81.19 357.23,-74.17 346.65,-74.7 349.29,-81.19"/>
</g>
<!-- Node6 -->
<g id="node6" class="node">
<title>Node6</title>
<g id="a_node6"><a xlink:href="effectParams_8h.html" target="_top" xlink:title=" ">
<polygon fill="white" stroke="#666666" points="366,-19 241,-19 241,0 366,0 366,-19"/>
<text text-anchor="middle" x="303.5" y="-7" font-family="Helvetica,sans-Serif" font-size="10.00">effects/effectParams.h</text>
</a>
</g>
</g>
<!-- Node4&#45;&gt;Node6 -->
<g id="edge6" class="edge">
<title>Node4&#45;&gt;Node6</title>
<path fill="none" stroke="#63b8ff" d="M246.24,-109.77C243.43,-97.03 239.95,-72.91 248.5,-55 254.59,-42.23 266.34,-31.94 277.42,-24.49"/>
<polygon fill="#63b8ff" stroke="#63b8ff" points="279.4,-27.38 286.04,-19.12 275.7,-21.43 279.4,-27.38"/>
</g>
<!-- Node7 -->
<g id="node7" class="node">
<title>Node7</title>
<g id="a_node7"><a xlink:title=" ">
<polygon fill="#e0e0e0" stroke="#999999" points="315.5,-74 257.5,-74 257.5,-55 315.5,-55 315.5,-74"/>
<text text-anchor="middle" x="286.5" y="-62" font-family="Helvetica,sans-Serif" font-size="10.00">memory</text>
</a>
</g>
</g>
<!-- Node4&#45;&gt;Node7 -->
<g id="edge7" class="edge">
<title>Node4&#45;&gt;Node7</title>
<path fill="none" stroke="#63b8ff" d="M254.77,-109.75C260.09,-102.34 267.86,-91.5 274.38,-82.41"/>
<polygon fill="#63b8ff" stroke="#63b8ff" points="277.36,-84.26 280.34,-74.09 271.67,-80.18 277.36,-84.26"/>
</g>
<!-- Node8 -->
<g id="node8" class="node">
<title>Node8</title>
<g id="a_node8"><a xlink:title=" ">
<polygon fill="#e0e0e0" stroke="#999999" points="135.5,-74 91.5,-74 91.5,-55 135.5,-55 135.5,-74"/>
<text text-anchor="middle" x="113.5" y="-62" font-family="Helvetica,sans-Serif" font-size="10.00">string</text>
</a>
</g>
</g>
<!-- Node4&#45;&gt;Node8 -->
<g id="edge8" class="edge">
<title>Node4&#45;&gt;Node8</title>
<path fill="none" stroke="#63b8ff" d="M226.81,-109.98C204.7,-101.3 170.18,-87.75 145.05,-77.88"/>
<polygon fill="#63b8ff" stroke="#63b8ff" points="146.17,-74.57 135.58,-74.17 143.61,-81.08 146.17,-74.57"/>
</g>
<!-- Node4&#45;&gt;Node9 -->
<g id="edge9" class="edge">
<title>Node4&#45;&gt;Node9</title>
<path fill="none" stroke="#63b8ff" d="M237.09,-109.98C226.39,-102 210.16,-89.88 197.34,-80.31"/>
<polygon fill="#63b8ff" stroke="#63b8ff" points="199.22,-77.35 189.11,-74.17 195.03,-82.96 199.22,-77.35"/>
</g>
<!-- Node5&#45;&gt;Node6 -->
<g id="edge5" class="edge">
<title>Node5&#45;&gt;Node6</title>
<path fill="none" stroke="#63b8ff" d="M366.45,-54.98C355.04,-46.92 337.67,-34.65 324.07,-25.03"/>
<polygon fill="#63b8ff" stroke="#63b8ff" points="325.96,-22.08 315.77,-19.17 321.92,-27.8 325.96,-22.08"/>
</g>
<!-- Node10&#45;&gt;Node8 -->
<g id="edge11" class="edge">
<title>Node10&#45;&gt;Node8</title>
<path fill="none" stroke="#63b8ff" d="M105.15,-109.75C106.46,-102.8 108.34,-92.85 109.98,-84.13"/>
<polygon fill="#63b8ff" stroke="#63b8ff" points="113.46,-84.56 111.88,-74.09 106.59,-83.27 113.46,-84.56"/>
</g>
<!-- Node11 -->
<g id="node11" class="node">
<title>Node11</title>
<g id="a_node11"><a xlink:title=" ">
<polygon fill="#e0e0e0" stroke="#999999" points="73,-74 0,-74 0,-55 73,-55 73,-74"/>
<text text-anchor="middle" x="36.5" y="-62" font-family="Helvetica,sans-Serif" font-size="10.00">string_view</text>
</a>
</g>
</g>
<!-- Node10&#45;&gt;Node11 -->
<g id="edge12" class="edge">
<title>Node10&#45;&gt;Node11</title>
<path fill="none" stroke="#63b8ff" d="M92.74,-109.98C82.73,-102.07 67.61,-90.11 55.57,-80.58"/>
<polygon fill="#63b8ff" stroke="#63b8ff" points="57.47,-77.63 47.46,-74.17 53.13,-83.12 57.47,-77.63"/>
</g>
<!-- Node13&#45;&gt;Node5 -->
<g id="edge17" class="edge">
<title>Node13&#45;&gt;Node5</title>
<path fill="none" stroke="#63b8ff" d="M349.17,-219.74C354.02,-194.2 368.24,-119.43 374.94,-84.23"/>
<polygon fill="#63b8ff" stroke="#63b8ff" points="378.4,-84.78 376.83,-74.31 371.52,-83.48 378.4,-84.78"/>
</g>
<!-- Node13&#45;&gt;Node12 -->
<g id="edge16" class="edge">
<title>Node13&#45;&gt;Node12</title>
<path fill="none" stroke="#63b8ff" d="M363.08,-219.98C378.27,-211.69 401.6,-198.94 419.4,-189.22"/>
<polygon fill="#63b8ff" stroke="#63b8ff" points="421.53,-192.04 428.63,-184.17 418.18,-185.89 421.53,-192.04"/>
</g>
</g>
</svg>
